<?xml version="1.0" encoding="iso-8859-1"?>
<!-- Generator: Adobe Illustrator 19.0.0, SVG Export Plug-In . SVG Version: 6.00 Build 0)  -->
<svg xmlns="http://www.w3.org/2000/svg" xmlns:xlink="http://www.w3.org/1999/xlink" version="1.1" id="Layer_1" x="0px" y="0px" viewBox="0 0 297 297" style="enable-background:new 0 0 297 297;" xml:space="preserve" width="32px" height="32px">
<g>
	<g>
		<g>
			<path d="M296.287,144.915c-0.36-0.869-9.072-21.511-31.772-42.015C243.777,84.167,206.814,61.836,148.5,61.836     c-58.645,0-95.593,22.337-116.263,41.076C9.6,123.435,1.041,144.105,0.688,144.975c-0.909,2.24-0.918,4.744-0.024,6.99     c0.347,0.871,8.75,21.569,31.327,42.112c20.599,18.744,57.533,41.087,116.509,41.087c57.653,0,94.643-22.318,115.521-41.041     c22.823-20.466,31.843-41.054,32.215-41.92C297.237,149.881,297.254,147.252,296.287,144.915z M45.299,180.847     c-14.511-13.007-22.379-26.193-25.55-32.315c3.216-6.126,11.183-19.332,25.764-32.359C56.3,106.536,68.454,98.838,81.909,93.1     c-12.526,15.031-20.073,34.35-20.073,55.4c0,21.13,7.605,40.515,20.217,55.571C68.425,198.319,56.148,190.573,45.299,180.847z      M148.5,216.426c-37.455,0-67.926-30.472-67.926-67.926s30.471-67.926,67.926-67.926s67.926,30.472,67.926,67.926     S185.955,216.426,148.5,216.426z M215.749,203.099c12.131-14.914,19.415-33.92,19.415-54.599     c0-20.964-7.484-40.212-19.918-55.217c13.277,5.723,25.308,13.365,36.026,22.91c14.541,12.949,22.596,26.074,25.899,32.251     C271.72,158.384,253.683,186.291,215.749,203.099z" fill="#FFFFFF"/>
			<path d="M148.5,108.213c-22.214,0-40.287,18.073-40.287,40.287s18.073,40.287,40.287,40.287s40.287-18.073,40.287-40.287     S170.714,108.213,148.5,108.213z M148.5,170.049c-11.883,0-21.549-9.666-21.549-21.549s9.667-21.549,21.549-21.549     s21.549,9.666,21.549,21.549S160.383,170.049,148.5,170.049z" fill="#FFFFFF"/>
		</g>
	</g>
</g>
<g>
</g>
<g>
</g>
<g>
</g>
<g>
</g>
<g>
</g>
<g>
</g>
<g>
</g>
<g>
</g>
<g>
</g>
<g>
</g>
<g>
</g>
<g>
</g>
<g>
</g>
<g>
</g>
<g>
</g>
</svg>
