<?xml version="1.0" encoding="UTF-8" standalone="no"?>
<!-- Generator: Adobe Illustrator 19.0.0, SVG Export Plug-In . SVG Version: 6.00 Build 0)  -->

<svg
   xmlns:dc="http://purl.org/dc/elements/1.1/"
   xmlns:cc="http://creativecommons.org/ns#"
   xmlns:rdf="http://www.w3.org/1999/02/22-rdf-syntax-ns#"
   xmlns:svg="http://www.w3.org/2000/svg"
   xmlns="http://www.w3.org/2000/svg"
   xmlns:sodipodi="http://sodipodi.sourceforge.net/DTD/sodipodi-0.dtd"
   xmlns:inkscape="http://www.inkscape.org/namespaces/inkscape"
   version="1.1"
   id="Layer_1"
   x="0px"
   y="0px"
   viewBox="0 0 297 297"
   style="enable-background:new 0 0 297 297;"
   xml:space="preserve"
   width="32px"
   height="32px"
   sodipodi:docname="eye-on-lock-symbolic.svg"
   inkscape:version="0.92.2 (5c3e80d, 2017-08-06)"><metadata
     id="metadata3884"><rdf:RDF><cc:Work
         rdf:about=""><dc:format>image/svg+xml</dc:format><dc:type
           rdf:resource="http://purl.org/dc/dcmitype/StillImage" /><dc:title /></cc:Work></rdf:RDF></metadata><defs
     id="defs3882" /><sodipodi:namedview
     pagecolor="#ffffff"
     bordercolor="#666666"
     borderopacity="1"
     objecttolerance="10"
     gridtolerance="10"
     guidetolerance="10"
     inkscape:pageopacity="0"
     inkscape:pageshadow="2"
     inkscape:window-width="1920"
     inkscape:window-height="1117"
     id="namedview3880"
     showgrid="false"
     inkscape:pagecheckerboard="true"
     inkscape:zoom="26.75"
     inkscape:cx="9.8317757"
     inkscape:cy="15.813084"
     inkscape:window-x="0"
     inkscape:window-y="27"
     inkscape:window-maximized="1"
     inkscape:current-layer="Layer_1" /><g
     id="g3847"><g
       id="g3845"><g
         id="g3843"><path
           d="M296.287,144.915c-0.36-0.869-9.072-21.511-31.772-42.015C243.777,84.167,206.814,61.836,148.5,61.836     c-58.645,0-95.593,22.337-116.263,41.076C9.6,123.435,1.041,144.105,0.688,144.975c-0.909,2.24-0.918,4.744-0.024,6.99     c0.347,0.871,8.75,21.569,31.327,42.112c20.599,18.744,57.533,41.087,116.509,41.087c57.653,0,94.643-22.318,115.521-41.041     c22.823-20.466,31.843-41.054,32.215-41.92C297.237,149.881,297.254,147.252,296.287,144.915z M45.299,180.847     c-14.511-13.007-22.379-26.193-25.55-32.315c3.216-6.126,11.183-19.332,25.764-32.359C56.3,106.536,68.454,98.838,81.909,93.1     c-12.526,15.031-20.073,34.35-20.073,55.4c0,21.13,7.605,40.515,20.217,55.571C68.425,198.319,56.148,190.573,45.299,180.847z      M148.5,216.426c-37.455,0-67.926-30.472-67.926-67.926s30.471-67.926,67.926-67.926s67.926,30.472,67.926,67.926     S185.955,216.426,148.5,216.426z M215.749,203.099c12.131-14.914,19.415-33.92,19.415-54.599     c0-20.964-7.484-40.212-19.918-55.217c13.277,5.723,25.308,13.365,36.026,22.91c14.541,12.949,22.596,26.074,25.899,32.251     C271.72,158.384,253.683,186.291,215.749,203.099z"
           fill="#FFFFFF"
           id="path3839" /><path
           d="M148.5,108.213c-22.214,0-40.287,18.073-40.287,40.287s18.073,40.287,40.287,40.287s40.287-18.073,40.287-40.287     S170.714,108.213,148.5,108.213z M148.5,170.049c-11.883,0-21.549-9.666-21.549-21.549s9.667-21.549,21.549-21.549     s21.549,9.666,21.549,21.549S160.383,170.049,148.5,170.049z"
           fill="#FFFFFF"
           id="path3841" /></g></g></g><g
     id="g3849" /><g
     id="g3851" /><g
     id="g3853" /><g
     id="g3855" /><g
     id="g3857" /><g
     id="g3859" /><g
     id="g3861" /><g
     id="g3863" /><g
     id="g3865" /><g
     id="g3867" /><g
     id="g3869" /><g
     id="g3871" /><g
     id="g3873" /><g
     id="g3875" /><g
     id="g3877" /><path
     style="fill:#ffffff;fill-opacity:1;stroke:#000000;stroke-width:0;stroke-miterlimit:4;stroke-dasharray:none;stroke-opacity:1"
     d="m 213.80977,277.09418 c 0,-13.35388 0.0913,-20.16082 0.28186,-21.00607 0.35276,-1.56508 1.54724,-3.081 3.18971,-4.04803 l 1.26021,-0.74195 4.60182,-0.0812 4.60182,-0.0813 V 240.1213 c 0,-11.93385 0.0808,-12.83085 1.44735,-16.07919 1.76598,-4.19764 5.5683,-8.10128 9.90175,-10.16559 4.21259,-2.00673 5.03593,-2.11374 16.26361,-2.11374 8.63204,0 9.87248,0.0493 11.4838,0.45863 6.74483,1.71244 12.25231,6.36645 14.56814,12.31056 1.19371,3.06392 1.30272,4.39108 1.30272,15.86032 v 10.7831 l 4.06448,0.001 c 2.23548,7.1e-4 4.49704,0.11568 5.02571,0.25539 1.54179,0.40747 3.07659,1.69193 3.9393,3.29681 l 0.77686,1.4452 0.073,20.33784 0.073,20.33773 h -41.42758 -41.42759 z m 55.17096,-36.90771 c -0.0733,-10.80762 -0.084,-11.00565 -0.64628,-12.00613 -0.77684,-1.38218 -2.49334,-2.7245 -4.04444,-3.16281 -1.91191,-0.54029 -16.26452,-0.52498 -18.19091,0.0197 -1.69854,0.47998 -3.27689,1.808 -4.06941,3.42401 -0.60182,1.22719 -0.60216,1.23316 -0.60465,11.97111 l -0.002,10.74332 h 13.81639 13.8164 z"
     id="path4010"
     inkscape:connector-curvature="0" /></svg>