<?xml version="1.0" encoding="iso-8859-1"?>
<!-- Generator: Adobe Illustrator 18.0.0, SVG Export Plug-In . SVG Version: 6.00 Build 0)  -->
<!DOCTYPE svg PUBLIC "-//W3C//DTD SVG 1.1//EN" "http://www.w3.org/Graphics/SVG/1.1/DTD/svg11.dtd">
<svg xmlns="http://www.w3.org/2000/svg" xmlns:xlink="http://www.w3.org/1999/xlink" version="1.1" id="Capa_1" x="0px" y="0px" viewBox="0 0 297 297" style="enable-background:new 0 0 297 297;" xml:space="preserve" width="32px" height="32px">
<path d="M294.908,142.226c-0.566-0.756-14.168-18.72-38.881-36.693c-32.842-23.886-70.023-36.511-107.525-36.511  c-37.501,0-74.683,12.625-107.526,36.51C16.262,123.506,2.658,141.47,2.092,142.226c-2.789,3.718-2.789,8.831,0,12.549  c0.566,0.756,14.17,18.72,38.884,36.694c32.844,23.885,70.025,36.51,107.526,36.51c37.502,0,74.684-12.625,107.525-36.511  c24.713-17.974,38.315-35.938,38.881-36.693C297.697,151.057,297.697,145.943,294.908,142.226z M53.834,122.043  c29.516-21.305,61.365-32.106,94.668-32.106c33.302,0,65.151,10.802,94.665,32.106c7.648,5.521,14.14,11.072,19.384,15.999H34.449  C39.694,133.115,46.186,127.565,53.834,122.043z M148.502,207.064c-28.722,0-52.662-20.789-57.609-48.105h31.852  c5.58,8.265,15.033,13.699,25.758,13.699c10.725,0,20.178-5.435,25.759-13.699h31.851  C201.165,186.274,177.224,207.064,148.502,207.064z M34.45,158.958h35.283c1.577,11.943,5.812,23.054,12.097,32.724  c-9.538-4.567-18.878-10.144-27.996-16.725C46.186,169.436,39.694,163.885,34.45,158.958z M243.167,174.957  c-9.116,6.581-18.456,12.156-27.992,16.724c6.284-9.67,10.519-20.78,12.097-32.723h35.279  C257.306,163.885,250.815,169.436,243.167,174.957z" fill="#FFFFFF"/>
<g>
</g>
<g>
</g>
<g>
</g>
<g>
</g>
<g>
</g>
<g>
</g>
<g>
</g>
<g>
</g>
<g>
</g>
<g>
</g>
<g>
</g>
<g>
</g>
<g>
</g>
<g>
</g>
<g>
</g>
</svg>
