<?xml version="1.0" encoding="UTF-8"?>
<svg width="64" height="64" version="1.1" viewBox="0 0 16.933 16.933" xmlns="http://www.w3.org/2000/svg" xmlns:cc="http://creativecommons.org/ns#" xmlns:dc="http://purl.org/dc/elements/1.1/" xmlns:rdf="http://www.w3.org/1999/02/22-rdf-syntax-ns#">
 <metadata>
  <rdf:RDF>
   <cc:Work rdf:about="">
    <dc:format>image/svg+xml</dc:format>
    <dc:type rdf:resource="http://purl.org/dc/dcmitype/StillImage"/>
    <dc:title/>
   </cc:Work>
  </rdf:RDF>
 </metadata>
 <defs>
  <linearGradient id="e" x1="8.4207" x2="8.4207" y1="281.1" y2="300.27" gradientTransform="translate(-.027545 -280.19)" gradientUnits="userSpaceOnUse">
   <stop stop-color="#c896ff" offset="0"/>
   <stop stop-color="#32afff" offset="1"/>
  </linearGradient>
  <style type="text/css"/>
  <style type="text/css"/>
 </defs>
 <circle cx="8.4665" cy="8.6014" r="7.9376" image-rendering="optimizeSpeed" opacity=".2" stroke-width=".14032"/>
 <circle cx="8.4665" cy="8.3316" r="7.9376" fill="url(#e)" image-rendering="optimizeSpeed"/>
 <circle cx="-330.38" cy="-328.5" r="0" fill="#5e4aa6" image-rendering="optimizeSpeed" stroke-width=".26458"/>
 <path d="m4.8602 12.145c-0.00454-1.731 2.4989-6.7299 3.6642-6.7549 0.58269-0.014766 1.4562 1.0927 2.1899 2.5238 0.73489 1.43 1.3289 3.1849 1.3585 4.4661 0 0-2.8203-5.5077-3.5234-5.5236-0.71558-0.019309-2.6601 3.88-2.4284 4.3139 0.22717 0.42367 4.4162-0.94275 4.4162-0.94275-0.09087 0.13971-2.8248 1.948-4.8762 2.3739-0.31009-0.01363-0.77465 0-0.80077-0.45661" fill-rule="evenodd" opacity=".2" stroke-width="1.1358"/>
 <path d="m4.8602 11.616c-0.00454-1.731 2.4989-6.7299 3.6642-6.7549 0.58269-0.014766 1.4562 1.0927 2.1899 2.5238 0.73489 1.43 1.3289 3.1849 1.3585 4.4661 0 0-2.8203-5.5077-3.5234-5.5236-0.71558-0.019309-2.6601 3.88-2.4284 4.3139 0.22717 0.42367 4.4162-0.94275 4.4162-0.94275-0.09087 0.13971-2.8248 1.948-4.8762 2.3739-0.31009-0.01363-0.77465 0-0.80077-0.45661" fill="#fff" fill-rule="evenodd" stroke-width="1.1358"/>
</svg>
