<?xml version="1.0" encoding="UTF-8"?>
<svg width="64" height="64" version="1.1" viewBox="0 0 16.933 16.933" xmlns="http://www.w3.org/2000/svg" xmlns:cc="http://creativecommons.org/ns#" xmlns:dc="http://purl.org/dc/elements/1.1/" xmlns:rdf="http://www.w3.org/1999/02/22-rdf-syntax-ns#" xmlns:xlink="http://www.w3.org/1999/xlink">
 <metadata>
  <rdf:RDF>
   <cc:Work rdf:about="">
    <dc:format>image/svg+xml</dc:format>
    <dc:type rdf:resource="http://purl.org/dc/dcmitype/StillImage"/>
    <dc:title/>
   </cc:Work>
  </rdf:RDF>
 </metadata>
 <defs>
  <linearGradient id="a">
   <stop stop-color="#969696" offset="0"/>
   <stop stop-color="#e6e6e6" stop-opacity=".90196" offset="1"/>
  </linearGradient>
  <linearGradient id="f-3" x1="10.798" x2="10.798" y1="282.88" y2="283.29" gradientTransform="matrix(1.0543 0 0 .55499 -3.3237 125.99)" gradientUnits="userSpaceOnUse" xlink:href="#a"/>
  <linearGradient id="g-6" x1="8.8166" x2="8.8166" y1="293.7" y2="294.12" gradientTransform="matrix(.94579 0 0 .555 .28524 130.86)" gradientUnits="userSpaceOnUse" xlink:href="#a"/>
  <linearGradient id="e-7" x1="7.998" x2="7.998" y1="284.98" y2="285.41" gradientTransform="matrix(.94579 0 0 .555 .49316 126.98)" gradientUnits="userSpaceOnUse" xlink:href="#a"/>
  <linearGradient id="d-5" x1="8.7643" x2="8.7643" y1="287.18" y2="287.64" gradientTransform="matrix(.94579 0 0 .555 .48658 127.95)" gradientUnits="userSpaceOnUse" xlink:href="#a"/>
  <linearGradient id="c-3" x1="8.3178" x2="8.3178" y1="289.36" y2="289.81" gradientTransform="matrix(.94579 0 0 .555 .46856 128.92)" gradientUnits="userSpaceOnUse" xlink:href="#a"/>
  <linearGradient id="b-5" x1="8.2553" x2="8.2553" y1="291.55" y2="291.96" gradientTransform="matrix(.94579 0 0 .55502 .57869 129.88)" gradientUnits="userSpaceOnUse" xlink:href="#a"/>
  <linearGradient id="h" x1="624" x2="688" y1="369.24" y2="369.24" gradientUnits="userSpaceOnUse">
   <stop stop-color="#5884f4" offset="0"/>
   <stop stop-color="#5884f4" offset=".278"/>
   <stop stop-color="#2f5fdd" offset=".278"/>
   <stop stop-color="#2f5fdd" offset=".70735"/>
   <stop stop-color="#234db8" offset=".70936"/>
   <stop stop-color="#234db8" offset="1"/>
  </linearGradient>
 </defs>
 <g transform="translate(-.0272 .0065001)" fill="#5e4aa6" stroke-width=".26458">
  <circle cx="-330.35" cy="-328.38" r="0"/>
  <circle cx="-312.11" cy="-326.25" r="0"/>
  <circle cx="-306.02" cy="-333.07" r="0"/>
  <circle cx="-308.84" cy="-326.01" r="0"/>
 </g>
 <g fill="#5e4aa6" stroke-width=".26458">
  <circle cx="-330.35" cy="-328.38" r="0"/>
  <circle cx="-307.56" cy="-332.54" r="0"/>
  <circle cx="-330.35" cy="-328.38" r="0"/>
 </g>
 <g transform="translate(-.027 -.12849)">
  <g transform="translate(0,-280.07)">
   <circle cx="8.4935" cy="288.8" r="7.9375" opacity=".2" stroke-width=".14032"/>
   <circle cx="8.4935" cy="288.53" r="7.9375" fill="#fafafa" style="paint-order:normal"/>
   <path d="m3.1182 283.02c-0.042211 0.0443-0.078974 0.0835-0.13658 0.14895l11.024 9.8e-4c-0.05944-0.0607-0.08604-0.0922-0.14076-0.15z" fill="url(#f-3)" opacity=".6" style="paint-order:normal"/>
   <path d="m2.9987 293.91c0.048566 0.052 0.080515 0.0907 0.1349 0.15h10.72c0.05003-0.0561 0.07465-0.0855 0.13441-0.15z" fill="url(#g-6)" opacity=".6" style="paint-order:normal"/>
   <path d="m1.7062 285.18c-0.022302 0.0517-0.037132 0.0892-0.065978 0.15h13.708c-0.02381-0.0504-0.04631-0.10145-0.06843-0.15z" fill="url(#e-7)" opacity=".6" style="paint-order:normal"/>
   <path d="m1.088 287.36c-0.00964 0.0489-0.015643 0.0999-0.024922 0.15h14.862c-0.0088-0.0501-0.01516-0.10114-0.0259-0.15z" fill="url(#d-5)" opacity=".6" style="paint-order:normal"/>
   <path d="m1.0618 289.55c0.00899 0.0501 0.01744 0.10011 0.027371 0.15h14.811c0.0093-0.0539 0.01711-0.0968 0.02541-0.15z" fill="url(#c-3)" opacity=".6" style="paint-order:normal"/>
   <path d="m1.6442 291.73c0.021867 0.0535 0.040442 0.0932 0.064512 0.15h13.57c0.02313-0.0512 0.03674-0.0804 0.06941-0.15z" fill="url(#b-5)" opacity=".6" style="paint-order:normal"/>
   <circle cx="-330.35" cy="-48.312" r="0" fill="#5e4aa6" stroke-width=".26458"/>
  </g>
  <g transform="matrix(.026324 .026324 -.028551 .028551 -1.6011 -16.003)" enable-background="new" stroke-width="2">
   <path transform="matrix(5.0254,-4.6334,5.0254,4.6334,334.37,252.21)" d="m41.834 16.771-20.062 20.062-3.7949 8.1328c-1.17e-4 2.02e-4 -0.0039 0.0059-0.0039 0.0059l-1.7715 3.7988h2e-3l3.7969-1.7715 8.1406-3.7988 1.1934-1.1953 18.867-18.865-6.3672-6.3691z" opacity=".15" stroke-width=".29307"/>
   <path d="m688 319.36-32 81.138-32-81.138v-11.064h64z" fill="#fee1c2"/>
   <path d="m645.81 374.68 10.188 25.817 10.188-25.817s0.77644-2.7661-1.2055-2.7661-3.9467 3.6881-3.9467 3.6881-1.0353-4.6101-5.0138-4.6101-5.0138 4.6101-5.0138 4.6101-2.0077-3.6881-4.0077-3.6881-1.1875 2.7661-1.1875 2.7661z" color="#000000" enable-background="accumulate" fill="#5d5d5d"/>
   <path d="m624 319.36c0-7.3762 18-3.6881 18 7.3761 0-18.44 28-18.44 28 0 0-11.064 18-14.752 18-7.3761v-185.9h-64z" fill="url(#h)"/>
  </g>
 </g>
</svg>
