<svg width="64" height="64" version="1.1" viewBox="0 0 16.933 16.933" xmlns="http://www.w3.org/2000/svg" xmlns:xlink="http://www.w3.org/1999/xlink">
 <defs>
  <linearGradient id="b" x1="8.4207" x2="8.4207" y1="279.52" y2="297.9" gradientTransform="translate(-5.46e-4,1.4e-6)" gradientUnits="userSpaceOnUse">
   <stop stop-color="#c896ff" offset="0"/>
   <stop stop-color="#af64ff" offset="1"/>
  </linearGradient>
  <linearGradient id="a" x1="6.3789" x2="6.3789" y1="299.31" y2="300.74" gradientTransform="translate(2.1775 -11.693)" gradientUnits="userSpaceOnUse">
   <stop stop-color="#ff9600" offset="0"/>
   <stop stop-color="#ff7846" offset="1"/>
  </linearGradient>
 </defs>
 <g transform="translate(0 -280.07)">
  <circle cx="8.4935" cy="288.8" r="7.9375" opacity=".2" stroke-width=".14032"/>
  <circle cx="8.4935" cy="288.53" r="7.9375" fill="url(#b)"/>
  <g transform="matrix(1 0 0 1.03 -.09177 -8.233)" fill-rule="evenodd" opacity=".2">
   <g stroke-width=".26591">
    <g transform="matrix(1.4925 0 0 1.4925 -7.2496 -167.01)">
     <path d="m10.61 301.23a3.7042 3.7415 0 0 0-0.52865 1.9182 3.7042 3.7415 0 0 0 0.52865 1.9182 3.7042 3.7415 0 0 0 0.52865-1.9182 3.7042 3.7415 0 0 0-0.52865-1.9182z" opacity=".7"/>
     <path d="m10.61 305.07a3.7042 3.7415 0 0 0-0.52865 1.9182 3.7042 3.7415 0 0 0 0.52865 1.9182 3.7042 3.7415 0 0 0 0.52865-1.9182 3.7042 3.7415 0 0 0-0.52865-1.9182z" opacity=".7"/>
     <path d="m14.446 305.07a3.7415 3.7042 0 0 0-1.9182-0.52866 3.7415 3.7042 0 0 0-1.9182 0.52866 3.7415 3.7042 0 0 0 1.9182 0.52864 3.7415 3.7042 0 0 0 1.9182-0.52864z" opacity=".7"/>
     <path d="m10.61 305.07a3.7415 3.7042 0 0 0-1.9182-0.52866 3.7415 3.7042 0 0 0-1.9182 0.52866 3.7415 3.7042 0 0 0 1.9182 0.52864 3.7415 3.7042 0 0 0 1.9182-0.52864z" opacity=".7"/>
     <path d="m13.323 307.78a3.7415 3.7042 45 0 0-0.98257-1.7302 3.7415 3.7042 45 0 0-1.7302-0.98258 3.7415 3.7042 45 0 0 0.98259 1.7302 3.7415 3.7042 45 0 0 1.7302 0.98259z" opacity=".7"/>
     <path d="m10.61 305.07a3.7415 3.7042 45 0 0-0.98257-1.7302 3.7415 3.7042 45 0 0-1.7302-0.98257 3.7415 3.7042 45 0 0 0.98258 1.7302 3.7415 3.7042 45 0 0 1.7302 0.98258z" opacity=".7"/>
     <path d="m7.897 307.78a3.7042 3.7415 45 0 0 1.7302-0.98258 3.7042 3.7415 45 0 0 0.98258-1.7302 3.7042 3.7415 45 0 0-1.7302 0.98259 3.7042 3.7415 45 0 0-0.98259 1.7302z" opacity=".7"/>
     <path d="m10.61 305.07a3.7042 3.7415 45 0 0 1.7302-0.98257 3.7042 3.7415 45 0 0 0.98257-1.7302 3.7042 3.7415 45 0 0-1.7302 0.98258 3.7042 3.7415 45 0 0-0.98258 1.7302z" opacity=".7"/>
    </g>
    <g transform="matrix(1.4925 0 0 1.4925 -4.4854 -141.54)">
     <path d="m10.239 284.47a3.7042 3.7415 22.709 0 0-1.2282 1.5654 3.7042 3.7415 22.709 0 0-0.25287 1.9736 3.7042 3.7415 22.709 0 0 1.2282-1.5654 3.7042 3.7415 22.709 0 0 0.25287-1.9736z" opacity=".7"/>
     <path d="m8.7577 288a3.7042 3.7415 22.709 0 0-1.2282 1.5654 3.7042 3.7415 22.709 0 0-0.25287 1.9736 3.7042 3.7415 22.709 0 0 1.2282-1.5654 3.7042 3.7415 22.709 0 0 0.25287-1.9736z" opacity=".7"/>
     <path d="m12.297 289.49a3.7415 3.7042 22.709 0 0-1.5654-1.2282 3.7415 3.7042 22.709 0 0-1.9736-0.25286 3.7415 3.7042 22.709 0 0 1.5654 1.2282 3.7415 3.7042 22.709 0 0 1.9736 0.25288z" opacity=".7"/>
     <path d="m8.7577 288a3.7415 3.7042 22.709 0 0-1.5654-1.2282 3.7415 3.7042 22.709 0 0-1.9736-0.25285 3.7415 3.7042 22.709 0 0 1.5654 1.2282 3.7415 3.7042 22.709 0 0 1.9736 0.25288z" opacity=".7"/>
     <path d="m10.213 291.55a3.7415 3.7042 67.709 0 0-0.23845-1.9754 3.7415 3.7042 67.709 0 0-1.2168-1.5744 3.7415 3.7042 67.709 0 0 0.23847 1.9754 3.7415 3.7042 67.709 0 0 1.2167 1.5744z" opacity=".7"/>
     <path d="m8.7577 288a3.7415 3.7042 67.709 0 0-0.23845-1.9754 3.7415 3.7042 67.709 0 0-1.2168-1.5744 3.7415 3.7042 67.709 0 0 0.23846 1.9754 3.7415 3.7042 67.709 0 0 1.2167 1.5744z" opacity=".7"/>
     <path d="m5.2079 289.46a3.7042 3.7415 67.709 0 0 1.9754-0.23846 3.7042 3.7415 67.709 0 0 1.5744-1.2168 3.7042 3.7415 67.709 0 0-1.9754 0.23847 3.7042 3.7415 67.709 0 0-1.5744 1.2167z" opacity=".7"/>
     <path d="m8.7577 288a3.7042 3.7415 67.709 0 0 1.9754-0.23845 3.7042 3.7415 67.709 0 0 1.5743-1.2168 3.7042 3.7415 67.709 0 0-1.9754 0.23846 3.7042 3.7415 67.709 0 0-1.5744 1.2167z" opacity=".7"/>
    </g>
    <g transform="matrix(1.4925 0 0 1.4925 -7.2496 -167.01)">
     <path d="m10.61 301.23a3.7042 3.7415 0 0 0-0.52865 1.9182 3.7042 3.7415 0 0 0 0.52865 1.9182 3.7042 3.7415 0 0 0 0.52865-1.9182 3.7042 3.7415 0 0 0-0.52865-1.9182z" opacity=".7"/>
     <path d="m10.61 305.07a3.7042 3.7415 0 0 0-0.52865 1.9182 3.7042 3.7415 0 0 0 0.52865 1.9182 3.7042 3.7415 0 0 0 0.52865-1.9182 3.7042 3.7415 0 0 0-0.52865-1.9182z" opacity=".7"/>
     <path d="m14.446 305.07a3.7415 3.7042 0 0 0-1.9182-0.52866 3.7415 3.7042 0 0 0-1.9182 0.52866 3.7415 3.7042 0 0 0 1.9182 0.52864 3.7415 3.7042 0 0 0 1.9182-0.52864z" opacity=".7"/>
     <path d="m10.61 305.07a3.7415 3.7042 0 0 0-1.9182-0.52866 3.7415 3.7042 0 0 0-1.9182 0.52866 3.7415 3.7042 0 0 0 1.9182 0.52864 3.7415 3.7042 0 0 0 1.9182-0.52864z" opacity=".7"/>
     <path d="m13.323 307.78a3.7415 3.7042 45 0 0-0.98257-1.7302 3.7415 3.7042 45 0 0-1.7302-0.98258 3.7415 3.7042 45 0 0 0.98259 1.7302 3.7415 3.7042 45 0 0 1.7302 0.98259z" opacity=".7"/>
     <path d="m10.61 305.07a3.7415 3.7042 45 0 0-0.98257-1.7302 3.7415 3.7042 45 0 0-1.7302-0.98257 3.7415 3.7042 45 0 0 0.98258 1.7302 3.7415 3.7042 45 0 0 1.7302 0.98258z" opacity=".7"/>
     <path d="m7.897 307.78a3.7042 3.7415 45 0 0 1.7302-0.98258 3.7042 3.7415 45 0 0 0.98258-1.7302 3.7042 3.7415 45 0 0-1.7302 0.98259 3.7042 3.7415 45 0 0-0.98259 1.7302z" opacity=".7"/>
     <path d="m10.61 305.07a3.7042 3.7415 45 0 0 1.7302-0.98257 3.7042 3.7415 45 0 0 0.98257-1.7302 3.7042 3.7415 45 0 0-1.7302 0.98258 3.7042 3.7415 45 0 0-0.98258 1.7302z" opacity=".7"/>
    </g>
   </g>
   <circle cx="8.5853" cy="288.3" r=".46772" opacity="1" stroke-width=".26458"/>
  </g>
  <g transform="translate(-.09177 .23394)" fill-rule="evenodd">
   <g stroke-width=".26591">
    <g transform="matrix(1.4925 0 0 1.4925 -7.2496 -167.01)" fill="#fff">
     <path d="m10.61 301.23a3.7042 3.7415 0 0 0-0.52865 1.9182 3.7042 3.7415 0 0 0 0.52865 1.9182 3.7042 3.7415 0 0 0 0.52865-1.9182 3.7042 3.7415 0 0 0-0.52865-1.9182z" opacity=".7"/>
     <path d="m10.61 305.07a3.7042 3.7415 0 0 0-0.52865 1.9182 3.7042 3.7415 0 0 0 0.52865 1.9182 3.7042 3.7415 0 0 0 0.52865-1.9182 3.7042 3.7415 0 0 0-0.52865-1.9182z" opacity=".7"/>
     <path d="m14.446 305.07a3.7415 3.7042 0 0 0-1.9182-0.52866 3.7415 3.7042 0 0 0-1.9182 0.52866 3.7415 3.7042 0 0 0 1.9182 0.52864 3.7415 3.7042 0 0 0 1.9182-0.52864z" opacity=".7"/>
     <path d="m10.61 305.07a3.7415 3.7042 0 0 0-1.9182-0.52866 3.7415 3.7042 0 0 0-1.9182 0.52866 3.7415 3.7042 0 0 0 1.9182 0.52864 3.7415 3.7042 0 0 0 1.9182-0.52864z" opacity=".7"/>
     <path d="m13.323 307.78a3.7415 3.7042 45 0 0-0.98257-1.7302 3.7415 3.7042 45 0 0-1.7302-0.98258 3.7415 3.7042 45 0 0 0.98259 1.7302 3.7415 3.7042 45 0 0 1.7302 0.98259z" opacity=".7"/>
     <path d="m10.61 305.07a3.7415 3.7042 45 0 0-0.98257-1.7302 3.7415 3.7042 45 0 0-1.7302-0.98257 3.7415 3.7042 45 0 0 0.98258 1.7302 3.7415 3.7042 45 0 0 1.7302 0.98258z" opacity=".7"/>
     <path d="m7.897 307.78a3.7042 3.7415 45 0 0 1.7302-0.98258 3.7042 3.7415 45 0 0 0.98258-1.7302 3.7042 3.7415 45 0 0-1.7302 0.98259 3.7042 3.7415 45 0 0-0.98259 1.7302z" opacity=".7"/>
     <path d="m10.61 305.07a3.7042 3.7415 45 0 0 1.7302-0.98257 3.7042 3.7415 45 0 0 0.98257-1.7302 3.7042 3.7415 45 0 0-1.7302 0.98258 3.7042 3.7415 45 0 0-0.98258 1.7302z" opacity=".7"/>
    </g>
    <g transform="matrix(1.4925 0 0 1.4925 -4.4854 -141.54)" fill="#fdfdfe">
     <path d="m10.239 284.47a3.7042 3.7415 22.709 0 0-1.2282 1.5654 3.7042 3.7415 22.709 0 0-0.25287 1.9736 3.7042 3.7415 22.709 0 0 1.2282-1.5654 3.7042 3.7415 22.709 0 0 0.25287-1.9736z" opacity=".7"/>
     <path d="m8.7577 288a3.7042 3.7415 22.709 0 0-1.2282 1.5654 3.7042 3.7415 22.709 0 0-0.25287 1.9736 3.7042 3.7415 22.709 0 0 1.2282-1.5654 3.7042 3.7415 22.709 0 0 0.25287-1.9736z" opacity=".7"/>
     <path d="m12.297 289.49a3.7415 3.7042 22.709 0 0-1.5654-1.2282 3.7415 3.7042 22.709 0 0-1.9736-0.25286 3.7415 3.7042 22.709 0 0 1.5654 1.2282 3.7415 3.7042 22.709 0 0 1.9736 0.25288z" opacity=".7"/>
     <path d="m8.7577 288a3.7415 3.7042 22.709 0 0-1.5654-1.2282 3.7415 3.7042 22.709 0 0-1.9736-0.25285 3.7415 3.7042 22.709 0 0 1.5654 1.2282 3.7415 3.7042 22.709 0 0 1.9736 0.25288z" opacity=".7"/>
     <path d="m10.213 291.55a3.7415 3.7042 67.709 0 0-0.23845-1.9754 3.7415 3.7042 67.709 0 0-1.2168-1.5744 3.7415 3.7042 67.709 0 0 0.23847 1.9754 3.7415 3.7042 67.709 0 0 1.2167 1.5744z" opacity=".7"/>
     <path d="m8.7577 288a3.7415 3.7042 67.709 0 0-0.23845-1.9754 3.7415 3.7042 67.709 0 0-1.2168-1.5744 3.7415 3.7042 67.709 0 0 0.23846 1.9754 3.7415 3.7042 67.709 0 0 1.2167 1.5744z" opacity=".7"/>
     <path d="m5.2079 289.46a3.7042 3.7415 67.709 0 0 1.9754-0.23846 3.7042 3.7415 67.709 0 0 1.5744-1.2168 3.7042 3.7415 67.709 0 0-1.9754 0.23847 3.7042 3.7415 67.709 0 0-1.5744 1.2167z" opacity=".7"/>
     <path d="m8.7577 288a3.7042 3.7415 67.709 0 0 1.9754-0.23845 3.7042 3.7415 67.709 0 0 1.5743-1.2168 3.7042 3.7415 67.709 0 0-1.9754 0.23846 3.7042 3.7415 67.709 0 0-1.5744 1.2167z" opacity=".7"/>
    </g>
    <g transform="matrix(1.4925 0 0 1.4925 -7.2496 -167.01)" fill="#fff">
     <path d="m10.61 301.23a3.7042 3.7415 0 0 0-0.52865 1.9182 3.7042 3.7415 0 0 0 0.52865 1.9182 3.7042 3.7415 0 0 0 0.52865-1.9182 3.7042 3.7415 0 0 0-0.52865-1.9182z" opacity=".7"/>
     <path d="m10.61 305.07a3.7042 3.7415 0 0 0-0.52865 1.9182 3.7042 3.7415 0 0 0 0.52865 1.9182 3.7042 3.7415 0 0 0 0.52865-1.9182 3.7042 3.7415 0 0 0-0.52865-1.9182z" opacity=".7"/>
     <path d="m14.446 305.07a3.7415 3.7042 0 0 0-1.9182-0.52866 3.7415 3.7042 0 0 0-1.9182 0.52866 3.7415 3.7042 0 0 0 1.9182 0.52864 3.7415 3.7042 0 0 0 1.9182-0.52864z" opacity=".7"/>
     <path d="m10.61 305.07a3.7415 3.7042 0 0 0-1.9182-0.52866 3.7415 3.7042 0 0 0-1.9182 0.52866 3.7415 3.7042 0 0 0 1.9182 0.52864 3.7415 3.7042 0 0 0 1.9182-0.52864z" opacity=".7"/>
     <path d="m13.323 307.78a3.7415 3.7042 45 0 0-0.98257-1.7302 3.7415 3.7042 45 0 0-1.7302-0.98258 3.7415 3.7042 45 0 0 0.98259 1.7302 3.7415 3.7042 45 0 0 1.7302 0.98259z" opacity=".7"/>
     <path d="m10.61 305.07a3.7415 3.7042 45 0 0-0.98257-1.7302 3.7415 3.7042 45 0 0-1.7302-0.98257 3.7415 3.7042 45 0 0 0.98258 1.7302 3.7415 3.7042 45 0 0 1.7302 0.98258z" opacity=".7"/>
     <path d="m7.897 307.78a3.7042 3.7415 45 0 0 1.7302-0.98258 3.7042 3.7415 45 0 0 0.98258-1.7302 3.7042 3.7415 45 0 0-1.7302 0.98259 3.7042 3.7415 45 0 0-0.98259 1.7302z" opacity=".7"/>
     <path d="m10.61 305.07a3.7042 3.7415 45 0 0 1.7302-0.98257 3.7042 3.7415 45 0 0 0.98257-1.7302 3.7042 3.7415 45 0 0-1.7302 0.98258 3.7042 3.7415 45 0 0-0.98258 1.7302z" opacity=".7"/>
    </g>
   </g>
   <circle cx="8.5853" cy="288.3" r=".46772" fill="url(#a)" stroke-width=".26458"/>
  </g>
  <circle cx="-330.35" cy="-48.312" r="0" fill="#5e4aa6" stroke-width=".26458"/>
 </g>
</svg>
