<svg width="64" height="64" version="1.1" viewBox="0 0 16.933 16.933" xmlns="http://www.w3.org/2000/svg">
 <defs>
  <linearGradient id="a" x1="8.4207" x2="8.4207" y1="279.52" y2="297.9" gradientTransform="translate(-5.46e-4,-280.07)" gradientUnits="userSpaceOnUse">
   <stop stop-color="#c896ff" offset="0"/>
   <stop stop-color="#af64ff" offset="1"/>
  </linearGradient>
  <linearGradient id="b" x1="45.094" x2="45.094" y1="50" y2="14" gradientTransform="matrix(.1271 0 0 .1271 19.594 284.43)" gradientUnits="userSpaceOnUse">
   <stop offset="0"/>
   <stop stop-opacity="0" offset="1"/>
  </linearGradient>
 </defs>
 <circle cx="8.4935" cy="8.73" r="7.9375" opacity=".2" stroke-width=".14032"/>
 <circle cx="8.4935" cy="8.46" r="7.9375" fill="url(#a)"/>
 <circle cx="-330.35" cy="-328.38" r="0" fill="#5e4aa6" stroke-width=".26458"/>
 <g transform="matrix(1.2747 0 0 1.2747 -2.3608 -2.4694)" fill-rule="evenodd">
  <g transform="matrix(1.1644 0 0 1.1644 -19.057 -327.23)" fill="#4f079b" stroke-width=".48037">
   <path d="m26.308 291.39c-0.02594 0.0961-0.1297 0.15179-0.23058 0.12489l-6.0161-1.6121c-0.10184-0.0274-0.16333-0.12825-0.13787-0.22337l1.0914-4.0716c0.02546-0.0961 0.1297-0.15179 0.23058-0.12489l6.0157 1.6126c0.10136 0.0274 0.16332 0.12825 0.13738 0.22337z" opacity=".5"/>
   <path d="m26.966 290.61c0 0.0994-0.08647 0.18014-0.19071 0.18014h-6.228c-0.1052 0-0.19071-0.0817-0.19071-0.18014v-4.2148c0-0.0994 0.08647-0.18014 0.19071-0.18014h6.2285c0.10568 0 0.19071 0.0817 0.19071 0.18014z" opacity=".5"/>
   <path d="m25.059 289.2v-1.5891a0.19071 0.19071 0 0 0-0.18927-0.19023h-2.2256v-0.50871c0-0.0634-0.06341-0.1907-0.19071-0.1907-0.12682 0-0.19071 0.1273-0.19071 0.1907v0.50871h-0.50823c-0.06341 0-0.19071 0.0634-0.19071 0.19071 0 0.12682 0.1273 0.19023 0.19071 0.19023h0.50823v1.5891c0 0.10568 0.08647 0.19071 0.18975 0.19071h2.2251v0.50823c0 0.0634 0.06389 0.1907 0.19071 0.1907 0.1273 0 0.19071-0.1273 0.19071-0.1907v-0.50823h0.50823c0.06389 0 0.19071-0.0639 0.19071-0.19071 0-0.1273-0.12682-0.19071-0.19071-0.19071zm-2.4148 0v-1.3979h2.0334v1.3979z"/>
  </g>
  <path d="m11.281 6.0299a8.5835 7.8435 0 0 1-2.7597 5.3277h3.598c0.12195 0 0.22198-0.09385 0.22198-0.20956v-4.9085c0-0.11458-0.0993-0.20956-0.22198-0.20956z" fill="#4f079b" opacity=".075" stroke-width=".148"/>
  <g transform="matrix(1.1644 0 0 1.1644 -19.057 -327.46)">
   <g stroke-width=".48037">
    <path d="m26.308 291.39c-0.02594 0.0961-0.1297 0.15179-0.23058 0.12489l-6.0161-1.6121c-0.10184-0.0274-0.16333-0.12825-0.13787-0.22337l1.0914-4.0716c0.02546-0.0961 0.1297-0.15179 0.23058-0.12489l6.0157 1.6126c0.10136 0.0274 0.16332 0.12825 0.13738 0.22337z" fill="#ffc771"/>
    <path d="m26.966 290.61c0 0.0994-0.08647 0.18014-0.19071 0.18014h-6.228c-0.1052 0-0.19071-0.0817-0.19071-0.18014v-4.2148c0-0.0994 0.08647-0.18014 0.19071-0.18014h6.2285c0.10568 0 0.19071 0.0817 0.19071 0.18014z" fill="#a75dfa"/>
    <path d="m25.059 289.2v-1.5891a0.19071 0.19071 0 0 0-0.18927-0.19023h-2.2256v-0.50871c0-0.0634-0.06341-0.1907-0.19071-0.1907-0.12682 0-0.19071 0.1273-0.19071 0.1907v0.50871h-0.50823c-0.06341 0-0.19071 0.0634-0.19071 0.19071 0 0.12682 0.1273 0.19023 0.19071 0.19023h0.50823v1.5891c0 0.10568 0.08647 0.19071 0.18975 0.19071h2.2251v0.50823c0 0.0634 0.06389 0.1907 0.19071 0.1907 0.1273 0 0.19071-0.1273 0.19071-0.1907v-0.50823h0.50823c0.06389 0 0.19071-0.0639 0.19071-0.19071 0-0.1273-0.12682-0.19071-0.19071-0.19071zm-2.4148 0v-1.3979h2.0334v1.3979z" fill="#fff9f9"/>
   </g>
   <path d="m26.055 286.21a7.3716 6.7361 0 0 1-2.3701 4.5755h3.09c0.10473 0 0.19064-0.0806 0.19064-0.17997v-4.2155c0-0.0984-0.08528-0.17997-0.19064-0.17997z" fill="url(#b)" opacity=".15" stroke-width=".1271"/>
  </g>
 </g>
</svg>
