<?xml version="1.0" encoding="UTF-8"?>
<svg id="Iterm" width="64" height="64" enable-background="new 0 0 1024 1024" image-rendering="optimizeSpeed" version="1.1" viewBox="0 0 64 64" xmlns="http://www.w3.org/2000/svg" xmlns:cc="http://creativecommons.org/ns#" xmlns:dc="http://purl.org/dc/elements/1.1/" xmlns:rdf="http://www.w3.org/1999/02/22-rdf-syntax-ns#" xmlns:xlink="http://www.w3.org/1999/xlink">
 <metadata>
  <rdf:RDF>
   <cc:Work rdf:about="">
    <dc:format>image/svg+xml</dc:format>
    <dc:type rdf:resource="http://purl.org/dc/dcmitype/StillImage"/>
    <dc:title/>
   </cc:Work>
  </rdf:RDF>
 </metadata>
 <defs>
  <linearGradient id="e" x1="8.4207" x2="8.4207" y1="281.1" y2="300.27" gradientTransform="matrix(3.7796 0 0 3.7796 -.10411 -1059)" gradientUnits="userSpaceOnUse">
   <stop stop-color="#c896ff" offset="0"/>
   <stop stop-color="#32afff" offset="1"/>
  </linearGradient>
  <style type="text/css"/>
  <style type="text/css"/>
 </defs>
 <mask>
  <g id="g">
   <path d="m969.75 392.05c-1.1-4.35-2.35-9-3.65-13.6-1-3.4-2-6.85-3.15-10.5-1.6-5.15-3.4-10.5-5.3-15.85-6.45-18.25-14.15-36.05-23.15-53.65-3.8-7.4-7.95-14.95-12.3-22.4-20.3-34.5-45.8-67.2-76.35-97.75-72.6-72.6-157.15-116.65-253.65-132.05-16.25-2.6-32.8-4.4-50.05-5.35-9.7-0.55-19.85-0.85-30.1-0.85-9.35 0-18.6 0.25-27.9 0.75-118.35 6.1-220.3 51.95-305.85 137.5q-138.25 138.25-138.25 333.75c0 130.35 46.1 241.65 138.25 333.8 56.7 56.65 120.55 95.9 191.1 117.55 36.75 11.25 74.8 17.85 114.75 19.95h0.4c8.5 0.45 16.6 0.7 24.5 0.7h3c10.3 0 20.5-0.3 30.1-0.8 2.5-0.15 4.75-0.3 6.95-0.45 20.2-1.45 39.9-4.05 58.7-7.7 7.95-1.55 15.8-3.3 23.4-5.15 80.8-20.3 152.15-61.6 214.65-124.1 48.6-48.6 84.4-102.5 107.35-161.8 18.45-47.65 28.65-98.8 30.55-153.5 0.2-6.05 0.3-12.25 0.3-18.5v-3c-0.2-40.65-4.95-79.5-14.3-117z" fill="#fff"/>
  </g>
 </mask>
 <circle cx="32" cy="32.51" r="30.001" opacity=".2" stroke-width=".53035"/>
 <circle cx="32" cy="31.49" r="30.001" fill="url(#e)" stroke-width="3.7796"/>
 <circle cx="-1248.7" cy="-1241.6" r="0" fill="#5e4aa6"/>
 <path d="m44.408 36.841 1.642 0.81015c1.2669 0.62344 1.2669 2.5388 0 3.1639l-13.364 7.428a1.5486 1.5486 0 0 1-1.3752 0l-13.364-7.428c-1.2619-0.62511-1.2619-2.5405 0-3.1639l1.642-0.81015 11.264 6.3928a2.5971 2.5971 0 0 0 2.2921 0zm-0.23338-6.5962 1.8753 0.82515c1.2669 0.62511 1.2669 2.5405 0 3.1639l-13.364 7.428a1.5436 1.5436 0 0 1-1.3753 0l-13.364-7.428c-1.2619-0.62345-1.2619-2.5388 0-3.1639l1.887-0.82515 11.024 6.2728a2.5855 2.5855 0 0 0 2.2921 0l11.022-6.2728zm-26.23-2.7588c-1.0335-0.53343-0.93016-1.842 0-2.3404 0.93017-0.50009 12.666-6.4345 13.192-6.5845 0.52676-0.15003 1.2986-0.1767 1.8487 0 0.5501 0.17503 11.655 5.9727 13.062 6.5845 1.4053 0.61011 1.0002 1.767 0 2.3404s-13.411 7.428-13.362 7.428c0.0467 0-0.94184 0.21671-1.3786 0 0 0-12.329-6.8962-13.362-7.428z" opacity=".2" stroke-width=".029302" p-id="54844"/>
 <path d="m44.408 35.42 1.642 0.81015c1.2669 0.62344 1.2669 2.5388 0 3.1639l-13.364 7.428a1.5486 1.5486 0 0 1-1.3752 0l-13.364-7.428c-1.2619-0.62511-1.2619-2.5405 0-3.1639l1.642-0.81015 11.264 6.3928a2.5971 2.5971 0 0 0 2.2921 0zm-0.23338-6.5962 1.8753 0.82515c1.2669 0.62511 1.2669 2.5405 0 3.1639l-13.364 7.428a1.5436 1.5436 0 0 1-1.3753 0l-13.364-7.428c-1.2619-0.62345-1.2619-2.5388 0-3.1639l1.887-0.82515 11.024 6.2728a2.5855 2.5855 0 0 0 2.2921 0l11.022-6.2728zm-26.23-2.7588c-1.0335-0.53343-0.93016-1.842 0-2.3404 0.93017-0.50009 12.666-6.4345 13.192-6.5845 0.52676-0.15003 1.2986-0.1767 1.8487 0 0.5501 0.17503 11.655 5.9727 13.062 6.5845 1.4053 0.61011 1.0002 1.767 0 2.3404s-13.411 7.428-13.362 7.428c0.0467 0-0.94184 0.21671-1.3786 0 0 0-12.329-6.8962-13.362-7.428z" fill="#fff" stroke-width=".029302" p-id="54844"/>
</svg>
