<?xml version="1.0" encoding="UTF-8"?>
<svg width="64" height="64" version="1.1" viewBox="0 0 16.933 16.933" xmlns="http://www.w3.org/2000/svg" xmlns:cc="http://creativecommons.org/ns#" xmlns:dc="http://purl.org/dc/elements/1.1/" xmlns:rdf="http://www.w3.org/1999/02/22-rdf-syntax-ns#" xmlns:xlink="http://www.w3.org/1999/xlink">
 <metadata>
  <rdf:RDF>
   <cc:Work rdf:about="">
    <dc:format>image/svg+xml</dc:format>
    <dc:type rdf:resource="http://purl.org/dc/dcmitype/StillImage"/>
    <dc:title/>
   </cc:Work>
  </rdf:RDF>
 </metadata>
 <defs>
  <linearGradient id="f" x1="-6.1472" x2="-6.1472" y1="-159.56" y2="-102.47" gradientTransform="matrix(.53033 0 0 .53033 11.536 71.99)" gradientUnits="userSpaceOnUse">
   <stop stop-color="#969692" offset="0"/>
   <stop offset="1"/>
  </linearGradient>
  <linearGradient id="e-3" x1="24.705" x2="25.061" y1="43.939" y2="4.405" gradientTransform="matrix(.26458 0 0 .26458 2.1436 2.1104)" gradientUnits="userSpaceOnUse">
   <stop stop-color="#279646" offset="0"/>
   <stop stop-color="#76ff68" offset="1"/>
  </linearGradient>
  <linearGradient id="d-7" x1="31" x2="31" y1="50.136" y2="24" gradientTransform="matrix(.26458 0 0 .26458 2.1436 2.1104)" gradientUnits="userSpaceOnUse" xlink:href="#f"/>
  <linearGradient id="c-3" x1="18" x2="18" y1="50.136" y2="24" gradientTransform="matrix(.26458 0 0 .26458 2.1436 2.1104)" gradientUnits="userSpaceOnUse" xlink:href="#f"/>
 </defs>
 <circle cx="-330.35" cy="-328.38" r="0" fill="#5e4aa6" stroke-width=".26458"/>
 <circle cx="8.4935" cy="8.73" r="7.9375" opacity=".2" stroke-width=".14032"/>
 <circle cx="8.4935" cy="8.46" r="7.9375" fill="#fafafa" stroke-width=".14032"/>
 <g stroke-width=".26458">
  <circle cx="-39.434" cy="6.44" r="0" fill="#5e4aa6" fill-rule="evenodd"/>
  <path d="m4.2602 7.5393c0 2.7225 2.2479 6.4877 4.2332 6.4877 1.869 0 4.2333-3.7655 4.2333-6.4877 0-2.7225-1.8953-4.0954-4.2333-4.0954s-4.2332 1.3728-4.2332 4.0954z" opacity=".25"/>
  <path d="m4.2602 7.2638c0 2.7225 2.2479 6.4877 4.2332 6.4877 1.869 0 4.2333-3.7655 4.2333-6.4877 0-2.7225-1.8953-4.0954-4.2333-4.0954s-4.2332 1.3728-4.2332 4.0954z" fill="url(#e-3)"/>
  <path d="m9.6529 9.0905c0.53461-0.53461 1.2805-0.72902 1.9689-0.58353 0.14548 0.68838-0.048936 1.4343-0.58353 1.9688-0.53461 0.53461-1.2805 0.72902-1.9688 0.58353-0.1455-0.6884 0.048934-1.4343 0.58353-1.9688z" fill="url(#d-7)"/>
  <path d="m5.3651 8.5431c0.68838-0.14346 1.4343 0.048256 1.9688 0.57543 0.53461 0.52717 0.72902 1.2627 0.58353 1.9415-0.68838 0.14346-1.4343-0.048253-1.9689-0.57543-0.53461-0.5272-0.72902-1.2627-0.58353-1.9415z" fill="url(#c-3)"/>
  <circle cx="-302.06" cy="-337.95" r="0" fill="#5e4aa6"/>
  <circle cx="-11.145" cy="-3.1314" r="0" fill="#5e4aa6" fill-rule="evenodd"/>
 </g>
</svg>
