<?xml version="1.0" encoding="UTF-8" standalone="no"?>
<svg
   xmlns:dc="http://purl.org/dc/elements/1.1/"
   xmlns:cc="http://creativecommons.org/ns#"
   xmlns:rdf="http://www.w3.org/1999/02/22-rdf-syntax-ns#"
   xmlns:svg="http://www.w3.org/2000/svg"
   xmlns="http://www.w3.org/2000/svg"
   xmlns:xlink="http://www.w3.org/1999/xlink"
   xmlns:sodipodi="http://sodipodi.sourceforge.net/DTD/sodipodi-0.dtd"
   xmlns:inkscape="http://www.inkscape.org/namespaces/inkscape"
   height="64"
   viewBox="0 0 64 64.000001"
   width="64"
   version="1.1"
   id="svg25"
   sodipodi:docname="alsamixer-gui.svg"
   inkscape:version="1.0.1 (3bc2e813f5, 2020-09-07)">
  <metadata
     id="metadata31">
    <rdf:RDF>
      <cc:Work
         rdf:about="">
        <dc:format>image/svg+xml</dc:format>
        <dc:type
           rdf:resource="http://purl.org/dc/dcmitype/StillImage" />
        <dc:title></dc:title>
      </cc:Work>
    </rdf:RDF>
  </metadata>
  <defs
     id="defs29">
    <linearGradient
       inkscape:collect="always"
       id="linearGradient1044">
      <stop
         style="stop-color:#fefefe;stop-opacity:1"
         offset="0"
         id="stop1040" />
      <stop
         style="stop-color:#cdcdcd;stop-opacity:1"
         offset="1"
         id="stop1042" />
    </linearGradient>
    <style
       type="text/css"
       id="style858" />
    <style
       type="text/css"
       id="style860" />
    <linearGradient
       id="linearGradient938"
       x1="80.367996"
       x2="82.140999"
       y1="13.177"
       y2="14.704"
       gradientTransform="matrix(3.6342,0,0,3.6342,-246.71,-6.3936)"
       gradientUnits="userSpaceOnUse">
      <stop
         stop-color="#e5e6ea"
         offset="0"
         id="stop862" />
      <stop
         stop-color="#2f3240"
         offset="1"
         id="stop864" />
    </linearGradient>
    <filter
       id="filter1066"
       x="-0.063923001"
       y="-0.056531001"
       width="1.1278"
       height="1.1131001"
       color-interpolation-filters="sRGB">
      <feGaussianBlur
         stdDeviation="0.22705935"
         id="feGaussianBlur867" />
    </filter>
    <filter
       id="filter1100"
       x="-0.12197"
       y="-0.11848"
       width="1.2438999"
       height="1.237"
       color-interpolation-filters="sRGB">
      <feGaussianBlur
         stdDeviation="0.47586465"
         id="feGaussianBlur870" />
    </filter>
    <filter
       id="filter1066-3"
       x="-0.063923001"
       y="-0.056531001"
       width="1.1278"
       height="1.1131001"
       color-interpolation-filters="sRGB">
      <feGaussianBlur
         stdDeviation="0.22705935"
         id="feGaussianBlur13" />
    </filter>
    <filter
       id="filter1100-6"
       x="-0.12197"
       y="-0.11848"
       width="1.2438999"
       height="1.237"
       color-interpolation-filters="sRGB">
      <feGaussianBlur
         stdDeviation="0.47586465"
         id="feGaussianBlur16" />
    </filter>
    <filter
       id="filter899"
       x="-0.063923001"
       y="-0.056531001"
       width="1.1278"
       height="1.1131001"
       color-interpolation-filters="sRGB">
      <feGaussianBlur
         stdDeviation="0.22705935"
         id="feGaussianBlur897" />
    </filter>
    <linearGradient
       id="linearGradient938-7"
       x1="80.367996"
       x2="82.140999"
       y1="13.177"
       y2="14.704"
       gradientTransform="matrix(3.6342,0,0,3.6342,-353.06941,-8.0462691)"
       gradientUnits="userSpaceOnUse">
      <stop
         stop-color="#e5e6ea"
         offset="0"
         id="stop8" />
      <stop
         stop-color="#2f3240"
         offset="1"
         id="stop10" />
    </linearGradient>
    <linearGradient
       id="f"
       x1="408.57999"
       x2="408.70999"
       y1="539.83002"
       y2="507.76001"
       gradientTransform="matrix(0.95833,0,0,0.95833,-412.71232,-472.59652)"
       gradientUnits="userSpaceOnUse">
      <stop
         stop-color="#ccc"
         offset="0"
         id="stop21" />
      <stop
         stop-color="#fff"
         offset="1"
         id="stop23" />
    </linearGradient>
    <linearGradient
       inkscape:collect="always"
       xlink:href="#linearGradient1044"
       id="linearGradient1038"
       x1="32.113762"
       y1="13.901065"
       x2="32.113762"
       y2="50.089359"
       gradientUnits="userSpaceOnUse" />
    <linearGradient
       inkscape:collect="always"
       xlink:href="#linearGradient1044"
       id="linearGradient933"
       gradientUnits="userSpaceOnUse"
       x1="32.113762"
       y1="13.901065"
       x2="32.113762"
       y2="50.089359" />
    <linearGradient
       inkscape:collect="always"
       xlink:href="#linearGradient1044"
       id="linearGradient935"
       gradientUnits="userSpaceOnUse"
       x1="32.113762"
       y1="13.901065"
       x2="32.113762"
       y2="50.089359" />
    <linearGradient
       inkscape:collect="always"
       xlink:href="#linearGradient1044"
       id="linearGradient937"
       gradientUnits="userSpaceOnUse"
       x1="32.113762"
       y1="13.901065"
       x2="32.113762"
       y2="50.089359" />
    <linearGradient
       inkscape:collect="always"
       xlink:href="#linearGradient1044"
       id="linearGradient939"
       gradientUnits="userSpaceOnUse"
       x1="32.113762"
       y1="13.901065"
       x2="32.113762"
       y2="50.089359" />
    <linearGradient
       id="c"
       x1="31.458"
       x2="31.458"
       y1="51.726"
       y2="62.898"
       gradientUnits="userSpaceOnUse">
      <stop
         stop-color="#1776ff"
         offset="0"
         id="stop943" />
      <stop
         stop-color="#2fceff"
         offset="1"
         id="stop945" />
    </linearGradient>
    <linearGradient
       id="a-2"
       x1="31.458"
       x2="31.458"
       y1="46.898"
       y2="56.898"
       gradientUnits="userSpaceOnUse">
      <stop
         stop-color="#c0e5fb"
         offset="0"
         id="stop948" />
      <stop
         stop-color="#c3faff"
         offset="1"
         id="stop950" />
    </linearGradient>
    <filter
       id="e"
       x="-.065454"
       y="-.055385"
       width="1.1309"
       height="1.1108"
       color-interpolation-filters="sRGB">
      <feGaussianBlur
         stdDeviation="0.59999875"
         id="feGaussianBlur953" />
    </filter>
    <linearGradient
       id="b"
       x1="399.57"
       x2="399.57"
       y1="545.8"
       y2="517.8"
       gradientTransform="matrix(2.1429,0,0,2.1429,-921.6351,-1108)"
       gradientUnits="userSpaceOnUse">
      <stop
         stop-color="#3889e9"
         offset="0"
         id="stop956" />
      <stop
         stop-color="#5ea5fb"
         offset="1"
         id="stop958" />
    </linearGradient>
    <linearGradient
       id="linearGradient941"
       x1="31.458"
       x2="31.458"
       y1="36.898"
       y2="59.898"
       gradientUnits="userSpaceOnUse">
      <stop
         stop-color="#ff5514"
         offset="0"
         id="stop961" />
      <stop
         stop-color="#ff9014"
         offset="1"
         id="stop963" />
    </linearGradient>
  </defs>
  <sodipodi:namedview
     pagecolor="#ffffff"
     bordercolor="#666666"
     borderopacity="1"
     objecttolerance="10"
     gridtolerance="10"
     guidetolerance="10"
     inkscape:pageopacity="0"
     inkscape:pageshadow="2"
     inkscape:window-width="1920"
     inkscape:window-height="932"
     id="namedview27"
     showgrid="false"
     inkscape:zoom="5.6347572"
     inkscape:cx="-3.9533293"
     inkscape:cy="25.972682"
     inkscape:window-x="0"
     inkscape:window-y="36"
     inkscape:window-maximized="1"
     inkscape:current-layer="svg25" />
  <linearGradient
     id="a"
     gradientUnits="userSpaceOnUse"
     x1="-71.940628"
     x2="-71.691559"
     y1="1046.886"
     y2="1004.5443">
    <stop
       offset="0"
       stop-color="#808080"
       id="stop2" />
    <stop
       offset="1"
       stop-color="#8a8a8e"
       id="stop4" />
  </linearGradient>
  <style
     type="text/css"
     id="style880">.st0{opacity:0.15;fill:#45413C;}
	.st1{fill:#FFE500;}
	.st2{fill:#EBCB00;}
	.st3{fill:none;stroke:#45413C;stroke-linecap:round;stroke-linejoin:round;stroke-miterlimit:10;}
	.st4{fill:#FFAA54;}
	.st5{fill:#FF8A14;}
	.st6{fill:#FFB0CA;stroke:#45413C;stroke-linecap:round;stroke-linejoin:round;stroke-miterlimit:10;}
	.st7{fill:#FF87AF;stroke:#45413C;stroke-linecap:round;stroke-linejoin:round;stroke-miterlimit:10;}
	.st8{fill:#FFCC99;}
	.st9{fill:#FFFFFF;}
	.st10{fill:#F0F0F0;}
	.st11{fill:#BF8256;}
	.st12{fill:#915E3A;}
	.st13{fill:#DEA47A;}
	.st14{fill:#F0D5A8;}
	.st15{fill:#DEBB7E;}
	.st16{fill:#F7E5C6;}
	.st17{fill:#FF8A14;stroke:#45413C;stroke-linecap:round;stroke-linejoin:round;stroke-miterlimit:10;}
	.st18{fill:#FFF5E3;}
	.st19{fill:#FFF48C;}
	.st20{fill:#FFFACF;}
	.st21{fill:#FFFCE5;}
	.st22{fill:#FF87AF;}
	.st23{fill:#FFB0CA;}
	.st24{fill:#FFE500;stroke:#45413C;stroke-linecap:round;stroke-linejoin:round;stroke-miterlimit:10;}
	.st25{fill:#9CEB60;stroke:#45413C;stroke-linecap:round;stroke-linejoin:round;stroke-miterlimit:10;}
	.st26{fill:#FFFACF;stroke:#45413C;stroke-linecap:round;stroke-linejoin:round;stroke-miterlimit:10;}
	.st27{fill:#00F5BC;stroke:#45413C;stroke-linecap:round;stroke-linejoin:round;stroke-miterlimit:10;}
	.st28{fill:#BF8256;stroke:#45413C;stroke-linecap:round;stroke-linejoin:round;stroke-miterlimit:10;}
	.st29{fill:#FFE3CF;stroke:#45413C;stroke-linecap:round;stroke-linejoin:round;stroke-miterlimit:10;}
	.st30{fill:#FF6242;}
	.st31{fill:#FF866E;}
	.st32{fill:none;stroke:#E04122;stroke-linecap:round;stroke-linejoin:round;stroke-miterlimit:10;}
	.st33{fill:#FFFEF2;stroke:#45413C;stroke-linecap:round;stroke-linejoin:round;stroke-miterlimit:10;}
	.st34{fill:#FF6242;stroke:#45413C;stroke-linecap:round;stroke-linejoin:round;stroke-miterlimit:10;}
	.st35{fill:#FFA694;}
	.st36{fill:#FFFFFF;stroke:#45413C;stroke-linecap:round;stroke-linejoin:round;stroke-miterlimit:10;}
	.st37{fill:#FFFEF2;}
	.st38{fill:#FF6196;}
	.st39{fill:#B89558;}
	.st40{fill:none;stroke:#915E3A;stroke-linecap:round;stroke-linejoin:round;stroke-miterlimit:10;}
	.st41{fill:#DEBB7E;stroke:#45413C;stroke-linecap:round;stroke-linejoin:round;stroke-miterlimit:10;}
	.st42{fill:#6DD627;stroke:#45413C;stroke-linecap:round;stroke-linejoin:round;stroke-miterlimit:10;}
	.st43{fill:#E5F8FF;}
	.st44{fill:#E8F4FA;}
	.st45{fill:#E8F4FA;stroke:#45413C;stroke-linecap:round;stroke-linejoin:round;stroke-miterlimit:10;}
	.st46{fill:#FFCCDD;}
	.st47{fill:#E5F8FF;stroke:#45413C;stroke-linecap:round;stroke-linejoin:round;stroke-miterlimit:10;}
	.st48{fill:#00B8F0;stroke:#45413C;stroke-linecap:round;stroke-linejoin:round;stroke-miterlimit:10;}
	.st49{fill:#00B8F0;}
	.st50{fill:#4ACFFF;}
	.st51{fill:#E04122;}
	.st52{fill:#E04122;stroke:#45413C;stroke-linecap:round;stroke-linejoin:round;stroke-miterlimit:10;}
	.st53{fill:#87898C;}
	.st54{fill:#BDBEC0;}
	.st55{fill:#656769;}
	.st56{fill:#525252;}
	.st57{fill:#FFF48C;stroke:#45413C;stroke-linecap:round;stroke-linejoin:round;stroke-miterlimit:10;}
	.st58{fill:#6DD627;}
	.st59{fill:#EB6D00;}
	.st60{fill:#46B000;}
	.st61{fill:#80DDFF;}
	.st62{fill:#DAEDF7;}
	.st63{fill:#BF8DF2;stroke:#45413C;stroke-linecap:round;stroke-linejoin:round;stroke-miterlimit:10;}
	.st64{fill:#9F5AE5;stroke:#45413C;stroke-linecap:round;stroke-linejoin:round;stroke-miterlimit:10;}
	.st65{fill:#C8FFA1;}
	.st66{fill:#E4FFD1;}
	.st67{fill:#9CEB60;}
	.st68{fill:#E5FEFF;}
	.st69{fill:#B8ECFF;}
	.st70{fill:#E0E0E0;stroke:#45413C;stroke-linecap:round;stroke-linejoin:round;stroke-miterlimit:10;}
	.st71{fill:#E0E0E0;}
	.st72{fill:none;stroke:#4F4B45;stroke-linejoin:round;stroke-miterlimit:10;}
	.st73{fill:none;stroke:#4F4B45;stroke-linecap:round;stroke-linejoin:round;stroke-miterlimit:10;}
	.st74{fill:#E0366F;stroke:#45413C;stroke-linecap:round;stroke-linejoin:round;stroke-miterlimit:10;}
	.st75{fill:none;stroke:#45413C;stroke-miterlimit:10;}
	.st76{fill:#FF866E;stroke:#45413C;stroke-linecap:round;stroke-linejoin:round;stroke-miterlimit:10;}
	.st77{fill:#45413C;stroke:#45413C;stroke-linecap:round;stroke-linejoin:round;stroke-miterlimit:10;}
	.st78{fill:#9F5AE5;}
	.st79{fill:#803EC2;}
	.st80{fill:#803EC2;stroke:#45413C;stroke-linecap:round;stroke-linejoin:round;stroke-miterlimit:10;}
	.st81{fill:#BF8DF2;}
	.st82{fill:#FFAA54;stroke:#45413C;stroke-linecap:round;stroke-linejoin:round;stroke-miterlimit:10;}
	.st83{fill:none;stroke:#45413C;stroke-linejoin:round;stroke-miterlimit:10;}
	.st84{fill:#FFCCDD;stroke:#45413C;stroke-linecap:round;stroke-linejoin:round;stroke-miterlimit:10;}
	.st85{fill:#FF6196;stroke:#45413C;stroke-linecap:round;stroke-linejoin:round;stroke-miterlimit:10;}
	.st86{fill:#FFE5EE;}
	.st87{fill:#F7E5C6;stroke:#45413C;stroke-linecap:round;stroke-linejoin:round;stroke-miterlimit:10;}
	.st88{fill:#E5FFF9;}
	.st89{fill:none;stroke:#45413C;stroke-width:1.0064;stroke-linecap:round;stroke-linejoin:round;stroke-miterlimit:10;}
	.st90{fill:#4AEFF7;}
	.st91{fill:#A6FBFF;}
	.st92{fill:#E5FEFF;stroke:#45413C;stroke-linecap:round;stroke-linejoin:round;stroke-miterlimit:10;}
	.st93{fill:#46B000;stroke:#45413C;stroke-linecap:round;stroke-linejoin:round;stroke-miterlimit:10;}
	.st94{fill:#FFFFFF;stroke:#45413C;stroke-linejoin:round;stroke-miterlimit:10;}
	.st95{fill:#FFFFFF;stroke:#45413C;stroke-miterlimit:10;}
	.st96{fill:#009FD9;}
	.st97{fill:#00DFEB;}
	.st98{fill:#C0DCEB;stroke:#45413C;stroke-linecap:round;stroke-linejoin:round;stroke-miterlimit:10;}
	.st99{fill:#00DFEB;stroke:#45413C;stroke-linecap:round;stroke-linejoin:round;stroke-miterlimit:10;}
	.st100{fill:#FFE5EE;stroke:#45413C;stroke-linecap:round;stroke-linejoin:round;stroke-miterlimit:10;}
	.st101{fill:#8CA4B8;}
	.st102{fill:#ADC4D9;}
	.st103{fill:#656769;stroke:#45413C;stroke-linecap:round;stroke-linejoin:round;stroke-miterlimit:10;}
	.st104{fill:#F0F0F0;stroke:#45413C;stroke-linecap:round;stroke-linejoin:round;stroke-miterlimit:10;}
	.st105{fill:#C0DCEB;}
	.st106{fill:#45413C;}
	.st107{fill:#FFCABF;}
	.st108{fill:#87898C;stroke:#45413C;stroke-linecap:round;stroke-linejoin:round;stroke-miterlimit:10;}
	.st109{fill:#EBCB00;stroke:#45413C;stroke-linecap:round;stroke-linejoin:round;stroke-miterlimit:10;}</style>
  <g
     id="g1077"
     transform="translate(95.264653)">
    <path
       d="m -45.026101,8.6936 q -3.8597,-2.9725 -8.444,-4.5557 -4.7372,-1.6373 -9.8021,-1.6373 c -16.57,0 -30.003,13.432 -30.003,30.001 0,15.158 11.245,27.684 25.845,29.709 0.71216,0.09855 1.4339,0.17485 2.1587,0.21936 0.66128,0.04133 1.3258,0.06994 1.9998,0.06994 16.567,0 29.997,-13.432 29.997,-29.999 0,-1.3098 -0.08266,-2.6037 -0.24481,-3.8658 -0.18758,-1.4751 -0.49279,-2.909 -0.88387,-4.3046 q -1.3289,-4.6892 -4.0822,-8.7265 -2.7215,-3.9771 -6.5401,-6.9112 z"
       opacity="0.2"
       stroke-width="0.99724"
       id="path984" />
    <path
       d="m -45.026101,7.6931 q -3.8597,-2.9725 -8.444,-4.5557 -4.7372,-1.6373 -9.8021,-1.6373 c -16.57,0 -30.003,13.432 -30.003,30.001 0,15.158 11.245,27.684 25.845,29.709 0.71216,0.09855 1.4339,0.17485 2.1587,0.21936 0.66128,0.04133 1.3258,0.06994 1.9998,0.06994 16.567,0 29.997,-13.432 29.997,-29.999 0,-1.3098 -0.08266,-2.6037 -0.24481,-3.8658 -0.18758,-1.4751 -0.49279,-2.909 -0.88387,-4.3046 q -1.3289,-4.6892 -4.0822,-8.7265 -2.7215,-3.9771 -6.5401,-6.9112 z"
       fill="#14222a"
       stroke-width="0.99724"
       id="path986" />
    <circle
       cx="-63.255104"
       cy="31.544001"
       r="30.000999"
       fill-opacity="0"
       stroke-width="1.5715"
       id="circle988" />
  </g>
  <g
     id="g1018"
     style="fill:url(#linearGradient1038);fill-opacity:1"
     transform="translate(-0.04284115,0.01287615)">
    <path
       d="m 45.699394,13.763967 -0.526166,0.06198 c -0.218313,0.02456 -0.282543,1.007411 -0.145505,2.202714 l 0.489375,4.262222 a 2.2211254,2.2211254 0 0 0 -1.236575,2.248974 2.2211254,2.2211254 0 0 0 1.712076,1.910014 l 2.323708,20.276254 c 0.137037,1.195302 0.423536,2.137133 0.641838,2.112075 l 0.526208,-0.05999 c 0.218312,-0.02456 0.282542,-1.00741 0.145503,-2.202813 L 47.311073,24.347961 a 2.2211254,2.2211254 0 0 0 1.381724,-2.314516 2.2211254,2.2211254 0 0 0 -1.868984,-1.939949 l -0.482539,-4.215454 c -0.137039,-1.195402 -0.423576,-2.139033 -0.64188,-2.114075 z"
       id="path1000"
       style="fill:url(#linearGradient933);fill-opacity:1" />
    <path
       d="m 35.892589,14.888609 -0.526208,0.05999 c -0.218313,0.02456 -0.284456,1.009351 -0.147418,2.204653 l 2.146872,18.728905 a 2.2211254,2.2211254 0 0 0 -1.315904,2.285737 2.2211254,2.2211254 0 0 0 1.800395,1.929676 l 0.659134,5.751206 c 0.137037,1.195303 0.423576,2.139033 0.641877,2.113975 l 0.524214,-0.06195 c 0.218312,-0.02456 0.284495,-1.007451 0.147458,-2.202753 L 39.163713,39.939043 A 2.2211254,2.2211254 0 0 0 40.464158,37.66143 2.2211254,2.2211254 0 0 0 38.681417,35.735286 L 36.532472,17.000625 c -0.137037,-1.195303 -0.421581,-2.137074 -0.639885,-2.112116 z"
       id="path1002"
       style="fill:url(#linearGradient935);fill-opacity:1" />
    <path
       d="m 26.083831,16.013391 -0.524254,0.05995 c -0.218313,0.02456 -0.284495,1.007452 -0.147458,2.202754 l 3.054332,26.645203 a 2.2211254,2.2211254 0 0 0 -1.325626,2.28794 2.2211254,2.2211254 0 0 0 2.459272,1.955043 2.2211254,2.2211254 0 0 0 1.95496,-2.461301 2.2211254,2.2211254 0 0 0 -1.772935,-1.924348 L 26.725674,18.125666 c -0.137039,-1.195402 -0.423535,-2.137132 -0.641838,-2.112075 z"
       id="path1004"
       style="fill:url(#linearGradient937);fill-opacity:1" />
    <path
       d="m 16.277026,17.138033 -0.526207,0.05999 c -0.218292,0.02556 -0.282543,1.007411 -0.145506,2.202713 l 0.114461,0.992029 a 2.2211254,2.2211254 0 0 0 -1.321722,2.287759 2.2211254,2.2211254 0 0 0 1.804343,1.931594 L 18.893898,48.0982 c 0.137037,1.195303 0.423535,2.137133 0.641838,2.112076 l 0.526208,-0.05999 c 0.218291,-0.02556 0.282542,-1.007411 0.145505,-2.202713 l -2.691707,-23.49588 a 2.2211254,2.2211254 0 0 0 1.294587,-2.277491 2.2211254,2.2211254 0 0 0 -1.776843,-1.924366 l -0.114621,-0.999728 c -0.137038,-1.195302 -0.423536,-2.137133 -0.641839,-2.112075 z"
       id="path1006"
       style="fill:url(#linearGradient939);fill-opacity:1" />
  </g>
  <g
     transform="translate(-2.622101,0.35997)"
     fill="#5e4aa6"
     image-rendering="optimizeSpeed"
     id="g980">
    <circle
       cx="-1248.6"
       cy="-1241.1"
       r="0"
       id="circle968" />
    <g
       transform="matrix(3.7796,0,0,3.7796,-6.9956e-4,6.044e-4)"
       stroke-width="0.26458"
       id="g976">
      <circle
         cx="-330.35001"
         cy="-328.38"
         r="0"
         id="circle970" />
      <circle
         cx="-330.35001"
         cy="-328.38"
         r="0"
         id="circle972" />
      <circle
         cx="-352.63"
         cy="-336.84"
         r="0"
         id="circle974" />
    </g>
    <circle
       cx="-1248.6"
       cy="-1241.1"
       r="0"
       id="circle978" />
  </g>
  <circle
     cx="-1248.1652"
     cy="-1242.3"
     r="0"
     fill="#5e4aa6"
     id="circle982" />
  <circle
     cx="-63.255104"
     cy="31.544001"
     r="0"
     fill="url(#b)"
     stroke-width="1.5715"
     id="circle990"
     style="fill:url(#b)" />
</svg>
