<?xml version="1.0" encoding="UTF-8" standalone="no"?>
<svg
   xmlns:dc="http://purl.org/dc/elements/1.1/"
   xmlns:cc="http://creativecommons.org/ns#"
   xmlns:rdf="http://www.w3.org/1999/02/22-rdf-syntax-ns#"
   xmlns:svg="http://www.w3.org/2000/svg"
   xmlns="http://www.w3.org/2000/svg"
   xmlns:xlink="http://www.w3.org/1999/xlink"
   xmlns:sodipodi="http://sodipodi.sourceforge.net/DTD/sodipodi-0.dtd"
   xmlns:inkscape="http://www.inkscape.org/namespaces/inkscape"
   height="64"
   width="64"
   version="1.1"
   id="svg18"
   sodipodi:docname="amsn.svg"
   inkscape:version="1.0.1 (3bc2e813f5, 2020-09-07)">
  <metadata
     id="metadata24">
    <rdf:RDF>
      <cc:Work
         rdf:about="">
        <dc:format>image/svg+xml</dc:format>
        <dc:type
           rdf:resource="http://purl.org/dc/dcmitype/StillImage" />
        <dc:title></dc:title>
      </cc:Work>
    </rdf:RDF>
  </metadata>
  <defs
     id="defs22">
    <linearGradient
       id="a-3"
       x1="-6.1472001"
       x2="-6.1472001"
       y1="-137.82001"
       y2="-100.78"
       gradientTransform="matrix(2.0044363,0,0,2.0044363,47.332288,256.80628)"
       gradientUnits="userSpaceOnUse">
      <stop
         stop-color="#14dc78"
         offset="0"
         id="stop851" />
      <stop
         stop-color="#14a03c"
         offset="1"
         id="stop853" />
    </linearGradient>
    <linearGradient
       id="linearGradient1057">
      <stop
         stop-color="#fff"
         offset="0"
         id="stop949" />
      <stop
         stop-color="#fff"
         stop-opacity="0"
         offset="1"
         id="stop951" />
    </linearGradient>
    <linearGradient
       id="linearGradient982"
       x1="34.999"
       x2="34.999"
       y1="27.545"
       y2="52.847"
       gradientTransform="matrix(1.5625,0,0,1.5625,0.40633,-5.1891)"
       gradientUnits="userSpaceOnUse">
      <stop
         stop-color="#32b4ff"
         offset="0"
         id="stop954" />
      <stop
         stop-color="#3287ff"
         offset="1"
         id="stop956" />
    </linearGradient>
    <style
       type="text/css"
       id="style959" />
    <style
       type="text/css"
       id="style961" />
    <linearGradient
       id="linearGradient1047"
       x1="21.314"
       x2="21.314"
       y1="18.052"
       y2="43.681"
       gradientTransform="matrix(1.5625,0,0,1.5625,-9.2253,1.3231)"
       gradientUnits="userSpaceOnUse">
      <stop
         stop-color="#14dc78"
         offset="0"
         id="stop963" />
      <stop
         stop-color="#14a03c"
         offset="1"
         id="stop965" />
    </linearGradient>
    <linearGradient
       id="linearGradient1049"
       x1="41.729"
       x2="41.729"
       y1="12.316"
       y2="37.368"
       gradientTransform="matrix(1.5625,0,0,1.5625,-8.1072,-10.908)"
       gradientUnits="userSpaceOnUse">
      <stop
         stop-color="#ff3c64"
         offset="0"
         id="stop968" />
      <stop
         stop-color="#ff4628"
         offset="1"
         id="stop970" />
    </linearGradient>
    <linearGradient
       id="linearGradient1059"
       x1="34.427"
       x2="34.427"
       y1="32.234"
       y2="39.768"
       gradientTransform="matrix(1,0,0,1.2271,0.20646,-10.975)"
       gradientUnits="userSpaceOnUse"
       xlink:href="#linearGradient1057" />
    <linearGradient
       id="linearGradient1063"
       x1="34.427"
       x2="34.427"
       y1="32.234"
       y2="39.768"
       gradientTransform="matrix(1,0,0,1.2271,-12.55,-19.793)"
       gradientUnits="userSpaceOnUse"
       xlink:href="#linearGradient1057" />
    <linearGradient
       id="linearGradient1067"
       x1="34.427"
       x2="34.427"
       y1="32.234"
       y2="39.768"
       gradientTransform="matrix(1,0,0,1.2271,5.7554,-25.761)"
       gradientUnits="userSpaceOnUse"
       xlink:href="#linearGradient1057" />
  </defs>
  <sodipodi:namedview
     pagecolor="#ffffff"
     bordercolor="#666666"
     borderopacity="1"
     objecttolerance="10"
     gridtolerance="10"
     guidetolerance="10"
     inkscape:pageopacity="0"
     inkscape:pageshadow="2"
     inkscape:window-width="1920"
     inkscape:window-height="932"
     id="namedview20"
     showgrid="false"
     inkscape:zoom="5.6347572"
     inkscape:cx="-13.583518"
     inkscape:cy="16.915273"
     inkscape:window-x="0"
     inkscape:window-y="36"
     inkscape:window-maximized="1"
     inkscape:current-layer="svg18" />
  <linearGradient
     id="a"
     gradientUnits="userSpaceOnUse"
     x1="355.73465"
     x2="355.6907"
     y1="546.99841"
     y2="505.32748">
    <stop
       offset="0"
       stop-color="#197cf1"
       id="stop2" />
    <stop
       offset="1"
       stop-color="#20bcfa"
       id="stop4" />
  </linearGradient>
  <linearGradient
     id="b"
     gradientTransform="matrix(-0.56777405,0,0,0.61822428,579.27321,212.13023)"
     gradientUnits="userSpaceOnUse"
     x1="373.44516"
     x2="373.44516"
     y1="546.79541"
     y2="507.86609">
    <stop
       offset="0"
       stop-color="#4fc604"
       id="stop7" />
    <stop
       offset="1"
       stop-color="#83ee07"
       id="stop9" />
  </linearGradient>
  <g
     id="g1047"
     transform="translate(102.8105,33.774699)">
    <circle
       cx="-70.810501"
       cy="-1.2646997"
       r="30.000999"
       opacity="0.2"
       stroke-width="0.53035"
       id="circle980" />
    <circle
       cx="-70.810501"
       cy="-2.2846982"
       r="30.000999"
       fill="#fafafa"
       stroke-width="0.53035"
       id="circle982" />
  </g>
  <circle
     cx="-1248.6936"
     cy="-1241.6313"
     r="0"
     fill="#5e4aa6"
     stroke-width="1.00001"
     id="circle858" />
  <g
     transform="matrix(0.77155527,0,0,0.77155527,-242.18137,-374.91046)"
     id="g16">
    <path
       d="m 372.72396,511.00526 c -4.64376,-3.77923 -10.8097,-5.86043 -17.36188,-5.86043 -6.5523,0 -12.71825,2.08134 -17.3619,5.86043 -4.68415,3.81204 -7.26383,8.89248 -7.26383,14.30562 0,5.1665 2.35146,10.0291 6.6381,13.77566 -0.0773,0.17385 -0.13864,0.35675 -0.1778,0.54904 l -1.40852,6.92833 c -0.16748,0.8234 0.0576,1.31439 0.27567,1.58146 0.25214,0.30847 0.62586,0.47846 1.05242,0.47846 0.32207,0 0.66821,-0.095 1.02889,-0.28251 l 8.19253,-4.25611 c 2.83641,0.91297 5.88571,1.3917 9.02427,1.3917 6.55233,0 12.71811,-2.0813 17.36192,-5.8604 4.68401,-3.81192 7.26369,-8.89237 7.26369,-14.3055 0,-5.41327 -2.57956,-10.49371 -7.26357,-14.30575 z"
       fill="url(#a)"
       id="path12"
       style="fill:url(#a)" />
    <path
       d="m 358.65242,529.1544 c 2.32189,-2.05752 5.40486,-3.19058 8.68093,-3.19058 3.27614,0 6.35912,1.13313 8.68094,3.19058 2.34206,2.07537 3.63191,4.8413 3.63191,7.78837 0,2.81279 -1.17574,5.46009 -3.31906,7.49984 0.0388,0.0947 0.0694,0.19423 0.0889,0.29891 l 0.70425,3.77197 c 0.0837,0.44829 -0.0287,0.7156 -0.13788,0.861 -0.12614,0.16793 -0.31294,0.26049 -0.52621,0.26049 -0.16104,0 -0.3341,-0.0517 -0.51444,-0.15382 l -4.09627,-2.31712 c -1.4182,0.49704 -2.94284,0.75766 -4.51213,0.75766 -3.27614,0 -6.35905,-1.13311 -8.68093,-3.19056 -2.342,-2.07531 -3.63185,-4.84125 -3.63185,-7.7883 0,-2.94714 1.28978,-5.71307 3.63178,-7.78844 z"
       fill="url(#b)"
       id="path14"
       style="fill:url(#b)" />
  </g>
  <circle
     cx="-1351.5105"
     cy="-1275.3746"
     r="0"
     fill="#5e4aa6"
     id="circle978" />
  <circle
     cx="-251.96049"
     cy="-9.9196987"
     r="0"
     fill="#5e4aa6"
     fill-rule="evenodd"
     id="circle984" />
</svg>
