<?xml version="1.0" encoding="UTF-8"?>
<svg width="64" height="64" version="1.1" xmlns="http://www.w3.org/2000/svg" xmlns:cc="http://creativecommons.org/ns#" xmlns:dc="http://purl.org/dc/elements/1.1/" xmlns:rdf="http://www.w3.org/1999/02/22-rdf-syntax-ns#" xmlns:xlink="http://www.w3.org/1999/xlink">
 <metadata>
  <rdf:RDF>
   <cc:Work rdf:about="">
    <dc:format>image/svg+xml</dc:format>
    <dc:type rdf:resource="http://purl.org/dc/dcmitype/StillImage"/>
    <dc:title/>
   </cc:Work>
  </rdf:RDF>
 </metadata>
 <defs>
  <style type="text/css"/>
 </defs>
 <circle cx="-1248.7" cy="-1241.6" r="0" fill="#5e4aa6"/>
 <circle cx="32" cy="32.51" r="30.001" opacity=".2" stroke-width=".53035"/>
 <circle cx="32" cy="31.49" r="30.001" fill="#fafafa" stroke-width=".53035"/>
 <circle cx="-149.15" cy="23.855" r="0" fill="#5e4aa6" fill-rule="evenodd"/>
 <path d="m45.428 25.414c-0.48084 0.03331-0.93493 0.29706-1.1953 0.74805l-5.2578 9.1074c-2.0694-0.53509-4.375-0.84961-6.9766-0.84961-2.6015 0-4.9071 0.31452-6.9766 0.84961l-5.2539-9.1074c-0.31244-0.54126-0.90667-0.81317-1.4883-0.74023-0.19386 0.02406-0.38602 0.08779-0.56641 0.19141-0.72154 0.41658-0.96736 1.3331-0.55078 2.0547l4.9434 8.5625c-7.4513 3.0783-10.966 9.5046-12.633 15.104 1.7919 2.0391 3.8397 3.8472 6.1191 5.3398 0.96493 0.63176 1.9694 1.2105 3.0078 1.7285 3.4902 1.7468 7.3707 2.8277 11.475 3.0879h3.8516c4.104-0.26016 7.9845-1.3412 11.475-3.0879 1.0383-0.51788 2.0409-1.0966 3.0059-1.7285 2.2808-1.4923 4.3293-3.3004 6.1211-5.3398-1.6677-5.5986-5.1852-12.027-12.633-15.105l4.9434-8.5625c0.41658-0.72157 0.16881-1.6362-0.55274-2.0527-0.27058-0.15621-0.56892-0.2192-0.85742-0.19922z" enable-background="new" fill="#14a03c" stroke-width="4.0601"/>
 <g transform="translate(-.000459 -.44463)" fill="#fff">
  <rect x="17.99" y="54.462" width="28" height="2.8" rx="1.4" ry="1.4"/>
  <circle cx="23.59" cy="47.462" r="2.8"/>
  <circle cx="40.39" cy="47.462" r="2.8"/>
 </g>
 <rect x="22.78" y="12.301" width="3.661" height="10.034" ry="1.8305" fill="#14a03c" fill-rule="evenodd" style="paint-order:stroke fill markers"/>
 <rect x="37.559" y="12.301" width="3.661" height="10.034" ry="1.8305" fill="#14a03c" fill-rule="evenodd" style="paint-order:stroke fill markers"/>
 <circle cx="-928.25" cy="-1302.1" r="0" fill="#5e4aa6"/>
 <g transform="matrix(3.7796 0 0 3.7796 189.13 -17.864)" fill="#5e4aa6" stroke-width=".26458">
  <circle cx="-330.35" cy="-328.38" r="0"/>
  <circle cx="-312.11" cy="-326.25" r="0"/>
  <circle cx="-306.02" cy="-333.07" r="0"/>
  <circle cx="-308.84" cy="-326.01" r="0"/>
 </g>
</svg>
