<?xml version="1.0" encoding="UTF-8"?>
<svg width="64" height="64" version="1.1" viewBox="0 0 16.933 16.933" xmlns="http://www.w3.org/2000/svg" xmlns:cc="http://creativecommons.org/ns#" xmlns:dc="http://purl.org/dc/elements/1.1/" xmlns:rdf="http://www.w3.org/1999/02/22-rdf-syntax-ns#" xmlns:xlink="http://www.w3.org/1999/xlink">
 <metadata>
  <rdf:RDF>
   <cc:Work rdf:about="">
    <dc:format>image/svg+xml</dc:format>
    <dc:type rdf:resource="http://purl.org/dc/dcmitype/StillImage"/>
    <dc:title/>
   </cc:Work>
  </rdf:RDF>
 </metadata>
 <defs>
  <linearGradient id="e" x1="8.4207" x2="8.4207" y1="279.52" y2="297.9" gradientTransform="translate(-5.46e-4,-280.07)" gradientUnits="userSpaceOnUse">
   <stop stop-color="#c896ff" offset="0"/>
   <stop stop-color="#af64ff" offset="1"/>
  </linearGradient>
 </defs>
 <circle cx="8.4935" cy="8.73" r="7.9375" opacity=".2" stroke-width=".14032"/>
 <circle cx="8.4935" cy="8.46" r="7.9375" fill="url(#e)"/>
 <circle cx="-330.35" cy="-328.38" r="0" fill="#5e4aa6" stroke-width=".26458"/>
 <path d="m9.6945 3.9282s-1.2449 0.81638-1.3302 1.2797c0 0-2.6338-0.79595-4.9481 1.3262h1.1682s-3.0619 1.8293-3.1151 2.9781c0.053238-0.031995 0.5628-0.28605 0.77878-0.37227 0 0-0.93036 2.0303-0.36464 3.6281 1.2384 1.9506 3.7157 3.477 6.5416 3.477 0.085538 0 0.1685-0.0088 0.25326-0.01164 0.097616-0.31954 0.54954-1.9663-0.2814-2.992-0.71526-0.88473-1.9634-3.2849-0.30801-4.1014 0 0 1.0462 1.4037 2.2748 1.54 0 0 0.14341 1.2033 1.6283 0.43915 0.3963-0.20306 0.54364-0.87485 0.14374-1.42l-0.31486-0.43553s-1.0425-2.3935-1.785-3.1017c0 0-0.38939-1.1168 0-1.8613 0 0-0.44116 0.31318-0.58409 0.5584 0 0 0.099363-0.79538 0.24261-0.93067z" opacity=".25" stroke-width=".25382"/>
 <path d="m9.7366 3.2667s-1.2688 0.87033-1.3557 1.3642c0 0-2.6844-0.84856-5.0431 1.4139h1.1906s-3.1207 1.9502-3.1749 3.1749c0.05426-0.03411 0.5736-0.30495 0.79373-0.39687 0 0-0.94822 2.1644-0.37164 3.8679 1.2622 2.0795 3.787 3.7067 6.6671 3.7067 0.08718 0 0.17174-0.0094 0.25812-0.0124 0.09949-0.34067 0.56008-2.0963-0.2868-3.1898-0.72899-0.9432-2.0011-3.502-0.31392-4.3724 0 0 1.0663 1.4965 2.3184 1.6417 0 0 0.14616 1.2828 1.6596 0.46817 0.4039-0.21648 0.55408-0.93266 0.1465-1.5138l-0.32091-0.46431s-1.0625-2.5517-1.8192-3.3067c0 0-0.39687-1.1906 0-1.9843 0 0-0.44962 0.33387-0.5953 0.5953 0 0 0.10127-0.84795 0.24727-0.99217z" fill="#fff" stroke-width=".26458"/>
</svg>
