<?xml version="1.0" encoding="UTF-8" standalone="no"?>
<svg
   xmlns:dc="http://purl.org/dc/elements/1.1/"
   xmlns:cc="http://creativecommons.org/ns#"
   xmlns:rdf="http://www.w3.org/1999/02/22-rdf-syntax-ns#"
   xmlns:svg="http://www.w3.org/2000/svg"
   xmlns="http://www.w3.org/2000/svg"
   xmlns:sodipodi="http://sodipodi.sourceforge.net/DTD/sodipodi-0.dtd"
   xmlns:inkscape="http://www.inkscape.org/namespaces/inkscape"
   height="64"
   width="64"
   version="1.1"
   id="svg32"
   sodipodi:docname="appcode.svg"
   inkscape:version="1.0.1 (3bc2e813f5, 2020-09-07)">
  <metadata
     id="metadata38">
    <rdf:RDF>
      <cc:Work
         rdf:about="">
        <dc:format>image/svg+xml</dc:format>
        <dc:type
           rdf:resource="http://purl.org/dc/dcmitype/StillImage" />
        <dc:title></dc:title>
      </cc:Work>
    </rdf:RDF>
  </metadata>
  <defs
     id="defs36">
    <linearGradient
       id="e"
       x1="8.4207001"
       x2="8.4207001"
       y1="281.10001"
       y2="300.26999"
       gradientTransform="matrix(3.779602,0,0,3.779602,-0.10411054,-1059.0067)"
       gradientUnits="userSpaceOnUse">
      <stop
         stop-color="#c896ff"
         offset="0"
         id="stop865" />
      <stop
         stop-color="#32afff"
         offset="1"
         id="stop867" />
    </linearGradient>
    <style
       type="text/css"
       id="style870" />
    <style
       type="text/css"
       id="style872" />
  </defs>
  <sodipodi:namedview
     pagecolor="#ffffff"
     bordercolor="#666666"
     borderopacity="1"
     objecttolerance="10"
     gridtolerance="10"
     guidetolerance="10"
     inkscape:pageopacity="0"
     inkscape:pageshadow="2"
     inkscape:window-width="1920"
     inkscape:window-height="932"
     id="namedview34"
     showgrid="false"
     inkscape:zoom="7.96875"
     inkscape:cx="31.24526"
     inkscape:cy="34.859225"
     inkscape:window-x="0"
     inkscape:window-y="36"
     inkscape:window-maximized="1"
     inkscape:current-layer="svg32" />
  <linearGradient
     id="a"
     gradientUnits="userSpaceOnUse"
     x1="11.660663"
     x2="10.415977"
     y1="56.928329"
     y2="32.880905">
    <stop
       offset="0"
       stop-color="#cdd0d1"
       id="stop2" />
    <stop
       offset="1"
       stop-color="#f6f6f7"
       id="stop4" />
  </linearGradient>
  <linearGradient
     id="b"
     gradientUnits="userSpaceOnUse"
     x1="14.428456"
     x2="5.5057778"
     y1="47.467571"
     y2="39.642166">
    <stop
       offset="0"
       stop-color="#16a085"
       id="stop7" />
    <stop
       offset="1"
       stop-color="#2dcb72"
       id="stop9" />
  </linearGradient>
  <filter
     id="c"
     color-interpolation-filters="sRGB">
    <feColorMatrix
       values="0.21 0.72 0.072 0 0 0.21 0.72 0.072 0 0 0.21 0.72 0.072 0 0 0 0 0 1 0"
       id="feColorMatrix12" />
  </filter>
  <linearGradient
     id="d"
     gradientUnits="userSpaceOnUse"
     x1="-19.087099"
     x2="-9.0203972"
     y1="55.3755"
     y2="10.980507"
     gradientTransform="matrix(0.69660979,0,0,0.69660979,113.35549,20.823078)">
    <stop
       offset="0"
       stop-color="#247ce6"
       id="stop15" />
    <stop
       offset="1"
       stop-color="#02d6f0"
       id="stop17" />
  </linearGradient>
  <circle
     cx="32"
     cy="32.509869"
     r="30.000969"
     image-rendering="optimizeSpeed"
     opacity="0.2"
     stroke-width="0.530354"
     id="circle876" />
  <circle
     cx="32"
     cy="31.490131"
     r="30.000969"
     fill="url(#e)"
     image-rendering="optimizeSpeed"
     id="circle878"
     style="fill:url(#e);stroke-width:3.7796" />
  <circle
     cx="-1248.705"
     cy="-1241.5992"
     r="0"
     fill="#5e4aa6"
     image-rendering="optimizeSpeed"
     stroke-width="1.00001"
     id="circle880" />
  <path
     d="m 31.393582,46.122571 c 0.129828,-0.155769 0.201781,-0.701935 0.169526,-1.288358 l -0.05595,-1.017982 -6.946154,-0.066 c -4.967926,-0.04727 -7.020664,-0.0044 -7.207771,0.15009 -0.325583,0.268961 -0.35295,1.914592 -0.03712,2.231869 0.169223,0.170029 1.996865,0.233678 7.040301,0.245191 5.648723,0.01289 6.850199,-0.03064 7.037156,-0.254828 z M 43.73868,33.649627 c 1.177258,-0.410758 2.86296,-1.549727 3.188235,-2.154182 0.179394,-0.333308 0.07059,-0.524459 -0.804947,-1.415117 -0.556788,-0.566365 -1.101455,-1.029953 -1.210394,-1.030202 -0.108902,-3.81e-4 -0.61118,0.291857 -1.116119,0.649115 -2.173016,1.537501 -4.859303,1.280925 -6.418439,-0.613049 -0.632983,-0.768915 -1.153478,-2.218488 -1.151209,-3.206166 0.0026,-1.136901 0.579106,-2.585208 1.368424,-3.437581 1.632918,-1.763399 4.164038,-1.873626 6.326788,-0.275498 0.435989,0.322166 0.871826,0.509974 1.004663,0.432919 0.483741,-0.280586 2.013827,-2.233835 1.962266,-2.504949 -0.08421,-0.442355 -1.552597,-1.472569 -2.732653,-1.917156 -1.419095,-0.534653 -3.560578,-0.709637 -5.077156,-0.414861 -5.242445,1.018959 -8.148054,6.7398 -5.907218,11.630693 1.036224,2.261676 3.309223,4.084658 5.742942,4.605917 1.194851,0.255827 3.585422,0.08254 4.824817,-0.349875 z m -23.43072,-0.03645 c 0.128338,-0.08113 0.495785,-0.779833 0.816546,-1.552667 0.320755,-0.772835 0.679188,-1.520285 0.796516,-1.661001 0.16151,-0.193695 0.914805,-0.253529 3.101535,-0.246319 1.588516,0.0052 2.992913,0.07637 3.120882,0.158106 0.127954,0.08171 0.49222,0.782089 0.809446,1.556379 0.317224,0.774291 0.672243,1.523371 0.788925,1.664619 0.294846,0.356926 3.382437,0.369369 3.51965,0.0143 0.05307,-0.137461 -1.368085,-3.709331 -3.158185,-7.93751 l -3.254744,-7.6876 -1.721929,0.05069 -1.721931,0.0507 -3.252377,7.601663 c -1.788811,4.180913 -3.206622,7.721729 -3.150695,7.868477 0.07513,0.197119 0.489886,0.266939 1.587352,0.267287 0.817116,2.74e-4 1.590672,-0.0659 1.719011,-0.147048 z m 3.189969,-6.814948 c -0.124329,-0.326209 1.333731,-3.999034 1.587324,-3.998456 0.08793,2.13e-4 0.533938,0.892839 0.991089,1.983637 0.663963,1.584289 0.779154,2.016062 0.572602,2.146295 -0.142215,0.08967 -0.884157,0.162899 -1.648766,0.162778 -1.076971,-2.44e-4 -1.415448,-0.06649 -1.502255,-0.294219 z"
     fill="#ffffff"
     id="path912"
     style="stroke-width:1.40303" />
</svg>
