<?xml version="1.0" encoding="UTF-8"?>
<svg id="Apps-Visual-Studio-Code" width="64" height="64" enable-background="new 0 0 1024 1024" image-rendering="optimizeSpeed" version="1.1" viewBox="0 0 64 64" xmlns="http://www.w3.org/2000/svg" xmlns:cc="http://creativecommons.org/ns#" xmlns:dc="http://purl.org/dc/elements/1.1/" xmlns:rdf="http://www.w3.org/1999/02/22-rdf-syntax-ns#" xmlns:xlink="http://www.w3.org/1999/xlink">
 <metadata>
  <rdf:RDF>
   <cc:Work rdf:about="">
    <dc:format>image/svg+xml</dc:format>
    <dc:type rdf:resource="http://purl.org/dc/dcmitype/StillImage"/>
    <dc:title/>
   </cc:Work>
  </rdf:RDF>
 </metadata>
 <defs>
  <radialGradient id="a" cx="512.01" cy="512.01" r="470.16" gradientTransform="matrix(.057428 0 0 .057428 2.5964 2.5964)" gradientUnits="userSpaceOnUse">
   <stop stop-opacity="0" offset="0"/>
   <stop stop-opacity=".52593" offset="1"/>
  </radialGradient>
 </defs>
 <g fill="#5e4aa6">
  <circle cx="-1248.7" cy="-1241.6" r="0"/>
  <circle cx="-149.15" cy="23.855" r="0" fill-rule="evenodd"/>
  <circle cx="-1248.7" cy="-1241.6" r="0"/>
  <circle cx="-149.15" cy="23.855" r="0" fill-rule="evenodd"/>
 </g>
 <circle cx="32" cy="32.51" r="30.001" opacity=".2" stroke-width=".53035"/>
 <circle cx="32" cy="31.49" r="30.001" fill="#fafafa" stroke-width=".53035"/>
 <circle cx="32" cy="32" r="27" color="#000000" enable-background="accumulate" fill="#666" stroke-width="2.2604"/>
 <circle cx="32" cy="32" r="27" color="#000000" enable-background="accumulate" fill="url(#a)" stroke-width="2.2604"/>
 <g transform="matrix(4.668 0 0 4.668 -7.5241 -1314.9)" fill="#fff" style="paint-order:stroke markers fill">
  <path d="m8.467 285.62a2.91 2.91 0 0 0-2.91 2.91 2.91 2.91 0 0 0 2.91 2.91 2.91 2.91 0 0 0 2.91-2.91 2.91 2.91 0 0 0-2.91-2.91zm0 1.323a1.587 1.587 0 0 1 1.587 1.587 1.587 1.587 0 0 1-1.587 1.588 1.587 1.587 0 0 1-1.588-1.588 1.587 1.587 0 0 1 1.588-1.587z"/>
  <path d="m7.938 284.43h1.058v1.852h-1.058zm0 6.35h1.058v1.852h-1.058zm4.63-2.778v1.058h-1.852v-1.058zm-6.35 0v1.058h-1.852v-1.058zm5.522 3.056-0.747 0.747-1.31-1.31 0.748-0.747zm-4.49-4.49-0.747 0.747-1.31-1.31 0.748-0.747zm-1.309 5.237-0.748-0.748 1.31-1.31 0.748 0.749zm4.49-4.49-0.748-0.748 1.31-1.31 0.748 0.749z"/>
 </g>
</svg>
