<?xml version="1.0" encoding="UTF-8" standalone="no"?>
<svg
   xmlns:dc="http://purl.org/dc/elements/1.1/"
   xmlns:cc="http://creativecommons.org/ns#"
   xmlns:rdf="http://www.w3.org/1999/02/22-rdf-syntax-ns#"
   xmlns:svg="http://www.w3.org/2000/svg"
   xmlns="http://www.w3.org/2000/svg"
   xmlns:xlink="http://www.w3.org/1999/xlink"
   xmlns:sodipodi="http://sodipodi.sourceforge.net/DTD/sodipodi-0.dtd"
   xmlns:inkscape="http://www.inkscape.org/namespaces/inkscape"
   width="64"
   height="64"
   version="1.1"
   viewBox="0 0 64 64"
   id="svg16"
   sodipodi:docname="applications-all.svg"
   inkscape:version="1.0.1 (3bc2e813f5, 2020-09-07)">
  <metadata
     id="metadata22">
    <rdf:RDF>
      <cc:Work
         rdf:about="">
        <dc:format>image/svg+xml</dc:format>
        <dc:type
           rdf:resource="http://purl.org/dc/dcmitype/StillImage" />
        <dc:title></dc:title>
      </cc:Work>
    </rdf:RDF>
  </metadata>
  <defs
     id="defs20">
    <linearGradient
       id="linearGradient882"
       x1="48.389"
       x2="15.39"
       y1="16.018"
       y2="49.017"
       gradientTransform="translate(9.2017e-4,0.0099972)"
       gradientUnits="userSpaceOnUse"
       xlink:href="#linearGradient11422" />
    <linearGradient
       id="linearGradient11422"
       x1="-6.1472"
       x2="-6.1472"
       y1="-137.82"
       y2="-100.78"
       gradientTransform="matrix(2.0044,0,0,2.0044,43.503,271.61)"
       gradientUnits="userSpaceOnUse">
      <stop
         stop-color="#32b4ff"
         offset="0"
         id="stop850" />
      <stop
         stop-color="#3287ff"
         offset="1"
         id="stop852" />
    </linearGradient>
    <style
       type="text/css"
       id="style855" />
    <linearGradient
       inkscape:collect="always"
       xlink:href="#linearGradient11422"
       id="linearGradient911"
       gradientUnits="userSpaceOnUse"
       gradientTransform="matrix(2.0044,0,0,2.0044,43.503,271.61)"
       x1="-6.1472"
       y1="-137.82"
       x2="-6.1472"
       y2="-100.78" />
  </defs>
  <sodipodi:namedview
     pagecolor="#ffffff"
     bordercolor="#666666"
     borderopacity="1"
     objecttolerance="10"
     gridtolerance="10"
     guidetolerance="10"
     inkscape:pageopacity="0"
     inkscape:pageshadow="2"
     inkscape:window-width="1920"
     inkscape:window-height="1004"
     id="namedview18"
     showgrid="false"
     inkscape:zoom="4.5906698"
     inkscape:cx="28.458487"
     inkscape:cy="32.218581"
     inkscape:window-x="0"
     inkscape:window-y="0"
     inkscape:window-maximized="1"
     inkscape:current-layer="svg16" />
  <g
     fill="#5e4aa6"
     id="g865"
     style="image-rendering:optimizeSpeed">
    <circle
       cx="-1160"
       cy="-1257.6"
       r="0"
       id="circle859" />
    <circle
       cx="-1160"
       cy="-1257.6"
       r="0"
       id="circle861" />
    <circle
       cx="-1244.2"
       cy="-1289.6"
       r="0"
       id="circle863" />
  </g>
  <circle
     cx="-1124.8"
     cy="-1279.3"
     r="0"
     fill="#5e4aa6"
     id="circle867"
     style="image-rendering:optimizeSpeed" />
  <circle
     cx="31.999001"
     cy="32.507999"
     r="30.000999"
     opacity="0.2"
     stroke-width="0.53035"
     id="circle869"
     style="image-rendering:optimizeSpeed" />
  <circle
     cx="32.000999"
     cy="31.492001"
     r="30.000999"
     fill="url(#linearGradient11422)"
     stroke-width="3.7796"
     style="fill:url(#linearGradient911);paint-order:normal;image-rendering:optimizeSpeed"
     id="circle871" />
  <g
     transform="matrix(3.7796,0,0,3.7796,123.83,-38.184)"
     fill="#5e4aa6"
     stroke-width="0.26458"
     id="g881"
     style="image-rendering:optimizeSpeed">
    <circle
       cx="-299.01999"
       cy="-338.76999"
       r="0"
       id="circle873" />
    <circle
       cx="-8.1062002"
       cy="-3.9487"
       r="0"
       fill-rule="evenodd"
       id="circle875" />
    <circle
       cx="-278.25"
       cy="-357.69"
       r="0"
       id="circle877" />
    <circle
       cx="12.663"
       cy="-22.858999"
       r="0"
       fill-rule="evenodd"
       id="circle879" />
  </g>
  <g
     fill="#ffffff"
     stroke-width="2.8"
     id="g941"
     style="stroke-linecap:round;stroke-linejoin:round"
     transform="translate(-1,-1)">
    <rect
       x="17"
       y="17"
       width="14"
       height="14"
       rx="2"
       ry="2"
       id="rect933" />
    <path
       d="m 37,17 c -1.108,0 -2,0.892 -2,2 v 10 c 0,1.108 0.892,2 2,2 h 10 c 1.108,0 2,-0.892 2,-2 V 19 c 0,-1.108 -0.892,-2 -2,-2 z m 0,2 H 47 V 29 H 37 Z"
       id="path935" />
    <path
       d="m 37,35 c -1.108,0 -2,0.892 -2,2 v 10 c 0,1.108 0.892,2 2,2 h 10 c 1.108,0 2,-0.892 2,-2 V 37 c 0,-1.108 -0.892,-2 -2,-2 z m 0,2 H 47 V 47 H 37 Z"
       id="path937" />
    <path
       d="m 19,35 c -1.108,0 -2,0.892 -2,2 v 10 c 0,1.108 0.892,2 2,2 h 10 c 1.108,0 2,-0.892 2,-2 V 37 c 0,-1.108 -0.892,-2 -2,-2 z m 0,2 H 29 V 47 H 19 Z"
       id="path939" />
  </g>
</svg>
