<?xml version="1.0" encoding="UTF-8"?>
<svg width="64" height="64" version="1.1" viewBox="0 0 64 64" xmlns="http://www.w3.org/2000/svg" xmlns:cc="http://creativecommons.org/ns#" xmlns:dc="http://purl.org/dc/elements/1.1/" xmlns:rdf="http://www.w3.org/1999/02/22-rdf-syntax-ns#">
 <metadata>
  <rdf:RDF>
   <cc:Work rdf:about="">
    <dc:format>image/svg+xml</dc:format>
    <dc:type rdf:resource="http://purl.org/dc/dcmitype/StillImage"/>
    <dc:title/>
   </cc:Work>
  </rdf:RDF>
 </metadata>
 <defs>
  <linearGradient id="a-3" x1="-6.1472" x2="-6.1472" y1="-137.82" y2="-100.78" gradientTransform="matrix(2.0044,0,0,2.0044,43.499,271.61)" gradientUnits="userSpaceOnUse">
   <stop stop-color="#ff8214" offset="0"/>
   <stop stop-color="#ff6464" offset="1"/>
  </linearGradient>
  <style type="text/css"/>
 </defs>
 <g fill="#5e4aa6">
  <g image-rendering="optimizeSpeed">
   <circle cx="-1248.7" cy="-1241.6" r="0"/>
   <circle cx="-149.15" cy="23.855" r="0" fill-rule="evenodd"/>
   <circle cx="-1248.7" cy="-1241.6" r="0"/>
   <circle cx="-149.15" cy="23.855" r="0" fill-rule="evenodd"/>
  </g>
  <circle cx="-1248.7" cy="-1241.6" r="0"/>
  <circle cx="-149.15" cy="23.855" r="0" fill-rule="evenodd"/>
 </g>
 <circle cx="32" cy="32.51" r="30.001" opacity=".2" stroke-width=".53035"/>
 <circle cx="32" cy="31.49" r="30.001" fill="url(#a-3)" stroke-width=".53035"/>
 <g transform="matrix(4.668 0 0 4.668 -7.524 -1312.9)" image-rendering="optimizeSpeed" opacity=".2" style="paint-order:stroke markers fill">
  <path d="m8.467 285.62a2.91 2.91 0 0 0-2.91 2.91 2.91 2.91 0 0 0 2.91 2.91 2.91 2.91 0 0 0 2.91-2.91 2.91 2.91 0 0 0-2.91-2.91zm0 1.323a1.587 1.587 0 0 1 1.587 1.587 1.587 1.587 0 0 1-1.587 1.588 1.587 1.587 0 0 1-1.588-1.588 1.587 1.587 0 0 1 1.588-1.587z"/>
  <path d="m7.938 284.43h1.058v1.852h-1.058zm0 6.35h1.058v1.852h-1.058zm4.63-2.778v1.058h-1.852v-1.058zm-6.35 0v1.058h-1.852v-1.058zm5.522 3.056-0.747 0.747-1.31-1.31 0.748-0.747zm-4.49-4.49-0.747 0.747-1.31-1.31 0.748-0.747zm-1.309 5.237-0.748-0.748 1.31-1.31 0.748 0.749zm4.49-4.49-0.748-0.748 1.31-1.31 0.748 0.749z"/>
 </g>
 <g transform="matrix(4.668 0 0 4.668 -7.524 -1314.9)" fill="#fff" image-rendering="optimizeSpeed" style="paint-order:stroke markers fill">
  <path d="m8.467 285.62a2.91 2.91 0 0 0-2.91 2.91 2.91 2.91 0 0 0 2.91 2.91 2.91 2.91 0 0 0 2.91-2.91 2.91 2.91 0 0 0-2.91-2.91zm0 1.323a1.587 1.587 0 0 1 1.587 1.587 1.587 1.587 0 0 1-1.587 1.588 1.587 1.587 0 0 1-1.588-1.588 1.587 1.587 0 0 1 1.588-1.587z"/>
  <path d="m7.938 284.43h1.058v1.852h-1.058zm0 6.35h1.058v1.852h-1.058zm4.63-2.778v1.058h-1.852v-1.058zm-6.35 0v1.058h-1.852v-1.058zm5.522 3.056-0.747 0.747-1.31-1.31 0.748-0.747zm-4.49-4.49-0.747 0.747-1.31-1.31 0.748-0.747zm-1.309 5.237-0.748-0.748 1.31-1.31 0.748 0.749zm4.49-4.49-0.748-0.748 1.31-1.31 0.748 0.749z"/>
 </g>
</svg>
