<?xml version="1.0" encoding="UTF-8"?>
<svg width="64" height="64" version="1.1" xmlns="http://www.w3.org/2000/svg" xmlns:cc="http://creativecommons.org/ns#" xmlns:dc="http://purl.org/dc/elements/1.1/" xmlns:rdf="http://www.w3.org/1999/02/22-rdf-syntax-ns#" xmlns:xlink="http://www.w3.org/1999/xlink">
 <metadata>
  <rdf:RDF>
   <cc:Work rdf:about="">
    <dc:format>image/svg+xml</dc:format>
    <dc:type rdf:resource="http://purl.org/dc/dcmitype/StillImage"/>
    <dc:title/>
   </cc:Work>
  </rdf:RDF>
 </metadata>
 <defs>
  <filter id="b" x="-.81" y="-.81" width="2.62" height="2.62" color-interpolation-filters="sRGB">
   <feGaussianBlur stdDeviation="2.7"/>
  </filter>
  <filter id="c" x="-.81" y="-.81" width="2.62" height="2.62" color-interpolation-filters="sRGB">
   <feGaussianBlur stdDeviation="2.7"/>
  </filter>
  <filter id="d" x="-.81" y="-.81" width="2.62" height="2.62" color-interpolation-filters="sRGB">
   <feGaussianBlur stdDeviation="2.7"/>
  </filter>
  <filter id="e" x="-.81" y="-.81" width="2.62" height="2.62" color-interpolation-filters="sRGB">
   <feGaussianBlur stdDeviation="2.7"/>
  </filter>
  <linearGradient id="linearGradient11422" x1="-6.1472" x2="-6.1472" y1="-137.82" y2="-100.78" gradientTransform="matrix(.53033 0 0 .53033 11.509 71.997)" gradientUnits="userSpaceOnUse">
   <stop stop-color="#32b4ff" offset="0"/>
   <stop stop-color="#3287ff" offset="1"/>
  </linearGradient>
  <style id="current-color-scheme" type="text/css">.ColorScheme-Text { color:#dedede; } .ColorScheme-Highlight { color:#5294e2; } .ColorScheme-ButtonBackground { color:#dedede; }</style>
 </defs>
 <g transform="matrix(3.7796 0 0 3.7796 -.00037908 -.43215)">
  <circle cx="8.4666" cy="8.6952" r="7.9375" opacity=".2" stroke-width=".14032"/>
  <circle cx="8.4666" cy="8.4665" r="7.9375" fill="url(#linearGradient11422)" style="paint-order:normal"/>
  <g fill="#fff">
   <g stroke-width=".26786">
    <path d="m8.4666 0.52899a7.9375 7.9375 0 0 0-3.1605 0.66662l0.75078 0.75078v0.88879l0.99218 1.0956h0.56695v-0.56695l0.85043-0.85043v-0.56695l0.56695-0.56695v-0.82206a7.9375 7.9375 0 0 0-0.56695-0.028377zm-4.608 1.4868a7.9375 7.9375 0 0 0-3.3292 6.4506h0.85043l1.4174 1.4174v-1.7009l0.85043-0.85043h0.56695l0.85043-0.85043h0.85043l-0.42523-0.42523 0.85043-0.99218-0.85043-0.85043h-1.2757v1.1339h-0.56695l-0.56695-0.56695v-0.56695l0.85043-0.85043h0.7087v-0.56695zm8.2932 0.4976-0.85043 0.85043v0.7087h0.85043v-0.42523h0.56695v0.56695l-0.28348 0.28348-1.1339 0.01924-0.42523 0.40597h-0.56695v0.56695l-0.42523 0.42523v0.85043h0.85043l0.56695-0.56695h0.56695v0.28348l0.56695 0.56695h0.28348v-0.28348l-0.56695-0.56695h0.56695l0.56695 0.56695h0.7087l-0.42523-0.42523 0.42523-0.42523h0.42523l0.42523 0.42523h-0.42523l-0.42523 0.42523 0.41746 0.41746 0.0078 0.43297h-0.56695l1.7009 1.7009h0.28348l0.28343-0.28348 0.26853-0.26853a7.9375 7.9375 0 0 0 0.01495-0.29842 7.9375 7.9375 0 0 0-0.01038-0.29387l-0.27311-0.27311h0.26286a7.9375 7.9375 0 0 0-2.6769-5.3861zm1.7009 5.1027h-1.7009l-0.28348-0.28348h-1.7009l-0.99218 0.99218v1.4174l0.7087 0.7087h0.99218l0.42523 0.42523v0.42523l0.28348 0.28348v1.7009l1.0765 1.1378 1.7774-1.7776-0.0191-1.6281 1.4174-1.4174h-0.56695l-1.4174-1.4174zm-5.5278-3.9686v0.42523h0.85043l-0.42523-0.42523zm2.5513 0.14174-0.42523 0.42523v0.42523h0.42523zm-4.394 1.5591-0.42523 0.42523h0.42523l0.14174 0.14174h0.14174l0.14174-0.14174zm-2.4096 2.9765-0.42523 0.42523h0.85043v-0.42523zm-0.42523 1.2757-0.56695 0.56695v1.4174l1.1378 0.99703-0.00388 1.2708-0.42523 0.42523v0.59103a7.9375 7.9375 0 0 0 0.86704 0.56031l1.4008-1.2931v-0.56695l0.85043-0.85043v-0.42523l0.42523-0.42523v-1.1339l-0.56695-0.56695h-1.1339l-0.56695-0.56695zm11.764 1.9844-0.56695 0.52862v0.88879h0.13177a7.9375 7.9375 0 0 0 0.43519-0.69694z" color="#000000" opacity=".24"/>
    <circle cx="4.6396" cy="6.9074" r=".28348" enable-background="new"/>
    <circle cx="6.057" cy="12.577" r=".28348" enable-background="new"/>
    <circle cx="10.309" cy="9.7423" r=".28348" enable-background="new"/>
    <circle cx="11.727" cy="5.49" r=".28348" enable-background="new"/>
    <path d="m4.7848 1.4394a7.9375 7.9375 0 0 0-0.14935 0.08568c-0.14385 1.8171-0.17304 3.5984-0.040557 5.2951-1.0839-0.66721-2.1292-1.3691-3.1364-2.0714a7.9375 7.9375 0 0 0-0.062427 0.12928c0.98058 0.68339 1.9983 1.3666 3.0531 2.0183-1.3629 0.49332-2.6665 1.1253-3.907 1.9379a7.9375 7.9375 0 0 0 0.005952 0.16513c1.2835-0.84973 2.6363-1.5031 4.0543-2.0077 0.00236 0.00145 0.00471 0.00286 0.00706 0.00429 0.081703 0.96111 0.21581 1.8945 0.41165 2.7908 0.2117 0.96882 0.49559 1.8946 0.86205 2.7657-0.55139 0.18805-1.103 0.334-1.636 0.44403-0.75365 0.15561-1.4684 0.23939-2.0927 0.27228a7.9375 7.9375 0 0 0 0.09786 0.13606c0.60978-0.03636 1.2982-0.11974 2.0235-0.2695 0.54137-0.11178 1.1023-0.26032 1.6635-0.45207 0.60727 1.4024 1.4341 2.6591 2.5247 3.7208a7.9375 7.9375 0 0 0 0.00236 1.42e-4 7.9375 7.9375 0 0 0 0.19503-0.0069c-1.1231-1.065-1.9698-2.335-2.5881-3.7605 1.5437-0.54681 3.0766-1.4289 4.1963-2.797 1.8057 0.68363 3.6916 1.1621 5.6521 1.322a7.9375 7.9375 0 0 0 0.05038-0.138c-4.0629-0.32237-7.8116-2.0294-11.197-4.0934 2.1522-0.74478 4.4542-1.1524 6.8947-1.381-0.32666 1.3693-0.80144 2.6907-1.3891 3.9504l0.12845 0.059797c0.59786-1.2815 1.08-2.6275 1.4094-4.0233 1.2703-0.11499 2.5779-0.18281 3.9212-0.22576a7.9375 7.9375 0 0 0-0.0627-0.14008c-1.308 0.042566-2.5831 0.10927-3.8242 0.22036 0.28532-1.2529 0.44636-2.5455 0.45608-3.8676a7.9375 7.9375 0 0 0-0.1416-0.073086c-0.0042 1.352-0.16783 2.6736-0.4626 3.9536-2.4639 0.22817-4.7912 0.63721-6.9692 1.3901-0.13266-1.7129-0.099979-3.5151 0.049554-5.3545zm-0.025053 5.6476c1.6989 1.0323 3.4908 1.9757 5.3701 2.6998-1.0979 1.3236-2.5983 2.1837-4.1125 2.7193-0.36426-0.86468-0.64667-1.7848-0.8575-2.7496-0.18736-0.85742-0.31811-1.7499-0.40002-2.6693z" color="#000000" color-rendering="auto" dominant-baseline="auto" fill-rule="evenodd" image-rendering="auto" opacity=".5" shape-rendering="auto" solid-color="#000000" style="font-feature-settings:normal;font-variant-alternates:normal;font-variant-caps:normal;font-variant-ligatures:normal;font-variant-numeric:normal;font-variant-position:normal;isolation:auto;mix-blend-mode:normal;shape-padding:0;text-decoration-color:#000000;text-decoration-line:none;text-decoration-style:solid;text-indent:0;text-orientation:mixed;text-transform:none;white-space:normal"/>
   </g>
   <circle transform="matrix(.07087 0 0 .07087 .52909 .52899)" cx="58" cy="90" r="4" enable-background="new" filter="url(#e)"/>
   <circle transform="matrix(.07087 0 0 .07087 .52909 .52899)" cx="78" cy="170" r="4" enable-background="new" filter="url(#d)"/>
   <circle transform="matrix(.07087 0 0 .07087 .52909 .52899)" cx="138" cy="130" r="4" enable-background="new" filter="url(#c)"/>
   <circle transform="matrix(.07087 0 0 .07087 .52909 .52899)" cx="158" cy="70" r="4" enable-background="new" filter="url(#b)"/>
   <path d="m8.4666 0.52899a7.9375 7.9375 0 0 0-7.9375 7.9375 7.9375 7.9375 0 0 0 0.002906 0.082913 7.9375 7.9375 0 0 1 7.9345-7.8786 7.9375 7.9375 0 0 1 7.9345 7.8545 7.9375 7.9375 0 0 0 0.0029-0.058827 7.9375 7.9375 0 0 0-7.9375-7.9375z" enable-background="new" opacity=".3" stroke-width=".26786"/>
  </g>
  <path d="m8.4666 16.404a7.9375 7.9375 0 0 1-7.9375-7.9375 7.9375 7.9375 0 0 1 0.002906-0.082913 7.9375 7.9375 0 0 0 7.9345 7.8786 7.9375 7.9375 0 0 0 7.9345-7.8545 7.9375 7.9375 0 0 1 0.0029 0.058827 7.9375 7.9375 0 0 1-7.9375 7.9375z" enable-background="new" opacity=".2" stroke-width=".26786"/>
  <g fill="#5e4aa6" stroke-width=".26458">
   <circle cx="-305.05" cy="-343.65" r="0"/>
   <circle cx="-14.133" cy="-8.8272" r="0" fill-rule="evenodd"/>
   <g transform="translate(25.301,-15.267)">
    <circle cx="-306.7" cy="-329.95" r="0"/>
    <circle cx="-15.783" cy="4.8765" r="0" fill-rule="evenodd"/>
    <circle cx="-285.93" cy="-348.86" r="0"/>
    <circle cx="4.9855" cy="-14.033" r="0" fill-rule="evenodd"/>
   </g>
  </g>
 </g>
 <path class="ColorScheme-Text" d="m14.067 0.78445c6.1791 0 11.316 4.1198 12.435 9.5674 0.19072 0.82197 0.28885 1.6606 0.29142 2.5019-0.0047 3.6152-1.7578 7.0301-4.762 9.2853v5.6301l-3.7017-3.7017c-1.3502 0.44793-2.7713 0.69019-4.207 0.69136-6.0867-0.0038-11.308-4.0745-12.438-9.6945-0.18541-0.80272-0.28832-1.6352-0.28832-2.4895 0-6.5123 5.6737-11.79 12.671-11.79z" color="#dedede" fill="#14aa46" stroke-width="1.5873"/>
 <path class="ColorScheme-Text" d="m50.679 62.03c-6.1791 0-11.316-4.1198-12.435-9.5674-0.19072-0.82197-0.28885-1.6606-0.29142-2.5019 0.0047-3.6152 1.7578-7.0301 4.762-9.2853v-5.6301l3.7017 3.7017c1.3502-0.44793 2.7713-0.69019 4.207-0.69136 6.0867 0.0038 11.308 4.0745 12.438 9.6945 0.18541 0.80272 0.28832 1.6352 0.28832 2.4895 0 6.5123-5.6737 11.79-12.671 11.79z" color="#dedede" fill="#6e41be" stroke-width="1.5873"/>
 <path d="m15.15 10.268c0-0.87556-0.44228-1.3127-1.3256-1.3127-0.51428 0-1.0556 0.17614-1.6238 0.52842l-0.22371-0.76499c0.56442-0.38571 1.2201-0.57856 1.9658-0.57856 0.63514 0 1.1636 0.15943 1.5866 0.47957 0.45642 0.34842 0.68399 0.88713 0.68399 1.6174 0 0.61328-0.19928 1.197-0.59785 1.7486-0.18257 0.24943-0.369 0.49757-0.56056 0.74699-0.49757 0.64285-0.85628 1.3256-1.0761 2.0468h-0.56056c0.02957-0.64285 0.243-1.3166 0.64028-2.0224 0.16586-0.29442 0.33171-0.58114 0.49757-0.85885 0.39342-0.65956 0.59142-1.2034 0.59142-1.6303m-0.93985 6.9621c-0.12086 0.13243-0.297 0.19928-0.52842 0.19928-0.23271 0-0.41014-0.06686-0.53485-0.19928-0.12086-0.13628-0.18-0.30085-0.18-0.49114s0.06043-0.35228 0.18-0.48471c0.12471-0.13243 0.30342-0.19928 0.53485-0.19928 0.23271 0 0.40885 0.06686 0.52842 0.19928 0.12086 0.13243 0.18 0.297 0.18 0.49114 0 0.19028-0.06043 0.35228-0.18 0.48471" fill="#97ffad" stroke-width=".99999"/>
 <path d="m51.179 54.271c-0.12086 0.13628-0.297 0.20571-0.52842 0.20571-0.23271 0-0.41014-0.07071-0.53485-0.21214-0.12086-0.14528-0.18-0.31371-0.18-0.504 0-0.19028 0.06043-0.35614 0.18-0.49757 0.12471-0.14143 0.30342-0.21214 0.53485-0.21214 0.23271 0 0.40885 0.07071 0.52842 0.21214 0.12471 0.14143 0.18643 0.30857 0.18643 0.504 0 0.19543-0.06171 0.36257-0.18643 0.50399m-0.74056-2.4763-0.36128-5.7432v-0.74056h1.0954v0.74056l-0.324 5.7432h-0.41014" fill="#e0a8ff" stroke-width=".99999"/>
</svg>
