<?xml version="1.0" encoding="UTF-8"?>
<svg width="64" height="64" version="1.1" xmlns="http://www.w3.org/2000/svg" xmlns:cc="http://creativecommons.org/ns#" xmlns:dc="http://purl.org/dc/elements/1.1/" xmlns:rdf="http://www.w3.org/1999/02/22-rdf-syntax-ns#" xmlns:xlink="http://www.w3.org/1999/xlink">
 <metadata>
  <rdf:RDF>
   <cc:Work rdf:about="">
    <dc:format>image/svg+xml</dc:format>
    <dc:type rdf:resource="http://purl.org/dc/dcmitype/StillImage"/>
    <dc:title/>
   </cc:Work>
  </rdf:RDF>
 </metadata>
 <defs>
  <linearGradient id="a" x2="0" y1="38" y2="13" gradientTransform="matrix(1 0 0 1 23.986 26.491)" gradientUnits="userSpaceOnUse">
   <stop stop-color="#8e44ad" offset="0"/>
   <stop stop-color="#9b59b6" offset="1"/>
  </linearGradient>
  <linearGradient id="a-3" x1="-6.1472" x2="-6.1472" y1="-137.82" y2="-100.78" gradientTransform="matrix(2.0044 0 0 2.0044 43.495 271.61)" gradientUnits="userSpaceOnUse">
   <stop stop-color="#14dc78" offset="0"/>
   <stop stop-color="#14a03c" offset="1"/>
  </linearGradient>
 </defs>
 <circle cx="-1248.7" cy="-1241.6" r="0" fill="#5e4aa6"/>
 <circle cx="31.996" cy="32.51" r="30.001" opacity=".2" stroke-width=".53035"/>
 <circle cx="31.996" cy="31.49" r="30.001" fill="url(#a-3)" stroke-width=".53035"/>
 <circle cx="-149.15" cy="23.855" r="0" fill="#5e4aa6" fill-rule="evenodd"/>
 <g transform="matrix(1.174 0 0 1.174 .48709 -3.7789)" fill="#fff">
  <path d="m21.846 16.847c-4.0025 0-7.0018 1.9998-7.0018 11.5 0 7.8369 2.1343 10.565 5.0513 11.281 0.52042 6.0367 6.9492 4.2188 6.9492 4.2188v-1.9998s-2.5932 0.86098-2.9547-2.2405c2.8683-0.75238 4.9549-3.5085 4.9549-11.259 0-9.5002-2.9994-11.5-7.0018-11.5m0 1.9998c1.9963 0 2.9994 1.6525 2.9994 9.5002 0 7.8467-1.0031 9.5002-2.9994 9.5002-1.9963 0-2.9994-1.6525-2.9994-9.5002 0-7.8467 1.0031-9.5002 2.9994-9.5002" stroke-linejoin="bevel" stroke-width="1.9715"/>
  <path d="m33.843 18.847h2.9994v3.9997h1.9963v1.9998h-1.9963v11c0 1.9998 1.9963 0.49996 1.9963 0.49996v1.9998s-5.9988 3.4997-5.9988-2.4998v-11h-1.0031v-1.9998h1.0031z" fill-rule="evenodd" stroke-width=".99955"/>
 </g>
 <path d="m54.992 39.491c-1.9446 0-3.7601 0.68194-5.0394 1.9568-1.2792 1.2788-1.9605 3.0946-1.9605 5.0387h4.0025c0-1.0557 0.31782-1.7396 0.78858-2.2112 0.47076-0.4706 1.155-0.78858 2.2108-0.78858s1.74 0.31798 2.2108 0.78858c0.47076 0.47061 0.78858 1.1555 0.78858 2.2112 0 0.91675-0.18076 1.3071-0.4221 1.6525-0.24134 0.34537-0.63662 0.67215-1.2246 1.0841-0.58795 0.4119-1.3696 0.88642-2.0916 1.7288-0.72204 0.84239-1.2613 2.1182-1.2613 3.5349v0.99991h4.0025v-0.99991c0-0.58312 0.0834-0.68194 0.29894-0.93338 0.21552-0.25145 0.68628-0.58997 1.3477-1.0527 0.66145-0.46278 1.5166-1.0743 2.2128-2.0722 0.69622-0.99796 1.1402-2.3579 1.1402-3.9429 0-1.9441-0.6823-3.76-1.9605-5.0387-1.2792-1.2788-3.0947-1.9568-5.0394-1.9568m-1.9963 18v3.9997h4.0025v-3.9997z" fill="url(#a)" stroke-linejoin="round" stroke-width="1.9715"/>
</svg>
