<?xml version="1.0" encoding="UTF-8"?>
<svg width="64" height="64" version="1.1" viewBox="0 0 64 64" xmlns="http://www.w3.org/2000/svg" xmlns:cc="http://creativecommons.org/ns#" xmlns:dc="http://purl.org/dc/elements/1.1/" xmlns:rdf="http://www.w3.org/1999/02/22-rdf-syntax-ns#">
 <metadata>
  <rdf:RDF>
   <cc:Work rdf:about="">
    <dc:format>image/svg+xml</dc:format>
    <dc:type rdf:resource="http://purl.org/dc/dcmitype/StillImage"/>
    <dc:title/>
   </cc:Work>
  </rdf:RDF>
 </metadata>
 <defs>
  <linearGradient id="a-3" x1="-6.1472" x2="-6.1472" y1="-137.82" y2="-100.78" gradientTransform="matrix(2.0044 0 0 2.0044 43.499 271.61)" gradientUnits="userSpaceOnUse">
   <stop stop-color="#969696" offset="0"/>
   <stop stop-color="#555" offset="1"/>
  </linearGradient>
 </defs>
 <circle cx="-1248.7" cy="-1241.6" r="0" fill="#5e4aa6"/>
 <circle cx="32" cy="32.51" r="30.001" opacity=".2" stroke-width=".53035"/>
 <circle cx="32" cy="31.49" r="30.001" fill="url(#a-3)" stroke-width=".53035"/>
 <circle cx="-149.15" cy="23.855" r="0" fill="#5e4aa6" fill-rule="evenodd"/>
 <g transform="matrix(3.9718 0 0 3.9718 -1.6271 -1.6258)" fill="#fff" style="paint-order:stroke markers fill">
  <path d="m8.326 4.236a4.238 4.238 0 0 0-2.856 1.236 4.235 4.235 0 0 0-0.346 5.589l0.89-0.89a2.99 2.99 0 0 1 0.338-3.818 2.992 2.992 0 0 1 3.112-0.7v1.07l1.598-1.598a4.238 4.238 0 0 0-2.736-0.89zm3.484 1.637-0.891 0.89a2.99 2.99 0 0 1-0.338 3.818 2.992 2.992 0 0 1-3.111 0.7v-1.07l-1.058 1.057-0.541 0.541a4.238 4.238 0 0 0 5.592-0.347 4.235 4.235 0 0 0 0.346-5.589z"/>
 </g>
</svg>
