<?xml version="1.0" encoding="UTF-8"?>
<svg width="64" height="64" version="1.1" viewBox="0 0 64 64" xmlns="http://www.w3.org/2000/svg" xmlns:cc="http://creativecommons.org/ns#" xmlns:dc="http://purl.org/dc/elements/1.1/" xmlns:rdf="http://www.w3.org/1999/02/22-rdf-syntax-ns#" xmlns:xlink="http://www.w3.org/1999/xlink">
 <metadata>
  <rdf:RDF>
   <cc:Work rdf:about="">
    <dc:format>image/svg+xml</dc:format>
    <dc:type rdf:resource="http://purl.org/dc/dcmitype/StillImage"/>
    <dc:title/>
   </cc:Work>
  </rdf:RDF>
 </metadata>
 <defs>
  <style type="text/css"/>
  <style type="text/css"/>
  <linearGradient id="linearGradient11422" x1="-6.1472" x2="-6.1472" y1="-137.82" y2="-100.78" gradientTransform="matrix(2.0044 0 0 2.0044 -54.124 224.15)" gradientUnits="userSpaceOnUse">
   <stop stop-color="#32b4ff" offset="0"/>
   <stop stop-color="#3287ff" offset="1"/>
  </linearGradient>
  <style type="text/css"/>
 </defs>
 <g transform="translate(97.627 47.458)">
  <circle cx="-65.628" cy="-14.95" r="30.001" opacity=".2" stroke-width=".53035"/>
  <circle cx="-65.626" cy="-15.966" r="30.001" fill="url(#linearGradient11422)" stroke-width="3.7796" style="paint-order:normal"/>
 </g>
 <g fill="#5e4aa6">
  <circle cx="-1248.7" cy="-1241.6" r="0"/>
  <circle cx="-149.15" cy="23.855" r="0" fill-rule="evenodd"/>
  <g transform="translate(-97.627 -47.458)">
   <circle cx="-1401.7" cy="-1262.9" r="0"/>
   <circle cx="-302.14" cy="2.5994" r="0" fill-rule="evenodd"/>
   <circle cx="-1124.8" cy="-1279.3" r="0"/>
  </g>
  <g transform="matrix(3.7796 0 0 3.7796 26.203 -85.642)" stroke-width=".26458">
   <circle cx="-299.02" cy="-338.77" r="0"/>
   <circle cx="-8.1062" cy="-3.9487" r="0" fill-rule="evenodd"/>
   <circle cx="-278.25" cy="-357.69" r="0"/>
   <circle cx="12.663" cy="-22.859" r="0" fill-rule="evenodd"/>
  </g>
 </g>
 <g transform="translate(.10502 -.77393)" fill="#fff">
  <path d="m12.263 28.068c-0.43456 0.43456-0.43456 1.1342 0 1.5688l3.1376 3.1376-3.1376 3.1376c-0.43456 0.43456-0.43456 1.1342 0 1.5688 0.43456 0.43456 1.1342 0.43456 1.5688 0l3.1376-3.1376 3.1376 3.1376c0.43456 0.43456 1.1342 0.43456 1.5688 0 0.43456-0.43456 0.43456-1.1342 0-1.5688l-3.1376-3.1376 3.1376-3.1376c0.43456-0.43456 0.43456-1.1342 0-1.5688-0.43456-0.43456-1.1342-0.43456-1.5688 0l-3.1376 3.1376-3.1376-3.1376c-0.43456-0.43456-1.1342-0.43456-1.5688 0z"/>
  <path d="m31.391 27.742c-3.0728 0-5.5466 2.4738-5.5466 5.5466s2.4738 5.5466 5.5466 5.5466 5.5466-2.4738 5.5466-5.5466-2.4738-5.5466-5.5466-5.5466zm0 2.2186c1.8437 0 3.3279 1.4843 3.3279 3.3279 0 1.8437-1.4843 3.3279-3.3279 3.3279s-3.3279-1.4843-3.3279-3.3279c0-1.8437 1.4843-3.3279 3.3279-3.3279z"/>
  <path d="m36.611 41.506c0.43456 0.43456 0.43456 1.1342 0 1.5688l-3.1376 3.1376 3.1376 3.1376c0.43456 0.43456 0.43456 1.1342 0 1.5688-0.43456 0.43456-1.1342 0.43456-1.5688 0l-3.1376-3.1376-3.1376 3.1376c-0.43456 0.43456-1.1342 0.43456-1.5688 0-0.43456-0.43456-0.43456-1.1342 0-1.5688l3.1376-3.1376-3.1376-3.1376c-0.43456-0.43456-0.43456-1.1342 0-1.5688 0.43456-0.43456 1.1342-0.43456 1.5688 0l3.1376 3.1376 3.1376-3.1376c0.43456-0.43456 1.1342-0.43456 1.5688 0z"/>
  <path d="m12.263 15.143c-0.43456 0.43456-0.43456 1.1342 0 1.5688l3.1376 3.1376-3.1376 3.1376c-0.43456 0.43456-0.43456 1.1342 0 1.5688 0.43456 0.43456 1.1342 0.43456 1.5688 0l3.1376-3.1376 3.1376 3.1376c0.43456 0.43456 1.1342 0.43456 1.5688 0 0.43456-0.43456 0.43456-1.1342 0-1.5688l-3.1376-3.1376 3.1376-3.1376c0.43456-0.43456 0.43456-1.1342 0-1.5688-0.43456-0.43456-1.1342-0.43456-1.5688 0l-3.1376 3.1376-3.1376-3.1376c-0.43456-0.43456-1.1342-0.43456-1.5688 0z"/>
  <path d="m31.381 14.303c-3.0728 0-5.5466 2.4738-5.5466 5.5466s2.4738 5.5466 5.5466 5.5466 5.5466-2.4738 5.5466-5.5466-2.4738-5.5466-5.5466-5.5466zm0 2.2186c1.8437 0 3.3279 1.4843 3.3279 3.3279 0 1.8437-1.4843 3.3279-3.3279 3.3279s-3.3279-1.4843-3.3279-3.3279c0-1.8437 1.4843-3.3279 3.3279-3.3279z"/>
  <path d="m51.527 41.506c0.43456 0.43456 0.43456 1.1342 0 1.5688l-3.1376 3.1376 3.1376 3.1376c0.43456 0.43456 0.43456 1.1342 0 1.5688-0.43456 0.43456-1.1342 0.43456-1.5688 0l-3.1376-3.1376-3.1376 3.1376c-0.43456 0.43456-1.1342 0.43456-1.5688 0-0.43456-0.43456-0.43456-1.1342 0-1.5688l3.1376-3.1376-3.1376-3.1376c-0.43456-0.43456-0.43456-1.1342 0-1.5688 0.43456-0.43456 1.1342-0.43456 1.5688 0l3.1376 3.1376 3.1376-3.1376c0.43456-0.43456 1.1342-0.43456 1.5688 0z"/>
  <path d="m46.306 14.303c-3.0728 0-5.5466 2.4738-5.5466 5.5466s2.4738 5.5466 5.5466 5.5466 5.5466-2.4738 5.5466-5.5466-2.4738-5.5466-5.5466-5.5466zm0 2.2186c1.8437 0 3.3279 1.4843 3.3279 3.3279 0 1.8437-1.4843 3.3279-3.3279 3.3279s-3.3279-1.4843-3.3279-3.3279c0-1.8437 1.4843-3.3279 3.3279-3.3279z"/>
 </g>
</svg>
