<?xml version="1.0" encoding="UTF-8"?>
<svg width="64" height="64" version="1.1" xmlns="http://www.w3.org/2000/svg" xmlns:cc="http://creativecommons.org/ns#" xmlns:dc="http://purl.org/dc/elements/1.1/" xmlns:rdf="http://www.w3.org/1999/02/22-rdf-syntax-ns#" xmlns:xlink="http://www.w3.org/1999/xlink">
 <metadata>
  <rdf:RDF>
   <cc:Work rdf:about="">
    <dc:format>image/svg+xml</dc:format>
    <dc:type rdf:resource="http://purl.org/dc/dcmitype/StillImage"/>
    <dc:title/>
   </cc:Work>
  </rdf:RDF>
 </metadata>
 <defs>
  <style type="text/css"/>
  <linearGradient id="a-3" x1="-6.1472" x2="-6.1472" y1="-140.25" y2="-98.292" gradientTransform="matrix(2.0044 0 0 2.0044 158.75 201.78)" gradientUnits="userSpaceOnUse">
   <stop stop-color="#ff3c69" offset="0"/>
   <stop stop-color="#ff462b" offset="1"/>
  </linearGradient>
 </defs>
 <g transform="translate(-115.25 69.831)" stroke-width=".53035">
  <circle cx="147.25" cy="-37.32" r="30.001" opacity=".2"/>
  <circle cx="147.25" cy="-38.341" r="30.001" fill="url(#a-3)"/>
 </g>
 <circle cx="-1133.4" cy="-1295.5" r="0" fill="#5e4aa6"/>
 <circle cx="-1025.1" cy="-1355.6" r="0" fill="#5e4aa6"/>
 <path d="m32.024 14.5a12.963 12.963 0 0 0-7.8015 23.333v3.8896a2.5926 2.5926 0 0 0 2.5925 2.5925h10.37a2.5926 2.5926 0 0 0 2.5925-2.5925v-3.8896a12.963 12.963 0 0 0-7.7537-23.333zm1.2253 5.9814v7.5007h3.7512l-6.2498 9.9993v-7.5007h-3.7512zm-6.4343 26.426-0.23413 0.02051a1.2963 1.2963 0 0 0 0.23413 2.572h10.37l0.23413-0.02051a1.2963 1.2963 0 0 0-0.23413-2.572z" fill="#fff" stroke-width=".035446"/>
</svg>
