<?xml version="1.0" encoding="UTF-8"?>
<svg width="64" height="64" version="1.1" viewBox="0 0 16.933 16.933" xmlns="http://www.w3.org/2000/svg" xmlns:cc="http://creativecommons.org/ns#" xmlns:dc="http://purl.org/dc/elements/1.1/" xmlns:rdf="http://www.w3.org/1999/02/22-rdf-syntax-ns#">
 <metadata>
  <rdf:RDF>
   <cc:Work rdf:about="">
    <dc:format>image/svg+xml</dc:format>
    <dc:type rdf:resource="http://purl.org/dc/dcmitype/StillImage"/>
    <dc:title/>
   </cc:Work>
  </rdf:RDF>
 </metadata>
 <defs>
  <linearGradient id="a" x1="-6.1472" x2="-6.1472" y1="-137.82" y2="-100.78" gradientTransform="matrix(.49892 0 0 .49892 11.329 68.102)" gradientUnits="userSpaceOnUse">
   <stop stop-color="#32b4ff" offset="0"/>
   <stop stop-color="#3287ff" offset="1"/>
  </linearGradient>
 </defs>
 <circle cx="-330.38" cy="-328.51" r="0" fill="#5e4aa6" stroke-width=".26458"/>
 <circle cx="-39.461" cy="6.3116" r="0" fill="#5e4aa6" fill-rule="evenodd" stroke-width=".26458"/>
 <circle cx="8.4662" cy="8.6016" r="7.9375" opacity=".2" stroke-width=".14032"/>
 <circle cx="8.4665" cy="8.3316" r="7.4674" fill="url(#a)" stroke="#fafafa" stroke-width=".94077" style="paint-order:normal"/>
 <g transform="matrix(.22689 0 0 .22689 3.4376 .95838)" fill="#fff">
  <g transform="matrix(.71829 0 0 .71829 2.7912 12.923)">
   <rect x=".52434" y="14.445" width="16.695" height="12.328" ry="2.6356"/>
   <rect x="19.651" y="14.445" width="16.695" height="12.328" ry="2.6356"/>
   <rect x=".30503" y="29.384" width="16.695" height="12.328" ry="2.6356"/>
   <rect x="19.432" y="29.384" width="16.695" height="12.328" ry="2.6356"/>
  </g>
  <path d="m22.644 14.434a18.658 18.658 0 0 0-12.471 4.8459h6.0381a15.27 15.27 0 0 1 6.436-1.4584 15.27 15.27 0 0 1 15.284 15.253v0.01745a15.27 15.27 0 0 1-15.266 15.27 15.27 15.27 0 0 1-6.4721-1.4591h-6.0433a18.658 18.658 0 0 0 12.516 4.8462 18.658 18.658 0 0 0 18.653-18.657v-0.02116a18.658 18.658 0 0 0-18.674-18.637z"/>
 </g>
</svg>
