<?xml version="1.0" encoding="UTF-8"?>
<svg width="64" height="64" version="1.1" xmlns="http://www.w3.org/2000/svg" xmlns:cc="http://creativecommons.org/ns#" xmlns:dc="http://purl.org/dc/elements/1.1/" xmlns:rdf="http://www.w3.org/1999/02/22-rdf-syntax-ns#" xmlns:xlink="http://www.w3.org/1999/xlink">
 <metadata>
  <rdf:RDF>
   <cc:Work rdf:about="">
    <dc:format>image/svg+xml</dc:format>
    <dc:type rdf:resource="http://purl.org/dc/dcmitype/StillImage"/>
    <dc:title/>
   </cc:Work>
  </rdf:RDF>
 </metadata>
 <defs>
  <linearGradient id="i" x1="400.4" x2="400.4" y1="545.62" y2="517.62" gradientTransform="matrix(1.5862 0 0 1.5862 -663.97 -662.03)" gradientUnits="userSpaceOnUse">
   <stop stop-color="#d3d3d3" offset="0"/>
   <stop stop-color="#fcf9f9" offset="1"/>
  </linearGradient>
  <linearGradient id="f" x1="400.4" x2="400.4" y1="545.62" y2="517.62" gradientTransform="matrix(1.6382 0 0 1.6382 -738.62 -667.55)" gradientUnits="userSpaceOnUse">
   <stop stop-color="#8d3aff" offset="0"/>
   <stop stop-color="#ff3680" offset="1"/>
  </linearGradient>
  <linearGradient id="i-1" x1="400.4" x2="400.4" y1="545.62" y2="517.62" gradientTransform="matrix(1.5862 0 0 1.5862 -622.23 -769.27)" gradientUnits="userSpaceOnUse">
   <stop stop-color="#d3d3d3" offset="0"/>
   <stop stop-color="#fcf9f9" offset="1"/>
  </linearGradient>
  <linearGradient id="f-2" x1="400.4" x2="400.4" y1="545.62" y2="517.62" gradientTransform="matrix(1.6382 0 0 1.6382 -696.86 -774.78)" gradientUnits="userSpaceOnUse">
   <stop stop-color="#8d3aff" offset="0"/>
   <stop stop-color="#ff3680" offset="1"/>
  </linearGradient>
  <linearGradient id="i-3" x1="400.4" x2="400.4" y1="545.62" y2="517.62" gradientTransform="matrix(1.5862 0 0 1.5862 -691.63 -638.57)" gradientUnits="userSpaceOnUse">
   <stop stop-color="#d3d3d3" offset="0"/>
   <stop stop-color="#fcf9f9" offset="1"/>
  </linearGradient>
  <linearGradient id="f-6" x1="400.4" x2="400.4" y1="545.62" y2="517.62" gradientTransform="matrix(1.6382 0 0 1.6382 -766.28 -644.09)" gradientUnits="userSpaceOnUse">
   <stop stop-color="#8d3aff" offset="0"/>
   <stop stop-color="#ff3680" offset="1"/>
  </linearGradient>
  <radialGradient id="c" cx="190.1" cy="88.003" r="30" gradientTransform="matrix(.25557 -.06848 .095871 .3578 -45.652 280.8)" gradientUnits="userSpaceOnUse" xlink:href="#a"/>
  <linearGradient id="a">
   <stop stop-color="#646464" offset="0"/>
   <stop offset="1"/>
  </linearGradient>
  <radialGradient id="b" cx="190.1" cy="88.003" r="30" gradientTransform="matrix(.25557 -.06848 -.095871 -.3578 -34.53 322.31)" gradientUnits="userSpaceOnUse" xlink:href="#a"/>
 </defs>
 <g transform="matrix(3.7796 0 0 3.7796 -91.342 14.999)" fill="#5e4aa6" stroke-width=".26458">
  <circle cx="-330.35" cy="-328.38" r="0"/>
  <circle cx="-312.11" cy="-326.25" r="0"/>
  <circle cx="-306.02" cy="-333.07" r="0"/>
  <circle cx="-308.84" cy="-326.01" r="0"/>
 </g>
 <circle cx="-28.602" cy="181.52" r="0" fill="url(#i)" image-rendering="optimizeSpeed"/>
 <circle cx="-82.392" cy="203.68" r="0" fill="none" image-rendering="optimizeSpeed" stroke="url(#f)" stroke-width="2.1297"/>
 <circle cx="13.16" cy="74.274" r="0" fill="url(#i-1)" image-rendering="optimizeSpeed"/>
 <circle cx="-40.632" cy="96.43" r="0" fill="none" image-rendering="optimizeSpeed" stroke="url(#f-2)" stroke-width="2.1297"/>
 <g transform="translate(81.758 14.052)" fill="#5e4aa6">
  <circle cx="-1449.4" cy="-1216.7" r="0" image-rendering="optimizeSpeed"/>
  <circle cx="-1380.4" cy="-1208.7" r="0" image-rendering="optimizeSpeed"/>
  <circle cx="-1357.4" cy="-1234.5" r="0" image-rendering="optimizeSpeed"/>
  <circle cx="-1368.1" cy="-1207.8" r="0" image-rendering="optimizeSpeed"/>
 </g>
 <circle cx="-56.262" cy="204.98" r="0" fill="url(#i-3)" image-rendering="optimizeSpeed"/>
 <circle cx="-110.05" cy="227.14" r="0" fill="none" image-rendering="optimizeSpeed" stroke="url(#f-6)" stroke-width="2.1297"/>
 <g transform="matrix(3.7796 0 0 3.7796 -.10043 -1059.1)">
  <circle cx="-330.35" cy="-48.312" r="0" fill="#5e4aa6" stroke-width=".26458"/>
  <circle cx="-39.434" cy="286.51" r="0" fill="#5e4aa6" fill-rule="evenodd" stroke-width=".26458"/>
  <circle cx="8.4935" cy="288.8" r="7.9375" opacity=".2" stroke-width=".14032"/>
  <path d="m8.4935 280.6a7.9375 7.9375 0 0 0-7.9375 7.9375 7.9375 7.9375 0 0 0 7.9375 7.9375 7.9375 7.9375 0 0 0 7.9375-7.9375 7.9375 7.9375 0 0 0-7.9375-7.9375zm0 5.2917a2.6458 2.6458 0 0 1 2.6458 2.6458 2.6458 2.6458 0 0 1-2.6458 2.6458 2.6458 2.6458 0 0 1-2.6458-2.6458 2.6458 2.6458 0 0 1 2.6458-2.6458z" stroke-width=".5"/>
  <g transform="translate(-8.2463e-7,-15.405)">
   <circle cx="8.4931" cy="303.94" r="2.6457" fill="#16874f" style="paint-order:normal"/>
   <circle cx="8.4931" cy="303.94" r=".52917" fill="#fff" fill-rule="evenodd" stroke-width=".26458"/>
  </g>
  <g transform="rotate(-15,8.493,288.54)" stroke-width=".5">
   <path d="m0.8257 290.59a7.9375 7.9375 0 0 0 9.7211 5.6117 7.9375 7.9375 0 0 0 5.6129-9.7204l-5.1114 1.3696a2.6458 2.6458 0 0 1-1.8712 3.2395 2.6458 2.6458 0 0 1-3.2402-1.8699z" fill="url(#c)"/>
   <path d="m0.82623 290.59a7.9375 7.9375 0 0 1 5.6129-9.7204 7.9375 7.9375 0 0 1 9.7211 5.6117l-5.1114 1.3696a2.6458 2.6458 0 0 0-3.2402-1.8699 2.6458 2.6458 0 0 0-1.8712 3.2395z" fill="url(#b)"/>
  </g>
 </g>
</svg>
