<?xml version="1.0" encoding="UTF-8" standalone="no"?>
<svg
   xmlns:dc="http://purl.org/dc/elements/1.1/"
   xmlns:cc="http://creativecommons.org/ns#"
   xmlns:rdf="http://www.w3.org/1999/02/22-rdf-syntax-ns#"
   xmlns:svg="http://www.w3.org/2000/svg"
   xmlns="http://www.w3.org/2000/svg"
   xmlns:sodipodi="http://sodipodi.sourceforge.net/DTD/sodipodi-0.dtd"
   xmlns:inkscape="http://www.inkscape.org/namespaces/inkscape"
   width="64"
   height="64"
   version="1.1"
   viewBox="0 0 16.933 16.933"
   id="svg14"
   sodipodi:docname="chromium.svg"
   inkscape:version="0.92.5 (6c0c36ef5a, 2020-05-15, custom)">
  <metadata
     id="metadata20">
    <rdf:RDF>
      <cc:Work
         rdf:about="">
        <dc:format>image/svg+xml</dc:format>
        <dc:type
           rdf:resource="http://purl.org/dc/dcmitype/StillImage" />
        <dc:title></dc:title>
      </cc:Work>
    </rdf:RDF>
  </metadata>
  <defs
     id="defs18">
    <linearGradient
       gradientUnits="userSpaceOnUse"
       gradientTransform="matrix(0.3,0,0,0.3,2,2.0064)"
       y2="199.98"
       y1="46.737"
       x2="17.187"
       x1="17.187"
       id="e">
      <stop
         id="stop829"
         offset="0"
         stop-color="#35C130" />
      <stop
         id="stop831"
         offset=".3483"
         stop-color="#34BD30" />
      <stop
         id="stop833"
         offset=".6809"
         stop-color="#31B231" />
      <stop
         id="stop835"
         offset="1"
         stop-color="#2C9F32" />
    </linearGradient>
    <linearGradient
       gradientUnits="userSpaceOnUse"
       gradientTransform="matrix(1.7191,0,0,1.7191,340.09,368.45)"
       y2="198.44"
       y1="2.2922"
       x2="95.97"
       x1="95.97"
       id="d">
      <stop
         id="stop838"
         offset="0"
         stop-color="#47B9FF" />
      <stop
         id="stop840"
         offset="1"
         stop-color="#3D8AFF" />
    </linearGradient>
    <linearGradient
       gradientUnits="userSpaceOnUse"
       gradientTransform="matrix(0.32519,0,0,0.32519,-0.48672,-0.54406)"
       y2="188.93"
       y1="56.681"
       x2="114.75"
       x1="114.75"
       id="c">
      <stop
         id="stop843"
         offset="0"
         stop-color="#ffce00" />
      <stop
         id="stop845"
         offset="1"
         stop-color="#e6bc00" />
    </linearGradient>
    <linearGradient
       gradientUnits="userSpaceOnUse"
       gradientTransform="matrix(2.1699,0,0,2.1699,295.01,323.37)"
       y2="206.5"
       y1="-4.6623"
       x2="103.67"
       x1="103.67"
       id="b">
      <stop
         id="stop848"
         offset="0"
         stop-color="#fff" />
      <stop
         id="stop850"
         offset="1"
         stop-color="#d7d7d7" />
    </linearGradient>
    <filter
       color-interpolation-filters="sRGB"
       height="1.072"
       width="1.072"
       y="-.036"
       x="-.036"
       id="g">
      <feGaussianBlur
         id="feGaussianBlur853"
         stdDeviation="6.5097789" />
    </filter>
    <linearGradient
       gradientUnits="userSpaceOnUse"
       gradientTransform="matrix(4.705,0,0,4.705,41,42)"
       y2="209.87"
       y1="-9.0071"
       x2="97.425"
       x1="97.425"
       id="a">
      <stop
         id="stop856"
         offset="0"
         stop-color="#F6503B" />
      <stop
         id="stop858"
         offset=".2174"
         stop-color="#F24735" />
      <stop
         id="stop860"
         offset=".5719"
         stop-color="#E62F25" />
      <stop
         id="stop862"
         offset="1"
         stop-color="#D4090D" />
    </linearGradient>
    <filter
       color-interpolation-filters="sRGB"
       height="1.072"
       width="1.072"
       y="-.036"
       x="-.036"
       id="f">
      <feGaussianBlur
         id="feGaussianBlur865"
         stdDeviation="14.115" />
    </filter>
  </defs>
  <sodipodi:namedview
     pagecolor="#ffffff"
     bordercolor="#666666"
     borderopacity="1"
     objecttolerance="10"
     gridtolerance="10"
     guidetolerance="10"
     inkscape:pageopacity="0"
     inkscape:pageshadow="2"
     inkscape:window-width="1920"
     inkscape:window-height="1000"
     id="namedview16"
     showgrid="false"
     inkscape:zoom="5.2149125"
     inkscape:cx="17.563186"
     inkscape:cy="19.979368"
     inkscape:window-x="0"
     inkscape:window-y="0"
     inkscape:window-maximized="1"
     inkscape:current-layer="svg14" />
  <circle
     style="color:#000000;opacity:0.25;stroke-width:15.68299961;filter:url(#f)"
     transform="matrix(0.01687003,0,0,0.01687003,-0.16252063,-0.65782446)"
     cx="511.5"
     cy="540.85999"
     r="470.5"
     id="circle870" />
  <g
     style="fill:#5e4aa6;stroke-width:0.26458001"
     transform="translate(18.914684,3.1618899)"
     id="g896">
    <circle
       cx="-330.35001"
       cy="-328.38"
       r="0"
       id="circle888" />
    <circle
       cx="-312.10999"
       cy="-326.25"
       r="0"
       id="circle890" />
    <circle
       cx="-306.01999"
       cy="-333.07001"
       r="0"
       id="circle892" />
    <circle
       cx="-308.84"
       cy="-326.01001"
       r="0"
       id="circle894" />
  </g>
  <g
     id="g947"
     transform="matrix(1.1110989,0,0,1.1110989,-0.94072746,-0.94054742)">
    <g
       id="g8"
       transform="matrix(1.0384,0,0,1.0383,-0.32502,-0.32385)"
       style="fill-rule:evenodd;stroke-width:0.92746001">
      <path
         id="path2"
         d="m 2.965,4.34 a 6.917,6.917 0 0 0 -1.378,4.148 6.846,6.846 0 0 0 6.88,6.858 L 10.874,10.414 6.403,9.5 Z"
         inkscape:connector-curvature="0"
         style="fill:#649af5" />
      <path
         id="path4"
         d="m 8.81,5.371 2.064,5.022 -2.407,4.953 a 6.864,6.864 0 0 0 6.879,-6.88 6.865,6.865 0 0 0 -0.737,-3.095 z"
         inkscape:connector-curvature="0"
         style="fill:#a2c2f8" />
      <path
         id="path6"
         d="M 8.465,1.587 A 6.852,6.852 0 0 0 2.963,4.341 L 6.402,9.499 10.873,10.393 8.809,5.37 h 5.799 A 6.858,6.858 0 0 0 8.465,1.586 Z"
         inkscape:connector-curvature="0"
         style="fill:#3b6bd4" />
    </g>
    <path
       id="path10"
       d="m 8.466,5.027 a 3.4325,3.4325 0 0 1 3.44,3.439 3.4325,3.4325 0 0 1 -3.44,3.44 3.4325,3.4325 0 0 1 -3.439,-3.44 3.4325,3.4325 0 0 1 3.439,-3.439 z"
       inkscape:connector-curvature="0"
       style="fill:#ffffff" />
    <path
       id="path12"
       d="M 8.4654,5.8207 A 2.6404,2.6399 0 0 1 11.1122,8.4659 2.6404,2.6399 0 0 1 8.4654,11.1122 2.6404,2.6399 0 0 1 5.8207,8.4659 2.6404,2.6399 0 0 1 8.4654,5.8207 Z"
       inkscape:connector-curvature="0"
       style="fill:#5599ff" />
  </g>
</svg>
