<?xml version="1.0" encoding="UTF-8" standalone="no"?>
<svg
   xmlns:dc="http://purl.org/dc/elements/1.1/"
   xmlns:cc="http://creativecommons.org/ns#"
   xmlns:rdf="http://www.w3.org/1999/02/22-rdf-syntax-ns#"
   xmlns:svg="http://www.w3.org/2000/svg"
   xmlns="http://www.w3.org/2000/svg"
   xmlns:xlink="http://www.w3.org/1999/xlink"
   xmlns:sodipodi="http://sodipodi.sourceforge.net/DTD/sodipodi-0.dtd"
   xmlns:inkscape="http://www.inkscape.org/namespaces/inkscape"
   width="64"
   height="64"
   viewBox="0 0 16.933 16.933"
   version="1.1"
   id="svg37"
   sodipodi:docname="cinnamon-panel-launcher.svg"
   inkscape:version="0.92.5 (6c0c36ef5a, 2020-05-15, custom)">
  <metadata
     id="metadata41">
    <rdf:RDF>
      <cc:Work
         rdf:about="">
        <dc:format>image/svg+xml</dc:format>
        <dc:type
           rdf:resource="http://purl.org/dc/dcmitype/StillImage" />
        <dc:title></dc:title>
      </cc:Work>
    </rdf:RDF>
  </metadata>
  <sodipodi:namedview
     pagecolor="#ffffff"
     bordercolor="#666666"
     borderopacity="1"
     objecttolerance="10"
     gridtolerance="10"
     guidetolerance="10"
     inkscape:pageopacity="0"
     inkscape:pageshadow="2"
     inkscape:window-width="1920"
     inkscape:window-height="1000"
     id="namedview39"
     showgrid="false"
     inkscape:zoom="3.6875"
     inkscape:cx="-16.321434"
     inkscape:cy="34.905685"
     inkscape:window-x="0"
     inkscape:window-y="0"
     inkscape:window-maximized="1"
     inkscape:current-layer="svg37" />
  <defs
     id="defs9">
    <linearGradient
       id="a">
      <stop
         offset="0"
         stop-color="#66bcff"
         id="stop2" />
      <stop
         offset="1"
         stop-color="#b29aff"
         id="stop4" />
    </linearGradient>
    <linearGradient
       xlink:href="#a"
       id="c"
       x1="13.229"
       y1="297"
       x2="2.117"
       y2="280.067"
       gradientUnits="userSpaceOnUse"
       gradientTransform="matrix(1.07143,0,0,1,-27.4395,-280.067)" />
    <linearGradient
       xlink:href="#a"
       id="b"
       gradientUnits="userSpaceOnUse"
       x1="13.229"
       y1="297"
       x2="2.117"
       y2="280.067" />
    <filter
       color-interpolation-filters="sRGB"
       height="1.048"
       width="1.048"
       y="-.024"
       x="-.024"
       id="filter11290">
      <feGaussianBlur
         id="feGaussianBlur848"
         stdDeviation="0.15875313" />
    </filter>
    <linearGradient
       gradientUnits="userSpaceOnUse"
       y2="16.353"
       y1="1.2378"
       x2="16.367"
       x1="1.2518"
       id="linearGradient918">
      <stop
         id="stop851"
         offset="0"
         stop-color="#af64ff" />
      <stop
         id="stop853"
         offset="1"
         stop-color="#3287ff" />
    </linearGradient>
  </defs>
  <g
     id="g920"
     transform="translate(-0.02719985,0.00650014)">
    <circle
       id="circle860"
       r="7.9376998"
       cy="8.46"
       cx="8.4937"
       style="opacity:0.25;stroke-width:0.14032;filter:url(#filter11290)" />
    <path
       id="path862"
       d="m 16.439,8.46 c 0,0.95154 -0.16749,1.8639 -0.47464,2.7094 -0.21351,0.58768 -0.49439,1.1433 -0.83393,1.6572 -0.14222,0.21608 -0.29514,0.42475 -0.45746,0.62529 -0.51966,0.64179 -1.1372,1.2007 -1.8305,1.6543 -0.2553,0.16718 -0.52065,0.3201 -0.79536,0.45712 -1.0668,0.53389 -2.2711,0.83421 -3.5456,0.83421 -1.2745,0 -2.4788,-0.30032 -3.5456,-0.83424 -0.27474,-0.13705 -0.5404,-0.28997 -0.7957,-0.45712 -0.70207,-0.45973 -1.327,-1.0274 -1.8509,-1.6798 -0.16263,-0.20216 -0.31524,-0.41275 -0.45746,-0.63078 -0.33046,-0.5054 -0.60421,-1.0507 -0.8135,-1.627 -0.30711,-0.84529 -0.4743,-1.7573 -0.4743,-2.7085 0,-4.3838 3.5537,-7.9375 7.9375,-7.9375 2.2005,0 4.1917,0.89548 5.6295,2.3417 0.41436,0.41662 0.78274,0.87929 1.0963,1.3795 0.29645,0.47107 0.54428,0.97582 0.73704,1.5068 0.30718,0.84559 0.47467,1.7579 0.47467,2.7094 z"
       inkscape:connector-curvature="0"
       style="fill:url(#linearGradient918);stroke-width:0.031006" />
    <circle
       id="circle864"
       r="0"
       cy="-328.38"
       cx="-330.35001"
       style="fill:#5e4aa6;stroke-width:0.26458001" />
    <g
       id="g880"
       transform="translate(-16.733,-2.3095)">
      <path
         id="path866"
         d="m 19.52,6.1865 c 1.3432,-1.6729 3.4054,-2.7438 5.7177,-2.7438 2.0317,0 3.8702,0.82679 5.1977,2.1621 0.18112,0.18211 0.35273,0.37376 0.51396,0.5741"
         inkscape:connector-curvature="0"
         style="opacity:0.2;fill:none;stroke:#000000;stroke-width:1.22140002" />
      <g
         id="g878"
         transform="translate(16.759,2.3076)"
         style="fill:#ffffff;stroke-width:0.61303997">
        <rect
           id="rect868"
           style="opacity:0.35;paint-order:stroke markers fill"
           ry="0.16632999"
           height="0.33204001"
           width="1.5843"
           y="1.1056"
           x="7.6304998" />
        <rect
           id="rect870"
           style="opacity:0.35;paint-order:stroke markers fill"
           ry="0.16632999"
           height="0.33204001"
           width="0.31674001"
           y="-4.3899002"
           x="11.799"
           transform="rotate(30)" />
        <rect
           id="rect872"
           style="opacity:0.35;paint-order:stroke markers fill"
           ry="0.16632999"
           height="0.33204001"
           width="0.47542"
           y="-4.3899002"
           x="11.165"
           transform="rotate(30)" />
        <rect
           id="rect874"
           style="opacity:0.35;paint-order:stroke markers fill"
           ry="0.16632999"
           height="0.33204001"
           width="0.31674001"
           y="-4.3899002"
           x="10.69"
           transform="rotate(30)" />
        <rect
           id="rect876"
           style="opacity:0.35;paint-order:stroke markers fill"
           ry="0.16632999"
           height="0.33204001"
           width="0.63349003"
           y="4.0352001"
           x="2.5922999"
           transform="rotate(-30)" />
      </g>
    </g>
    <path
       id="path882"
       d="m 2.7871,13.043 c 1.3432,1.6729 3.4054,2.7438 5.7177,2.7438 2.0317,0 3.8702,-0.8268 5.1977,-2.1621 0.18112,-0.18211 0.35273,-0.37376 0.51396,-0.5741"
       inkscape:connector-curvature="0"
       style="opacity:0.3;fill:none;stroke:#ffffff;stroke-width:1.22140002" />
    <g
       id="g892"
       transform="translate(-1.26e-4,-0.0018919)"
       style="fill:#ccdfff;stroke-width:0.082447">
      <path
         id="path884"
         d="m 5.5922,13.732 c 0.31452,0.18159 0.33173,0.25558 0.13735,0.59225 L 5.57389,14.59387 C 5.37951,14.93055 5.30683,14.95263 4.99231,14.77104 L 4.6722,14.58622 C 4.35768,14.40463 4.34046,14.33064 4.53484,13.99396 L 4.6905,13.72434 c 0.19438,-0.33668 0.26706,-0.35876 0.58159,-0.17717 z"
         inkscape:connector-curvature="0"
         style="enable-background:new" />
      <path
         id="path886"
         d="m 7.712,14.305 c 0.3508,0.094 0.38658,0.16101 0.28596,0.53652 l -0.080578,0.30072 c -0.10062,0.37551 -0.16511,0.41566 -0.51591,0.32166 l -0.35704,-0.09567 c -0.3508,-0.094 -0.38659,-0.16101 -0.28597,-0.53653 L 6.83904,14.53098 c 0.10062,-0.37551 0.16511,-0.41566 0.51592,-0.32166 z"
         inkscape:connector-curvature="0"
         style="enable-background:new" />
      <path
         id="path888"
         d="m 9.6484,14.209 c 0.3508,-0.094 0.41529,-0.05385 0.51591,0.32166 l 0.08058,0.30072 c 0.10062,0.37551 0.06484,0.44253 -0.28596,0.53652 l -0.35704,0.09567 c -0.3508,0.094 -0.4153,0.05385 -0.51592,-0.32166 L 9.00539,14.84119 C 8.90477,14.46568 8.940546,14.39866 9.29136,14.30466 Z"
         inkscape:connector-curvature="0"
         style="enable-background:new" />
      <path
         id="path890"
         d="m 11.731,13.547 c 0.31452,-0.18159 0.3872,-0.1595 0.58158,0.17717 l 0.15566,0.26962 c 0.19438,0.33668 0.17717,0.41066 -0.13736,0.59225 l -0.32011,0.18482 c -0.31452,0.18159 -0.38721,0.15951 -0.58159,-0.17717 l -0.15566,-0.26962 c -0.19438,-0.33668 -0.17717,-0.41066 0.13736,-0.59226 z"
         inkscape:connector-curvature="0"
         style="enable-background:new" />
    </g>
  </g>
  <g
     style="stroke-width:2"
     id="g33"
     transform="translate(0,-280.61277)">
    <path
       inkscape:connector-curvature="0"
       id="path25"
       overflow="visible"
       style="color:#000000;overflow:visible;fill:#525292;marker:none"
       d="m 9.393,290.12 c 0,0 1.176,1.044 1.19,2.647 a 0.53,0.53 0 1 1 -1.058,0 c 0.199,-1.858 -0.397,-1.852 -0.397,-1.852 z" />
    <path
       inkscape:connector-curvature="0"
       id="path27"
       overflow="visible"
       d="m 7.54,290.12 c 0,0 -1.176,1.044 -1.19,2.647 a 0.53,0.53 0 1 0 1.058,0 c -0.198,-1.858 0.397,-1.852 0.397,-1.852 z"
       style="color:#000000;overflow:visible;fill:#5a5ecc;marker:none;fill-opacity:1" />
    <path
       style="fill:#5a5ecc;fill-opacity:1"
       inkscape:connector-curvature="0"
       id="path29"
       d="m 8.467,284.83 c 0,0 -0.573,0.787 -0.897,2.116 h 0.367 v 0.794 h 1.059 v -0.794 h 0.368 c -0.325,-1.329 -0.897,-2.117 -0.897,-2.117 z m 0.897,2.116 c 0.025,0.103 0.051,0.21 0.074,0.318 -0.022,-0.111 -0.049,-0.214 -0.074,-0.318 z m -0.368,0.794 v 0.793 H 9.579 A 7.681,7.681 0 0 0 9.521,287.74 Z m 0.583,0.793 z m 0,0.389 z m -0.02,0.405 H 8.996 v 0.794 H 7.937 v -0.794 H 7.375 c 0.02,0.257 0.05,0.521 0.1,0.794 l 0.33,1.852 h 1.323 l 0.33,-1.852 a 7.96,7.96 0 0 0 0.1,-0.794 z m -2.184,0 z m -0.02,-0.405 z m 0,-0.389 H 7.937 V 287.74 H 7.412 a 7.68,7.68 0 0 0 -0.057,0.793 z m 0.582,0 v 0.794 h 1.059 v -0.794 z M 7.57,286.946 c -0.026,0.104 -0.053,0.207 -0.075,0.318 0.023,-0.108 0.05,-0.215 0.075,-0.318 z" />
    <path
       inkscape:connector-curvature="0"
       id="path31"
       overflow="visible"
       style="color:#000000;overflow:visible;opacity:0.5;fill:#ffffff;marker:none"
       d="m 7.57,286.946 c -0.061,0.248 -0.12,0.509 -0.158,0.794 h 0.525 v -0.794 z m 0.367,0.794 v 0.793 h 1.059 v -0.793 z m 1.059,0 H 9.521 A 7.35,7.35 0 0 0 9.364,286.946 H 8.996 Z m 0,0.793 v 0.794 h 0.562 c 0.021,-0.275 0.028,-0.539 0.02,-0.794 z m 0,0.794 H 7.937 v 0.794 h 1.059 z m -1.059,0 v -0.794 H 7.355 c -0.007,0.255 0,0.519 0.02,0.794 z" />
  </g>
</svg>
