<?xml version="1.0" encoding="UTF-8"?>
<svg width="64" height="64" version="1.1" xmlns="http://www.w3.org/2000/svg" xmlns:cc="http://creativecommons.org/ns#" xmlns:dc="http://purl.org/dc/elements/1.1/" xmlns:rdf="http://www.w3.org/1999/02/22-rdf-syntax-ns#" xmlns:xlink="http://www.w3.org/1999/xlink">
 <metadata>
  <rdf:RDF>
   <cc:Work rdf:about="">
    <dc:format>image/svg+xml</dc:format>
    <dc:type rdf:resource="http://purl.org/dc/dcmitype/StillImage"/>
    <dc:title/>
   </cc:Work>
  </rdf:RDF>
 </metadata>
 <defs>
  <linearGradient id="linearGradient1153-6" x1="22.053" x2="33.441" y1="10.438" y2="10.438" gradientTransform="rotate(-45,17.349,30.119)" gradientUnits="userSpaceOnUse">
   <stop stop-color="#faf1a5" offset="0"/>
   <stop stop-color="#faf7c8" offset="1"/>
  </linearGradient>
  <linearGradient id="linearGradient1161-7" x1="22.053" x2="33.441" y1="9.3051" y2="9.3051" gradientTransform="rotate(-45,17.349,30.119)" gradientUnits="userSpaceOnUse">
   <stop stop-color="#ffc85a" offset="0"/>
   <stop stop-color="#faf6c3" offset="1"/>
  </linearGradient>
  <filter id="filter1292-3" x="-.060001" y="-.060001" width="1.12" height="1.12" color-interpolation-filters="sRGB">
   <feGaussianBlur stdDeviation="0.22199647"/>
  </filter>
  <linearGradient id="linearGradient1182" x1="33.144" x2="33.144" y1="61.96" y2="1.5439" gradientUnits="userSpaceOnUse">
   <stop stop-color="#fafafa" offset="0"/>
   <stop stop-color="#e6e6e6" offset="1"/>
  </linearGradient>
 </defs>
 <g fill="#5e4aa6">
  <circle cx="-1325.3" cy="-1259.1" r="0"/>
  <circle cx="-1239.1" cy="-1274.8" r="0"/>
  <circle cx="-1325.3" cy="-1259.1" r="0"/>
  <circle cx="-1325.4" cy="-1259.5" r="0"/>
  <circle cx="-1239.2" cy="-1275.3" r="0"/>
  <circle cx="-1248.7" cy="-1241.6" r="0"/>
 </g>
 <circle cx="32" cy="32.51" r="30.001" opacity=".2" stroke-width=".53035"/>
 <circle cx="32" cy="31.49" r="30.001" fill="url(#linearGradient1182)" stroke-width=".53035"/>
 <circle cx="-149.15" cy="23.855" r="0" fill="#5e4aa6" fill-rule="evenodd"/>
 <path d="m13.027 29.738c6.7246 2.2823-2.8078 8.8905 6.9939 9.5175 5.76 0.36856 5.7153 8.3162 5.7153 8.3162" fill="none" stroke="#fece69" stroke-linecap="round" stroke-width="2.0096"/>
 <g transform="translate(8.7002 7.6471)">
  <g transform="matrix(3.5122 0 0 3.4704 -5.2353 -2.1017)" fill="#ffb432" filter="url(#filter1292-3)" opacity=".5">
   <path d="m6.3569 12.475 2.2584-0.60513 6.6213-6.6213-0.85084-0.85084z"/>
   <path d="m6.3582 12.477 0.60513-2.2584 6.6213-6.6213 0.85084 0.85084z"/>
  </g>
  <g transform="matrix(3.5122 0 0 3.5122 -5.4217 -3.4756)">
   <path d="m6.3569 12.475 2.2584-0.60513 6.6213-6.6213-0.85084-0.85084z" fill="url(#linearGradient1153-6)"/>
   <path d="m6.3582 12.477 0.60513-2.2584 6.6213-6.6213 0.85084 0.85084z" fill="url(#linearGradient1161-7)"/>
  </g>
 </g>
</svg>
