<?xml version="1.0" encoding="UTF-8"?>
<svg width="64" height="64" version="1.1" xmlns="http://www.w3.org/2000/svg" xmlns:cc="http://creativecommons.org/ns#" xmlns:dc="http://purl.org/dc/elements/1.1/" xmlns:rdf="http://www.w3.org/1999/02/22-rdf-syntax-ns#">
 <metadata>
  <rdf:RDF>
   <cc:Work rdf:about="">
    <dc:format>image/svg+xml</dc:format>
    <dc:type rdf:resource="http://purl.org/dc/dcmitype/StillImage"/>
    <dc:title/>
   </cc:Work>
  </rdf:RDF>
 </metadata>
 <defs>
  <linearGradient id="linearGradient11422" x1="-6.1472" x2="-6.1472" y1="-137.82" y2="-100.78" gradientTransform="matrix(2.0044 0 0 2.0044 43.499 271.61)" gradientUnits="userSpaceOnUse">
   <stop stop-color="#32b4ff" offset="0"/>
   <stop stop-color="#3287ff" offset="1"/>
  </linearGradient>
 </defs>
 <circle cx="-1248.7" cy="-1241.6" r="0" fill="#5e4aa6"/>
 <circle cx="-149.15" cy="23.855" r="0" fill="#5e4aa6" fill-rule="evenodd"/>
 <circle cx="32" cy="32.51" r="30.001" opacity=".2" stroke-width=".53035"/>
 <circle cx="32" cy="31.49" r="30.001" fill="url(#linearGradient11422)" stroke-width="3.7796" style="paint-order:normal"/>
 <circle cx="-1170.2" cy="-1313.1" r="0" fill="#5e4aa6"/>
 <g fill-rule="evenodd">
  <circle cx="-70.648" cy="-47.617" r="0" fill="#5e4aa6"/>
  <path d="m33.595 13c5.1696 4.4628 6.462 8.9863 6.462 16.095l2.1204-5.4929c2.2324 2.1948 3.7538 5.1029 4.2004 8.3603 0.16432 2.5048-0.24466 4.7223-0.89084 6.6609 2.637-1.679 5.9675-3.5976 7.3931-6.6609-0.95157-10.136-9.0989-18.187-19.285-18.962zm-3.6332 0.11961c-10.136 0.95158-18.187 9.0987-18.962 19.285 4.4628-5.1696 8.9861-6.4619 16.095-6.4619l-5.4926-2.1204c2.1948-2.2324 5.1029-3.7537 8.3603-4.2001 2.5048-0.16434 4.7223 0.24446 6.6609 0.89066-1.679-2.637-3.5976-5.9675-6.6609-7.3931zm-11.449 16.258c-2.637 1.679-5.9678 3.5976-7.3934 6.6609 0.95159 10.136 9.0989 18.187 19.285 18.962-5.1696-4.4628-6.462-8.9863-6.462-16.095l-2.1204 5.4927c-2.2324-2.1948-3.7537-5.1029-4.2001-8.3603-0.16433-2.5048 0.24465-4.7223 0.89084-6.6609zm34.487 6.2181c-4.4628 5.1696-8.9861 6.462-16.095 6.462l5.4926 2.1204c-2.1948 2.2324-5.1029 3.7538-8.3603 4.2004-2.5048 0.16432-4.7223-0.24466-6.6609-0.89086 1.679 2.637 3.5976 5.9675 6.6609 7.3931 10.136-0.95158 18.187-9.0989 18.962-19.285z" opacity=".15"/>
  <path d="m33.595 11c5.1696 4.4628 6.462 8.9863 6.462 16.095l2.1204-5.4929c2.2324 2.1948 3.7538 5.1029 4.2004 8.3603 0.16432 2.5048-0.24466 4.7223-0.89084 6.6609 2.637-1.679 5.9675-3.5976 7.3931-6.6609-0.95157-10.136-9.0989-18.187-19.285-18.962zm-3.6332 0.11961c-10.136 0.95158-18.187 9.0987-18.962 19.285 4.4628-5.1696 8.9861-6.4619 16.095-6.4619l-5.4926-2.1204c2.1948-2.2324 5.1029-3.7537 8.3603-4.2001 2.5048-0.16434 4.7223 0.24446 6.6609 0.89066-1.679-2.637-3.5976-5.9675-6.6609-7.3931zm-11.449 16.258c-2.637 1.679-5.9678 3.5976-7.3934 6.6609 0.95159 10.136 9.0989 18.187 19.285 18.962-5.1696-4.4628-6.462-8.9863-6.462-16.095l-2.1204 5.4927c-2.2324-2.1948-3.7537-5.1029-4.2001-8.3603-0.16433-2.5048 0.24465-4.7223 0.89084-6.6609zm34.487 6.2181c-4.4628 5.1696-8.9861 6.462-16.095 6.462l5.4926 2.1204c-2.1948 2.2324-5.1029 3.7538-8.3603 4.2004-2.5048 0.16432-4.7223-0.24466-6.6609-0.89086 1.679 2.637 3.5976 5.9675 6.6609 7.3931 10.136-0.95158 18.187-9.0989 18.962-19.285z" fill="#fff"/>
 </g>
</svg>
