<?xml version="1.0" encoding="UTF-8"?>
<svg width="64" height="64" version="1.1" viewBox="0 0 16.933 16.933" xmlns="http://www.w3.org/2000/svg" xmlns:cc="http://creativecommons.org/ns#" xmlns:dc="http://purl.org/dc/elements/1.1/" xmlns:rdf="http://www.w3.org/1999/02/22-rdf-syntax-ns#" xmlns:xlink="http://www.w3.org/1999/xlink">
 <metadata>
  <rdf:RDF>
   <cc:Work rdf:about="">
    <dc:format>image/svg+xml</dc:format>
    <dc:type rdf:resource="http://purl.org/dc/dcmitype/StillImage"/>
    <dc:title/>
   </cc:Work>
  </rdf:RDF>
 </metadata>
 <defs>
  <style type="text/css"/>
  <style type="text/css"/>
 </defs>
 <circle cx="-330.38" cy="-328.5" r="0" fill="#5e4aa6" stroke-width=".26458"/>
 <circle cx="8.4665" cy="8.6014" r="7.9376" opacity=".2" stroke-width=".14032"/>
 <circle cx="8.4665" cy="8.3316" r="7.9376" fill="#fafafa" stroke-width=".14032"/>
 <circle cx="-39.462" cy="6.3115" r="0" fill="#5e4aa6" fill-rule="evenodd" stroke-width=".26458"/>
 <g transform="matrix(.33072 0 0 .33072 .1985 .52922)" stroke-width=".8">
  <rect x="21" y="20" width="5" height="8" fill="#e9e9f8"/>
  <path d="m17 16v2h2v-2zm0 2h-2v2h2zm-2 2h-2v8h2zm0 8v2h2v-2zm2 2v2h2v-2zm0 2h-2v2h2zm-2 2h-2v2h2zm13-18v2h2v-2zm2 2v2h2v-2zm2 2v6h-9v2h12v-2h-1v-6zm3 8v4h2v-4zm0 4h-12v2h4v2h4v-2h4zm-12 0v-4h-2v4z" fill="#351135"/>
  <path d="m19 12v2h-2v2h2v2h9v-4h-2v-2z" fill="#684fc9"/>
  <rect x="20" y="14" width="6" height="2" fill="#e9e9f8"/>
  <path d="m17 18v2h2v-2zm0 2h-2v8h2v2h2v2h-2v2h5v2h5v-2h-4v-2h-2v-5h-2v-2h-2zm6 12h12v-2h-9v-2h-3v2zm-6 2h-2v2h2zm11-16v2h2v-2z" fill="#996000"/>
  <path d="m19 18v2h-2v5h2v2h2v-7h5v6h2v-8h-2zm-2 16v2h5v-2z" fill="#f8c123"/>
  <rect x="26" y="28" width="9" height="2" fill="#f88107"/>
  <rect x="24" y="21" width="2" height="4" fill="#684fc9"/>
  <rect x="28" y="20" width="4" height="6" fill="#e9e9f8"/>
  <rect x="28" y="21" width="2" height="4" fill="#684fc9"/>
 </g>
</svg>
