<?xml version="1.0" encoding="UTF-8"?>
<svg width="64" height="64" version="1.1" viewBox="0 0 16.933 16.933" xmlns="http://www.w3.org/2000/svg" xmlns:cc="http://creativecommons.org/ns#" xmlns:dc="http://purl.org/dc/elements/1.1/" xmlns:rdf="http://www.w3.org/1999/02/22-rdf-syntax-ns#">
 <metadata>
  <rdf:RDF>
   <cc:Work rdf:about="">
    <dc:format>image/svg+xml</dc:format>
    <dc:type rdf:resource="http://purl.org/dc/dcmitype/StillImage"/>
    <dc:title/>
   </cc:Work>
  </rdf:RDF>
 </metadata>
 <defs>
  <linearGradient id="a" x1="-6.1472" x2="-6.1472" y1="-137.82" y2="-100.78" gradientTransform="matrix(.49892 0 0 .49892 11.356 68.23)" gradientUnits="userSpaceOnUse">
   <stop stop-color="#32b4ff" offset="0"/>
   <stop stop-color="#3287ff" offset="1"/>
  </linearGradient>
  <clipPath id="bn">
   <path d="m641.57 1047.1h77.223v80.595h-77.223z"/>
  </clipPath>
  <clipPath id="bm">
   <path d="m796.19 1032.6h108v108h-108z"/>
  </clipPath>
  <clipPath id="bl">
   <path d="m797.19 1036.6h106v33.142h-106z"/>
  </clipPath>
  <clipPath id="bk">
   <path d="m799.19 1066.7v-21.138c0-4.419 3.582-8.005 8.003-8.005h85.993c4.419 0 8.003 3.583 8.003 8.005v21.138z"/>
  </clipPath>
  <clipPath id="bj">
   <path d="m590.19 1067.7h104v-31.14h-104z"/>
  </clipPath>
  <clipPath id="bi">
   <path d="m813.88 1115.7h14.8v14.8h-14.8z"/>
  </clipPath>
  <clipPath id="bh">
   <path d="m871.68 1115.7h14.8v14.8h-14.8z"/>
  </clipPath>
  <clipPath id="bg">
   <path d="m815.62 1089.4h69.177v37.75h-69.177z"/>
  </clipPath>
  <clipPath id="bf">
   <path d="m291.18 844.46h108v108.12h-108z"/>
  </clipPath>
  <clipPath id="be">
   <path d="m658.79 884.04h17.705v17.706h-17.705z"/>
  </clipPath>
  <clipPath id="bd">
   <path d="m678.86 884.04h17.705v17.706h-17.705z"/>
  </clipPath>
  <clipPath id="bc">
   <path d="m698.92 884.04h17.705v17.706h-17.705z"/>
  </clipPath>
  <clipPath id="bb">
   <path d="m796.19 844.58h108v108h-108zm3 55.999c0 28.167 22.826 51.001 51 51.001 28.165 0 50.999-22.828 50.999-51.001 0-28.166-22.826-51-50.999-51-28.167 0-51 22.828-51 51"/>
  </clipPath>
  <clipPath id="ba">
   <path d="m802.14 850.53h96.099v96.1h-96.099zm2.999 50.05c0 24.881 20.165 45.05 45.051 45.05 24.88 0 45.049-20.164 45.049-45.05 0-24.88-20.164-45.049-45.049-45.049-24.881 0-45.051 20.163-45.051 45.049"/>
  </clipPath>
  <clipPath id="az">
   <path d="m808.09 856.48h84.2v84.2h-84.2z"/>
  </clipPath>
  <clipPath id="ay">
   <path d="m836.28 848.58h66.9v45.65h-66.9z"/>
  </clipPath>
  <clipPath id="ax">
   <path d="m123.19 653.58h108v108h-108z"/>
  </clipPath>
  <clipPath id="aw">
   <path d="m626.19 654.58h108v108h-108z"/>
  </clipPath>
  <clipPath id="av">
   <path d="m629.59 657.98h101.2v101.2h-101.2z"/>
  </clipPath>
  <clipPath id="au">
   <path d="m626.19 467.58h108v108h-108z"/>
  </clipPath>
  <clipPath id="at">
   <path d="m122.19 275.58h108v108h-108z"/>
  </clipPath>
  <clipPath id="as">
   <path d="m210.34 363.74h16.929v16.929h-16.929z"/>
  </clipPath>
  <clipPath id="ar">
   <path d="m124.37 278.5h30.772v30.772h-30.772z"/>
  </clipPath>
  <clipPath id="aq">
   <path d="m493.74 324.58h36.9v36.9h-36.9z"/>
  </clipPath>
  <clipPath id="ap">
   <path d="m127.98 91.381h96.4v96.401h-96.4z"/>
  </clipPath>
  <clipPath id="ao">
   <path d="m461.18 141.58c0-28.166 22.834-51 51-51 28.167 0 51.001 22.834 51.001 51s-22.834 51-51.001 51c-28.166 0-51-22.834-51-51"/>
  </clipPath>
  <clipPath id="an">
   <path d="m242.19 195.58h108v-108h-108z"/>
  </clipPath>
  <clipPath id="am">
   <path d="m485.87 109.62h52.06v59.185h-52.06z"/>
  </clipPath>
  <clipPath id="al">
   <path d="m821.69 123.68h60.701v53.051h-60.701z"/>
  </clipPath>
  <clipPath id="ak">
   <path d="m816.59 104.98h71.75v36.049h-71.75z"/>
  </clipPath>
  <clipPath id="aj">
   <path d="m641.57 1047.1h77.223v80.595h-77.223z"/>
  </clipPath>
  <clipPath id="ai">
   <path d="m796.19 1032.6h108v108h-108z"/>
  </clipPath>
  <clipPath id="ah">
   <path d="m797.19 1036.6h106v33.142h-106z"/>
  </clipPath>
  <clipPath id="ag">
   <path d="m799.19 1066.7v-21.138c0-4.419 3.582-8.005 8.003-8.005h85.993c4.419 0 8.003 3.583 8.003 8.005v21.138z"/>
  </clipPath>
  <clipPath id="af">
   <path d="m590.19 1067.7h104v-31.14h-104z"/>
  </clipPath>
  <clipPath id="ae">
   <path d="m813.88 1115.7h14.8v14.8h-14.8z"/>
  </clipPath>
  <clipPath id="ad">
   <path d="m871.68 1115.7h14.8v14.8h-14.8z"/>
  </clipPath>
  <clipPath id="ac">
   <path d="m815.62 1089.4h69.177v37.75h-69.177z"/>
  </clipPath>
  <clipPath id="ab">
   <path d="m291.18 844.46h108v108.12h-108z"/>
  </clipPath>
  <clipPath id="aa">
   <path d="m658.79 884.04h17.705v17.706h-17.705z"/>
  </clipPath>
  <clipPath id="z">
   <path d="m678.86 884.04h17.705v17.706h-17.705z"/>
  </clipPath>
  <clipPath id="y">
   <path d="m698.92 884.04h17.705v17.706h-17.705z"/>
  </clipPath>
  <clipPath id="x">
   <path d="m796.19 844.58h108v108h-108zm3 55.999c0 28.167 22.826 51.001 51 51.001 28.165 0 50.999-22.828 50.999-51.001 0-28.166-22.826-51-50.999-51-28.167 0-51 22.828-51 51"/>
  </clipPath>
  <clipPath id="w">
   <path d="m802.14 850.53h96.099v96.1h-96.099zm2.999 50.05c0 24.881 20.165 45.05 45.051 45.05 24.88 0 45.049-20.164 45.049-45.05 0-24.88-20.164-45.049-45.049-45.049-24.881 0-45.051 20.163-45.051 45.049"/>
  </clipPath>
  <clipPath id="v">
   <path d="m808.09 856.48h84.2v84.2h-84.2z"/>
  </clipPath>
  <clipPath id="u">
   <path d="m836.28 848.58h66.9v45.65h-66.9z"/>
  </clipPath>
  <clipPath id="t">
   <path d="m123.19 653.58h108v108h-108z"/>
  </clipPath>
  <clipPath id="s">
   <path d="m626.19 654.58h108v108h-108z"/>
  </clipPath>
  <clipPath id="r">
   <path d="m629.59 657.98h101.2v101.2h-101.2z"/>
  </clipPath>
  <clipPath id="q">
   <path d="m626.19 467.58h108v108h-108z"/>
  </clipPath>
  <clipPath id="p">
   <path d="m122.19 275.58h108v108h-108z"/>
  </clipPath>
  <clipPath id="o">
   <path d="m210.34 363.74h16.929v16.929h-16.929z"/>
  </clipPath>
  <clipPath id="n">
   <path d="m124.37 278.5h30.772v30.772h-30.772z"/>
  </clipPath>
  <clipPath id="m">
   <path d="m493.74 324.58h36.9v36.9h-36.9z"/>
  </clipPath>
  <clipPath id="l">
   <path d="m127.98 91.381h96.4v96.401h-96.4z"/>
  </clipPath>
  <clipPath id="k">
   <path d="m461.18 141.58c0-28.166 22.834-51 51-51 28.167 0 51.001 22.834 51.001 51s-22.834 51-51.001 51c-28.166 0-51-22.834-51-51"/>
  </clipPath>
  <clipPath id="j">
   <path d="m242.19 195.58h108v-108h-108z"/>
  </clipPath>
  <clipPath id="i">
   <path d="m485.87 109.62h52.06v59.185h-52.06z"/>
  </clipPath>
  <clipPath id="h">
   <path d="m821.69 123.68h60.701v53.051h-60.701z"/>
  </clipPath>
  <clipPath id="g">
   <path d="m816.59 104.98h71.75v36.049h-71.75z"/>
  </clipPath>
 </defs>
 <circle cx="-330.35" cy="-328.38" r="0" fill="#5e4aa6" stroke-width=".26458"/>
 <circle cx="-39.434" cy="6.44" r="0" fill="#5e4aa6" fill-rule="evenodd" stroke-width=".26458"/>
 <circle cx="8.4935" cy="8.73" r="7.9375" opacity=".2" stroke-width=".14032"/>
 <circle cx="8.4938" cy="8.46" r="7.4674" fill="url(#a)" stroke="#fafafa" stroke-width=".94077" style="paint-order:normal"/>
 <circle cx="-301.03" cy="-334.03" r="0" fill="#5e4aa6" stroke-width=".26458"/>
 <g transform="matrix(.35278 0 0 -.35278 123.53 258.93)">
  <g clip-path="url(#bn)">
   <g transform="translate(506.13,1122.7)">
    <path d="m0 0h39.223c6.628 0 12-5.372 12-12v-42.595c0-6.627-5.372-12-12-12h-39.223c-6.628 0-12 5.373-12 12v42.595c0 6.628 5.372 12 12 12" fill="#fff" fill-rule="evenodd"/>
   </g>
  </g>
 </g>
 <g transform="matrix(.35278 0 0 -.35278 123.53 258.93)">
  <g clip-path="url(#bm)">
   <g transform="translate(583.19,1131.6)">
    <path d="m0 0c0 4.421 3.585 8.004 8.004 8.004h85.992c4.421 0 8.004-3.585 8.004-8.004v-85.992c0-4.421-3.585-8.004-8.004-8.004h-85.992c-4.421 0-8.004 3.585-8.004 8.004z" fill="#fff" fill-rule="evenodd"/>
   </g>
  </g>
 </g>
 <g transform="matrix(.35278 0 0 -.35278 123.53 258.93)">
  <g clip-path="url(#bl)">
   <g transform="translate(689.19,1066.7)">
    <path d="m0 0v-21.139c0-4.421-3.585-8.004-8.004-8.004h-85.992c-4.421 0-8.004 3.585-8.004 8.004v21.139z" fill="#fff" fill-rule="evenodd"/>
   </g>
  </g>
 </g>
 <g transform="matrix(.35278 0 0 -.35278 123.53 258.93)">
  <g clip-path="url(#bk)">
   <g clip-path="url(#bj)">
    <path d="m590.19 1067.7h104v-31.143h-104zm103-1v-21.14c0-4.42-3.585-8.003-8.004-8.003h-85.993c-4.42 0-8.003 3.585-8.003 8.003v21.14z" fill="#fff" fill-rule="evenodd"/>
   </g>
  </g>
 </g>
 <g transform="matrix(.35278 0 0 -.35278 123.53 258.93)">
  <g clip-path="url(#bi)">
   <g transform="translate(791.69,1121.7)">
    <path d="m0 0c-1.878 0-3.4 1.522-3.4 3.4s1.522 3.4 3.4 3.4 3.4-1.522 3.4-3.4-1.522-3.4-3.4-3.4m0 1.7c0.938 0 1.7 0.761 1.7 1.7s-0.762 1.7-1.7 1.7-1.7-0.761-1.7-1.7 0.762-1.7 1.7-1.7" fill="#fff" fill-rule="evenodd"/>
   </g>
  </g>
 </g>
 <g transform="matrix(.35278 0 0 -.35278 123.53 258.93)">
  <g clip-path="url(#bh)">
   <g transform="translate(849.49,1121.7)">
    <path d="m0 0c-1.878 0-3.399 1.522-3.399 3.4s1.521 3.4 3.399 3.4 3.4-1.522 3.4-3.4-1.522-3.4-3.4-3.4m0 1.7c0.939 0 1.7 0.761 1.7 1.7s-0.761 1.7-1.7 1.7c-0.938 0-1.7-0.761-1.7-1.7s0.762-1.7 1.7-1.7" fill="#fff" fill-rule="evenodd"/>
   </g>
  </g>
 </g>
 <g transform="matrix(.35278 0 0 -.35278 123.53 258.93)">
  <g clip-path="url(#bg)">
   <g transform="translate(681.27,1125.1)">
    <path d="m0 0h3.401c0.45-14.629 12.45-26.35 27.188-26.35 14.737 0 26.737 11.721 27.186 26.35h3.402c-0.45-16.507-13.973-29.75-30.588-29.75-16.616 0-30.139 13.243-30.589 29.75" fill="#fff" fill-rule="evenodd"/>
   </g>
  </g>
 </g>
 <g transform="matrix(.35278 0 0 -.35278 123.53 258.93)">
  <g clip-path="url(#bf)">
   <g transform="translate(78.186,943.59)">
    <path d="m0 0c0 4.414 3.585 7.992 8.004 7.992h85.992c4.421 0 8.004-3.575 8.004-7.992v-86.137c0-4.414-3.585-7.992-8.004-7.992h-85.992c-4.421 0-8.004 3.574-8.004 7.992z" fill="#fff" fill-rule="evenodd"/>
   </g>
  </g>
 </g>
 <g transform="matrix(.35278 0 0 -.35278 123.53 258.93)">
  <g clip-path="url(#be)">
   <g transform="translate(632.23,888.04)">
    <path d="m0 0c3.232 0 5.853 2.62 5.853 5.853 0 3.232-2.621 5.852-5.853 5.852-3.231 0-5.853-2.62-5.853-5.852 0-3.233 2.622-5.853 5.853-5.853" fill="#fff" fill-rule="evenodd"/>
   </g>
  </g>
 </g>
 <g transform="matrix(.35278 0 0 -.35278 123.53 258.93)">
  <g clip-path="url(#bd)">
   <g transform="translate(652.3,888.04)">
    <path d="m0 0c3.231 0 5.852 2.62 5.852 5.853 0 3.232-2.621 5.852-5.852 5.852-3.232 0-5.853-2.62-5.853-5.852 0-3.233 2.621-5.853 5.853-5.853" fill="#fff" fill-rule="evenodd"/>
   </g>
  </g>
 </g>
 <g transform="matrix(.35278 0 0 -.35278 123.53 258.93)">
  <g clip-path="url(#bc)">
   <g transform="translate(672.37,888.04)">
    <path d="m0 0c3.231 0 5.853 2.62 5.853 5.853 0 3.232-2.622 5.852-5.853 5.852-3.232 0-5.853-2.62-5.853-5.852 0-3.233 2.621-5.853 5.853-5.853" fill="#fff" fill-rule="evenodd"/>
   </g>
  </g>
 </g>
 <g transform="matrix(.35278 0 0 -.35278 123.53 258.93)">
  <g clip-path="url(#bb)">
   <g transform="translate(583.19,900.58)">
    <path d="m0 0c0 28.167 22.827 51 51 51 28.166 0 51-22.827 51-51 0-28.167-22.827-51-51-51-28.166 0-51 22.827-51 51" fill="#fff" fill-rule="evenodd"/>
   </g>
  </g>
 </g>
 <g transform="matrix(.35278 0 0 -.35278 123.53 258.93)">
  <g clip-path="url(#ba)">
   <g transform="translate(612.94,900.58)">
    <path d="m0 0c0 24.88 20.164 45.05 45.05 45.05 24.881 0 45.05-20.164 45.05-45.05 0-24.88-20.164-45.05-45.05-45.05-24.88 0-45.05 20.164-45.05 45.05" fill="#fff" fill-rule="evenodd"/>
   </g>
  </g>
 </g>
 <g transform="matrix(.35278 0 0 -.35278 123.53 258.93)">
  <g clip-path="url(#az)">
   <g transform="translate(642.69,900.58)">
    <path d="m0 0c0 21.594 17.501 39.1 39.1 39.1 21.594 0 39.1-17.501 39.1-39.1 0-21.594-17.501-39.1-39.1-39.1-21.594 0-39.1 17.501-39.1 39.1" fill="#fff" fill-rule="evenodd"/>
   </g>
  </g>
 </g>
 <g transform="matrix(.35278 0 0 -.35278 123.53 258.93)">
  <g clip-path="url(#ay)">
   <g transform="translate(719.17,880.17)">
    <path d="m0 0c3.16 6.546 9.861 11.062 17.616 11.062 8.78 0 16.209-5.788 18.678-13.756 6.748-1.015 11.923-6.838 11.923-13.869 0-7.604-6.051-13.794-13.601-14.019v-6e-3h-35.699v0.093c-7.65 0.846-13.601 7.332-13.601 15.207 0 8.244 6.52 14.965 14.684 15.288" fill="#fff" fill-rule="evenodd"/>
   </g>
  </g>
 </g>
 <g transform="matrix(.35278 0 0 -.35278 123.53 258.93)">
  <g clip-path="url(#ax)">
   <g transform="translate(12.186,693.43)">
    <path d="m0 0v-26.846c0-4.421-3.585-8.004-8.004-8.004h-85.992c-4.421 0-8.004 3.585-8.004 8.004v26.846h5.1v11.9h-5.1v47.246c0 4.42 3.585 8.004 8.004 8.004h85.992c4.421 0 8.004-3.586 8.004-8.004v-47.246h-5.1v-11.9z" fill="#fff" fill-rule="evenodd"/>
   </g>
  </g>
 </g>
 <g transform="matrix(.35278 0 0 -.35278 123.53 258.93)">
  <g clip-path="url(#aw)">
   <g transform="translate(464.19,659.58)">
    <path d="m0 0c28.166 0 51 22.833 51 51 0 28.166-22.834 51-51 51s-51-22.834-51-51c0-28.167 22.834-51 51-51" fill="#fff" fill-rule="evenodd"/>
   </g>
  </g>
 </g>
 <g transform="matrix(.35278 0 0 -.35278 123.53 258.93)">
  <g clip-path="url(#av)">
   <g transform="translate(477.79,662.98)">
    <path d="m0 0c26.289 0 47.601 21.311 47.601 47.6s-21.312 47.6-47.601 47.6c-26.288 0-47.6-21.311-47.6-47.6s21.312-47.6 47.6-47.6" fill="#fff" fill-rule="evenodd"/>
   </g>
  </g>
 </g>
 <g transform="matrix(.35278 0 0 -.35278 123.53 258.93)">
  <g clip-path="url(#au)">
   <g transform="translate(451.38,563.66)">
    <path d="m0 0c1.018 0.434 2.133 1.633 2.489 2.668l2.192 6.371c0.357 1.039 1.538 1.883 2.648 1.883h10.947c1.106 0 2.295-0.854 2.65-1.885l2.149-6.25c0.359-1.041 1.474-2.228 2.488-2.652l6.613-2.764c1.016-0.426 2.639-0.379 3.639 0.108l5.966 2.912c0.993 0.486 2.429 0.25 3.213-0.536l7.742-7.742c0.782-0.781 1.025-2.213 0.536-3.213l-3.001-6.15c-0.485-0.992-0.539-2.633-0.124-3.654l2.553-6.283c0.416-1.026 1.601-2.149 2.653-2.51l6.551-2.254c1.049-0.362 1.899-1.543 1.899-2.653v-10.949c0-1.103-0.855-2.295-1.892-2.65l-6.662-2.293c-1.045-0.359-2.237-1.484-2.653-2.49l-2.528-6.106c-0.42-1.015-0.365-2.652 0.116-3.637l3.089-6.33c0.485-0.992 0.248-2.425-0.537-3.211l-7.742-7.742c-0.781-0.781-2.222-1.019-3.213-0.537l-6.272 3.063c-0.994 0.484-2.623 0.537-3.655 0.109l-6.151-2.553c-1.024-0.424-2.147-1.617-2.506-2.66l-2.269-6.598c-0.36-1.042-1.541-1.89-2.652-1.89h-10.947c-1.105 0-2.29 0.842-2.65 1.889l-2.313 6.72c-0.358 1.043-1.469 2.237-2.491 2.67l-5.926 2.514c-1.017 0.43-2.649 0.385-3.644-0.1l-6.477-3.162c-0.996-0.484-2.432-0.25-3.217 0.535l-7.742 7.742c-0.781 0.782-1.019 2.223-0.539 3.207l3.274 6.709c0.484 0.991 0.539 2.616 0.116 3.645l-2.281 5.563c-0.419 1.023-1.613 2.146-2.655 2.503l-7.087 2.438c-1.046 0.361-1.894 1.543-1.894 2.652v10.949c0 1.104 0.845 2.291 1.889 2.651l6.999 2.406c1.043 0.36 2.221 1.475 2.634 2.5l2.325 5.776c0.412 1.021 0.349 2.662-0.132 3.648l-3.186 6.523c-0.484 0.995-0.247 2.428 0.537 3.213l7.742 7.742c0.782 0.782 2.214 1.024 3.207 0.54l6.192-3.022c0.99-0.484 2.614-0.525 3.634-0.09z" fill="#fff" fill-rule="evenodd"/>
   </g>
  </g>
 </g>
 <g transform="matrix(.35278 0 0 -.35278 123.53 258.93)">
  <g clip-path="url(#at)">
   <g transform="translate(-39.814,280.58)">
    <path d="m0 0c28.167 0 51 22.834 51 51s-22.833 51-51 51-51-22.834-51-51 22.833-51 51-51" fill="#fff" fill-rule="evenodd"/>
   </g>
  </g>
 </g>
 <g transform="matrix(.35278 0 0 -.35278 123.53 258.93)">
  <g clip-path="url(#as)">
   <g transform="translate(184.95,368.74)">
    <path d="m0 0c3.018 0 5.464 2.447 5.464 5.465 0 3.017-2.446 5.465-5.464 5.465-3.019 0-5.465-2.448-5.465-5.465 0-3.018 2.446-5.465 5.465-5.465" fill="#fff" fill-rule="evenodd"/>
   </g>
  </g>
 </g>
 <g transform="matrix(.35278 0 0 -.35278 123.53 258.93)">
  <g clip-path="url(#ar)">
   <g transform="translate(78.214,283.5)">
    <path d="m0 0c6.84 0 12.385 5.545 12.385 12.385 0 6.842-5.545 12.386-12.385 12.386-6.841 0-12.386-5.544-12.386-12.386 0-6.84 5.545-12.385 12.386-12.385" fill="#fff" fill-rule="evenodd"/>
   </g>
  </g>
 </g>
 <g transform="matrix(.35278 0 0 -.35278 123.53 258.93)">
  <g clip-path="url(#aq)">
   <g transform="translate(438.39,330.58)">
    <path d="m0 0c7.98 0 14.45 6.469 14.45 14.449 0 7.981-6.47 14.451-14.45 14.451s-14.45-6.47-14.45-14.451c0-7.98 6.47-14.449 14.45-14.449" fill="#fff" fill-rule="evenodd"/>
   </g>
  </g>
 </g>
 <g transform="matrix(.35278 0 0 -.35278 123.53 258.93)">
  <g clip-path="url(#ap)">
   <g transform="translate(-16.614,97.381)">
    <path d="m0 0c24.411 0 44.2 19.789 44.2 44.201 0 24.41-19.789 44.199-44.2 44.199s-44.2-19.789-44.2-44.199c0-24.412 19.789-44.201 44.2-44.201" fill="#fff" fill-rule="evenodd"/>
   </g>
  </g>
 </g>
 <g transform="matrix(.35278 0 0 -.35278 123.53 258.93)">
  <g clip-path="url(#ao)">
   <g clip-path="url(#an)">
    <path d="m242.19 195.58h108v-108h-108zm54-105c28.166 0 51 22.834 51 51s-22.834 51-51 51-51-22.834-51-51 22.834-51 51-51" fill="#fff" fill-rule="evenodd"/>
   </g>
  </g>
 </g>
 <g transform="matrix(.35278 0 0 -.35278 123.53 258.93)">
  <g clip-path="url(#am)">
   <g transform="translate(407.78,167.81)">
    <path d="m0 0 23.029-13.297v-26.592l-23.029-13.297-23.03 13.297v26.592z" fill="#fff" fill-rule="evenodd"/>
   </g>
  </g>
 </g>
 <g transform="matrix(.35278 0 0 -.35278 123.53 258.93)">
  <g clip-path="url(#al)">
   <g transform="translate(751.51,132.06)">
    <path d="m0 0h5.475v16.178c0 14.568-11.854 26.496-26.35 26.496-14.488 0-26.351-11.92-26.351-26.496v-18.555h5.484v18.01c0 13.008 7.929 21.517 20.875 21.517 12.937 0 20.875-8.509 20.875-21.517v-15.633z" fill="#fff"/>
   </g>
  </g>
 </g>
 <g transform="matrix(.35278 0 0 -.35278 123.53 258.93)">
  <g clip-path="url(#ak)">
   <g transform="translate(691.13,139.02)">
    <path d="m0 0c-6.089 0-14.043-4.908-14.043-10.916v-6.209c0-6 7.954-10.916 14.043-10.916h2.34c0.45 0 0.81 0.355 0.81 0.799v26.451c0 0.443-0.36 0.799-0.81 0.799zm0.72-26.564c-0.45 0-0.81 0.355-0.81 0.798v23.553c0 0.445 0.36 0.801 0.81 0.801s0.81-0.356 0.81-0.801v-23.553c0-0.443-0.36-0.798-0.81-0.798m34.944 26.564h-2.341c-0.45 0-0.81-0.355-0.81-0.799v-26.443c0-0.444 0.36-0.799 0.81-0.799h2.341c6.08 0 14.043 4.908 14.043 10.916v6.209c0 6.008-7.955 10.916-14.043 10.916m-0.859-26.564c-0.451 0-0.811 0.355-0.811 0.798v23.553c0 0.445 0.36 0.801 0.811 0.801 0.45 0 0.809-0.356 0.809-0.801v-23.553c0-0.443-0.359-0.798-0.809-0.798" fill="#fff"/>
   </g>
  </g>
 </g>
 <g transform="matrix(.35278 0 0 -.35278 124.57 247.29)">
  <g clip-path="url(#aj)">
   <g transform="translate(506.13,1122.7)">
    <path d="m0 0h39.223c6.628 0 12-5.372 12-12v-42.595c0-6.627-5.372-12-12-12h-39.223c-6.628 0-12 5.373-12 12v42.595c0 6.628 5.372 12 12 12" fill="#fff" fill-rule="evenodd"/>
   </g>
  </g>
 </g>
 <g transform="matrix(.35278 0 0 -.35278 124.57 247.29)">
  <g clip-path="url(#ai)">
   <g transform="translate(583.19,1131.6)">
    <path d="m0 0c0 4.421 3.585 8.004 8.004 8.004h85.992c4.421 0 8.004-3.585 8.004-8.004v-85.992c0-4.421-3.585-8.004-8.004-8.004h-85.992c-4.421 0-8.004 3.585-8.004 8.004z" fill="#fff" fill-rule="evenodd"/>
   </g>
  </g>
 </g>
 <g transform="matrix(.35278 0 0 -.35278 124.57 247.29)">
  <g clip-path="url(#ah)">
   <g transform="translate(689.19,1066.7)">
    <path d="m0 0v-21.139c0-4.421-3.585-8.004-8.004-8.004h-85.992c-4.421 0-8.004 3.585-8.004 8.004v21.139z" fill="#fff" fill-rule="evenodd"/>
   </g>
  </g>
 </g>
 <g transform="matrix(.35278 0 0 -.35278 124.57 247.29)">
  <g clip-path="url(#ag)">
   <g clip-path="url(#af)">
    <path d="m590.19 1067.7h104v-31.143h-104zm103-1v-21.14c0-4.42-3.585-8.003-8.004-8.003h-85.993c-4.42 0-8.003 3.585-8.003 8.003v21.14z" fill="#fff" fill-rule="evenodd"/>
   </g>
  </g>
 </g>
 <g transform="matrix(.35278 0 0 -.35278 124.57 247.29)">
  <g clip-path="url(#ae)">
   <g transform="translate(791.69,1121.7)">
    <path d="m0 0c-1.878 0-3.4 1.522-3.4 3.4s1.522 3.4 3.4 3.4 3.4-1.522 3.4-3.4-1.522-3.4-3.4-3.4m0 1.7c0.938 0 1.7 0.761 1.7 1.7s-0.762 1.7-1.7 1.7-1.7-0.761-1.7-1.7 0.762-1.7 1.7-1.7" fill="#fff" fill-rule="evenodd"/>
   </g>
  </g>
 </g>
 <g transform="matrix(.35278 0 0 -.35278 124.57 247.29)">
  <g clip-path="url(#ad)">
   <g transform="translate(849.49,1121.7)">
    <path d="m0 0c-1.878 0-3.399 1.522-3.399 3.4s1.521 3.4 3.399 3.4 3.4-1.522 3.4-3.4-1.522-3.4-3.4-3.4m0 1.7c0.939 0 1.7 0.761 1.7 1.7s-0.761 1.7-1.7 1.7c-0.938 0-1.7-0.761-1.7-1.7s0.762-1.7 1.7-1.7" fill="#fff" fill-rule="evenodd"/>
   </g>
  </g>
 </g>
 <g transform="matrix(.35278 0 0 -.35278 124.57 247.29)">
  <g clip-path="url(#ac)">
   <g transform="translate(681.27,1125.1)">
    <path d="m0 0h3.401c0.45-14.629 12.45-26.35 27.188-26.35 14.737 0 26.737 11.721 27.186 26.35h3.402c-0.45-16.507-13.973-29.75-30.588-29.75-16.616 0-30.139 13.243-30.589 29.75" fill="#fff" fill-rule="evenodd"/>
   </g>
  </g>
 </g>
 <g transform="matrix(.35278 0 0 -.35278 124.57 247.29)">
  <g clip-path="url(#ab)">
   <g transform="translate(78.186,943.59)">
    <path d="m0 0c0 4.414 3.585 7.992 8.004 7.992h85.992c4.421 0 8.004-3.575 8.004-7.992v-86.137c0-4.414-3.585-7.992-8.004-7.992h-85.992c-4.421 0-8.004 3.574-8.004 7.992z" fill="#fff" fill-rule="evenodd"/>
   </g>
  </g>
 </g>
 <g transform="matrix(.35278 0 0 -.35278 124.57 247.29)">
  <g clip-path="url(#aa)">
   <g transform="translate(632.23,888.04)">
    <path d="m0 0c3.232 0 5.853 2.62 5.853 5.853 0 3.232-2.621 5.852-5.853 5.852-3.231 0-5.853-2.62-5.853-5.852 0-3.233 2.622-5.853 5.853-5.853" fill="#fff" fill-rule="evenodd"/>
   </g>
  </g>
 </g>
 <g transform="matrix(.35278 0 0 -.35278 124.57 247.29)">
  <g clip-path="url(#z)">
   <g transform="translate(652.3,888.04)">
    <path d="m0 0c3.231 0 5.852 2.62 5.852 5.853 0 3.232-2.621 5.852-5.852 5.852-3.232 0-5.853-2.62-5.853-5.852 0-3.233 2.621-5.853 5.853-5.853" fill="#fff" fill-rule="evenodd"/>
   </g>
  </g>
 </g>
 <g transform="matrix(.35278 0 0 -.35278 124.57 247.29)">
  <g clip-path="url(#y)">
   <g transform="translate(672.37,888.04)">
    <path d="m0 0c3.231 0 5.853 2.62 5.853 5.853 0 3.232-2.622 5.852-5.853 5.852-3.232 0-5.853-2.62-5.853-5.852 0-3.233 2.621-5.853 5.853-5.853" fill="#fff" fill-rule="evenodd"/>
   </g>
  </g>
 </g>
 <g transform="matrix(.35278 0 0 -.35278 124.57 247.29)">
  <g clip-path="url(#x)">
   <g transform="translate(583.19,900.58)">
    <path d="m0 0c0 28.167 22.827 51 51 51 28.166 0 51-22.827 51-51 0-28.167-22.827-51-51-51-28.166 0-51 22.827-51 51" fill="#fff" fill-rule="evenodd"/>
   </g>
  </g>
 </g>
 <g transform="matrix(.35278 0 0 -.35278 124.57 247.29)">
  <g clip-path="url(#w)">
   <g transform="translate(612.94,900.58)">
    <path d="m0 0c0 24.88 20.164 45.05 45.05 45.05 24.881 0 45.05-20.164 45.05-45.05 0-24.88-20.164-45.05-45.05-45.05-24.88 0-45.05 20.164-45.05 45.05" fill="#fff" fill-rule="evenodd"/>
   </g>
  </g>
 </g>
 <g transform="matrix(.35278 0 0 -.35278 124.57 247.29)">
  <g clip-path="url(#v)">
   <g transform="translate(642.69,900.58)">
    <path d="m0 0c0 21.594 17.501 39.1 39.1 39.1 21.594 0 39.1-17.501 39.1-39.1 0-21.594-17.501-39.1-39.1-39.1-21.594 0-39.1 17.501-39.1 39.1" fill="#fff" fill-rule="evenodd"/>
   </g>
  </g>
 </g>
 <g transform="matrix(.35278 0 0 -.35278 124.57 247.29)">
  <g clip-path="url(#u)">
   <g transform="translate(719.17,880.17)">
    <path d="m0 0c3.16 6.546 9.861 11.062 17.616 11.062 8.78 0 16.209-5.788 18.678-13.756 6.748-1.015 11.923-6.838 11.923-13.869 0-7.604-6.051-13.794-13.601-14.019v-6e-3h-35.699v0.093c-7.65 0.846-13.601 7.332-13.601 15.207 0 8.244 6.52 14.965 14.684 15.288" fill="#fff" fill-rule="evenodd"/>
   </g>
  </g>
 </g>
 <g transform="matrix(.35278 0 0 -.35278 124.57 247.29)">
  <g clip-path="url(#t)">
   <g transform="translate(12.186,693.43)">
    <path d="m0 0v-26.846c0-4.421-3.585-8.004-8.004-8.004h-85.992c-4.421 0-8.004 3.585-8.004 8.004v26.846h5.1v11.9h-5.1v47.246c0 4.42 3.585 8.004 8.004 8.004h85.992c4.421 0 8.004-3.586 8.004-8.004v-47.246h-5.1v-11.9z" fill="#fff" fill-rule="evenodd"/>
   </g>
  </g>
 </g>
 <g transform="matrix(.35278 0 0 -.35278 124.57 247.29)">
  <g clip-path="url(#s)">
   <g transform="translate(464.19,659.58)">
    <path d="m0 0c28.166 0 51 22.833 51 51 0 28.166-22.834 51-51 51s-51-22.834-51-51c0-28.167 22.834-51 51-51" fill="#fff" fill-rule="evenodd"/>
   </g>
  </g>
 </g>
 <g transform="matrix(.35278 0 0 -.35278 124.57 247.29)">
  <g clip-path="url(#r)">
   <g transform="translate(477.79,662.98)">
    <path d="m0 0c26.289 0 47.601 21.311 47.601 47.6s-21.312 47.6-47.601 47.6c-26.288 0-47.6-21.311-47.6-47.6s21.312-47.6 47.6-47.6" fill="#fff" fill-rule="evenodd"/>
   </g>
  </g>
 </g>
 <g transform="matrix(.35278 0 0 -.35278 124.57 247.29)">
  <g clip-path="url(#q)">
   <g transform="translate(451.38,563.66)">
    <path d="m0 0c1.018 0.434 2.133 1.633 2.489 2.668l2.192 6.371c0.357 1.039 1.538 1.883 2.648 1.883h10.947c1.106 0 2.295-0.854 2.65-1.885l2.149-6.25c0.359-1.041 1.474-2.228 2.488-2.652l6.613-2.764c1.016-0.426 2.639-0.379 3.639 0.108l5.966 2.912c0.993 0.486 2.429 0.25 3.213-0.536l7.742-7.742c0.782-0.781 1.025-2.213 0.536-3.213l-3.001-6.15c-0.485-0.992-0.539-2.633-0.124-3.654l2.553-6.283c0.416-1.026 1.601-2.149 2.653-2.51l6.551-2.254c1.049-0.362 1.899-1.543 1.899-2.653v-10.949c0-1.103-0.855-2.295-1.892-2.65l-6.662-2.293c-1.045-0.359-2.237-1.484-2.653-2.49l-2.528-6.106c-0.42-1.015-0.365-2.652 0.116-3.637l3.089-6.33c0.485-0.992 0.248-2.425-0.537-3.211l-7.742-7.742c-0.781-0.781-2.222-1.019-3.213-0.537l-6.272 3.063c-0.994 0.484-2.623 0.537-3.655 0.109l-6.151-2.553c-1.024-0.424-2.147-1.617-2.506-2.66l-2.269-6.598c-0.36-1.042-1.541-1.89-2.652-1.89h-10.947c-1.105 0-2.29 0.842-2.65 1.889l-2.313 6.72c-0.358 1.043-1.469 2.237-2.491 2.67l-5.926 2.514c-1.017 0.43-2.649 0.385-3.644-0.1l-6.477-3.162c-0.996-0.484-2.432-0.25-3.217 0.535l-7.742 7.742c-0.781 0.782-1.019 2.223-0.539 3.207l3.274 6.709c0.484 0.991 0.539 2.616 0.116 3.645l-2.281 5.563c-0.419 1.023-1.613 2.146-2.655 2.503l-7.087 2.438c-1.046 0.361-1.894 1.543-1.894 2.652v10.949c0 1.104 0.845 2.291 1.889 2.651l6.999 2.406c1.043 0.36 2.221 1.475 2.634 2.5l2.325 5.776c0.412 1.021 0.349 2.662-0.132 3.648l-3.186 6.523c-0.484 0.995-0.247 2.428 0.537 3.213l7.742 7.742c0.782 0.782 2.214 1.024 3.207 0.54l6.192-3.022c0.99-0.484 2.614-0.525 3.634-0.09z" fill="#fff" fill-rule="evenodd"/>
   </g>
  </g>
 </g>
 <g transform="matrix(.35278 0 0 -.35278 124.57 247.29)">
  <g clip-path="url(#p)">
   <g transform="translate(-39.814,280.58)">
    <path d="m0 0c28.167 0 51 22.834 51 51s-22.833 51-51 51-51-22.834-51-51 22.833-51 51-51" fill="#fff" fill-rule="evenodd"/>
   </g>
  </g>
 </g>
 <g transform="matrix(.35278 0 0 -.35278 124.57 247.29)">
  <g clip-path="url(#o)">
   <g transform="translate(184.95,368.74)">
    <path d="m0 0c3.018 0 5.464 2.447 5.464 5.465 0 3.017-2.446 5.465-5.464 5.465-3.019 0-5.465-2.448-5.465-5.465 0-3.018 2.446-5.465 5.465-5.465" fill="#fff" fill-rule="evenodd"/>
   </g>
  </g>
 </g>
 <g transform="matrix(.35278 0 0 -.35278 124.57 247.29)">
  <g clip-path="url(#n)">
   <g transform="translate(78.214,283.5)">
    <path d="m0 0c6.84 0 12.385 5.545 12.385 12.385 0 6.842-5.545 12.386-12.385 12.386-6.841 0-12.386-5.544-12.386-12.386 0-6.84 5.545-12.385 12.386-12.385" fill="#fff" fill-rule="evenodd"/>
   </g>
  </g>
 </g>
 <g transform="matrix(.35278 0 0 -.35278 124.57 247.29)">
  <g clip-path="url(#m)">
   <g transform="translate(438.39,330.58)">
    <path d="m0 0c7.98 0 14.45 6.469 14.45 14.449 0 7.981-6.47 14.451-14.45 14.451s-14.45-6.47-14.45-14.451c0-7.98 6.47-14.449 14.45-14.449" fill="#fff" fill-rule="evenodd"/>
   </g>
  </g>
 </g>
 <g transform="matrix(.35278 0 0 -.35278 124.57 247.29)">
  <g clip-path="url(#l)">
   <g transform="translate(-16.614,97.381)">
    <path d="m0 0c24.411 0 44.2 19.789 44.2 44.201 0 24.41-19.789 44.199-44.2 44.199s-44.2-19.789-44.2-44.199c0-24.412 19.789-44.201 44.2-44.201" fill="#fff" fill-rule="evenodd"/>
   </g>
  </g>
 </g>
 <g transform="matrix(.35278 0 0 -.35278 124.57 247.29)">
  <g clip-path="url(#k)">
   <g clip-path="url(#j)">
    <path d="m242.19 195.58h108v-108h-108zm54-105c28.166 0 51 22.834 51 51s-22.834 51-51 51-51-22.834-51-51 22.834-51 51-51" fill="#fff" fill-rule="evenodd"/>
   </g>
  </g>
 </g>
 <g transform="matrix(.35278 0 0 -.35278 124.57 247.29)">
  <g clip-path="url(#i)">
   <g transform="translate(407.78,167.81)">
    <path d="m0 0 23.029-13.297v-26.592l-23.029-13.297-23.03 13.297v26.592z" fill="#fff" fill-rule="evenodd"/>
   </g>
  </g>
 </g>
 <g transform="matrix(.35278 0 0 -.35278 124.57 247.29)">
  <g clip-path="url(#h)">
   <g transform="translate(751.51,132.06)">
    <path d="m0 0h5.475v16.178c0 14.568-11.854 26.496-26.35 26.496-14.488 0-26.351-11.92-26.351-26.496v-18.555h5.484v18.01c0 13.008 7.929 21.517 20.875 21.517 12.937 0 20.875-8.509 20.875-21.517v-15.633z" fill="#fff"/>
   </g>
  </g>
 </g>
 <g transform="matrix(.35278 0 0 -.35278 124.57 247.29)">
  <g clip-path="url(#g)">
   <g transform="translate(691.13,139.02)">
    <path d="m0 0c-6.089 0-14.043-4.908-14.043-10.916v-6.209c0-6 7.954-10.916 14.043-10.916h2.34c0.45 0 0.81 0.355 0.81 0.799v26.451c0 0.443-0.36 0.799-0.81 0.799zm0.72-26.564c-0.45 0-0.81 0.355-0.81 0.798v23.553c0 0.445 0.36 0.801 0.81 0.801s0.81-0.356 0.81-0.801v-23.553c0-0.443-0.36-0.798-0.81-0.798m34.944 26.564h-2.341c-0.45 0-0.81-0.355-0.81-0.799v-26.443c0-0.444 0.36-0.799 0.81-0.799h2.341c6.08 0 14.043 4.908 14.043 10.916v6.209c0 6.008-7.955 10.916-14.043 10.916m-0.859-26.564c-0.451 0-0.811 0.355-0.811 0.798v23.553c0 0.445 0.36 0.801 0.811 0.801 0.45 0 0.809-0.356 0.809-0.801v-23.553c0-0.443-0.359-0.798-0.809-0.798" fill="#fff"/>
   </g>
  </g>
 </g>
 <path d="m5.6974 6.6145v1.852s1.323-0.918 1.323 0.661c0 1.586-1.323 0.662-1.323 0.662v1.852h1.852s-0.633-1.323 0.794-1.323c1.461 0 0.794 1.323 0.794 1.323h1.852v-1.852s1.058 0.662 1.058-0.662c0-1.058-0.529-0.926-1.058-0.661v-1.852h-1.852s0.794-1.323-0.794-1.323c-1.587 0-0.794 1.323-0.794 1.323" fill="#fff"/>
</svg>
