<?xml version="1.0" encoding="UTF-8"?>
<svg width="64" height="64" version="1.1" viewBox="0 0 16.933 16.933" xmlns="http://www.w3.org/2000/svg" xmlns:cc="http://creativecommons.org/ns#" xmlns:dc="http://purl.org/dc/elements/1.1/" xmlns:rdf="http://www.w3.org/1999/02/22-rdf-syntax-ns#">
 <metadata>
  <rdf:RDF>
   <cc:Work rdf:about="">
    <dc:format>image/svg+xml</dc:format>
    <dc:type rdf:resource="http://purl.org/dc/dcmitype/StillImage"/>
    <dc:title/>
   </cc:Work>
  </rdf:RDF>
 </metadata>
 <defs>
  <style type="text/css"/>
 </defs>
 <circle cx="-330.38" cy="-328.5" r="0" fill="#5e4aa6" stroke-width=".26458"/>
 <circle cx="8.4665" cy="8.6014" r="7.9376" opacity=".2" stroke-width=".14032"/>
 <circle cx="8.4665" cy="8.3316" r="7.9376" fill="#fafafa" stroke-width=".14032"/>
 <circle cx="-39.462" cy="6.3115" r="0" fill="#5e4aa6" fill-rule="evenodd" stroke-width=".26458"/>
 <circle cx="8.4665" cy="8.3316" r="6.6145" fill="#32afff" stroke-width=".11693"/>
 <path d="m8.4665 4.2333c-0.0542 0.14097-0.11531 0.28389-0.17762 0.42023-0.0053 0.011729-0.01303 0.021818-0.01834 0.03354-0.05749 0.12423-0.11455 0.24042-0.17762 0.361-0.01308 0.025073-0.02443 0.050702-0.03772 0.07545-0.05699 0.10652-0.11664 0.21541-0.1771 0.31906-0.021 0.036048-0.04414 0.073854-0.06549 0.10951-0.54071 0.8856-1.2516 1.8104-1.8129 2.5867-0.4447 0.58409-0.70042 1.2147-0.77544 1.8228 0 1.5103 1.4502 2.7381 3.2422 2.7381s3.2422-1.2278 3.2422-2.7381c0-0.95163-0.77623-1.9297-1.6724-3.1835-0.28368-0.38946-0.55769-0.79891-0.80374-1.1841-0.13355-0.21091-0.26417-0.42801-0.39244-0.65492-0.04007-0.070956-0.08226-0.14598-0.12156-0.2185-0.08493-0.15712-0.17169-0.32205-0.25202-0.48728zm0 1.1433c0 1.4609 0.36721 2.6602 0.76392 4.1408h0.93158l-0.84775 1.0165-0.84775 1.0228-0.84775-1.0228-0.84775-1.0165h0.97402c0.41221-1.5384 0.72148-2.6833 0.72148-4.1408z" fill="#fff"/>
</svg>
