<?xml version="1.0" encoding="UTF-8"?>
<svg width="64" height="64" version="1.1" viewBox="0 0 16.933 16.933" xmlns="http://www.w3.org/2000/svg" xmlns:cc="http://creativecommons.org/ns#" xmlns:dc="http://purl.org/dc/elements/1.1/" xmlns:rdf="http://www.w3.org/1999/02/22-rdf-syntax-ns#">
 <metadata>
  <rdf:RDF>
   <cc:Work rdf:about="">
    <dc:format>image/svg+xml</dc:format>
    <dc:type rdf:resource="http://purl.org/dc/dcmitype/StillImage"/>
    <dc:title/>
   </cc:Work>
  </rdf:RDF>
 </metadata>
 <defs>
  <linearGradient id="linearGradient11422" x1="-6.1472" x2="-6.1472" y1="-137.82" y2="-100.78" gradientTransform="matrix(.53032 0 0 .53032 11.51 71.862)" gradientUnits="userSpaceOnUse">
   <stop stop-color="#32b4ff" offset="0"/>
   <stop stop-color="#3287ff" offset="1"/>
  </linearGradient>
  <style type="text/css"/>
 </defs>
 <circle cx="-297.6" cy="-338.47" r="0" fill="#5e4aa6" stroke-width=".26458"/>
 <circle cx="8.4662" cy="8.6009" r="7.9376" opacity=".2" stroke-width=".14032"/>
 <circle cx="8.4668" cy="8.3321" r="7.9376" fill="url(#linearGradient11422)" style="paint-order:normal"/>
 <g transform="translate(32.763 -10.103)" fill="#5e4aa6" stroke-width=".26458">
  <circle cx="-299.02" cy="-338.77" r="0"/>
  <circle cx="-8.1062" cy="-3.9487" r="0" fill-rule="evenodd"/>
  <circle cx="-278.25" cy="-357.69" r="0"/>
  <circle cx="12.663" cy="-22.859" r="0" fill-rule="evenodd"/>
 </g>
 <path d="m2.5911 5.0456-0.0776 0.15197c0.39556 0.21987 1.5326 0.79111 2.0726 1.1295 0.68225 0.41819 1.6059 1.2718 1.6782 1.4141-0.71136 1.2362-0.38801 2.3302-0.47208 2.4466-0.060362 0.097-0.61866 0.71028-0.43867 0.80081 0.17784 0.08946 0.4613-0.05066 0.50442-0.07868 0.089463-0.05388 0.18107-0.13365 0.14227 0.02372-0.075452 0.32227-0.41711 1.0961 0.054965 0.93231 0.058203-0.03341 0.81914-0.87303 0.91075-0.90105 1.5132 0.39448 3.2054 0.21341 3.5191 0.06683 0.16275 0.01078 0.62513 0.30179 0.88812 0.44082 0.26299 0.13688 0.98081 0.4807 0.7674-0.14443-0.06467-0.19724-0.53675-0.70058-0.46022-0.73507 0.16814-0.06683 0.58525 0.17461 0.74585 0.21987 0.47962 0.13473 0.54429-0.05174 0.24143-0.46238-0.29963-0.40957-0.3449-0.34598-0.43867-0.53567-0.07437-0.15089 0-0.32011 0.0539-0.36107 0.097-0.074369 1.5305-0.86979 1.8657-1.1737 0.49795-0.45268 0-1.0164-0.12179-1.0961-1.0315-0.74369-2.091-0.58417-2.105-0.70166-0.0076-0.13473-0.0044-0.52274-0.02156-0.65747-0.10347-0.90967-0.5249-0.68118-0.58202-0.68118-0.42035 0.066824-0.26622 0.71136-0.0873 1.316 0.01293 0.1552-0.14766 0.086225-0.24143-0.076524-0.32334-0.86764-0.46022-0.85255-0.54968-0.87842-0.08622-0.019401-0.39017 0.16598-0.38478 0.51735 0.0022 0.099159 0.12071 0.57663 0.12071 0.72321-0.19832 0.17352-0.20802 0.56908-0.41712 0.71243-0.60681 0.1261-2.0651-0.29963-2.2472-0.31903-0.63052-0.11856-0.90536 0.35568-1.0078 0.24143-0.81806-0.9377-2.0683-1.634-2.6094-1.7547-0.21017-0.045268-0.9183-0.35783-1.1737-0.51519-0.040954-0.02479-0.087304-0.043112-0.13257-0.065747m11.252 0.82237c-0.19724 0.21232-0.16167 1.0056-0.1218 0.99912 0.20155-0.040957 0.18323-1.0627 0.12179-0.99913m0.57124 0.12071c-0.02156-0.064669-0.54214 0.66501-0.45053 0.93338 0.04203 0.1164 0.52166-0.72968 0.4516-0.93338m-2.6988 1.2395c0.0064-0.00647 0.01509 0.00324 0.02263 0.010778 0.06036 0.20047 0.12826 0.39125 0.5249 0.43975 0.04742 0.00539-0.21987 0.16167-0.40418 0.064669-0.16706-0.10024-0.18215-0.46885-0.14335-0.51412m1.0304 1.0067a0.26945 0.26945 0 0 1 0.08946 0c0.09701 0.024789-0.70489 0.44298-0.7674 0.38586-0.03881-0.036646 0.42789-0.33843 0.67902-0.38586m0.2091 0.26514c0.08407 0.00647-0.46454 0.57447-0.52597 0.51519-0.04527-0.040957 0.35568-0.52813 0.52597-0.51519" fill="#f9f9f9" stroke-width=".99944"/>
</svg>
