<?xml version="1.0" encoding="UTF-8"?>
<svg width="64" height="64" version="1.1" viewBox="0 0 16.933 16.933" xmlns="http://www.w3.org/2000/svg" xmlns:cc="http://creativecommons.org/ns#" xmlns:dc="http://purl.org/dc/elements/1.1/" xmlns:rdf="http://www.w3.org/1999/02/22-rdf-syntax-ns#">
 <metadata>
  <rdf:RDF>
   <cc:Work rdf:about="">
    <dc:format>image/svg+xml</dc:format>
    <dc:type rdf:resource="http://purl.org/dc/dcmitype/StillImage"/>
    <dc:title/>
   </cc:Work>
  </rdf:RDF>
 </metadata>
 <defs>
  <linearGradient id="b-3" x1="45.628" x2="45.628" y1="57.955" y2="12.461" gradientTransform="matrix(.27477 0 0 .27477 .45008 -.47786)" gradientUnits="userSpaceOnUse">
   <stop offset="0"/>
   <stop stop-opacity="0" offset="1"/>
  </linearGradient>
  <linearGradient id="linearGradient11422" x1="-6.1472" x2="-6.1472" y1="-137.82" y2="-100.78" gradientTransform="matrix(.53032 0 0 .53032 -4.7401 71.995)" gradientUnits="userSpaceOnUse">
   <stop stop-color="#32b4ff" offset="0"/>
   <stop stop-color="#3287ff" offset="1"/>
  </linearGradient>
  <style type="text/css"/>
 </defs>
 <circle cx="-313.85" cy="-338.34" r="0" fill="#5e4aa6" stroke-width=".26458"/>
 <g transform="translate(16.25 -.13303)">
  <circle cx="-7.7838" cy="8.7339" r="7.9376" opacity=".2" stroke-width=".14032"/>
  <circle cx="-7.7833" cy="8.4651" r="7.9376" fill="url(#linearGradient11422)" style="paint-order:normal"/>
 </g>
 <g transform="translate(16.513 -9.9696)" fill="#5e4aa6" stroke-width=".26458">
  <circle cx="-299.02" cy="-338.77" r="0"/>
  <circle cx="-8.1062" cy="-3.9487" r="0" fill-rule="evenodd"/>
  <circle cx="-278.25" cy="-357.69" r="0"/>
  <circle cx="12.663" cy="-22.859" r="0" fill-rule="evenodd"/>
 </g>
 <path d="m14.238 2.8608c0.37091 1.3101 0.2213 2.2633 0.22558 3.3856-0.0043 3.6822-1.8297 7.8335-4.8758 9.9024 3.4349-0.32261 6.7966-3.5623 6.7991-7.842-0.06437-2.5719-0.86433-3.9876-2.1489-5.446z" fill="url(#b-3)" opacity=".25" stroke-width=".96299" style="paint-order:stroke markers fill"/>
 <path d="m9.141 4.232-1.471 0.105v5.86l1.471-0.179v-2.558c0.638 0.963 1.15 1.859 2.005 2.79l1.524-0.438a19.904 19.904 0 0 1-1.981-2.685c0.578-0.853 1.303-1.71 2.011-2.476l-1.579-0.388a25.18 25.18 0 0 0-1.98 2.552m-3.352-1.38a0.12 0.12 0 0 0-0.065 0.034c-0.173 0.164-0.337 0.328-0.51 0.492-0.075 0.073 2e-3 0.16 0.035 0.22l0.35 0.484 0.262 0.353c0.037 0.05 0.048 0.056 0.029 0.092-0.024 0.037-0.043 0.067-0.065 0.105-0.34 0.572-0.102 0.616-0.83 0.801l-0.559 0.093c-0.082 0.027-0.19 0.025-0.196 0.14 0 0.23-7e-3 0.46-7e-3 0.69-4e-3 0.107 0.115 0.117 0.185 0.135l0.594 0.103 0.445 0.081c0.06 8e-3 0.074-6e-3 0.088 0.04 0.182 0.767 0.42 0.59 0.023 1.262l-0.32 0.445c-0.042 0.077-0.12 0.153-0.04 0.231 0.168 0.167 0.329 0.335 0.498 0.502 0.075 0.073 0.171-2e-3 0.232-0.035l0.492-0.342 0.368-0.247c0.05-0.042 0.057-0.052 0.095-0.03 0.737 0.451 0.763 0.126 0.978 0.884l0.106 0.543c0.028 0.08 0.03 0.185 0.143 0.19h0.717c0.107 0 0.117-0.123 0.13-0.19l0.1-0.578 0.072-0.427c5e-3 -0.041 3e-3 -0.062 0.011-0.076 0.864-0.178 0.65-0.428 1.352-0.029l0.456 0.312c0.084 0.041 0.164 0.113 0.244 0.036 0.169-0.16 0.337-0.321 0.507-0.48 0.076-0.077 1e-3 -0.165-0.035-0.224h-7e-3l-0.332-0.456-0.219 0.074c-0.056 0.037-0.13 0.023-0.197-0.063l-0.48-0.618a2.472 2.472 0 0 1-1.993 0.994c-1.351 0-2.455-1.074-2.455-2.39 0-0.936 0.557-1.746 1.364-2.138v-0.55c-0.027 0.014-0.06 0.021-0.082 0.03-0.316 0.127-0.336 0.185-0.853-0.104l-0.456-0.317c-0.064-0.028-0.12-0.08-0.178-0.066m1.566 1.229a2.203 2.203 0 0 0-1.152 1.923c0 1.213 1.017 2.206 2.268 2.206 0.773 0 1.451-0.382 1.86-0.962l-0.022-0.047c-0.48 0.518-1.021 0.854-1.845 0.872-1.026 0.018-2.065-0.872-2.07-2.045-9e-3 -0.756 0.35-1.264 0.96-1.627v-0.318" fill="#fff" fill-rule="evenodd"/>
</svg>
