<?xml version="1.0" encoding="UTF-8"?>
<!-- Created with Inkscape (http://www.inkscape.org/) -->
<svg width="64" height="64" version="1.1" viewBox="0 0 16.933 16.933" xmlns="http://www.w3.org/2000/svg" xmlns:cc="http://creativecommons.org/ns#" xmlns:dc="http://purl.org/dc/elements/1.1/" xmlns:rdf="http://www.w3.org/1999/02/22-rdf-syntax-ns#">
 <defs>
  <linearGradient id="linearGradient11422" x1="-6.1472" x2="-6.1472" y1="-137.82" y2="-100.78" gradientTransform="matrix(.53033 0 0 .53033 11.537 71.991)" gradientUnits="userSpaceOnUse">
   <stop stop-color="#32b4ff" offset="0"/>
   <stop stop-color="#3287ff" offset="1"/>
  </linearGradient>
 </defs>
 <metadata>
  <rdf:RDF>
   <cc:Work rdf:about="">
    <dc:format>image/svg+xml</dc:format>
    <dc:type rdf:resource="http://purl.org/dc/dcmitype/StillImage"/>
    <dc:title/>
   </cc:Work>
  </rdf:RDF>
 </metadata>
 <circle cx="-330.35" cy="-328.38" r="0" fill="#5e4aa6" stroke-width=".26458"/>
 <circle cx="8.4935" cy="8.73" r="7.9375" opacity=".2" stroke-width=".14032"/>
 <circle cx="8.494" cy="8.4612" r="7.9375" fill="url(#linearGradient11422)" style="paint-order:normal"/>
 <path d="m10.376 11.731c0.62512-0.19625 1.1646-0.50057 1.5837-1.0425-2.2946 1.326-4.5644 1.2854-6.8548 9e-3 0.18686 0.26661 0.41188 0.46917 0.67451 0.62121 0.26185 0.1516 0.53979 0.27545 0.82006 0.41625-0.12085 0.15091-0.26428 0.3087-0.38241 0.48354-0.11245 0.16658-0.23994 0.22494-0.44546 0.20105-0.77437-0.09-1.4705-0.3477-2.0477-0.88672-0.01673-0.0157-0.03246-0.0324-0.04944-0.0477-0.23566-0.21224-0.33405-0.44914-0.31377-0.79181 0.09588-1.6221 0.5006-3.1569 1.2092-4.6147 0.03473-0.0715 0.09405-0.14024 0.15896-0.18629 0.56601-0.40176 1.1868-0.67928 1.8734-0.79924 0.13107-0.0229 0.26406-0.0401 0.39678-0.046 0.05395-2e-3 0.10958 0.0323 0.16324 0.0712-0.81593 0.27275-1.5913 0.60137-2.2732 1.1504 2.3432-1.1162 4.6729-1.1715 7.0089-0.0283-0.62448-0.50466-1.3465-0.81739-2.1017-1.0645 0.05638-0.11599 0.13508-0.13831 0.25569-0.12708 0.81732 0.0759 1.5472 0.37637 2.2134 0.84371 0.06253 0.0439 0.1209 0.10831 0.15456 0.17635 0.51693 1.0466 0.86536 2.1477 1.0629 3.2979 0.09174 0.5346 0.13898 1.0729 0.14835 1.6144 0.0012 0.0761-0.03103 0.16682-0.0779 0.22764-0.4353 0.56481-1.0155 0.91365-1.6988 1.0881-0.26391 0.0674-0.53912 0.0914-0.81011 0.12864-0.04197 6e-3 -0.10548-9e-3 -0.13064-0.0388-0.18049-0.21154-0.35356-0.42929-0.53784-0.65592zm-3.6194-1.4464c0.29954-7.3e-4 0.47714-0.0642 0.63301-0.19365 0.25478-0.21178 0.34982-0.49079 0.36944-0.81468 0.0219-0.36221-0.11872-0.63161-0.41964-0.81541-0.31047-0.18959-0.63488-0.20526-0.94911-8e-3 -0.50437 0.31651-0.5991 1.0694-0.19779 1.5232 0.17561 0.1985 0.39374 0.3066 0.56409 0.30871zm3.3062 0.014c0.10297-0.0236 0.21076-0.0349 0.30813-0.0729 0.60095-0.23447 0.79231-1.0414 0.37677-1.5733-0.3238-0.41441-0.92714-0.45175-1.2961-0.0764-0.24402 0.24824-0.32014 0.55194-0.27856 0.89181 0.0551 0.45045 0.44938 0.81478 0.88972 0.83073z" opacity=".25" stroke-width=".045728"/>
 <path d="m10.376 11.461c0.62512-0.19625 1.1646-0.50057 1.5837-1.0425-2.2946 1.326-4.5644 1.2854-6.8548 9e-3 0.18686 0.26661 0.41188 0.46917 0.67451 0.62121 0.26185 0.1516 0.53979 0.27545 0.82006 0.41625-0.12085 0.15091-0.26428 0.3087-0.38241 0.48354-0.11245 0.16658-0.23994 0.22494-0.44546 0.20105-0.77437-0.09-1.4705-0.3477-2.0477-0.88672-0.01673-0.0157-0.03246-0.0324-0.04944-0.0477-0.23566-0.21224-0.33405-0.44914-0.31377-0.79181 0.09588-1.6221 0.5006-3.1569 1.2092-4.6147 0.03473-0.0715 0.09405-0.14024 0.15896-0.18629 0.56601-0.40176 1.1868-0.67928 1.8734-0.79924 0.13107-0.0229 0.26406-0.0401 0.39678-0.046 0.05395-2e-3 0.10958 0.0323 0.16324 0.0712-0.81593 0.27275-1.5913 0.60137-2.2732 1.1504 2.3432-1.1162 4.6729-1.1715 7.0089-0.0283-0.62448-0.50466-1.3465-0.81739-2.1017-1.0645 0.05638-0.11599 0.13508-0.13831 0.25569-0.12708 0.81732 0.0759 1.5472 0.37637 2.2134 0.84371 0.06253 0.0439 0.1209 0.10831 0.15456 0.17635 0.51693 1.0466 0.86536 2.1477 1.0629 3.2979 0.09174 0.5346 0.13898 1.0729 0.14835 1.6144 0.0012 0.0761-0.03103 0.16682-0.0779 0.22764-0.4353 0.56481-1.0155 0.91365-1.6988 1.0881-0.26391 0.0674-0.53912 0.0914-0.81011 0.12864-0.04197 6e-3 -0.10548-9e-3 -0.13064-0.0388-0.18049-0.21154-0.35356-0.42929-0.53784-0.65592zm-3.6194-1.4464c0.29954-7.3e-4 0.47714-0.0642 0.63301-0.19365 0.25478-0.21178 0.34982-0.49079 0.36944-0.81468 0.0219-0.36221-0.11872-0.63161-0.41964-0.81541-0.31047-0.18959-0.63488-0.20526-0.94911-8e-3 -0.50437 0.31651-0.5991 1.0694-0.19779 1.5232 0.17561 0.1985 0.39374 0.3066 0.56409 0.30871zm3.3062 0.014c0.10297-0.0236 0.21076-0.0349 0.30813-0.0729 0.60095-0.23447 0.79231-1.0414 0.37677-1.5733-0.3238-0.41441-0.92714-0.45175-1.2961-0.0764-0.24402 0.24824-0.32014 0.55194-0.27856 0.89181 0.0551 0.45045 0.44938 0.81478 0.88972 0.83073z" fill="#fff" stroke-width=".045728"/>
 <g fill="#5e4aa6" stroke-width=".26458">
  <circle cx="-299.02" cy="-338.77" r="0"/>
  <circle cx="-8.1062" cy="-3.9487" r="0" fill-rule="evenodd"/>
  <circle cx="-278.25" cy="-357.69" r="0"/>
  <circle cx="12.663" cy="-22.859" r="0" fill-rule="evenodd"/>
 </g>
</svg>
