<?xml version="1.0" encoding="UTF-8" standalone="no"?>
<svg
   xmlns:dc="http://purl.org/dc/elements/1.1/"
   xmlns:cc="http://creativecommons.org/ns#"
   xmlns:rdf="http://www.w3.org/1999/02/22-rdf-syntax-ns#"
   xmlns:svg="http://www.w3.org/2000/svg"
   xmlns="http://www.w3.org/2000/svg"
   xmlns:xlink="http://www.w3.org/1999/xlink"
   xmlns:sodipodi="http://sodipodi.sourceforge.net/DTD/sodipodi-0.dtd"
   xmlns:inkscape="http://www.inkscape.org/namespaces/inkscape"
   width="64"
   height="64"
   version="1.1"
   viewBox="0 0 16.933 16.933"
   id="svg17"
   sodipodi:docname="distributor-logo-ubuntu-mate.svg"
   inkscape:version="1.0.1 (3bc2e813f5, 2020-09-07)">
  <metadata
     id="metadata21">
    <rdf:RDF>
      <cc:Work
         rdf:about="">
        <dc:format>image/svg+xml</dc:format>
        <dc:type
           rdf:resource="http://purl.org/dc/dcmitype/StillImage" />
        <dc:title></dc:title>
      </cc:Work>
    </rdf:RDF>
  </metadata>
  <sodipodi:namedview
     pagecolor="#ffffff"
     bordercolor="#666666"
     borderopacity="1"
     objecttolerance="10"
     gridtolerance="10"
     guidetolerance="10"
     inkscape:pageopacity="0"
     inkscape:pageshadow="2"
     inkscape:window-width="1920"
     inkscape:window-height="932"
     id="namedview19"
     showgrid="false"
     inkscape:zoom="5.9765625"
     inkscape:cx="35.983442"
     inkscape:cy="29.828616"
     inkscape:window-x="0"
     inkscape:window-y="36"
     inkscape:window-maximized="1"
     inkscape:current-layer="svg17" />
  <defs
     id="defs7">
    <linearGradient
       id="b"
       x1="45.628"
       x2="45.628"
       y1="57.955"
       y2="12.461"
       gradientTransform="matrix(0.27476633,0,0,0.27476633,21.158369,-0.325665)"
       gradientUnits="userSpaceOnUse">
      <stop
         offset="0"
         id="stop2" />
      <stop
         stop-opacity="0"
         offset="1"
         id="stop4" />
    </linearGradient>
    <linearGradient
       id="linearGradient3764"
       x1="1"
       x2="47"
       gradientUnits="userSpaceOnUse"
       gradientTransform="rotate(-90,23.999998,24)">
      <stop
         style="stop-color:#2cac5c;stop-opacity:1"
         id="stop2-6" />
      <stop
         offset="1"
         style="stop-color:#30bd65;stop-opacity:1"
         id="stop4-7" />
    </linearGradient>
    <linearGradient
       id="a"
       x1="29.565001"
       x2="29.728001"
       y1="11.048"
       y2="53.558998"
       gradientTransform="translate(-2.1504e-4,7.4633e-5)"
       gradientUnits="userSpaceOnUse">
      <stop
         stop-color="#fff"
         offset="0"
         id="stop4-3" />
      <stop
         stop-color="#dbf6f8"
         offset="1"
         id="stop6" />
    </linearGradient>
    <linearGradient
       id="linearGradient978"
       x1="1.9643"
       x2="14.969"
       y1="14.924"
       y2="2.3318999"
       gradientTransform="matrix(3.7796,0,0,3.7796,-0.44248592,-35.032139)"
       gradientUnits="userSpaceOnUse">
      <stop
         stop-color="#007deb"
         offset="0"
         id="stop9" />
      <stop
         stop-color="#009bf5"
         offset="1"
         id="stop11" />
    </linearGradient>
    <radialGradient
       id="a-3"
       cx="512.01"
       cy="512.01"
       r="470.16"
       gradientTransform="matrix(0.057428,0,0,0.057428,103.83996,56.098396)"
       gradientUnits="userSpaceOnUse">
      <stop
         stop-color="#14c878"
         offset="0"
         id="stop4-36" />
      <stop
         stop-color="#149632"
         offset="1"
         id="stop6-7" />
    </radialGradient>
    <linearGradient
       gradientUnits="userSpaceOnUse"
       gradientTransform="matrix(2.0044363,0,0,2.0044363,43.49944,271.60788)"
       y2="-100.78"
       y1="-137.82"
       x2="-6.1472"
       x1="-6.1472"
       id="a-5">
      <stop
         id="stop864"
         offset="0"
         stop-color="#ff8214" />
      <stop
         id="stop866"
         offset="1"
         stop-color="#ff6464" />
    </linearGradient>
    <clipPath
       id="SVGID_2_">
      <use
         id="use869"
         xlink:href="#SVGID_1_"
         height="100%"
         width="100%" />
    </clipPath>
    <rect
       height="99.8"
       width="99.69"
       y="352.04"
       x="247.79"
       id="SVGID_1_" />
    <linearGradient
       gradientUnits="userSpaceOnUse"
       gradientTransform="matrix(2.0044363,0,0,2.0044363,43.499439,271.60788)"
       y2="-100.78"
       y1="-137.82"
       x2="-6.1472"
       x1="-6.1472"
       id="a-36">
      <stop
         id="stop908"
         offset="0"
         stop-color="#14dc78" />
      <stop
         id="stop910"
         offset="1"
         stop-color="#14a03c" />
    </linearGradient>
    <linearGradient
       id="linearGradient11422"
       x1="-6.1472"
       x2="-6.1472"
       y1="-137.82"
       y2="-100.78"
       gradientTransform="matrix(2.0044363,0,0,2.0044363,115.77097,209.32134)"
       gradientUnits="userSpaceOnUse">
      <stop
         stop-color="#32b4ff"
         offset="0"
         id="stop924" />
      <stop
         stop-color="#3287ff"
         offset="1"
         id="stop926" />
    </linearGradient>
  </defs>
  <circle
     cx="-311.25555"
     cy="-344.98715"
     r="0"
     fill="#5e4aa6"
     stroke-width="0.264581"
     id="circle931" />
  <circle
     cx="-20.339531"
     cy="-10.167154"
     r="0"
     fill="#5e4aa6"
     fill-rule="evenodd"
     stroke-width="0.264581"
     id="circle933" />
  <g
     fill="#5e4aa6"
     stroke-width="0.26458"
     id="g949"
     transform="translate(19.094466,-16.607153)">
    <circle
       cx="-306.70001"
       cy="-329.95001"
       r="0"
       id="circle941" />
    <circle
       cx="-15.783"
       cy="4.8765001"
       r="0"
       fill-rule="evenodd"
       id="circle943" />
    <circle
       cx="-285.92999"
       cy="-348.85999"
       r="0"
       id="circle945" />
    <circle
       cx="4.9854999"
       cy="-14.033"
       r="0"
       fill-rule="evenodd"
       id="circle947" />
  </g>
  <circle
     cx="8.4665003"
     cy="8.6014938"
     r="7.9375"
     opacity="0.2"
     stroke-width="0.14032"
     id="circle917" />
  <g
     style="image-rendering:optimizeSpeed"
     id="g19"
     fill="#5e4aa6"
     transform="matrix(0.26457812,0,0,0.26457812,24.305253,3.5324989e-6)">
    <circle
       id="circle11"
       r="0"
       cy="-1241.6"
       cx="-1248.7" />
    <circle
       id="circle13"
       fill-rule="evenodd"
       r="0"
       cy="23.855"
       cx="-149.14999" />
    <circle
       id="circle15"
       r="0"
       cy="-1241.6"
       cx="-1248.7" />
    <circle
       id="circle17"
       fill-rule="evenodd"
       r="0"
       cy="23.855"
       cx="-149.14999" />
  </g>
  <circle
     cx="-330.37701"
     cy="-328.5105"
     r="0"
     fill="#5e4aa6"
     stroke-width="0.264581"
     id="circle875" />
  <circle
     cx="-39.460999"
     cy="6.3115158"
     r="0"
     fill="#5e4aa6"
     fill-rule="evenodd"
     stroke-width="0.264581"
     id="ellipse877" />
  <circle
     cx="-348.23541"
     cy="-328.5105"
     r="0"
     fill="#5e4aa6"
     stroke-width="0.264581"
     id="circle915" />
  <circle
     cx="-57.319393"
     cy="6.3115158"
     r="0"
     fill="#5e4aa6"
     fill-rule="evenodd"
     stroke-width="0.264581"
     id="ellipse927" />
  <g
     id="g972"
     transform="translate(-21.132708,-0.13515061)">
    <path
       d="m 29.503521,0.52973318 a 7.9373437,7.9373437 0 1 1 0,15.87353382 7.9373437,7.9373437 0 0 1 0,-15.87353382 z"
       fill="#87a556"
       id="path9"
       style="stroke-width:1.06996" />
    <path
       d="M 30.756882,3.836383 V 6.6143439 L 33.072214,5.2253635 Z M 29.83053,4.3001056 a 4.1669414,4.1669414 0 0 0 -3.891332,2.680623 l 0.406851,0.2438918 a 3.7043125,3.7043125 0 0 1 3.484481,-2.4618859 3.7043125,3.7043125 0 0 1 0.463723,0.032811 V 4.3307288 A 4.1669414,4.1669414 0 0 0 29.83053,4.3001056 Z m 0,1.3889805 a 2.7779609,2.7779609 0 0 0 -2.672967,2.023318 l 0.415601,0.2482666 a 2.315332,2.315332 0 0 1 2.25846,-1.8089557 2.315332,2.315332 0 0 1 0.463723,0.047028 V 5.7284588 a 2.7779609,2.7779609 0 0 0 -0.463723,-0.039373 z m 3.194655,0.1039001 -0.404663,0.2438918 a 3.7043125,3.7043125 0 0 1 0.914321,2.430169 3.7043125,3.7043125 0 0 1 -0.912134,2.431263 l 0.400289,0.24061 A 4.1669414,4.1669414 0 0 0 33.997472,8.467047 4.1669414,4.1669414 0 0 0 33.025185,5.7929862 Z m -1.21399,0.7283945 -0.411226,0.2471729 a 2.315332,2.315332 0 0 1 0.745893,1.6984934 2.315332,2.315332 0 0 1 -0.744799,1.6974 l 0.411225,0.248266 A 2.7779609,2.7779609 0 0 0 32.608491,8.4659533 2.7779609,2.7779609 0 0 0 31.811195,6.5213807 Z M 25.20096,7.0780666 V 9.856028 l 2.315332,-1.388981 z m 2.373297,1.8931694 -0.4156,0.2482666 a 2.7779609,2.7779609 0 0 0 2.671873,2.0255054 2.7779609,2.7779609 0 0 0 0.463723,-0.04156 v -0.470285 a 2.315332,2.315332 0 0 1 -0.463723,0.04812 2.315332,2.315332 0 0 1 -2.256273,-1.810049 z m -1.229302,0.738238 -0.402476,0.24061 a 4.1669414,4.1669414 0 0 0 3.888051,2.683904 4.1669414,4.1669414 0 0 0 0.463723,-0.02843 V 12.13746 A 3.7043125,3.7043125 0 0 1 29.83053,12.17027 3.7043125,3.7043125 0 0 1 26.344955,9.709478 Z m 4.411927,0.609182 v 2.777961 l 2.315332,-1.38898 z"
       fill="#ffffff"
       id="path15"
       style="stroke-width:1.09369" />
  </g>
</svg>
