<?xml version="1.0" encoding="UTF-8" standalone="no"?>
<svg
   xmlns:dc="http://purl.org/dc/elements/1.1/"
   xmlns:cc="http://creativecommons.org/ns#"
   xmlns:rdf="http://www.w3.org/1999/02/22-rdf-syntax-ns#"
   xmlns:svg="http://www.w3.org/2000/svg"
   xmlns="http://www.w3.org/2000/svg"
   xmlns:xlink="http://www.w3.org/1999/xlink"
   xmlns:sodipodi="http://sodipodi.sourceforge.net/DTD/sodipodi-0.dtd"
   xmlns:inkscape="http://www.inkscape.org/namespaces/inkscape"
   inkscape:version="1.0 (4035a4fb49, 2020-05-01)"
   sodipodi:docname="distributor-logo-korora.svg"
   id="svg17"
   viewBox="0 0 16.933 16.933"
   version="1.1"
   height="64"
   width="64">
  <metadata
     id="metadata21">
    <rdf:RDF>
      <cc:Work
         rdf:about="">
        <dc:format>image/svg+xml</dc:format>
        <dc:type
           rdf:resource="http://purl.org/dc/dcmitype/StillImage" />
        <dc:title></dc:title>
      </cc:Work>
    </rdf:RDF>
  </metadata>
  <sodipodi:namedview
     inkscape:current-layer="svg17"
     inkscape:window-maximized="1"
     inkscape:window-y="36"
     inkscape:window-x="0"
     inkscape:cy="35.307115"
     inkscape:cx="36.694263"
     inkscape:zoom="4.391796"
     showgrid="false"
     id="namedview19"
     inkscape:window-height="964"
     inkscape:window-width="1920"
     inkscape:pageshadow="2"
     inkscape:pageopacity="0"
     guidetolerance="10"
     gridtolerance="10"
     objecttolerance="10"
     borderopacity="1"
     bordercolor="#666666"
     pagecolor="#ffffff" />
  <defs
     id="defs7">
    <linearGradient
       gradientUnits="userSpaceOnUse"
       gradientTransform="matrix(0.26458,0,0,0.26458,0,280.07)"
       y2="12.461"
       y1="57.955"
       x2="45.628"
       x1="45.628"
       id="b">
      <stop
         id="stop2"
         offset="0" />
      <stop
         id="stop4"
         offset="1"
         stop-opacity="0" />
    </linearGradient>
    <linearGradient
       id="a">
      <stop
         id="stop2-3"
         offset="0" />
      <stop
         id="stop4-6"
         stop-opacity="0"
         offset="1" />
    </linearGradient>
    <linearGradient
       gradientUnits="userSpaceOnUse"
       y2="27.346"
       x2="46.168"
       y1="57"
       x1="46.168"
       id="b-7"
       xlink:href="#a"
       gradientTransform="matrix(0.26458,0,0,0.26458,0,280.067)" />
    <linearGradient
       id="a-3"
       x1="-6.1472"
       x2="-6.1472"
       y1="-137.82"
       y2="-100.78"
       gradientTransform="matrix(0.53033,0,0,0.53033,11.508935,71.863837)"
       gradientUnits="userSpaceOnUse">
      <stop
         stop-color="#32b4ff"
         offset="0"
         id="stop849" />
      <stop
         stop-color="#3287ff"
         offset="1"
         id="stop851" />
    </linearGradient>
    <linearGradient
       gradientTransform="matrix(0.37979758,0,0,0.37979758,-5.2443619,-5.1122136)"
       gradientUnits="userSpaceOnUse"
       y2="27.346"
       x2="46.168"
       y1="57"
       x1="46.168"
       id="b-5"
       xlink:href="#a" />
    <linearGradient
       id="d"
       x1="399.57"
       x2="399.57"
       y1="545.8"
       y2="517.8"
       gradientTransform="matrix(0.56696,0,0,0.56696,-218.64,-293.03)"
       gradientUnits="userSpaceOnUse">
      <stop
         stop-color="#3889e9"
         offset="0"
         id="stop851-3" />
      <stop
         stop-color="#5ea5fb"
         offset="1"
         id="stop853" />
    </linearGradient>
    <linearGradient
       id="a-3-5"
       x1="-6.1472"
       x2="-6.1472"
       y1="-137.82"
       y2="-100.78"
       gradientTransform="matrix(0.53033,0,0,0.53033,11.509,71.86385)"
       gradientUnits="userSpaceOnUse">
      <stop
         stop-color="#14dc78"
         offset="0"
         id="stop856" />
      <stop
         stop-color="#14a03c"
         offset="1"
         id="stop858" />
    </linearGradient>
    <linearGradient
       y2="517.8"
       x2="399.57"
       y1="545.8"
       x1="399.57"
       gradientTransform="matrix(0.56696,0,0,0.56696,-218.64,-293.16215)"
       gradientUnits="userSpaceOnUse"
       id="linearGradient956"
       xlink:href="#d"
       inkscape:collect="always" />
    <linearGradient
       y2="517.8"
       x2="399.57"
       y1="545.8"
       x1="399.57"
       gradientTransform="matrix(0.56696,0,0,0.56696,-218.64,-293.16215)"
       gradientUnits="userSpaceOnUse"
       id="linearGradient911"
       xlink:href="#d"
       inkscape:collect="always" />
  </defs>
  <g
     transform="matrix(0.26458,0,0,0.26458,-0.0053516,0.12039712)"
     opacity="0.25"
     stroke-width="1.5715"
     id="g862">
    <circle
       cx="32.02"
       cy="32.043999"
       r="30.000999"
       id="circle856" />
    <circle
       cx="32.02"
       cy="32.043999"
       r="30.000999"
       fill-opacity="0"
       id="circle858" />
    <circle
       cx="32.02"
       cy="32.043999"
       r="0"
       id="circle860" />
  </g>
  <circle
     cx="8.4663353"
     cy="8.3342371"
     r="7.9375"
     fill="url(#a-3)"
     style="fill:url(#a-3);paint-order:normal"
     id="circle864" />
  <circle
     cx="-308.78006"
     cy="-318.95218"
     r="0"
     fill="#5e4aa6"
     stroke-width="0.26458"
     id="circle870" />
  <circle
     cx="-17.864065"
     cy="15.865837"
     r="0"
     fill="#5e4aa6"
     fill-rule="evenodd"
     stroke-width="0.26458"
     id="circle872" />
  <circle
     id="circle873"
     stroke-width="0.41578"
     fill-opacity="0"
     r="7.9376001"
     cy="8.3343506"
     cx="8.4665003" />
  <circle
     id="circle875"
     stroke-width="0.41578"
     fill="url(#d)"
     r="0"
     cy="8.3343506"
     cx="8.4665003"
     style="fill:url(#linearGradient911)" />
  <circle
     style="fill:url(#linearGradient956)"
     cx="8.4665003"
     cy="8.3343506"
     r="0"
     fill="url(#d)"
     stroke-width="0.41578"
     id="circle910" />
  <path
     d="m 16.14495,6.3230038 a 17.090892,17.090892 0 0 1 -7.5198067,9.9470002 7.9375,7.9375 0 0 0 7.7786997,-7.9357932 7.9375,7.9375 0 0 0 0,-0.03824 7.9375,7.9375 0 0 0 -0.258893,-1.972967 z"
     style="opacity:0.3;fill:url(#b-5);stroke-width:0.365364;paint-order:markers stroke fill"
     id="path12-6" />
  <path
     d="M 9.596,4.233 A 3.104,3.104 0 0 0 6.586,6.588 3.104,3.104 0 0 0 4.233,9.596 V 12.7 H 7.338 A 3.104,3.104 0 0 0 10.348,10.346 3.104,3.104 0 0 0 12.7,7.338 V 4.233 Z m 0,0.444 h 2.66 v 2.66 A 2.661,2.661 0 0 1 10.429,9.861 3.104,3.104 0 0 0 10.442,9.596 3.104,3.104 0 0 0 7.338,6.49 3.104,3.104 0 0 0 7.07,6.503 2.661,2.661 0 0 1 9.596,4.676 Z M 7.338,6.935 A 2.661,2.661 0 0 1 9.998,9.595 2.661,2.661 0 0 1 9.968,9.969 2.661,2.661 0 0 1 9.596,9.999 2.661,2.661 0 0 1 6.935,7.338 2.661,2.661 0 0 1 6.965,6.964 2.661,2.661 0 0 1 7.338,6.934 Z M 6.504,7.072 A 3.104,3.104 0 0 0 6.491,7.338 3.104,3.104 0 0 0 9.596,10.442 3.104,3.104 0 0 0 9.863,10.429 2.661,2.661 0 0 1 7.338,12.256 H 4.678 V 9.596 A 2.661,2.661 0 0 1 6.504,7.072 Z"
     fill="#ffffff"
     id="path936" />
</svg>
