<?xml version="1.0" encoding="UTF-8" standalone="no"?>
<svg
   xmlns:dc="http://purl.org/dc/elements/1.1/"
   xmlns:cc="http://creativecommons.org/ns#"
   xmlns:rdf="http://www.w3.org/1999/02/22-rdf-syntax-ns#"
   xmlns:svg="http://www.w3.org/2000/svg"
   xmlns="http://www.w3.org/2000/svg"
   xmlns:xlink="http://www.w3.org/1999/xlink"
   xmlns:sodipodi="http://sodipodi.sourceforge.net/DTD/sodipodi-0.dtd"
   xmlns:inkscape="http://www.inkscape.org/namespaces/inkscape"
   inkscape:version="1.0 (4035a4fb49, 2020-05-01)"
   sodipodi:docname="distributor-logo-kubuntu.svg"
   id="svg17"
   viewBox="0 0 16.933 16.933"
   version="1.1"
   height="64"
   width="64">
  <metadata
     id="metadata21">
    <rdf:RDF>
      <cc:Work
         rdf:about="">
        <dc:format>image/svg+xml</dc:format>
        <dc:type
           rdf:resource="http://purl.org/dc/dcmitype/StillImage" />
        <dc:title></dc:title>
      </cc:Work>
    </rdf:RDF>
  </metadata>
  <sodipodi:namedview
     inkscape:current-layer="svg17"
     inkscape:window-maximized="1"
     inkscape:window-y="36"
     inkscape:window-x="0"
     inkscape:cy="-6.1309283"
     inkscape:cx="62.279891"
     inkscape:zoom="3.1054688"
     showgrid="false"
     id="namedview19"
     inkscape:window-height="964"
     inkscape:window-width="1920"
     inkscape:pageshadow="2"
     inkscape:pageopacity="0"
     guidetolerance="10"
     gridtolerance="10"
     objecttolerance="10"
     borderopacity="1"
     bordercolor="#666666"
     pagecolor="#ffffff" />
  <defs
     id="defs7">
    <linearGradient
       gradientUnits="userSpaceOnUse"
       gradientTransform="matrix(0.26458,0,0,0.26458,0,280.07)"
       y2="12.461"
       y1="57.955"
       x2="45.628"
       x1="45.628"
       id="b">
      <stop
         id="stop2"
         offset="0" />
      <stop
         id="stop4"
         offset="1"
         stop-opacity="0" />
    </linearGradient>
    <linearGradient
       id="a">
      <stop
         id="stop2-3"
         offset="0" />
      <stop
         id="stop4-6"
         stop-opacity="0"
         offset="1" />
    </linearGradient>
    <linearGradient
       gradientUnits="userSpaceOnUse"
       y2="27.346"
       x2="46.168"
       y1="57"
       x1="46.168"
       id="b-7"
       xlink:href="#a"
       gradientTransform="matrix(0.26458,0,0,0.26458,0,280.067)" />
    <linearGradient
       id="a-3"
       x1="-6.1472"
       x2="-6.1472"
       y1="-137.82"
       y2="-100.78"
       gradientTransform="matrix(0.53033,0,0,0.53033,11.508935,71.863837)"
       gradientUnits="userSpaceOnUse">
      <stop
         stop-color="#32b4ff"
         offset="0"
         id="stop849" />
      <stop
         stop-color="#3287ff"
         offset="1"
         id="stop851" />
    </linearGradient>
    <linearGradient
       gradientTransform="matrix(0.37979758,0,0,0.37979758,-5.2443619,-5.1122136)"
       gradientUnits="userSpaceOnUse"
       y2="27.346"
       x2="46.168"
       y1="57"
       x1="46.168"
       id="b-5"
       xlink:href="#a" />
    <linearGradient
       id="d"
       x1="399.57"
       x2="399.57"
       y1="545.8"
       y2="517.8"
       gradientTransform="matrix(0.56696,0,0,0.56696,-218.64,-293.03)"
       gradientUnits="userSpaceOnUse">
      <stop
         stop-color="#3889e9"
         offset="0"
         id="stop851-3" />
      <stop
         stop-color="#5ea5fb"
         offset="1"
         id="stop853" />
    </linearGradient>
    <linearGradient
       id="a-3-5"
       x1="-6.1472"
       x2="-6.1472"
       y1="-137.82"
       y2="-100.78"
       gradientTransform="matrix(0.53033,0,0,0.53033,11.509,71.86385)"
       gradientUnits="userSpaceOnUse">
      <stop
         stop-color="#14dc78"
         offset="0"
         id="stop856" />
      <stop
         stop-color="#14a03c"
         offset="1"
         id="stop858" />
    </linearGradient>
    <linearGradient
       y2="517.8"
       x2="399.57"
       y1="545.8"
       x1="399.57"
       gradientTransform="matrix(0.56696,0,0,0.56696,-218.64,-293.16215)"
       gradientUnits="userSpaceOnUse"
       id="linearGradient956"
       xlink:href="#d"
       inkscape:collect="always" />
    <linearGradient
       y2="517.8"
       x2="399.57"
       y1="545.8"
       x1="399.57"
       gradientTransform="matrix(0.56696,0,0,0.56696,-218.64,-293.16215)"
       gradientUnits="userSpaceOnUse"
       id="linearGradient910"
       xlink:href="#d"
       inkscape:collect="always" />
  </defs>
  <g
     id="g862"
     stroke-width="1.5715"
     opacity="0.25"
     transform="matrix(0.26458,0,0,0.26458,-0.0053516,0.12039712)">
    <circle
       id="circle856"
       r="30.000999"
       cy="32.043999"
       cx="32.02" />
    <circle
       id="circle858"
       fill-opacity="0"
       r="30.000999"
       cy="32.043999"
       cx="32.02" />
    <circle
       id="circle860"
       r="0"
       cy="32.043999"
       cx="32.02" />
  </g>
  <circle
     id="circle864"
     style="fill:url(#a-3);paint-order:normal"
     fill="url(#a-3)"
     r="7.9375"
     cy="8.3342371"
     cx="8.4663353" />
  <circle
     id="circle870"
     stroke-width="0.26458"
     fill="#5e4aa6"
     r="0"
     cy="-318.95218"
     cx="-308.78006" />
  <circle
     id="circle872"
     stroke-width="0.26458"
     fill-rule="evenodd"
     fill="#5e4aa6"
     r="0"
     cy="15.865837"
     cx="-17.864065" />
  <circle
     cx="8.4665003"
     cy="8.3343506"
     r="7.9376001"
     fill-opacity="0"
     stroke-width="0.41578"
     id="circle873" />
  <circle
     style="fill:url(#linearGradient910)"
     cx="8.4665003"
     cy="8.3343506"
     r="0"
     fill="url(#d)"
     stroke-width="0.41578"
     id="circle875" />
  <circle
     id="circle910"
     stroke-width="0.41578"
     fill="url(#d)"
     r="0"
     cy="8.3343506"
     cx="8.4665003"
     style="fill:url(#linearGradient956)" />
  <path
     id="path12-6"
     style="opacity:0.3;fill:url(#b-5);stroke-width:0.365364;paint-order:markers stroke fill"
     d="m 16.14495,6.3230038 a 17.090892,17.090892 0 0 1 -7.5198067,9.9470002 7.9375,7.9375 0 0 0 7.7786997,-7.9357932 7.9375,7.9375 0 0 0 0,-0.03824 7.9375,7.9375 0 0 0 -0.258893,-1.972967 z" />
  <path
     d="m 8.4665,4.233 a 4.2335,4.2335 0 1 0 0,8.467 4.2335,4.2335 0 0 0 0,-8.467 z m -0.257,0.85 c 0.02,0.002 0.037,0.014 0.046,0.032 l 0.418,0.879 C 8.8765,6 9.0815,6.035 9.2805,6.099 l 0.671,-0.671 a 0.056,0.056 0 0 1 0.07,-0.008 l 0.534,0.325 a 0.057,0.057 0 0 1 0.024,0.068 l -0.324,0.914 c 0.122,0.136 0.226,0.285 0.31,0.444 h 0.997 c 0.027,0 0.05,0.019 0.056,0.044 l 0.148,0.608 a 0.057,0.057 0 0 1 -0.03,0.065 l -1.25,0.273 A 2.044,2.044 0 0 0 7.8165,6.53 L 7.8065,6.524 7.5385,5.288 c 0,-0.026 0.019,-0.049 0.044,-0.055 l 0.607,-0.148 c 0.007,-0.002 0.013,-0.002 0.02,-0.002 z m -1.98,0.894 a 0.056,0.056 0 0 1 0.037,0.01 l 0.95,0.865 a 2.038,2.038 0 0 0 -0.137,3.113 v 0.014 l -0.854,0.943 a 0.058,0.058 0 0 1 -0.07,-0.008 L 5.7135,10.473 A 0.057,0.057 0 0 1 5.7065,10.401 L 6.2405,9.587 A 2.21,2.21 0 0 1 6.0135,9.014 L 5.0915,8.788 A 0.057,0.057 0 0 1 5.0485,8.733 V 8.108 c 0,-0.027 0.019,-0.05 0.045,-0.056 l 0.95,-0.198 C 6.0965,7.679 6.1705,7.512 6.2615,7.358 L 5.7445,6.506 a 0.057,0.057 0 0 1 0.008,-0.07 l 0.442,-0.442 a 0.055,0.055 0 0 1 0.035,-0.017 z m 4.232,2.93 1.24,0.278 c 0.022,0.012 0.034,0.04 0.027,0.065 l -0.162,0.603 a 0.057,0.057 0 0 1 -0.059,0.043 l -0.972,-0.057 a 2.21,2.21 0 0 1 -0.383,0.483 l 0.265,0.911 a 0.057,0.057 0 0 1 -0.026,0.065 l -0.542,0.312 a 0.057,0.057 0 0 1 -0.071,-0.011 l -0.646,-0.725 c -0.178,0.042 -0.359,0.062 -0.538,0.06 l -0.48,0.873 a 0.057,0.057 0 0 1 -0.065,0.028 l -0.604,-0.163 a 0.057,0.057 0 0 1 -0.042,-0.058 l 0.326,-1.235 0.006,-0.003 a 2.044,2.044 0 0 0 2.726,-1.468 z"
     fill="#ffffff"
     id="path924" />
</svg>
