<?xml version="1.0" encoding="UTF-8" standalone="no"?>
<svg
   xmlns:dc="http://purl.org/dc/elements/1.1/"
   xmlns:cc="http://creativecommons.org/ns#"
   xmlns:rdf="http://www.w3.org/1999/02/22-rdf-syntax-ns#"
   xmlns:svg="http://www.w3.org/2000/svg"
   xmlns="http://www.w3.org/2000/svg"
   xmlns:xlink="http://www.w3.org/1999/xlink"
   xmlns:sodipodi="http://sodipodi.sourceforge.net/DTD/sodipodi-0.dtd"
   xmlns:inkscape="http://www.inkscape.org/namespaces/inkscape"
   width="64"
   height="64"
   version="1.1"
   viewBox="0 0 16.933 16.933"
   id="svg17"
   sodipodi:docname="distributor-logo-ubuntu-gnome.svg"
   inkscape:version="1.0.1 (3bc2e813f5, 2020-09-07)">
  <metadata
     id="metadata21">
    <rdf:RDF>
      <cc:Work
         rdf:about="">
        <dc:format>image/svg+xml</dc:format>
        <dc:type
           rdf:resource="http://purl.org/dc/dcmitype/StillImage" />
        <dc:title></dc:title>
      </cc:Work>
    </rdf:RDF>
  </metadata>
  <sodipodi:namedview
     pagecolor="#ffffff"
     bordercolor="#666666"
     borderopacity="1"
     objecttolerance="10"
     gridtolerance="10"
     guidetolerance="10"
     inkscape:pageopacity="0"
     inkscape:pageshadow="2"
     inkscape:window-width="1920"
     inkscape:window-height="932"
     id="namedview19"
     showgrid="false"
     inkscape:zoom="5.9765625"
     inkscape:cx="40.19974"
     inkscape:cy="38.239762"
     inkscape:window-x="0"
     inkscape:window-y="36"
     inkscape:window-maximized="1"
     inkscape:current-layer="svg17" />
  <defs
     id="defs7">
    <linearGradient
       id="b"
       x1="45.628"
       x2="45.628"
       y1="57.955"
       y2="12.461"
       gradientTransform="matrix(0.26458,0,0,0.26458,0,280.07)"
       gradientUnits="userSpaceOnUse">
      <stop
         offset="0"
         id="stop2" />
      <stop
         stop-opacity="0"
         offset="1"
         id="stop4" />
    </linearGradient>
    <linearGradient
       id="linearGradient882"
       x1="48.389"
       x2="15.39"
       y1="16.018"
       y2="49.017"
       gradientTransform="translate(9.2017e-4,0.0099972)"
       gradientUnits="userSpaceOnUse"
       xlink:href="#linearGradient11422" />
    <linearGradient
       id="linearGradient11422"
       x1="-6.1472"
       x2="-6.1472"
       y1="-137.82"
       y2="-100.78"
       gradientTransform="matrix(2.0044,0,0,2.0044,43.503,271.61)"
       gradientUnits="userSpaceOnUse">
      <stop
         stop-color="#32b4ff"
         offset="0"
         id="stop850" />
      <stop
         stop-color="#3287ff"
         offset="1"
         id="stop852" />
    </linearGradient>
    <style
       type="text/css"
       id="style855" />
    <linearGradient
       inkscape:collect="always"
       xlink:href="#linearGradient11422"
       id="linearGradient911"
       gradientUnits="userSpaceOnUse"
       gradientTransform="matrix(0.53032038,0,0,0.53032038,11.509942,71.862063)"
       x1="-6.1472"
       y1="-137.82"
       x2="-6.1472"
       y2="-100.78" />
  </defs>
  <g
     fill="#5e4aa6"
     id="g865"
     style="image-rendering:optimizeSpeed"
     transform="scale(0.26457812)">
    <circle
       cx="-1160"
       cy="-1257.6"
       r="0"
       id="circle859" />
    <circle
       cx="-1160"
       cy="-1257.6"
       r="0"
       id="circle861" />
    <circle
       cx="-1244.2"
       cy="-1289.6"
       r="0"
       id="circle863" />
  </g>
  <circle
     cx="-297.59747"
     cy="-338.47479"
     r="0"
     fill="#5e4aa6"
     id="circle867"
     style="stroke-width:0.264578;image-rendering:optimizeSpeed" />
  <circle
     cx="8.4662352"
     cy="8.6009054"
     r="7.9376082"
     opacity="0.2"
     stroke-width="0.140319"
     id="circle869"
     style="image-rendering:optimizeSpeed" />
  <circle
     cx="8.4667645"
     cy="8.3320942"
     r="7.9376082"
     fill="url(#linearGradient11422)"
     stroke-width="0.999999"
     style="fill:url(#linearGradient911);paint-order:normal;image-rendering:optimizeSpeed"
     id="circle871" />
  <g
     transform="translate(32.762709,-10.102651)"
     fill="#5e4aa6"
     stroke-width="0.26458"
     id="g881"
     style="image-rendering:optimizeSpeed">
    <circle
       cx="-299.01999"
       cy="-338.76999"
       r="0"
       id="circle873" />
    <circle
       cx="-8.1062002"
       cy="-3.9487"
       r="0"
       fill-rule="evenodd"
       id="circle875" />
    <circle
       cx="-278.25"
       cy="-357.69"
       r="0"
       id="circle877" />
    <circle
       cx="12.663"
       cy="-22.858999"
       r="0"
       fill-rule="evenodd"
       id="circle879" />
  </g>
  <path
     d="m 7.648,4.1536819 a 12.69,12.69 0 0 0 -0.776,0.517 c -0.31,0.218 -0.639,0.502 -0.989,0.852 -0.304,0.304 -0.517,0.603 -0.639,0.897 -0.116,0.3 -0.157,0.594 -0.121,0.883 0.035,0.289 0.134,0.57 0.296,0.844 a 4.3,4.3 0 0 0 0.654,0.821 l 2.221,2.2200001 0.708,-0.706 -2.07,-2.0700001 c -0.48,-0.48 -0.75,-0.902 -0.805,-1.262 -0.056,-0.36 0.096,-0.72 0.456,-1.08 0.076,-0.076 0.157,-0.152 0.243,-0.228 l 0.244,-0.213 a 5.34,5.34 0 0 0 0.213,-0.167 0.988,0.988 0 0 1 0.16,-0.099 l 4.55,4.55 0.707,-0.707 z m -0.22,2.246 -0.708,0.708 3.34,3.3380001 a 0.985,0.985 0 0 1 -0.1,0.16 5.38,5.38 0 0 0 -0.167,0.213 l -0.213,0.243 a 5.362,5.362 0 0 1 -0.228,0.244 c -0.36,0.36 -0.72,0.512 -1.08,0.456 -0.36,-0.056 -0.781,-0.324 -1.263,-0.806 l -2.068,-2.0680001 -0.708,0.708 2.221,2.2200001 a 4.3,4.3 0 0 0 0.822,0.654 c 0.273,0.163 0.555,0.262 0.844,0.297 0.289,0.036 0.583,-0.005 0.882,-0.122 0.294,-0.121 0.593,-0.334 0.897,-0.638 0.35,-0.35 0.634,-0.68 0.852,-0.99 0.223,-0.314 0.396,-0.572 0.517,-0.775 z"
     fill="#ffffff"
     id="path915" />
</svg>
