<?xml version="1.0" encoding="UTF-8"?>
<svg width="64" height="64" version="1.1" viewBox="0 0 16.933 16.933" xmlns="http://www.w3.org/2000/svg" xmlns:cc="http://creativecommons.org/ns#" xmlns:dc="http://purl.org/dc/elements/1.1/" xmlns:rdf="http://www.w3.org/1999/02/22-rdf-syntax-ns#">
 <metadata>
  <rdf:RDF>
   <cc:Work rdf:about="">
    <dc:format>image/svg+xml</dc:format>
    <dc:type rdf:resource="http://purl.org/dc/dcmitype/StillImage"/>
    <dc:title/>
   </cc:Work>
  </rdf:RDF>
 </metadata>
 <defs>
  <linearGradient id="b-3" x1="399.57" x2="399.57" y1="545.8" y2="517.8" gradientTransform="matrix(.56696 0 0 .56696 -218.64 -293.15)" gradientUnits="userSpaceOnUse">
   <stop stop-color="#3889e9" offset="0"/>
   <stop stop-color="#5ea5fb" offset="1"/>
  </linearGradient>
  <linearGradient id="linearGradient1001" x1="32.431" x2="32.431" y1="61.873" y2="1.6692" gradientTransform="matrix(.26458 0 0 .26458 -30.421 2.4233e-5)" gradientUnits="userSpaceOnUse">
   <stop stop-color="#1d2123" offset="0"/>
   <stop stop-color="#33393e" offset="1"/>
  </linearGradient>
 </defs>
 <g transform="translate(.00013258 1.1082e-5)" fill="#5e4aa6" stroke-width=".26458">
  <circle cx="-330.35" cy="-328.37" r="0" image-rendering="optimizeSpeed"/>
  <circle cx="-330.35" cy="-328.38" r="0" image-rendering="optimizeSpeed"/>
  <circle cx="-330.35" cy="-328.38" r="0" image-rendering="optimizeSpeed"/>
  <circle cx="-352.63" cy="-336.84" r="0" image-rendering="optimizeSpeed"/>
  <circle cx="-330.35" cy="-328.37" r="0" image-rendering="optimizeSpeed"/>
  <circle cx="-305.84" cy="-328.27" r="0" image-rendering="optimizeSpeed"/>
  <circle cx="-305.84" cy="-328.28" r="0" image-rendering="optimizeSpeed"/>
  <circle cx="-305.84" cy="-328.28" r="0" image-rendering="optimizeSpeed"/>
  <circle cx="-328.12" cy="-336.74" r="0" image-rendering="optimizeSpeed"/>
  <circle cx="-305.84" cy="-328.27" r="0" image-rendering="optimizeSpeed"/>
  <circle cx="-305.03" cy="-328.69" r="0"/>
 </g>
 <path d="m13.292 2.3001q-1.0212-0.78646-2.2341-1.2053-1.2534-0.43319-2.5934-0.43319c-4.3841 0-7.9381 3.5538-7.9381 7.9376 0 4.0105 2.9752 7.3246 6.838 7.8604 0.18842 0.02607 0.37938 0.04626 0.57114 0.05804 0.17496 0.01093 0.35078 0.0185 0.5291 0.0185 4.3833 0 7.9365-3.5538 7.9365-7.9371 0-0.34654-0.02187-0.68888-0.06477-1.0228-0.049628-0.39028-0.13038-0.76966-0.23385-1.1389q-0.3516-1.2407-1.0801-2.3088-0.72005-1.0523-1.7304-1.8286z" opacity=".2" stroke-width=".26385"/>
 <path d="m13.292 2.0354q-1.0212-0.78646-2.2341-1.2053-1.2534-0.43319-2.5934-0.43319c-4.3841 0-7.9381 3.5538-7.9381 7.9376 0 4.0105 2.9752 7.3246 6.838 7.8604 0.18842 0.02608 0.37938 0.04626 0.57114 0.05804 0.17496 0.01093 0.35078 0.0185 0.5291 0.0185 4.3833 0 7.9365-3.5538 7.9365-7.9371 0-0.34654-0.02187-0.68888-0.06477-1.0228-0.049628-0.39028-0.13038-0.76966-0.23385-1.1389q-0.3516-1.2407-1.0801-2.3088-0.72005-1.0523-1.7304-1.8286z" fill="url(#linearGradient1001)" stroke-width=".26385"/>
 <circle cx="8.469" cy="8.3459" r="7.9376" fill-opacity="0" stroke-width=".41578"/>
 <circle cx="8.469" cy="8.3459" r="0" fill="url(#b-3)" stroke-width=".41578"/>
 <path d="m9.917 5.0763c-0.46703-0.016406-1.003 0.060156-1.318 0.20781-1.2928 0.53921-1.9447 2.8109-3.3118 2.6797-0.47578-0.056874-0.84546-0.30625-1.1266-0.76015-0.44515 0.14219-0.38281 1.2316-0.10828 1.7981 1.108 2.2772 3.1653 3.2615 5.4884 2.7048 1.7959-0.53703 2.9947-1.8987 3.15-3.6126 0.01203-0.095155 0.01859-0.16406 0.02516-0.23844 0.02844-0.096249 0.0875-0.13344 0.21437-0.21219 0.2264-0.14 0.22859-0.19359-0.03609-0.28437-0.15859-0.054687-0.23187-0.10172-0.34343-0.48671-0.61031-1.2283-1.6515-1.7555-2.6337-1.7959zm0.67702 1.2447a0.39922 0.39922 0 1 1 0 0.79734 0.39922 0.39922 0 0 1 0-0.79843zm0.13562 0.15859a0.13344 0.13344 0 1 0 0 0.26578 0.13344 0.13344 0 0 0 0-0.26578zm-2.8776 1.5072a0.8214 0.8214 0 0 1 0.13016 0.015312c0.27781 0.052499 0.57203 0.36968 0.60593 0.65624 0.032812 0.27781-0.1575 0.63874-0.41562 0.78312-0.18265 0.10281-0.61578 0.15969-0.9603 0.12797-0.30187-0.029531-0.9953-0.17281-1.1922-0.24719l-0.17062-0.065624 0.47468-0.23187c0.39593-0.1925 0.51843-0.28765 0.74156-0.57749 0.25812-0.33578 0.49218-0.47578 0.7864-0.46046z" fill="#fff" stroke-width="1.0937"/>
</svg>
