<?xml version="1.0" encoding="UTF-8"?>
<svg width="64" height="64" version="1.1" viewBox="0 0 16.933 16.933" xmlns="http://www.w3.org/2000/svg" xmlns:cc="http://creativecommons.org/ns#" xmlns:dc="http://purl.org/dc/elements/1.1/" xmlns:rdf="http://www.w3.org/1999/02/22-rdf-syntax-ns#">
 <metadata>
  <rdf:RDF>
   <cc:Work rdf:about="">
    <dc:format>image/svg+xml</dc:format>
    <dc:type rdf:resource="http://purl.org/dc/dcmitype/StillImage"/>
    <dc:title/>
   </cc:Work>
  </rdf:RDF>
 </metadata>
 <defs>
  <linearGradient id="b" x1="399.57" x2="399.57" y1="545.8" y2="517.8" gradientTransform="matrix(.56696 0 0 .56696 -218.64 -293.15)" gradientUnits="userSpaceOnUse">
   <stop stop-color="#3889e9" offset="0"/>
   <stop stop-color="#5ea5fb" offset="1"/>
  </linearGradient>
  <linearGradient id="linearGradient1001" x1="32.431" x2="32.431" y1="61.873" y2="1.6692" gradientTransform="matrix(.26458 0 0 .26458 -30.421 2.4233e-5)" gradientUnits="userSpaceOnUse">
   <stop stop-color="#1d2123" offset="0"/>
   <stop stop-color="#33393e" offset="1"/>
  </linearGradient>
 </defs>
 <g transform="translate(.00013258 1.1082e-5)" fill="#5e4aa6" stroke-width=".26458">
  <circle cx="-330.35" cy="-328.37" r="0" image-rendering="optimizeSpeed"/>
  <circle cx="-330.35" cy="-328.38" r="0" image-rendering="optimizeSpeed"/>
  <circle cx="-330.35" cy="-328.38" r="0" image-rendering="optimizeSpeed"/>
  <circle cx="-352.63" cy="-336.84" r="0" image-rendering="optimizeSpeed"/>
  <circle cx="-330.35" cy="-328.37" r="0" image-rendering="optimizeSpeed"/>
  <circle cx="-305.84" cy="-328.27" r="0" image-rendering="optimizeSpeed"/>
  <circle cx="-305.84" cy="-328.28" r="0" image-rendering="optimizeSpeed"/>
  <circle cx="-305.84" cy="-328.28" r="0" image-rendering="optimizeSpeed"/>
  <circle cx="-328.12" cy="-336.74" r="0" image-rendering="optimizeSpeed"/>
  <circle cx="-305.84" cy="-328.27" r="0" image-rendering="optimizeSpeed"/>
  <circle cx="-305.03" cy="-328.69" r="0"/>
 </g>
 <path d="m13.292 2.3001q-1.0212-0.78646-2.2341-1.2053-1.2534-0.43319-2.5934-0.43319c-4.3841 0-7.9381 3.5538-7.9381 7.9376 0 4.0105 2.9752 7.3246 6.838 7.8604 0.18842 0.02607 0.37938 0.04626 0.57114 0.05804 0.17496 0.01093 0.35078 0.0185 0.5291 0.0185 4.3833 0 7.9365-3.5538 7.9365-7.9371 0-0.34654-0.02187-0.68888-0.06477-1.0228-0.049628-0.39028-0.13038-0.76966-0.23385-1.1389q-0.3516-1.2407-1.0801-2.3088-0.72005-1.0523-1.7304-1.8286z" opacity=".2" stroke-width=".26385"/>
 <path d="m13.292 2.0354q-1.0212-0.78646-2.2341-1.2053-1.2534-0.43319-2.5934-0.43319c-4.3841 0-7.9381 3.5538-7.9381 7.9376 0 4.0105 2.9752 7.3246 6.838 7.8604 0.18842 0.02608 0.37938 0.04626 0.57114 0.05804 0.17496 0.01093 0.35078 0.0185 0.5291 0.0185 4.3833 0 7.9365-3.5538 7.9365-7.9371 0-0.34654-0.02187-0.68888-0.06477-1.0228-0.049628-0.39028-0.13038-0.76966-0.23385-1.1389q-0.3516-1.2407-1.0801-2.3088-0.72005-1.0523-1.7304-1.8286z" fill="url(#linearGradient1001)" stroke-width=".26385"/>
 <circle cx="8.469" cy="8.3459" r="7.9376" fill-opacity="0" stroke-width=".41578"/>
 <circle cx="8.469" cy="8.3459" r="0" fill="url(#b)" stroke-width=".41578"/>
 <path d="m8.466 3.8358c-0.41232 1.0106-0.66059 1.6722-1.1199 2.6522 0.28108 0.29858 0.62668 0.64527 1.1877 1.039-0.60371-0.24936-1.0149-0.49763-1.3223-0.75683-0.58731 1.2249-1.5071 2.9715-3.3751 6.327 1.4677-0.84761 2.6063-1.3693 3.666-1.5694a2.6872 2.6872 0 0 1-0.068902-0.62778l0.00109-0.04703c0.022967-0.94057 0.51294-1.6635 1.0926-1.6143 0.57965 0.049216 1.0292 0.85089 1.0062 1.7915a2.6544 2.6544 0 0 1-0.059059 0.50528c1.0488 0.20561 2.1742 0.72621 3.6223 1.5618-0.28545-0.52497-0.54028-0.99854-0.78417-1.4502-0.38279-0.29748-0.78308-0.68355-1.5979-1.1024 0.55997 0.14546 0.96244 0.31389 1.2741 0.502-2.4739-4.6066-2.6741-5.2191-3.5228-7.2107z" fill="#fff" fill-rule="evenodd" stroke-width="1.0937"/>
</svg>
