<?xml version="1.0" encoding="UTF-8" standalone="no"?>
<svg
   xmlns:dc="http://purl.org/dc/elements/1.1/"
   xmlns:cc="http://creativecommons.org/ns#"
   xmlns:rdf="http://www.w3.org/1999/02/22-rdf-syntax-ns#"
   xmlns:svg="http://www.w3.org/2000/svg"
   xmlns="http://www.w3.org/2000/svg"
   xmlns:sodipodi="http://sodipodi.sourceforge.net/DTD/sodipodi-0.dtd"
   xmlns:inkscape="http://www.inkscape.org/namespaces/inkscape"
   width="64"
   height="64"
   version="1.1"
   viewBox="0 0 16.933 16.933"
   id="svg19"
   sodipodi:docname="distributor-logo-debian.svg"
   inkscape:version="1.0.1 (3bc2e813f5, 2020-09-07)">
  <metadata
     id="metadata23">
    <rdf:RDF>
      <cc:Work
         rdf:about="">
        <dc:format>image/svg+xml</dc:format>
        <dc:type
           rdf:resource="http://purl.org/dc/dcmitype/StillImage" />
        <dc:title></dc:title>
      </cc:Work>
    </rdf:RDF>
  </metadata>
  <sodipodi:namedview
     pagecolor="#ffffff"
     bordercolor="#666666"
     borderopacity="1"
     objecttolerance="10"
     gridtolerance="10"
     guidetolerance="10"
     inkscape:pageopacity="0"
     inkscape:pageshadow="2"
     inkscape:window-width="1920"
     inkscape:window-height="932"
     id="namedview21"
     showgrid="false"
     inkscape:zoom="8.4521357"
     inkscape:cx="29.917693"
     inkscape:cy="29.229151"
     inkscape:window-x="0"
     inkscape:window-y="36"
     inkscape:window-maximized="1"
     inkscape:current-layer="svg19" />
  <defs
     id="defs7">
    <linearGradient
       id="b"
       x1="45.628"
       x2="45.628"
       y1="57.955"
       y2="12.461"
       gradientUnits="userSpaceOnUse">
      <stop
         offset="0"
         id="stop2" />
      <stop
         stop-opacity="0"
         offset="1"
         id="stop4" />
    </linearGradient>
    <style
       type="text/css"
       id="style850" />
    <linearGradient
       id="a-3"
       x1="-6.1472"
       x2="-6.1472"
       y1="-140.25"
       y2="-98.292"
       gradientTransform="matrix(2.0044,0,0,2.0044,158.75,201.78)"
       gradientUnits="userSpaceOnUse">
      <stop
         stop-color="#ff3c69"
         offset="0"
         id="stop852" />
      <stop
         stop-color="#ff462b"
         offset="1"
         id="stop854" />
    </linearGradient>
  </defs>
  <g
     transform="matrix(0.26457812,0,0,0.26457812,-30.492628,18.475622)"
     stroke-width="0.53035"
     id="g863">
    <circle
       cx="147.25"
       cy="-37.32"
       r="30.000999"
       opacity="0.2"
       id="circle859" />
    <circle
       cx="147.25"
       cy="-38.341"
       r="30.000999"
       fill="url(#a-3)"
       id="circle861"
       style="fill:url(#a-3)" />
  </g>
  <path
     d="m 11.077,7.854 c 0.009,0.229 -0.066,0.34 -0.134,0.536 l -0.122,0.06 c -0.1,0.195 0.01,0.124 -0.062,0.278 -0.156,0.14 -0.474,0.434 -0.575,0.461 -0.074,0 0.05,-0.087 0.066,-0.12 -0.208,0.143 -0.167,0.215 -0.487,0.302 L 9.753,9.35 C 8.966,9.72 7.872,8.986 7.886,7.984 7.878,8.048 7.862,8.032 7.845,8.057 7.805,7.542 8.083,7.024 8.553,6.812 9.013,6.585 9.553,6.678 9.881,6.985 9.701,6.748 9.341,6.497 8.914,6.52 8.496,6.526 8.104,6.793 7.974,7.081 7.76,7.216 7.735,7.601 7.642,7.671 7.516,8.595 7.878,8.993 8.49,9.462 8.586,9.527 8.517,9.537 8.53,9.587 A 1.66,1.66 0 0 1 7.987,9.172 C 8.069,9.291 8.157,9.406 8.27,9.497 8.078,9.432 7.822,9.032 7.747,9.016 8.077,9.608 9.087,10.054 9.617,9.832 9.372,9.842 9.061,9.837 8.786,9.736 8.67,9.676 8.513,9.553 8.541,9.53 9.263,9.8 10.009,9.734 10.634,9.234 10.793,9.11 10.967,8.899 11.017,8.896 10.941,9.01 11.03,8.951 10.972,9.051 11.13,8.796 10.902,8.947 11.135,8.611 l 0.086,0.118 c -0.032,-0.213 0.263,-0.47 0.233,-0.805 0.068,-0.103 0.076,0.11 0.004,0.346 0.1,-0.262 0.026,-0.304 0.052,-0.52 0.028,0.073 0.064,0.15 0.083,0.227 -0.065,-0.253 0.066,-0.426 0.099,-0.573 -0.032,-0.014 -0.1,0.112 -0.116,-0.187 0.003,-0.13 0.036,-0.068 0.05,-0.1 C 11.6,7.102 11.533,7.003 11.492,6.812 11.522,6.767 11.571,6.928 11.612,6.935 11.585,6.783 11.541,6.668 11.539,6.551 11.422,6.306 11.498,6.584 11.403,6.446 11.278,6.057 11.506,6.356 11.522,6.179 11.71,6.453 11.818,6.877 11.868,7.053 A 3.575,3.575 0 0 0 11.694,6.43 c 0.058,0.024 -0.092,-0.44 0.075,-0.133 -0.178,-0.656 -0.764,-1.27 -1.302,-1.558 0.065,0.06 0.149,0.136 0.119,0.148 -0.268,-0.16 -0.221,-0.172 -0.26,-0.24 -0.217,-0.088 -0.232,0.008 -0.376,0 C 9.539,4.429 9.46,4.453 9.08,4.317 l 0.018,0.08 C 8.826,4.306 8.781,4.431 8.486,4.397 8.468,4.383 8.581,4.347 8.673,4.333 8.41,4.368 8.422,4.281 8.164,4.342 8.228,4.297 8.294,4.268 8.363,4.23 8.148,4.243 7.85,4.355 7.942,4.253 7.592,4.409 6.969,4.629 6.62,4.956 L 6.609,4.883 C 6.449,5.075 5.911,5.457 5.869,5.706 l -0.044,0.01 c -0.083,0.14 -0.137,0.3 -0.203,0.445 -0.109,0.186 -0.16,0.072 -0.144,0.1 -0.214,0.435 -0.32,0.8 -0.412,1.1 0.065,0.097 0,0.589 0.026,0.982 -0.108,1.943 1.363,3.829 2.971,4.264 0.236,0.085 0.586,0.081 0.884,0.09 -0.351,-0.1 -0.397,-0.054 -0.74,-0.173 -0.247,-0.116 -0.3,-0.25 -0.476,-0.401 l 0.07,0.122 c -0.344,-0.121 -0.2,-0.15 -0.48,-0.238 L 7.395,11.91 C 7.285,11.902 7.101,11.723 7.051,11.623 L 6.929,11.628 C 6.783,11.448 6.705,11.318 6.71,11.218 l -0.039,0.07 C 6.627,11.211 6.133,10.61 6.389,10.75 6.341,10.707 6.279,10.68 6.209,10.555 l 0.053,-0.06 c -0.123,-0.158 -0.227,-0.361 -0.22,-0.43 0.067,0.09 0.112,0.106 0.157,0.121 C 5.889,9.414 5.871,10.144 5.635,9.401 L 5.685,9.397 C 5.647,9.339 5.623,9.277 5.593,9.215 L 5.614,8.999 C 5.39,8.74 5.552,7.898 5.584,7.436 5.606,7.248 5.771,7.048 5.896,6.734 L 5.82,6.721 C 5.966,6.467 6.652,5.701 6.97,5.74 7.125,5.546 6.94,5.74 6.91,5.69 7.248,5.34 7.355,5.443 7.583,5.38 7.829,5.234 7.372,5.437 7.488,5.324 7.914,5.215 7.79,5.077 8.345,5.022 8.404,5.055 8.209,5.073 8.161,5.116 8.515,4.943 9.283,4.982 9.781,5.213 c 0.58,0.27 1.23,1.07 1.255,1.822 l 0.03,0.008 c -0.015,0.299 0.045,0.644 -0.06,0.962 l 0.071,-0.15"
     fill="#ffffff"
     id="path15" />
  <circle
     cx="-317.23749"
     cy="-346.88895"
     r="0"
     fill="#5e4aa6"
     id="circle865"
     style="stroke-width:0.264578" />
  <circle
     cx="-288.58365"
     cy="-362.79007"
     r="0"
     fill="#5e4aa6"
     id="circle867"
     style="stroke-width:0.264578" />
</svg>
