<?xml version="1.0" encoding="UTF-8" standalone="no"?>
<svg
   xmlns:dc="http://purl.org/dc/elements/1.1/"
   xmlns:cc="http://creativecommons.org/ns#"
   xmlns:rdf="http://www.w3.org/1999/02/22-rdf-syntax-ns#"
   xmlns:svg="http://www.w3.org/2000/svg"
   xmlns="http://www.w3.org/2000/svg"
   xmlns:sodipodi="http://sodipodi.sourceforge.net/DTD/sodipodi-0.dtd"
   xmlns:inkscape="http://www.inkscape.org/namespaces/inkscape"
   inkscape:version="1.0 (4035a4fb49, 2020-05-01)"
   sodipodi:docname="distributor-logo-mageia.svg"
   id="svg19"
   viewBox="0 0 16.933 16.933"
   version="1.1"
   height="64"
   width="64">
  <metadata
     id="metadata23">
    <rdf:RDF>
      <cc:Work
         rdf:about="">
        <dc:format>image/svg+xml</dc:format>
        <dc:type
           rdf:resource="http://purl.org/dc/dcmitype/StillImage" />
        <dc:title></dc:title>
      </cc:Work>
    </rdf:RDF>
  </metadata>
  <sodipodi:namedview
     inkscape:current-layer="svg19"
     inkscape:window-maximized="1"
     inkscape:window-y="36"
     inkscape:window-x="0"
     inkscape:cy="25.255509"
     inkscape:cx="36.667288"
     inkscape:zoom="4.391796"
     showgrid="false"
     id="namedview21"
     inkscape:window-height="964"
     inkscape:window-width="1920"
     inkscape:pageshadow="2"
     inkscape:pageopacity="0"
     guidetolerance="10"
     gridtolerance="10"
     objecttolerance="10"
     borderopacity="1"
     bordercolor="#666666"
     pagecolor="#ffffff" />
  <defs
     id="defs7">
    <linearGradient
       gradientUnits="userSpaceOnUse"
       gradientTransform="matrix(0.26458,0,0,0.26458,0,280.07)"
       y2="12.461"
       y1="57.955"
       x2="45.628"
       x1="45.628"
       id="b">
      <stop
         id="stop2"
         offset="0" />
      <stop
         id="stop4"
         offset="1"
         stop-opacity="0" />
    </linearGradient>
    <linearGradient
       gradientUnits="userSpaceOnUse"
       y2="12.461"
       y1="57.955"
       x2="45.628"
       x1="45.628"
       id="b-35">
      <stop
         id="stop2-6"
         offset="0" />
      <stop
         id="stop4-2"
         offset="1"
         stop-opacity="0" />
    </linearGradient>
    <linearGradient
       id="b-3"
       x1="399.57"
       x2="399.57"
       y1="545.8"
       y2="517.8"
       gradientTransform="matrix(0.56696445,0,0,0.56696445,-218.63929,-293.15252)"
       gradientUnits="userSpaceOnUse">
      <stop
         stop-color="#3889e9"
         offset="0"
         id="stop850" />
      <stop
         stop-color="#5ea5fb"
         offset="1"
         id="stop852" />
    </linearGradient>
    <linearGradient
       id="linearGradient1001"
       x1="32.431"
       x2="32.431"
       y1="61.873"
       y2="1.6692"
       gradientTransform="matrix(0.26457812,0,0,0.26457812,-30.42106,2.4233434e-5)"
       gradientUnits="userSpaceOnUse">
      <stop
         stop-color="#1d2123"
         offset="0"
         id="stop855" />
      <stop
         stop-color="#33393e"
         offset="1"
         id="stop857" />
    </linearGradient>
  </defs>
  <g
     transform="translate(1.3258376e-4,1.1081785e-5)"
     fill="#5e4aa6"
     stroke-width="0.26458"
     id="g884">
    <circle
       cx="-330.35001"
       cy="-328.37"
       r="0"
       image-rendering="optimizeSpeed"
       id="circle862" />
    <circle
       cx="-330.35001"
       cy="-328.38"
       r="0"
       image-rendering="optimizeSpeed"
       id="circle864" />
    <circle
       cx="-330.35001"
       cy="-328.38"
       r="0"
       image-rendering="optimizeSpeed"
       id="circle866" />
    <circle
       cx="-352.63"
       cy="-336.84"
       r="0"
       image-rendering="optimizeSpeed"
       id="circle868" />
    <circle
       cx="-330.35001"
       cy="-328.37"
       r="0"
       image-rendering="optimizeSpeed"
       id="circle870" />
    <circle
       cx="-305.84"
       cy="-328.26999"
       r="0"
       image-rendering="optimizeSpeed"
       id="circle872" />
    <circle
       cx="-305.84"
       cy="-328.28"
       r="0"
       image-rendering="optimizeSpeed"
       id="circle874" />
    <circle
       cx="-305.84"
       cy="-328.28"
       r="0"
       image-rendering="optimizeSpeed"
       id="circle876" />
    <circle
       cx="-328.12"
       cy="-336.73999"
       r="0"
       image-rendering="optimizeSpeed"
       id="circle878" />
    <circle
       cx="-305.84"
       cy="-328.26999"
       r="0"
       image-rendering="optimizeSpeed"
       id="circle880" />
    <circle
       cx="-305.03"
       cy="-328.69"
       r="0"
       id="circle882" />
  </g>
  <path
     d="M 13.292008,2.3000981 Q 12.270816,1.5136397 11.057911,1.0947861 9.8044982,0.6615923 8.4645159,0.6615923 c -4.3840595,0 -7.93813735,3.5538133 -7.93813735,7.9376082 0,4.0104755 2.97518095,7.3245805 6.83802155,7.8603515 0.1884193,0.02607 0.3793785,0.04626 0.5711448,0.05804 0.1749602,0.01093 0.3507776,0.0185 0.5291033,0.0185 4.3832658,0 7.9365498,-3.553814 7.9365498,-7.9370794 0,-0.3465444 -0.02187,-0.688882 -0.06477,-1.0228061 C 16.2868,7.1859273 16.206051,6.8065488 16.102579,6.4373036 Q 15.750981,5.1966174 15.022492,4.1285155 14.302443,3.076209 13.292098,2.2999103 Z"
     opacity="0.2"
     stroke-width="0.263851"
     id="path886" />
  <path
     style="fill:url(#linearGradient1001)"
     d="M 13.292008,2.0354142 Q 12.270816,1.2489557 11.057911,0.83010211 9.8044982,0.39690835 8.4645159,0.39690835 c -4.3840595,0 -7.93813735,3.55381335 -7.93813735,7.93760815 0,4.0104755 2.97518095,7.3245805 6.83802155,7.8603515 0.1884193,0.02608 0.3793785,0.04626 0.5711448,0.05804 0.1749602,0.01093 0.3507776,0.0185 0.5291033,0.0185 4.3832658,0 7.9365498,-3.553814 7.9365498,-7.9370793 0,-0.3465444 -0.02187,-0.6888821 -0.06477,-1.0228061 C 16.2868,6.9212434 16.206051,6.5418648 16.102579,6.1726196 Q 15.750981,4.931907 15.022492,3.8638316 14.302443,2.811525 13.292098,2.0352263 Z"
     fill="url(#linearGradient1001)"
     stroke-width="0.263851"
     id="path888" />
  <circle
     cx="8.4690132"
     cy="8.3458939"
     r="7.9376082"
     fill-opacity="0"
     stroke-width="0.415785"
     id="circle890" />
  <circle
     cx="8.4690132"
     cy="8.3458939"
     r="0"
     fill="url(#b)"
     stroke-width="0.415785"
     id="circle892"
     style="fill:url(#b-3)" />
  <g
     fill="#f9f9f9"
     stroke-width="0.75"
     id="g925">
    <path
       d="m 6.767,7.392 a 0.465,0.465 0 0 0 -0.296,0.105 3.233,3.233 0 0 0 -1.18,2.507 c 0,1.778 1.426,3.224 3.176,3.224 1.75,0 3.175,-1.446 3.175,-3.224 0,-0.978 -0.43,-1.892 -1.18,-2.507 a 0.468,0.468 0 0 0 -0.591,0 2.187,2.187 0 0 1 -1.404,0.506 c -0.515,0 -1,-0.174 -1.403,-0.506 A 0.47,0.47 0 0 0 6.767,7.392 Z M 6.97,8.559 c 0.43,0.282 0.956,0.436 1.497,0.436 0.541,0 1.069,-0.154 1.497,-0.436 a 2.116,2.116 0 1 1 -2.994,0 z M 8.114,3.705 a 0.35350035,0.35350035 0 1 0 10e-4,0.707 0.3535,0.3535 0 0 0 0,-0.707 z M 9.208,4.41 a 0.3535,0.3535 0 1 0 0,0.707 0.3535,0.3535 0 0 0 0,-0.707 z M 8.29,4.763 a 0.53,0.53 0 0 0 0,1.058 0.53,0.53 0 0 0 0,-1.058 z m 1.06,1.058 a 0.53,0.53 0 0 0 0,1.059 0.53,0.53 0 0 0 0,-1.059 z M 7.586,6.174 a 0.53,0.53 0 0 0 0,1.058 0.53,0.53 0 0 0 0,-1.058 z"
       id="path923" />
  </g>
</svg>
