<?xml version="1.0" encoding="UTF-8" standalone="no"?>
<svg
   xmlns:dc="http://purl.org/dc/elements/1.1/"
   xmlns:cc="http://creativecommons.org/ns#"
   xmlns:rdf="http://www.w3.org/1999/02/22-rdf-syntax-ns#"
   xmlns:svg="http://www.w3.org/2000/svg"
   xmlns="http://www.w3.org/2000/svg"
   xmlns:sodipodi="http://sodipodi.sourceforge.net/DTD/sodipodi-0.dtd"
   xmlns:inkscape="http://www.inkscape.org/namespaces/inkscape"
   width="64"
   height="64"
   version="1.1"
   viewBox="0 0 16.933 16.933"
   id="svg17"
   sodipodi:docname="distributor-logo-slackware.svg"
   inkscape:version="1.0.1 (3bc2e813f5, 2020-09-07)">
  <metadata
     id="metadata21">
    <rdf:RDF>
      <cc:Work
         rdf:about="">
        <dc:format>image/svg+xml</dc:format>
        <dc:type
           rdf:resource="http://purl.org/dc/dcmitype/StillImage" />
        <dc:title></dc:title>
      </cc:Work>
    </rdf:RDF>
  </metadata>
  <sodipodi:namedview
     pagecolor="#ffffff"
     bordercolor="#666666"
     borderopacity="1"
     objecttolerance="10"
     gridtolerance="10"
     guidetolerance="10"
     inkscape:pageopacity="0"
     inkscape:pageshadow="2"
     inkscape:window-width="1920"
     inkscape:window-height="932"
     id="namedview19"
     showgrid="false"
     inkscape:zoom="4.2260679"
     inkscape:cx="-48.407496"
     inkscape:cy="27.342452"
     inkscape:window-x="0"
     inkscape:window-y="36"
     inkscape:window-maximized="1"
     inkscape:current-layer="svg17" />
  <defs
     id="defs7">
    <linearGradient
       id="b"
       x1="45.628"
       x2="45.628"
       y1="57.955"
       y2="12.461"
       gradientTransform="matrix(.26458 0 0 .26458 0 280.07)"
       gradientUnits="userSpaceOnUse">
      <stop
         offset="0"
         id="stop2" />
      <stop
         stop-opacity="0"
         offset="1"
         id="stop4" />
    </linearGradient>
    <linearGradient
       id="b-3"
       x1="399.57"
       x2="399.57"
       y1="545.8"
       y2="517.8"
       gradientTransform="matrix(0.56696,0,0,0.56696,-237.56987,-298.27851)"
       gradientUnits="userSpaceOnUse">
      <stop
         stop-color="#3889e9"
         offset="0"
         id="stop848" />
      <stop
         stop-color="#5ea5fb"
         offset="1"
         id="stop850" />
    </linearGradient>
    <linearGradient
       id="linearGradient1001"
       x1="32.431"
       x2="32.431"
       y1="61.873"
       y2="1.6692"
       gradientTransform="matrix(0.26458,0,0,0.26458,-49.350874,-5.1284813)"
       gradientUnits="userSpaceOnUse">
      <stop
         stop-color="#1d2123"
         offset="0"
         id="stop853" />
      <stop
         stop-color="#33393e"
         offset="1"
         id="stop855" />
    </linearGradient>
  </defs>
  <g
     id="g943"
     transform="translate(18.929874,5.1284757)">
    <path
       d="m -5.637874,-2.8284055 q -1.0212,-0.78646 -2.2341,-1.2053 -1.2534,-0.43319 -2.5934,-0.43319 c -4.3841,0 -7.9381,3.5538 -7.9381,7.9376 0,4.0105 2.9752,7.3246005 6.838,7.8603995 0.18842,0.02607 0.37938,0.04626 0.57114,0.05804 0.17496,0.01093 0.35078,0.0185 0.5291,0.0185 4.3833,0 7.9365,-3.5537995 7.9365,-7.9370995 0,-0.34654 -0.02187,-0.68888 -0.06477,-1.0228 -0.04963,-0.39028 -0.13038,-0.76966 -0.23385,-1.1389 q -0.3516,-1.2407 -1.0801,-2.3088 -0.72005,-1.0523 -1.7304,-1.8286 z"
       opacity="0.2"
       stroke-width="0.26385"
       id="path884" />
    <path
       d="m -5.637874,-3.0931055 q -1.0212,-0.78646 -2.2341,-1.2053 -1.2534,-0.43319 -2.5934,-0.43319 c -4.3841,0 -7.9381,3.5538 -7.9381,7.9376 0,4.0105 2.9752,7.3245995 6.838,7.8604005 0.18842,0.02608 0.37938,0.04626 0.57114,0.05804 0.17496,0.01093 0.35078,0.0185 0.5291,0.0185 4.3833,0 7.9365,-3.5537995 7.9365,-7.9370995 0,-0.34654 -0.02187,-0.68888 -0.06477,-1.0228 -0.04963,-0.39028 -0.13038,-0.76966 -0.23385,-1.1389 q -0.3516,-1.2407 -1.0801,-2.3088 -0.72005,-1.0523 -1.7304,-1.8286 z"
       fill="url(#linearGradient1001)"
       stroke-width="0.26385"
       id="path886"
       style="fill:url(#linearGradient1001)" />
    <circle
       cx="-10.460875"
       cy="3.2173941"
       r="7.9376001"
       fill-opacity="0"
       stroke-width="0.41578"
       id="circle888" />
  </g>
  <path
     d="M5.773 12.546h.359c.068-.137.154-.205.256-.205.069 0 .223.034.462.102.753.171 1.352.257 1.796.257 1.745-.068 2.686-.855 2.822-2.36 0-.616-.256-1.198-.77-1.745-.41-.41-1.094-.855-2.052-1.334-1.06-.582-1.59-1.095-1.59-1.54.068-.581.496-.889 1.282-.923 1.06.034 1.78.616 2.156 1.744h.513L10.75 4.44h-.256c-.069.034-.086.05-.052.05a.499.499 0 0 1-.256.104c-.035 0-.154-.035-.36-.103-.615-.171-1.163-.257-1.642-.257-1.676.103-2.565.821-2.668 2.155.205 1.266.975 2.121 2.31 2.566 1.128.445 1.761 1.078 1.898 1.899-.069.82-.565 1.248-1.488 1.283-1.095 0-1.848-.65-2.258-1.95h-.513l.308 2.36"
     fill="#fff"
     font-family="刘德华字体叶根友仿版"
     font-size="62.261"
     font-weight="700"
     letter-spacing="0"
     stroke-width="1.254"
     word-spacing="0"
     id="path15" />
  <g
     transform="translate(-18.929741,-5.1284944)"
     fill="#5e4aa6"
     stroke-width="0.26458"
     id="g882">
    <circle
       cx="-330.35001"
       cy="-328.37"
       r="0"
       image-rendering="optimizeSpeed"
       id="circle860" />
    <circle
       cx="-330.35001"
       cy="-328.38"
       r="0"
       image-rendering="optimizeSpeed"
       id="circle862" />
    <circle
       cx="-330.35001"
       cy="-328.38"
       r="0"
       image-rendering="optimizeSpeed"
       id="circle864" />
    <circle
       cx="-352.63"
       cy="-336.84"
       r="0"
       image-rendering="optimizeSpeed"
       id="circle866" />
    <circle
       cx="-330.35001"
       cy="-328.37"
       r="0"
       image-rendering="optimizeSpeed"
       id="circle868" />
    <circle
       cx="-305.84"
       cy="-328.26999"
       r="0"
       image-rendering="optimizeSpeed"
       id="circle870" />
    <circle
       cx="-305.84"
       cy="-328.28"
       r="0"
       image-rendering="optimizeSpeed"
       id="circle872" />
    <circle
       cx="-305.84"
       cy="-328.28"
       r="0"
       image-rendering="optimizeSpeed"
       id="circle874" />
    <circle
       cx="-328.12"
       cy="-336.73999"
       r="0"
       image-rendering="optimizeSpeed"
       id="circle876" />
    <circle
       cx="-305.84"
       cy="-328.26999"
       r="0"
       image-rendering="optimizeSpeed"
       id="circle878" />
    <circle
       cx="-305.03"
       cy="-328.69"
       r="0"
       id="circle880" />
  </g>
  <circle
     cx="-10.460875"
     cy="3.2173941"
     r="0"
     fill="url(#b-3)"
     stroke-width="0.41578"
     id="circle890"
     style="fill:url(#b-3)" />
</svg>
