<?xml version="1.0" encoding="UTF-8"?>
<svg width="64" height="64" version="1.1" viewBox="0 0 64 64" xmlns="http://www.w3.org/2000/svg" xmlns:cc="http://creativecommons.org/ns#" xmlns:dc="http://purl.org/dc/elements/1.1/" xmlns:rdf="http://www.w3.org/1999/02/22-rdf-syntax-ns#">
 <metadata>
  <rdf:RDF>
   <cc:Work rdf:about="">
    <dc:format>image/svg+xml</dc:format>
    <dc:type rdf:resource="http://purl.org/dc/dcmitype/StillImage"/>
    <dc:title/>
   </cc:Work>
  </rdf:RDF>
 </metadata>
 <defs>
  <style type="text/css"/>
  <style type="text/css"/>
  <style type="text/css"/>
  <style type="text/css"/>
  <style type="text/css"/>
  <style type="text/css"/>
  <style type="text/css"/>
  <style type="text/css"/>
  <style type="text/css"/>
  <style type="text/css"/>
  <style type="text/css"/>
  <style type="text/css"/>
  <style type="text/css"/>
  <style type="text/css"/>
  <linearGradient id="a-3" x1="-6.1472" x2="-6.1472" y1="-137.82" y2="-100.78" gradientTransform="matrix(2.0044,0,0,2.0044,43.499,271.61)" gradientUnits="userSpaceOnUse">
   <stop stop-color="#14dc78" offset="0"/>
   <stop stop-color="#14a03c" offset="1"/>
  </linearGradient>
  <style type="text/css"/>
  <style type="text/css"/>
 </defs>
 <g fill="#5e4aa6">
  <circle cx="-1248.7" cy="-1241.6" r="0"/>
  <circle cx="-149.15" cy="23.855" r="0" fill-rule="evenodd"/>
  <circle cx="-1150.9" cy="-1256.6" r="0"/>
  <circle cx="-51.327" cy="8.8744" r="0" fill-rule="evenodd"/>
  <g transform="matrix(3.7796,0,0,3.7796,167.86,4.61)" stroke-width=".26458">
   <g transform="translate(-.0272 .0065001)">
    <circle cx="-330.35" cy="-328.38" r="0"/>
    <circle cx="-312.11" cy="-326.25" r="0"/>
    <circle cx="-306.02" cy="-333.07" r="0"/>
    <circle cx="-308.84" cy="-326.01" r="0"/>
   </g>
   <g transform="translate(-.0272 .0065001)">
    <circle cx="-330.35" cy="-328.38" r="0"/>
    <circle cx="-312.11" cy="-326.25" r="0"/>
    <circle cx="-306.02" cy="-333.07" r="0"/>
    <circle cx="-308.84" cy="-326.01" r="0"/>
   </g>
   <g transform="translate(-.02705 .0064503)">
    <circle cx="-330.35" cy="-328.38" r="0"/>
    <circle cx="-312.11" cy="-326.25" r="0"/>
    <circle cx="-306.02" cy="-333.07" r="0"/>
    <circle cx="-308.84" cy="-326.01" r="0"/>
   </g>
  </g>
  <g stroke-width=".26458">
   <g transform="matrix(3.7796 0 0 3.7796 184.14 -27.661)">
    <g transform="translate(-.0272 .0065001)">
     <circle cx="-330.35" cy="-328.38" r="0"/>
     <circle cx="-312.11" cy="-326.25" r="0"/>
     <circle cx="-306.02" cy="-333.07" r="0"/>
     <circle cx="-308.84" cy="-326.01" r="0"/>
    </g>
    <g transform="translate(-.0272 .0065001)">
     <circle cx="-330.35" cy="-328.38" r="0"/>
     <circle cx="-312.11" cy="-326.25" r="0"/>
     <circle cx="-306.02" cy="-333.07" r="0"/>
     <circle cx="-308.84" cy="-326.01" r="0"/>
    </g>
    <g transform="translate(-.02705 .0064503)">
     <circle cx="-330.35" cy="-328.38" r="0"/>
     <circle cx="-312.11" cy="-326.25" r="0"/>
     <circle cx="-306.02" cy="-333.07" r="0"/>
     <circle cx="-308.84" cy="-326.01" r="0"/>
    </g>
   </g>
   <g transform="matrix(3.7796 0 0 3.7796 97.525 -34.145)">
    <circle cx="-330.35" cy="-328.38" r="0"/>
    <circle cx="-312.11" cy="-326.25" r="0"/>
    <circle cx="-306.02" cy="-333.07" r="0"/>
    <circle cx="-308.84" cy="-326.01" r="0"/>
   </g>
   <g transform="matrix(3.7796 0 0 3.7796 97.524 -34.145)">
    <circle cx="-330.35" cy="-328.38" r="0"/>
    <circle cx="-312.11" cy="-326.25" r="0"/>
    <circle cx="-306.02" cy="-333.07" r="0"/>
    <circle cx="-308.84" cy="-326.01" r="0"/>
   </g>
  </g>
  <g transform="translate(97.627 -34.169)">
   <circle cx="-1248.7" cy="-1241.6" r="0"/>
   <circle cx="-149.15" cy="23.855" r="0" fill-rule="evenodd"/>
   <g transform="matrix(3.7796,0,0,3.7796,86.508,6.5083)" stroke-width=".26458">
    <g transform="translate(-.0272 .0065001)">
     <circle cx="-330.35" cy="-328.38" r="0"/>
     <circle cx="-312.11" cy="-326.25" r="0"/>
     <circle cx="-306.02" cy="-333.07" r="0"/>
     <circle cx="-308.84" cy="-326.01" r="0"/>
    </g>
    <g transform="translate(-.0272 .0065001)">
     <circle cx="-330.35" cy="-328.38" r="0"/>
     <circle cx="-312.11" cy="-326.25" r="0"/>
     <circle cx="-306.02" cy="-333.07" r="0"/>
     <circle cx="-308.84" cy="-326.01" r="0"/>
    </g>
    <g transform="translate(-.02705 .0064503)">
     <circle cx="-330.35" cy="-328.38" r="0"/>
     <circle cx="-312.11" cy="-326.25" r="0"/>
     <circle cx="-306.02" cy="-333.07" r="0"/>
     <circle cx="-308.84" cy="-326.01" r="0"/>
    </g>
   </g>
  </g>
  <circle cx="-1248.7" cy="-1241.6" r="0"/>
 </g>
 <circle cx="32" cy="32.51" r="30.001" opacity=".2" stroke-width=".53035"/>
 <circle cx="32" cy="31.49" r="30.001" fill="url(#a-3)" stroke-width=".53035"/>
 <path d="m44.498 23.297-8.1351-1.3868s0.36397 1.3501 0.36563 2.7973l0.01136 7.5368s-0.11158 1.747-3.2851 1.8188c-3.1735 0.07179-3.3957-1.9766-3.2846-2.0374l-0.01169-3.0548s0.04253-0.42671 0.47941-0.45485c0.43682-0.02815 0.47949 0.47865 0.47949 0.47865l0.02766 3.0347s0.18624 1.1606 2.3564 1.1546c2.1702-6e-3 2.257-1.0755 2.257-1.0755l0.02365-8.404s0.12176-2.7948-3.0628-3.5443c0 0-0.38152-0.20921-1.5031-0.20878l-5.5316-0.0034s-4.8356 0.1454-5.5797 5.9294c0 0-0.13354 1.0478-0.13511 1.7942-8.36e-4 0.74631-0.01094 13.045-0.01094 13.045s-0.05214 0.86136-1.0368 1.0831c0 0-1.0919 0.14491-1.3533-1.0884l-0.02398-3.5672s-0.10806-1.351-1.5145-1.4686c0 0-1.3036-8.36e-4 -1.53 1.4691l0.04838 3.801s0.26076 2.3111 2.5598 3.3386c2.299 1.0275 4.2659-0.27634 4.5521-0.51113 0.28618-0.23479 1.4363-1.0784 1.6801-2.7334 0 0 0.06375-0.0916 0.06375-1.4917l0.01763-2.2822s0.22835-1.1631 1.4788-1.2022c1.2505-0.0391 1.4789 1.203 1.4789 1.203v8.4885s0.26804 1.1246 1.2915 0.90063l5.8839-0.51214s0.86083-0.18131 0.86083-1.02v-5.937s0.17358-0.53542 0.69132-0.53542 5.4381 0.0074 5.4381 0.0074 0.40735 0.0498 0.59026 0.52797c0.18292 0.47816-0.01889 0-0.01889 0l0.02649 5.6277s0.0793 0.98478 1.3173 0.9511l6.0028 0.82324s1.0168-0.1167 1.0368-1.0351v-16.901c1.09e-4 0-0.18947-4.3163-5.0022-5.3557zm-18.694 1.6571-0.41427 0.47571c-0.48191-0.42132-1.0273-0.08131-1.0273-0.08131-0.57578 0.36073-0.27753 1.0141-0.27753 1.0141l-0.47551 0.14977c-0.26688 0.06752-0.46027-0.11561-0.46027-0.11561-0.20231-0.76108 0.30602-1.4427 0.30602-1.4427 0.82706-0.89703 1.9834-0.53399 1.9834-0.53399 0.57031 0.17903 0.36545 0.53399 0.36545 0.53399z" opacity=".3" stroke-width=".034205" p-id="15435"/>
 <path d="m44.498 21.98-8.1351-1.3868s0.36397 1.3501 0.36563 2.7973l0.01136 7.5368s-0.11158 1.747-3.2851 1.8188c-3.1735 0.07179-3.3957-1.9766-3.2846-2.0374l-0.01169-3.0548s0.04253-0.42671 0.47941-0.45485c0.43682-0.02815 0.47949 0.47865 0.47949 0.47865l0.02766 3.0347s0.18624 1.1606 2.3564 1.1546c2.1702-6e-3 2.257-1.0755 2.257-1.0755l0.02365-8.404s0.12176-2.7948-3.0628-3.5443c0 0-0.38152-0.20921-1.5031-0.20878l-5.5316-0.0034s-4.8356 0.1454-5.5797 5.9294c0 0-0.13354 1.0478-0.13511 1.7942-8.36e-4 0.74631-0.01094 13.045-0.01094 13.045s-0.05214 0.86136-1.0368 1.0831c0 0-1.0919 0.14491-1.3533-1.0884l-0.02398-3.5672s-0.10806-1.351-1.5145-1.4686c0 0-1.3036-8.36e-4 -1.53 1.4691l0.04838 3.801s0.26076 2.3111 2.5598 3.3386c2.299 1.0275 4.2659-0.27634 4.5521-0.51113 0.28618-0.23479 1.4363-1.0784 1.6801-2.7334 0 0 0.06375-0.0916 0.06375-1.4917l0.01763-2.2822s0.22835-1.1631 1.4788-1.2022c1.2505-0.0391 1.4789 1.203 1.4789 1.203v8.4885s0.26804 1.1246 1.2915 0.90063l5.8839-0.51214s0.86083-0.18131 0.86083-1.02v-5.937s0.17358-0.53542 0.69132-0.53542 5.4381 0.0074 5.4381 0.0074 0.40735 0.0498 0.59026 0.52797c0.18292 0.47816-0.01889 0-0.01889 0l0.02649 5.6277s0.0793 0.98478 1.3173 0.9511l6.0028 0.82324s1.0168-0.1167 1.0368-1.0351v-16.901c1.09e-4 0-0.18947-4.3163-5.0022-5.3557zm-18.694 1.6571-0.41427 0.47571c-0.48191-0.42132-1.0273-0.08131-1.0273-0.08131-0.57578 0.36073-0.27753 1.0141-0.27753 1.0141l-0.47551 0.14977c-0.26688 0.06752-0.46027-0.11561-0.46027-0.11561-0.20231-0.76108 0.30602-1.4427 0.30602-1.4427 0.82706-0.89703 1.9834-0.53399 1.9834-0.53399 0.57031 0.17903 0.36545 0.53399 0.36545 0.53399z" fill="#fafafa" stroke-width=".034205" p-id="15435"/>
</svg>
