<?xml version="1.0" encoding="UTF-8"?>
<svg width="64" height="64" version="1.1" viewBox="0 0 16.933 16.933" xmlns="http://www.w3.org/2000/svg" xmlns:cc="http://creativecommons.org/ns#" xmlns:dc="http://purl.org/dc/elements/1.1/" xmlns:rdf="http://www.w3.org/1999/02/22-rdf-syntax-ns#">
 <metadata>
  <rdf:RDF>
   <cc:Work rdf:about="">
    <dc:format>image/svg+xml</dc:format>
    <dc:type rdf:resource="http://purl.org/dc/dcmitype/StillImage"/>
    <dc:title/>
   </cc:Work>
  </rdf:RDF>
 </metadata>
 <defs>
  <linearGradient id="b" x1="399.57" x2="399.57" y1="545.8" y2="517.8" gradientTransform="matrix(.56696 0 0 .56696 -218.64 -293.15)" gradientUnits="userSpaceOnUse">
   <stop stop-color="#3889e9" offset="0"/>
   <stop stop-color="#5ea5fb" offset="1"/>
  </linearGradient>
  <linearGradient id="linearGradient1001" x1="32.431" x2="32.431" y1="61.873" y2="1.6692" gradientTransform="matrix(.26458 0 0 .26458 -30.421 1.3152e-5)" gradientUnits="userSpaceOnUse">
   <stop stop-color="#1d2123" offset="0"/>
   <stop stop-color="#33393e" offset="1"/>
  </linearGradient>
 </defs>
 <g fill="#5e4aa6">
  <circle cx="-330.35" cy="-328.37" r="0" image-rendering="optimizeSpeed" stroke-width=".26458"/>
  <g stroke-width=".26458">
   <circle cx="-330.35" cy="-328.38" r="0" image-rendering="optimizeSpeed"/>
   <circle cx="-330.35" cy="-328.38" r="0" image-rendering="optimizeSpeed"/>
   <circle cx="-352.63" cy="-336.84" r="0" image-rendering="optimizeSpeed"/>
  </g>
  <circle cx="-330.35" cy="-328.37" r="0" image-rendering="optimizeSpeed" stroke-width=".26458"/>
  <circle cx="-305.84" cy="-328.27" r="0" image-rendering="optimizeSpeed" stroke-width=".26458"/>
  <g stroke-width=".26458">
   <circle cx="-305.84" cy="-328.28" r="0" image-rendering="optimizeSpeed"/>
   <circle cx="-305.84" cy="-328.28" r="0" image-rendering="optimizeSpeed"/>
   <circle cx="-328.12" cy="-336.74" r="0" image-rendering="optimizeSpeed"/>
  </g>
  <circle cx="-305.84" cy="-328.27" r="0" image-rendering="optimizeSpeed" stroke-width=".26458"/>
  <circle cx="-305.03" cy="-328.69" r="0" stroke-width=".26458"/>
 </g>
 <path d="m13.292 2.3001q-1.0212-0.78646-2.2341-1.2053-1.2534-0.43319-2.5934-0.43319c-4.3841 0-7.9381 3.5538-7.9381 7.9376 0 4.0105 2.9752 7.3246 6.838 7.8604 0.18842 0.02607 0.37938 0.04626 0.57114 0.05804 0.17496 0.01093 0.35078 0.0185 0.5291 0.0185 4.3833 0 7.9366-3.5538 7.9366-7.9371 0-0.34654-0.02187-0.68888-0.06477-1.0228-0.04963-0.39028-0.13038-0.76966-0.23385-1.1389q-0.3516-1.2407-1.0801-2.3088-0.72005-1.0523-1.7304-1.8286z" opacity=".2" stroke-width=".26385"/>
 <path d="m13.292 2.0354q-1.0212-0.78646-2.2341-1.2053-1.2534-0.43319-2.5934-0.43319c-4.3841 0-7.9381 3.5538-7.9381 7.9376 0 4.0105 2.9752 7.3246 6.838 7.8604 0.18842 0.02608 0.37938 0.04626 0.57114 0.05804 0.17496 0.01093 0.35078 0.0185 0.5291 0.0185 4.3833 0 7.9366-3.5538 7.9366-7.9371 0-0.34654-0.02187-0.68888-0.06477-1.0228-0.04963-0.39028-0.13038-0.76966-0.23385-1.1389q-0.3516-1.2407-1.0801-2.3088-0.72005-1.0523-1.7304-1.8286z" fill="url(#linearGradient1001)" stroke-width=".26385"/>
 <circle cx="8.469" cy="8.3459" r="7.9376" fill-opacity="0" stroke-width=".41578"/>
 <circle cx="8.469" cy="8.3459" r="0" fill="url(#b)" stroke-width=".41578"/>
 <g transform="translate(16.159 -1.574)" stroke-width=".29398">
  <path d="m-9.6765 12.025a1.9843 1.9843 0 0 0-1.9843 1.9843 1.9843 1.9843 0 0 0 1.9843 1.9843 1.9843 1.9843 0 0 0 1.9843-1.9843v-1.9843z" fill="#09c37b"/>
  <path d="m-9.6765 8.0561h1.9843v3.9687h-1.9843c-1.0993 0-1.9843-0.88502-1.9843-1.9843 0-1.0993 0.88501-1.9843 1.9843-1.9843z" fill="#9154dd"/>
  <circle cx="-5.7079" cy="10.04" r="1.9843" fill="#01b1f8"/>
  <path d="m-9.6765 4.0874c-1.0993 0-1.9843 0.88501-1.9843 1.9843 0 1.0993 0.88501 1.9843 1.9843 1.9843h1.9843v-3.9687z" fill="#f24e1e"/>
  <path d="m-7.6922 4.0874h1.9843c1.0993 0 1.9843 0.88501 1.9843 1.9843 0 1.0993-0.88501 1.9843-1.9843 1.9843h-1.9843z" fill="#ff7262"/>
 </g>
</svg>
