<?xml version="1.0" encoding="UTF-8"?>
<svg width="64" height="64" version="1.1" viewBox="0 0 16.933 16.933" xmlns="http://www.w3.org/2000/svg" xmlns:cc="http://creativecommons.org/ns#" xmlns:dc="http://purl.org/dc/elements/1.1/" xmlns:rdf="http://www.w3.org/1999/02/22-rdf-syntax-ns#">
 <metadata>
  <rdf:RDF>
   <cc:Work rdf:about="">
    <dc:format>image/svg+xml</dc:format>
    <dc:type rdf:resource="http://purl.org/dc/dcmitype/StillImage"/>
    <dc:title/>
   </cc:Work>
  </rdf:RDF>
 </metadata>
 <defs>
  <style type="text/css"/>
  <style type="text/css"/>
  <filter id="filter1877" x="-.041878" y="-.031569" width="1.0838" height="1.0631" color-interpolation-filters="sRGB">
   <feGaussianBlur stdDeviation="0.19012955"/>
  </filter>
  <linearGradient id="linearGradient3389" x1="-182.7" x2="-177.97" y1="-4.3191" y2="-14.276" gradientTransform="matrix(1.3298 0 0 1.0937 266.21 18.385)" gradientUnits="userSpaceOnUse">
   <stop stop-color="#3287ff" offset="0"/>
   <stop stop-color="#32b4ff" offset="1"/>
  </linearGradient>
  <linearGradient id="linearGradient3391" x1="-176.72" x2="-170.2" y1="-1.2665" y2="-15.817" gradientTransform="matrix(1.3298 0 0 1.0937 266.21 18.385)" gradientUnits="userSpaceOnUse">
   <stop stop-color="#f5faff" offset="0"/>
   <stop stop-color="#fff" offset="1"/>
  </linearGradient>
 </defs>
 <circle cx="8.4665" cy="8.73" r="7.9375" opacity=".2" stroke-width=".14032"/>
 <circle cx="-330.35" cy="-328.38" r="0" fill="#5e4aa6" stroke-width=".26458"/>
 <g transform="translate(-21.701 -.51603)">
  <path d="m30.193 1.1038a7.9374 7.9374 0 0 0-7.9374 7.9374 7.9374 7.9374 0 0 0 7.9374 7.9374 7.9374 7.9374 0 0 0 0.96842-0.0693c-6e-3 -0.0128-0.0128-0.0226-0.0176-0.0398-0.0653-0.23335-0.1173-0.51408-0.15812-0.82578-0.0817-0.62337-0.11915-1.3707-0.13384-2.1099-0.0294-1.4784 0.0339-2.9255 0.0248-3.2871-4e-3 -0.18085-0.0779-0.29387-0.18862-0.36223-0.11078-0.0684-0.25917-0.0918-0.41287-0.0941-0.30747-4e-3 -0.63743 0.0765-0.73691 0.0584-0.0995-0.0181-0.34425-0.0593-0.5798-0.2589-0.11779-0.0998-0.233-0.23909-0.3271-0.4351-0.0941-0.19602-0.16697-0.44852-0.19895-0.77461-0.016-0.16305 0.016-0.40838 0.0842-0.71365 0.0682-0.30528 0.1729-0.67071 0.30178-1.0718 0.25776-0.80208 0.61337-1.7488 0.97304-2.6551 0.65066-1.6397 1.2165-2.9159 1.3317-3.1755a7.9374 7.9374 0 0 0-0.93016-0.0605z" fill="url(#linearGradient3389)" stroke-width="1.206"/>
  <path transform="matrix(.26372 0 0 .26372 21.746 .62906)" d="m34.426 2.5762c-0.29512 0.6696-2.5316 5.7289-5.0098 12.021-1.3184 3.3475-2.6235 6.8426-3.5684 9.8047-0.47242 1.4811-0.85554 2.8296-1.1055 3.957-0.24997 1.1275-0.36717 2.0345-0.30859 2.6367 0.11719 1.2044 0.38551 2.1374 0.73047 2.8613 0.345 0.72397 0.76552 1.2387 1.1973 1.6074 0.86345 0.73731 1.7604 0.88826 2.125 0.95508 0.36462 0.06677 1.5762-0.23351 2.7031-0.2168 0.56348 0.0085 1.1057 0.09703 1.5117 0.34961 0.40603 0.25257 0.67482 0.67191 0.69141 1.3398 0.0331 1.3359-0.19756 6.6781-0.08984 12.139 0.05388 2.7302 0.19092 5.4889 0.49024 7.791 0.14971 1.1512 0.34069 2.189 0.58008 3.0508 0.05773 0.20784 0.14736 0.29581 0.21094 0.48242h3.4453a30 30 0 0 0 17.695-11.055 29.695 30.824 0 0 0 5.8887-18.338 29.695 30.824 0 0 0-4.918-16.938 30 30 0 0 0-18.877-12.449z" filter="url(#filter1877)" opacity=".2" stroke-width="4.4372"/>
  <path d="m31.123 1.1642c-0.11521 0.25942-0.68103 1.5358-1.3317 3.1755-0.35967 0.90637-0.71529 1.8531-0.97305 2.6551-0.12888 0.40102-0.23359 0.76596-0.30178 1.0712-0.0682 0.30527-0.10021 0.55112-0.0842 0.71415 0.032 0.3261 0.10485 0.57861 0.19895 0.77461 0.0941 0.19602 0.20933 0.3353 0.3271 0.4351 0.23556 0.19965 0.48035 0.24082 0.5798 0.2589 0.0995 0.0181 0.42944-0.0634 0.73691-0.0589 0.15373 2e-3 0.30213 0.0262 0.41288 0.0946 0.11077 0.0684 0.1841 0.18139 0.18862 0.36223 9e-3 0.36171-0.0542 1.8086-0.0248 3.2871 0.0147 0.73924 0.0522 1.4861 0.13384 2.1094 0.0408 0.3117 0.0928 0.59242 0.15813 0.82578 5e-3 0.0174 0.012 0.0274 0.0181 0.0403a7.9374 7.9374 0 0 0 6.9685-7.8681 7.9374 7.9374 0 0 0-7.0071-7.8768z" fill="url(#linearGradient3391)" stroke-width="1.206"/>
  <circle cx="26.366" cy="6.4873" r=".83592" fill="#0a46a0" stroke-width=".86412" style="paint-order:stroke fill markers"/>
  <circle cx="33.277" cy="6.4873" r=".83592" fill="#0a46a0" stroke-width=".86412" style="paint-order:stroke fill markers"/>
 </g>
</svg>
