<svg width="64" height="64" version="1.1" viewBox="0 0 16.933 16.933" xmlns="http://www.w3.org/2000/svg" xmlns:xlink="http://www.w3.org/1999/xlink">
 <defs>
  <linearGradient id="a" x1="-6.1472" x2="-6.1472" y1="-137.82" y2="-100.78" gradientTransform="matrix(.53033 0 0 .53033 11.536 352.06)" gradientUnits="userSpaceOnUse">
   <stop stop-color="#14dc78" offset="0"/>
   <stop stop-color="#14a03c" offset="1"/>
  </linearGradient>
 </defs>
 <g transform="translate(0 -280.07)">
  <circle cx="-330.35" cy="-48.312" r="0" fill="#5e4aa6" stroke-width=".26458"/>
  <circle cx="8.4935" cy="288.8" r="7.9375" opacity=".2" stroke-width=".14032"/>
  <circle cx="8.4935" cy="288.53" r="7.9375" fill="url(#a)" stroke-width=".14032"/>
  <path d="m5.0327 286.01v2.6227s0.24898 3.0709 3.4525 4.2495c0 0 2.9877-0.61418 3.4691-4.2495v-2.6227s-2.1744-0.1494-3.4691-1.1122c0 0-1.4607 1.1122-3.4525 1.1122z" fill="#146446" opacity=".5"/>
  <path d="m4.8705 285.52v2.7455s0.26065 3.2147 3.6144 4.4485c0 0 3.1278-0.64294 3.6318-4.4485v-2.7455s-2.2764-0.15641-3.6318-1.1643c0 0-1.5292 1.1643-3.6144 1.1643z" fill="#fff"/>
  <g transform="matrix(1.4861 0 0 1.4861 -3.9044 -140.15)" fill="#146432" fill-rule="evenodd" opacity=".3">
   <path d="m8.3427 287.42a0.17262 0.12137 0 0 0-0.17262 0.12114 0.17262 0.12137 0 0 0 0 2e-4v1.9174a0.17262 0.12137 0 0 0 0 2e-4 0.17262 0.12137 0 0 0 0.17262 0.12114 0.17262 0.12137 0 0 0 0.17262-0.12114 0.17262 0.12137 0 0 0 0-2e-4v-1.9174a0.17262 0.12137 0 0 0 0-2e-4 0.17262 0.12137 0 0 0-0.17262-0.12114z"/>
   <path d="m9.4227 288.5a0.12137 0.17262 0 0 0-0.12114-0.17262 0.12137 0.17262 0 0 0-2e-4 0h-1.9174a0.12137 0.17262 0 0 0-2e-4 0 0.12137 0.17262 0 0 0-0.12114 0.17262 0.12137 0.17262 0 0 0 0.12114 0.17262 0.12137 0.17262 0 0 0 2e-4 0h1.9174a0.12137 0.17262 0 0 0 2e-4 0 0.12137 0.17262 0 0 0 0.12114-0.17262z"/>
  </g>
  <g transform="matrix(1.4861 0 0 1.4861 -3.9044 -140.21)" fill="#149632" fill-rule="evenodd">
   <path d="m8.3427 287.42a0.17262 0.12137 0 0 0-0.17262 0.12114 0.17262 0.12137 0 0 0 0 2e-4v1.9174a0.17262 0.12137 0 0 0 0 2e-4 0.17262 0.12137 0 0 0 0.17262 0.12114 0.17262 0.12137 0 0 0 0.17262-0.12114 0.17262 0.12137 0 0 0 0-2e-4v-1.9174a0.17262 0.12137 0 0 0 0-2e-4 0.17262 0.12137 0 0 0-0.17262-0.12114z"/>
   <path d="m9.4227 288.5a0.12137 0.17262 0 0 0-0.12114-0.17262 0.12137 0.17262 0 0 0-2e-4 0h-1.9174a0.12137 0.17262 0 0 0-2e-4 0 0.12137 0.17262 0 0 0-0.12114 0.17262 0.12137 0.17262 0 0 0 0.12114 0.17262 0.12137 0.17262 0 0 0 2e-4 0h1.9174a0.12137 0.17262 0 0 0 2e-4 0 0.12137 0.17262 0 0 0 0.12114-0.17262z"/>
  </g>
  <ellipse cx="-39.434" cy="286.51" r=".90502" fill="#5e4aa6" fill-rule="evenodd" stroke-width=".26458"/>
 </g>
</svg>
