<?xml version="1.0" encoding="UTF-8" standalone="no"?>
<svg
   xmlns:dc="http://purl.org/dc/elements/1.1/"
   xmlns:cc="http://creativecommons.org/ns#"
   xmlns:rdf="http://www.w3.org/1999/02/22-rdf-syntax-ns#"
   xmlns:svg="http://www.w3.org/2000/svg"
   xmlns="http://www.w3.org/2000/svg"
   xmlns:xlink="http://www.w3.org/1999/xlink"
   xmlns:sodipodi="http://sodipodi.sourceforge.net/DTD/sodipodi-0.dtd"
   xmlns:inkscape="http://www.inkscape.org/namespaces/inkscape"
   inkscape:version="1.0 (4035a4fb49, 2020-05-01)"
   sodipodi:docname="libreoffice-base.svg"
   id="svg57"
   viewBox="0 0 64 64"
   version="1.1"
   height="64"
   width="64">
  <sodipodi:namedview
     inkscape:current-layer="svg57"
     inkscape:window-maximized="1"
     inkscape:window-y="0"
     inkscape:window-x="0"
     inkscape:cy="32"
     inkscape:cx="32"
     inkscape:zoom="12.75"
     showgrid="false"
     id="namedview59"
     inkscape:window-height="985"
     inkscape:window-width="1920"
     inkscape:pageshadow="2"
     inkscape:pageopacity="0"
     guidetolerance="10"
     gridtolerance="10"
     objecttolerance="10"
     borderopacity="1"
     bordercolor="#666666"
     pagecolor="#ffffff" />
  <metadata
     id="metadata2">
    <rdf:RDF>
      <cc:Work
         rdf:about="">
        <dc:format>image/svg+xml</dc:format>
        <dc:type
           rdf:resource="http://purl.org/dc/dcmitype/StillImage" />
        <dc:title></dc:title>
      </cc:Work>
    </rdf:RDF>
  </metadata>
  <defs
     id="defs32">
    <linearGradient
       gradientUnits="userSpaceOnUse"
       gradientTransform="matrix(1.3182 0 0 1.3182 -506.82 -658.63)"
       y2="501.28"
       y1="546.47"
       x2="410.79"
       x1="410.79"
       id="b-3">
      <stop
         id="stop4"
         offset="0"
         stop-color="#cfdef0" />
      <stop
         id="stop6"
         offset="1"
         stop-color="#f5faff" />
    </linearGradient>
    <linearGradient
       xlink:href="#b-3"
       gradientUnits="userSpaceOnUse"
       y2="-408.14"
       y1="-11.494"
       x2="362.87"
       x1="362.87"
       id="linearGradient2678" />
    <linearGradient
       gradientUnits="userSpaceOnUse"
       gradientTransform="matrix(.9905 0 0 .9515 .88626 2.4434)"
       y2="31.042"
       y1="34.339"
       x2="137.18"
       x1="121.64"
       id="linearGradient1089">
      <stop
         id="stop10"
         offset="0" />
      <stop
         id="stop12"
         offset=".7761"
         stop-opacity=".054902" />
      <stop
         id="stop14"
         offset=".91316"
         stop-opacity=".027451" />
      <stop
         id="stop16"
         offset=".9324"
         stop-opacity=".019608" />
      <stop
         id="stop18"
         offset=".9501"
         stop-opacity=".011765" />
      <stop
         id="stop20"
         offset="1"
         stop-opacity="0" />
    </linearGradient>
    <filter
       color-interpolation-filters="sRGB"
       height="1.0208"
       width="1.0283"
       y="-.010421"
       x="-.014142"
       id="filter1047">
      <feGaussianBlur
         id="feGaussianBlur23"
         stdDeviation="0.25616634" />
    </filter>
    <linearGradient
       xlink:href="#b-3"
       gradientUnits="userSpaceOnUse"
       gradientTransform="matrix(1.3182 0 0 1.3182 -506.51 -658.51)"
       y2="501.28"
       y1="546.47"
       x2="410.79"
       x1="410.79"
       id="linearGradient901" />
    <linearGradient
       gradientUnits="userSpaceOnUse"
       gradientTransform="matrix(.46646 -.07087 .07087 .46646 -115.55 -1.8856)"
       y2="61.911"
       y1="2.6"
       x2="2.5178"
       x1="44.678"
       id="linearGradient942">
      <stop
         id="stop27"
         offset="0"
         stop-color="#be5ae6" />
      <stop
         id="stop29"
         offset="1"
         stop-color="#6e28b4" />
    </linearGradient>
  </defs>
  <filter
     color-interpolation-filters="sRGB"
     height="1.411"
     width="1.5499"
     y="-.20549"
     x="-.27495"
     id="b">
    <feGaussianBlur
       id="feGaussianBlur34"
       stdDeviation="16.133919" />
  </filter>
  <rect
     id="rect37"
     stroke-width="1.0044"
     fill="url(#linearGradient901)"
     ry="29.788"
     height="59.576"
     width="59.576"
     y="2.3348"
     x="2.5178" />
  <g
     id="g45"
     transform="matrix(.10696 0 0 .10696 .81338 54.556)">
    <rect
       id="rect39"
       fill="#be5ae6"
       ry="25.079"
       height="411.66"
       width="195.15"
       y="-442.82"
       x="262.38"
       transform="rotate(3.9056)" />
    <path
       id="path41"
       fill="url(#linearGradient2678)"
       d="m288.52-403.4 175.71 11.996-25.015 366.4-175.71-11.996z" />
    <path
       id="path43"
       fill="#be5ae6"
       d="m315.64-357.29c-70.808-6.2575-131.01 20.324-134.46 59.373s51.153 75.776 121.96 82.033c70.808 6.2575 131.01-20.324 134.46-59.373 3.4508-39.049-51.153-75.776-121.96-82.033zm-135.32 69.094-0.39046 4.4183c0.13438-1.5206 0.48748-2.9013 0.79124-4.3829zm-0.39046 4.4183-5.2512 59.42 0.80157 0.0708c2.6832 36.526 54.851 69.424 121.75 75.336 66.896 5.9118 124.02-17.328 133.07-52.817l0.80157 0.0708 0.58578-6.6284 4.6654-52.792c-3.4508 39.049-63.652 65.632-134.46 59.375-70.808-6.2575-125.41-42.987-121.96-82.035zm256.42 22.661 0.39046-4.4183-0.40078-0.0354c0.0394 1.5119 0.1447 2.9331 0.0103 4.4538zm-262.11 41.739-0.39064 4.4203c0.13438-1.5206 0.48766-2.9032 0.79141-4.3849zm-0.39064 4.4203-4.6654 52.792-0.58577 6.6285 0.80156 0.0708c2.6832 36.526 54.851 69.422 121.75 75.334 66.896 5.9118 124.02-17.326 133.07-52.815l0.80156 0.0708 0.58578-6.6285 4.6654-52.792c-3.4508 39.049-63.651 65.63-134.46 59.373-70.808-6.2575-125.41-42.985-121.96-82.033zm256.42 22.661 0.39063-4.4203-0.40077-0.0354c0.0394 1.5119 0.14452 2.9351 0.0101 4.4557z" />
  </g>
  <path
     id="path47"
     stroke-width="1.015"
     opacity=".6"
     filter="url(#filter1047)"
     fill="url(#linearGradient1089)"
     d="m123.85 2.4824c-16.938 0.086086-30.551 13.197-30.551 29.489 0 0.19459 0.01161 0.38615 0.01548 0.57982 0.32029-15.379 13.264-27.664 29.332-27.746 0.16667 0.050165 0.35914 0.035626 0.51848 0.10035 0.6516 0.26471 1.2387 0.64725 1.7314 1.1206 0.49277 0.47336 0.89098 1.0373 1.1665 1.6633 0.27558 0.62595 0.42754 1.3143 0.42754 2.0368v19.952c0 1.0057 0.30628 1.964 0.84928 2.7764 0.543 0.81248 1.3237 1.4786 2.2751 1.8974l3.1243 1.3752c0.70702 0.31142 1.2879 0.80687 1.6908 1.4105 0.40294 0.60365 0.62872 1.3161 0.62872 2.0628v18.564c0 0.43909-0.11725 0.84498-0.25923 1.2377-3.5018 1.4946-7.3474 2.3823-11.418 2.4605 0.2106 4e-3 0.41902 0.01487 0.63067 0.01487 4.4616 0 8.6693-0.94795 12.488-2.5776 0.14781-0.4088 0.27085-0.83078 0.27085-1.2879v-19.324c0-0.77734-0.23637-1.5199-0.65584-2.1483-0.41945-0.62838-1.0245-1.1439-1.7605-1.4681l-3.252-1.431c-0.99035-0.43599-1.8027-1.1297-2.3679-1.9755-0.56526-0.84578-0.8841-1.8429-0.8841-2.8898v-20.769c0-0.75209-0.1581-1.4688-0.44495-2.1204-0.28686-0.6516-0.70198-1.2393-1.2149-1.732-0.51297-0.49276-1.1228-0.88966-1.8011-1.1652-0.16587-0.067379-0.36627-0.053707-0.53976-0.10593z"
     transform="matrix(1.0001 0 0 .99488 -90.787 .18495)" />
  <path
     id="path49"
     stroke-width="1.0044"
     fill="url(#linearGradient942)"
     d="m44.417 59.31c0.14334-0.41272 0.26172-0.83931 0.26172-1.3008v-19.51c0-0.7848-0.22795-1.5335-0.63476-2.168-0.40682-0.63442-0.99323-1.1551-1.707-1.4824l-3.1543-1.4453c-0.96049-0.44017-1.7487-1.1402-2.2969-1.9941s-0.85742-1.861-0.85742-2.918v-20.969c0-0.75931-0.15343-1.4828-0.43164-2.1406-0.27821-0.65786-0.68024-1.2506-1.1777-1.748-0.4975-0.49749-1.0902-0.89953-1.748-1.1777-0.16086-0.068026-0.35518-0.052746-0.52344-0.10547-16.427 0.086914-29.629 13.323-29.629 29.771 0 16.503 13.285 29.789 29.787 29.789 4.3271 0 8.4081-0.95627 12.111-2.6016z" />
  <g
     id="g55"
     word-spacing="0"
     stroke-width="2.5208"
     letter-spacing="0"
     font-weight="bold"
     font-stretch="condensed"
     font-size="242px"
     font-family="'TeX Gyre Heros Cn'"
     transform="matrix(.075702 -.01061 .01061 .075702 10.558 14.355)">
    <g
       style="font-size:322.12px;fill:#ffffff;stroke-width:3.3554"
       id="text53"
       transform="rotate(8.005)"
       aria-label="B">
      <path
         id="path884"
         style="stroke-width:3.3554"
         d="m 58.276005,361.54379 h 80.207875 c 32.85624,0 47.02952,-4.8318 60.23644,-20.61568 10.95208,-13.20692 16.42812,-29.95716 16.42812,-48.96224 0,-12.8848 -2.57696,-24.48112 -7.08664,-33.50048 -5.15392,-9.98572 -10.30784,-15.13964 -22.22628,-21.58204 16.42812,-10.30784 23.19264,-23.51476 23.19264,-46.38527 0,-37.36592 -22.22628,-60.23644 -58.62584,-60.23644 H 58.276005 Z m 38.01016,-101.4678 H 146.859 c 18.03872,0 28.66868,10.62996 28.66868,28.9908 0,21.25992 -10.62996,32.85624 -30.6014,32.85624 H 96.286165 Z m 0,-90.19359 h 45.418915 c 20.29356,0 29.31292,7.73088 29.31292,24.48112 0,17.07235 -9.98572,26.41383 -28.34656,26.41383 H 96.286165 Z" />
    </g>
  </g>
</svg>
