<?xml version="1.0" encoding="UTF-8"?>
<svg width="64" height="64" version="1.1" viewBox="0 0 16.933 16.933" xmlns="http://www.w3.org/2000/svg" xmlns:cc="http://creativecommons.org/ns#" xmlns:dc="http://purl.org/dc/elements/1.1/" xmlns:rdf="http://www.w3.org/1999/02/22-rdf-syntax-ns#" xmlns:xlink="http://www.w3.org/1999/xlink">
 <metadata>
  <rdf:RDF>
   <cc:Work rdf:about="">
    <dc:format>image/svg+xml</dc:format>
    <dc:type rdf:resource="http://purl.org/dc/dcmitype/StillImage"/>
    <dc:title/>
   </cc:Work>
  </rdf:RDF>
 </metadata>
 <defs>
  <style id="current-color-scheme" type="text/css">.ColorScheme-Text { color:#4d4d4d; }</style>
 </defs>
 <circle cx="8.4665" cy="8.7311" r="7.9373" fill-rule="evenodd" opacity=".15" style="paint-order:fill markers stroke"/>
 <circle cx="-309.57" cy="-329.02" r="0" fill="#5e4aa6" stroke-width=".26458"/>
 <g transform="translate(.00705 .00855)" stroke-width=".035416">
  <path d="m14.062 2.8551c-0.05631 0.056349 2.3278 5.6066 2.3278 5.6066l-2.3278 5.6066s-5.6025-2.9636-5.6025-5.6066c0-2.6429 5.6025-5.6066 5.6025-5.6066z" fill="#46a926"/>
  <path d="m2.8569 14.068c0.056304-0.056349-2.3278-5.6066-2.3278-5.6066l2.3278-5.6066s5.6025 2.9636 5.6025 5.6066c0 2.6429-5.6025 5.6066-5.6025 5.6066z" fill="#f22c42"/>
  <path d="m14.062 2.8551c-0.056304 0.056349-5.6025-2.3295-5.6025-2.3295l-5.6025 2.3295 5.6025 5.6066z" fill="#ffda64"/>
  <path d="m2.8569 14.068 5.6025 2.3223s5.5462-2.3786 5.6025-2.3223l-5.6025-5.6066z" fill="#2f5fdd"/>
 </g>
 <g transform="translate(.0034906 .0013)" stroke-width=".070831">
  <path d="m8.4629 0.52923a7.9302 7.936 0 0 0-0.0036 1.4171e-4c-8.819e-4 2.0279 0.77496 4.0561 2.3277 5.61l3.2798-3.2822a7.9302 7.936 0 0 0-5.6039-2.3279z" fill="#a6d74f"/>
  <path d="m14.067 2.8572-3.2798 3.2822c1.5528 1.5539 3.5795 2.3303 5.6059 2.3294a7.9302 7.936 0 0 0 1.41e-4 -0.0036 7.9302 7.936 0 0 0-2.3262-5.6081z" fill="#76c22b"/>
  <path d="m10.78 10.791c-1.5526 1.5538-2.3285 3.5817-2.3277 5.6095a7.9302 7.936 0 0 0 0.010787 5.66e-4 7.9302 7.936 0 0 0 5.6004-2.3242z" fill="#1463a5"/>
  <path d="m16.382 8.4617c-2.0252 0-4.0506 0.77659-5.6024 2.3296l3.2834 3.2859a7.9302 7.936 0 0 0 2.3298-5.6118 7.9302 7.936 0 0 0-1.42e-4 -0.00346c-0.0035-5e-6 -0.0071-1.417e-4 -0.01065-1.417e-4z" fill="#2b898f"/>
  <path d="m0.53333 8.4546a7.9302 7.936 0 0 0-5.5228e-4 0.010794 7.9302 7.936 0 0 0 2.3226 5.6047l3.2834-3.2859c-1.5526-1.5538-3.5792-2.3303-5.6055-2.3296z" fill="#9b33ae"/>
  <path d="m6.1391 10.784-3.2834 3.2859a7.9302 7.936 0 0 0 5.6075 2.3313 7.9302 7.936 0 0 0 0.00346-1.42e-4c0.00273-2.0303-0.77298-4.0614-2.3276-5.6171z" fill="#7839b7"/>
  <path d="m8.4629 0.52923a7.9302 7.936 0 0 0-5.6005 2.3242l3.2836 3.286c1.5526-1.5538 2.3285-3.5818 2.3277-5.6096a7.9302 7.936 0 0 0-0.010787-5.5269e-4z" fill="#fdc92b"/>
  <path d="m2.8624 2.8534a7.9302 7.936 0 0 0-2.3296 5.6118 7.9302 7.936 0 0 0 1.4161e-4 0.00346c2.0288 0.0027258 4.0585-0.77355 5.6131-2.3293z" fill="#f34f17"/>
  <path d="m8.463 0.5292a7.9302 7.936 0 0 0-7.9302 7.936 7.9302 7.936 0 0 0 7.9302 7.936z" enable-background="new" opacity=".05"/>
 </g>
 <circle cx="8.4665" cy="8.4665" r="5.2916" fill="#fafafa" fill-rule="evenodd" stroke-width=".88389" style="paint-order:stroke fill markers"/>
 <g transform="translate(-1.3272 -.23043)" fill="#323232">
  <path d="m9.7944 4.892a0.126 0.126 0 0 0-0.088 0.038l-2.102 2.102a3.175 3.175 0 0 0-0.056 0.05 3.175 3.175 0 0 0 0 4.49 3.175 3.175 0 0 0 4.49 0 3.175 3.175 0 0 0 1e-3 -4.49 3.175 3.175 0 0 0-0.076-0.07c-4e-3 -5e-3 -5e-3 -0.01-0.01-0.015l-2.067-2.067a0.126 0.126 0 0 0-0.092-0.038zm0.023 2.848a1.588 1.588 0 0 1 1.1 0.465 1.588 1.588 0 0 1 0 2.245 1.588 1.588 0 0 1-2.246 0 1.588 1.588 0 0 1 0-2.245 1.588 1.588 0 0 1 1.146-0.465z" color="#000000" fill="#323232" overflow="visible" style="isolation:auto;mix-blend-mode:normal;paint-order:fill markers stroke"/>
 </g>
</svg>
