<svg width="64" height="64" version="1.1" viewBox="0 0 16.933 16.933" xmlns="http://www.w3.org/2000/svg" xmlns:xlink="http://www.w3.org/1999/xlink">
 <defs>
  <linearGradient id="f" x1="10.798" x2="10.798" y1="282.88" y2="283.29" gradientTransform="matrix(1.0543 0 0 .55499 -3.3237 125.99)" gradientUnits="userSpaceOnUse" xlink:href="#a"/>
  <linearGradient id="a">
   <stop stop-color="#969696" offset="0"/>
   <stop stop-color="#e6e6e6" stop-opacity=".90196" offset="1"/>
  </linearGradient>
  <linearGradient id="g" x1="8.8166" x2="8.8166" y1="293.7" y2="294.12" gradientTransform="matrix(.94579 0 0 .555 .28524 130.86)" gradientUnits="userSpaceOnUse" xlink:href="#a"/>
  <linearGradient id="e" x1="7.998" x2="7.998" y1="284.98" y2="285.41" gradientTransform="matrix(.94579 0 0 .555 .49316 126.98)" gradientUnits="userSpaceOnUse" xlink:href="#a"/>
  <linearGradient id="d" x1="8.7643" x2="8.7643" y1="287.18" y2="287.64" gradientTransform="matrix(.94579 0 0 .555 .48658 127.95)" gradientUnits="userSpaceOnUse" xlink:href="#a"/>
  <linearGradient id="c" x1="8.3178" x2="8.3178" y1="289.36" y2="289.81" gradientTransform="matrix(.94579 0 0 .555 .46856 128.92)" gradientUnits="userSpaceOnUse" xlink:href="#a"/>
  <linearGradient id="b" x1="8.2553" x2="8.2553" y1="291.55" y2="291.96" gradientTransform="matrix(.94579 0 0 .55502 .57869 129.88)" gradientUnits="userSpaceOnUse" xlink:href="#a"/>
 </defs>
 <g transform="translate(0 -280.07)">
  <g>
   <circle cx="8.4935" cy="288.8" r="7.9375" opacity=".2" stroke-width=".14032"/>
   <circle cx="8.4935" cy="288.53" r="7.9375" fill="#fafafa" style="paint-order:normal"/>
   <path d="m3.1182 283.02c-0.042211 0.0443-0.078974 0.0835-0.13658 0.14895l11.024 9.8e-4c-0.05944-0.0607-0.08604-0.0922-0.14076-0.15z" fill="url(#f)" opacity=".6" style="paint-order:normal"/>
   <path d="m2.9987 293.91c0.048566 0.052 0.080515 0.0907 0.1349 0.15h10.72c0.05003-0.0561 0.07465-0.0855 0.13441-0.15z" fill="url(#g)" opacity=".6" style="paint-order:normal"/>
   <path d="m1.7062 285.18c-0.022302 0.0517-0.037132 0.0892-0.065978 0.15h13.708c-0.02381-0.0504-0.04631-0.10145-0.06843-0.15z" fill="url(#e)" opacity=".6" style="paint-order:normal"/>
   <path d="m1.088 287.36c-0.00964 0.0489-0.015643 0.0999-0.024922 0.15h14.862c-0.0088-0.0501-0.01516-0.10114-0.0259-0.15z" fill="url(#d)" opacity=".6" style="paint-order:normal"/>
   <path d="m1.0618 289.55c0.00899 0.0501 0.01744 0.10011 0.027371 0.15h14.811c0.0093-0.0539 0.01711-0.0968 0.02541-0.15z" fill="url(#c)" opacity=".6" style="paint-order:normal"/>
   <path d="m1.6442 291.73c0.021867 0.0535 0.040442 0.0932 0.064512 0.15h13.57c0.02313-0.0512 0.03674-0.0804 0.06941-0.15z" fill="url(#b)" opacity=".6" style="paint-order:normal"/>
  </g>
  <path d="m10.612 280.93v5.5736l0.91542-0.93428 0.91593 0.93428v-4.7946a7.926 8.0848 0 0 0-1.8313-0.77901z" fill="#500000" fill-opacity=".93464" opacity=".2" style="paint-order:normal"/>
  <path d="m10.611 280.89v5.472l0.91674-0.91726 0.91726 0.91726v-4.7072a7.9375 7.9375 0 0 0-1.834-0.76482z" fill="#ff3232" style="paint-order:normal"/>
  <circle cx="-330.35" cy="-48.312" r="0" fill="#5e4aa6" stroke-width=".26458"/>
  <g transform="matrix(1.0776 0 0 1.0776 .93406 -20.822)">
   <g transform="rotate(-11.451 10.144 297.59)" fill="#828282" opacity=".5">
    <path class="st0" d="m9.1426 284.31c1.7329 0 3.1374 1.4046 3.1374 3.1374 0 1.7329-1.4045 3.1374-3.1374 3.1374-1.7329 0-3.1374-1.4045-3.1374-3.1374 0-1.7329 1.4045-3.1374 3.1374-3.1374z" clip-rule="evenodd" fill-rule="evenodd" opacity=".5" stroke-width=".15711"/>
    <rect class="st1" transform="rotate(-29.829)" x="-135.36" y="256.88" width=".64098" height="1.6292" stroke-width=".1571"/>
    <g clip-rule="evenodd" fill-rule="evenodd" stroke-width=".15711">
     <path class="st2" d="m10.995 291.69 0.88922-0.50902c0.12254-0.0707 0.27965-0.0268 0.35034 0.0943l1.6559 2.8892c0.07069 0.1226 0.02828 0.27965-0.09426 0.35033l-0.88922 0.50904c-0.12254 0.0707-0.27965 0.0283-0.35035-0.0943l-1.6559-2.8892c-0.07069-0.12259-0.02828-0.27966 0.09426-0.35036z"/>
     <path class="st3" d="m12.516 291.76 0.14454 0.25295-1.3307 0.76825-0.14454-0.25137zm0.25451 0.44461-1.3307 0.76825 0.14454 0.25294 1.3307-0.76825z"/>
     <path class="st4" d="m7.361 284.32c1.7187-0.98506 3.9104-0.3912 4.8954 1.3275 0.98505 1.7187 0.39119 3.9104-1.3275 4.8954-1.7187 0.98504-3.9104 0.39118-4.8954-1.3276-0.98505-1.7172-0.38962-3.9088 1.3275-4.8954zm0.30164 0.52473c-1.4281 0.81851-1.923 2.641-1.1029 4.069 0.81852 1.4281 2.6409 1.923 4.0706 1.1044 1.4281-0.81852 1.923-2.6409 1.1029-4.0706-0.82009-1.4281-2.6425-1.9214-4.0706-1.1029z"/>
    </g>
   </g>
   <path class="st0" d="m6.4761 284.53c1.6984-0.34401 3.3538 0.75375 3.6978 2.4521 0.34402 1.6984-0.75372 3.3538-2.4521 3.6978-1.6984 0.34402-3.3538-0.75372-3.6978-2.4521-0.34401-1.6984 0.75372-3.3538 2.4521-3.6978z" clip-rule="evenodd" fill="#fff" fill-rule="evenodd" opacity=".5" stroke-width=".15711"/>
   <rect class="st1" transform="rotate(-41.279)" x="-184.71" y="223.78" width=".64098" height="1.6292" fill="#757575" stroke-width=".1571"/>
   <g clip-rule="evenodd" fill-rule="evenodd" stroke-width=".15711">
    <path class="st2" d="m9.7555 291.39 0.77047-0.67541c0.10606-0.0936 0.26876-0.0818 0.36209 0.0229l2.1965 2.5029c0.09362 0.10613 0.08323 0.26847-0.02284 0.36207l-0.77046 0.67544c-0.10607 0.0936-0.26847 0.0833-0.36209-0.0229l-2.1965-2.5029c-0.09362-0.10611-0.08324-0.26848 0.02283-0.36209z" fill="#424242"/>
    <path class="st3" d="m11.261 291.16 0.19188 0.21922-1.1517 1.0171-0.19157-0.21767zm0.33771 0.38524-1.1517 1.0171 0.19188 0.21921 1.1517-1.0171z" fill="#757575"/>
    <path class="st4" d="m4.7315 284.89c1.489-1.3067 3.7549-1.1597 5.0615 0.32927 1.3067 1.489 1.1597 3.7549-0.32927 5.0615-1.489 1.3066-3.7549 1.1597-5.0615-0.32928-1.3063-1.4874-1.1578-3.7536 0.32927-5.0615zm0.39981 0.4544c-1.2372 1.0857-1.3604 2.9701-0.27314 4.207 1.0857 1.2372 2.9701 1.3604 4.2088 0.27436 1.2372-1.0857 1.3604-2.9701 0.27282-4.2085-1.0873-1.2368-2.9714-1.3586-4.2085-0.27282z" fill="#616161"/>
   </g>
  </g>
 </g>
</svg>
