<?xml version="1.0" encoding="UTF-8" standalone="no"?>
<svg
   xmlns:dc="http://purl.org/dc/elements/1.1/"
   xmlns:cc="http://creativecommons.org/ns#"
   xmlns:rdf="http://www.w3.org/1999/02/22-rdf-syntax-ns#"
   xmlns:svg="http://www.w3.org/2000/svg"
   xmlns="http://www.w3.org/2000/svg"
   xmlns:xlink="http://www.w3.org/1999/xlink"
   xmlns:sodipodi="http://sodipodi.sourceforge.net/DTD/sodipodi-0.dtd"
   xmlns:inkscape="http://www.inkscape.org/namespaces/inkscape"
   width="64"
   height="64"
   version="1.1"
   viewBox="0 0 16.933 16.933"
   id="svg39"
   sodipodi:docname="vidcutter.svg"
   inkscape:version="1.0.1 (3bc2e813f5, 2020-09-07)">
  <metadata
     id="metadata43">
    <rdf:RDF>
      <cc:Work
         rdf:about="">
        <dc:format>image/svg+xml</dc:format>
        <dc:type
           rdf:resource="http://purl.org/dc/dcmitype/StillImage" />
        <dc:title></dc:title>
      </cc:Work>
    </rdf:RDF>
  </metadata>
  <sodipodi:namedview
     pagecolor="#ffffff"
     bordercolor="#666666"
     borderopacity="1"
     objecttolerance="10"
     gridtolerance="10"
     guidetolerance="10"
     inkscape:pageopacity="0"
     inkscape:pageshadow="2"
     inkscape:window-width="1920"
     inkscape:window-height="1004"
     id="namedview41"
     showgrid="false"
     inkscape:zoom="3.1054687"
     inkscape:cx="-80.865168"
     inkscape:cy="14.685388"
     inkscape:window-x="0"
     inkscape:window-y="0"
     inkscape:window-maximized="1"
     inkscape:current-layer="svg39"
     inkscape:document-rotation="0" />
  <defs
     id="defs19">
    <linearGradient
       id="linearGradient851">
      <stop
         stop-color="#fff"
         offset="0"
         id="stop2" />
      <stop
         stop-color="#a3d0df"
         offset="1"
         id="stop4" />
    </linearGradient>
    <linearGradient
       id="linearGradient862"
       x1="7.9373"
       x2="7.9373"
       y1="15.081"
       y2="1.852"
       gradientUnits="userSpaceOnUse"
       gradientTransform="translate(-42.691027,-1.3527719)">
      <stop
         stop-color="#3fbefb"
         offset="0"
         id="stop7" />
      <stop
         stop-color="#8073f8"
         offset="1"
         id="stop9" />
    </linearGradient>
    <linearGradient
       id="linearGradient853"
       x1="6.879"
       x2="6.879"
       y1="6.3499"
       y2="10.583"
       gradientTransform="matrix(1.2 0 0 1.2222 -1.1642 -1.8814)"
       gradientUnits="userSpaceOnUse"
       xlink:href="#linearGradient851" />
    <linearGradient
       id="linearGradient861"
       x1="11.112"
       x2="11.112"
       y1="6.6145"
       y2="10.319"
       gradientTransform="matrix(1.4257 0 0 1.4257 -3.5989 -3.6043)"
       gradientUnits="userSpaceOnUse"
       xlink:href="#linearGradient851" />
    <linearGradient
       id="linearGradient1007"
       x1="46"
       x2="46"
       y1="60"
       y2="30"
       gradientTransform="matrix(.26458 0 0 .26458 -.00040544 .26454)"
       gradientUnits="userSpaceOnUse">
      <stop
         stop-color="#1e1e1e"
         offset="0"
         id="stop14" />
      <stop
         stop-color="#3c3c3c"
         offset="1"
         id="stop16" />
    </linearGradient>
    <linearGradient
       id="i"
       x1="400.4"
       x2="400.4"
       y1="545.62"
       y2="517.62"
       gradientTransform="matrix(0.41967,0,0,0.41967,-236.66,-184.77182)"
       gradientUnits="userSpaceOnUse">
      <stop
         stop-color="#d3d3d3"
         offset="0"
         id="stop869" />
      <stop
         stop-color="#fcf9f9"
         offset="1"
         id="stop871" />
    </linearGradient>
    <linearGradient
       id="f"
       x1="400.4"
       x2="400.4"
       y1="545.62"
       y2="517.62"
       gradientTransform="matrix(0.43343,0,0,0.43343,-256.41,-186.23182)"
       gradientUnits="userSpaceOnUse">
      <stop
         stop-color="#8d3aff"
         offset="0"
         id="stop874" />
      <stop
         stop-color="#ff3680"
         offset="1"
         id="stop876" />
    </linearGradient>
    <linearGradient
       id="i-1"
       x1="400.4"
       x2="400.4"
       y1="545.62"
       y2="517.62"
       gradientTransform="matrix(0.41967,0,0,0.41967,-225.62,-213.15182)"
       gradientUnits="userSpaceOnUse">
      <stop
         stop-color="#d3d3d3"
         offset="0"
         id="stop879" />
      <stop
         stop-color="#fcf9f9"
         offset="1"
         id="stop881" />
    </linearGradient>
    <linearGradient
       id="f-2"
       x1="400.4"
       x2="400.4"
       y1="545.62"
       y2="517.62"
       gradientTransform="matrix(0.43343,0,0,0.43343,-245.36,-214.60182)"
       gradientUnits="userSpaceOnUse">
      <stop
         stop-color="#8d3aff"
         offset="0"
         id="stop884" />
      <stop
         stop-color="#ff3680"
         offset="1"
         id="stop886" />
    </linearGradient>
    <linearGradient
       id="i-3"
       x1="400.4"
       x2="400.4"
       y1="545.62"
       y2="517.62"
       gradientTransform="matrix(0.41967,0,0,0.41967,-243.98,-178.57182)"
       gradientUnits="userSpaceOnUse">
      <stop
         stop-color="#d3d3d3"
         offset="0"
         id="stop889" />
      <stop
         stop-color="#fcf9f9"
         offset="1"
         id="stop891" />
    </linearGradient>
    <linearGradient
       id="f-6"
       x1="400.4"
       x2="400.4"
       y1="545.62"
       y2="517.62"
       gradientTransform="matrix(0.43343,0,0,0.43343,-263.73,-180.03182)"
       gradientUnits="userSpaceOnUse">
      <stop
         stop-color="#8d3aff"
         offset="0"
         id="stop894" />
      <stop
         stop-color="#ff3680"
         offset="1"
         id="stop896" />
    </linearGradient>
    <radialGradient
       id="c"
       cx="190.1"
       cy="88.003"
       r="30"
       gradientTransform="matrix(0.25557,-0.06848,0.095871,0.3578,-45.652,280.8)"
       gradientUnits="userSpaceOnUse"
       xlink:href="#a" />
    <linearGradient
       id="a">
      <stop
         stop-color="#646464"
         offset="0"
         id="stop900" />
      <stop
         offset="1"
         id="stop902" />
    </linearGradient>
    <radialGradient
       id="b"
       cx="190.1"
       cy="88.003"
       r="30"
       gradientTransform="matrix(0.25557,-0.06848,-0.095871,-0.3578,-34.53,322.31)"
       gradientUnits="userSpaceOnUse"
       xlink:href="#a" />
  </defs>
  <g
     transform="translate(-85.155,-5.6478171)"
     fill="#5e4aa6"
     stroke-width="0.26458"
     id="g916">
    <circle
       cx="-330.35001"
       cy="-328.38"
       r="0"
       id="circle908" />
    <circle
       cx="-312.10999"
       cy="-326.25"
       r="0"
       id="circle910" />
    <circle
       cx="-306.01999"
       cy="-333.07001"
       r="0"
       id="circle912" />
    <circle
       cx="-308.84"
       cy="-326.01001"
       r="0"
       id="circle914" />
  </g>
  <circle
     cx="-68.555"
     cy="38.410183"
     r="0"
     fill="url(#i)"
     image-rendering="optimizeSpeed"
     stroke-width="0.26458"
     id="circle918"
     style="fill:url(#i)" />
  <circle
     cx="-82.787003"
     cy="44.273186"
     r="0"
     fill="none"
     image-rendering="optimizeSpeed"
     stroke="url(#f)"
     stroke-width="0.56347"
     id="circle920"
     style="stroke:url(#f)" />
  <circle
     cx="-57.506001"
     cy="10.035183"
     r="0"
     fill="url(#i-1)"
     image-rendering="optimizeSpeed"
     stroke-width="0.26458"
     id="circle922"
     style="fill:url(#i-1)" />
  <circle
     cx="-71.737999"
     cy="15.897183"
     r="0"
     fill="none"
     image-rendering="optimizeSpeed"
     stroke="url(#f-2)"
     stroke-width="0.56347"
     id="circle924"
     style="stroke:url(#f-2)" />
  <g
     transform="matrix(0.26458,0,0,0.26458,-39.356,-5.8984171)"
     fill="#5e4aa6"
     id="g934">
    <circle
       cx="-1449.4"
       cy="-1216.7"
       r="0"
       image-rendering="optimizeSpeed"
       id="circle926" />
    <circle
       cx="-1380.4"
       cy="-1208.7"
       r="0"
       image-rendering="optimizeSpeed"
       id="circle928" />
    <circle
       cx="-1357.4"
       cy="-1234.5"
       r="0"
       image-rendering="optimizeSpeed"
       id="circle930" />
    <circle
       cx="-1368.1"
       cy="-1207.8"
       r="0"
       image-rendering="optimizeSpeed"
       id="circle932" />
  </g>
  <circle
     cx="-75.873001"
     cy="44.617184"
     r="0"
     fill="url(#i-3)"
     image-rendering="optimizeSpeed"
     stroke-width="0.26458"
     id="circle936"
     style="fill:url(#i-3)" />
  <circle
     cx="-90.105003"
     cy="50.480183"
     r="0"
     fill="none"
     image-rendering="optimizeSpeed"
     stroke="url(#f-6)"
     stroke-width="0.56347"
     id="circle938"
     style="stroke:url(#f-6)" />
  <circle
     cx="-330.37659"
     cy="-328.51382"
     r="0"
     fill="#5e4aa6"
     stroke-width="0.26458"
     id="circle940" />
  <circle
     cx="-39.460571"
     cy="6.3081899"
     r="0"
     fill="#5e4aa6"
     fill-rule="evenodd"
     stroke-width="0.26458"
     id="circle942" />
  <circle
     cx="8.4669275"
     cy="8.5981674"
     r="7.9375"
     opacity="0.2"
     stroke-width="0.14032"
     id="circle944" />
  <path
     d="m 8.4669278,0.39818 a 7.9375,7.9375 0 0 0 -7.93750004,7.9375 7.9375,7.9375 0 0 0 7.93750004,7.9375 7.9375,7.9375 0 0 0 7.9375002,-7.9375 7.9375,7.9375 0 0 0 -7.9375002,-7.9375 z m 0,5.2917 a 2.6458,2.6458 0 0 1 2.6458002,2.6458 2.6458,2.6458 0 0 1 -2.6458002,2.6458 2.6458,2.6458 0 0 1 -2.6458,-2.6458 2.6458,2.6458 0 0 1 2.6458,-2.6458 z"
     stroke-width="0.5"
     id="path946" />
  <g
     transform="rotate(-15,-1055.6923,148.54001)"
     stroke-width="0.5"
     id="g958">
    <path
       d="m 0.8257,290.59 a 7.9375,7.9375 0 0 0 9.7211,5.6117 7.9375,7.9375 0 0 0 5.6129,-9.7204 l -5.1114,1.3696 a 2.6458,2.6458 0 0 1 -1.8712,3.2395 2.6458,2.6458 0 0 1 -3.2402,-1.8699 z"
       fill="url(#c)"
       id="path954"
       style="fill:url(#c)" />
    <path
       d="m 0.82623,290.59 a 7.9375,7.9375 0 0 1 5.6129,-9.7204 7.9375,7.9375 0 0 1 9.7211,5.6117 l -5.1114,1.3696 a 2.6458,2.6458 0 0 0 -3.2402,-1.8699 2.6458,2.6458 0 0 0 -1.8712,3.2395 z"
       fill="url(#b)"
       id="path956"
       style="fill:url(#b)" />
  </g>
  <g
     transform="matrix(1.7500538,0,0,1.7500538,-6.3981126,-523.57734)"
     id="g952">
    <circle
       cx="8.4931002"
       cy="303.94"
       r="2.6457"
       fill="#8f62bc"
       style="paint-order:normal"
       id="circle948" />
    <circle
       cx="8.4931002"
       cy="303.94"
       r="0.52916998"
       fill="#ffffff"
       fill-rule="evenodd"
       stroke-width="0.26458"
       id="circle950" />
  </g>
  <path
     d="m 6.470208,5.0932856 c -0.6878761,0 -1.246124,0.5582482 -1.246124,1.2461247 0,0.6884278 0.5580799,1.2465382 1.2465388,1.2465382 0.2224161,0 0.4268889,-0.069317 0.607673,-0.1713985 L 8.0602947,8.3341531 7.0787104,9.253435 C 6.8979247,9.1513526 6.6934519,9.0820365 6.4710358,9.0820365 c -0.6878761,0 -1.2461257,0.5582487 -1.2461257,1.2469365 0,0.687876 0.5582496,1.246126 1.2461257,1.246126 0.6884275,0 1.2465371,-0.558079 1.2465371,-1.24654 0,-0.114268 -0.017938,-0.222081 -0.04671,-0.32721 L 8.7304001,8.9730174 10.958555,11.076535 h 0.747899 V 10.577941 L 7.6709041,6.6670341 c 0.028823,-0.1051288 0.04671,-0.2129394 0.04671,-0.3272104 0,-0.6886881 -0.5582479,-1.2469361 -1.2469361,-1.2469361 z m 0,0.7478985 c 0.2753657,0 0.4985939,0.2232288 0.4985939,0.4985937 0,0.275365 -0.2232282,0.4985939 -0.4985939,0.4985939 -0.2753639,0 -0.4985938,-0.2232289 -0.4985938,-0.4985939 0,-0.2753649 0.2232299,-0.4985937 0.4985938,-0.4985937 z M 10.9576,5.5918795 8.9943369,7.4461224 9.6487432,8.0849557 11.70556,6.090611 V 5.5920172 Z M 6.470208,9.8299963 c 0.2753657,0 0.4985939,0.2232267 0.4985939,0.4985927 0,0.275367 -0.2232282,0.498595 -0.4985939,0.498595 -0.2753639,0 -0.4985938,-0.223228 -0.4985938,-0.498595 0,-0.275366 0.2232299,-0.4985927 0.4985938,-0.4985927 z"
     fill="#ffffff"
     stroke-width="1.53117"
     id="path37" />
</svg>
