<?xml version="1.0" encoding="UTF-8" standalone="no"?>
<svg
   xmlns:dc="http://purl.org/dc/elements/1.1/"
   xmlns:cc="http://creativecommons.org/ns#"
   xmlns:rdf="http://www.w3.org/1999/02/22-rdf-syntax-ns#"
   xmlns:svg="http://www.w3.org/2000/svg"
   xmlns="http://www.w3.org/2000/svg"
   xmlns:xlink="http://www.w3.org/1999/xlink"
   xmlns:sodipodi="http://sodipodi.sourceforge.net/DTD/sodipodi-0.dtd"
   xmlns:inkscape="http://www.inkscape.org/namespaces/inkscape"
   inkscape:version="1.0 (4035a4fb49, 2020-05-01)"
   sodipodi:docname="virtualbox.svg"
   viewBox="0 0 64 64"
   version="1.1"
   image-rendering="optimizeSpeed"
   enable-background="new 0 0 1024 1024"
   height="64"
   width="64"
   id="Calculator">
  <metadata
     id="metadata53">
    <rdf:RDF>
      <cc:Work
         rdf:about="">
        <dc:format>image/svg+xml</dc:format>
        <dc:type
           rdf:resource="http://purl.org/dc/dcmitype/StillImage" />
        <dc:title></dc:title>
      </cc:Work>
    </rdf:RDF>
  </metadata>
  <sodipodi:namedview
     inkscape:current-layer="Calculator"
     inkscape:window-maximized="1"
     inkscape:window-y="36"
     inkscape:window-x="0"
     inkscape:cy="23.70555"
     inkscape:cx="14.707633"
     inkscape:zoom="4.2150193"
     showgrid="false"
     id="namedview51"
     inkscape:window-height="932"
     inkscape:window-width="1920"
     inkscape:pageshadow="2"
     inkscape:pageopacity="0"
     guidetolerance="10"
     gridtolerance="10"
     objecttolerance="10"
     borderopacity="1"
     bordercolor="#666666"
     pagecolor="#ffffff" />
  <defs
     id="defs26">
    <linearGradient
       gradientUnits="userSpaceOnUse"
       gradientTransform="matrix(.04938 0 0 .047429 27.948 -18.091)"
       y2="828.58"
       y1="1517.5"
       x2="510.56"
       x1="98.123"
       id="c">
      <stop
         id="stop2"
         offset="0"
         stop-color="#7ccbea" />
      <stop
         id="stop4"
         offset="1"
         stop-color="#00b9ff" />
    </linearGradient>
    <linearGradient
       xlink:href="#c"
       gradientUnits="userSpaceOnUse"
       gradientTransform="matrix(.035272 0 0 .033878 29.106 -3.7792)"
       y2="828.58"
       y1="1517.5"
       x2="510.56"
       x1="98.123"
       id="i" />
    <linearGradient
       xlink:href="#c"
       gradientUnits="userSpaceOnUse"
       y2="19"
       y1="46"
       x2="40"
       x1="23"
       id="h" />
    <linearGradient
       gradientUnits="userSpaceOnUse"
       y2="16"
       y1="49"
       x2="43"
       x1="22"
       id="g">
      <stop
         id="stop9"
         offset="0"
         stop-color="#00b2ed" />
      <stop
         id="stop11"
         offset="1"
         stop-color="#009bdb" />
    </linearGradient>
    <linearGradient
       xlink:href="#c"
       gradientUnits="userSpaceOnUse"
       gradientTransform="matrix(.035272 0 0 .033878 29.106 -3.7792)"
       y2="819.98"
       y1="1469.4"
       x2="422.28"
       x1="25.36"
       id="b" />
    <filter
       color-interpolation-filters="sRGB"
       height="1.1129"
       width="1.128"
       y="-.056471"
       x="-.064"
       id="k">
      <feGaussianBlur
         id="feGaussianBlur15"
         stdDeviation="0.8" />
    </filter>
    <filter
       color-interpolation-filters="sRGB"
       height="1.1127"
       width="1.1283"
       y="-.056344"
       x="-.064163"
       id="j">
      <feGaussianBlur
         id="feGaussianBlur18"
         stdDeviation="0.96245117" />
    </filter>
    <linearGradient
       gradientUnits="userSpaceOnUse"
       gradientTransform="scale(3.7796)"
       y2="1.852"
       y1="15.081"
       x2="7.9373"
       x1="7.9373"
       id="linearGradient862-3">
      <stop
         id="stop21"
         offset="0"
         stop-color="#f1efeb" />
      <stop
         id="stop23"
         offset="1"
         stop-color="#fdfcfc" />
    </linearGradient>
    <linearGradient
       id="linearGradient1001"
       x1="31.668"
       x2="31.668"
       y1="49.682"
       y2="14.323"
       gradientUnits="userSpaceOnUse">
      <stop
         stop-color="#14a03c"
         offset="0"
         id="stop906" />
      <stop
         stop-color="#14dc78"
         offset="1"
         id="stop908" />
    </linearGradient>
  </defs>
  <circle
     id="circle913"
     fill="#5e4aa6"
     r="0"
     cy="-1241.6"
     cx="-1248.7" />
  <circle
     id="circle915"
     stroke-width="0.53035"
     opacity="0.2"
     r="30.000999"
     cy="32.509998"
     cx="32" />
  <circle
     id="circle917"
     stroke-width="0.53035"
     fill="#fafafa"
     r="30.000999"
     cy="31.49"
     cx="32" />
  <circle
     id="circle919"
     fill-rule="evenodd"
     fill="#5e4aa6"
     r="0"
     cy="23.855"
     cx="-149.14999" />
  <g
     transform="matrix(2.7702749,0,0,2.7702749,8.5454676,8.5454676)"
     id="g888">
    <g
       fill-rule="evenodd"
       stroke-width="0.015243"
       id="g884">
      <path
         d="M 8.4658,15.671 15.081,11.9324 15.03597,4.8992 8.46587,8.4994 Z"
         fill="#3585f3"
         id="path878" />
      <path
         d="M 8.4672,15.686 1.852,11.9474 1.897025,4.9142 l 6.5701,3.6002 z"
         fill="#1c69d0"
         id="path880" />
      <path
         d="M 1.878,4.9333 8.4985,1.247 15.0603,4.9348 8.463,8.5494 Z"
         fill="#5997f3"
         id="path882" />
    </g>
    <path
       d="M 9.4829,5.2897 C 9.431373,5.334381 9.33801,5.339732 9.27446,5.301327 L 8.57051,4.875727 C 8.513027,4.840976 8.498837,4.781903 8.537883,4.737177 l 0.60212,-0.70525 -2.1207,1.4692 C 6.969247,5.535652 6.890143,5.539698 6.831653,5.509197 6.828213,5.507417 6.825243,5.505997 6.821803,5.503857 6.77048,5.472819 6.75266,5.421671 6.779829,5.378127 l 0.70895,-1.1658 -0.93877,0.2713 C 6.493582,4.500012 6.426439,4.490157 6.385229,4.456647 6.342315,4.423878 6.331602,4.376278 6.357371,4.336607 l 0.40426,-0.6147 -0.86581,-0.52345 C 5.83256,3.16026 5.822831,3.092487 5.874299,3.047867 5.926004,3.003038 6.019599,2.998079 6.082829,3.036311 l 0.95538,0.57763 c 0.052678,0.031851 0.069763,0.085154 0.040742,0.12891 l -0.28859,0.43888 0.92318,-0.26653 c 0.05581,-0.016515 0.12159,-0.007 0.16307,0.025497 0.042617,0.031702 0.054837,0.07859 0.031405,0.11841 l -0.55304,0.9093 2.427,-1.6807 c 0.052868,-0.03685 0.13647,-0.038571 0.19555,-0.00394 0.060188,0.042972 0.073132,0.09461 0.034442,0.13999 l -1.1542,1.3504 0.60392,0.36512 c 0.06332,0.038334 0.072669,0.10582 0.021202,0.15045 z M 10.18461,5.57636 9.821,5.35653 C 9.75781,5.318327 9.66398,5.323488 9.61251,5.368157 c -0.051527,0.044681 -0.041739,0.1124 0.021451,0.1506 l 0.36361,0.21983 c 0.063059,0.038132 0.15695,0.033102 0.20849,-0.011627 0.0515,-0.044657 0.04162,-0.11247 -0.02145,-0.1506 z m 0.78297,0.47337 -0.38695,-0.23394 c -0.06306,-0.038132 -0.15702,-0.033042 -0.20848,0.011627 -0.05154,0.044681 -0.04162,0.11247 0.02145,0.1506 l 0.38695,0.23394 c 0.06302,0.038096 0.15695,0.033102 0.20848,-0.011627 0.0515,-0.044657 0.04157,-0.1125 -0.02145,-0.1506 z"
       fill="#ffffff"
       stroke-width="0.044893"
       id="path886" />
  </g>
</svg>
