<?xml version="1.0" encoding="UTF-8" standalone="no"?>
<svg
   xmlns:dc="http://purl.org/dc/elements/1.1/"
   xmlns:cc="http://creativecommons.org/ns#"
   xmlns:rdf="http://www.w3.org/1999/02/22-rdf-syntax-ns#"
   xmlns:svg="http://www.w3.org/2000/svg"
   xmlns="http://www.w3.org/2000/svg"
   xmlns:sodipodi="http://sodipodi.sourceforge.net/DTD/sodipodi-0.dtd"
   xmlns:inkscape="http://www.inkscape.org/namespaces/inkscape"
   inkscape:version="1.0 (4035a4fb49, 2020-05-01)"
   sodipodi:docname="vivaldi.svg"
   id="svg22"
   viewBox="0 0 16.933 16.933"
   version="1.1"
   height="64"
   width="64">
  <metadata
     id="metadata26">
    <rdf:RDF>
      <cc:Work
         rdf:about="">
        <dc:format>image/svg+xml</dc:format>
        <dc:type
           rdf:resource="http://purl.org/dc/dcmitype/StillImage" />
        <dc:title></dc:title>
      </cc:Work>
    </rdf:RDF>
  </metadata>
  <sodipodi:namedview
     inkscape:current-layer="svg22"
     inkscape:window-maximized="1"
     inkscape:window-y="36"
     inkscape:window-x="0"
     inkscape:cy="30.204526"
     inkscape:cx="22.980502"
     inkscape:zoom="4.2150193"
     showgrid="false"
     id="namedview24"
     inkscape:window-height="932"
     inkscape:window-width="1920"
     inkscape:pageshadow="2"
     inkscape:pageopacity="0"
     guidetolerance="10"
     gridtolerance="10"
     objecttolerance="10"
     borderopacity="1"
     bordercolor="#666666"
     pagecolor="#ffffff" />
  <defs
     id="defs12">
    <linearGradient
       gradientUnits="userSpaceOnUse"
       y2="1.852"
       y1="15.081"
       x2="7.9373"
       x1="7.9373"
       id="linearGradient862">
      <stop
         id="stop2"
         offset="0"
         stop-color="#ff2666" />
      <stop
         id="stop4"
         offset="1"
         stop-color="#ff8752" />
    </linearGradient>
    <linearGradient
       gradientUnits="userSpaceOnUse"
       y2="11.387"
       y1="5.1468"
       x2="8.3681"
       x1="8.3681"
       id="linearGradient984">
      <stop
         id="stop7"
         offset="0"
         stop-color="#fff" />
      <stop
         id="stop9"
         offset="1"
         stop-color="#ffcdd6" />
    </linearGradient>
    <linearGradient
       id="b"
       x1="44.852"
       x2="44.852"
       y1="58"
       y2="15.445"
       gradientUnits="userSpaceOnUse">
      <stop
         offset="0"
         id="stop851" />
      <stop
         stop-opacity="0"
         offset="1"
         id="stop853" />
    </linearGradient>
    <linearGradient
       id="a"
       x1="-6.1472"
       x2="-6.1472"
       y1="-140.25"
       y2="-98.292"
       gradientTransform="matrix(0.53033,0,0,0.53033,11.509,71.862)"
       gradientUnits="userSpaceOnUse">
      <stop
         stop-color="#ff3c69"
         offset="0"
         id="stop882" />
      <stop
         stop-color="#ff462b"
         offset="1"
         id="stop884" />
    </linearGradient>
  </defs>
  <circle
     id="circle889"
     stroke-width="0.14032"
     opacity="0.2"
     r="7.9375"
     cy="8.6009874"
     cx="8.4665003" />
  <circle
     style="fill:url(#a)"
     cx="8.4665003"
     cy="8.3320045"
     r="7.9375"
     fill="url(#a)"
     stroke-width="0.14032"
     id="circle891" />
  <circle
     id="circle909"
     stroke-width="0.26458"
     fill="#5e4aa6"
     r="0"
     cy="-328.51099"
     cx="-330.37701" />
  <path
     style="stroke-width:1.15377"
     d="M 4.6457021,6.1884559 7.8381931,11.8281 c 0,0 0.173066,0.302289 0.6080386,0.302289 0.4338188,0 0.6068848,-0.302289 0.6068848,-0.302289 0,0 2.2187065,-3.3978623 3.1244185,-5.2104404 0.09115,-0.1822962 0.189219,-0.3668999 0.230755,-0.5653489 a 0.96340079,0.96340079 0 0 0 0.0081,-0.4153585 0.89071307,0.89071307 0 0 0 -0.238831,-0.447664 0.94955551,0.94955551 0 0 0 -0.535351,-0.2330623 1.1110838,1.1110838 0 0 0 -0.617268,0.1246076 0.80764138,0.80764138 0 0 0 -0.319596,0.3092112 0.9807074,0.9807074 0 0 0 -0.100378,0.4292037 1.1699262,1.1699262 0 0 0 0.06576,0.4015132 c 0.03,0.081918 0.06923,0.1615283 0.100378,0.2422924 0.02423,0.069226 0.06,0.1349915 0.06692,0.2076792 a 0.73841498,0.73841498 0 0 1 -0.0323,0.3472858 C 10.598019,7.5464472 10.239196,8.0529538 9.764995,8.3633188 9.568853,8.4913876 9.3173306,8.5236933 9.0842684,8.5340773 8.816593,8.545615 8.5073817,8.5248471 8.2916261,8.4060084 8.0747167,8.2883235 7.9731846,8.0829519 7.8370394,7.9029632 7.2140017,7.0757077 6.1952198,5.2642834 6.1952198,5.2642834 c 0,0 -0.443049,-0.7834121 -1.2403064,-0.3092112 C 4.1588097,5.4304268 4.6445483,6.1896097 4.6445483,6.1896097 Z"
     fill="#ffffff"
     fill-rule="evenodd"
     id="path957" />
</svg>
