<?xml version="1.0" encoding="UTF-8" standalone="no"?>
<svg
   xmlns:dc="http://purl.org/dc/elements/1.1/"
   xmlns:cc="http://creativecommons.org/ns#"
   xmlns:rdf="http://www.w3.org/1999/02/22-rdf-syntax-ns#"
   xmlns:svg="http://www.w3.org/2000/svg"
   xmlns="http://www.w3.org/2000/svg"
   xmlns:sodipodi="http://sodipodi.sourceforge.net/DTD/sodipodi-0.dtd"
   xmlns:inkscape="http://www.inkscape.org/namespaces/inkscape"
   viewBox="0 0 64 64"
   version="1.1"
   id="svg45"
   sodipodi:docname="web-twitter.svg"
   width="64"
   height="64"
   inkscape:version="1.0 (4035a4fb49, 2020-05-01)">
  <metadata
     id="metadata49">
    <rdf:RDF>
      <cc:Work
         rdf:about="">
        <dc:format>image/svg+xml</dc:format>
        <dc:type
           rdf:resource="http://purl.org/dc/dcmitype/StillImage" />
        <dc:title></dc:title>
      </cc:Work>
    </rdf:RDF>
  </metadata>
  <sodipodi:namedview
     inkscape:document-rotation="0"
     pagecolor="#ffffff"
     bordercolor="#666666"
     borderopacity="1"
     objecttolerance="10"
     gridtolerance="10"
     guidetolerance="10"
     inkscape:pageopacity="0"
     inkscape:pageshadow="2"
     inkscape:window-width="1920"
     inkscape:window-height="932"
     id="namedview47"
     showgrid="false"
     inkscape:zoom="3.9739583"
     inkscape:cx="1.8675978"
     inkscape:cy="29.378762"
     inkscape:window-x="0"
     inkscape:window-y="36"
     inkscape:window-maximized="1"
     inkscape:current-layer="svg45" />
  <defs
     id="defs7">
    <linearGradient
       id="linearGradient3764"
       x1="1"
       x2="47"
       gradientUnits="userSpaceOnUse"
       gradientTransform="rotate(-90,23.999998,24)">
      <stop
         style="stop-color:#00acec;stop-opacity:1"
         id="stop2" />
      <stop
         offset="1"
         style="stop-color:#01b9ff;stop-opacity:1"
         id="stop4" />
    </linearGradient>
    <linearGradient
       id="linearGradient3764-3"
       x1="1"
       x2="47"
       gradientUnits="userSpaceOnUse"
       gradientTransform="rotate(-90,23.999998,24)">
      <stop
         style="stop-color:#bdc7db;stop-opacity:1"
         id="stop2-5" />
      <stop
         offset="1"
         style="stop-color:#cad2e2;stop-opacity:1"
         id="stop4-62" />
    </linearGradient>
    <linearGradient
       id="b"
       x1="399.57001"
       x2="399.57001"
       y1="545.79999"
       y2="517.79999"
       gradientTransform="matrix(2.1429,0,0,2.1429,-826.36,-1107.5)"
       gradientUnits="userSpaceOnUse">
      <stop
         stop-color="#3889e9"
         offset="0"
         id="stop2-3" />
      <stop
         stop-color="#5ea5fb"
         offset="1"
         id="stop4-6" />
    </linearGradient>
    <linearGradient
       id="linearGradient914"
       x1="90"
       x2="90"
       y1="43"
       y2="13"
       gradientTransform="translate(-61,1)"
       gradientUnits="userSpaceOnUse">
      <stop
         stop-color="#3cd1fb"
         offset="0"
         id="stop7" />
      <stop
         stop-color="#87e2fd"
         offset="1"
         id="stop9" />
    </linearGradient>
    <linearGradient
       id="linearGradient929"
       x1="90"
       x2="90"
       y1="43"
       y2="13"
       gradientTransform="translate(-58,8)"
       gradientUnits="userSpaceOnUse">
      <stop
         stop-color="#3e9e9b"
         offset="0"
         id="stop12" />
      <stop
         stop-color="#5e91a8"
         offset=".46385"
         id="stop14" />
      <stop
         stop-color="#d9d1a1"
         offset="1"
         id="stop16" />
    </linearGradient>
    <filter
       id="filter955"
       x="-0.071901999"
       y="-0.093048997"
       width="1.1438"
       height="1.1861"
       color-interpolation-filters="sRGB">
      <feGaussianBlur
         stdDeviation="1.3182"
         id="feGaussianBlur19" />
    </filter>
    <filter
       id="filter961"
       x="-0.071901999"
       y="-0.093048997"
       width="1.1438"
       height="1.1861"
       color-interpolation-filters="sRGB">
      <feGaussianBlur
         stdDeviation="1.3182"
         id="feGaussianBlur22" />
    </filter>
    <linearGradient
       id="linearGradient971"
       x1="30"
       x2="30"
       y1="57"
       y2="8"
       gradientUnits="userSpaceOnUse">
      <stop
         stop-color="#1f1f1f"
         offset="0"
         id="stop25" />
      <stop
         stop-color="#525252"
         offset="1"
         id="stop27" />
    </linearGradient>
    <style
       id="current-color-scheme"
       type="text/css">.ColorScheme-Text { color:#363636; }</style>
    <style
       type="text/css"
       id="style31">.ColorScheme-Text { color:#363636; }</style>
    <filter
       color-interpolation-filters="sRGB"
       height="1.054"
       width="1.054"
       y="-0.027000001"
       x="-0.027000001"
       id="filter861-9">
      <feGaussianBlur
         id="feGaussianBlur9-1"
         stdDeviation="0.16371" />
    </filter>
    <filter
       color-interpolation-filters="sRGB"
       height="1.1861"
       width="1.1438"
       y="-0.093048997"
       x="-0.071901999"
       id="filter955-3">
      <feGaussianBlur
         id="feGaussianBlur1161"
         stdDeviation="1.3182" />
    </filter>
    <filter
       color-interpolation-filters="sRGB"
       height="1.1861"
       width="1.1438"
       y="-0.093048997"
       x="-0.071901999"
       id="filter961-6">
      <feGaussianBlur
         id="feGaussianBlur1164"
         stdDeviation="1.3182" />
    </filter>
    <filter
       inkscape:collect="always"
       style="color-interpolation-filters:sRGB"
       id="filter1054"
       x="-0.011077073"
       width="1.0221541"
       y="-0.0130907"
       height="1.0261814">
      <feGaussianBlur
         inkscape:collect="always"
         stdDeviation="0.1199987"
         id="feGaussianBlur1056" />
    </filter>
    <linearGradient
       id="linearGradient11422"
       x1="-6.1472"
       x2="-6.1472"
       y1="-137.82"
       y2="-100.78"
       gradientTransform="matrix(2.0044,0,0,2.0044,43.503,271.61)"
       gradientUnits="userSpaceOnUse">
      <stop
         stop-color="#32b4ff"
         offset="0"
         id="stop881" />
      <stop
         stop-color="#3287ff"
         offset="1"
         id="stop883" />
    </linearGradient>
    <style
       type="text/css"
       id="style886" />
  </defs>
  <circle
     cx="32.02"
     cy="32.043999"
     r="0"
     fill="url(#b)"
     stroke-width="1.5715"
     id="circle39"
     style="fill:url(#b)" />
  <circle
     id="circle890"
     fill="#5e4aa6"
     r="0"
     cy="-1279.3"
     cx="-1124.8" />
  <circle
     id="circle892"
     stroke-width="0.53035"
     opacity="0.2"
     r="30.000999"
     cy="32.507999"
     cx="31.999001" />
  <circle
     id="circle894"
     style="fill:url(#linearGradient11422);paint-order:normal"
     stroke-width="3.7796"
     fill="url(#linearGradient11422)"
     r="30.000999"
     cy="31.492001"
     cx="32.000999" />
  <g
     id="g904"
     stroke-width="0.26458"
     fill="#5e4aa6"
     transform="matrix(3.7796,0,0,3.7796,123.83,-38.184)">
    <circle
       id="circle896"
       r="0"
       cy="-338.76999"
       cx="-299.01999" />
    <circle
       id="circle898"
       fill-rule="evenodd"
       r="0"
       cy="-3.9487"
       cx="-8.1062002" />
    <circle
       id="circle900"
       r="0"
       cy="-357.69"
       cx="-278.25" />
    <circle
       id="circle902"
       fill-rule="evenodd"
       r="0"
       cy="-22.858999"
       cx="12.663" />
  </g>
  <g
     transform="translate(-94.425319,0.18070116)"
     id="g982">
    <g
       style="fill:#0a1496;fill-opacity:1;filter:url(#filter1054)"
       id="g1028"
       transform="matrix(1.1111372,0,0,1.1111372,98.731422,4.0945595)">
      <g
         style="fill:#0a1496;fill-opacity:1"
         id="g1026">
        <g
           style="fill:#0a1496;fill-opacity:1"
           transform="translate(1,1)"
           id="g1024">
          <g
             style="opacity:0.1;fill:#0a1496;fill-opacity:1"
             id="g1022">
            <!-- color: #01b9ff -->
            <g
               style="fill:#0a1496;fill-opacity:1"
               id="g1020">
              <path
                 d="m 27.29,13.258 c -2.348,0.875 -3.832,3.129 -3.664,5.594 l 0.055,0.953 -0.938,-0.117 c -3.418,-0.445 -6.406,-1.961 -8.941,-4.504 l -1.242,-1.266 -0.316,0.934 c -0.68,2.078 -0.246,4.273 1.164,5.75 0.75,0.813 0.582,0.93 -0.715,0.445 -0.449,-0.156 -0.848,-0.273 -0.883,-0.215 -0.133,0.137 0.316,1.906 0.676,2.602 0.488,0.973 1.484,1.926 2.574,2.488 l 0.918,0.445 -1.086,0.02 c -1.055,0 -1.09,0.02 -0.98,0.426 0.379,1.266 1.863,2.605 3.523,3.188 l 1.164,0.41 -1.023,0.617 c -1.5,0.895 -3.266,1.398 -5.03,1.438 -0.848,0.02 -1.543,0.098 -1.543,0.156 0,0.195 2.293,1.281 3.625,1.707 4,1.266 8.754,0.719 12.324,-1.434 2.535,-1.535 5.074,-4.586 6.258,-7.535 0.637,-1.574 1.277,-4.449 1.277,-5.828 0,-0.891 0.055,-1.01 1.109,-2.078 0.617,-0.621 1.199,-1.301 1.313,-1.492 0.188,-0.371 0.168,-0.371 -0.789,-0.039 -1.598,0.578 -1.824,0.504 -1.031,-0.371 0.582,-0.621 1.273,-1.746 1.273,-2.078 0,-0.059 -0.281,0.039 -0.598,0.215 -0.34,0.191 -1.09,0.484 -1.652,0.66 l -1.016,0.328 -0.922,-0.641 c -0.516,-0.348 -1.227,-0.738 -1.605,-0.855 -0.957,-0.27 -2.422,-0.23 -3.285,0.078 m 0,0"
                 style="fill:#0a1496;fill-opacity:1;fill-rule:nonzero;stroke:none"
                 id="path1018" />
            </g>
          </g>
        </g>
      </g>
    </g>
    <g
       style="fill:#f1f5f8;fill-opacity:1"
       id="g1036"
       transform="matrix(1.1111372,0,0,1.1111372,99.347527,4.7759673)">
      <g
         style="fill:#f1f5f8;fill-opacity:1"
         id="g1034">
        <!-- color: #01b9ff -->
        <g
           style="fill:#f1f5f8;fill-opacity:1"
           id="g1032">
          <path
             d="m 27.29,13.258 c -2.348,0.875 -3.832,3.129 -3.664,5.594 l 0.055,0.953 -0.938,-0.117 c -3.418,-0.445 -6.406,-1.961 -8.941,-4.504 l -1.242,-1.266 -0.316,0.934 c -0.68,2.078 -0.246,4.273 1.164,5.75 0.75,0.813 0.582,0.93 -0.715,0.445 -0.449,-0.156 -0.848,-0.273 -0.883,-0.215 -0.133,0.137 0.316,1.906 0.676,2.602 0.488,0.973 1.484,1.926 2.574,2.488 l 0.918,0.445 -1.086,0.02 c -1.055,0 -1.09,0.02 -0.98,0.426 0.379,1.266 1.863,2.605 3.523,3.188 l 1.164,0.41 -1.023,0.617 c -1.5,0.895 -3.266,1.398 -5.03,1.438 -0.848,0.02 -1.543,0.098 -1.543,0.156 0,0.195 2.293,1.281 3.625,1.707 4,1.266 8.754,0.719 12.324,-1.434 2.535,-1.535 5.074,-4.586 6.258,-7.535 0.637,-1.574 1.277,-4.449 1.277,-5.828 0,-0.891 0.055,-1.01 1.109,-2.078 0.617,-0.621 1.199,-1.301 1.313,-1.492 0.188,-0.371 0.168,-0.371 -0.789,-0.039 -1.598,0.578 -1.824,0.504 -1.031,-0.371 0.582,-0.621 1.273,-1.746 1.273,-2.078 0,-0.059 -0.281,0.039 -0.598,0.215 -0.34,0.191 -1.09,0.484 -1.652,0.66 l -1.016,0.328 -0.922,-0.641 c -0.516,-0.348 -1.227,-0.738 -1.605,-0.855 -0.957,-0.27 -2.422,-0.23 -3.285,0.078 m 0,0"
             style="fill:#f1f5f8;fill-opacity:1;fill-rule:nonzero;stroke:none"
             id="path1030" />
        </g>
      </g>
    </g>
  </g>
</svg>
