<svg width="64" height="64" version="1.1" viewBox="0 0 16.933 16.933" xmlns="http://www.w3.org/2000/svg" xmlns:xlink="http://www.w3.org/1999/xlink">
 <defs>
  <linearGradient id="a" x1="-6.1472" x2="-6.1472" y1="-140.25" y2="-98.292" gradientTransform="matrix(.53033 0 0 .53033 11.536 352.06)" gradientUnits="userSpaceOnUse">
   <stop stop-color="#ff3c69" offset="0"/>
   <stop stop-color="#ff462b" offset="1"/>
  </linearGradient>
 </defs>
 <g transform="translate(0 -280.07)">
  <circle cx="-330.35" cy="-48.312" r="0" fill="#5e4aa6" stroke-width=".26458"/>
  <ellipse cx="-39.434" cy="286.51" r=".90502" fill="#5e4aa6" fill-rule="evenodd" stroke-width=".26458"/>
  <circle cx="8.4935" cy="288.8" r="7.9375" opacity=".2" stroke-width=".14032"/>
  <circle cx="8.4935" cy="288.53" r="7.9375" fill="url(#a)" stroke-width=".14032"/>
  <path d="m7.6988 288.81 0.62972-1.3194-0.57069-1.2016s-0.12722-0.35751-0.5407-0.35751h-3.0507s-0.56455 0.0553-0.46383 0.56424l2.8307 6.0404s0.41877 0.79249 0.98598 0l2.4735-5.276s0.09746-0.21553 0.19866-0.21553h1.415s0.14244-0.0112 0.07872 0.12745c-0.06372 0.13869-1.6661 3.5787-1.6661 3.5787s-0.09558 0.24364-0.20241 0l-0.55288-1.2135-0.6091 1.3082 0.69084 1.5052s0.58045 1.2166 1.1477 0c0.5672-1.2166 2.7379-5.8072 2.7379-5.8072s0.30215-0.61226-0.39227-0.61226h-3.2621s-0.20616 8e-3 -0.3261 0.25879c-0.11995 0.25114-2.1356 4.5955-2.1356 4.5955s-0.07497 0.15087-0.15462 0c-0.07965-0.15087-1.6986-3.6012-1.6986-3.6012s-0.08018-0.14776 0.13385-0.14776h1.3474s0.12182-0.0218 0.22302 0.2012c0.10121 0.22303 0.7328 1.5724 0.7328 1.5724z" fill="#c83232" opacity=".5"/>
  <path d="m7.6988 288.46 0.62972-1.3194-0.57069-1.2016s-0.12722-0.35751-0.5407-0.35751h-3.0507s-0.56455 0.0553-0.46383 0.56424l2.8307 6.0404s0.41877 0.79249 0.98598 0l2.4735-5.276s0.09746-0.21553 0.19866-0.21553h1.415s0.14244-0.0112 0.07872 0.12745c-0.06372 0.13869-1.6661 3.5787-1.6661 3.5787s-0.09558 0.24364-0.20241 0l-0.55288-1.2135-0.6091 1.3082 0.69084 1.5052s0.58045 1.2166 1.1477 0c0.5672-1.2166 2.7379-5.8072 2.7379-5.8072s0.30215-0.61226-0.39227-0.61226h-3.2621s-0.20616 8e-3 -0.3261 0.25879c-0.11995 0.25114-2.1356 4.5955-2.1356 4.5955s-0.07497 0.15087-0.15462 0c-0.07965-0.15087-1.6986-3.6012-1.6986-3.6012s-0.08018-0.14776 0.13385-0.14776h1.3474s0.12182-0.0218 0.22302 0.2012c0.10121 0.22303 0.7328 1.5724 0.7328 1.5724z" fill="#fff"/>
 </g>
</svg>
