<?xml version="1.0" encoding="UTF-8" standalone="no"?>
<svg
   xmlns:dc="http://purl.org/dc/elements/1.1/"
   xmlns:cc="http://creativecommons.org/ns#"
   xmlns:rdf="http://www.w3.org/1999/02/22-rdf-syntax-ns#"
   xmlns:svg="http://www.w3.org/2000/svg"
   xmlns="http://www.w3.org/2000/svg"
   xmlns:xlink="http://www.w3.org/1999/xlink"
   xmlns:sodipodi="http://sodipodi.sourceforge.net/DTD/sodipodi-0.dtd"
   xmlns:inkscape="http://www.inkscape.org/namespaces/inkscape"
   inkscape:version="1.0 (4035a4fb49, 2020-05-01)"
   sodipodi:docname="yakuake.svg"
   id="svg50"
   version="1.1"
   height="64"
   width="64">
  <g
     transform="translate(62.577787)"
     id="g942">
    <path
       id="path870"
       stroke-width="0.99724"
       opacity="0.2"
       d="m -12.339239,8.6936043 q -3.859699,-2.9725001 -8.443997,-4.5556998 -4.737202,-1.6373001 -9.802102,-1.6373001 c -16.569999,0 -30.002999,13.4319996 -30.002999,30.0009996 0,15.158002 11.245,27.684 25.844999,29.709001 0.71216,0.09853 1.4339,0.174844 2.1587,0.219368 0.66128,0.04131 1.3258,0.06992 1.9998,0.06992 16.566999,0 29.99700163,-13.431999 29.99700163,-29.998999 0,-1.3098 -0.0826599,-2.6037 -0.24480482,-3.8658 -0.18758161,-1.4751 -0.49278831,-2.909 -0.88386751,-4.3046 q -1.328908,-4.689193 -4.0822083,-8.726493 -2.7215024,-3.9771 -6.540102,-6.9111998 z" />
    <path
       id="path872"
       stroke-width="0.99724"
       fill="#fafafa"
       d="m -12.339239,7.6931044 q -3.859699,-2.9725001 -8.443997,-4.5557 -4.737202,-1.6373 -9.802102,-1.6373 c -16.569999,0 -30.002999,13.4319996 -30.002999,30.0009996 0,15.158 11.245,27.684001 25.844999,29.708999 0.71216,0.09857 1.4339,0.174844 2.1587,0.219368 0.66128,0.04131 1.3258,0.06992 1.9998,0.06992 16.566999,0 29.99700163,-13.432002 29.99700163,-29.999 0,-1.3098 -0.0826599,-2.6037 -0.24480482,-3.8658 -0.18758161,-1.4751 -0.49278831,-2.909 -0.88386751,-4.3046 q -1.328908,-4.689189 -4.0822083,-8.726489 -2.7215024,-3.9771 -6.540102,-6.9111998 z" />
    <circle
       id="circle874"
       stroke-width="1.5715"
       fill-opacity="0"
       r="30.000999"
       cy="31.543901"
       cx="-30.568237" />
    <path
       id="path878"
       stroke-width="0.81876"
       fill="url(#linearGradient857)"
       d="m -15.605238,11.953904 q -3.168898,-2.4404998 -6.9328,-3.7403998 -3.8894,-1.3442998 -8.047799,-1.3442998 c -13.604001,0 -24.633001,11.0279996 -24.633001,24.6319996 0,12.445 9.2325,22.729002 21.219001,24.392 0.584699,0.08092 1.177299,0.143549 1.772399,0.180098 0.54293,0.03402 1.0885,0.05741 1.6419,0.05741 13.602,0 24.6279984,-11.028001 24.6279984,-24.630001 0,-1.0754 -0.067882,-2.1377 -0.2009992,-3.1739 -0.1540075,-1.211089 -0.4045989,-2.388389 -0.7256798,-3.534189 q -1.0910993,-3.85 -3.3516004,-7.1647 -2.234398,-3.2653 -5.369597,-5.6743 z"
       style="fill:url(#linearGradient857)" />
    <path
       id="path932"
       stroke-width="0.35097"
       fill="#ffffff"
       d="m -46.267519,34.167 v -2.1515 l 6.9999,3.9846 v 2.0309 l -6.9999,3.9846 v -2.1515 l 5.2691,-2.84 z" />
    <rect
       id="rect934"
       stroke-width="3.7796"
       fill="#ffffff"
       ry="0"
       rx="0"
       height="2"
       width="7.9998999"
       y="43"
       x="-36.267521" />
  </g>
  <metadata
     id="metadata54">
    <rdf:RDF>
      <cc:Work
         rdf:about="">
        <dc:format>image/svg+xml</dc:format>
        <dc:type
           rdf:resource="http://purl.org/dc/dcmitype/StillImage" />
        <dc:title></dc:title>
      </cc:Work>
    </rdf:RDF>
  </metadata>
  <sodipodi:namedview
     inkscape:current-layer="svg50"
     inkscape:window-maximized="1"
     inkscape:window-y="36"
     inkscape:window-x="0"
     inkscape:cy="15.055671"
     inkscape:cx="-1.4303141"
     inkscape:zoom="5.9609375"
     showgrid="false"
     id="namedview52"
     inkscape:window-height="932"
     inkscape:window-width="1920"
     inkscape:pageshadow="2"
     inkscape:pageopacity="0"
     guidetolerance="10"
     gridtolerance="10"
     objecttolerance="10"
     borderopacity="1"
     bordercolor="#666666"
     pagecolor="#ffffff" />
  <defs
     id="defs26">
    <linearGradient
       gradientUnits="userSpaceOnUse"
       gradientTransform="matrix(2.1429 0 0 2.1429 -826.36 -1107.5)"
       y2="517.8"
       y1="545.8"
       x2="399.57"
       x1="399.57"
       id="b">
      <stop
         id="stop2"
         offset="0"
         stop-color="#3889e9" />
      <stop
         id="stop4"
         offset="1"
         stop-color="#5ea5fb" />
    </linearGradient>
    <linearGradient
       xlink:href="#b"
       gradientUnits="userSpaceOnUse"
       gradientTransform="translate(2 -2)"
       y2="19"
       y1="17"
       x2="47"
       x1="47"
       id="d" />
    <linearGradient
       gradientUnits="userSpaceOnUse"
       gradientTransform="matrix(1.5085 0 0 1.5085 -21.899 -11.153)"
       y2="19"
       y1="17"
       x2="47"
       x1="47"
       id="a">
      <stop
         id="stop8"
         offset="0"
         stop-color="#606060" />
      <stop
         id="stop10"
         offset=".019551"
         stop-color="#414141" />
      <stop
         id="stop12"
         offset="1"
         stop-color="#1e1e1e" />
    </linearGradient>
    <linearGradient
       xlink:href="#b"
       gradientUnits="userSpaceOnUse"
       gradientTransform="matrix(2.1429 0 0 2.1429 -717.61 -1105.6)"
       y2="517.8"
       y1="545.8"
       x2="399.57"
       x1="399.57"
       id="linearGradient895" />
    <linearGradient
       gradientUnits="userSpaceOnUse"
       gradientTransform="scale(3.7796)"
       y2="1.852"
       y1="15.081"
       x2="7.9373"
       x1="7.9373"
       id="linearGradient862">
      <stop
         id="stop16"
         offset="0"
         stop-color="#767574" />
      <stop
         id="stop18"
         offset="1"
         stop-color="#d1e7ee" />
    </linearGradient>
    <linearGradient
       gradientUnits="userSpaceOnUse"
       gradientTransform="scale(3.7796)"
       y2="1.852"
       y1="5.8611"
       x2="7.9373"
       x1="7.9373"
       id="linearGradient936">
      <stop
         id="stop21"
         offset="0"
         stop-color="#bbb" />
      <stop
         id="stop23"
         offset="1"
         stop-color="#ececec" />
    </linearGradient>
    <linearGradient
       gradientUnits="userSpaceOnUse"
       y2="1.852"
       y1="15.081"
       x2="7.9373"
       x1="7.9373"
       id="linearGradient862-3">
      <stop
         id="stop2-6"
         offset="0"
         stop-color="#767574" />
      <stop
         id="stop4-7"
         offset="1"
         stop-color="#d1e7ee" />
    </linearGradient>
    <linearGradient
       id="b-5"
       x1="399.57"
       x2="399.57"
       y1="545.8"
       y2="517.8"
       gradientTransform="matrix(2.1429,0,0,2.1429,-888.94823,-1108.0001)"
       gradientUnits="userSpaceOnUse">
      <stop
         stop-color="#3889e9"
         offset="0"
         id="stop856" />
      <stop
         stop-color="#5ea5fb"
         offset="1"
         id="stop858" />
    </linearGradient>
    <linearGradient
       id="linearGradient857"
       x1="102.41"
       x2="102.41"
       y1="61.83"
       y2="2.1693"
       gradientTransform="matrix(0.82102998,0,0,0.82102998,-113.52624,5.2271042)"
       gradientUnits="userSpaceOnUse">
      <stop
         stop-color="#606060"
         offset="0"
         id="stop861" />
      <stop
         stop-color="#414141"
         offset=".5"
         id="stop863" />
      <stop
         stop-color="#1e1e1e"
         offset="1"
         id="stop865" />
    </linearGradient>
  </defs>
  <circle
     id="circle28"
     stroke-width="1.5715"
     fill="url(#linearGradient895)"
     r="0"
     cy="33.942"
     cx="140.77" />
  <circle
     style="fill:url(#b-5)"
     cx="-30.568237"
     cy="31.543901"
     r="0"
     fill="url(#b)"
     stroke-width="1.5715"
     id="circle876" />
</svg>
