<?xml version="1.0" encoding="UTF-8" standalone="no"?>
<svg
   xmlns:dc="http://purl.org/dc/elements/1.1/"
   xmlns:cc="http://creativecommons.org/ns#"
   xmlns:rdf="http://www.w3.org/1999/02/22-rdf-syntax-ns#"
   xmlns:svg="http://www.w3.org/2000/svg"
   xmlns="http://www.w3.org/2000/svg"
   xmlns:sodipodi="http://sodipodi.sourceforge.net/DTD/sodipodi-0.dtd"
   xmlns:inkscape="http://www.inkscape.org/namespaces/inkscape"
   inkscape:version="1.0 (4035a4fb49, 2020-05-01)"
   sodipodi:docname="yast-update.svg"
   id="svg16"
   version="1.1"
   height="64"
   width="64">
  <metadata
     id="metadata22">
    <rdf:RDF>
      <cc:Work
         rdf:about="">
        <dc:format>image/svg+xml</dc:format>
        <dc:type
           rdf:resource="http://purl.org/dc/dcmitype/StillImage" />
        <dc:title></dc:title>
      </cc:Work>
    </rdf:RDF>
  </metadata>
  <defs
     id="defs20">
    <linearGradient
       gradientUnits="userSpaceOnUse"
       gradientTransform="matrix(0.53033,0,0,0.53033,11.536,352.06)"
       y2="-100.78"
       y1="-137.82"
       x2="-6.1472"
       x1="-6.1472"
       id="b">
      <stop
         id="stop849"
         offset="0"
         stop-color="#14dc78" />
      <stop
         id="stop851"
         offset="1"
         stop-color="#14a03c" />
    </linearGradient>
    <linearGradient
       gradientUnits="userSpaceOnUse"
       gradientTransform="matrix(0.53033,0,0,0.53033,11.537,352.06)"
       y2="-126.7"
       y1="-126.08"
       x2="-6.1738"
       x1="-6.1738"
       id="a">
      <stop
         id="stop854"
         offset="0"
         stop-color="#14e650" />
      <stop
         id="stop856"
         offset="1"
         stop-color="#148232" />
    </linearGradient>
  </defs>
  <sodipodi:namedview
     inkscape:current-layer="svg16"
     inkscape:window-maximized="1"
     inkscape:window-y="36"
     inkscape:window-x="0"
     inkscape:cy="29.129296"
     inkscape:cx="53.190256"
     inkscape:zoom="5.9609375"
     showgrid="false"
     id="namedview18"
     inkscape:window-height="932"
     inkscape:window-width="1920"
     inkscape:pageshadow="2"
     inkscape:pageopacity="0"
     guidetolerance="10"
     gridtolerance="10"
     objecttolerance="10"
     borderopacity="1"
     bordercolor="#666666"
     pagecolor="#ffffff" />
  <circle
     id="circle861"
     stroke-width="1.00001"
     fill="#5e4aa6"
     r="0"
     cy="-1241.6389"
     cx="-1248.6936" />
  <g
     transform="matrix(3.779602,0,0,3.779602,-0.10204866,-1059.0388)"
     id="g869"
     stroke-width="0.14032">
    <circle
       id="circle863"
       opacity="0.2"
       r="7.9375"
       cy="288.79999"
       cx="8.4934998" />
    <circle
       id="circle865"
       fill="url(#b)"
       r="7.9375"
       cy="288.53"
       cx="8.4934998"
       style="fill:url(#b)" />
    <path
       id="path867"
       fill="url(#a)"
       d="m 1.4351,284.9 c -0.04528,0.0893 -0.0899,0.17936 -0.13178,0.27027 h 14.38 C 15.64333,285.07937 15.59543,284.9893 15.55206,284.9 Z"
       style="fill:url(#a)" />
  </g>
  <circle
     id="circle871"
     stroke-width="1.18207"
     opacity="0.5"
     fill-rule="evenodd"
     fill="#146432"
     r="2.4997532"
     cy="11.193331"
     cx="19.994473" />
  <circle
     id="circle873"
     stroke-width="1.18207"
     opacity="0.5"
     fill-rule="evenodd"
     fill="#146432"
     r="2.4997532"
     cy="11.193331"
     cx="44.996162" />
  <path
     id="path875"
     stroke-width="0.982659px"
     stroke="#146432"
     opacity="0.5"
     fill="none"
     d="m 20.229564,13.196505 c 0,0 0.0067,15.882644 12.809827,15.882644 11.89403,0.06085 11.89403,-15.882644 11.89403,-15.882644" />
  <path
     id="path877"
     stroke-width="1.00001px"
     stroke="#ffffff"
     fill="none"
     d="m 20.034159,11.268908 c 0,0 0.0068,16.250399 12.965925,16.250399 C 45.03925,27.581671 45.03925,11.268908 45.03925,11.268908" />
  <circle
     id="circle879"
     stroke-width="1.00001"
     fill-rule="evenodd"
     fill="#5e4aa6"
     r="0"
     cy="23.855019"
     cx="-149.14687" />
  <circle
     id="circle891"
     stroke-width="1.18207"
     fill-rule="evenodd"
     fill="#ffffff"
     r="2.4997532"
     cy="11.004281"
     cx="19.994473" />
  <circle
     id="circle893"
     stroke-width="1.18207"
     fill-rule="evenodd"
     fill="#ffffff"
     r="2.4997532"
     cy="11.004281"
     cx="44.996162" />
  <path
     style="stroke-width:0.833333"
     d="m 32,35 a 9.9333333,9.9333333 0 0 0 -5.051667,1.406667 L 31.426667,40.885 32.625,39.688333 29.916667,36.98 c 0.325,-0.08667 0.65,-0.163333 0.99,-0.208333 0.08667,-0.01333 0.171666,-0.04333 0.26,-0.05333 0.28,-0.02833 0.545,-0.05167 0.833333,-0.05167 A 8.3333333,8.3333333 0 0 1 40.333333,45 c 0,0.405 -0.04667,0.81 -0.105,1.198333 C 40.195,46.425 40.176667,46.655 40.125,46.875 a 7.895,7.895 0 0 1 -0.468333,1.355 c -0.02333,0.05 -0.03,0.105 -0.05333,0.155 -0.06667,0.153333 -0.18,0.273333 -0.26,0.416667 -0.0067,0.01333 0.0083,0.03833 0,0.05333 l 1.25,1.196667 A 9.9333333,9.9333333 0 0 0 42,45 10,10 0 0 0 32,35 Z m -8.593333,4.948333 A 9.9333333,9.9333333 0 0 0 22,45 10,10 0 0 0 32,55 9.9333333,9.9333333 0 0 0 37.051667,53.593333 l -1.25,-1.25 -3.228334,-3.176666 -1.146666,1.146666 2.656666,2.708334 c -0.325,0.08333 -0.65,0.161666 -0.99,0.208333 -0.08667,0.01167 -0.171666,0.04167 -0.26,0.05 -0.28,0.03 -0.545,0.05333 -0.833333,0.05333 -0.288333,0 -0.553333,-0.02333 -0.833333,-0.05167 -0.28,-0.02833 -0.561667,-0.05 -0.833334,-0.105 A 8.3616667,8.3616667 0 0 1 23.666667,45 c 0,-0.413333 0.04667,-0.8 0.105,-1.198333 C 23.805,43.575 23.823333,43.345 23.875,43.125 c 0.111667,-0.478333 0.278333,-0.913333 0.468333,-1.355 0.02167,-0.05 0.03,-0.105 0.05333,-0.155 0.06667,-0.15 0.18,-0.275 0.26,-0.416667 V 41.145 Z"
     fill="#ffffff"
     id="path904" />
</svg>
