<?xml version="1.0" encoding="UTF-8" standalone="no"?>
<svg
   xmlns:dc="http://purl.org/dc/elements/1.1/"
   xmlns:cc="http://creativecommons.org/ns#"
   xmlns:rdf="http://www.w3.org/1999/02/22-rdf-syntax-ns#"
   xmlns:svg="http://www.w3.org/2000/svg"
   xmlns="http://www.w3.org/2000/svg"
   xmlns:sodipodi="http://sodipodi.sourceforge.net/DTD/sodipodi-0.dtd"
   xmlns:inkscape="http://www.inkscape.org/namespaces/inkscape"
   inkscape:version="1.0 (4035a4fb49, 2020-05-01)"
   sodipodi:docname="zeal.svg"
   id="svg19"
   viewBox="0 0 16.933 16.933"
   version="1.1"
   height="64"
   width="64">
  <metadata
     id="metadata23">
    <rdf:RDF>
      <cc:Work
         rdf:about="">
        <dc:format>image/svg+xml</dc:format>
        <dc:type
           rdf:resource="http://purl.org/dc/dcmitype/StillImage" />
        <dc:title></dc:title>
      </cc:Work>
    </rdf:RDF>
  </metadata>
  <sodipodi:namedview
     inkscape:current-layer="svg19"
     inkscape:window-maximized="1"
     inkscape:window-y="36"
     inkscape:window-x="0"
     inkscape:cy="26.465789"
     inkscape:cx="41.15923"
     inkscape:zoom="4.2150193"
     showgrid="false"
     id="namedview21"
     inkscape:window-height="932"
     inkscape:window-width="1920"
     inkscape:pageshadow="2"
     inkscape:pageopacity="0"
     guidetolerance="10"
     gridtolerance="10"
     objecttolerance="10"
     borderopacity="1"
     bordercolor="#666666"
     pagecolor="#ffffff" />
  <defs
     id="defs7">
    <linearGradient
       gradientUnits="userSpaceOnUse"
       gradientTransform="matrix(0.26458,0,0,0.26458,20.877304,0)"
       y2="39"
       y1="59"
       x2="50"
       x1="50"
       id="a">
      <stop
         id="stop2"
         offset="0" />
      <stop
         id="stop4"
         offset="1"
         stop-opacity="0" />
    </linearGradient>
    <linearGradient
       id="b"
       x1="399.57"
       x2="399.57"
       y1="545.8"
       y2="517.8"
       gradientTransform="matrix(0.56696445,0,0,0.56696445,-218.63929,-293.1525)"
       gradientUnits="userSpaceOnUse">
      <stop
         stop-color="#3889e9"
         offset="0"
         id="stop843" />
      <stop
         stop-color="#5ea5fb"
         offset="1"
         id="stop845" />
    </linearGradient>
    <linearGradient
       id="linearGradient1001"
       x1="32.431"
       x2="32.431"
       y1="61.873"
       y2="1.6692"
       gradientTransform="matrix(0.26457812,0,0,0.26457812,-30.42106,2.4073434e-5)"
       gradientUnits="userSpaceOnUse">
      <stop
         stop-color="#1d2123"
         offset="0"
         id="stop848" />
      <stop
         stop-color="#33393e"
         offset="1"
         id="stop850" />
    </linearGradient>
    <linearGradient
       id="a-3"
       x1="-6.1472"
       x2="-6.1472"
       y1="-140.25"
       y2="-98.292"
       gradientTransform="matrix(0.44193297,0,0,0.44193297,11.002022,61.272472)"
       gradientUnits="userSpaceOnUse">
      <stop
         stop-color="#ff3c69"
         offset="0"
         id="stop920" />
      <stop
         stop-color="#ff462b"
         offset="1"
         id="stop922" />
    </linearGradient>
  </defs>
  <circle
     id="circle927"
     stroke-width="0.14032"
     opacity="0.2"
     r="7.9375"
     cy="8.6009912"
     cx="8.4665003" />
  <circle
     r="7.9373436"
     cy="8.331852"
     cx="8.4666567"
     id="path999"
     style="fill:#392e28;fill-opacity:1;stroke-width:0.0879508;stroke-linecap:round" />
  <g
     transform="translate(1.3242376e-4,1.0921785e-5)"
     fill="#5e4aa6"
     stroke-width="0.26458"
     id="g877">
    <circle
       cx="-330.35001"
       cy="-328.37"
       r="0"
       image-rendering="optimizeSpeed"
       id="circle855" />
    <circle
       cx="-330.35001"
       cy="-328.38"
       r="0"
       image-rendering="optimizeSpeed"
       id="circle857" />
    <circle
       cx="-330.35001"
       cy="-328.38"
       r="0"
       image-rendering="optimizeSpeed"
       id="circle859" />
    <circle
       cx="-352.63"
       cy="-336.84"
       r="0"
       image-rendering="optimizeSpeed"
       id="circle861" />
    <circle
       cx="-330.35001"
       cy="-328.37"
       r="0"
       image-rendering="optimizeSpeed"
       id="circle863" />
    <circle
       cx="-305.84"
       cy="-328.26999"
       r="0"
       image-rendering="optimizeSpeed"
       id="circle865" />
    <circle
       cx="-305.84"
       cy="-328.28"
       r="0"
       image-rendering="optimizeSpeed"
       id="circle867" />
    <circle
       cx="-305.84"
       cy="-328.28"
       r="0"
       image-rendering="optimizeSpeed"
       id="circle869" />
    <circle
       cx="-328.12"
       cy="-336.73999"
       r="0"
       image-rendering="optimizeSpeed"
       id="circle871" />
    <circle
       cx="-305.84"
       cy="-328.26999"
       r="0"
       image-rendering="optimizeSpeed"
       id="circle873" />
    <circle
       cx="-305.03"
       cy="-328.69"
       r="0"
       id="circle875" />
  </g>
  <circle
     cx="8.4690132"
     cy="8.3458929"
     r="7.9376082"
     fill-opacity="0"
     stroke-width="0.415785"
     id="circle883" />
  <circle
     style="fill:url(#b)"
     cx="8.4690132"
     cy="8.3458929"
     r="0"
     fill="url(#b)"
     stroke-width="0.415785"
     id="circle885" />
  <path
     id="path935"
     style="fill:#ffffff;fill-opacity:1;stroke-width:0.264578"
     d="M 4.7494873,1.3197901 C 3.9539165,1.7419584 3.2387947,2.2952428 2.6328624,2.9511829 v 3.87979 L 3.6916916,5.7721437 4.7494873,6.8299394 Z" />
  <circle
     id="circle947"
     stroke-width="0.26458"
     fill="#5e4aa6"
     r="0"
     cy="-335.77908"
     cx="-348.29758" />
  <path
     d="m 9.0679392,6.1990379 c -0.88263,0 -1.4519,0.015345 -1.8166,0.068017 -0.18263,0.026336 -0.31577,0.0641 -0.41874,0.12243 -0.10793,0.061161 -0.18463,0.16553 -0.18463,0.28905 0,0.080533 0.03861,0.13963 0.10224,0.17347 0.04536,0.024159 0.09126,0.028731 0.13188,0.027208 0.07902,-0.00284 0.1629,-0.027642 0.25722,-0.064644 0.01079,-0.00424 0.08303,-0.021656 0.17809,-0.037436 0.09495,-0.01578 0.21723,-0.032648 0.35607,-0.047667 0.27821,-0.029928 0.62679,-0.056591 0.97263,-0.071392 l 0.85394,-0.037438 -0.16817,0.15987 c -0.25816,0.2416 -1.1077,0.89119 -1.9453,1.5032004 -0.41874,0.30602 -0.83442,0.60497 -1.1804,0.84342 -0.34584,0.238439 -0.62827,0.420839 -0.74168,0.479499 -0.14697,0.07433 -0.29256,0.1516 -0.43847,0.22789 0.02416,0.08369 0.04177,0.1770597 0.0594,0.2517197 0.18231,0.0082 0.36483,0.01175 0.54735,0.01698 0.10782,0.0029 0.41737,0.03798 0.79792,0.09522 0.38065,0.05724 0.84128,0.13429 1.2891,0.21766 0.95058,0.17685 1.6651,0.28132 2.2024,0.30951 0.5368998,0.02808 0.9019398,-0.01164 1.1604998,-0.14964 0.19444,-0.10371 0.38139,-0.31027 0.53743,-0.53054 0.1553,-0.2198297 0.28739,-0.4457597 0.28686,-0.6594997 0,-0.01513 -0.0028,-0.05811 -0.02311,-0.09522 -0.0173,-0.03178 -0.03756,-0.04723 -0.0594,-0.06127 -0.02184,-0.01393 -0.04536,-0.02623 -0.08239,-0.02721 -0.0365,-9.78e-4 -0.07617,0.01022 -0.10224,0.02721 -0.10012,0.074 -0.15973,0.19632 -0.21765,0.27544 -0.1496,0.25313 -0.29087,0.39058 -0.53416,0.48298 -0.24213,0.09185 -0.6002,0.1292897 -1.1472998,0.1292897 -0.48531,0 -1.2403,-0.06813 -1.8891,-0.1564897 -0.32421,-0.04408 -0.62341,-0.0924 -0.84718,-0.13941 h -0.0033 c -0.1053,-0.0222 -0.20583,-0.0456 -0.26913,-0.06465 0.0748,-0.0826 0.22989,-0.20971 0.44058,-0.38427 1.4855,-1.167199 2.7319,-2.0922994 4.2295998,-3.1733994 H 9.0684992 Z"
     color="#000000"
     fill="#f1f2f2"
     id="path995" />
</svg>
