<?xml version="1.0" encoding="UTF-8"?>
<!-- Created with Inkscape (http://www.inkscape.org/) -->
<svg width="64" height="64" version="1.1" viewBox="0 0 16.933 16.933" xmlns="http://www.w3.org/2000/svg" xmlns:cc="http://creativecommons.org/ns#" xmlns:dc="http://purl.org/dc/elements/1.1/" xmlns:rdf="http://www.w3.org/1999/02/22-rdf-syntax-ns#" xmlns:xlink="http://www.w3.org/1999/xlink">
 <defs>
  <linearGradient id="linearGradient13504" x1="10.798" x2="10.798" y1="282.88" y2="283.29" gradientTransform="matrix(1.0543 0 0 .55499 4.1087 128.14)" gradientUnits="userSpaceOnUse" xlink:href="#linearGradient991"/>
  <linearGradient id="linearGradient991">
   <stop stop-color="#969696" offset="0"/>
   <stop stop-color="#e6e6e6" stop-opacity=".90196" offset="1"/>
  </linearGradient>
  <linearGradient id="linearGradient13506" x1="8.8166" x2="8.8166" y1="293.7" y2="294.12" gradientTransform="matrix(.94579 0 0 .555 7.7176 133.01)" gradientUnits="userSpaceOnUse" xlink:href="#linearGradient991"/>
  <linearGradient id="linearGradient13508" x1="7.998" x2="7.998" y1="284.98" y2="285.41" gradientTransform="matrix(.94579 0 0 .555 7.9256 129.13)" gradientUnits="userSpaceOnUse" xlink:href="#linearGradient991"/>
  <linearGradient id="linearGradient13510-3" x1="8.7643" x2="8.7643" y1="287.18" y2="287.64" gradientTransform="matrix(.94579 0 0 .555 7.919 130.1)" gradientUnits="userSpaceOnUse" xlink:href="#linearGradient991"/>
  <linearGradient id="linearGradient13512" x1="8.3178" x2="8.3178" y1="289.36" y2="289.81" gradientTransform="matrix(.94579 0 0 .555 7.901 131.07)" gradientUnits="userSpaceOnUse" xlink:href="#linearGradient991"/>
  <linearGradient id="linearGradient13514" x1="8.2553" x2="8.2553" y1="291.55" y2="291.96" gradientTransform="matrix(.94579 0 0 .55502 8.0111 132.03)" gradientUnits="userSpaceOnUse" xlink:href="#linearGradient991"/>
  <linearGradient id="linearGradient1193" x1="-6.1738" x2="-6.1738" y1="-126.08" y2="-126.7" gradientTransform="matrix(.54036 0 0 .54036 11.566 73.868)" gradientUnits="userSpaceOnUse">
   <stop stop-color="#735046" offset="0"/>
   <stop stop-color="#462d28" offset="1"/>
  </linearGradient>
  <linearGradient id="linearGradient1215" x1="19.27" x2="19.27" y1="283.7" y2="297.5" gradientTransform="matrix(.99999 0 0 .99999 -10.874 -280.21)" gradientUnits="userSpaceOnUse">
   <stop stop-color="#64463c" offset="0"/>
   <stop stop-color="#785a50" offset=".5"/>
   <stop stop-color="#4f3229" offset="1"/>
  </linearGradient>
 </defs>
 <metadata>
  <rdf:RDF>
   <cc:Work rdf:about="">
    <dc:format>image/svg+xml</dc:format>
    <dc:type rdf:resource="http://purl.org/dc/dcmitype/StillImage"/>
    <dc:title/>
   </cc:Work>
  </rdf:RDF>
 </metadata>
 <circle cx="-330.35" cy="-328.38" r="0" fill="#5e4aa6" stroke-width=".26458"/>
 <circle cx="-39.434" cy="6.44" r="0" fill="#5e4aa6" fill-rule="evenodd" stroke-width=".26458"/>
 <circle cx="8.4662" cy="8.6016" r="7.9376" opacity=".2" stroke-width=".14032"/>
 <ellipse cx="8.4662" cy="8.3415" rx="7.7989" ry="7.9477" fill="#785546" stroke-width="1.1902" style="paint-order:stroke markers fill"/>
 <g transform="matrix(.85833 0 0 .85833 -5.2038 -241.53)">
  <circle cx="15.926" cy="290.69" r="7.9375" fill="#fafafa" style="paint-order:normal"/>
  <path d="m10.551 285.17c-0.04221 0.0443-0.07897 0.0835-0.13658 0.14895l11.024 9.8e-4c-0.05944-0.0607-0.08604-0.0922-0.14076-0.15z" fill="url(#linearGradient13504)" opacity=".6" style="paint-order:normal"/>
  <path d="m10.431 296.06c0.04857 0.052 0.08052 0.0907 0.1349 0.15h10.72c0.05003-0.0561 0.07465-0.0855 0.13441-0.15z" fill="url(#linearGradient13506)" opacity=".6" style="paint-order:normal"/>
  <path d="m9.1386 287.33c-0.022302 0.0517-0.037132 0.0892-0.065978 0.15h13.708c-0.02381-0.0504-0.04631-0.10145-0.06843-0.15z" fill="url(#linearGradient13508)" opacity=".6" style="paint-order:normal"/>
  <path d="m8.5204 289.52c-0.00964 0.0489-0.015643 0.0999-0.024922 0.15h14.862c-0.0088-0.0501-0.01516-0.10114-0.0259-0.15z" fill="url(#linearGradient13510-3)" opacity=".6" style="paint-order:normal"/>
  <path d="m8.4942 291.7c0.00899 0.0501 0.01744 0.10011 0.027371 0.15h14.811c0.0093-0.0539 0.01711-0.0968 0.02541-0.15z" fill="url(#linearGradient13512)" opacity=".6" style="paint-order:normal"/>
  <path d="m9.0766 293.88c0.021867 0.0535 0.040442 0.0932 0.064512 0.15h13.57c0.02313-0.0512 0.03674-0.0804 0.06941-0.15z" fill="url(#linearGradient13514)" opacity=".6" style="paint-order:normal"/>
 </g>
 <path d="m8.4662 3.1716c-0.32459 8e-4 -0.42374 0.31784-0.58798 0.60999l-0.34223 0.60819-6.1697 5.3e-4a7.9377 8.2267 0 0 0-0.83719 3.6564 7.9377 8.2267 0 0 0 7.9377 8.2267 7.9377 8.2267 0 0 0 7.9377-8.2267 7.9377 8.2267 0 0 0-1.5556-4.875h-6.3816z" fill="url(#linearGradient1215)" stroke-width="1.1312" style="paint-order:stroke markers fill"/>
 <path d="m0.9478 5.4372c-0.030596 0.089967-0.058527 0.17864-0.085685 0.27641l15.21-0.00103c-0.02702-0.09299-0.05102-0.17199-0.08338-0.27538z" fill="url(#linearGradient1193)" stroke-width=".14297"/>
 <g fill="#5e4aa6" stroke-width=".26458">
  <circle cx="-305.05" cy="-323.78" r="0"/>
  <circle cx="-312.62" cy="-328.61" r="0"/>
  <circle cx="-312.62" cy="-328.61" r="0"/>
  <circle cx="-294.38" cy="-326.48" r="0"/>
  <circle cx="-288.29" cy="-333.3" r="0"/>
  <circle cx="-291.11" cy="-326.24" r="0"/>
  <circle cx="-311.07" cy="-330.68" r="0"/>
 </g>
 <circle cx="8.4665" cy="10.167" r="2.533" fill="#fff"/>
 <g fill="#785546">
  <rect x="7.0617" y="8.6307" width="2.8095" height=".36267" ry=".18135" stroke-width="1.2128"/>
  <rect x="6.6685" y="9.527" width="3.5959" height=".36267" ry=".18135" stroke-width="1.3721"/>
  <rect x="6.6685" y="10.423" width="3.5959" height=".36267" ry=".18135" stroke-width="1.3721"/>
  <rect x="7.0617" y="11.32" width="2.8095" height=".36267" ry=".18135" stroke-width="1.2128"/>
 </g>
</svg>
