<?xml version="1.0" encoding="UTF-8"?>
<svg width="64" height="64" version="1.1" viewBox="0 0 64 64" xmlns="http://www.w3.org/2000/svg" xmlns:cc="http://creativecommons.org/ns#" xmlns:dc="http://purl.org/dc/elements/1.1/" xmlns:rdf="http://www.w3.org/1999/02/22-rdf-syntax-ns#" xmlns:xlink="http://www.w3.org/1999/xlink">
 <metadata>
  <rdf:RDF>
   <cc:Work rdf:about="">
    <dc:format>image/svg+xml</dc:format>
    <dc:type rdf:resource="http://purl.org/dc/dcmitype/StillImage"/>
    <dc:title/>
   </cc:Work>
  </rdf:RDF>
 </metadata>
 <defs>
  <linearGradient id="linearGradient1001" x1="31.668" x2="31.668" y1="49.682" y2="14.323" gradientUnits="userSpaceOnUse">
   <stop stop-color="#14a03c" offset="0"/>
   <stop stop-color="#14dc78" offset="1"/>
  </linearGradient>
 </defs>
 <circle cx="-1248.7" cy="-1241.6" r="0" fill="#5e4aa6"/>
 <circle cx="32" cy="32.51" r="30.001" opacity=".2" stroke-width=".53035"/>
 <circle cx="32" cy="31.49" r="30.001" fill="#fafafa" stroke-width=".53035"/>
 <circle cx="-149.15" cy="23.855" r="0" fill="#5e4aa6" fill-rule="evenodd"/>
 <path d="m38.562 14.833c-1.7989 0-3.6458 2.4876-3.6458 7.2917 0 4.375 1.4583 7.2917 1.4583 7.2917s11.667-1.4583 11.667-7.2917c0-4.375-4.108-7.9281-5.8333-4.375-0.65138-1.9542-1.904-2.9167-3.6458-2.9167zm-16.771 1.4583c-4.375 0-7.9281 4.108-4.375 5.8333-1.9542 0.65138-2.9167 1.904-2.9167 3.6458 0 1.7989 2.4876 3.6458 7.2917 3.6458 4.375 0 7.2917-1.4583 7.2917-1.4583s-1.4583-11.667-7.2917-11.667zm5.8333 18.958s-11.667 1.4583-11.667 7.2917c0 4.375 4.108 7.9281 5.8333 4.375 0.65138 1.9542 1.904 2.9167 3.6458 2.9167 1.7989 0 3.6458-2.4876 3.6458-7.2917 0-4.375-1.4583-7.2917-1.4583-7.2917zm14.583 0c-4.375 0-7.2917 1.4583-7.2917 1.4583s1.4583 11.667 7.2917 11.667c4.375 0 7.9281-4.108 4.375-5.8333 1.9542-0.65138 2.9167-1.904 2.9167-3.6458 0-1.7989-2.4876-3.6458-7.2917-3.6458z" opacity=".15" stroke-width="1.4583"/>
 <path d="m38.562 14.5c-1.7989 0-3.6458 2.4876-3.6458 7.2917 0 4.375 1.4583 7.2917 1.4583 7.2917s11.667-1.4583 11.667-7.2917c0-4.375-4.108-7.9281-5.8333-4.375-0.65138-1.9542-1.904-2.9167-3.6458-2.9167zm-16.771 1.4583c-4.375 0-7.9281 4.108-4.375 5.8333-1.9542 0.65138-2.9167 1.904-2.9167 3.6458 0 1.7989 2.4876 3.6458 7.2917 3.6458 4.375 0 7.2917-1.4583 7.2917-1.4583s-1.4583-11.667-7.2917-11.667zm5.8333 18.958s-11.667 1.4583-11.667 7.2917c0 4.375 4.108 7.9281 5.8333 4.375 0.65138 1.9542 1.904 2.9167 3.6458 2.9167 1.7989 0 3.6458-2.4876 3.6458-7.2917 0-4.375-1.4583-7.2917-1.4583-7.2917zm14.583 0c-4.375 0-7.2917 1.4583-7.2917 1.4583s1.4583 11.667 7.2917 11.667c4.375 0 7.9281-4.108 4.375-5.8333 1.9542-0.65138 2.9167-1.904 2.9167-3.6458 0-1.7989-2.4876-3.6458-7.2917-3.6458z" fill="url(#linearGradient1001)" stroke-width="1.4583"/>
</svg>
