<?xml version="1.0" encoding="UTF-8"?>
<svg width="64" height="64" version="1.1" viewBox="0 0 64 64" xmlns="http://www.w3.org/2000/svg" xmlns:cc="http://creativecommons.org/ns#" xmlns:dc="http://purl.org/dc/elements/1.1/" xmlns:rdf="http://www.w3.org/1999/02/22-rdf-syntax-ns#" xmlns:xlink="http://www.w3.org/1999/xlink">
 <metadata>
  <rdf:RDF>
   <cc:Work rdf:about="">
    <dc:format>image/svg+xml</dc:format>
    <dc:type rdf:resource="http://purl.org/dc/dcmitype/StillImage"/>
    <dc:title/>
   </cc:Work>
  </rdf:RDF>
 </metadata>
 <defs>
  <style type="text/css"/>
  <style type="text/css"/>
 </defs>
 <circle cx="-1248.7" cy="-1241.6" r="0" fill="#5e4aa6"/>
 <circle cx="32" cy="32.51" r="30.001" opacity=".2" stroke-width=".53035"/>
 <circle cx="32" cy="31.49" r="30.001" fill="#fafafa" stroke-width=".53035"/>
 <circle cx="-149.15" cy="23.855" r="0" fill="#5e4aa6" fill-rule="evenodd"/>
 <g stroke-width="1.4">
  <path d="m15.2 15.477v7h4.2v4.2h-4.2v2.8h15.34l8.2359-14zm25.2 0-14 23.8v5.6h14v4.2h5.6v-4.2h2.8v-5.6h-2.8v-23.8zm0 9.1v14.7h-8.4zm-25.2 6.3v2.8h12.871l1.6461-2.8zm0 4.2v2.8h10.399l1.6488-2.8zm0 4.2v9.8h23.8v-2.8h-14v-7z" opacity=".15" style="paint-order:normal"/>
  <path d="m15.2 14.5v7h4.2v4.2h-4.2v2.8h15.34l8.2359-14zm0 15.4v2.8h12.871l1.6461-2.8zm0 4.2v2.8h10.399l1.6488-2.8zm0 4.2v9.8h23.8v-2.8h-14v-7z" fill="#1432c8" style="paint-order:normal"/>
  <path d="m40.4 14.5-14 23.8v5.6h14v4.2h5.6v-4.2h2.8v-5.6h-2.8v-23.8zm0 9.1v14.7h-8.4z" fill="#ff8200" style="paint-order:normal"/>
 </g>
</svg>
