<?xml version="1.0" encoding="UTF-8"?>
<svg width="64" height="64" version="1.1" viewBox="0 0 64 64" xmlns="http://www.w3.org/2000/svg" xmlns:cc="http://creativecommons.org/ns#" xmlns:dc="http://purl.org/dc/elements/1.1/" xmlns:rdf="http://www.w3.org/1999/02/22-rdf-syntax-ns#" xmlns:xlink="http://www.w3.org/1999/xlink">
 <metadata>
  <rdf:RDF>
   <cc:Work rdf:about="">
    <dc:format>image/svg+xml</dc:format>
    <dc:type rdf:resource="http://purl.org/dc/dcmitype/StillImage"/>
    <dc:title/>
   </cc:Work>
  </rdf:RDF>
 </metadata>
 <defs>
  <linearGradient id="f-5" x1="-6.1472" x2="-6.1472" y1="-137.82" y2="-100.78" gradientTransform="matrix(2.0044 0 0 2.0044 43.499 271.61)" gradientUnits="userSpaceOnUse">
   <stop stop-color="#14dc78" offset="0"/>
   <stop stop-color="#14a03c" offset="1"/>
  </linearGradient>
 </defs>
 <circle cx="-1248.7" cy="-1241.6" r="0" fill="#5e4aa6"/>
 <circle cx="32" cy="32.51" r="30.001" opacity=".2" stroke-width=".53035"/>
 <circle cx="32" cy="31.49" r="30.001" fill="url(#f-5)" stroke-width=".53035"/>
 <g fill="#5e4aa6">
  <circle cx="-149.15" cy="23.855" r="0" fill-rule="evenodd"/>
  <circle cx="-1150.9" cy="-1256.6" r="0"/>
  <circle cx="-51.327" cy="8.8744" r="0" fill-rule="evenodd"/>
 </g>
 <path d="m34.535 20.85a8.678 8.9221 0 0 0-7.9209 5.2975 8.678 8.9221 0 0 0-3.6526-0.84232 8.678 8.9221 0 0 0-8.678 8.9221 8.678 8.9221 0 0 0 8.678 8.9221 8.678 8.9221 0 0 0 3e-3 0h20.249a6.5047 6.688 0 0 0 6.5028-6.6888 6.5047 6.688 0 0 0-6.5028-6.6857 8.678 8.9221 0 0 1 0-0.0029 8.678 8.9221 0 0 0 0-0.0038 8.678 8.9221 0 0 0-8.678-8.9165z" fill="#145a28" fill-rule="evenodd" stroke-width="3.7796"/>
</svg>
