<?xml version="1.0" encoding="UTF-8"?>
<svg width="64" height="64" version="1.1" viewBox="0 0 64 64" xmlns="http://www.w3.org/2000/svg" xmlns:cc="http://creativecommons.org/ns#" xmlns:dc="http://purl.org/dc/elements/1.1/" xmlns:rdf="http://www.w3.org/1999/02/22-rdf-syntax-ns#" xmlns:xlink="http://www.w3.org/1999/xlink">
 <metadata>
  <rdf:RDF>
   <cc:Work rdf:about="">
    <dc:format>image/svg+xml</dc:format>
    <dc:type rdf:resource="http://purl.org/dc/dcmitype/StillImage"/>
    <dc:title/>
   </cc:Work>
  </rdf:RDF>
 </metadata>
 <defs>
  <linearGradient id="a-3" x1="-6.1472" x2="-6.1472" y1="-137.82" y2="-100.78" gradientTransform="matrix(2.0044,0,0,2.0044,123.77,261.85)" gradientUnits="userSpaceOnUse">
   <stop stop-color="#ffbe14" offset="0"/>
   <stop stop-color="#ff8214" offset="1"/>
  </linearGradient>
 </defs>
 <circle cx="-1168.4" cy="-1251.4" r="0" fill="#5e4aa6"/>
 <circle cx="-68.875" cy="14.092" r="0" fill="#5e4aa6" fill-rule="evenodd"/>
 <g transform="translate(-80.27 9.7625)" stroke-width=".53035">
  <circle cx="112.27" cy="22.748" r="30.001" opacity=".2"/>
  <circle cx="112.27" cy="21.727" r="30.001" fill="url(#a-3)"/>
 </g>
 <g transform="matrix(4.1339 0 0 4.1339 -113.33 -23.871)" fill-opacity=".8">
  <path d="m35.156 9.2822c-0.76017 0-1.4647 0.20483-2.0814 0.55562h-1.5875v1.5699c-0.35739 0.62089-0.56444 1.34-0.56444 2.1078 0 0.76784 0.20705 1.487 0.56444 2.1078v1.5522h1.5522c0.62434 0.36286 1.3425 0.57326 2.1167 0.57326s1.5011-0.21041 2.1255-0.57326h1.5434v-1.5434c0.36078-0.62304 0.56444-1.3449 0.56444-2.1167 0-0.77176-0.20366-1.4936-0.56444-2.1167v-1.561h-1.5787c-0.61665-0.3508-1.33-0.55562-2.0902-0.55562zm0.01764 0.71437c1.94 0 3.5101 1.5701 3.5101 3.5101s-1.5701 3.519-3.5101 3.519-3.5101-1.5789-3.5101-3.519 1.5701-3.5101 3.5101-3.5101z"/>
  <path d="m35.978 11.878 0.15685 0.2166-0.35105 2.3229c-0.25831-1.0459-0.59628-2.4318-0.59753-2.4349l-0.56765 2.4275-0.44068-2.1138 0.08963-0.4108-1.2772-0.01494c0.10218 0.07806 0.18006 0.20946 0.26142 0.3137l0.80666 3.2789c-0.06637 0.12313-0.16608 0.23927-0.24648 0.34358 0.43074 0.0023 0.87079 0.0052 1.2399 0.0075l-0.08963-0.38838 0.24648-1.1278 0.20914 1.2249-0.03735 0.2913 1.2175-0.0075-0.0075-0.0075-0.16432-0.3137 0.49296-3.0773 0.37345-0.54524c-0.43819 0.0048-0.87637 0.0099-1.3146 0.01494z"/>
 </g>
</svg>
