<?xml version="1.0" encoding="UTF-8"?>
<svg width="64" height="64" version="1.1" viewBox="0 0 64 64" xmlns="http://www.w3.org/2000/svg" xmlns:cc="http://creativecommons.org/ns#" xmlns:dc="http://purl.org/dc/elements/1.1/" xmlns:rdf="http://www.w3.org/1999/02/22-rdf-syntax-ns#">
 <metadata>
  <rdf:RDF>
   <cc:Work rdf:about="">
    <dc:format>image/svg+xml</dc:format>
    <dc:type rdf:resource="http://purl.org/dc/dcmitype/StillImage"/>
    <dc:title/>
   </cc:Work>
  </rdf:RDF>
 </metadata>
 <defs>
  <linearGradient id="a-3" x1="-6.1472" x2="-6.1472" y1="-137.82" y2="-100.78" gradientTransform="matrix(2.0044 0 0 2.0044 43.499 271.61)" gradientUnits="userSpaceOnUse">
   <stop stop-color="#969696" offset="0"/>
   <stop stop-color="#555" offset="1"/>
  </linearGradient>
 </defs>
 <circle cx="-1248.7" cy="-1241.6" r="0" fill="#5e4aa6"/>
 <circle cx="32" cy="32.51" r="30.001" opacity=".2" stroke-width=".53035"/>
 <circle cx="32" cy="31.49" r="30.001" fill="url(#a-3)" stroke-width=".53035"/>
 <circle cx="-149.15" cy="23.855" r="0" fill="#5e4aa6" fill-rule="evenodd"/>
 <path d="m38.231 18.846c-15.231 0-23.538 0-23.538 5.5385l1.3846 0.34615v0.69231l2.7692 0.69231v-0.69231l1.3846 0.34615c0-1.0372 1.166-1.6847 2.7692-2.0905v1.3846c0.03524-0.0089 0.07523-0.01566 0.11088-0.02434 0.11449 2.6065 0.13578 5.1462-0.89243 7.7235-0.90196-1.1593-1.5973-2.5449-1.9876-4.2242l-1.3846 0.34615v-0.69231l-2.7692 0.69231v0.69231l-1.3846 0.34615c1.4237 7.1587 8.0767 12.439 14.306 14.961 0.05786 0.02355 0.1153 0.04183 0.17308 0.0649 0.54939 0.21812 1.0927 0.4154 1.6307 0.58954 0.14573 0.04746 0.28817 0.09104 0.43269 0.13522 0.43265 0.13141 0.8573 0.24731 1.2764 0.34885 0.18799 0.04584 0.3751 0.09281 0.5598 0.13251 0.42639 0.09111 0.83861 0.16102 1.244 0.21905 0.13182 0.01901 0.26826 0.04406 0.39754 0.0595 0.53292 0.06319 1.0479 0.10368 1.5307 0.10547l0.08384-0.07031 3.2885-2.6989-1.3846-5.5385c-2.9748 0-6.3588-0.26083-9.4057-1.2115 1.236-2.8097 2.4826-5.5446 2.4826-8.4808 0-2.7692 1.3846-2.7692 2.7692-2.7692h2.7692l1.3846-1.3846c2.7692 0 3.2361 0.6562 4.1538 1.3846 0.12536 0.55591 0.21511 0.98695 0.31911 1.4658 1.3652 6.2853 0.90435 6.373-1.7038 9.6112l4.1538 2.7692c4.55-3.783 4.2081-6.9904 3.0586-11.366-0.09504-0.36179-0.18543-0.71628-0.28936-1.0953l1.3846-1.3846c-0.68335-2.9719-6.5138-5.5385-11.077-6.9231z" fill-rule="evenodd" opacity=".15" stroke-width="1.3846"/>
 <g transform="translate(.69232 .69246)">
  <path d="m20.923 32.692c2.2691-4.1538 1.3846-8.1604 1.3846-12.462l14.066-2.1636 2.5498 3.5482-2.7692 2.7692h-2.7692c-1.3846 0-2.7692 0-2.7692 2.7692 0 4.3858-2.7692 8.3077-4.1538 12.729l-5.5385-4.4218z" fill="#2e2e2e" fill-rule="evenodd" stroke-width="1.3846"/>
  <circle cx="34.077" cy="22.308" r=".69231" fill="#a11919" stroke-width="1.3846" style="paint-order:normal"/>
  <g transform="matrix(1.3846 0 0 1.3846 -1.2308 -3.3078)" fill="#333" fill-rule="evenodd">
   <path d="m21 23-2 6v3l3-9v-6h-1z"/>
   <path d="m18 23-1 3v3l2-6v-6h-1z"/>
  </g>
  <g fill-rule="evenodd" stroke-width="1.3846">
   <path d="m36.935 18.849c-2.1421 0.0018-4.1266 0.01839-5.963 0.04868l-8.6646 1.3332c0 1.3138 0.07714 2.5985 0.12711 3.8699 2.5244-1.0957 7.5322-1.1007 9.5652-1.1007l1.3846-1.3846c3.0974 0 4.4338 0.01865 5.0354 0.503l0.503-0.503-1.9876-2.7665z" opacity=".1"/>
   <path d="m19.538 27.154-5.5385 1.3846c2.0251 10.184 14.641 16.59 21.55 16.615l3.3726-2.7692-1.3846-5.5385c-6.9231 0-16.068-1.3846-18-9.6923z" fill="#fafafa"/>
   <path d="m23.692 36.846c-1.3846 0-2.4238 1.4023-2.9964 2.0985 4.7058 3.9355 10.771 6.1941 14.856 6.2092l0.08384-0.07031c-0.42937-3.371-1.2035-1.4833-6.4038-4.0835-2.7692-1.3846-2.7692-4.1538-5.5385-4.1538z" fill="#2e2e2e"/>
   <path d="m41.692 24.384c1.7711 7.8535 1.4221 7.5921-1.3846 11.077l4.1538 2.7692c4.9262-4.0958 4.1302-7.4987 2.7692-12.462-1.4784-2.1474-3.4538-2.0166-5.5385-1.3846z" fill="#2e2e2e"/>
   <path d="m43.971 23.979c-0.73058 0.0024-1.498 0.16866-2.2798 0.40565 0.04118 0.18262 0.06659 0.30737 0.10547 0.48138 0.50857 0.24876 0.85244 0.56454 1.2791 0.90324l4.4486 1.1115c-0.0963-0.36699-0.18928-0.7268-0.29477-1.1115-0.92395-1.3421-2.0411-1.7942-3.2587-1.7903z" opacity=".1"/>
   <path d="m47.231 25.769 1.3846-1.3846c-0.68335-2.9719-6.5138-5.5385-11.077-6.9231-15.231 0-23.538 0-23.538 5.5385l5.5385 1.3846c0-2.7692 8.3077-2.7692 11.077-2.7692l1.3846-1.3846c5.5385 0 5.5385 0 5.5385 2.7692 2.7692 0 3.2361 0.6562 4.1538 1.3846" fill="#fafafa"/>
   <path d="m15.385 23.346v0.69231l2.7692 0.69231v-0.69231z" fill="#4ae355"/>
   <path d="m18.154 26.808-2.7692 0.69231v0.69231l2.7692-0.69231z" fill="#4ae355"/>
  </g>
 </g>
</svg>
