<?xml version="1.0" encoding="UTF-8"?>
<svg width="64" height="64" version="1.1" viewBox="0 0 64 64" xmlns="http://www.w3.org/2000/svg" xmlns:cc="http://creativecommons.org/ns#" xmlns:dc="http://purl.org/dc/elements/1.1/" xmlns:rdf="http://www.w3.org/1999/02/22-rdf-syntax-ns#">
 <metadata>
  <rdf:RDF>
   <cc:Work rdf:about="">
    <dc:format>image/svg+xml</dc:format>
    <dc:type rdf:resource="http://purl.org/dc/dcmitype/StillImage"/>
    <dc:title/>
   </cc:Work>
  </rdf:RDF>
 </metadata>
 <defs>
  <linearGradient id="b-3" x1="399.57" x2="399.57" y1="545.8" y2="517.8" gradientTransform="matrix(2.1429 0 0 2.1429 -826.37 -1108)" gradientUnits="userSpaceOnUse">
   <stop stop-color="#3889e9" offset="0"/>
   <stop stop-color="#5ea5fb" offset="1"/>
  </linearGradient>
  <linearGradient id="linearGradient1001" x1="32.431" x2="32.431" y1="61.873" y2="1.6692" gradientTransform="matrix(1 0 0 1 -114.98 -6.4012e-5)" gradientUnits="userSpaceOnUse">
   <stop stop-color="#1d2123" offset="0"/>
   <stop stop-color="#33393e" offset="1"/>
  </linearGradient>
 </defs>
 <linearGradient id="c" x1="516.32" x2="516.32" y1="541" y2="501" gradientTransform="translate(-484.32 -489)" gradientUnits="userSpaceOnUse">
  <stop stop-color="#e1e1e1" offset="0"/>
  <stop stop-color="#ebebeb" offset="1"/>
 </linearGradient>
 <g transform="matrix(3.7796 0 0 3.7796 -3.3012e-7 -.00011372)" fill="#5e4aa6" stroke-width=".26458">
  <circle cx="-330.35" cy="-328.37" r="0" image-rendering="optimizeSpeed"/>
  <circle cx="-330.35" cy="-328.38" r="0" image-rendering="optimizeSpeed"/>
  <circle cx="-330.35" cy="-328.38" r="0" image-rendering="optimizeSpeed"/>
  <circle cx="-352.63" cy="-336.84" r="0" image-rendering="optimizeSpeed"/>
  <circle cx="-330.35" cy="-328.37" r="0" image-rendering="optimizeSpeed"/>
  <circle cx="-305.84" cy="-328.27" r="0" image-rendering="optimizeSpeed"/>
  <circle cx="-305.84" cy="-328.28" r="0" image-rendering="optimizeSpeed"/>
  <circle cx="-305.84" cy="-328.28" r="0" image-rendering="optimizeSpeed"/>
  <circle cx="-328.12" cy="-336.74" r="0" image-rendering="optimizeSpeed"/>
  <circle cx="-305.84" cy="-328.27" r="0" image-rendering="optimizeSpeed"/>
  <circle cx="-305.03" cy="-328.69" r="0"/>
 </g>
 <path d="m50.238 8.6933q-3.8597-2.9725-8.444-4.5556-4.7374-1.6373-9.802-1.6373c-16.57 0-30.003 13.432-30.003 30.001 0 15.158 11.245 27.684 25.845 29.709 0.71215 0.09853 1.4339 0.17484 2.1587 0.21937 0.66128 0.04131 1.3258 0.06992 1.9998 0.06992 16.567 0 29.997-13.432 29.997-29.999 0-1.3098-0.08266-2.6037-0.2448-3.8658-0.18758-1.4751-0.49278-2.909-0.88386-4.3046q-1.3289-4.6893-4.0823-8.7263-2.7215-3.9773-6.5402-6.9114z" opacity=".2" stroke-width=".99725"/>
 <path d="m50.238 7.6929q-3.8597-2.9725-8.444-4.5556-4.7374-1.6373-9.802-1.6373c-16.57 0-30.003 13.432-30.003 30.001 0 15.158 11.245 27.684 25.845 29.709 0.71215 0.09857 1.4339 0.17484 2.1587 0.21937 0.66128 0.04131 1.3258 0.06992 1.9998 0.06992 16.567 0 29.997-13.432 29.997-29.999 0-1.3098-0.08266-2.6037-0.2448-3.8658-0.18758-1.4751-0.49278-2.909-0.88386-4.3046q-1.3289-4.6894-4.0823-8.7263-2.7215-3.9773-6.5402-6.9114z" fill="url(#linearGradient1001)" stroke-width=".99725"/>
 <circle cx="32.009" cy="31.544" r="30.001" fill-opacity="0" stroke-width="1.5715"/>
 <circle cx="32.009" cy="31.544" r="0" fill="url(#b-3)" stroke-width="1.5715"/>
 <rect x="12" y="12" width="40" height="40" ry="20" fill="url(#c)"/>
 <path d="m37.531 42.022q-2.2458 1.9777-5.5307 1.9777t-5.5307-1.9777q-2.2458-1.9777-2.2458-4.8939 0-1.9106 1.0391-3.352 1.0391-1.4749 2.7151-2.3128v-0.13408q-1.3073-0.83799-2.1453-2.1117-0.83799-1.3073-0.83799-2.7151 0-2.7821 1.9777-4.6257 1.9777-1.8771 5.0279-1.8771t5.0279 1.8771q1.9777 1.8436 1.9777 4.6257 0 1.4078-0.83799 2.7151-0.83799 1.2737-2.1453 2.1117v0.13408q1.676 0.83799 2.7151 2.3128 1.0391 1.4413 1.0391 3.352 0 2.9162-2.2458 4.8939zm-8.3128-12.972q1.1061 0.97207 2.7821 0.97207t2.7486-0.97207q1.1061-1.0056 1.1061-2.6145 0-1.6089-1.1061-2.5475-1.0726-0.93855-2.7486-0.93855t-2.7821 0.93855q-1.0726 0.93855-1.0726 2.5475 0 1.6089 1.0726 2.6145zm-0.50279 10.86q1.3408 1.1397 3.2849 1.1397 1.9441 0 3.2849-1.1397 1.3408-1.1397 1.3408-2.9497 0-1.7765-1.3408-2.9162-1.3408-1.1397-3.2849-1.1397-1.9441 0-3.2849 1.1397-1.3408 1.1397-1.3408 2.9162 0 1.8101 1.3408 2.9497z" fill="#36393c" stroke-width=".30593"/>
</svg>
