<?xml version="1.0" encoding="UTF-8"?>
<svg width="64" height="64" version="1.1" viewBox="0 0 16.933 16.933" xmlns="http://www.w3.org/2000/svg" xmlns:cc="http://creativecommons.org/ns#" xmlns:dc="http://purl.org/dc/elements/1.1/" xmlns:rdf="http://www.w3.org/1999/02/22-rdf-syntax-ns#" xmlns:xlink="http://www.w3.org/1999/xlink">
 <metadata>
  <rdf:RDF>
   <cc:Work rdf:about="">
    <dc:format>image/svg+xml</dc:format>
    <dc:type rdf:resource="http://purl.org/dc/dcmitype/StillImage"/>
    <dc:title/>
   </cc:Work>
  </rdf:RDF>
 </metadata>
 <defs>
  <style type="text/css"/>
  <linearGradient id="linearGradient944" x1="-6.1472" x2="-6.1472" y1="-137.82" y2="-100.78" gradientTransform="matrix(.53032 0 0 .53032 11.51 71.862)" gradientUnits="userSpaceOnUse">
   <stop stop-color="#32b4ff" offset="0"/>
   <stop stop-color="#3287ff" offset="1"/>
  </linearGradient>
 </defs>
 <g transform="scale(.26458)" fill="#5e4aa6" image-rendering="optimizeSpeed">
  <circle cx="-1160" cy="-1257.6" r="0"/>
  <circle cx="-1160" cy="-1257.6" r="0"/>
  <circle cx="-1244.2" cy="-1289.6" r="0"/>
 </g>
 <circle cx="-297.6" cy="-338.47" r="0" fill="#5e4aa6" image-rendering="optimizeSpeed" stroke-width=".26458"/>
 <circle cx="8.4662" cy="8.6009" r="7.9376" image-rendering="optimizeSpeed" opacity=".2" stroke-width=".14032"/>
 <circle cx="8.4668" cy="8.3321" r="7.9376" fill="url(#linearGradient944)" image-rendering="optimizeSpeed" style="paint-order:normal"/>
 <g transform="translate(32.763 -10.103)" fill="#5e4aa6" image-rendering="optimizeSpeed" stroke-width=".26458">
  <circle cx="-299.02" cy="-338.77" r="0"/>
  <circle cx="-8.1062" cy="-3.9487" r="0" fill-rule="evenodd"/>
  <circle cx="-278.25" cy="-357.69" r="0"/>
  <circle cx="12.663" cy="-22.859" r="0" fill-rule="evenodd"/>
 </g>
 <g transform="translate(0 .37387)" opacity=".18">
  <path d="m12.561 5.2896-1.0904 1.0904a3.6636 3.6636 0 0 1-0.41425 4.6779 3.6636 3.6636 0 0 1-3.8113 0.8585v-1.312l-1.2947 1.2958-0.66349 0.66234a5.1902 5.1902 0 0 0 6.8496-0.42464 5.1902 5.1902 0 0 0 0.42464-6.8484z" stroke-width=".86669" style="paint-order:stroke markers fill"/>
  <path d="m5.933 7.2968c0 0.96364 0.018185 1.3-0.60001 1.3-0.61817 0-1.1091 0.2-1.1091 0.76364 0 0.56364 0.58182 0.83636 0.94545 0.83636s1.0818-0.25454 1.0818-1.0182v-3.4545l3.091-0.71817v2.6456s0.03637 0.3182-0.37272 0.3182c-0.40909 0-1.3091-0.11819-1.3091 0.74547 0 0.86363 0.87273 0.80909 1.0091 0.80909s1.0182-0.14546 1.0182-1.1727v-4.8545l-3.7726 0.72727z" stroke-width=".21127"/>
 </g>
 <g fill="#fff">
  <path d="m12.561 5.2896-1.0904 1.0904a3.6636 3.6636 0 0 1-0.41425 4.6779 3.6636 3.6636 0 0 1-3.8113 0.8585v-1.312l-1.2947 1.2958-0.66349 0.66234a5.1902 5.1902 0 0 0 6.8496-0.42464 5.1902 5.1902 0 0 0 0.42464-6.8484z" stroke-width=".86669" style="paint-order:stroke markers fill"/>
  <path d="m5.933 7.2968c0 0.96364 0.018185 1.3-0.60001 1.3-0.61817 0-1.1091 0.2-1.1091 0.76364 0 0.56364 0.58182 0.83636 0.94545 0.83636s1.0818-0.25454 1.0818-1.0182v-3.4545l3.091-0.71817v2.6456s0.03637 0.3182-0.37272 0.3182c-0.40909 0-1.3091-0.11819-1.3091 0.74547 0 0.86363 0.87273 0.80909 1.0091 0.80909s1.0182-0.14546 1.0182-1.1727v-4.8545l-3.7726 0.72727z" stroke-width=".21127"/>
 </g>
</svg>
