<?xml version="1.0" encoding="UTF-8"?>
<svg width="64" height="64" version="1.1" viewBox="0 0 16.933 16.933" xmlns="http://www.w3.org/2000/svg" xmlns:cc="http://creativecommons.org/ns#" xmlns:dc="http://purl.org/dc/elements/1.1/" xmlns:rdf="http://www.w3.org/1999/02/22-rdf-syntax-ns#">
 <metadata>
  <rdf:RDF>
   <cc:Work rdf:about="">
    <dc:format>image/svg+xml</dc:format>
    <dc:type rdf:resource="http://purl.org/dc/dcmitype/StillImage"/>
    <dc:title/>
   </cc:Work>
  </rdf:RDF>
 </metadata>
 <defs>
  <linearGradient id="linearGradient11422" x1="-6.1472" x2="-6.1472" y1="-137.82" y2="-100.78" gradientTransform="matrix(.53033 0 0 .53033 11.51 71.934)" gradientUnits="userSpaceOnUse">
   <stop stop-color="#32b4ff" offset="0"/>
   <stop stop-color="#3287ff" offset="1"/>
  </linearGradient>
 </defs>
 <circle cx="-297.59" cy="-338.41" r="0" fill="#5e4aa6" stroke-width=".26458"/>
 <circle cx="8.4663" cy="8.6726" r="7.9375" opacity=".2" stroke-width=".14032"/>
 <circle cx="8.4668" cy="8.4038" r="7.9375" fill="url(#linearGradient11422)" style="paint-order:normal"/>
 <g transform="translate(32.762 -10.031)" fill="#5e4aa6" stroke-width=".26458">
  <circle cx="-299.02" cy="-338.77" r="0"/>
  <circle cx="-8.1062" cy="-3.9487" r="0" fill-rule="evenodd"/>
  <circle cx="-278.25" cy="-357.69" r="0"/>
  <circle cx="12.663" cy="-22.859" r="0" fill-rule="evenodd"/>
 </g>
 <path d="m10.64 4.6142a2.92 2.92 0 0 0-1.222 0.252c-0.733 0.323-1.262 1.037-1.574 1.573a0.313 0.313 0 0 0-0.279 0.54 3.085 3.085 0 0 0-0.052 0.123l-1.518 3.333a0.31243 0.31243 0 0 0-0.269 0.564l0.01 4e-3 -0.341 0.751h-0.849a0.313 0.313 0 0 0 0 0.626h1.566a0.314 0.314 0 1 0 0-0.626h-0.03l0.219-0.477a0.322 0.322 0 0 0 0.086 0.013 0.312 0.312 0 0 0 0.17-0.575l1.571-3.453a0.311 0.311 0 0 0 0.414-0.15 0.312 0.312 0 0 0-0.129-0.406c0.268-0.451 0.697-1.02 1.259-1.269 0.603-0.266 1.299-0.263 1.772 0.01 0.348 0.201 0.549 0.521 0.595 0.951 0.088 0.805 0.014 1.344-0.22 1.604a0.58 0.58 0 0 1-0.069 0.064v0.7a1.22 1.22 0 0 0 0.536-0.346c0.362-0.403 0.485-1.087 0.376-2.09-0.068-0.621-0.389-1.128-0.905-1.425a2.316 2.316 0 0 0-1.116-0.292zm0.027 3.07c-0.173 0-1.919 0.144-2.38 2.423l-0.295 1.883c0 0.173 0.14 0.392 0.313 0.392h1.487a1.352 1.352 0 0 1-0.287-0.832 1.361 1.361 0 0 1 1.932-1.233v-2.477c0-0.173 0.017-0.156-0.156-0.156zm0.199 2.818a1.045 1.045 0 1 0-0.343 2.036 1.043 1.043 0 0 0 1.39-0.988 1.04 1.04 0 0 0-0.476-0.876 1.04 1.04 0 0 0-0.571-0.172z" fill-opacity=".993" opacity=".25"/>
 <path d="m10.64 4.4126a2.92 2.92 0 0 0-1.222 0.252c-0.733 0.323-1.262 1.037-1.574 1.573a0.313 0.313 0 0 0-0.279 0.54 3.085 3.085 0 0 0-0.052 0.123l-1.518 3.333a0.31243 0.31243 0 0 0-0.269 0.564l0.01 4e-3 -0.341 0.751h-0.849a0.313 0.313 0 0 0 0 0.626h1.566a0.314 0.314 0 1 0 0-0.626h-0.03l0.219-0.477a0.322 0.322 0 0 0 0.086 0.013 0.312 0.312 0 0 0 0.17-0.575l1.571-3.453a0.311 0.311 0 0 0 0.414-0.15 0.312 0.312 0 0 0-0.129-0.406c0.268-0.451 0.697-1.02 1.259-1.269 0.603-0.266 1.299-0.263 1.772 0.01 0.348 0.201 0.549 0.521 0.595 0.951 0.088 0.805 0.014 1.344-0.22 1.604a0.58 0.58 0 0 1-0.069 0.064v0.7a1.22 1.22 0 0 0 0.536-0.346c0.362-0.403 0.485-1.087 0.376-2.09-0.068-0.621-0.389-1.128-0.905-1.425a2.316 2.316 0 0 0-1.116-0.292zm0.027 3.07c-0.173 0-1.919 0.144-2.38 2.423l-0.295 1.883c0 0.173 0.14 0.392 0.313 0.392h1.487a1.352 1.352 0 0 1-0.287-0.832 1.361 1.361 0 0 1 1.932-1.233v-2.477c0-0.173 0.017-0.156-0.156-0.156zm0.199 2.818a1.045 1.045 0 1 0-0.343 2.036 1.043 1.043 0 0 0 1.39-0.988 1.04 1.04 0 0 0-0.476-0.876 1.04 1.04 0 0 0-0.571-0.172z" fill="#fff" fill-opacity=".993"/>
</svg>
