<?xml version="1.0" encoding="UTF-8"?>
<svg width="64" height="64" version="1.1" viewBox="0 0 16.933 16.933" xmlns="http://www.w3.org/2000/svg" xmlns:cc="http://creativecommons.org/ns#" xmlns:dc="http://purl.org/dc/elements/1.1/" xmlns:rdf="http://www.w3.org/1999/02/22-rdf-syntax-ns#">
 <metadata>
  <rdf:RDF>
   <cc:Work rdf:about="">
    <dc:format>image/svg+xml</dc:format>
    <dc:type rdf:resource="http://purl.org/dc/dcmitype/StillImage"/>
    <dc:title/>
   </cc:Work>
  </rdf:RDF>
 </metadata>
 <defs>
  <linearGradient id="a-3" x1="-6.1472" x2="-6.1472" y1="-140.25" y2="-98.292" gradientTransform="matrix(.53033 0 0 .53033 11.536 71.99)" gradientUnits="userSpaceOnUse">
   <stop stop-color="#ff3c69" offset="0"/>
   <stop stop-color="#ff462b" offset="1"/>
  </linearGradient>
 </defs>
 <circle cx="8.4935" cy="8.73" r="7.9375" opacity=".2" stroke-width=".14032"/>
 <circle cx="8.4935" cy="8.46" r="7.9375" fill="url(#a-3)" stroke-width=".14032"/>
 <path transform="scale(.26458)" d="m33.879 13.197c-1.9815-0.062798-3.9844 0.35789-5.8477 1.0625-2.988 1.1345-5.7212 3.0262-7.6426 5.5801-1.923 2.5556-2.9937 5.7865-2.7461 8.9746 0.1628 2.0655 0.86858 4.0779 1.959 5.8398 1.0719 1.7337 2.512 3.2258 4.1504 4.4375a79.403 79.403 0 0 1-12.881 6.6543 71.134 71.134 0 0 0 14.221-5.748c3.093 1.8953 6.6972 2.906 10.309 3.3691 9.1026 1.1642 18.591-1.0905 26.219-6.1895a30.001 30.001 0 0 0 0.48438-5.2031 30.001 30.001 0 0 0-0.25781-3.6211c-6.0382 6.4516-14.483 10.605-23.283 11.422-3.6342 0.33688-7.4042 0.085694-10.748-1.3477a71.134 71.134 0 0 0 7.3477-4.877c2.4437-1.8891 4.8141-3.9964 6.3047-6.7012 0.74615-1.3533 1.2557-2.8467 1.3965-4.3848 0.13901-1.5381-0.10444-3.1218-0.79297-4.5039a8.1195 8.1195 0 0 0-2.5859-2.9766 9.7594 9.7594 0 0 0-3.6367-1.5566c-0.64992-0.13566-1.3082-0.20954-1.9688-0.23047zm-0.76367 2.877c0.39096-0.00363 0.78269 0.018333 1.1719 0.068359 1.5551 0.2001 3.0797 0.8926 4.0938 2.0898 0.82077 0.97 1.2716 2.2276 1.3496 3.4961 0.079674 1.2685-0.1978 2.5442-0.70312 3.7109-1.009 2.3317-2.87 4.1782-4.7676 5.8672a79.403 79.403 0 0 1-8.1621 6.2578c-1.3371-0.79028-2.5523-1.7879-3.5234-2.998-1.221-1.5177-2.0578-3.3578-2.2969-5.291-0.34932-2.8201 0.60746-5.7307 2.3711-7.959 1.7636-2.2283 4.2848-3.7969 6.998-4.6465 1.123-0.34976 2.2959-0.58481 3.4688-0.5957z" color="#000000" fill="#fff" stroke-width="1.6958"/>
 <circle cx="-330.35" cy="-328.38" r="0" fill="#5e4aa6" stroke-width=".26458"/>
 <circle cx="-301.68" cy="-344.3" r="0" fill="#5e4aa6" stroke-width=".26458"/>
</svg>
