<?xml version="1.0" encoding="UTF-8"?>
<svg width="64" height="64" version="1.1" xmlns="http://www.w3.org/2000/svg" xmlns:cc="http://creativecommons.org/ns#" xmlns:dc="http://purl.org/dc/elements/1.1/" xmlns:rdf="http://www.w3.org/1999/02/22-rdf-syntax-ns#">
 <metadata>
  <rdf:RDF>
   <cc:Work rdf:about="">
    <dc:format>image/svg+xml</dc:format>
    <dc:type rdf:resource="http://purl.org/dc/dcmitype/StillImage"/>
    <dc:title/>
   </cc:Work>
  </rdf:RDF>
 </metadata>
 <defs>
  <linearGradient id="a-3" x1="-6.1472" x2="-6.1472" y1="-140.25" y2="-98.292" gradientTransform="matrix(2.0044 0 0 2.0044 43.501 271.61)" gradientUnits="userSpaceOnUse">
   <stop stop-color="#ff3c69" offset="0"/>
   <stop stop-color="#ff462b" offset="1"/>
  </linearGradient>
 </defs>
 <circle cx="32" cy="32.51" r="30.001" opacity=".2" stroke-width=".53035"/>
 <circle cx="32" cy="31.49" r="30.001" fill="url(#a-3)" stroke-width=".53035"/>
 <g fill="#5e4aa6">
  <circle cx="-1248.7" cy="-1241.6" r="0"/>
  <circle cx="-1140.3" cy="-1301.8" r="0"/>
  <circle cx="-978.95" cy="-1316.3" r="0"/>
  <circle cx="120.52" cy="-50.805" r="0" fill-rule="evenodd"/>
  <circle cx="-972.45" cy="-1325.3" r="0"/>
  <circle cx="127.04" cy="-59.816" r="0" fill-rule="evenodd"/>
 </g>
 <path d="m17.772 30.991c1.033 1.0412 2.7126 1.0447 3.7512 0.0079l10.496-11.55 10.447 11.594c1.0342 1.0412 2.7125 1.0447 3.7512 0.0079 1.0387-1.0368 1.0422-2.7196 0.0079-3.7607l-12.153-13.488c-0.55953-0.56258-1.3057-0.8117-2.0401-0.76698-0.73288-0.04788-1.4814 0.19835-2.0433 0.75832l-12.21 13.437c-1.0374 1.0368-1.0409 2.7196-0.0079 3.7608zm14.215 11.228c-2.4138-0.0051-4.3747 1.9499-4.3798 4.3666-0.0051 2.4167 1.9475 4.38 4.3613 4.3851 2.4138 0.0051 4.3747-1.9499 4.3799-4.3666 0.0051-2.4167-1.9475-4.38-4.3613-4.3851zm0.02654-12.502c-2.4138-0.0051-4.3747 1.9499-4.3798 4.3666-0.0051 2.4167 1.9475 4.38 4.3613 4.3851 2.4138 0.0051 4.3747-1.9498 4.3799-4.3666 0.0051-2.4167-1.9475-4.38-4.3613-4.3851z" fill="#fff" fill-opacity=".85081" stroke-width="2.5774"/>
</svg>
