<?xml version="1.0" encoding="UTF-8" standalone="no"?>
<svg
   xmlns:dc="http://purl.org/dc/elements/1.1/"
   xmlns:cc="http://creativecommons.org/ns#"
   xmlns:rdf="http://www.w3.org/1999/02/22-rdf-syntax-ns#"
   xmlns:svg="http://www.w3.org/2000/svg"
   xmlns="http://www.w3.org/2000/svg"
   xmlns:xlink="http://www.w3.org/1999/xlink"
   xmlns:sodipodi="http://sodipodi.sourceforge.net/DTD/sodipodi-0.dtd"
   xmlns:inkscape="http://www.inkscape.org/namespaces/inkscape"
   height="64"
   width="64"
   version="1.1"
   id="svg27"
   sodipodi:docname="AdobeWidgetBrowser.svg"
   inkscape:version="1.0.1 (3bc2e813f5, 2020-09-07)">
  <metadata
     id="metadata33">
    <rdf:RDF>
      <cc:Work
         rdf:about="">
        <dc:format>image/svg+xml</dc:format>
        <dc:type
           rdf:resource="http://purl.org/dc/dcmitype/StillImage" />
        <dc:title></dc:title>
      </cc:Work>
    </rdf:RDF>
  </metadata>
  <defs
     id="defs31">
    <linearGradient
       id="linearGradient11422"
       x1="-6.1472001"
       x2="-6.1472001"
       y1="-137.82001"
       y2="-100.78"
       gradientTransform="matrix(2.0044,0,0,2.0044,43.503,271.61)"
       gradientUnits="userSpaceOnUse">
      <stop
         stop-color="#32b4ff"
         offset="0"
         id="stop860" />
      <stop
         stop-color="#3287ff"
         offset="1"
         id="stop862" />
    </linearGradient>
    <style
       type="text/css"
       id="style865" />
  </defs>
  <sodipodi:namedview
     pagecolor="#ffffff"
     bordercolor="#666666"
     borderopacity="1"
     objecttolerance="10"
     gridtolerance="10"
     guidetolerance="10"
     inkscape:pageopacity="0"
     inkscape:pageshadow="2"
     inkscape:window-width="1920"
     inkscape:window-height="932"
     id="namedview29"
     showgrid="false"
     inkscape:zoom="7.96875"
     inkscape:cx="4.3711036"
     inkscape:cy="36.228643"
     inkscape:window-x="0"
     inkscape:window-y="36"
     inkscape:window-maximized="1"
     inkscape:current-layer="svg27" />
  <linearGradient
     id="a">
    <stop
       offset="0"
       stop-color="#3889e9"
       id="stop2" />
    <stop
       offset="1"
       stop-color="#5ea5fb"
       id="stop4" />
  </linearGradient>
  <linearGradient
     id="b"
     gradientUnits="userSpaceOnUse"
     x1="399.57144"
     x2="399.57144"
     xlink:href="#a"
     y1="545.79797"
     y2="517.79797" />
  <linearGradient
     id="c"
     gradientUnits="userSpaceOnUse"
     x1="400.5119"
     x2="400.69922"
     y1="546.07446"
     y2="517.77289">
    <stop
       offset="0"
       stop-color="#4c93dd"
       id="stop8" />
    <stop
       offset="1"
       stop-color="#56c5fd"
       id="stop10" />
  </linearGradient>
  <linearGradient
     gradientUnits="userSpaceOnUse"
     x1="-0.5"
     x2="536"
     xlink:href="#a"
     y1="267.75"
     y2="267.75"
     id="linearGradient13" />
  <circle
     cx="-1124.8"
     cy="-1279.3"
     r="0"
     fill="#5e4aa6"
     id="circle869" />
  <circle
     cx="31.999001"
     cy="32.507999"
     r="30.000999"
     opacity="0.2"
     stroke-width="0.53035"
     id="circle871" />
  <circle
     cx="32.000999"
     cy="31.492001"
     r="30.000999"
     fill="url(#linearGradient11422)"
     stroke-width="3.7796"
     style="fill:url(#linearGradient11422);paint-order:normal"
     id="circle873" />
  <g
     transform="matrix(3.7796,0,0,3.7796,123.83,-38.184)"
     fill="#5e4aa6"
     stroke-width="0.26458"
     id="g883">
    <circle
       cx="-299.01999"
       cy="-338.76999"
       r="0"
       id="circle875" />
    <circle
       cx="-8.1062002"
       cy="-3.9487"
       r="0"
       fill-rule="evenodd"
       id="circle877" />
    <circle
       cx="-278.25"
       cy="-357.69"
       r="0"
       id="circle879" />
    <circle
       cx="12.663"
       cy="-22.858999"
       r="0"
       fill-rule="evenodd"
       id="circle881" />
  </g>
  <path
     d="m 46.368338,29.829039 h -2.142857 v -5.714285 c 0,-1.571428 -1.285714,-2.857143 -2.857143,-2.857143 h -5.714285 v -2.142857 c 0,-2 -1.571429,-3.571429 -3.571429,-3.571429 -2,0 -3.571428,1.571428 -3.571428,3.571429 v 2.142857 H 22.79691 c -1.571429,0 -2.857143,1.285715 -2.857143,2.857143 v 5.42857 h 2.142857 c 2.142857,0 3.857144,1.714284 3.857144,3.857143 0,2.142857 -1.714287,3.857143 -3.857144,3.857143 h -2.142857 v 5.428571 c 0,1.57143 1.285714,2.857145 2.857143,2.857145 h 5.428571 v -2.142857 c 0,-2.142858 1.714286,-3.857145 3.857143,-3.857145 2.142857,0 3.857144,1.714284 3.857144,3.857144 v 2.142857 h 5.42857 c 1.571429,0 2.857143,-1.285715 2.857143,-2.857145 v -5.714285 h 2.142857 c 2,0 3.571429,-1.571427 3.571429,-3.571428 0,-2 -1.571429,-3.571429 -3.571429,-3.571428 z"
     fill="#ffffff"
     fill-opacity="0.85"
     id="path951"
     style="fill:#ffffff;fill-opacity:1;stroke-width:0.0560224" />
</svg>
