<?xml version="1.0" encoding="UTF-8"?>
<svg width="64" height="64" version="1.1" viewBox="0 0 64 64" xmlns="http://www.w3.org/2000/svg" xmlns:cc="http://creativecommons.org/ns#" xmlns:dc="http://purl.org/dc/elements/1.1/" xmlns:rdf="http://www.w3.org/1999/02/22-rdf-syntax-ns#">
 <metadata>
  <rdf:RDF>
   <cc:Work rdf:about="">
    <dc:format>image/svg+xml</dc:format>
    <dc:type rdf:resource="http://purl.org/dc/dcmitype/StillImage"/>
    <dc:title/>
   </cc:Work>
  </rdf:RDF>
 </metadata>
 <defs>
  <style type="text/css"/>
  <linearGradient id="a-3" x1="-6.1472" x2="-6.1472" y1="-140.25" y2="-98.292" gradientTransform="matrix(2.0044,0,0,2.0044,158.75,201.78)" gradientUnits="userSpaceOnUse">
   <stop stop-color="#ff3c69" offset="0"/>
   <stop stop-color="#ff462b" offset="1"/>
  </linearGradient>
 </defs>
 <g transform="translate(-115.25 69.83)" stroke-width=".53035">
  <circle cx="147.25" cy="-37.32" r="30.001" opacity=".2"/>
  <circle cx="147.25" cy="-38.341" r="30.001" fill="url(#a-3)"/>
 </g>
 <circle cx="-1133.4" cy="-1295.5" r="0" fill="#5e4aa6"/>
 <circle cx="-1025.1" cy="-1355.6" r="0" fill="#5e4aa6"/>
 <path d="m36.256 14.526c-2.9018 0.22073-5.0002 2.0822-6.194 5.5735-1.7349 5.0365-4.6637 8.0339-9.7998 9.9896-3.0391 1.1508-4.1065 1.9247-5.0527 3.7431-0.76181 1.4617-0.92063 3.6071-0.42533 5.3972 0.3311 1.1939 2.0499 3.1657 3.3958 3.8642 1.2665 0.66758 3.6542 0.75236 7.1712 0.21535 2.0606-0.31496 2.56-0.3311 4.4591 0.04168 2.665 0.52626 5.1846 1.7982 7.3394 3.6596 1.992 1.7242 2.7861 2.1347 4.3272 2.3823 1.4926 0.2315 2.6448 0.08479 4.159-0.55183 1.3459-0.56799 2.8332-2.0876 3.4389-3.4914 0.22611-0.5155 0.42128-1.6609 0.42531-2.5923 0.0052-2.0081-0.60972-3.381-2.2087-5.2317-1.5613-1.8036-2.6703-3.6017-3.3124-5.3568-0.75776-2.0822-0.92063-6.2667-0.33648-8.8859 0.65144-2.9342 0.10504-4.9679-1.8238-6.797-1.3621-1.2881-2.4604-1.809-4.2909-1.9557-0.44686-0.03632-0.85737-0.03096-1.2719 0m-2.8023 13.264c1.4873-0.03632 3.0284 0.52088 4.2478 1.6986 3.0176 2.9288 2.3029 7.6396-1.4455 9.5266-1.1831 0.59356-3.1132 0.72547-4.4537 0.29477-1.2665-0.40514-2.7861-1.6824-3.4806-2.9759-0.30015-0.54644-0.42129-1.4402-0.42533-2.6394-0.0052-1.5034 0.1104-1.9355 0.72008-2.9759 1.0942-1.8668 2.9234-2.887 4.8373-2.9288" fill="#fff" fill-opacity=".84677" stroke-width="1.3065"/>
</svg>
