<?xml version="1.0" encoding="UTF-8" standalone="no"?>
<svg
   xmlns:dc="http://purl.org/dc/elements/1.1/"
   xmlns:cc="http://creativecommons.org/ns#"
   xmlns:rdf="http://www.w3.org/1999/02/22-rdf-syntax-ns#"
   xmlns:svg="http://www.w3.org/2000/svg"
   xmlns="http://www.w3.org/2000/svg"
   xmlns:sodipodi="http://sodipodi.sourceforge.net/DTD/sodipodi-0.dtd"
   xmlns:inkscape="http://www.inkscape.org/namespaces/inkscape"
   viewBox="0 0 64 64"
   version="1.1"
   id="svg4305"
   sodipodi:docname="aim.svg"
   inkscape:version="1.0.1 (3bc2e813f5, 2020-09-07)"
   width="64"
   height="64">
  <metadata
     id="metadata4311">
    <rdf:RDF>
      <cc:Work
         rdf:about="">
        <dc:format>image/svg+xml</dc:format>
        <dc:type
           rdf:resource="http://purl.org/dc/dcmitype/StillImage" />
        <dc:title></dc:title>
      </cc:Work>
    </rdf:RDF>
  </metadata>
  <defs
     id="defs4309">
    <linearGradient
       id="f-5"
       x1="-6.1472001"
       x2="-6.1472001"
       y1="-137.82001"
       y2="-100.78"
       gradientTransform="matrix(2.0044,0,0,2.0044,-42.747576,249.6374)"
       gradientUnits="userSpaceOnUse">
      <stop
         stop-color="#14dc78"
         offset="0"
         id="stop840" />
      <stop
         stop-color="#14a03c"
         offset="1"
         id="stop842" />
    </linearGradient>
  </defs>
  <sodipodi:namedview
     pagecolor="#ffffff"
     bordercolor="#666666"
     inkscape:document-rotation="0"
     borderopacity="1"
     objecttolerance="10"
     gridtolerance="10"
     guidetolerance="10"
     inkscape:pageopacity="0"
     inkscape:pageshadow="2"
     inkscape:window-width="1920"
     inkscape:window-height="932"
     id="namedview4307"
     showgrid="false"
     inkscape:zoom="6.0833333"
     inkscape:cx="13.56234"
     inkscape:cy="12.662025"
     inkscape:current-layer="svg4305"
     inkscape:window-x="0"
     inkscape:window-y="36"
     inkscape:window-maximized="1" />
  <linearGradient
     id="a"
     gradientUnits="userSpaceOnUse"
     x1="399.57144"
     x2="399.57144"
     y1="545.79797"
     y2="517.79797"
     gradientTransform="matrix(1.501011,0,0,1.501011,-588.86335,-776.1394)">
    <stop
       offset="0"
       stop-color="#3889e9"
       id="stop4289" />
    <stop
       offset="1"
       stop-color="#5ea5fb"
       id="stop4291" />
  </linearGradient>
  <linearGradient
     id="b"
     gradientUnits="userSpaceOnUse"
     x1="-332.32077"
     x2="-318.62283"
     y1="663.40253"
     y2="236.93983"
     gradientTransform="matrix(0.12683989,0,0,0.12683989,72.197655,-84.389963)">
    <stop
       offset="0"
       stop-color="#00aad4"
       id="stop4294" />
    <stop
       offset="1"
       stop-color="#0cf"
       id="stop4296" />
  </linearGradient>
  <g
     id="g898"
     transform="translate(86.246574,21.972603)">
    <circle
       cx="-54.246574"
       cy="10.537396"
       r="30.000999"
       opacity="0.2"
       stroke-width="0.53035"
       id="circle849" />
    <circle
       cx="-54.246574"
       cy="9.5173979"
       r="30.000999"
       fill="url(#f-5)"
       stroke-width="0.53035"
       id="circle851"
       style="fill:url(#f-5)" />
  </g>
  <circle
     cx="12.39871"
     cy="22.095125"
     fill="url(#a)"
     r="0"
     id="circle4299"
     style="fill:url(#a);stroke-width:1.50101" />
  <path
     d="m 17.942982,40.520194 c 0.365389,-0.18641 0.949401,-0.632656 1.297806,-0.991669 0.348405,-0.359006 0.714843,-0.652741 0.814302,-0.652741 0.09946,0 0.331697,0.295718 0.516086,0.657154 0.54506,1.068401 1.279423,1.37607 2.591359,1.085681 0.483108,-0.106931 1.532158,-1.063933 1.532158,-1.397713 0,-0.07595 -0.290032,-0.184458 -0.644525,-0.241143 -0.438463,-0.07011 -0.781125,-0.265408 -1.071791,-0.610845 -0.561642,-0.667479 -0.565646,-1.694234 -0.01463,-3.750983 0.226493,-0.845429 0.411812,-1.708759 0.411812,-1.918513 0,-0.472105 -0.647136,-0.921564 -1.489571,-1.034557 -0.725482,-0.09731 -0.638142,-0.276543 -1.223811,2.511519 -0.466727,2.221845 -0.86382,2.956986 -2.046054,3.78789 -0.599076,0.421052 -0.865038,0.499284 -1.697366,0.499284 -0.944475,0 -1.014385,-0.02938 -1.62336,-0.682236 -0.368076,-0.394595 -0.718389,-0.985517 -0.830898,-1.401579 -0.267788,-0.9903 -0.12129,-2.859277 0.298299,-3.805647 0.510976,-1.152496 1.682421,-2.315065 2.885369,-2.863526 0.918088,-0.418578 1.204272,-0.467631 2.676903,-0.458805 1.851006,0.0111 2.757463,0.266965 3.741569,1.056174 0.334746,0.268459 0.645478,0.42847 0.690526,0.355592 0.134597,-0.217782 -0.222043,-1.55124 -0.562,-2.101301 -0.713135,-1.153883 -3.002096,-1.832686 -5.234648,-1.552357 -4.239811,0.532368 -6.966864,3.822079 -6.960506,8.396618 0.0037,2.863564 0.993715,4.72519 2.883638,5.423902 0.68858,0.254569 2.265743,0.09465 3.059327,-0.310199 z m 11.687133,0.172646 c 0.674257,-0.193378 1.495345,-0.936427 1.495345,-1.35323 0,-0.221867 -0.126858,-0.298932 -0.492078,-0.298932 -0.308761,0 -0.689246,-0.176179 -1.02137,-0.472934 -0.471597,-0.421371 -0.536309,-0.587633 -0.593628,-1.525241 -0.05316,-0.870015 0.08456,-1.623628 0.795091,-4.350148 1.183941,-4.54308 1.153198,-4.205552 0.382575,-4.200794 -0.848222,0.005 -1.894002,0.256721 -2.038272,0.49015 -0.157958,0.255586 -1.294761,6.067236 -1.467672,7.503148 -0.263042,2.184436 0.177109,3.686993 1.212118,4.137827 0.611021,0.266143 0.990741,0.281565 1.727891,0.07016 z m 21.288028,-0.209364 c 0.694362,-0.350414 1.227088,-1.017378 1.046282,-1.309927 -0.0452,-0.07308 -0.340816,-0.132871 -0.657003,-0.132871 -0.396993,0 -0.705541,-0.130661 -0.997136,-0.42225 -0.394017,-0.394017 -0.41677,-0.501512 -0.340396,-1.607691 0.045,-0.651995 0.245399,-1.927451 0.445292,-2.834353 0.423555,-1.921657 0.378608,-3.169764 -0.153766,-4.269492 -0.842629,-1.740638 -3.131233,-1.66776 -5.108319,0.162678 -0.524828,0.485895 -1.005489,0.832198 -1.068137,0.76955 -0.06264,-0.06264 -0.253671,-0.429876 -0.424503,-0.816073 -0.804907,-1.819617 -3.300803,-1.830783 -5.176194,-0.02316 -0.80957,0.780327 -1.257824,0.916092 -1.257824,0.380969 0,-0.480893 -0.495838,-1.225807 -0.983954,-1.478217 -1.25266,-0.647776 -3.302894,0.02731 -3.494458,1.150662 -0.04808,0.281786 0.05925,0.342362 0.747633,0.422087 1.579993,0.182984 1.644975,0.709056 0.71434,5.783154 -0.405403,2.210346 -0.682669,4.078287 -0.61616,4.150977 0.06651,0.0727 0.595698,0.109798 1.175975,0.08245 l 1.055045,-0.04971 0.187974,-0.824452 c 0.103375,-0.453451 0.34691,-1.667778 0.541174,-2.698501 0.810254,-4.298999 2.417506,-6.624414 3.995058,-5.780135 0.456921,0.24454 0.799778,1.138669 0.799037,2.083797 -3.45e-4,0.433692 -0.259772,2.161248 -0.576498,3.83902 -0.316734,1.677771 -0.576161,3.146491 -0.5765,3.263827 -5.02e-4,0.159364 0.300973,0.201078 1.191349,0.164894 l 1.19197,-0.04846 0.447846,-2.449405 c 0.520705,-2.847923 1.070559,-4.599087 1.801948,-5.738866 1.168018,-1.820188 2.925476,-1.700875 3.292605,0.223537 0.137911,0.722903 0.02455,1.762317 -0.419187,3.842454 -0.434056,2.034906 -0.264523,3.389755 0.508542,4.064032 0.638826,0.557198 1.722115,0.596992 2.707965,0.09947 z M 31.33687,25.954571 c 1.208654,-0.511566 1.572311,-1.783746 0.71957,-2.517244 -0.791111,-0.680484 -2.613226,-0.428683 -3.069683,0.424209 -0.298223,0.557235 -0.201852,1.406494 0.201229,1.773208 0.645981,0.587709 1.289635,0.683509 2.148884,0.319827 z"
     fill="#f3f3f3"
     id="path4303"
     inkscape:connector-curvature="0"
     style="stroke-width:0.627666" />
  <circle
     cx="-1334.9465"
     cy="-1263.5726"
     r="0"
     fill="#5e4aa6"
     id="circle847" />
  <g
     fill="#5e4aa6"
     id="g859"
     transform="translate(-86.246576,-21.972602)">
    <circle
       cx="-149.14999"
       cy="23.855"
       r="0"
       fill-rule="evenodd"
       id="circle853" />
    <circle
       cx="-1150.9"
       cy="-1256.6"
       r="0"
       id="circle855" />
    <circle
       cx="-51.327"
       cy="8.8744001"
       r="0"
       fill-rule="evenodd"
       id="circle857" />
  </g>
</svg>
