<?xml version="1.0" encoding="UTF-8"?>
<svg width="64" height="64" version="1.1" xmlns="http://www.w3.org/2000/svg" xmlns:cc="http://creativecommons.org/ns#" xmlns:dc="http://purl.org/dc/elements/1.1/" xmlns:rdf="http://www.w3.org/1999/02/22-rdf-syntax-ns#" xmlns:xlink="http://www.w3.org/1999/xlink">
 <metadata>
  <rdf:RDF>
   <cc:Work rdf:about="">
    <dc:format>image/svg+xml</dc:format>
    <dc:type rdf:resource="http://purl.org/dc/dcmitype/StillImage"/>
    <dc:title/>
   </cc:Work>
  </rdf:RDF>
 </metadata>
 <defs>
  <linearGradient id="a-3" x1="-6.1472" x2="-6.1472" y1="-137.82" y2="-100.78" gradientTransform="matrix(2.0044 0 0 2.0044 43.499 271.61)" gradientUnits="userSpaceOnUse">
   <stop stop-color="#ff8214" offset="0"/>
   <stop stop-color="#ff6464" offset="1"/>
  </linearGradient>
  <style type="text/css"/>
 </defs>
 <circle cx="-1248.7" cy="-1241.6" r="0" fill="#5e4aa6"/>
 <circle cx="-149.15" cy="23.855" r="0" fill="#5e4aa6" fill-rule="evenodd"/>
 <circle cx="32" cy="32.51" r="30.001" opacity=".2" stroke-width=".53035"/>
 <circle cx="32" cy="31.49" r="30.001" fill="url(#a-3)" stroke-width=".53035"/>
 <path d="m24.707 46.068c-4.7539-2.647-7.7071-7.6711-7.7071-13.109 0-8.2833 6.7167-15 15-15s15 6.7167 15 15c0 5.4382-2.9532 10.462-7.7071 13.109l-1.3505-2.6831c4.7179-2.7011 7.0408-8.2473 5.6362-13.505-1.4046-5.2581-6.1585-8.9136-11.597-8.9136-5.4382 0-10.21 3.6555-11.597 8.9136-1.4046 5.2581 0.91837 10.804 5.6363 13.505zm2.7011-5.3842c-3.4754-2.0708-5.1501-6.2125-4.0696-10.12 1.0804-3.9076 4.6278-6.6086 8.6795-6.6086s7.599 2.7011 8.6795 6.6086-0.59424 8.0492-4.0696 10.12l-1.3505-2.7011c2.2329-1.4406 3.2413-4.1957 2.485-6.7347-0.7563-2.539-3.0972-4.3037-5.7623-4.3037s-5.006 1.7467-5.7623 4.3037c-0.75631 2.557 0.2521 5.2941 2.485 6.7347zm4.6098-1.7287 4.5018 9.0036h-9.0036z" opacity=".2" stroke-width=".029543" p-id="56474"/>
 <path d="m24.707 45.109c-4.7539-2.647-7.7071-7.6711-7.7071-13.109 0-8.2833 6.7167-15 15-15s15 6.7167 15 15c0 5.4382-2.9532 10.462-7.7071 13.109l-1.3505-2.6831c4.7179-2.7011 7.0408-8.2473 5.6362-13.505-1.4046-5.2581-6.1585-8.9136-11.597-8.9136-5.4382 0-10.21 3.6555-11.597 8.9136-1.4046 5.2581 0.91837 10.804 5.6363 13.505zm2.7011-5.3842c-3.4754-2.0708-5.1501-6.2125-4.0696-10.12 1.0804-3.9076 4.6278-6.6086 8.6795-6.6086s7.599 2.7011 8.6795 6.6086-0.59424 8.0492-4.0696 10.12l-1.3505-2.7011c2.2329-1.4406 3.2413-4.1957 2.485-6.7347-0.7563-2.539-3.0972-4.3037-5.7623-4.3037s-5.006 1.7467-5.7623 4.3037c-0.75631 2.557 0.2521 5.2941 2.485 6.7347zm4.6098-1.7287 4.5018 9.0036h-9.0036z" fill="#fff" stroke-width=".029543" p-id="56474"/>
</svg>
