<?xml version="1.0" encoding="UTF-8" standalone="no"?>
<svg
   xmlns:dc="http://purl.org/dc/elements/1.1/"
   xmlns:cc="http://creativecommons.org/ns#"
   xmlns:rdf="http://www.w3.org/1999/02/22-rdf-syntax-ns#"
   xmlns:svg="http://www.w3.org/2000/svg"
   xmlns="http://www.w3.org/2000/svg"
   xmlns:sodipodi="http://sodipodi.sourceforge.net/DTD/sodipodi-0.dtd"
   xmlns:inkscape="http://www.inkscape.org/namespaces/inkscape"
   height="64"
   width="64"
   version="1.1"
   id="svg11"
   sodipodi:docname="alchemy.svg"
   inkscape:version="1.0.1 (3bc2e813f5, 2020-09-07)">
  <metadata
     id="metadata17">
    <rdf:RDF>
      <cc:Work
         rdf:about="">
        <dc:format>image/svg+xml</dc:format>
        <dc:type
           rdf:resource="http://purl.org/dc/dcmitype/StillImage" />
        <dc:title></dc:title>
      </cc:Work>
    </rdf:RDF>
  </metadata>
  <defs
     id="defs15">
    <linearGradient
       id="a-3"
       x1="-6.1472"
       x2="-6.1472"
       y1="-137.82"
       y2="-100.78"
       gradientTransform="matrix(2.0043985,0,0,2.0043985,-77.598601,255.17054)"
       gradientUnits="userSpaceOnUse">
      <stop
         stop-color="#14dc78"
         offset="0"
         id="stop844" />
      <stop
         stop-color="#14a03c"
         offset="1"
         id="stop846" />
    </linearGradient>
    <style
       type="text/css"
       id="style849" />
    <style
       type="text/css"
       id="style851" />
  </defs>
  <sodipodi:namedview
     pagecolor="#ffffff"
     bordercolor="#666666"
     borderopacity="1"
     objecttolerance="10"
     gridtolerance="10"
     guidetolerance="10"
     inkscape:pageopacity="0"
     inkscape:pageshadow="2"
     inkscape:window-width="1920"
     inkscape:window-height="932"
     id="namedview13"
     showgrid="false"
     inkscape:zoom="7.96875"
     inkscape:cx="35.639071"
     inkscape:cy="42.508238"
     inkscape:window-x="0"
     inkscape:window-y="36"
     inkscape:window-maximized="1"
     inkscape:current-layer="svg11" />
  <linearGradient
     id="a"
     gradientTransform="matrix(1.0454546,0,0,1.3529412,-413.1928,-716.94935)"
     gradientUnits="userSpaceOnUse"
     x1="409.57144"
     x2="409.57144"
     y1="542.79797"
     y2="507.798">
    <stop
       offset="0"
       stop-color="#0bac83"
       id="stop2" />
    <stop
       offset="1"
       stop-color="#10da96"
       id="stop4" />
  </linearGradient>
  <g
     id="g888"
     transform="translate(121.09804,16.439215)">
    <circle
       cx="-89.098038"
       cy="16.070654"
       r="30.000969"
       opacity="0.2"
       stroke-width="0.530354"
       id="circle857" />
    <circle
       cx="-89.098038"
       cy="15.050916"
       r="30.000969"
       fill="url(#a-3)"
       stroke-width="0.530354"
       id="circle859"
       style="fill:url(#a-3)" />
  </g>
  <path
     d="M 47.615363,44.174426 38.433049,27.186301 V 17.066124 c 0,-0.952433 -0.796762,-1.711619 -1.748427,-1.711619 h -9.372495 c -0.952433,0 -1.736159,0.759186 -1.736159,1.711619 v 10.120177 l -9.189981,16.988125 c -0.700906,1.295217 -0.66563,2.868036 0.08819,4.134111 0.753817,1.264544 2.121118,2.045968 3.593478,2.045968 h 23.860673 c 1.47236,0 2.842728,-0.781424 3.596546,-2.045968 0.753051,-1.266075 0.791394,-2.838895 0.09049,-4.134111 z M 33.515979,37.06722 c 0.822834,0 1.489231,0.666395 1.489231,1.48923 0,0.822068 -0.66793,1.489232 -1.489231,1.489232 -0.822068,0 -1.489232,-0.667164 -1.489232,-1.489232 0,-0.820533 0.666397,-1.48923 1.489232,-1.48923 z m -4.187792,-8.954559 c 0.822835,0 1.489232,0.667164 1.489232,1.489998 0,0.822068 -0.666397,1.489232 -1.489232,1.489232 -0.822835,0 -1.489231,-0.667164 -1.489231,-1.489232 7.66e-4,-0.822834 0.666396,-1.489998 1.489231,-1.489998 z m 0,5.199272 c 1.332794,0 2.414057,1.081265 2.414057,2.413292 0,1.332792 -1.081263,2.41329 -2.414057,2.41329 -1.33356,0 -2.414057,-1.080498 -2.414057,-2.41329 0,-1.332794 1.080497,-2.413292 2.414057,-2.413292 z m 13.863194,12.380864 c -0.30981,0.527597 -0.876515,0.838939 -1.486165,0.838939 H 22.290764 c -0.610415,0 -1.176354,-0.311342 -1.486163,-0.838939 -0.309809,-0.527595 -0.318245,-1.171753 -0.02147,-1.707018 l 2.333538,-4.194693 c 0.332815,-0.59968 0.989243,-0.94323 1.671743,-0.878048 3.098858,0.295239 6.58191,2.946254 9.694573,2.828158 1.667141,-0.06365 3.214653,-0.670997 4.688547,-1.483095 0.832037,-0.460113 1.878793,-0.158739 2.34044,0.67253 l 1.701649,3.053615 c 0.295239,0.536031 0.287571,1.181722 -0.02224,1.708551 z"
     fill="#ffffff"
     fill-opacity="0.850806"
     id="path890"
     style="fill:#000000;fill-opacity:1;stroke-width:0.766854;opacity:0.3" />
  <path
     d="M 47.615363,43.319921 38.433049,26.331796 V 16.211619 C 38.433049,15.259186 37.636287,14.5 36.684622,14.5 h -9.372495 c -0.952433,0 -1.736159,0.759186 -1.736159,1.711619 v 10.120177 l -9.189981,16.988125 c -0.700906,1.295217 -0.66563,2.868036 0.08819,4.134111 C 17.227994,48.718576 18.595295,49.5 20.067655,49.5 h 23.860673 c 1.47236,0 2.842728,-0.781424 3.596546,-2.045968 0.753051,-1.266075 0.791394,-2.838895 0.09049,-4.134111 z M 33.515979,36.212715 c 0.822834,0 1.489231,0.666395 1.489231,1.48923 0,0.822068 -0.66793,1.489232 -1.489231,1.489232 -0.822068,0 -1.489232,-0.667164 -1.489232,-1.489232 0,-0.820533 0.666397,-1.48923 1.489232,-1.48923 z m -4.187792,-8.954559 c 0.822835,0 1.489232,0.667164 1.489232,1.489998 0,0.822068 -0.666397,1.489232 -1.489232,1.489232 -0.822835,0 -1.489231,-0.667164 -1.489231,-1.489232 7.66e-4,-0.822834 0.666396,-1.489998 1.489231,-1.489998 z m 0,5.199272 c 1.332794,0 2.414057,1.081265 2.414057,2.413292 0,1.332792 -1.081263,2.41329 -2.414057,2.41329 -1.33356,0 -2.414057,-1.080498 -2.414057,-2.41329 0,-1.332794 1.080497,-2.413292 2.414057,-2.413292 z m 13.863194,12.380864 c -0.30981,0.527597 -0.876515,0.838939 -1.486165,0.838939 H 22.290764 c -0.610415,0 -1.176354,-0.311342 -1.486163,-0.838939 -0.309809,-0.527595 -0.318245,-1.171753 -0.02147,-1.707018 l 2.333538,-4.194693 c 0.332815,-0.59968 0.989243,-0.94323 1.671743,-0.878048 3.098858,0.295239 6.58191,2.946254 9.694573,2.828158 1.667141,-0.06365 3.214653,-0.670997 4.688547,-1.483095 0.832037,-0.460113 1.878793,-0.158739 2.34044,0.67253 l 1.701649,3.053615 c 0.295239,0.536031 0.287571,1.181722 -0.02224,1.708551 z"
     fill="#ffffff"
     fill-opacity="0.850806"
     id="path9"
     style="fill:#ffffff;fill-opacity:1;stroke-width:0.766854" />
  <circle
     cx="-1369.803"
     cy="-1258.0385"
     r="0"
     fill="#5e4aa6"
     stroke-width="1.00001"
     id="circle855" />
</svg>
