<svg width="64" height="64" version="1.1" viewBox="0 0 16.933 16.933" xmlns="http://www.w3.org/2000/svg">
 <g transform="translate(0 -280.07)">
  <circle cx="-330.35" cy="-48.312" r="0" fill="#5e4aa6" stroke-width=".26458"/>
  <ellipse cx="-39.434" cy="286.51" r=".90502" fill="#5e4aa6" fill-rule="evenodd" stroke-width=".26458"/>
  <circle cx="8.4935" cy="288.8" r="7.9375" opacity=".2" stroke-width=".14032"/>
  <circle cx="8.4935" cy="288.53" r="7.9375" fill="#fafafa" stroke-width=".14032"/>
  <g transform="matrix(1.3289 0 0 1.3289 -2.8567 -96.843)" fill-rule="evenodd">
   <g transform="translate(1.2191 1.9303)" fill="#f90">
    <path d="m9.9947 289.59c-0.72465 0.53412-1.775 0.8191-2.6793 0.8191-1.268 0-2.4095-0.46899-3.2732-1.249-0.067851-0.0613-0.00706-0.14493 0.074365-0.0972 0.93201 0.54227 2.0844 0.8685 3.2748 0.8685 0.80282 0 1.686-0.1661 2.498-0.51078 0.12268-0.0521 0.22527 0.0803 0.10531 0.16936"/>
    <path d="m10.296 289.25c-0.09228-0.11833-0.61229-0.0559-0.8457-0.0282-0.071109 9e-3 -0.081964-0.0532-0.017913-0.0977 0.41417-0.29149 1.0938-0.20736 1.173-0.10965 0.07925 0.0983-0.02063 0.77948-0.40982 1.1046-0.05971 0.0499-0.1167 0.0233-0.09011-0.0429 0.08739-0.21821 0.28335-0.70728 0.19053-0.82616"/>
   </g>
   <path d="m8.95 289.29c0 0.28622 0.00723 0.52491-0.13743 0.77912-0.11676 0.20666-0.30276 0.33374-0.50839 0.33374-0.28209 0-0.44742-0.21493-0.44742-0.53214 0-0.62619 0.56109-0.73985 1.0932-0.73985v0.15913m0.74088 1.7907c-0.048566 0.0434-0.11883 0.0465-0.17359 0.0171-0.24386-0.20254-0.28829-0.29656-0.42159-0.4898-0.40299 0.41126-0.68922 0.53423-1.211 0.53423-0.61895 0-1.0994-0.38129-1.0994-1.1449 0-0.59622 0.32239-1.0023 0.78325-1.2007 0.39886-0.1757 0.95581-0.20666 1.3815-0.25523v-0.0949c0-0.17456 0.013439-0.38129-0.089898-0.53216-0.088865-0.13535-0.26039-0.19116-0.41229-0.19116-0.28003 0-0.52905 0.14373-0.59002 0.44122-0.012392 0.066-0.060965 0.13116-0.12813 0.1344l-0.71195-0.0766c-0.059932-0.0133-0.1271-0.062-0.10953-0.154 0.16326-0.86385 0.94444-1.1242 1.643-1.1242 0.35752 0 0.82458 0.095 1.1067 0.36579 0.35752 0.33377 0.32343 0.77911 0.32343 1.2637v1.1449c0 0.34411 0.1426 0.49496 0.27693 0.68096 0.0465 0.066 0.05683 0.14563-0.0031 0.1953-0.14983 0.12506-0.41642 0.35751-0.56315 0.4877l-0.00103-2e-3" fill="#221f1f"/>
  </g>
  <g transform="translate(.18224 -.59807)">
   <g transform="matrix(.0090945 0 0 .0090945 5.8167 286.99)" enable-background="new" fill-rule="evenodd" stroke-width="3.5016">
    <path d="m222.03 784.73c-34.999 25.797-85.729 39.561-129.41 39.561-61.243 0-116.38-22.651-158.09-60.325-3.2771-2.9625-0.34083-6.9999 3.5917-4.6928 45.014 26.191 100.67 41.947 158.17 41.947 38.775 0 81.429-8.0224 120.65-24.67 5.925-2.5168 10.88 3.8801 5.0861 8.1796" fill="#f90"/>
    <path d="m236.58 768.09c-4.4569-5.7153-29.573-2.7003-40.846-1.3633-3.4344 0.41947-3.9587-2.5692-0.86517-4.719 20.003-14.078 52.827-10.015 56.655-5.2958 3.8276 4.7453-0.99624 37.647-19.794 53.351-2.8838 2.412-5.6366 1.1273-4.352-2.0711 4.2209-10.539 13.685-34.161 9.2021-39.902" fill="#f90"/>
    <g fill="#221f1f">
     <path d="m196.52 662.62v-13.685c0-2.0711 1.573-3.4606 3.4606-3.4606h61.269c1.9663 0 3.5393 1.4157 3.5393 3.4606v11.719c-0.0262 1.9663-1.6779 4.5355-4.6142 8.5991l-31.749 45.329c11.798-0.28837 24.251 1.4681 34.947 7.498 2.412 1.3633 3.0674 3.3558 3.2509 5.322v14.603c0 1.9925-2.2022 4.3258-4.5093 3.1198-18.85-9.8838-43.887-10.959-64.729 0.10487-2.1236 1.1535-4.352-1.1535-4.352-3.146v-13.869c0-2.2284 0.0262-6.0299 2.2546-9.4119l36.782-52.748h-32.011c-1.9663 0-3.5393-1.3895-3.5393-3.4344"/>
     <path d="m-26.981 748h-18.64c-1.7827-0.13107-3.1984-1.4681-3.3295-3.1722v-95.665c0-1.9138 1.5992-3.4344 3.5917-3.4344h17.382c1.809 0.0786 3.2509 1.4681 3.382 3.1984v12.505h0.34082c4.5355-12.086 13.056-17.723 24.539-17.723 11.666 0 18.955 5.6366 24.198 17.723 4.5093-12.086 14.76-17.723 25.745-17.723 7.8126 0 16.359 3.2247 21.576 10.461 5.8988 8.0486 4.6928 19.741 4.6928 29.992l-0.02621 60.377c0 1.9138-1.5992 3.4606-3.5917 3.4606h-18.614c-1.8614-0.13107-3.3557-1.6254-3.3557-3.4606v-50.703c0-4.0374 0.36702-14.105-0.52434-17.932-1.3895-6.4231-5.558-8.2321-10.959-8.2321-4.5093 0-9.2283 3.0149-11.142 7.8388-1.9138 4.8239-1.7303 12.899-1.7303 18.326v50.703c0 1.9138-1.5992 3.4606-3.5917 3.4606h-18.614c-1.8876-0.13107-3.3558-1.6254-3.3558-3.4606l-0.02621-50.703c0-10.67 1.7565-26.374-11.483-26.374-13.397 0-12.872 15.311-12.872 26.374v50.703c0 1.9138-1.5992 3.4606-3.5917 3.4606"/>
     <path d="m317.53 643.71c27.659 0 42.629 23.752 42.629 53.954 0 29.179-16.543 52.329-42.629 52.329-27.161 0-41.947-23.752-41.947-53.351 0-29.782 14.97-52.932 41.947-52.932m0.15729 19.532c-13.738 0-14.603 18.719-14.603 30.385 0 11.693-0.18352 36.651 14.445 36.651 14.445 0 15.127-20.135 15.127-32.404 0-8.0748-0.34082-17.723-2.779-25.378-2.0974-6.6591-6.2658-9.2545-12.191-9.2545"/>
     <path d="m396.03 748h-18.562c-1.8614-0.13107-3.3558-1.6254-3.3558-3.4606l-0.0262-95.691c0.1573-1.7565 1.7041-3.1198 3.5917-3.1198h17.277c1.6254 0.0786 2.9625 1.1798 3.3295 2.6741v14.629h0.3408c5.2172-13.082 12.532-19.322 25.404-19.322 8.3632 0 16.517 3.0149 21.76 11.273 4.8763 7.6553 4.8763 20.528 4.8763 29.782v60.22c-0.20973 1.6779-1.7565 3.0149-3.5917 3.0149h-18.693c-1.7041-0.13107-3.1198-1.3895-3.3033-3.0149v-51.962c0-10.461 1.206-25.771-11.667-25.771-4.5355 0-8.704 3.0412-10.775 7.6553-2.6217 5.8464-2.9625 11.667-2.9625 18.116v51.516c-0.0262 1.9138-1.6517 3.4606-3.6441 3.4606"/>
     <path d="m147.68 702.31c0 7.2621 0.18352 13.318-3.4868 19.768-2.9625 5.2434-7.6815 8.468-12.899 8.468-7.1572 0-11.352-5.4531-11.352-13.502 0-15.887 14.236-18.771 27.737-18.771v4.0374m18.797 45.434c-1.2322 1.1011-3.0149 1.1798-4.4044 0.4457-6.1872-5.1385-7.3145-7.5242-10.696-12.427-10.225 10.434-17.487 13.554-30.726 13.554-15.704 0-27.895-9.674-27.895-29.048 0-15.127 8.1797-25.43 19.872-30.464 10.12-4.4569 24.251-5.2434 35.052-6.4756v-2.412c0-4.4307 0.34082-9.674-2.2809-13.502-2.2546-3.4344-6.6067-4.8501-10.461-4.8501-7.1048 0-13.423 3.6441-14.97 11.195-0.3146 1.6779-1.5468 3.3296-3.2509 3.4082l-18.063-1.9401c-1.5206-0.3408-3.2247-1.573-2.779-3.9063 4.1423-21.917 23.962-28.524 41.685-28.524 9.071 0 20.921 2.412 28.078 9.2808 9.071 8.468 8.2059 19.768 8.2059 32.063v29.048c0 8.7302 3.6179 12.558 7.0261 17.277 1.1798 1.6779 1.4419 3.6966-0.0787 4.955-3.8014 3.1722-10.565 9.071-14.288 12.374l-0.0262-0.0525"/>
     <path d="m-96.692 702.31c0 7.2621 0.1835 13.318-3.4868 19.768-2.9625 5.2434-7.6553 8.468-12.899 8.468-7.1572 0-11.326-5.4531-11.326-13.502 0-15.887 14.236-18.771 27.711-18.771v4.0374m18.797 45.434c-1.2322 1.1011-3.015 1.1798-4.4044 0.4457-6.1872-5.1385-7.2883-7.5242-10.696-12.427-10.225 10.434-17.46 13.554-30.726 13.554-15.678 0-27.895-9.674-27.895-29.048 0-15.127 8.2059-25.43 19.872-30.464 10.12-4.4569 24.251-5.2434 35.052-6.4756v-2.412c0-4.4307 0.34082-9.674-2.2546-13.502-2.2809-3.4344-6.6329-4.8501-10.461-4.8501-7.1048 0-13.449 3.6441-14.996 11.195-0.31461 1.6779-1.5468 3.3296-3.2247 3.4082l-18.09-1.9401c-1.5206-0.3408-3.1985-1.573-2.779-3.9063 4.1685-21.917 23.962-28.524 41.685-28.524 9.071 0 20.921 2.412 28.078 9.2808 9.071 8.468 8.2059 19.768 8.2059 32.063v29.048c0 8.7302 3.6179 12.558 7.0261 17.277 1.206 1.6779 1.4681 3.6966-0.05244 4.955-3.8014 3.1722-10.565 9.071-14.288 12.374l-0.05242-0.0525"/>
    </g>
   </g>
   <text x="9.9290943" y="293.78891" fill="#221f1f" font-family="Arial" font-size="1.7837px" letter-spacing="0px" stroke-width=".0047975" word-spacing="0px" style="font-feature-settings:normal;font-variant-caps:normal;font-variant-ligatures:normal;font-variant-numeric:normal;line-height:1.25" xml:space="preserve"><tspan x="9.9290943" y="293.78891" fill="#221f1f" font-family="Arial" font-size="1.7837px" stroke-width=".0047975" style="font-feature-settings:normal;font-variant-caps:normal;font-variant-ligatures:normal;font-variant-numeric:normal">.cn</tspan></text>
  </g>
 </g>
</svg>
