<?xml version="1.0" encoding="UTF-8"?>
<svg width="64" height="64" version="1.1" xmlns="http://www.w3.org/2000/svg" xmlns:cc="http://creativecommons.org/ns#" xmlns:dc="http://purl.org/dc/elements/1.1/" xmlns:rdf="http://www.w3.org/1999/02/22-rdf-syntax-ns#">
 <metadata>
  <rdf:RDF>
   <cc:Work rdf:about="">
    <dc:format>image/svg+xml</dc:format>
    <dc:type rdf:resource="http://purl.org/dc/dcmitype/StillImage"/>
    <dc:title/>
   </cc:Work>
  </rdf:RDF>
 </metadata>
 <defs>
  <style type="text/css"/>
  <style type="text/css"/>
  <style type="text/css"/>
  <style type="text/css"/>
  <style type="text/css"/>
  <linearGradient id="linearGradient964" x1="32.828" x2="32.828" y1="51.463" y2="21.154" gradientTransform="matrix(.53033 0 0 .53033 11.536 352.06)" gradientUnits="userSpaceOnUse">
   <stop stop-color="#14dc78" offset="0"/>
   <stop stop-color="#14a03c" offset="1"/>
  </linearGradient>
 </defs>
 <g fill="#5e4aa6">
  <g transform="matrix(3.7796 0 0 3.7796 86.509 6.5083)" stroke-width=".26458">
   <g transform="translate(-.0272 .0065001)">
    <circle cx="-330.35" cy="-328.38" r="0"/>
    <circle cx="-312.11" cy="-326.25" r="0"/>
    <circle cx="-306.02" cy="-333.07" r="0"/>
    <circle cx="-308.84" cy="-326.01" r="0"/>
   </g>
   <g transform="translate(-.0272 .0065001)">
    <circle cx="-330.35" cy="-328.38" r="0"/>
    <circle cx="-312.11" cy="-326.25" r="0"/>
    <circle cx="-306.02" cy="-333.07" r="0"/>
    <circle cx="-308.84" cy="-326.01" r="0"/>
   </g>
   <g transform="translate(-.02705 .0064503)">
    <circle cx="-330.35" cy="-328.38" r="0"/>
    <circle cx="-312.11" cy="-326.25" r="0"/>
    <circle cx="-306.02" cy="-333.07" r="0"/>
    <circle cx="-308.84" cy="-326.01" r="0"/>
   </g>
  </g>
  <g transform="matrix(3.7796 0 0 3.7796 -.10224 .02438)" stroke-width=".26458">
   <circle cx="-330.35" cy="-328.38" r="0"/>
   <circle cx="-312.11" cy="-326.25" r="0"/>
   <circle cx="-306.02" cy="-333.07" r="0"/>
   <circle cx="-308.84" cy="-326.01" r="0"/>
  </g>
  <g transform="matrix(3.7796 0 0 3.7796 -.10281 .024568)" stroke-width=".26458">
   <circle cx="-330.35" cy="-328.38" r="0"/>
   <circle cx="-312.11" cy="-326.25" r="0"/>
   <circle cx="-306.02" cy="-333.07" r="0"/>
   <circle cx="-308.84" cy="-326.01" r="0"/>
  </g>
 </g>
 <circle cx="-1248.7" cy="-1241.6" r="0" fill="#5e4aa6"/>
 <circle cx="32" cy="32.51" r="30.001" opacity=".2" stroke-width=".53035"/>
 <circle cx="32" cy="31.49" r="30.001" fill="#fafafa" stroke-width=".53035"/>
 <circle cx="-149.15" cy="23.855" r="0" fill="#5e4aa6" fill-rule="evenodd"/>
 <path d="m22.456 40.772c0 1.2256 0.96787 2.2234 2.1589 2.2234h1.5586c-0.0521 0.1852-0.08155 0.38115-0.08155 0.5839v4.4446c0 1.1621 0.91633 2.1056 2.0456 2.1056 1.1298 0 2.0462-0.94352 2.0462-2.1056l1e-6 -4.4446c0-0.20275-0.03002-0.3987-0.08155-0.5839h3.799c-0.0521 0.1852-0.08155 0.38115-0.08155 0.5839v4.4446c0 1.1621 0.91633 2.1056 2.0456 2.1056 1.1293 0 2.0462-0.94352 2.0462-2.1056v-4.4446c0-0.20275-0.03002-0.3987-0.08212-0.5839h1.5586c1.1916 0 2.1589-0.99732 2.1589-2.2234v-15.438h-19.091v15.438zm-3.4099-15.438c-1.1298 0-2.0456 0.94239-2.0456 2.1051v9.0053c0 1.1627 0.91577 2.1051 2.0456 2.1051 1.1293 0 2.0456-0.94238 2.0456-2.1051v-9.0048c0-1.1632-0.91633-2.1056-2.0456-2.1056zm25.909 0c-1.1298 0-2.045 0.94239-2.045 2.1051v9.0053c0 1.1627 0.9152 2.1051 2.045 2.1051s2.045-0.94238 2.045-2.1051v-9.0048c0-1.1632-0.9152-2.1056-2.045-2.1056zm-8.2606-8.426 0.38398-0.59295 0.37831-0.58446 0.85064-1.3128c0.10421-0.16141 0.06116-0.37888-0.09401-0.48648-0.15801-0.10818-0.36925-0.0646-0.47402 0.0974l-0.91067 1.4073-0.38398 0.59182-0.38851 0.59976c-1.2323-0.49159-2.6063-0.76739-4.0561-0.76739-1.4493 0-2.8238 0.2758-4.055 0.76682l-0.38794-0.59975-0.38284-0.59182-0.91293-1.4074c-0.10421-0.16141-0.31602-0.20502-0.47346-0.0974-0.15574 0.1076-0.19878 0.32508-0.09401 0.48648l0.8495 1.3128 0.37888 0.58446 0.38398 0.59296c-2.8934 1.387-4.8512 4.0148-4.8512 7.0226h19.09c5.44e-4 -3.0072-1.9573-5.635-4.8507-7.022zm-8.7845 4.2158c-0.5652 0-1.0228-0.47175-1.0228-1.0528 0-0.58106 0.4576-1.0517 1.0228-1.0517 0.56464 0 1.0228 0.47062 1.0228 1.0517 0 0.58107-0.45817 1.0528-1.0228 1.0528zm8.1819 0c-0.5652 0-1.0228-0.47175-1.0228-1.0528 0-0.58106 0.4576-1.0517 1.0228-1.0517s1.0222 0.47062 1.0222 1.0517c0 0.58107-0.45703 1.0528-1.0222 1.0528z" fill="url(#linearGradient964)" stroke-width=".035408" p-id="62833"/>
</svg>
