<?xml version="1.0" encoding="UTF-8"?>
<svg width="64" height="64" version="1.1" xmlns="http://www.w3.org/2000/svg" xmlns:cc="http://creativecommons.org/ns#" xmlns:dc="http://purl.org/dc/elements/1.1/" xmlns:rdf="http://www.w3.org/1999/02/22-rdf-syntax-ns#">
 <metadata>
  <rdf:RDF>
   <cc:Work rdf:about="">
    <dc:format>image/svg+xml</dc:format>
    <dc:type rdf:resource="http://purl.org/dc/dcmitype/StillImage"/>
    <dc:title/>
   </cc:Work>
  </rdf:RDF>
 </metadata>
 <defs>
  <linearGradient id="a-3" x1="-6.1472" x2="-6.1472" y1="-137.82" y2="-100.78" gradientTransform="matrix(2.0044 0 0 2.0044 43.499 271.61)" gradientUnits="userSpaceOnUse">
   <stop stop-color="#14dc78" offset="0"/>
   <stop stop-color="#14a03c" offset="1"/>
  </linearGradient>
  <style type="text/css"/>
 </defs>
 <circle cx="-1248.7" cy="-1241.6" r="0" fill="#5e4aa6"/>
 <circle cx="32" cy="32.51" r="30.001" opacity=".2" stroke-width=".53035"/>
 <circle cx="32" cy="31.49" r="30.001" fill="url(#a-3)" stroke-width=".53035"/>
 <path d="m30.235 15.549h3.5294v3.5294h0.88235c1.4647 0 2.6471 1.1824 2.6471 2.6471v6.1765l-0.77647 0.77647 2.8941 5.0118c1.9588-1.9235 3.1765-4.5882 3.1765-7.5529h3.5294c0 4.2706-1.8882 8.1-4.8882 10.694l5.5412 9.6 0.22941 3.9176-3.3-2.1529-5.4176-9.4059c-1.8706 0.93529-4.0235 1.4647-6.2824 1.4647s-4.4118-0.52941-6.2824-1.4647l-5.4176 9.4059-3.3 2.1529 0.22941-3.9176 10.253-17.753-0.77647-0.77647v-6.1765c0-1.4647 1.1824-2.6471 2.6471-2.6471h0.88235v-3.5294m-2.7529 20.171c1.3765 0.65294 2.9118 1.0059 4.5176 1.0059s3.1412-0.35294 4.5176-1.0059l-2.5765-4.4647h-0.01764c-1.0941 1.0588-2.7529 1.0588-3.8471 0h-0.01765l-2.5765 4.4647m4.5176-13.112c-0.97059 0-1.7647 0.79412-1.7647 1.7647s0.79412 1.7647 1.7647 1.7647 1.7647-0.79412 1.7647-1.7647-0.79412-1.7647-1.7647-1.7647z" opacity=".2" stroke-width=".04136" p-id="62997"/>
 <path d="m30.235 14.6h3.5294v3.5294h0.88235c1.4647 0 2.6471 1.1824 2.6471 2.6471v6.1765l-0.77647 0.77647 2.8941 5.0118c1.9588-1.9235 3.1765-4.5882 3.1765-7.5529h3.5294c0 4.2706-1.8882 8.1-4.8882 10.694l5.5412 9.6 0.22941 3.9176-3.3-2.1529-5.4176-9.4059c-1.8706 0.93529-4.0235 1.4647-6.2824 1.4647s-4.4118-0.52941-6.2824-1.4647l-5.4176 9.4059-3.3 2.1529 0.22941-3.9176 10.253-17.753-0.77647-0.77647v-6.1765c0-1.4647 1.1824-2.6471 2.6471-2.6471h0.88235v-3.5294m-2.7529 20.171c1.3765 0.65294 2.9118 1.0059 4.5176 1.0059s3.1412-0.35294 4.5176-1.0059l-2.5765-4.4647h-0.01764c-1.0941 1.0588-2.7529 1.0588-3.8471 0h-0.01765l-2.5765 4.4647m4.5176-13.112c-0.97059 0-1.7647 0.79412-1.7647 1.7647s0.79412 1.7647 1.7647 1.7647 1.7647-0.79412 1.7647-1.7647-0.79412-1.7647-1.7647-1.7647z" fill="#fff" stroke-width=".04136" p-id="62997"/>
</svg>
