<?xml version="1.0" encoding="UTF-8"?>
<svg width="64" height="64" version="1.1" viewBox="0 0 16.933 16.933" xmlns="http://www.w3.org/2000/svg" xmlns:cc="http://creativecommons.org/ns#" xmlns:dc="http://purl.org/dc/elements/1.1/" xmlns:rdf="http://www.w3.org/1999/02/22-rdf-syntax-ns#">
 <metadata>
  <rdf:RDF>
   <cc:Work rdf:about="">
    <dc:format>image/svg+xml</dc:format>
    <dc:type rdf:resource="http://purl.org/dc/dcmitype/StillImage"/>
    <dc:title/>
   </cc:Work>
  </rdf:RDF>
 </metadata>
 <defs>
  <linearGradient id="a-3" x1="-6.1472" x2="-6.1472" y1="-137.82" y2="-100.78" gradientTransform="matrix(.53032 0 0 .53032 11.509 71.862)" gradientUnits="userSpaceOnUse">
   <stop stop-color="#14dc78" offset="0"/>
   <stop stop-color="#14a03c" offset="1"/>
  </linearGradient>
  <style type="text/css"/>
  <style type="text/css"/>
 </defs>
 <circle cx="-330.38" cy="-328.5" r="0" fill="#5e4aa6" stroke-width=".26458"/>
 <circle cx="8.4665" cy="8.6014" r="7.9376" opacity=".2" stroke-width=".14032"/>
 <circle cx="8.4665" cy="8.3316" r="7.9376" fill="url(#a-3)" stroke-width=".14032"/>
 <path d="m4.7634 8.8005c0.03346 0 0.06599 0.00825 0.09485 0.024287l0.7025 0.38951v1.7789a0.19476 0.19476 0 0 0 0.25891 0.18422l0.2887-0.0999c0.03987-0.01374 0.08431 0 0.10998 0.03346l0.44313 0.59298a0.19476 0.19476 0 0 0 0.35102-0.11686v-1.5677l0.98066 0.54394c0.2942 0.16314 0.65163 0.16314 0.94537 0l3.1354-1.7386a0.19476 0.19476 0 0 1 0.28961 0.17047v2.0154c0 0.35652-0.19476 0.68463-0.5082 0.8551l-2.9227 1.5938c-0.29099 0.1581-0.64201 0.1581-0.933 0l-2.9227-1.5938a0.97424 0.97424 0 0 1-0.5082-0.8551v-2.0154c0-0.10769 0.08707-0.19476 0.19476-0.19476zm4.1701-4.2681 4.4221 2.4131a0.29236 0.29236 0 0 1 0 0.51324l-4.4221 2.4131a0.97424 0.97424 0 0 1-0.93391 0l-4.4221-2.4131a0.29236 0.29236 0 0 1 0-0.51324l4.4221-2.4131a0.97424 0.97424 0 0 1 0.93391 0z" opacity=".2" stroke-width=".01074" p-id="8315"/>
 <path d="m4.7634 8.2714c0.03346 0 0.06599 0.00825 0.09485 0.024287l0.7025 0.38951v1.7789a0.19476 0.19476 0 0 0 0.25891 0.18422l0.2887-0.0999c0.03987-0.01374 0.08431 0 0.10998 0.03346l0.44313 0.59298a0.19476 0.19476 0 0 0 0.35102-0.11686v-1.5677l0.98066 0.54394c0.2942 0.16314 0.65163 0.16314 0.94537 0l3.1354-1.7386a0.19476 0.19476 0 0 1 0.28961 0.17047v2.0154c0 0.35652-0.19476 0.68463-0.5082 0.8551l-2.9227 1.5938c-0.29099 0.1581-0.64201 0.1581-0.933 0l-2.9227-1.5938a0.97424 0.97424 0 0 1-0.5082-0.8551v-2.0154c0-0.10769 0.08707-0.19476 0.19476-0.19476zm4.1701-4.2681 4.4221 2.4131a0.29236 0.29236 0 0 1 0 0.51324l-4.4221 2.4131a0.97424 0.97424 0 0 1-0.93391 0l-4.4221-2.4131a0.29236 0.29236 0 0 1 0-0.51324l4.4221-2.4131a0.97424 0.97424 0 0 1 0.93391 0z" fill="#fff" stroke-width=".01074" p-id="8315"/>
</svg>
