<?xml version="1.0" encoding="UTF-8"?>
<svg width="64" height="64" version="1.1" viewBox="0 0 16.933 16.933" xmlns="http://www.w3.org/2000/svg" xmlns:cc="http://creativecommons.org/ns#" xmlns:dc="http://purl.org/dc/elements/1.1/" xmlns:rdf="http://www.w3.org/1999/02/22-rdf-syntax-ns#">
 <metadata>
  <rdf:RDF>
   <cc:Work rdf:about="">
    <dc:format>image/svg+xml</dc:format>
    <dc:type rdf:resource="http://purl.org/dc/dcmitype/StillImage"/>
    <dc:title/>
   </cc:Work>
  </rdf:RDF>
 </metadata>
 <defs>
  <linearGradient id="a-3" x1="-6.1472" x2="-6.1472" y1="-137.82" y2="-100.78" gradientTransform="matrix(.53032 0 0 .53032 11.509 71.862)" gradientUnits="userSpaceOnUse">
   <stop stop-color="#14dc78" offset="0"/>
   <stop stop-color="#14a03c" offset="1"/>
  </linearGradient>
  <style type="text/css"/>
  <style type="text/css"/>
 </defs>
 <circle cx="-330.38" cy="-328.5" r="0" fill="#5e4aa6" stroke-width=".26458"/>
 <circle cx="8.4665" cy="8.6014" r="7.9376" opacity=".2" stroke-width=".14032"/>
 <circle cx="8.4665" cy="8.3316" r="7.9376" fill="url(#a-3)" stroke-width=".14032"/>
 <path d="m9.5482 7.5532v-2.5242h0.36061v-0.3606h-2.8852v0.3606h0.36129v2.5242s-2.5242 3.606-2.5242 4.6878c0 1.0818 1.0818 1.0818 1.0818 1.0818h5.0481s1.0819 0 1.0819-1.0818c-2e-6 -1.0818-2.5242-4.6878-2.5242-4.6878zm1.4424 5.409h-5.0481c-0.12045 0-0.72121-0.03516-0.72121-0.72121 0-0.70496 1.5079-3.1228 2.4587-4.4811l0.065485-0.093333v-2.6376h1.4421v2.6376l0.065119 0.093333c0.95085 1.3582 2.4591 3.7761 2.4591 4.4811 3e-6 0.65892-0.55391 0.71844-0.7212 0.72122zm-0.71877-4.3272h-3.6106c-0.7459 1.1533-1.8006 2.9067-1.8006 3.606 0 1.0818 1.0818 1.0818 1.0818 1.0818h5.0481s1.0818 0 1.0818-1.0818c-2e-6 -0.69938-1.0547-2.4527-1.8006-3.606zm-3.2479 3.2454c-0.19899 0-0.3606-0.16161-0.3606-0.36055 0-0.199 0.16161-0.3606 0.3606-0.3606 0.199 0 0.36061 0.1616 0.36061 0.3606-2.2e-6 0.19894-0.16161 0.36055-0.36061 0.36055zm1.0818-1.0818c-0.39831 0-0.72121-0.32295-0.72121-0.72121 0-0.39863 0.3229-0.7212 0.72121-0.7212 0.3982 0 0.72121 0.32258 0.72121 0.7212 0 0.39826-0.32301 0.72121-0.72121 0.72121zm1.4424 1.4424c-0.39831 0-0.7212-0.32295-0.7212-0.72121 0-0.39863 0.32289-0.7212 0.7212-0.7212 0.3982 0 0.7212 0.32257 0.7212 0.7212 0 0.39827-0.323 0.72121-0.7212 0.72121z" opacity=".2" stroke-width=".01132" p-id="11077"/>
 <path d="m9.5482 7.0241v-2.5242h0.36061v-0.3606h-2.8852v0.3606h0.36129v2.5242s-2.5242 3.606-2.5242 4.6878c0 1.0818 1.0818 1.0818 1.0818 1.0818h5.0481s1.0819 0 1.0819-1.0818c-2e-6 -1.0818-2.5242-4.6878-2.5242-4.6878zm1.4424 5.409h-5.0481c-0.12045 0-0.72121-0.03516-0.72121-0.72121 0-0.70496 1.5079-3.1228 2.4587-4.4811l0.065485-0.093333v-2.6376h1.4421v2.6376l0.065119 0.093333c0.95085 1.3582 2.4591 3.7761 2.4591 4.4811 3e-6 0.65892-0.55391 0.71844-0.7212 0.72122zm-0.71877-4.3272h-3.6106c-0.7459 1.1533-1.8006 2.9067-1.8006 3.606 0 1.0818 1.0818 1.0818 1.0818 1.0818h5.0481s1.0818 0 1.0818-1.0818c-2e-6 -0.69938-1.0547-2.4527-1.8006-3.606zm-3.2479 3.2454c-0.19899 0-0.3606-0.16161-0.3606-0.36055 0-0.199 0.16161-0.3606 0.3606-0.3606 0.199 0 0.36061 0.1616 0.36061 0.3606-2.2e-6 0.19894-0.16161 0.36055-0.36061 0.36055zm1.0818-1.0818c-0.39831 0-0.72121-0.32295-0.72121-0.72121 0-0.39863 0.3229-0.7212 0.72121-0.7212 0.3982 0 0.72121 0.32258 0.72121 0.7212 0 0.39826-0.32301 0.72121-0.72121 0.72121zm1.4424 1.4424c-0.39831 0-0.7212-0.32295-0.7212-0.72121 0-0.39863 0.32289-0.7212 0.7212-0.7212 0.3982 0 0.7212 0.32257 0.7212 0.7212 0 0.39827-0.323 0.72121-0.7212 0.72121z" fill="#fff" stroke-width=".01132" p-id="11077"/>
</svg>
