<svg width="64" height="64" version="1.1" viewBox="0 0 16.933 16.933" xmlns="http://www.w3.org/2000/svg" xmlns:xlink="http://www.w3.org/1999/xlink">
 <defs>
  <linearGradient id="c" x1="-6.1472" x2="-6.1472" y1="-137.82" y2="-100.78" gradientTransform="matrix(.53033 0 0 .53033 11.536 352.06)" gradientUnits="userSpaceOnUse">
   <stop stop-color="#ff8214" offset="0"/>
   <stop stop-color="#ff6464" offset="1"/>
  </linearGradient>
  <linearGradient id="a" x1="-6.1472" x2="-6.1472" y1="-140.25" y2="-98.292" gradientTransform="matrix(.058997 0 0 .058997 10.831 294.66)" gradientUnits="userSpaceOnUse">
   <stop stop-color="#ff3c69" offset="0"/>
   <stop stop-color="#ff462b" offset="1"/>
  </linearGradient>
  <linearGradient id="b" x1="-6.1472" x2="-6.1472" y1="-137.82" y2="-100.78" gradientTransform="matrix(.058988 0 0 .058988 6.833 294.65)" gradientUnits="userSpaceOnUse">
   <stop stop-color="#32b4ff" offset="0"/>
   <stop stop-color="#3287ff" offset="1"/>
  </linearGradient>
 </defs>
 <g transform="translate(0 -280.07)">
  <circle cx="-330.35" cy="-48.312" r="0" fill="#5e4aa6" stroke-width=".26458"/>
  <ellipse cx="-39.434" cy="286.51" r=".90502" fill="#5e4aa6" fill-rule="evenodd" stroke-width=".26458"/>
  <circle cx="8.4935" cy="288.8" r="7.9375" opacity=".2" stroke-width=".14032"/>
  <circle cx="8.4935" cy="288.53" r="7.9375" fill="url(#c)" stroke-width=".14032"/>
  <path d="m6.4165 285.51c-1.0562-0.0432-3.0417 2.037-3.4111 4.1173-0.42217 2.3775 1.2665 3.17 2.1108 2.7738 0.84433-0.39624 1.6887-1.585 3.3773-1.585 1.6887 0 2.533 1.1888 3.3773 1.585 0.84433 0.39626 2.533-0.39624 2.1108-2.7738-0.42216-2.3775-2.9552-4.755-3.7995-3.9625-0.84433 0.79251-1.6887 0.79251-1.6887 0.79251s-0.84433 0-1.6887-0.79251c-0.10554-0.099-0.23747-0.14857-0.38836-0.1548z" fill="#ff5050" opacity=".5"/>
  <path transform="matrix(1.0089 0 0 .96621 -23.644 9.4772)" d="m32.238 280.81v1.2542c0 0.0634-0.02252 0.1022-0.09199 0.16588-0.06947 0.0637-0.18096 0.13495-0.30076 0.22479-0.23958 0.17969-0.51366 0.46691-0.51366 0.97049 0 0.27678 0.145 0.49098 0.31833 0.64854 0.17333 0.15757 0.37736 0.27379 0.54105 0.38292 0.16369 0.10912 0.27258 0.21184 0.29507 0.2868 0.01124 0.0375 0.01241 0.0742-0.01395 0.13695-0.02636 0.0627-0.08458 0.1471-0.18914 0.25166-0.46241 0.46241-0.69984 0.81624-0.82217 1.0609-0.06117 0.12233-0.09459 0.21662-0.11162 0.28473-0.01703 0.0681-0.01757 0.12144-0.01757 0.12144h0.29869s-0.0016-4e-3 0.0098-0.0491c0.01132-0.0453 0.03615-0.11983 0.08837-0.22428 0.10445-0.2089 0.3206-0.53608 0.76533-0.98081 0.12223-0.12223 0.20568-0.23492 0.25373-0.34934 0.04806-0.11442 0.05712-0.2337 0.02584-0.33796-0.06256-0.20853-0.23796-0.33348-0.41444-0.45114-0.17649-0.11766-0.36896-0.22755-0.50746-0.35346-0.13851-0.12591-0.22066-0.2511-0.22066-0.42788 0-0.40358 0.18031-0.5697 0.39429-0.73019 0.10699-0.0803 0.22184-0.1522 0.32246-0.24443 0.10062-0.0922 0.1912-0.22315 0.1912-0.38654v-1.2325c-0.10213-0.0105-0.20033-0.014-0.30075-0.0217z" fill="#ff5050" opacity=".5" stroke-width=".14032"/>
  <path d="m8.8796 280.61v1.2542c0 0.0634-0.02252 0.1022-0.09199 0.16588-0.06947 0.0637-0.18096 0.13495-0.30076 0.22479-0.23958 0.17969-0.51366 0.46691-0.51366 0.97049 0 0.27678 0.145 0.49098 0.31833 0.64854 0.17333 0.15757 0.37736 0.27379 0.54105 0.38292 0.16369 0.10912 0.27258 0.21184 0.29507 0.2868 0.01124 0.0375 0.01241 0.0742-0.01395 0.13695-0.02636 0.0627-0.08458 0.1471-0.18914 0.25166-0.46241 0.46241-0.69984 0.81624-0.82217 1.0609-0.06117 0.12233-0.09459 0.21662-0.11162 0.28473-0.01703 0.0681-0.01757 0.12144-0.01757 0.12144h0.29869s-0.0016-4e-3 0.0098-0.0491c0.01132-0.0453 0.03615-0.11983 0.08837-0.22428 0.10445-0.2089 0.3206-0.53608 0.76533-0.98081 0.12223-0.12223 0.20568-0.23492 0.25373-0.34934 0.04806-0.11442 0.05712-0.2337 0.02584-0.33796-0.06256-0.20853-0.23796-0.33348-0.41444-0.45114-0.17649-0.11766-0.36896-0.22755-0.50746-0.35346-0.13851-0.12591-0.22066-0.2511-0.22066-0.42788 0-0.40358 0.18031-0.5697 0.39429-0.73019 0.10699-0.0803 0.22184-0.1522 0.32246-0.24443 0.10062-0.0922 0.1912-0.22315 0.1912-0.38654v-1.2325c-0.10213-0.0105-0.20033-0.014-0.30075-0.0217z" fill="#fff" stroke-width=".14032"/>
  <path d="m6.428 284.84c-1.0504-0.0458-3.0249 2.1582-3.3922 4.3623-0.41983 2.519 1.2595 3.3586 2.0991 2.9388 0.83966-0.41982 1.6793-1.6793 3.3586-1.6793 1.6793 0 2.519 1.2595 3.3586 1.6793 0.83966 0.41983 2.519-0.41982 2.0991-2.9388-0.41983-2.519-2.9388-5.0379-3.7785-4.1983-0.83966 0.83966-1.6793 0.83966-1.6793 0.83966s-0.83966 0-1.6793-0.83966c-0.10496-0.10489-0.23615-0.1574-0.38621-0.164z" fill="#fff"/>
  <circle cx="10.492" cy="287.62" r=".88302" opacity=".2" stroke-width=".01561"/>
  <circle cx="10.492" cy="287.59" r=".88302" fill="url(#a)" stroke-width=".01561"/>
  <circle cx="6.4946" cy="287.62" r=".88289" opacity=".2" stroke-width=".015607"/>
  <circle cx="6.4946" cy="287.59" r=".88289" fill="url(#b)" style="paint-order:normal"/>
 </g>
</svg>
