<?xml version="1.0" encoding="UTF-8"?>
<svg width="64" height="64" version="1.1" xmlns="http://www.w3.org/2000/svg" xmlns:cc="http://creativecommons.org/ns#" xmlns:dc="http://purl.org/dc/elements/1.1/" xmlns:rdf="http://www.w3.org/1999/02/22-rdf-syntax-ns#">
 <metadata>
  <rdf:RDF>
   <cc:Work rdf:about="">
    <dc:format>image/svg+xml</dc:format>
    <dc:type rdf:resource="http://purl.org/dc/dcmitype/StillImage"/>
    <dc:title/>
   </cc:Work>
  </rdf:RDF>
 </metadata>
 <defs>
  <linearGradient id="a-3" x1="-6.1472" x2="-6.1472" y1="-140.25" y2="-98.292" gradientTransform="matrix(2.0044 0 0 2.0044 43.501 271.61)" gradientUnits="userSpaceOnUse">
   <stop stop-color="#ff3c69" offset="0"/>
   <stop stop-color="#ff462b" offset="1"/>
  </linearGradient>
  <style type="text/css"/>
 </defs>
 <circle cx="32" cy="32.51" r="30.001" opacity=".2" stroke-width=".53035"/>
 <circle cx="32" cy="31.49" r="30.001" fill="url(#a-3)" stroke-width=".53035"/>
 <circle cx="-1248.7" cy="-1241.6" r="0" fill="#5e4aa6"/>
 <circle cx="-1140.3" cy="-1301.8" r="0" fill="#5e4aa6"/>
 <g transform="matrix(.038116 0 0 .038116 12.393 13.931)" opacity=".2">
  <path d="m514.4 2.4s-374.4 355.2-374.4 562.4a374.19 374.19 0 0 0 374.4 374.4 374.19 374.19 0 0 0 374.4-374.4c0-207.2-374.4-562.4-374.4-562.4zm0 892.8c-183.2 0-330.4-148.8-330.4-331.2s330.4-496 330.4-496 329.6 314.4 330.4 496c0 184-147.2 331.2-330.4 331.2z" p-id="11536"/>
  <path d="m514.4 327.2s-175.2 166.4-175.2 263.2c0 46.4 18.4 91.2 51.2 124s77.6 51.2 124 51.2 91.2-18.4 124-51.2 51.2-77.6 51.2-124c0-97.6-175.2-263.2-175.2-263.2zm0 396.8c-72.8 0-131.2-60-131.2-134.4s131.2-201.6 131.2-201.6 131.2 127.2 131.2 201.6-58.4 134.4-131.2 134.4zm251.2 300h-502.4c-9.6 0-17.6-8-17.6-17.6v-12.8c0-9.6 8-17.6 17.6-17.6h502.4c9.6 0 17.6 8 17.6 17.6v12.8c0 9.6-8 17.6-17.6 17.6z" p-id="11537"/>
 </g>
 <g transform="matrix(.038116 0 0 .038116 12.393 12.439)" fill="#fff">
  <path d="m514.4 2.4s-374.4 355.2-374.4 562.4a374.19 374.19 0 0 0 374.4 374.4 374.19 374.19 0 0 0 374.4-374.4c0-207.2-374.4-562.4-374.4-562.4zm0 892.8c-183.2 0-330.4-148.8-330.4-331.2s330.4-496 330.4-496 329.6 314.4 330.4 496c0 184-147.2 331.2-330.4 331.2z" p-id="11536"/>
  <path d="m514.4 327.2s-175.2 166.4-175.2 263.2c0 46.4 18.4 91.2 51.2 124s77.6 51.2 124 51.2 91.2-18.4 124-51.2 51.2-77.6 51.2-124c0-97.6-175.2-263.2-175.2-263.2zm0 396.8c-72.8 0-131.2-60-131.2-134.4s131.2-201.6 131.2-201.6 131.2 127.2 131.2 201.6-58.4 134.4-131.2 134.4zm251.2 300h-502.4c-9.6 0-17.6-8-17.6-17.6v-12.8c0-9.6 8-17.6 17.6-17.6h502.4c9.6 0 17.6 8 17.6 17.6v12.8c0 9.6-8 17.6-17.6 17.6z" p-id="11537"/>
 </g>
</svg>
