<?xml version="1.0" encoding="UTF-8"?>
<svg width="64" height="64" version="1.1" viewBox="0 0 16.933 16.933" xmlns="http://www.w3.org/2000/svg" xmlns:cc="http://creativecommons.org/ns#" xmlns:dc="http://purl.org/dc/elements/1.1/" xmlns:rdf="http://www.w3.org/1999/02/22-rdf-syntax-ns#">
 <metadata>
  <rdf:RDF>
   <cc:Work rdf:about="">
    <dc:format>image/svg+xml</dc:format>
    <dc:type rdf:resource="http://purl.org/dc/dcmitype/StillImage"/>
    <dc:title/>
   </cc:Work>
  </rdf:RDF>
 </metadata>
 <defs>
  <linearGradient id="linearGradient11422" x1="-6.1472" x2="-6.1472" y1="-137.82" y2="-100.78" gradientTransform="matrix(.53032 0 0 .53032 11.51 71.862)" gradientUnits="userSpaceOnUse">
   <stop stop-color="#32b4ff" offset="0"/>
   <stop stop-color="#3287ff" offset="1"/>
  </linearGradient>
  <style type="text/css"/>
 </defs>
 <circle cx="-297.6" cy="-338.47" r="0" fill="#5e4aa6" stroke-width=".26458"/>
 <circle cx="8.4662" cy="8.6009" r="7.9376" opacity=".2" stroke-width=".14032"/>
 <circle cx="8.4668" cy="8.3321" r="7.9376" fill="url(#linearGradient11422)" style="paint-order:normal"/>
 <g transform="translate(32.763 -10.103)" fill="#5e4aa6" stroke-width=".26458">
  <circle cx="-299.02" cy="-338.77" r="0"/>
  <circle cx="-8.1062" cy="-3.9487" r="0" fill-rule="evenodd"/>
  <circle cx="-278.25" cy="-357.69" r="0"/>
  <circle cx="12.663" cy="-22.859" r="0" fill-rule="evenodd"/>
 </g>
 <path d="m5.7665 5.8363a2.508 2.508 0 0 0-1.8046 0.76309 2.641 2.641 0 0 0-0.75688 1.8667c0 0.34799 0.067113 0.69225 0.19761 1.0117 0.12925 0.31941 0.32065 0.61023 0.55927 0.85382a2.5142 2.5142 0 0 0 1.7835 0.7631h0.022371a2.4943 2.4943 0 0 0 1.899-0.73327c0.31941-0.31319 0.5717-0.68107 0.80038-1.0564 0.22868 0.37533 0.47973 0.74321 0.79914 1.0564 0.46854 0.45612 1.1061 0.77055 1.9003 0.73327h0.02237c0.32686-0.0025 0.65-0.0696 0.952-0.19761 0.3107-0.1305 0.59283-0.32314 0.83145-0.56549l0.0012-0.0025a2.6385 2.6385 0 0 0 0.7544-1.863c0-0.34799-0.06712-0.69225-0.19637-1.0117l-0.0025-0.00621a2.6472 2.6472 0 0 0-0.55797-0.85008 2.513 2.513 0 0 0-1.8058-0.76309c-0.83394 0-1.4939 0.34426-1.9811 0.82151-0.28212 0.27591-0.5108 0.59158-0.71835 0.91472a5.1577 5.1577 0 0 0-0.71711-0.91472 2.7727 2.7727 0 0 0-1.9823-0.82151zm-0.0087 0.75191c0.6674 0 1.0937 0.23862 1.4827 0.63384 0.31071 0.31319 0.58164 0.73948 0.85009 1.2055-0.30698 0.54187-0.60401 1.0378-0.93709 1.3746-0.36788 0.37036-0.74818 0.57543-1.3708 0.53939h-0.024856c-0.23614 0-0.476-0.04972-0.69474-0.14541a1.812 1.812 0 0 1-0.57791-0.40392l-0.00746-0.00621a1.8966 1.8966 0 0 1-0.52074-1.3211 1.8966 1.8966 0 0 1 0.52199-1.3199l0.00621-0.00746a1.7474 1.7474 0 0 1 1.2739-0.54933zm5.4175 0c0.23614 0 0.476 0.049713 0.69598 0.14541 0.21501 0.094454 0.41386 0.23365 0.57791 0.40392l0.0062 0.0087a1.8953 1.8953 0 0 1 0.52199 1.3199c0 0.24235-0.04723 0.48719-0.13547 0.71214-0.08824 0.22371-0.22122 0.43499-0.38652 0.60898l-0.0075 0.00497a1.7499 1.7499 0 0 1-1.2739 0.54933h-0.02361c-0.62136 0.037286-1.0029-0.16778-1.3708-0.53814-0.33308-0.33556-0.63011-0.83269-0.93709-1.3758 0.26969-0.46482 0.54063-0.89111 0.85009-1.2055 0.39025-0.39398 0.81654-0.63384 1.4827-0.63384zm-0.45364 0.75191v0.75067h-0.7519v0.75191h0.75191v0.75191h0.75191v-0.75191h0.75067v-0.75191h-0.75067v-0.75067zm-6.0128 0.75067v0.75191h2.2545v-0.75191z" fill="#fff" stroke-width="1.2428"/>
</svg>
