<?xml version="1.0" encoding="UTF-8"?>
<svg width="64" height="64" version="1.1" viewBox="0 0 16.933 16.933" xmlns="http://www.w3.org/2000/svg" xmlns:cc="http://creativecommons.org/ns#" xmlns:dc="http://purl.org/dc/elements/1.1/" xmlns:rdf="http://www.w3.org/1999/02/22-rdf-syntax-ns#">
 <metadata>
  <rdf:RDF>
   <cc:Work rdf:about="">
    <dc:format>image/svg+xml</dc:format>
    <dc:type rdf:resource="http://purl.org/dc/dcmitype/StillImage"/>
    <dc:title/>
   </cc:Work>
  </rdf:RDF>
 </metadata>
 <g transform="translate(0,-280.07)">
  <circle cx="-330.35" cy="-48.312" r="0" fill="#5e4aa6" stroke-width=".26458"/>
  <circle cx="-39.434" cy="286.51" r="0" fill="#5e4aa6" fill-rule="evenodd" stroke-width=".26458"/>
  <circle cx="8.4935" cy="288.8" r="7.9375" opacity=".2" stroke-width=".14032"/>
  <circle cx="8.4939" cy="288.53" r="7.9375" fill="#fafafa" style="paint-order:normal"/>
 </g>
 <g fill-rule="evenodd">
  <path transform="matrix(.22601 0 0 .22601 1.2343 1.2344)" d="m32.102 10.071-21.007 11.695-0.02286-0.01143v0.02515l-0.06173 0.0343 0.06173 0.03429-0.14404 22.311 21.074 11.91v-0.0503l21.069-11.908-0.14176-22.251 0.07774-0.04115-0.07774-0.04344v-0.06859l-0.06173 0.0343z" opacity=".15" stroke-width=".056845"/>
  <g stroke-width=".012848">
   <path d="m8.4659 13.654 4.7629-2.6918-0.032421-5.0638-4.7304 2.5921z" fill="#28bff8"/>
   <path d="m8.4671 13.664-4.7629-2.6918 0.032421-5.0638 4.7304 2.5921z" fill="#00a7e5"/>
   <path d="m3.7229 5.9225 4.7668-2.654 4.7245 2.6552-4.7501 2.6025z" fill="#5fd0f9"/>
  </g>
 </g>
</svg>
