<?xml version="1.0" encoding="UTF-8" standalone="no"?>
<svg
   xmlns:dc="http://purl.org/dc/elements/1.1/"
   xmlns:cc="http://creativecommons.org/ns#"
   xmlns:rdf="http://www.w3.org/1999/02/22-rdf-syntax-ns#"
   xmlns:svg="http://www.w3.org/2000/svg"
   xmlns="http://www.w3.org/2000/svg"
   xmlns:sodipodi="http://sodipodi.sourceforge.net/DTD/sodipodi-0.dtd"
   xmlns:inkscape="http://www.inkscape.org/namespaces/inkscape"
   width="64"
   height="64"
   version="1.1"
   viewBox="0 0 16.933 16.933"
   id="svg26"
   sodipodi:docname="bauh.svg"
   inkscape:version="1.0.1 (3bc2e813f5, 2020-09-07)">
  <defs
     id="defs30">
    <linearGradient
       id="a-3"
       x1="-6.1472"
       x2="-6.1472"
       y1="-137.82"
       y2="-100.78"
       gradientTransform="matrix(2.0044,0,0,2.0044,123.77,261.85)"
       gradientUnits="userSpaceOnUse">
      <stop
         stop-color="#ffbe14"
         offset="0"
         id="stop857" />
      <stop
         stop-color="#ff8214"
         offset="1"
         id="stop859" />
    </linearGradient>
  </defs>
  <sodipodi:namedview
     pagecolor="#ffffff"
     bordercolor="#666666"
     borderopacity="1"
     objecttolerance="10"
     gridtolerance="10"
     guidetolerance="10"
     inkscape:pageopacity="0"
     inkscape:pageshadow="2"
     inkscape:window-width="1920"
     inkscape:window-height="932"
     id="namedview28"
     showgrid="false"
     inkscape:snap-intersection-paths="true"
     showguides="true"
     inkscape:guide-bbox="true"
     inkscape:zoom="5.9765625"
     inkscape:cx="15.179908"
     inkscape:cy="44.225973"
     inkscape:window-x="0"
     inkscape:window-y="36"
     inkscape:window-maximized="1"
     inkscape:current-layer="svg26" />
  <metadata
     id="metadata2">
    <rdf:RDF>
      <cc:Work
         rdf:about="">
        <dc:format>image/svg+xml</dc:format>
        <dc:type
           rdf:resource="http://purl.org/dc/dcmitype/StillImage" />
        <dc:title></dc:title>
      </cc:Work>
    </rdf:RDF>
  </metadata>
  <circle
     cx="-309.13309"
     cy="-331.09308"
     r="0"
     fill="#5e4aa6"
     id="circle864"
     style="stroke-width:0.264578" />
  <circle
     cx="-18.222816"
     cy="3.7284353"
     r="0"
     fill="#5e4aa6"
     fill-rule="evenodd"
     id="circle866"
     style="stroke-width:0.264578" />
  <circle
     cx="8.4664993"
     cy="8.6015673"
     r="7.9376082"
     opacity="0.2"
     id="circle868"
     style="stroke-width:0.140319" />
  <path
     id="circle870"
     style="fill:#d5833f;stroke-width:0.53035;fill-opacity:1"
     d="M 31.925781 61.490234 A 30.000997 30.000997 0 0 0 32 61.490234 A 30.000997 30.000997 0 0 0 52.957031 52.957031 A 30.000997 30.000997 0 0 0 62.001953 31.490234 A 30.000997 30.000997 0 0 0 53.46875 10.53125 L 32 32 L 31.925781 31.925781 L 31.925781 61.490234 z "
     transform="scale(0.26457812)" />
  <path
     id="path963"
     style="fill:#c77838;stroke-width:0.53035;fill-opacity:1"
     d="M 31.925781 61.490234 L 31.925781 31.925781 L 10.533203 10.533203 A 30.000998 30.000998 0 0 0 1.9980469 31.490234 A 30.000998 30.000998 0 0 0 11.042969 52.957031 A 30.000997 30.000997 0 0 0 31.925781 61.490234 z "
     transform="scale(0.26457812)" />
  <path
     id="path950"
     style="fill:#eaa463;stroke-width:0.53035;fill-opacity:1"
     d="M 31.853516 1.4882812 A 30.000999 30.000999 0 0 0 10.533203 10.533203 L 32 32 L 53.46875 10.53125 A 30.000999 30.000999 0 0 0 32 1.4882812 A 30.000999 30.000999 0 0 0 31.853516 1.4882812 z "
     transform="scale(0.26457812)" />
  <g
     transform="matrix(0.44445,0,0,0.44445,9.4664511,-115.14315)"
     paint-order="stroke markers fill"
     id="g978">
    <circle
       cx="8.4665003"
       cy="288.53"
       r="7.1436"
       fill="#b5bbc0"
       id="circle968" />
    <circle
       cx="8.467"
       cy="288.53"
       r="3.4400001"
       opacity="0.15"
       id="circle970" />
    <g
       fill="#ffffff"
       id="g976">
      <path
         d="m 8.467,285.62 a 2.91,2.91 0 0 0 -2.91,2.91 2.91,2.91 0 0 0 2.91,2.91 2.91,2.91 0 0 0 2.91,-2.91 2.91,2.91 0 0 0 -2.91,-2.91 z m 0,1.323 a 1.587,1.587 0 0 1 1.587,1.587 1.587,1.587 0 0 1 -1.587,1.588 1.587,1.587 0 0 1 -1.588,-1.588 1.587,1.587 0 0 1 1.588,-1.587 z"
         id="path972" />
      <path
         d="m 7.938,284.43 h 1.058 v 1.852 H 7.938 Z m 0,6.35 h 1.058 v 1.852 H 7.938 Z m 4.63,-2.778 v 1.058 h -1.852 v -1.058 z m -6.35,0 v 1.058 H 4.366 v -1.058 z m 5.522,3.056 -0.747,0.747 -1.31,-1.31 0.748,-0.747 z m -4.49,-4.49 -0.747,0.747 -1.31,-1.31 0.748,-0.747 z m -1.309,5.237 -0.748,-0.748 1.31,-1.31 0.748,0.749 z m 4.49,-4.49 -0.748,-0.748 1.31,-1.31 0.748,0.749 z"
         id="path974" />
    </g>
  </g>
</svg>
