<?xml version="1.0" encoding="UTF-8"?>
<svg width="64" height="64" version="1" xmlns="http://www.w3.org/2000/svg" xmlns:cc="http://creativecommons.org/ns#" xmlns:dc="http://purl.org/dc/elements/1.1/" xmlns:rdf="http://www.w3.org/1999/02/22-rdf-syntax-ns#">
 <metadata>
  <rdf:RDF>
   <cc:Work rdf:about="">
    <dc:format>image/svg+xml</dc:format>
    <dc:type rdf:resource="http://purl.org/dc/dcmitype/StillImage"/>
    <dc:title/>
   </cc:Work>
  </rdf:RDF>
 </metadata>
 <defs>
  <style type="text/css"/>
 </defs>
 <circle cx="32" cy="32.497" r="30" color="#000000" opacity=".15"/>
 <circle cx="32" cy="31.503" r="30" color="#000000" fill="#fafafa"/>
 <path d="m56.23 32c0-0.96903-0.48451-2.1803-1.0902-2.9071-4.2395-6.1775-11.871-7.8733-16.352-8.2367-1.2113-1.4535-7.0254-5.9353-7.0254-5.9353-3.0282-2.4226-3.0282 0-3.0282 0v7.3888c-8.2367 4.3606-8.2367 6.6621-10.054 7.8733-1.8169 1.2113-3.755-1.9381-6.7832-4.6029-3.0282-2.6648-4.2395-1.8169-3.9972 0 0.12113 1.3324 1.4535 4.3606 2.0592 5.693 0.12113 0.36338 0.24226 0.96903-0.24226 1.8169-0.72677 1.4535-1.8169 4.1184-1.9381 5.3296-0.12113 1.8169 0.96903 2.6648 3.9972 0 3.0282-2.6648 4.9663-5.8142 6.7832-4.6029 1.8169 1.2113 1.8169 3.5127 10.054 7.8733v7.3888s0 2.4226 3.0282 0c0 0 5.8142-4.4817 7.0254-5.9353 4.4817-0.36338 12.113-2.0592 16.352-8.2367 0.60564-0.72677 1.2113-1.8169 1.2113-2.9071zm-8.3579 2.6648c-1.4535 0-2.5437-1.2113-2.5437-2.5437 0-1.4535 1.0902-2.5437 2.5437-2.5437s2.5437 1.2113 2.5437 2.5437c-0.12113 1.3324-1.2113 2.5437-2.5437 2.5437z" fill="#2d99f4" stroke-width=".056779" p-id="6270"/>
</svg>
