<?xml version="1.0" encoding="UTF-8"?>
<svg width="64" height="64" version="1" xmlns="http://www.w3.org/2000/svg" xmlns:cc="http://creativecommons.org/ns#" xmlns:dc="http://purl.org/dc/elements/1.1/" xmlns:rdf="http://www.w3.org/1999/02/22-rdf-syntax-ns#">
 <metadata>
  <rdf:RDF>
   <cc:Work rdf:about="">
    <dc:format>image/svg+xml</dc:format>
    <dc:type rdf:resource="http://purl.org/dc/dcmitype/StillImage"/>
    <dc:title/>
   </cc:Work>
  </rdf:RDF>
 </metadata>
 <defs>
  <style type="text/css"/>
  <linearGradient id="a-3" x1="-6.1472" x2="-6.1472" y1="-140.25" y2="-98.292" gradientTransform="matrix(2.0044 0 0 2.0044 43.499 271.61)" gradientUnits="userSpaceOnUse">
   <stop stop-color="#ff3c69" offset="0"/>
   <stop stop-color="#ff462b" offset="1"/>
  </linearGradient>
 </defs>
 <circle cx="32" cy="32.508" r="30.001" opacity=".2" stroke-width=".53035"/>
 <circle cx="32" cy="31.492" r="30.001" fill="url(#a-3)" stroke-width=".53035"/>
 <circle cx="-1248.7" cy="-1241.6" r="0" fill="#5e4aa6"/>
 <g transform="matrix(.04495 0 0 .04495 8.9048 8.9623)" fill="#fff">
  <path d="m948.74 556.54c-10.24 9.728-20.48 19.456-29.696 29.696-3.584 4.096-6.144 10.24-6.656 15.872-1.024 12.288-7.168 17.92-19.456 18.944-4.608 0.512-10.24 1.536-13.312 4.608-49.152 48.64-97.792 97.792-146.43 146.43-0.512 0.512-1.024 2.048-1.536 3.584 1.536 2.048 3.072 4.096 5.12 6.144 17.408 18.432 17.408 23.552-1.024 41.984-40.96 41.472-81.92 82.432-123.39 123.9h-16.896c-5.632-6.144-11.264-12.8-18.432-20.48-7.168 7.68-13.312 13.824-18.944 20.48h-16.896c-13.312-18.432-13.312-18.432 8.704-45.056-23.04-29.696-23.04-29.696 4.096-56.832l96.256-96.256c25.6-25.6 25.6-25.6 54.272-1.024 4.096-3.584 8.192-7.168 11.776-10.752 44.544-44.544 89.088-88.576 133.12-133.63 4.608-4.608 5.632-13.312 9.216-19.456s8.192-15.872 12.288-15.872c19.968 1.024 28.16-14.848 39.424-25.6 16.896-15.872 20.48-16.384 38.912-3.584-0.512 5.632-0.512 11.264-0.512 16.896zm-870.4-142.85c40.96-40.448 81.92-81.408 122.37-121.86 19.968-19.968 23.552-19.968 44.032-1.024 1.536 1.536 3.584 2.56 6.656 5.12 26.624-26.624 52.736-53.248 79.36-79.36l58.88-58.88c8.192-8.192 18.432-14.848 16.384-29.184-0.512-4.096 7.68-12.8 11.264-12.8 18.432 1.536 26.624-12.8 37.376-22.528 5.12-5.12 10.24-10.24 15.36-15.872h16.896c12.8 17.92 12.288 22.016-3.584 38.912-10.752 11.264-26.112 19.456-25.6 39.424 0 4.096-11.264 8.704-17.408 12.288-4.608 2.56-10.752 2.56-14.336 5.632-48.128 47.616-96.256 95.744-144.38 143.87-1.024 1.024-2.048 2.56-2.56 4.096 0.512 1.536 0.512 2.56 1.024 3.584 22.528 25.088 22.528 26.112-2.048 50.688l-99.84 99.84c-26.112 26.112-26.624 26.112-54.272 0.512-12.8 12.8-25.6 29.184-45.056 9.728v-16.896c6.144-6.144 12.8-11.776 20.48-18.944-7.68-6.656-13.824-12.8-20.48-18.432-0.512-6.656-0.512-12.288-0.512-17.92zm276.48 354.82c-66.048 1.024-98.816-31.744-97.792-97.792-2.56-0.512-4.608-1.536-7.168-2.048-9.216 11.264-18.432 22.528-28.16 33.792-8.192 9.728-18.944 14.336-29.184 4.096-10.752-10.24-6.144-20.48 3.072-29.184 10.752-10.752 20.992-22.016 32.768-32.256 7.168-6.656 7.68-11.776 3.072-20.48-14.848-28.16-28.16-56.832-42.496-84.992-6.144-11.776-4.608-20.992 5.12-30.208 27.648-27.136 54.272-54.784 81.92-81.408 54.272-52.736 108.54-104.45 162.3-156.67 6.656-6.656 13.824-11.776 12.8-24.064-0.512-4.608 8.704-11.264 14.848-15.36 6.656-4.608 16.384-5.632 22.528-10.752 9.728-7.68 18.944-12.288 28.16-2.56 9.728 9.216 6.144 18.944-2.048 28.672-5.12 6.656-6.656 15.36-11.264 22.528-4.096 6.144-9.216 11.264-15.36 15.36-7.168 4.608-16.896 5.632-22.528 11.264-44.544 43.52-88.064 87.552-132.1 131.58-3.584 3.584-6.656 7.168-11.264 12.288 10.24 8.192 19.456 16.384 28.672 24.064 10.752-7.168 23.552-22.528 36.352-22.528s25.6 15.872 39.936 25.6c28.16-22.528 58.368-46.592 87.552-69.632 37.376 37.888 74.752 75.776 112.64 114.69-22.016 27.136-45.568 57.344-69.12 87.04 9.728 13.312 25.6 25.088 26.112 37.888 0.512 12.288-14.336 25.6-22.528 38.4 7.168 8.192 15.872 17.408 25.088 28.16l150.02-150.02c2.56-22.016 15.36-33.792 36.864-37.376 2.048-0.512 3.072-3.072 5.12-4.608 9.216-9.216 19.456-13.312 29.696-3.072 9.216 9.728 4.608 18.944-3.072 28.16-5.12 6.144-6.144 15.36-10.752 22.528-4.096 6.144-9.728 11.264-15.872 15.36-6.656 4.608-16.384 5.632-22.016 10.752-20.48 18.944-39.936 38.912-58.88 58.88-58.88 60.928-118.27 121.34-176.64 183.3-12.288 12.8-23.552 14.848-38.912 6.144-25.088-13.824-51.712-25.6-77.312-39.424-11.264-6.144-17.92-4.608-26.112 4.608-9.728 11.264-20.48 20.992-31.232 31.232-8.704 8.704-18.944 11.264-28.16 1.536-8.704-9.216-6.144-18.944 2.048-27.136 10.752-10.752 22.016-20.992 32.768-31.744 0-1.024 0-3.072 0.512-4.608zm34.304-280.06-81.408 81.408c8.704 9.216 19.456 19.968 27.648 28.672 27.648-28.16 54.784-55.296 80.896-81.408-8.704-9.728-19.456-20.48-27.136-28.672zm119.81 119.81-77.824 77.824c8.192 10.752 17.92 23.552 26.624 34.816 28.16-28.16 54.784-55.296 81.408-81.408-10.24-10.752-20.992-22.016-30.208-31.232z" p-id="6999"/>
  <path d="m653.31 479.74-106.5-106.5c3.072-2.56 5.632-5.632 9.216-8.704 70.144-56.32 140.29-112.64 210.94-168.96 16.896-13.824 22.016-13.312 37.376 1.536 9.728 9.728 19.456 18.944 28.672 28.672 7.68 8.192 9.216 16.896 2.048 26.112-60.416 75.776-120.83 151.55-181.76 227.84z" p-id="7000"/>
 </g>
</svg>
