<?xml version="1.0" encoding="UTF-8"?>
<svg width="64" height="64" version="1.1" xmlns="http://www.w3.org/2000/svg" xmlns:cc="http://creativecommons.org/ns#" xmlns:dc="http://purl.org/dc/elements/1.1/" xmlns:rdf="http://www.w3.org/1999/02/22-rdf-syntax-ns#">
 <metadata>
  <rdf:RDF>
   <cc:Work rdf:about="">
    <dc:format>image/svg+xml</dc:format>
    <dc:type rdf:resource="http://purl.org/dc/dcmitype/StillImage"/>
    <dc:title/>
   </cc:Work>
  </rdf:RDF>
 </metadata>
 <defs>
  <style type="text/css"/>
  <linearGradient id="a-3" x1="-6.1472" x2="-6.1472" y1="-140.25" y2="-98.292" gradientTransform="matrix(2.0044,0,0,2.0044,43.499,271.61)" gradientUnits="userSpaceOnUse">
   <stop stop-color="#ff3c69" offset="0"/>
   <stop stop-color="#ff462b" offset="1"/>
  </linearGradient>
 </defs>
 <g transform="matrix(1.3 0 0 1.3 -573.45 -648.94)" font-size="12.666px" stroke-width=".76923">
  <text x="730.88" y="132.19" font-family="'Droid Sans'" stroke-width=".76923"/>
 </g>
 <circle cx="32" cy="32.508" r="30.001" opacity=".2" stroke-width=".53035"/>
 <circle cx="32" cy="31.492" r="30.001" fill="url(#a-3)" stroke-width=".53035"/>
 <circle cx="-1248.7" cy="-1241.6" r="0" fill="#5e4aa6"/>
 <path d="m31.999 13.018a18.983 18.983 0 0 0-3.1639 0.26879v26.624c0 0.87639-0.70554 1.5819-1.5819 1.5819h-1.5819c-0.87639 0-1.5819-0.70552-1.5819-1.5819v-25.142a18.983 18.983 0 0 0-11.073 17.231 18.983 18.983 0 0 0 18.983 18.983 18.983 18.983 0 0 0 18.983-18.983 18.983 18.983 0 0 0-18.983-18.983m-0.78477 9.4914a0.79103 0.86294 0 0 1 0.37694 0.10827l14.237 8.6294a0.79103 0.86294 0 0 1 0 1.5078l-14.237 8.6294a0.79103 0.86294 0 0 1-1.1741-0.75386v-17.259a0.79103 0.86294 0 0 1 0.79714-0.86201" fill="#fff" stroke-linejoin="round" stroke-width="4.7457"/>
</svg>
