<?xml version="1.0" encoding="UTF-8"?>
<svg width="64" height="64" version="1.1" viewBox="0 0 64 64" xmlns="http://www.w3.org/2000/svg" xmlns:cc="http://creativecommons.org/ns#" xmlns:dc="http://purl.org/dc/elements/1.1/" xmlns:rdf="http://www.w3.org/1999/02/22-rdf-syntax-ns#" xmlns:xlink="http://www.w3.org/1999/xlink">
 <metadata>
  <rdf:RDF>
   <cc:Work rdf:about="">
    <dc:format>image/svg+xml</dc:format>
    <dc:type rdf:resource="http://purl.org/dc/dcmitype/StillImage"/>
    <dc:title/>
   </cc:Work>
  </rdf:RDF>
 </metadata>
 <defs>
  <linearGradient id="linearGradient927" x1="22.676" x2="23.373" y1="47.124" y2="5.5176" gradientTransform="matrix(1.3043 0 0 1.3043 .28084 -2.8545)" gradientUnits="userSpaceOnUse">
   <stop stop-color="#ff9913" offset="0"/>
   <stop stop-color="#faee18" offset="1"/>
  </linearGradient>
  <linearGradient id="linearGradient935" x1="24.677" x2="24.989" y1="45.614" y2="25.619" gradientUnits="userSpaceOnUse">
   <stop stop-color="#fade17" offset="0"/>
   <stop stop-color="#fade17" stop-opacity="0" offset="1"/>
  </linearGradient>
  <filter id="filter957" x="-.062447" y="-.057738" width="1.1249" height="1.1155" color-interpolation-filters="sRGB">
   <feGaussianBlur stdDeviation="0.97449244"/>
  </filter>
  <linearGradient id="b" x1="399.57" x2="399.57" y1="545.8" y2="517.8" gradientTransform="matrix(2.1429 0 0 2.1429 -826.37 -1108)" gradientUnits="userSpaceOnUse">
   <stop stop-color="#3889e9" offset="0"/>
   <stop stop-color="#5ea5fb" offset="1"/>
  </linearGradient>
  <linearGradient id="linearGradient1001" x1="32.431" x2="32.431" y1="61.873" y2="1.6692" gradientTransform="translate(-114.98 4.9106e-5)" gradientUnits="userSpaceOnUse">
   <stop stop-color="#1d2123" offset="0"/>
   <stop stop-color="#33393e" offset="1"/>
  </linearGradient>
 </defs>
 <g fill="#5e4aa6">
  <g image-rendering="optimizeSpeed">
   <circle cx="-1248.6" cy="-1241.1" r="0"/>
   <g transform="matrix(3.7796,0,0,3.7796,-6.9956e-4,6.044e-4)" stroke-width=".26458">
    <circle cx="-330.35" cy="-328.38" r="0"/>
    <circle cx="-330.35" cy="-328.38" r="0"/>
    <circle cx="-352.63" cy="-336.84" r="0"/>
   </g>
   <circle cx="-1248.6" cy="-1241.1" r="0"/>
  </g>
  <g transform="translate(92.643 .35997)" image-rendering="optimizeSpeed">
   <circle cx="-1248.6" cy="-1241.1" r="0"/>
   <g transform="matrix(3.7796,0,0,3.7796,-6.9956e-4,6.044e-4)" stroke-width=".26458">
    <circle cx="-330.35" cy="-328.38" r="0"/>
    <circle cx="-330.35" cy="-328.38" r="0"/>
    <circle cx="-352.63" cy="-336.84" r="0"/>
   </g>
   <circle cx="-1248.6" cy="-1241.1" r="0"/>
  </g>
  <circle cx="-1152.9" cy="-1242.3" r="0"/>
 </g>
 <path d="m50.239 8.6936q-3.8597-2.9725-8.444-4.5557-4.7372-1.6373-9.8021-1.6373c-16.57 0-30.003 13.432-30.003 30.001 0 15.158 11.245 27.684 25.845 29.709 0.71216 0.09855 1.4339 0.17485 2.1587 0.21936 0.66128 0.04133 1.3258 0.06994 1.9998 0.06994 16.567 0 29.997-13.432 29.997-29.999 0-1.3098-0.08266-2.6037-0.24481-3.8658-0.18758-1.4751-0.49279-2.909-0.88387-4.3046q-1.3289-4.6892-4.0822-8.7265-2.7215-3.9771-6.5401-6.9112z" opacity=".2" stroke-width=".99724"/>
 <path d="m50.239 7.6931q-3.8597-2.9725-8.444-4.5557-4.7372-1.6373-9.8021-1.6373c-16.57 0-30.003 13.432-30.003 30.001 0 15.158 11.245 27.684 25.845 29.709 0.71216 0.09855 1.4339 0.17485 2.1587 0.21936 0.66128 0.04133 1.3258 0.06994 1.9998 0.06994 16.567 0 29.997-13.432 29.997-29.999 0-1.3098-0.08266-2.6037-0.24481-3.8658-0.18758-1.4751-0.49279-2.909-0.88387-4.3046q-1.3289-4.6892-4.0822-8.7265-2.7215-3.9771-6.5401-6.9112z" fill="url(#linearGradient1001)" stroke-width=".99724"/>
 <circle cx="32.01" cy="31.544" r="30.001" fill-opacity="0" stroke-width="1.5715"/>
 <circle cx="32.01" cy="31.544" r="0" fill="url(#b)" stroke-width="1.5715"/>
 <path transform="matrix(1.3043 0 0 1.3043 .28084 -2.8545)" d="m21.779 6.494 2e-3 6e-3c4.339 7.07 0.479 8.239-0.387 13.711a6 6 0 0 1 3.605-1.211 6 6 0 0 1 6 6 6 6 0 0 1-6 6 6 6 0 0 1-6-6 6 6 0 0 1 0.936-3.205c-0.56-0.8-1.306-1.436-2.936-1.795 4 7-4.77 6.218-3.938 12.313-1.078-0.297-2.066-2.305-1.25-4.781-2.816 3.477-1.814 6.471 0.188 9.471-2-2-5.27-1.994-6.27-4.807-0.566 3.28 0.668 6.391 2.988 8.988 4.063 3.616 9.414 5.816 15.281 5.816 7.589 0 14.317-3.677 18.506-9.344 0.316-0.875 0.507-1.782 0.541-2.711-0.93 1.379-5.05 4.051-6.893 4.051 4.848-4 5.852-10 1.531-15.75 0.32 3.75-1.699 5.755-3.469 7.03 2.77-5.281 2.77-11.297-2.656-16.594 0.434 1.297 0.766 2.313 0.469 3.5 0.301-1.453-4.03-8.185-10.25-10.689zm3.221 15.506a3 3 0 0 0-3 3 3 3 0 0 0 3 3 3 3 0 0 0 3-3 3 3 0 0 0-3-3z" filter="url(#filter957)" opacity=".25"/>
 <g transform="translate(.43113 3.0504)">
  <path d="m27.383 4.3114 0.0026 0.00783c5.6594 9.2214 0.62476 10.746-0.50476 17.883a7.8258 7.8258 0 0 1 4.702-1.5795 7.8258 7.8258 0 0 1 7.8258 7.8258 7.8258 7.8258 0 0 1-7.8258 7.8258 7.8258 7.8258 0 0 1-7.8258-7.8258 7.8258 7.8258 0 0 1 1.2208-4.1803c-0.73041-1.0434-1.7034-1.873-3.8294-2.3412 5.2172 9.1301-6.2215 8.1101-5.1363 16.06-1.406-0.38738-2.6947-3.0064-1.6304-6.2359-3.6729 4.5351-2.3647 8.4401 0.24521 12.353-2.6086-2.6086-6.8737-2.6008-8.178-6.2698-0.8178 4.7372 1.2495 9.2084 4.9289 12.789 5.3307 4.8611 12.421 7.8258 20.204 7.8258 4.1216 0 8.0488-0.83214 11.624-2.336 6.1889-3.0547 11.687-8.4819 11.915-14.692-1.213 1.7986-6.5867 5.2837-8.9905 5.2837 6.3232-5.2172 7.6328-13.043 1.9969-20.543 0.41738 4.8911-2.216 7.5062-4.5246 9.1692 3.6129-6.888 3.6129-14.735-3.4642-21.644 0.56607 1.6917 0.99909 3.0168 0.61172 4.565 0.3926-1.8952-5.2563-10.676-13.369-13.942z" fill="url(#linearGradient927)" stroke-width="1.3043"/>
  <g transform="matrix(1.3043 0 0 1.3043 .28084 -2.8545)">
   <path transform="translate(-2.1143e-4)" d="m29.01 27.998c-2 1-3 3-2 5-1.054-0.791-1.312-1.943-1.279-3.258a6 6 0 0 1-1.727 0.26 6 6 0 0 1-4.03-1.563c-2.086 2.167-3.971 4.483-3.971 7.563 0 5 3.387 9 8.188 9h0.189c5.742-0.195 9.102-6.703 4.438-12.188-0.801-0.82-0.813-2.814 0.191-4.814z" fill="url(#linearGradient935)"/>
  </g>
  <circle cx="31.584" cy="28.449" r="3.9129" fill="#fff" opacity=".5" stroke-width="1.3043"/>
 </g>
</svg>
