<?xml version="1.0" encoding="UTF-8"?>
<svg width="64" height="64" version="1.1" xmlns="http://www.w3.org/2000/svg" xmlns:cc="http://creativecommons.org/ns#" xmlns:dc="http://purl.org/dc/elements/1.1/" xmlns:rdf="http://www.w3.org/1999/02/22-rdf-syntax-ns#" xmlns:xlink="http://www.w3.org/1999/xlink">
 <metadata>
  <rdf:RDF>
   <cc:Work rdf:about="">
    <dc:format>image/svg+xml</dc:format>
    <dc:type rdf:resource="http://purl.org/dc/dcmitype/StillImage"/>
    <dc:title/>
   </cc:Work>
  </rdf:RDF>
 </metadata>
 <defs>
  <filter id="d" x="-.057513" y="-.062711" width="1.115" height="1.1254" color-interpolation-filters="sRGB">
   <feGaussianBlur stdDeviation="0.43135006"/>
  </filter>
  <linearGradient id="b-3" x1="399.57" x2="399.57" y1="545.8" y2="517.8" gradientTransform="matrix(2.1429 0 0 2.1429 -963.59 -1143.3)" gradientUnits="userSpaceOnUse">
   <stop stop-color="#3889e9" offset="0"/>
   <stop stop-color="#5ea5fb" offset="1"/>
  </linearGradient>
  <style type="text/css"/>
  <linearGradient id="a-3" x1="-6.1472" x2="-6.1472" y1="-140.25" y2="-98.292" gradientTransform="matrix(2.0044 0 0 2.0044 112.94 244.93)" gradientUnits="userSpaceOnUse">
   <stop stop-color="#ff3c69" offset="0"/>
   <stop stop-color="#ff462b" offset="1"/>
  </linearGradient>
  <linearGradient id="linearGradient927" x1="39.034" x2="-7.7455" y1="24.542" y2="71.322" gradientTransform="matrix(2.0044,0,0,2.0044,123.77,261.85)" gradientUnits="userSpaceOnUse">
   <stop stop-color="#ffbe14" offset="0"/>
   <stop stop-color="#ff8214" offset="1"/>
  </linearGradient>
 </defs>
 <g transform="translate(-69.44 26.678)" stroke-width=".53035">
  <circle cx="101.44" cy="5.8301" r="30.001" opacity=".2"/>
  <circle cx="101.44" cy="4.8141" r="30.001" fill="url(#a-3)"/>
 </g>
 <path transform="matrix(2.0833 0 0 2.0833 -34.666 -37.331)" d="m32 23.771c-0.498 0-0.994 0.171-1.5 0.508-1.5 1-3.5-0.5-4-0.5s-3.5 3.643-3.5 5c0 1 3.75 3.3 3.75 4 0 0.5-0.75 0.74-0.75 1.801 0 0.699 1 1.949 2 1.949s3.502-1.963 3.5-2.449v-0.301c0-0.6-2.25-1.356-2.25-2.5 0-1 0.75-1.37 0.75-2.5 0-0.972-2-1.25-3.5-1.5-0.5 0 1.5-1.645 4.25 0.133 0.696 0.45-0.75 2.229-0.5 3.867 0.375 0.35 1.063 0.525 1.75 0.525 0.688 0 1.375-0.175 1.75-0.525 0.25-1.638-1.196-3.417-0.5-3.867 2.75-1.778 4.75-0.133 4.25-0.133-1.5 0.25-3.5 0.528-3.5 1.5 0 1.13 0.75 1.5 0.75 2.5 0 1.144-2.25 1.9-2.25 2.5v0.301c-2e-3 0.486 2.5 2.449 3.5 2.449s2-1.25 2-1.949c0-1.06-0.75-1.301-0.75-1.801 0-0.7 3.75-3 3.75-4 0-1.357-3-5-3.5-5s-2.5 1.5-4 0.5c-0.506-0.337-1-0.508-1.5-0.508zm0 11.908c-1 0-3.25 1.55-3.25 1.85s2.25 2.75 3.25 2.75 3.25-2.45 3.25-2.75-2.25-1.85-3.25-1.85z" filter="url(#d)" opacity=".15" stroke-width=".57143"/>
 <g transform="matrix(.8 0 0 .8 6.3998 6.4)" stroke-width="1.1905">
  <path d="m23.667 4.9167c-1.0417 0-4.6875 4.1667-5.2083 4.1667h-2.6042c-1.0417 0-4.6875 3.6458-4.6875 4.6875v3.125c0 0.52083-4.1437 4.1667-4.1667 5.2083-0.02292 1.0417 7.2917 25.521 8.3333 26.562 1.0417 1.0417 12.5 10.417 15.625 10.417h2.0833c3.125 0 14.583-9.375 15.625-10.417 1.0417-1.0417 8.3542-25.521 8.3333-26.562-0.02292-1.0354-4.1667-4.6875-4.1667-5.2083v-3.125c0-1.0417-3.6458-4.6875-4.6875-4.6875h-2.6042c-0.52083 0-4.1667-4.1667-5.2083-4.1667z" fill="url(#linearGradient927)"/>
  <path d="m32 12.192c-1.0375 0-2.0708 0.35625-3.125 1.0583-3.125 2.0833-7.2917-1.0417-8.3333-1.0417-1.0417 0-7.2917 7.5896-7.2917 10.417 0 2.0833 7.8125 6.875 7.8125 8.3333 0 1.0417-1.5625 1.5417-1.5625 3.7521 0 1.4562 2.0833 4.0604 4.1667 4.0604 2.0833 0 7.2958-4.0896 7.2917-5.1021v-0.62708c0-1.25-4.6875-2.825-4.6875-5.2083 0-2.0833 1.5625-2.8542 1.5625-5.2083 0-2.025-4.1667-2.6042-7.2917-3.125-1.0417 0 3.125-3.4271 8.8541 0.27708 1.45 0.9375-1.5625 4.6437-1.0417 8.0562 0.78125 0.72917 2.2146 1.0937 3.6458 1.0937 1.4333 0 2.8646-0.36458 3.6458-1.0937 0.52083-3.4125-2.4917-7.1187-1.0417-8.0562 5.7292-3.7042 9.8958-0.27708 8.8541-0.27708-3.125 0.52083-7.2917 1.1-7.2917 3.125 0 2.3542 1.5625 3.125 1.5625 5.2083 0 2.3833-4.6875 3.9583-4.6875 5.2083v0.62708c-0.0042 1.0125 5.2083 5.1021 7.2917 5.1021 2.0833 0 4.1667-2.6042 4.1667-4.0604 0-2.2083-1.5625-2.7104-1.5625-3.7521 0-1.4583 7.8125-6.25 7.8125-8.3333 0-2.8271-6.25-10.417-7.2917-10.417s-5.2083 3.125-8.3333 1.0417c-1.0542-0.70208-2.0833-1.0583-3.125-1.0583zm0 24.808c-2.0833 0-6.7708 3.2292-6.7708 3.8542s4.6875 5.7292 6.7708 5.7292 6.7708-5.1042 6.7708-5.7292-4.6875-3.8542-6.7708-3.8542z" fill="#f9f9f9"/>
 </g>
 <g transform="translate(-137.22 -35.254)" fill="#5e4aa6">
  <g image-rendering="optimizeSpeed">
   <circle cx="-1248.6" cy="-1241.1" r="0"/>
   <g transform="matrix(3.7796,0,0,3.7796,-6.9956e-4,6.044e-4)" stroke-width=".26458">
    <circle cx="-330.35" cy="-328.38" r="0"/>
    <circle cx="-330.35" cy="-328.38" r="0"/>
    <circle cx="-352.63" cy="-336.84" r="0"/>
   </g>
   <circle cx="-1248.6" cy="-1241.1" r="0"/>
  </g>
  <g transform="translate(92.643 .35997)" image-rendering="optimizeSpeed">
   <circle cx="-1248.6" cy="-1241.1" r="0"/>
   <g transform="matrix(3.7796,0,0,3.7796,-6.9956e-4,6.044e-4)" stroke-width=".26458">
    <circle cx="-330.35" cy="-328.38" r="0"/>
    <circle cx="-330.35" cy="-328.38" r="0"/>
    <circle cx="-352.63" cy="-336.84" r="0"/>
   </g>
   <circle cx="-1248.6" cy="-1241.1" r="0"/>
  </g>
  <circle cx="-1152.9" cy="-1242.3" r="0"/>
 </g>
 <circle cx="-105.21" cy="-3.7102" r="0" fill="url(#b-3)" stroke-width="1.5715"/>
 <circle cx="-1179.3" cy="-1268.3" r="0" fill="#5e4aa6"/>
</svg>
