<?xml version="1.0" encoding="UTF-8"?>
<svg width="64" height="64" version="1.1" xmlns="http://www.w3.org/2000/svg" xmlns:cc="http://creativecommons.org/ns#" xmlns:dc="http://purl.org/dc/elements/1.1/" xmlns:rdf="http://www.w3.org/1999/02/22-rdf-syntax-ns#" xmlns:xlink="http://www.w3.org/1999/xlink">
 <metadata>
  <rdf:RDF>
   <cc:Work rdf:about="">
    <dc:format>image/svg+xml</dc:format>
    <dc:type rdf:resource="http://purl.org/dc/dcmitype/StillImage"/>
    <dc:title/>
   </cc:Work>
  </rdf:RDF>
 </metadata>
 <defs>
  <linearGradient id="a" x1="-6.1472" x2="-6.1472" y1="-133.08" y2="-96.315" gradientTransform="matrix(2.0044 0 0 2.0044 -50.331 239.34)" gradientUnits="userSpaceOnUse">
   <stop stop-color="#ffbe14" offset="0"/>
   <stop stop-color="#ff8214" offset="1"/>
  </linearGradient>
  <style type="text/css"/>
  <linearGradient id="linearGradient966" x1="59.729" x2="18.644" y1="1.3559" y2="48.271" gradientTransform="matrix(2.0044,0,0,2.0044,112.94,244.93)" gradientUnits="userSpaceOnUse">
   <stop stop-color="#ff3c69" offset="0"/>
   <stop stop-color="#ff462b" offset="1"/>
  </linearGradient>
 </defs>
 <g transform="translate(93.831 32.271)" stroke-width=".53035">
  <circle cx="-61.831" cy=".23911" r="30.001" opacity=".2"/>
  <circle cx="-61.831" cy="-.78134" r="30.001" fill="url(#a)"/>
 </g>
 <path d="m25.333 10.333c-0.83336 0-3.75 3.3334-4.1666 3.3334h-2.0834c-0.83336 0-3.75 2.9166-3.75 3.75v2.5c0 0.41666-3.315 3.3334-3.3334 4.1666-0.01833 0.83336 5.8334 20.417 6.6666 21.25 0.83336 0.83336 10 8.3336 12.5 8.3336h1.6666c2.5 0 11.666-7.5 12.5-8.3336 0.83336-0.83336 6.6834-20.417 6.6666-21.25-0.01834-0.82832-3.3334-3.75-3.3334-4.1666v-2.5c0-0.83336-2.9166-3.75-3.75-3.75h-2.0834c-0.41666 0-3.3334-3.3334-4.1666-3.3334z" fill="url(#linearGradient966)" stroke-width=".9524"/>
 <path d="m31.998 16.153c-0.83 0-1.6566 0.285-2.5 0.84664-2.5 1.6666-5.8334-0.83336-6.6666-0.83336-0.83336 0-5.8334 6.0717-5.8334 8.3336 0 1.6666 6.25 5.5 6.25 6.6666 0 0.83336-1.25 1.2334-1.25 3.0017 0 1.165 1.6666 3.2483 3.3334 3.2483 1.6666 0 5.8366-3.2717 5.8334-4.0817v-0.50166c0-1-3.75-2.26-3.75-4.1666 0-1.6666 1.25-2.2834 1.25-4.1666 0-1.62-3.3334-2.0834-5.8334-2.5-0.83336 0 2.5-2.7417 7.0834 0.22166 1.16 0.75-1.25 3.715-0.83336 6.445 0.625 0.58334 1.7717 0.87496 2.9166 0.87496 1.1466 0 2.2917-0.29166 2.9166-0.87496 0.41666-2.73-1.9934-5.695-0.83336-6.445 4.5834-2.9634 7.9166-0.22166 7.0834-0.22166-2.5 0.41666-5.8334 0.88-5.8334 2.5 0 1.8834 1.25 2.5 1.25 4.1666 0 1.9066-3.75 3.1666-3.75 4.1666v0.50166c-0.0034 0.81 4.1666 4.0817 5.8334 4.0817s3.3334-2.0834 3.3334-3.2483c0-1.7666-1.25-2.1683-1.25-3.0017 0-1.1666 6.25-5 6.25-6.6666 0-2.2617-5-8.3336-5.8334-8.3336s-4.1666 2.5-6.6666 0.83336c-0.84336-0.56166-1.6666-0.84664-2.5-0.84664zm0 19.846c-1.6666 0-5.4166 2.5834-5.4166 3.0834s3.75 4.5834 5.4166 4.5834 5.4166-4.0834 5.4166-4.5834-3.75-3.0834-5.4166-3.0834z" fill="#f9f9f9" stroke-width=".9524"/>
 <circle cx="-1342.5" cy="-1273.9" r="0" fill="#5e4aa6"/>
 <circle cx="-242.98" cy="-8.4161" r="0" fill="#5e4aa6" fill-rule="evenodd"/>
</svg>
