<?xml version="1.0" encoding="UTF-8" standalone="no"?>
<svg
   xmlns:dc="http://purl.org/dc/elements/1.1/"
   xmlns:cc="http://creativecommons.org/ns#"
   xmlns:rdf="http://www.w3.org/1999/02/22-rdf-syntax-ns#"
   xmlns:svg="http://www.w3.org/2000/svg"
   xmlns="http://www.w3.org/2000/svg"
   xmlns:sodipodi="http://sodipodi.sourceforge.net/DTD/sodipodi-0.dtd"
   xmlns:inkscape="http://www.inkscape.org/namespaces/inkscape"
   viewBox="0 0 64 64"
   version="1.1"
   id="svg43"
   sodipodi:docname="caffeine.svg"
   width="64"
   height="64"
   inkscape:version="1.0.1 (3bc2e813f5, 2020-09-07)">
  <metadata
     id="metadata47">
    <rdf:RDF>
      <cc:Work
         rdf:about="">
        <dc:format>image/svg+xml</dc:format>
        <dc:type
           rdf:resource="http://purl.org/dc/dcmitype/StillImage" />
        <dc:title></dc:title>
      </cc:Work>
    </rdf:RDF>
  </metadata>
  <sodipodi:namedview
     pagecolor="#ffffff"
     bordercolor="#666666"
     borderopacity="1"
     objecttolerance="10"
     gridtolerance="10"
     guidetolerance="10"
     inkscape:pageopacity="0"
     inkscape:pageshadow="2"
     inkscape:window-width="1920"
     inkscape:window-height="932"
     id="namedview45"
     showgrid="false"
     inkscape:zoom="5.6347572"
     inkscape:cx="28.586349"
     inkscape:cy="34.047829"
     inkscape:window-x="0"
     inkscape:window-y="36"
     inkscape:window-maximized="1"
     inkscape:current-layer="svg43"
     inkscape:document-rotation="0" />
  <defs
     id="defs7">
    <linearGradient
       id="linearGradient3764"
       x1="1"
       x2="47"
       gradientUnits="userSpaceOnUse"
       gradientTransform="rotate(-90,23.999998,24)">
      <stop
         style="stop-color:#97713f;stop-opacity:1"
         id="stop2" />
      <stop
         offset="1"
         style="stop-color:#a57b44;stop-opacity:1"
         id="stop4" />
    </linearGradient>
    <style
       type="text/css"
       id="style842" />
    <style
       type="text/css"
       id="style844" />
    <linearGradient
       id="linearGradient11422"
       x1="-6.1472"
       x2="-6.1472"
       y1="-137.82"
       y2="-100.78"
       gradientTransform="matrix(2.0044,0,0,2.0044,-54.124,224.15)"
       gradientUnits="userSpaceOnUse">
      <stop
         stop-color="#32b4ff"
         offset="0"
         id="stop846" />
      <stop
         stop-color="#3287ff"
         offset="1"
         id="stop848" />
    </linearGradient>
    <style
       type="text/css"
       id="style851" />
  </defs>
  <g
     id="g27">
    <g
       id="g25">
      <g
         transform="translate(1,1)"
         id="g23">
        <g
           style="opacity:0.1"
           id="g21">
          <!-- color: #a57b44 -->
        </g>
      </g>
    </g>
  </g>
  <g
     id="g31">
    <g
       id="g29">
      <!-- color: #a57b44 -->
    </g>
  </g>
  <g
     transform="translate(97.627,47.458)"
     id="g859">
    <circle
       cx="-65.627998"
       cy="-14.95"
       r="30.000999"
       opacity="0.2"
       stroke-width="0.53035"
       id="circle855" />
    <circle
       cx="-65.625999"
       cy="-15.966"
       r="30.000999"
       fill="url(#linearGradient11422)"
       stroke-width="3.7796"
       style="fill:url(#linearGradient11422);paint-order:normal"
       id="circle857" />
  </g>
  <g
     fill="#5e4aa6"
     id="g883">
    <circle
       cx="-1248.7"
       cy="-1241.6"
       r="0"
       id="circle861" />
    <circle
       cx="-149.14999"
       cy="23.855"
       r="0"
       fill-rule="evenodd"
       id="circle863" />
    <g
       transform="translate(-97.627,-47.458)"
       id="g871">
      <circle
         cx="-1401.7"
         cy="-1262.9"
         r="0"
         id="circle865" />
      <circle
         cx="-302.14001"
         cy="2.5994"
         r="0"
         fill-rule="evenodd"
         id="circle867" />
      <circle
         cx="-1124.8"
         cy="-1279.3"
         r="0"
         id="circle869" />
    </g>
    <g
       transform="matrix(3.7796,0,0,3.7796,26.203,-85.642)"
       stroke-width="0.26458"
       id="g881">
      <circle
         cx="-299.01999"
         cy="-338.76999"
         r="0"
         id="circle873" />
      <circle
         cx="-8.1062002"
         cy="-3.9487"
         r="0"
         fill-rule="evenodd"
         id="circle875" />
      <circle
         cx="-278.25"
         cy="-357.69"
         r="0"
         id="circle877" />
      <circle
         cx="12.663"
         cy="-22.858999"
         r="0"
         fill-rule="evenodd"
         id="circle879" />
    </g>
  </g>
  <g
     id="g961"
     transform="matrix(0.63636363,0,0,0.63636363,-42.620849,11.636364)"
     style="fill:#fafafa;fill-opacity:1">
    <path
       d="m 95.738364,25.125 v 25.208333 c 0,5.078334 4.088333,9.166667 9.166666,9.166667 h 22.91667 c 5.07833,0 9.16666,-4.088333 9.16666,-9.166667 h 2.29167 c 5.07833,0 9.16667,-4.088333 9.16667,-9.166666 V 38.875 c 0,-5.078334 -4.08834,-9.166667 -9.16667,-9.166667 h -2.29167 V 25.125 Z m 41.249996,9.166666 h 2.29167 c 2.53917,0 4.58333,2.044167 4.58333,4.583334 v 2.291667 c 0,2.539166 -2.04416,4.583333 -4.58333,4.583333 h -2.29167 z"
       style="fill:#fafafa;fill-opacity:1;stroke:none;stroke-width:2.29167"
       id="path39" />
    <path
       d="m 104.90503,4.4999994 c -4.58333,0 -8.020833,3.6666667 -8.020833,5.9583336 0,4.225833 5.729163,5.5 5.729163,7.791667 0,2.75 -2.29166,3.455833 -4.58333,4.583333 4.58333,0 8.02083,-2.0625 8.02083,-4.583333 0,-4.583334 -5.72916,-5.335 -5.72916,-8.020834 0,-3.4374999 5.22729,-5.7291666 4.58333,-5.7291666 z m 13.75,0 c -4.58333,0 -8.02083,3.6666667 -8.02083,5.9583336 0,4.225833 5.72916,5.5 5.72916,7.791667 0,2.75 -2.29166,3.455833 -4.58333,4.583333 4.58333,0 8.02083,-2.0625 8.02083,-4.583333 0,-4.583334 -5.72916,-5.335 -5.72916,-8.020834 0,-3.4374999 5.22729,-5.7291666 4.58333,-5.7291666 z m 12.60417,0 c -4.58334,0 -8.02084,3.6666667 -8.02084,5.9583336 0,4.225833 5.72917,5.5 5.72917,7.791667 0,2.75 -2.29167,3.455833 -4.58333,4.583333 4.58333,0 8.02083,-2.0625 8.02083,-4.583333 0,-4.583334 -5.72917,-5.335 -5.72917,-8.020834 0,-3.4374999 5.2273,-5.7291666 4.58334,-5.7291666 z"
       style="fill:#fafafa;fill-opacity:1;stroke:none;stroke-width:2.29167"
       id="path41" />
  </g>
</svg>
