<svg width="64" height="64" version="1.1" viewBox="0 0 16.933 16.933" xmlns="http://www.w3.org/2000/svg" xmlns:xlink="http://www.w3.org/1999/xlink">
 <defs>
  <linearGradient id="e" x1="-6.1472" x2="-6.1472" y1="-137.82" y2="-100.78" gradientTransform="matrix(.53033 0 0 .53033 11.539 352.06)" gradientUnits="userSpaceOnUse">
   <stop stop-color="#32b4ff" offset="0"/>
   <stop stop-color="#3287ff" offset="1"/>
  </linearGradient>
  <clipPath id="y">
   <path d="m481 318h22v22h-22z"/>
  </clipPath>
  <clipPath id="x">
   <path d="m507 318h22v22h-22z"/>
  </clipPath>
  <clipPath id="w">
   <path d="m530 318h22v22h-22z"/>
  </clipPath>
  <clipPath id="v">
   <path d="m672 1064c0-1.105 4.925-2 11-2s11 0.895 11 2-4.925 2-11 2-11-0.895-11-2"/>
  </clipPath>
  <clipPath id="u">
   <path d="m660 1057h51v65.001h-51z"/>
  </clipPath>
  <clipPath id="t">
   <path d="m659 517h53v18h-53z"/>
  </clipPath>
  <clipPath id="a">
   <path d="m-1 1335h1029v-1334h-1029z"/>
  </clipPath>
  <clipPath id="s">
   <path d="m659 500h53v18h-53z"/>
  </clipPath>
  <clipPath id="b">
   <path d="m-1 1335h1029v-1334h-1029z"/>
  </clipPath>
  <clipPath id="r">
   <path d="m648 112h73v60h-73z"/>
  </clipPath>
  <clipPath id="q">
   <path d="m826 1056h59v60h-59z"/>
  </clipPath>
  <clipPath id="p">
   <path d="m805 276h100v100h-100z"/>
  </clipPath>
  <clipPath id="o">
   <path d="m145 1063.8h74.152v45.21h-74.152z"/>
  </clipPath>
  <clipPath id="n">
   <path d="m151 667h57v57h-57z"/>
  </clipPath>
  <clipPath id="m">
   <path d="m154 697h51v51h-51z"/>
  </clipPath>
  <clipPath id="l">
   <path d="m500.04 864.45h36.012v67.52h-36.012z"/>
  </clipPath>
  <clipPath id="k">
   <path d="m836 870.54h47v55.539h-47z"/>
  </clipPath>
  <clipPath id="j">
   <path d="m318.03 702.35h62.848v37.991h-62.848z"/>
  </clipPath>
  <clipPath id="i">
   <path d="m485.03 133.35h62.847v37.991h-62.847z"/>
  </clipPath>
  <clipPath id="h">
   <path d="m493.37 677.93h45.643v68.067h-45.643z"/>
  </clipPath>
  <filter id="g" x="-.06" y="-.06" width="1.12" height="1.12" color-interpolation-filters="sRGB">
   <feGaussianBlur stdDeviation="0.10755781"/>
  </filter>
  <linearGradient id="f" x1="-6.1738" x2="-6.1738" y1="-126.08" y2="-126.7" gradientTransform="matrix(.53521 0 0 .35998 11.568 333.98)" gradientUnits="userSpaceOnUse" xlink:href="#c"/>
  <linearGradient id="c">
   <stop stop-color="#3cb4ff" offset="0"/>
   <stop stop-color="#1478ff" offset="1"/>
  </linearGradient>
  <linearGradient id="d" x1="-6.1738" x2="-6.1738" y1="-126.08" y2="-126.7" gradientTransform="matrix(0 -.58348 .39244 0 58.094 285.19)" gradientUnits="userSpaceOnUse" xlink:href="#c"/>
 </defs>
 <g transform="translate(0 -280.07)">
  <circle cx="-330.35" cy="-48.312" r="0" fill="#5e4aa6" stroke-width=".26458"/>
  <ellipse cx="-39.434" cy="286.51" r=".90502" fill="#5e4aa6" fill-rule="evenodd" stroke-width=".26458"/>
  <g transform="matrix(.35278 0 0 -.35278 152.63 525.02)">
   <g clip-path="url(#y)">
    <g transform="translate(448,326)">
     <path d="m0 0c3.866 0 7 3.134 7 7s-3.134 7-7 7-7-3.134-7-7 3.134-7 7-7" fill="#fff" fill-rule="evenodd"/>
    </g>
   </g>
  </g>
  <g transform="matrix(.35278 0 0 -.35278 152.63 525.02)">
   <g clip-path="url(#x)">
    <g transform="translate(474,326)">
     <path d="m0 0c3.866 0 7 3.134 7 7s-3.134 7-7 7-7-3.134-7-7 3.134-7 7-7" fill="#fff" fill-rule="evenodd"/>
    </g>
   </g>
  </g>
  <g transform="matrix(.35278 0 0 -.35278 152.63 525.02)">
   <g clip-path="url(#w)">
    <g transform="translate(497,326)">
     <path d="m0 0c3.866 0 7 3.134 7 7s-3.134 7-7 7-7-3.134-7-7 3.134-7 7-7" fill="#fff" fill-rule="evenodd"/>
    </g>
   </g>
  </g>
  <g transform="matrix(.35278 0 0 -.35278 152.63 525.02)">
   <g clip-path="url(#v)">
    <path d="m593 1073h36v-18h-36zm18-11c6.075 0 11 0.895 11 2s-4.925 2-11 2-11-0.895-11-2 4.925-2 11-2" fill="#fff" fill-rule="evenodd"/>
   </g>
  </g>
  <g transform="matrix(.35278 0 0 -.35278 152.63 525.02)">
   <g clip-path="url(#u)">
    <g transform="translate(583.42 1063)">
     <path d="m0 0s21.582 23.182 21.582 35.147c0 12.048-9.684 21.853-21.582 21.853-11.816 0-21.418-9.805-21.418-21.853 0-8.06 9.766-21.188 16.002-28.832zm0 42.542c3.938 0 7.14-3.323 7.14-7.395 0-3.822-3.202-7.146-7.14-7.146-3.856 0-7.222 3.324-7.222 7.146 0 4.072 3.366 7.395 7.222 7.395" fill="#fff"/>
    </g>
   </g>
  </g>
  <g transform="matrix(.35278 0 0 -.35278 152.63 525.02)">
   <g clip-path="url(#t)">
    <g transform="translate(562,535)">
     <path d="m0 0h35c2.762 0 5-2.238 5-5s-2.238-5-5-5h-35c-2.762 0-5 2.238-5 5s2.238 5 5 5" fill="#fff" fill-rule="evenodd"/>
    </g>
   </g>
  </g>
  <g transform="matrix(.35278 0 0 -.35278 152.63 525.02)">
   <g clip-path="url(#s)">
    <g transform="translate(562,518)">
     <path d="m0 0h35c2.762 0 5-2.238 5-5s-2.238-5-5-5h-35c-2.762 0-5 2.238-5 5s2.238 5 5 5" fill="#fff" fill-rule="evenodd"/>
    </g>
   </g>
  </g>
  <g transform="matrix(.35278 0 0 -.35278 152.63 525.02)">
   <g clip-path="url(#r)">
    <g transform="translate(536.43 133.83)">
     <path d="m0 0c-10.01-12.916-22.288-9.047-24.23-8.072-4.847 1.293-6.464 10.015-0.326 12.918 10.018 3.226 19.06-0.325 25.524-3.553-0.644-0.967-0.968-1.293-0.968-1.293m10.667 3.553c4.521 8.072 6.139 15.826 6.139 15.826h-15.189v5.812h17.767v2.26h-17.767v8.723h-8.074v-8.723h-16.156v-2.584h16.156v-5.812h-13.57v-2.585h27.783c0-0.325 0-0.325-0.324-0.968 0-2.909-1.936-6.779-3.554-10.014-20.677 8.079-26.491 3.235-28.108 2.584-13.564-9.689-0.968-21.963 1.293-21.638 14.538-3.227 23.905 2.91 30.369 10.657 0.324-0.325 0.967-0.325 1.292-0.325 4.528-2.578 25.848-12.592 25.848-12.592v12.274c-3.878 0.325-15.506 4.195-23.905 7.105" fill="#fff"/>
    </g>
   </g>
  </g>
  <g transform="matrix(.35278 0 0 -.35278 152.63 525.02)">
   <g clip-path="url(#q)">
    <g transform="translate(720.03 1091.5)">
     <path d="m0 0c-0.149 0.354-0.224 0.837-0.224 1.451 0 0.372 0.103 0.828 0.306 1.368 0.205 0.539 0.428 0.958 0.671 1.256-0.019 0.409 0.051 0.902 0.209 1.478 0.159 0.576 0.368 0.976 0.629 1.2 0 2.586 0.86 5.269 2.581 8.05 1.722 2.782 3.744 4.73 6.07 5.846 2.585 1.228 5.6 1.842 9.041 1.842 2.475 0 4.949-0.511 7.423-1.534 0.912-0.391 1.749-0.837 2.512-1.34 0.762-0.502 1.423-1.022 1.981-1.562 0.559-0.54 1.07-1.172 1.534-1.897 0.465-0.725 0.856-1.413 1.172-2.064 0.318-0.651 0.619-1.437 0.908-2.358 0.287-0.921 0.524-1.753 0.71-2.497s0.391-1.655 0.614-2.734l0.028-0.14c1.023-1.543 1.535-2.939 1.535-4.186 0-0.26-0.084-0.632-0.252-1.115-0.168-0.484-0.252-0.837-0.252-1.061 0-0.019 0.015-0.052 0.043-0.099s0.061-0.093 0.098-0.139c0.038-0.046 0.057-0.077 0.057-0.098 1.432-2.121 2.553-4.116 3.363-5.985 0.809-1.869 1.214-3.808 1.214-5.817 0-0.8-0.182-1.73-0.544-2.791-0.363-1.06-0.879-1.59-1.549-1.59-0.167 0-0.349 0.069-0.544 0.209-0.194 0.14-0.371 0.303-0.529 0.489-0.159 0.186-0.335 0.428-0.53 0.725s-0.344 0.543-0.447 0.739-0.228 0.438-0.377 0.725c-0.147 0.288-0.231 0.451-0.251 0.489-0.019 0.019-0.047 0.028-0.085 0.028l-0.138-0.111c-1.099-2.864-2.327-4.938-3.684-6.222 0.372-0.372 0.944-0.73 1.716-1.075s1.414-0.73 1.925-1.158c0.511-0.426 0.841-1.031 0.991-1.814-0.037-0.074-0.074-0.223-0.112-0.447-0.036-0.224-0.101-0.391-0.195-0.501-1.19-1.804-4-2.706-8.427-2.706-0.986 0-2.013 0.084-3.084 0.251-1.069 0.168-1.981 0.354-2.734 0.558s-1.726 0.483-2.916 0.837c-0.279 0.093-0.493 0.158-0.643 0.196-0.259 0.075-0.687 0.115-1.282 0.125-0.595 9e-3 -0.967 0.023-1.116 0.042-0.763-0.838-1.949-1.442-3.559-1.814-1.609-0.372-3.176-0.558-4.702-0.558-0.65 0-1.293 0.014-1.925 0.042s-1.498 0.113-2.595 0.252c-1.098 0.139-2.038 0.33-2.82 0.572-0.781 0.241-1.473 0.613-2.078 1.115-0.604 0.502-0.906 1.098-0.906 1.786 0 0.744 0.093 1.298 0.279 1.661 0.187 0.364 0.569 0.815 1.144 1.353 0.205 0.038 0.581 0.159 1.131 0.363 0.549 0.204 1.009 0.316 1.381 0.334 0.074 0 0.204 0.019 0.39 0.057 0.038 0.037 0.057 0.074 0.057 0.111l-0.057 0.084c-0.892 0.204-1.897 1.185-3.014 2.944-1.117 1.758-1.796 3.214-2.038 4.367l-0.139 0.084c-0.074 0-0.186-0.185-0.334-0.557-0.335-0.763-0.842-1.455-1.521-2.079-0.679-0.622-1.4-0.971-2.163-1.046h-0.028c-0.073 0-0.129 0.041-0.167 0.125-0.037 0.083-0.084 0.134-0.139 0.153-0.428 1.004-0.642 1.934-0.642 2.79 0 5.116 2.343 9.45 7.032 13.002z" fill="#fff"/>
    </g>
   </g>
  </g>
  <g transform="matrix(.35278 0 0 -.35278 152.63 525.02)">
   <g clip-path="url(#p)">
    <g transform="translate(655,300)">
     <path d="m0 0c16.568 0 30 13.432 30 30s-13.432 30-30 30-30-13.432-30-30 13.432-30 30-30z" fill="none" stroke="#fff" stroke-miterlimit="10" stroke-width="8"/>
    </g>
   </g>
  </g>
  <g transform="matrix(.35278 0 0 -.35278 152.63 525.02)">
   <g clip-path="url(#o)">
    <g transform="translate(66.849 1083.1)">
     <path d="m0 0c0 5.302-3.661 9.749-8.591 10.948-0.209 8.314-7.006 14.991-15.366 14.991-4.897 0-9.254-2.293-12.07-5.861-1.579 2.041-4.05 3.358-6.828 3.358-4.769 0-8.633-3.868-8.633-8.639 0-0.416 0.031-0.825 0.089-1.224-0.726 0.13-1.47 0.203-2.232 0.203-6.913 0-12.515-5.607-12.515-12.524 0-6.916 5.602-12.523 12.515-12.523h42.394c6.21 0.013 11.241 5.053 11.241 11.269z" fill="#fff"/>
    </g>
   </g>
  </g>
  <g transform="matrix(.35278 0 0 -.35278 152.63 525.02)">
   <g clip-path="url(#n)">
    <g transform="translate(65.5,681)">
     <path d="m0 0c9.113 0 16.5 7.387 16.5 16.5s-7.387 16.5-16.5 16.5-16.5-7.387-16.5-16.5 7.387-16.5 16.5-16.5z" fill="none" stroke="#fff" stroke-miterlimit="10" stroke-width="4"/>
    </g>
   </g>
  </g>
  <g transform="matrix(.35278 0 0 -.35278 152.63 525.02)">
   <g clip-path="url(#m)">
    <g transform="translate(77.5,711)">
     <path d="m0 0c7.456 0 13.5 6.044 13.5 13.5s-6.044 13.5-13.5 13.5-13.5-6.044-13.5-13.5 6.044-13.5 13.5-13.5z" fill="none" stroke="#fff" stroke-miterlimit="10" stroke-width="4"/>
    </g>
   </g>
  </g>
  <g transform="matrix(.35278 0 0 -.35278 152.63 525.02)">
   <g clip-path="url(#l)">
    <g transform="translate(455.91 931.53)">
     <path d="m0 0c-0.742-1.039-4.75-2.821-8.165-3.563-4.305-0.891-6.531-1.633-8.758-2.82-2.969-1.782-4.601-4.009-4.305-6.087 0.149-0.445 3.711-5.64 7.868-11.578 4.304-5.938 7.868-10.985 8.016-11.134 0.149-0.297-0.445-0.297-2.524-0.148-6.531 0.445-12.469-2.969-15.142-8.314-0.742-1.632-0.89-2.523-0.89-4.453 0-4.453 2.376-8.016 6.829-10.094 1.781-0.742 2.375-0.891 6.086-0.891 4.007 0 4.156 0 6.829 1.336 7.125 3.414 10.093 10.095 7.125 16.181-0.594 1.336-4.305 7.719-8.313 14.251l-7.274 12.024h1.187c4.75 0.297 8.017 1.781 10.244 4.305 1.929 2.227 2.523 4.453 2.374 8.016-0.148 3.266-0.445 4.008-1.187 2.969" fill="#fff"/>
    </g>
   </g>
  </g>
  <g transform="matrix(.35278 0 0 -.35278 152.63 525.02)">
   <g clip-path="url(#k)">
    <g transform="translate(784 902.31)">
     <path d="m0 0c0-1.565-0.904-2.931-2.251-3.674l-27.781-18.472c-0.012-8e-3 -0.026-0.014-0.037-0.02l-0.017-0.011c-0.684-0.376-1.48-0.592-2.331-0.592-2.53 0-4.583 1.913-4.583 4.269v37c0 2.356 2.053 4.27 4.583 4.27 0.851 0 1.647-0.217 2.331-0.596l0.017-8e-3c0.011-9e-3 0.022-0.014 0.037-0.02l27.781-18.471c1.347-0.743 2.251-2.11 2.251-3.675" fill="#fff"/>
    </g>
   </g>
  </g>
  <g transform="matrix(.35278 0 0 -.35278 152.63 525.02)">
   <g clip-path="url(#j)">
    <g transform="translate(223.75 708.35)">
     <path d="m0 0c-15.123 0-27.418 12.329-27.418 27.486 0 1.382 1.111 2.505 2.487 2.505 1.379 0 2.499-1.123 2.499-2.505 0-12.4 10.06-22.487 22.432-22.487 12.375 0 22.443 10.087 22.443 22.487 0 1.382 1.112 2.505 2.488 2.505 1.378 0 2.499-1.123 2.499-2.505 0-15.157-12.304-27.486-27.43-27.486" fill="#fff" fill-rule="evenodd"/>
    </g>
   </g>
  </g>
  <g transform="matrix(.35278 0 0 -.35278 152.63 525.02)">
   <g clip-path="url(#i)">
    <g transform="translate(390.75 139.35)">
     <path d="m0 0c-15.123 0-27.418 12.329-27.418 27.485 0 1.383 1.111 2.506 2.487 2.506 1.379 0 2.499-1.123 2.499-2.506 0-12.398 10.06-22.486 22.432-22.486 12.375 0 22.443 10.088 22.443 22.486 0 1.383 1.112 2.506 2.488 2.506 1.378 0 2.499-1.123 2.499-2.506 0-15.156-12.304-27.485-27.43-27.485" fill="#fff" fill-rule="evenodd"/>
    </g>
   </g>
  </g>
  <g transform="matrix(.35278 0 0 -.35278 152.63 525.02)">
   <g clip-path="url(#h)">
    <g transform="translate(423.93 686.39)">
     <path d="m0 0c0.245-0.286 0.605-0.456 0.986-0.456 0.382 0 0.743 0.17 0.988 0.456l17.516 20.497c0.333 0.388 0.408 0.933 0.191 1.388-0.211 0.463-0.674 0.756-1.184 0.756h-9.93c-2.118 4.172-3.109 8.382-2.973 12.63 0.135 4.248 1.954 12.361 5.455 24.34-10.956-6.59-17.656-18.44-17.656-31.225v-5.745h-9.93c-0.51 0-0.966-0.293-1.184-0.756-0.211-0.462-0.135-1 0.191-1.388z" fill="#fff"/>
    </g>
   </g>
  </g>
  <g>
   <circle cx="8.4935" cy="288.8" r="7.9375" opacity=".2" stroke-width=".14032"/>
   <circle cx="8.4967" cy="288.53" r="7.9375" fill="url(#e)" style="paint-order:normal"/>
   <g transform="matrix(.91727 0 0 .91727 .71194 24.602)" fill="#0078ff" opacity=".5">
    <g transform="matrix(.095607 0 0 -.095607 -53.809 340.58)">
     <g fill="#0078ff">
      <g fill="#0078ff">
       <g fill="#0078ff">
        <g clip-path="url(#a)" fill="#0078ff">
         <path d="m668 535c-2.761 0-5-2.239-5-5 0-2.762 2.239-5 5-5h35c2.762 0 5 2.238 5 5 0 2.761-2.238 5-5 5z" fill="#0078ff"/>
        </g>
       </g>
      </g>
     </g>
    </g>
    <g transform="matrix(.095607 0 0 -.095607 -53.809 340.58)">
     <g fill="#0078ff">
      <g fill="#0078ff">
       <g fill="#0078ff">
        <g clip-path="url(#b)" fill="#0078ff">
         <path d="m668 518c-2.761 0-5-2.238-5-5s2.239-5 5-5h35c2.762 0 5 2.238 5 5s-2.238 5-5 5z" fill="#0078ff"/>
        </g>
       </g>
      </g>
     </g>
    </g>
   </g>
  </g>
  <g transform="matrix(.91727 0 0 .91727 .71194 24.455)" fill="#fff">
   <g transform="matrix(.095607 0 0 -.095607 -53.809 340.58)">
    <g fill="#fff">
     <g fill="#fff">
      <g fill="#fff">
       <g clip-path="url(#a)" fill="#fff">
        <path d="m668 535c-2.761 0-5-2.239-5-5 0-2.762 2.239-5 5-5h35c2.762 0 5 2.238 5 5 0 2.761-2.238 5-5 5z" fill="#fff"/>
       </g>
      </g>
     </g>
    </g>
   </g>
   <g transform="matrix(.095607 0 0 -.095607 -53.809 340.58)">
    <g fill="#fff">
     <g fill="#fff">
      <g fill="#fff">
       <g clip-path="url(#b)" fill="#fff">
        <path d="m668 518c-2.761 0-5-2.238-5-5s2.239-5 5-5h35c2.762 0 5 2.238 5 5s-2.238 5-5 5z" fill="#fff"/>
       </g>
      </g>
     </g>
    </g>
   </g>
  </g>
  <g transform="matrix(.91727 0 0 .91727 .071282 23.94)" fill="#0078ff" opacity=".5">
   <g transform="matrix(.095607 0 0 -.095607 -59.544 336.25)">
    <g fill="#0078ff">
     <g fill="#0078ff">
      <g fill="#0078ff">
       <g clip-path="url(#a)" fill="#0078ff">
        <path d="m668 535c-2.761 0-5-2.239-5-5 0-2.762 2.239-5 5-5h35c2.762 0 5 2.238 5 5 0 2.761-2.238 5-5 5z"/>
        <path d="m668 535c-2.761 0-5-2.239-5-5 0-2.762 2.239-5 5-5h35c2.762 0 5 2.238 5 5 0 2.761-2.238 5-5 5z"/>
       </g>
      </g>
     </g>
    </g>
   </g>
   <g transform="matrix(.095607 0 0 -.095607 -59.348 335.55)">
    <g fill="#0078ff">
     <g fill="#0078ff">
      <g fill="#0078ff">
       <g clip-path="url(#b)" fill="#0078ff">
        <path d="m678.45 505.16c0-2.761 2.238-5 5-5s5 2.239 5 5v35c0 2.762-2.238 5-5 5s-5-2.238-5-5z" fill="#0078ff"/>
       </g>
      </g>
     </g>
    </g>
   </g>
  </g>
  <g transform="matrix(.91727 0 0 .91727 .40885 23.245)">
   <g>
    <g transform="translate(-.36801 .61884)" fill="#0078ff" filter="url(#g)">
     <g transform="matrix(.095607 0 0 -.095607 -59.544 336.25)">
      <g fill="#0078ff">
       <g fill="#0078ff">
        <g fill="#0078ff">
         <g clip-path="url(#a)" fill="#0078ff">
          <path d="m668 535c-2.761 0-5-2.239-5-5 0-2.762 2.239-5 5-5h35c2.762 0 5 2.238 5 5 0 2.761-2.238 5-5 5z"/>
          <path d="m668 535c-2.761 0-5-2.239-5-5 0-2.762 2.239-5 5-5h35c2.762 0 5 2.238 5 5 0 2.761-2.238 5-5 5z"/>
         </g>
        </g>
       </g>
      </g>
     </g>
     <g transform="matrix(.095607 0 0 -.095607 -59.348 335.55)">
      <g fill="#0078ff">
       <g fill="#0078ff">
        <g fill="#0078ff">
         <g clip-path="url(#b)" fill="#0078ff">
          <path d="m678.45 505.16c0-2.761 2.238-5 5-5s5 2.239 5 5v35c0 2.762-2.238 5-5 5s-5-2.238-5-5z" fill="#0078ff"/>
         </g>
        </g>
       </g>
      </g>
     </g>
    </g>
    <g transform="translate(-.36801 .61884)" fill="#fff">
     <g transform="matrix(.095607 0 0 -.095607 -59.544 336.25)">
      <g fill="#fff">
       <g fill="#fff">
        <g fill="#fff">
         <g clip-path="url(#a)" fill="#fff">
          <path d="m668 535c-2.761 0-5-2.239-5-5 0-2.762 2.239-5 5-5h35c2.762 0 5 2.238 5 5 0 2.761-2.238 5-5 5z"/>
          <path d="m668 535c-2.761 0-5-2.239-5-5 0-2.762 2.239-5 5-5h35c2.762 0 5 2.238 5 5 0 2.761-2.238 5-5 5z"/>
         </g>
        </g>
       </g>
      </g>
     </g>
     <g transform="matrix(.095607 0 0 -.095607 -59.348 335.55)">
      <g fill="#fff">
       <g fill="#fff">
        <g fill="#fff">
         <g clip-path="url(#b)" fill="#fff">
          <path d="m678.45 505.16c0-2.761 2.238-5 5-5s5 2.239 5 5v35c0 2.762-2.238 5-5 5s-5-2.238-5-5z" fill="#fff"/>
         </g>
        </g>
       </g>
      </g>
     </g>
    </g>
   </g>
  </g>
  <g transform="matrix(.91727 0 0 .91727 .090974 24.567)" fill="#0078ff" opacity=".5">
   <g transform="matrix(.095607 0 0 -.095607 -59.566 340.58)">
    <g fill="#0078ff">
     <g fill="#0078ff">
      <g fill="#0078ff">
       <g clip-path="url(#a)" fill="#0078ff">
        <path d="m669.59 512.47c-1.9523-1.9523-1.9523-5.1188 0-7.0711 1.953-1.953 5.1187-1.9523 7.0711 0l24.749 24.749c1.953 1.953 1.953 5.118 0 7.0711-1.9523 1.9523-5.118 1.953-7.0711 0z" fill="#0078ff"/>
       </g>
      </g>
     </g>
    </g>
   </g>
   <g transform="matrix(.067604 .067604 .067604 -.067604 -75.051 279.08)">
    <g fill="#0078ff">
     <g fill="#0078ff">
      <g fill="#0078ff">
       <g clip-path="url(#b)" fill="#0078ff">
        <path d="m668 518c-2.761 0-5-2.238-5-5s2.239-5 5-5h35c2.762 0 5 2.238 5 5s-2.238 5-5 5z" fill="#0078ff"/>
       </g>
      </g>
     </g>
    </g>
   </g>
  </g>
  <g transform="matrix(.91727 0 0 .91727 .090974 24.439)" fill="#fff">
   <g transform="matrix(.095607 0 0 -.095607 -59.566 340.58)">
    <g fill="#fff">
     <g fill="#fff">
      <g fill="#fff">
       <g clip-path="url(#a)" fill="#fff">
        <path d="m669.59 512.47c-1.9523-1.9523-1.9523-5.1188 0-7.0711 1.953-1.953 5.1187-1.9523 7.0711 0l24.749 24.749c1.953 1.953 1.953 5.118 0 7.0711-1.9523 1.9523-5.118 1.953-7.0711 0z" fill="#fff"/>
       </g>
      </g>
     </g>
    </g>
   </g>
   <g transform="matrix(.067604 .067604 .067604 -.067604 -75.051 279.08)">
    <g fill="#fff">
     <g fill="#fff">
      <g fill="#fff">
       <g clip-path="url(#b)" fill="#fff">
        <path d="m668 518c-2.761 0-5-2.238-5-5s2.239-5 5-5h35c2.762 0 5 2.238 5 5s-2.238 5-5 5z" fill="#fff"/>
       </g>
      </g>
     </g>
    </g>
   </g>
  </g>
  <g>
   <g transform="matrix(.087697 0 0 -.087697 -48.645 332.37)" fill="#0078ff" opacity=".5">
    <g fill="#0078ff">
     <g fill="#0078ff">
      <g fill="#0078ff">
       <g clip-path="url(#a)" fill="#0078ff">
        <path d="m668 535c-2.761 0-5-2.239-5-5 0-2.762 2.239-5 5-5h35c2.762 0 5 2.238 5 5 0 2.761-2.238 5-5 5z" fill="#0078ff"/>
       </g>
      </g>
     </g>
    </g>
   </g>
   <g transform="matrix(.087697 0 0 -.087697 -48.645 332.24)" fill="#fff">
    <g fill="#fff">
     <g fill="#fff">
      <g fill="#fff">
       <g clip-path="url(#a)" fill="#fff">
        <path d="m668 535c-2.761 0-5-2.239-5-5 0-2.762 2.239-5 5-5h35c2.762 0 5 2.238 5 5 0 2.761-2.238 5-5 5z" fill="#fff"/>
       </g>
      </g>
     </g>
    </g>
   </g>
   <path d="m1.2163 288.39c-1.908e-4 0.0711 2.834e-4 0.11333 0.00349 0.18345h14.553c0.0042-0.0659 0.0051-0.11582 0.0031-0.18345z" fill="url(#f)" stroke-width=".11613"/>
   <path d="m8.3967 296.47c0.0775 2.1e-4 0.12355-3e-4 0.2-4e-3v-15.866c-0.0718-5e-3 -0.12627-6e-3 -0.2-3e-3z" fill="url(#d)" stroke-width=".12661"/>
  </g>
 </g>
</svg>
