<?xml version="1.0" encoding="UTF-8" standalone="no"?>
<svg
   xmlns:dc="http://purl.org/dc/elements/1.1/"
   xmlns:cc="http://creativecommons.org/ns#"
   xmlns:rdf="http://www.w3.org/1999/02/22-rdf-syntax-ns#"
   xmlns:svg="http://www.w3.org/2000/svg"
   xmlns="http://www.w3.org/2000/svg"
   xmlns:sodipodi="http://sodipodi.sourceforge.net/DTD/sodipodi-0.dtd"
   xmlns:inkscape="http://www.inkscape.org/namespaces/inkscape"
   width="64"
   height="64"
   version="1.1"
   viewBox="0 0 64 64"
   id="svg16"
   sodipodi:docname="cellwriter.svg"
   inkscape:version="0.92.5 (6c0c36ef5a, 2020-05-15, custom)">
  <metadata
     id="metadata22">
    <rdf:RDF>
      <cc:Work
         rdf:about="">
        <dc:format>image/svg+xml</dc:format>
        <dc:type
           rdf:resource="http://purl.org/dc/dcmitype/StillImage" />
        <dc:title></dc:title>
      </cc:Work>
    </rdf:RDF>
  </metadata>
  <defs
     id="defs20">
    <linearGradient
       gradientUnits="userSpaceOnUse"
       gradientTransform="matrix(0.086563,0,0,0.086563,-19.285,288.52)"
       y2="44"
       y1="268"
       x2="200"
       x1="200"
       id="c">
      <stop
         id="stop854"
         offset="0"
         stop-color="#e6e6e6" />
      <stop
         id="stop856"
         offset="1"
         stop-color="#d3d3d3" />
    </linearGradient>
    <linearGradient
       gradientUnits="userSpaceOnUse"
       gradientTransform="translate(-64,-68)"
       y2="212"
       y1="100"
       x2="152"
       x1="152"
       id="d">
      <stop
         id="stop859"
         offset="0"
         stop-opacity="0" />
      <stop
         id="stop861"
         offset=".5" />
      <stop
         id="stop863"
         offset="1"
         stop-opacity="0" />
    </linearGradient>
    <filter
       color-interpolation-filters="sRGB"
       height="1.048"
       width="1.048"
       y="-.024"
       x="-.024"
       id="a">
      <feGaussianBlur
         id="feGaussianBlur866"
         stdDeviation="1.5000091" />
    </filter>
    <linearGradient
       gradientUnits="userSpaceOnUse"
       y2="236"
       y1="124"
       x2="152"
       x1="152"
       id="b">
      <stop
         id="stop869"
         offset="0" />
      <stop
         id="stop871"
         offset="1"
         stop-opacity="0" />
    </linearGradient>
    <clipPath
       id="f">
      <path
         id="path874"
         fill="#5d5d5d"
         color="#000000"
         d="m152 68c-48.601 0-88 39.399-88 88s39.399 88 88 88 88-39.399 88-88-39.399-88-88-88z" />
    </clipPath>
    <filter
       color-interpolation-filters="sRGB"
       height="1.12"
       width="1.12"
       y="-.06"
       x="-.06"
       id="e">
      <feGaussianBlur
         id="feGaussianBlur877"
         stdDeviation="4.4" />
    </filter>
  </defs>
  <sodipodi:namedview
     pagecolor="#ffffff"
     bordercolor="#666666"
     borderopacity="1"
     objecttolerance="10"
     gridtolerance="10"
     guidetolerance="10"
     inkscape:pageopacity="0"
     inkscape:pageshadow="2"
     inkscape:window-width="1920"
     inkscape:window-height="1000"
     id="namedview18"
     showgrid="false"
     inkscape:zoom="2.6074563"
     inkscape:cx="99.820305"
     inkscape:cy="43.852981"
     inkscape:window-x="0"
     inkscape:window-y="0"
     inkscape:window-maximized="1"
     inkscape:current-layer="svg16" />
  <g
     transform="matrix(3.779602,0,0,3.779602,-0.10204866,-1059.0388)"
     id="g890">
    <circle
       style="fill:#5e4aa6;stroke-width:0.26458001"
       cx="-330.35001"
       cy="-48.312"
       r="0"
       id="circle882" />
    <circle
       style="opacity:0.2;stroke-width:0.14032"
       cx="8.4934998"
       cy="288.79999"
       r="7.9375"
       id="circle884" />
    <circle
       style="fill:#fafafa;stroke-width:0.14032"
       cx="8.4934998"
       cy="288.53"
       r="7.9375"
       id="circle886" />
    <circle
       style="fill:#5e4aa6;fill-rule:evenodd;stroke-width:0.26458001"
       cx="-39.433998"
       cy="286.51001"
       r="0"
       id="circle888" />
  </g>
  <g
     style="stroke-width:0.85184997"
     id="g12"
     transform="matrix(1.3461538,0,0,1.3461538,-0.3076912,-0.3076912)">
    <path
       style="fill:#969696;fill-rule:evenodd"
       inkscape:connector-curvature="0"
       id="path6"
       d="M 11,15 V 33 H 37 V 15 Z m 1,1 H 23 V 32 H 12 Z m 13,0 H 36 V 32 H 25 Z" />
    <path
       style="fill:#333333;stroke-width:0.85184997"
       inkscape:connector-curvature="0"
       id="path8"
       d="m 16.62,28.804 c -1.626,-0.506 -3.229,-2.049 -3.114,-4.03 0.111,-2.256 1.681,-4.04 3.371,-5.161 0.506,-0.457 1.638,-1.09 1.923,-0.062 0.225,1.067 -0.984,1.207 -1.661,1.347 -1.361,0.694 -2.342,2.31 -2.334,3.954 0.241,1.738 1.862,2.734 3.324,3.03 1.125,0.243 2.327,0.128 3.372,-0.4 -1.295,1.256 -3.334,1.849 -4.88,1.317 z" />
    <path
       style="fill:#333333;stroke-width:0.85184997"
       inkscape:connector-curvature="0"
       id="path10"
       d="m 27.14,28.67 c -1.186,-1.651 -0.383,-5.433 -0.307,-7.524 0,0 1.084,-0.118 1.086,0.371 -0.81,1.387 -0.657,7.38 1.049,4.622 0.461,-0.745 0.598,-1.638 0.945,-2.44 0.266,-0.615 1.043,-0.676 1.267,-0.034 0.267,0.764 1.202,3.642 1.637,2.637 0.32,-0.738 0.443,-1.537 0.529,-2.324 0.129,-2.153 -0.601,-4.22 -0.935,-6.321 1.269,2.047 2.14,6.03 2.082,8.06 -0.029,1.034 -0.4,2.241 -1.308,2.744 -2.098,0.833 -2.232,-3.905 -3.337,-1.35 -0.601,1.389 -2.064,2.458 -2.709,1.561 z" />
  </g>
</svg>
