<?xml version="1.0" encoding="UTF-8" standalone="no"?>
<svg
   xmlns:dc="http://purl.org/dc/elements/1.1/"
   xmlns:cc="http://creativecommons.org/ns#"
   xmlns:rdf="http://www.w3.org/1999/02/22-rdf-syntax-ns#"
   xmlns:svg="http://www.w3.org/2000/svg"
   xmlns="http://www.w3.org/2000/svg"
   xmlns:sodipodi="http://sodipodi.sourceforge.net/DTD/sodipodi-0.dtd"
   xmlns:inkscape="http://www.inkscape.org/namespaces/inkscape"
   width="64"
   height="64"
   version="1.1"
   id="svg8"
   sodipodi:docname="chess.svg"
   inkscape:version="0.92.5 (6c0c36ef5a, 2020-05-15, custom)">
  <metadata
     id="metadata14">
    <rdf:RDF>
      <cc:Work
         rdf:about="">
        <dc:format>image/svg+xml</dc:format>
        <dc:type
           rdf:resource="http://purl.org/dc/dcmitype/StillImage" />
        <dc:title></dc:title>
      </cc:Work>
    </rdf:RDF>
  </metadata>
  <defs
     id="defs12">
    <linearGradient
       gradientUnits="userSpaceOnUse"
       gradientTransform="matrix(2.1429,0,0,2.1429,-826.3695,-1107.9998)"
       y2="517.8"
       y1="545.8"
       x2="399.57"
       x1="399.57"
       id="b">
      <stop
         id="stop823"
         offset="0"
         stop-color="#3889e9" />
      <stop
         id="stop825"
         offset="1"
         stop-color="#5ea5fb" />
    </linearGradient>
    <linearGradient
       gradientUnits="userSpaceOnUse"
       gradientTransform="translate(-114.9795,9.0988e-5)"
       y2="1.6692"
       y1="61.873"
       x2="32.431"
       x1="32.431"
       id="linearGradient1001">
      <stop
         id="stop828"
         offset="0"
         stop-color="#1d2123" />
      <stop
         id="stop830"
         offset="1"
         stop-color="#33393e" />
    </linearGradient>
  </defs>
  <sodipodi:namedview
     pagecolor="#ffffff"
     bordercolor="#666666"
     borderopacity="1"
     objecttolerance="10"
     gridtolerance="10"
     guidetolerance="10"
     inkscape:pageopacity="0"
     inkscape:pageshadow="2"
     inkscape:window-width="1920"
     inkscape:window-height="1000"
     id="namedview10"
     showgrid="false"
     inkscape:zoom="5.2149125"
     inkscape:cx="7.34747"
     inkscape:cy="36.679395"
     inkscape:window-x="0"
     inkscape:window-y="0"
     inkscape:window-maximized="1"
     inkscape:current-layer="svg8" />
  <g
     style="fill:#5e4aa6;stroke-width:0.26458001"
     transform="matrix(3.7796,0,0,3.7796,5.0050911e-4,4.128e-5)"
     id="g857">
    <circle
       style="image-rendering:optimizeSpeed"
       cx="-330.35001"
       cy="-328.37"
       r="0"
       id="circle835" />
    <circle
       style="image-rendering:optimizeSpeed"
       cx="-330.35001"
       cy="-328.38"
       r="0"
       id="circle837" />
    <circle
       style="image-rendering:optimizeSpeed"
       cx="-330.35001"
       cy="-328.38"
       r="0"
       id="circle839" />
    <circle
       style="image-rendering:optimizeSpeed"
       cx="-352.63"
       cy="-336.84"
       r="0"
       id="circle841" />
    <circle
       style="image-rendering:optimizeSpeed"
       cx="-330.35001"
       cy="-328.37"
       r="0"
       id="circle843" />
    <circle
       style="image-rendering:optimizeSpeed"
       cx="-305.84"
       cy="-328.26999"
       r="0"
       id="circle845" />
    <circle
       style="image-rendering:optimizeSpeed"
       cx="-305.84"
       cy="-328.28"
       r="0"
       id="circle847" />
    <circle
       style="image-rendering:optimizeSpeed"
       cx="-305.84"
       cy="-328.28"
       r="0"
       id="circle849" />
    <circle
       style="image-rendering:optimizeSpeed"
       cx="-328.12"
       cy="-336.73999"
       r="0"
       id="circle851" />
    <circle
       style="image-rendering:optimizeSpeed"
       cx="-305.84"
       cy="-328.26999"
       r="0"
       id="circle853" />
    <circle
       cx="-305.03"
       cy="-328.69"
       r="0"
       id="circle855" />
  </g>
  <path
     style="opacity:0.2;stroke-width:0.99725002"
     inkscape:connector-curvature="0"
     d="m 50.238501,8.693455 q -3.8597,-2.9725 -8.444,-4.5556 -4.7374,-1.6373 -9.802,-1.6373 c -16.57,0 -30.0030002,13.432 -30.0030002,30.001 0,15.158 11.2450002,27.684 25.8450002,29.709 0.71215,0.09853 1.4339,0.17484 2.1587,0.21937 0.66128,0.04131 1.3258,0.06992 1.9998,0.06992 16.567,0 29.997,-13.432 29.997,-29.999 0,-1.3098 -0.08266,-2.6037 -0.2448,-3.8658 -0.18758,-1.4751 -0.49278,-2.909 -0.88386,-4.3046 q -1.3289,-4.6893 -4.0823,-8.7263 -2.7215,-3.9773 -6.5402,-6.9114 z"
     id="path859" />
  <path
     style="fill:url(#linearGradient1001);stroke-width:0.99725002"
     inkscape:connector-curvature="0"
     d="m 50.238501,7.693055 q -3.8597,-2.9725 -8.444,-4.5556 -4.7374,-1.6373 -9.802,-1.6373 c -16.57,0 -30.0030002,13.432 -30.0030002,30.001 0,15.158 11.2450002,27.684 25.8450002,29.709 0.71215,0.09857 1.4339,0.17484 2.1587,0.21937 0.66128,0.04131 1.3258,0.06992 1.9998,0.06992 16.567,0 29.997,-13.432 29.997,-29.999 0,-1.3098 -0.08266,-2.6037 -0.2448,-3.8658 -0.18758,-1.4751 -0.49278,-2.909 -0.88386,-4.3046 q -1.3289,-4.6894 -4.0823,-8.7263 -2.7215,-3.9773 -6.5402,-6.9114 z"
     id="path861" />
  <circle
     style="fill-opacity:0;stroke-width:1.57149994"
     cx="32.009499"
     cy="31.544155"
     r="30.000999"
     id="circle863" />
  <circle
     style="fill:url(#b);stroke-width:1.57149994"
     cx="32.009499"
     cy="31.544155"
     r="0"
     id="circle865" />
  <path
     style="fill:#ffffff;stroke-width:1.04999995"
     inkscape:connector-curvature="0"
     id="path4"
     d="m 25.24125,19.399975 c -0.32865,0 -0.5943,0.2583 -0.5943,0.5901 v 5.1188 c 0,0.32865 0.2625,0.59115 0.5943,0.59115 h 0.4557 l -1.05,1.05 1.05,1.05 -1.0469,11.55 c -1.1644,0 -2.099,0.93555 -2.099,2.0958 0,0.38115 0.11445,0.73815 0.29085,1.05 l -0.2919,0.0041 -1.05,2.1001 h 21 l -1.05,-2.1 -0.294,-0.0041 c 0.1806,-0.31185 0.29505,-0.66885 0.29505,-1.05 0,-1.1644 -0.94077,-2.0958 -2.101,-2.0958 l -1.049,-11.55 1.05,-1.05 -1.05,-1.05 h 0.4599 c 0.3318,0 0.5943,-0.2583 0.5943,-0.59115 v -5.1188 c 0,-0.32865 -0.2583,-0.5901 -0.5943,-0.5901 h -1.5109 v 2.1 h -2.1 v -2.1 h -2.1 v 2.1 h -2.1 v -2.1001 h -2.1 v 2.1 h -2.1 v -2.1" />
</svg>
