<?xml version="1.0" encoding="UTF-8"?>
<svg width="64" height="64" version="1.1" viewBox="0 0 64 64" xmlns="http://www.w3.org/2000/svg" xmlns:cc="http://creativecommons.org/ns#" xmlns:dc="http://purl.org/dc/elements/1.1/" xmlns:rdf="http://www.w3.org/1999/02/22-rdf-syntax-ns#">
 <metadata>
  <rdf:RDF>
   <cc:Work rdf:about="">
    <dc:format>image/svg+xml</dc:format>
    <dc:type rdf:resource="http://purl.org/dc/dcmitype/StillImage"/>
    <dc:title/>
   </cc:Work>
  </rdf:RDF>
 </metadata>
 <defs>
  <linearGradient id="a-3" x1="-6.1472" x2="-6.1472" y1="-137.82" y2="-100.78" gradientTransform="matrix(2.0044,0,0,2.0044,123.77,261.85)" gradientUnits="userSpaceOnUse">
   <stop stop-color="#ffbe14" offset="0"/>
   <stop stop-color="#ff8214" offset="1"/>
  </linearGradient>
 </defs>
 <style type="text/css">.st0{fill:#F08705;}
	.st1{fill:#DF6C0C;}
	.st2{fill:#FFFFFF;}
	.st3{fill:#333333;}</style>
 <circle cx="-1168.4" cy="-1251.4" r="0" fill="#5e4aa6"/>
 <circle cx="-68.875" cy="14.092" r="0" fill="#5e4aa6" fill-rule="evenodd"/>
 <g transform="translate(-80.27,9.7625)" stroke-width=".53035">
  <circle cx="112.27" cy="22.748" r="30.001" opacity=".2"/>
  <circle cx="112.27" cy="21.727" r="30.001" fill="url(#a-3)"/>
 </g>
 <g transform="translate(1.0573 .88308)" opacity=".15">
  <path d="m26.357 27-5.8633 10h3.375l5.8262-9.9512h4.6445l5.8594 9.9512h3.3613l-5.8828-10z" stroke-width=".33418"/>
  <path d="m26 13c-1.108 0-2 0.892-2 2v10c0 1.108 0.892 2 2 2h12c1.108 0 2-0.892 2-2v-10c0-1.108-0.892-2-2-2zm0 2h12v10h-12z" style="paint-order:stroke fill markers"/>
  <path d="m14 37c-1.108 0-2 0.892-2 2v10c0 1.108 0.892 2 2 2h12c1.108 0 2-0.892 2-2v-10c0-1.108-0.892-2-2-2zm0 2h12v10h-12z" style="paint-order:stroke fill markers"/>
  <path d="m38 37c-1.108 0-2 0.892-2 2v10c0 1.108 0.892 2 2 2h12c1.108 0 2-0.892 2-2v-10c0-1.108-0.892-2-2-2zm0 2h12v10h-12z" style="paint-order:stroke fill markers"/>
 </g>
 <g fill="#fff">
  <path d="m26.357 27-5.8633 10h3.375l5.8262-9.9512h4.6445l5.8594 9.9512h3.3613l-5.8828-10z" stroke-width=".33418"/>
  <path d="m26 13c-1.108 0-2 0.892-2 2v10c0 1.108 0.892 2 2 2h12c1.108 0 2-0.892 2-2v-10c0-1.108-0.892-2-2-2zm0 2h12v10h-12z" style="paint-order:stroke fill markers"/>
  <path d="m14 37c-1.108 0-2 0.892-2 2v10c0 1.108 0.892 2 2 2h12c1.108 0 2-0.892 2-2v-10c0-1.108-0.892-2-2-2zm0 2h12v10h-12z" style="paint-order:stroke fill markers"/>
  <path d="m38 37c-1.108 0-2 0.892-2 2v10c0 1.108 0.892 2 2 2h12c1.108 0 2-0.892 2-2v-10c0-1.108-0.892-2-2-2zm0 2h12v10h-12z" style="paint-order:stroke fill markers"/>
 </g>
</svg>
