<?xml version="1.0" encoding="UTF-8"?>
<svg width="64" height="64" version="1.1" xmlns="http://www.w3.org/2000/svg" xmlns:cc="http://creativecommons.org/ns#" xmlns:dc="http://purl.org/dc/elements/1.1/" xmlns:rdf="http://www.w3.org/1999/02/22-rdf-syntax-ns#">
 <metadata>
  <rdf:RDF>
   <cc:Work rdf:about="">
    <dc:format>image/svg+xml</dc:format>
    <dc:type rdf:resource="http://purl.org/dc/dcmitype/StillImage"/>
    <dc:title/>
   </cc:Work>
  </rdf:RDF>
 </metadata>
 <defs>
  <linearGradient id="a-3" x1="-6.1472" x2="-6.1472" y1="-137.82" y2="-100.78" gradientTransform="matrix(2.0044 0 0 2.0044 43.499 271.61)" gradientUnits="userSpaceOnUse">
   <stop stop-color="#378c3c" offset="0"/>
   <stop stop-color="#3c8250" offset="1"/>
  </linearGradient>
  <style type="text/css"/>
  <style type="text/css"/>
 </defs>
 <circle cx="-1248.7" cy="-1241.6" r="0" fill="#5e4aa6"/>
 <circle cx="32" cy="32.51" r="30.001" opacity=".2" stroke-width=".53035"/>
 <circle cx="32" cy="31.49" r="30.001" fill="url(#a-3)" stroke-width=".53035"/>
 <path d="m4.9453 44.453a30.001 30.001 0 0 0 0.041016 0.08789 30.001 30.001 0 0 0 0.20312 0.41406 30.001 30.001 0 0 0 0.21094 0.41016 30.001 30.001 0 0 0 0.2168 0.40625 30.001 30.001 0 0 0 0.2207 0.40234 30.001 30.001 0 0 0 0.22852 0.40039 30.001 30.001 0 0 0 0.23438 0.39648 30.001 30.001 0 0 0 0.18945 0.30664l2.4336-1.623v2.3066l-1.373 0.91602a30.001 30.001 0 0 0 0.013672 0.01953 30.001 30.001 0 0 0 0.26953 0.37305 30.001 30.001 0 0 0 0.27734 0.36914 30.001 30.001 0 0 0 0.28125 0.36328 30.001 30.001 0 0 0 0.28711 0.36133 30.001 30.001 0 0 0 0.29102 0.35547 30.001 30.001 0 0 0 0.29883 0.35156 30.001 30.001 0 0 0 0.30273 0.3457 30.001 30.001 0 0 0 0.30859 0.3418 30.001 30.001 0 0 0 0.31445 0.33789 30.001 30.001 0 0 0 0.31836 0.33203 30.001 30.001 0 0 0 0.32422 0.32812 30.001 30.001 0 0 0 0.32812 0.32227 30.001 30.001 0 0 0 0.33398 0.31641 30.001 30.001 0 0 0 0.33984 0.3125 30.001 30.001 0 0 0 0.34375 0.30664 30.001 30.001 0 0 0 0.34766 0.30273 30.001 30.001 0 0 0 0.35156 0.29492 30.001 30.001 0 0 0 0.35742 0.29102 30.001 30.001 0 0 0 0.29883 0.23633v-6.0234l6.9219-5.7695h3.4629l-6.9238 5.7695v8.3574a30.001 30.001 0 0 0 0.04102 0.02344 30.001 30.001 0 0 0 0.40234 0.22656 30.001 30.001 0 0 0 0.4043 0.2207 30.001 30.001 0 0 0 0.40625 0.21289 30.001 30.001 0 0 0 0.41211 0.20898 30.001 30.001 0 0 0 0.41406 0.20117 30.001 30.001 0 0 0 0.41797 0.19531 30.001 30.001 0 0 0 0.41992 0.18945 30.001 30.001 0 0 0 0.42188 0.18164 30.001 30.001 0 0 0 0.42578 0.17578 30.001 30.001 0 0 0 0.42969 0.16992 30.001 30.001 0 0 0 0.42969 0.16211 30.001 30.001 0 0 0 0.43359 0.15625 30.001 30.001 0 0 0 0.43555 0.14844 30.001 30.001 0 0 0 0.4375 0.14258 30.001 30.001 0 0 0 0.44141 0.13672 30.001 30.001 0 0 0 0.44141 0.12891 30.001 30.001 0 0 0 0.44336 0.12109 30.001 30.001 0 0 0 0.44727 0.11524 30.001 30.001 0 0 0 0.44727 0.10938 30.001 30.001 0 0 0 0.44922 0.10156 30.001 30.001 0 0 0 0.45117 0.0957 30.001 30.001 0 0 0 0.45117 0.08789 30.001 30.001 0 0 0 0.45312 0.08008 30.001 30.001 0 0 0 0.45508 0.07422 30.001 30.001 0 0 0 0.45508 0.06641 30.001 30.001 0 0 0 0.45703 0.06055 30.001 30.001 0 0 0 0.45703 0.05273 30.001 30.001 0 0 0 0.45898 0.04492 30.001 30.001 0 0 0 0.45898 0.03906 30.001 30.001 0 0 0 0.45898 0.03125 30.001 30.001 0 0 0 0.46094 0.02539 30.001 30.001 0 0 0 0.45898 0.01758 30.001 30.001 0 0 0 0.46094 0.01172 30.001 30.001 0 0 0 0.46094 2e-3 30.001 30.001 0 0 0 0.14648 0 30.001 30.001 0 0 0 0.45898-0.0059 30.001 30.001 0 0 0 0.46094-0.01172 30.001 30.001 0 0 0 0.46094-0.01953 30.001 30.001 0 0 0 0.45898-0.02734 30.001 30.001 0 0 0 0.45898-0.03516 30.001 30.001 0 0 0 0.45898-0.04102 30.001 30.001 0 0 0 0.45898-0.04687 30.001 30.001 0 0 0 0.45703-0.05664 30.001 30.001 0 0 0 0.45508-0.06055 30.001 30.001 0 0 0 0.45703-0.07031 30.001 30.001 0 0 0 0.45312-0.07617 30.001 30.001 0 0 0 0.45312-0.08203 30.001 30.001 0 0 0 0.45117-0.08984 30.001 30.001 0 0 0 0.45117-0.09766 30.001 30.001 0 0 0 0.44922-0.10352 30.001 30.001 0 0 0 0.44727-0.11133 30.001 30.001 0 0 0 0.44531-0.11719 30.001 30.001 0 0 0 0.44336-0.125 30.001 30.001 0 0 0 0.44141-0.13086 30.001 30.001 0 0 0 0.43945-0.13867 30.001 30.001 0 0 0 0.4375-0.14453 30.001 30.001 0 0 0 0.43359-0.15039 30.001 30.001 0 0 0 0.43359-0.1582 30.001 30.001 0 0 0 0.42969-0.16602 30.001 30.001 0 0 0 0.42774-0.16992 30.001 30.001 0 0 0 0.42383-0.17773 30.001 30.001 0 0 0 0.42383-0.18555 30.001 30.001 0 0 0 0.41797-0.18945 30.001 30.001 0 0 0 0.41602-0.19727 30.001 30.001 0 0 0 0.41406-0.20312 30.001 30.001 0 0 0 0.41016-0.21094 30.001 30.001 0 0 0 0.40625-0.2168 30.001 30.001 0 0 0 0.4043-0.2207 30.001 30.001 0 0 0 0.39844-0.22852 30.001 30.001 0 0 0 0.39648-0.23633 30.001 30.001 0 0 0 0.39258-0.24023 30.001 30.001 0 0 0 0.38867-0.24609 30.001 30.001 0 0 0 0.38672-0.25195 30.001 30.001 0 0 0 0.38086-0.25977 30.001 30.001 0 0 0 0.37695-0.26367 30.001 30.001 0 0 0 0.37305-0.26953 30.001 30.001 0 0 0 0.36914-0.27734 30.001 30.001 0 0 0 0.36328-0.28125 30.001 30.001 0 0 0 0.36133-0.28711 30.001 30.001 0 0 0 0.35547-0.29102 30.001 30.001 0 0 0 0.35156-0.29883 30.001 30.001 0 0 0 0.3457-0.30273 30.001 30.001 0 0 0 0.3418-0.30859 30.001 30.001 0 0 0 0.33789-0.31445 30.001 30.001 0 0 0 0.33203-0.31836 30.001 30.001 0 0 0 0.32812-0.32422 30.001 30.001 0 0 0 0.32227-0.32812 30.001 30.001 0 0 0 0.31641-0.33398 30.001 30.001 0 0 0 0.3125-0.33984 30.001 30.001 0 0 0 0.30664-0.34375 30.001 30.001 0 0 0 0.30273-0.34766 30.001 30.001 0 0 0 0.29492-0.35156 30.001 30.001 0 0 0 0.29102-0.35742 30.001 30.001 0 0 0 0.28516-0.36133 30.001 30.001 0 0 0 0.2793-0.36719 30.001 30.001 0 0 0 0.27539-0.36914 30.001 30.001 0 0 0 0.26758-0.375 30.001 30.001 0 0 0 0.26172-0.37891 30.001 30.001 0 0 0 0.25781-0.38281 30.001 30.001 0 0 0 0.25-0.38477 30.001 30.001 0 0 0 0.24609-0.39062 30.001 30.001 0 0 0 0.23828-0.39453 30.001 30.001 0 0 0 0.23242-0.39648 30.001 30.001 0 0 0 0.22656-0.40234 30.001 30.001 0 0 0 0.21875-0.40039l-4.5273-5.7617h-2.3086l-2.3066-2.3086h-35.77l-8.5937 6.877z" fill="#43a047" stroke-width="1.1538"/>
 <path d="m53.244 10.309a30.001 30.001 0 0 0-0.08203-0.08398 30.001 30.001 0 0 0-0.32812-0.32227 30.001 30.001 0 0 0-0.33398-0.31641 30.001 30.001 0 0 0-0.33984-0.3125 30.001 30.001 0 0 0-0.34375-0.30664 30.001 30.001 0 0 0-0.34766-0.30273 30.001 30.001 0 0 0-0.35156-0.29492 30.001 30.001 0 0 0-0.35742-0.29102 30.001 30.001 0 0 0-0.36133-0.28516 30.001 30.001 0 0 0-0.36719-0.2793 30.001 30.001 0 0 0-0.36914-0.27539 30.001 30.001 0 0 0-0.375-0.26758 30.001 30.001 0 0 0-0.37891-0.26367 30.001 30.001 0 0 0-0.38281-0.25586 30.001 30.001 0 0 0-0.38477-0.25 30.001 30.001 0 0 0-0.39062-0.24609 30.001 30.001 0 0 0-0.39453-0.23828 30.001 30.001 0 0 0-0.39648-0.23242 30.001 30.001 0 0 0-0.40234-0.22656 30.001 30.001 0 0 0-0.4043-0.2207 30.001 30.001 0 0 0-0.40625-0.21484 30.001 30.001 0 0 0-0.41211-0.20703 30.001 30.001 0 0 0-0.41406-0.20117 30.001 30.001 0 0 0-0.41797-0.19531 30.001 30.001 0 0 0-0.41992-0.18945 30.001 30.001 0 0 0-0.42188-0.18164 30.001 30.001 0 0 0-0.42578-0.17578 30.001 30.001 0 0 0-0.42969-0.16992 30.001 30.001 0 0 0-0.42969-0.16211 30.001 30.001 0 0 0-0.43359-0.15625 30.001 30.001 0 0 0-0.43555-0.14844 30.001 30.001 0 0 0-0.4375-0.14258 30.001 30.001 0 0 0-0.44141-0.13672 30.001 30.001 0 0 0-0.44141-0.12891 30.001 30.001 0 0 0-0.44336-0.12109 30.001 30.001 0 0 0-0.44727-0.11523 30.001 30.001 0 0 0-0.44727-0.10938 30.001 30.001 0 0 0-0.44922-0.10156 30.001 30.001 0 0 0-0.45117-0.095703 30.001 30.001 0 0 0-0.45117-0.087891 30.001 30.001 0 0 0-0.45312-0.080078 30.001 30.001 0 0 0-0.45508-0.074219 30.001 30.001 0 0 0-0.45508-0.066406 30.001 30.001 0 0 0-0.45703-0.060547 30.001 30.001 0 0 0-0.45703-0.052734 30.001 30.001 0 0 0-0.45898-0.044922 30.001 30.001 0 0 0-0.45898-0.039062 30.001 30.001 0 0 0-0.45898-0.033203 30.001 30.001 0 0 0-0.46094-0.023438 30.001 30.001 0 0 0-0.45898-0.017578 30.001 30.001 0 0 0-0.46094-0.011719 30.001 30.001 0 0 0-0.46094-0.00391 30.001 30.001 0 0 0-0.14648 0.00195 30.001 30.001 0 0 0-0.45898 0.00586 30.001 30.001 0 0 0-0.46094 0.011719 30.001 30.001 0 0 0-0.46094 0.019531 30.001 30.001 0 0 0-0.45898 0.027344 30.001 30.001 0 0 0-0.45898 0.035156 30.001 30.001 0 0 0-0.45898 0.041016 30.001 30.001 0 0 0-0.45898 0.046875 30.001 30.001 0 0 0-0.45703 0.054688 30.001 30.001 0 0 0-0.45508 0.0625 30.001 30.001 0 0 0-0.45703 0.070312 30.001 30.001 0 0 0-0.45312 0.076172 30.001 30.001 0 0 0-0.45312 0.082031 30.001 30.001 0 0 0-0.45117 0.089844 30.001 30.001 0 0 0-0.45117 0.097656 30.001 30.001 0 0 0-0.44922 0.10352 30.001 30.001 0 0 0-0.44727 0.11133 30.001 30.001 0 0 0-0.44531 0.11719 30.001 30.001 0 0 0-0.44336 0.125 30.001 30.001 0 0 0-0.44141 0.13086 30.001 30.001 0 0 0-0.43945 0.13867 30.001 30.001 0 0 0-0.4375 0.14453 30.001 30.001 0 0 0-0.43359 0.15039 30.001 30.001 0 0 0-0.43359 0.1582 30.001 30.001 0 0 0-0.42969 0.16406 30.001 30.001 0 0 0-0.42774 0.17188 30.001 30.001 0 0 0-0.42383 0.17773 30.001 30.001 0 0 0-0.42383 0.18555 30.001 30.001 0 0 0-0.41797 0.18945 30.001 30.001 0 0 0-0.41602 0.19727 30.001 30.001 0 0 0-0.41406 0.20312 30.001 30.001 0 0 0-0.41016 0.21094 30.001 30.001 0 0 0-0.40625 0.21484 30.001 30.001 0 0 0-0.4043 0.22266 30.001 30.001 0 0 0-0.39844 0.22852 30.001 30.001 0 0 0-0.39648 0.23438 30.001 30.001 0 0 0-0.39258 0.24219 30.001 30.001 0 0 0-0.38867 0.24609 30.001 30.001 0 0 0-0.38672 0.25195 30.001 30.001 0 0 0-0.38086 0.25977 30.001 30.001 0 0 0-0.37695 0.26367 30.001 30.001 0 0 0-0.37305 0.26953 30.001 30.001 0 0 0-0.36914 0.27734 30.001 30.001 0 0 0-0.36328 0.28125 30.001 30.001 0 0 0-0.36133 0.28711 30.001 30.001 0 0 0-0.35547 0.29102 30.001 30.001 0 0 0-0.35156 0.29883 30.001 30.001 0 0 0-0.3457 0.30273 30.001 30.001 0 0 0-0.3418 0.30859 30.001 30.001 0 0 0-0.33789 0.31445 30.001 30.001 0 0 0-0.33203 0.31836 30.001 30.001 0 0 0-0.32812 0.32422 30.001 30.001 0 0 0-0.32227 0.32812 30.001 30.001 0 0 0-0.31641 0.33398 30.001 30.001 0 0 0-0.3125 0.33984 30.001 30.001 0 0 0-0.30664 0.3418 30.001 30.001 0 0 0-0.30273 0.34961 30.001 30.001 0 0 0-0.29492 0.35156 30.001 30.001 0 0 0-0.29102 0.35742 30.001 30.001 0 0 0-0.28516 0.36133 30.001 30.001 0 0 0-0.2793 0.36719 30.001 30.001 0 0 0-0.27539 0.36914 30.001 30.001 0 0 0-0.26758 0.375 30.001 30.001 0 0 0-0.26172 0.37891 30.001 30.001 0 0 0-0.25781 0.38281 30.001 30.001 0 0 0-0.25 0.38476 30.001 30.001 0 0 0-0.24609 0.39062 30.001 30.001 0 0 0-0.23828 0.39453 30.001 30.001 0 0 0-0.23242 0.39648 30.001 30.001 0 0 0-0.22656 0.40234 30.001 30.001 0 0 0-0.2207 0.4043 30.001 30.001 0 0 0-0.21289 0.40625 30.001 30.001 0 0 0-0.20898 0.41211 30.001 30.001 0 0 0-0.20117 0.41406 30.001 30.001 0 0 0-0.19531 0.41602 30.001 30.001 0 0 0-0.18945 0.42188 30.001 30.001 0 0 0-0.18164 0.42188 30.001 30.001 0 0 0-0.17578 0.42578 30.001 30.001 0 0 0-0.16992 0.42774 30.001 30.001 0 0 0-0.16211 0.43164 30.001 30.001 0 0 0-0.15625 0.43359 30.001 30.001 0 0 0-0.14844 0.43555 30.001 30.001 0 0 0-0.14258 0.4375 30.001 30.001 0 0 0-0.13672 0.44141 30.001 30.001 0 0 0-0.023438 0.08008l1.248 1.248h45.451l7.5098-8.582a30.001 30.001 0 0 0-0.24023-0.38086 30.001 30.001 0 0 0-0.25195-0.38672 30.001 30.001 0 0 0-0.25976-0.38086 30.001 30.001 0 0 0-0.26367-0.37695 30.001 30.001 0 0 0-0.26953-0.37305 30.001 30.001 0 0 0-0.27734-0.36914 30.001 30.001 0 0 0-0.28125-0.36328 30.001 30.001 0 0 0-0.28711-0.36133 30.001 30.001 0 0 0-0.25781-0.31641l-6.3184 7.1074h-3.5879l8.0879-9.0996z" fill="#43a047" stroke-width="1.1961"/>
 <rect x="10" y="13" width="17" height="6" ry="1" fill="#263238" stroke-width="1.1019"/>
 <rect x="37" y="44" width="17" height="6" ry="1" fill="#eceff1"/>
 <g transform="translate(0 .00015111)" fill="#37474f">
  <rect x="38" y="45" width="9" height="1" ry="0"/>
  <path d="m38 47h5v1h-5z"/>
  <path d="m49 49 2-3 2 3z" fill-rule="evenodd"/>
 </g>
 <g transform="translate(-.0045138 .000342)">
  <g transform="translate(-10.989,3)">
   <circle cx="58.5" cy="50.5" r="1.5" fill="#fbc02d"/>
   <circle cx="58.5" cy="50.5" r=".5" fill="#263238"/>
  </g>
  <g transform="translate(-10.989,-1)">
   <circle cx="58.5" cy="11.5" r="1.5" fill="#fbc02d"/>
   <circle cx="58.5" cy="11.5" r=".5" fill="#263238"/>
  </g>
  <g transform="translate(10.998,3)">
   <circle cx="5.5" cy="50.5" r="1.5" fill="#fbc02d"/>
   <circle cx="5.5" cy="50.5" r=".5" fill="#263238"/>
  </g>
  <g transform="translate(6.316 .048618)">
   <circle cx="10.182" cy="10.451" r="1.5" fill="#fbc02d"/>
   <circle cx="10.182" cy="10.451" r=".5" fill="#263238"/>
  </g>
 </g>
 <g fill="#fff">
  <rect x="11" y="14" width="4" height="1" opacity=".5" style="paint-order:stroke fill markers"/>
  <rect x="11" y="16" width="8" height="1" opacity=".5" style="paint-order:stroke fill markers"/>
  <rect x="22" y="16" width="3" height="2" opacity=".5" style="paint-order:stroke fill markers"/>
 </g>
 <g transform="translate(-112.37)">
  <rect x="130.37" y="24" width="28" height="16" ry="1" fill="#263238"/>
  <path d="m133.37 27h2v10h-2zm4 0h2v10h-2zm4 0h2v10h-2zm4 0h2v10h-2zm4 0h2v10h-2zm4 0h2v10h-2z" fill="#fbc02d" fill-rule="evenodd" style="paint-order:fill markers stroke"/>
 </g>
</svg>
