<?xml version="1.0" encoding="UTF-8" standalone="no"?>
<svg
   xmlns:dc="http://purl.org/dc/elements/1.1/"
   xmlns:cc="http://creativecommons.org/ns#"
   xmlns:rdf="http://www.w3.org/1999/02/22-rdf-syntax-ns#"
   xmlns:svg="http://www.w3.org/2000/svg"
   xmlns="http://www.w3.org/2000/svg"
   xmlns:sodipodi="http://sodipodi.sourceforge.net/DTD/sodipodi-0.dtd"
   xmlns:inkscape="http://www.inkscape.org/namespaces/inkscape"
   inkscape:version="1.0 (4035a4fb49, 2020-05-01)"
   sodipodi:docname="dbeaver.svg"
   id="svg34"
   version="1"
   height="64"
   width="64">
  <metadata
     id="metadata40">
    <rdf:RDF>
      <cc:Work
         rdf:about="">
        <dc:format>image/svg+xml</dc:format>
        <dc:type
           rdf:resource="http://purl.org/dc/dcmitype/StillImage" />
        <dc:title></dc:title>
      </cc:Work>
    </rdf:RDF>
  </metadata>
  <defs
     id="defs38">
    <linearGradient
       id="bg"
       x1="1"
       x2="47"
       gradientTransform="rotate(-90,23.999999,24.000001)"
       gradientUnits="userSpaceOnUse">
      <stop
         style="stop-color:#d19a89"
         offset="0"
         id="stop865" />
      <stop
         style="stop-color:#d7a697"
         offset="1"
         id="stop867" />
    </linearGradient>
    <linearGradient
       id="d"
       x1="-6.1472"
       x2="-6.1472"
       y1="-137.82"
       y2="-100.78"
       gradientTransform="matrix(0.08434,0,0,0.08434,3.8925,297.87)"
       gradientUnits="userSpaceOnUse">
      <stop
         stop-color="#ffbe14"
         offset="0"
         id="stop921" />
      <stop
         stop-color="#ff8214"
         offset="1"
         id="stop923" />
    </linearGradient>
    <linearGradient
       id="c"
       x1="-6.1472"
       x2="-6.1472"
       y1="-137.82"
       y2="-100.78"
       gradientTransform="matrix(0.31877146,0,0,0.31877146,36.600152,91.09408)"
       gradientUnits="userSpaceOnUse">
      <stop
         stop-color="#32b4ff"
         offset="0"
         id="stop926" />
      <stop
         stop-color="#3287ff"
         offset="1"
         id="stop928" />
    </linearGradient>
    <linearGradient
       id="b-3"
       x1="-6.1472"
       x2="-6.1472"
       y1="-140.25"
       y2="-98.292"
       gradientTransform="matrix(0.08434,0,0,0.08434,5.4869,302.32)"
       gradientUnits="userSpaceOnUse">
      <stop
         stop-color="#ff3c69"
         offset="0"
         id="stop931" />
      <stop
         stop-color="#ff462b"
         offset="1"
         id="stop933" />
    </linearGradient>
    <linearGradient
       id="a-6"
       x1="-6.1472"
       x2="-6.1472"
       y1="-159.56"
       y2="-102.47"
       gradientTransform="matrix(0.08434,0,0,0.08434,12.664,294.95)"
       gradientUnits="userSpaceOnUse">
      <stop
         stop-color="#969692"
         offset="0"
         id="stop936" />
      <stop
         offset="1"
         id="stop938" />
    </linearGradient>
  </defs>
  <sodipodi:namedview
     inkscape:current-layer="svg34"
     inkscape:window-maximized="1"
     inkscape:window-y="36"
     inkscape:window-x="0"
     inkscape:cy="6.1940297"
     inkscape:cx="17.329456"
     inkscape:zoom="4.391796"
     showgrid="false"
     id="namedview36"
     inkscape:window-height="964"
     inkscape:window-width="1920"
     inkscape:pageshadow="2"
     inkscape:pageopacity="0"
     guidetolerance="10"
     gridtolerance="10"
     objecttolerance="10"
     borderopacity="1"
     bordercolor="#666666"
     pagecolor="#ffffff" />
  <circle
     id="circle943"
     stroke-width="1.00001"
     fill="#5e4aa6"
     r="0"
     cy="-1241.6382"
     cx="-1248.6929" />
  <circle
     id="circle945"
     stroke-width="0.530353"
     opacity="0.2"
     r="30.000574"
     cy="32.510235"
     cx="32" />
  <circle
     id="circle947"
     stroke-width="0.530353"
     fill="#fafafa"
     r="30.000574"
     cy="31.489784"
     cx="32" />
  <circle
     id="circle969"
     stroke-width="1.00001"
     fill-rule="evenodd"
     fill="#5e4aa6"
     r="0"
     cy="23.855032"
     cx="-149.14677" />
  <g
     transform="matrix(1.1131245,0,0,1.1131245,-64.008507,3.5418957)"
     id="g1047">
    <g
       id="g10"
       stroke-width="1.037"
       stroke-opacity="0.098039"
       transform="matrix(0.96429,0,0,0.96429,55.394079,-5.800995)">
      <circle
         id="circle4"
         fill="#6d4c41"
         r="9"
         cy="27.000999"
         cx="19" />
      <circle
         id="circle6"
         fill="#6d4c41"
         r="9"
         cy="27.000999"
         cx="44.999001" />
      <path
         id="path8"
         fill="#a1887f"
         d="m 32,16.001 c -13.255,0 -22,10.745 -22,24 v 9.3122 a 28,28 0 0 0 22,10.687 28,28 0 0 0 22,-10.73 v -9.2694 c 0,-13.255 -8.745,-24 -22,-24 z" />
    </g>
    <rect
       id="rect12"
       fill="#ffffff"
       height="7.7143202"
       width="5.7857399"
       y="38.556347"
       x="80.465622"
       style="stroke-width:0.96429" />
    <rect
       id="rect14"
       fill="#f2f2f2"
       height="8.6786098"
       width="5.7857399"
       y="37.592056"
       x="86.251358"
       style="stroke-width:0.96429" />
    <path
       id="path16"
       stroke-width="0.999969"
       stroke-opacity="0.098039"
       stroke="#000000"
       fill="#6d4c41"
       d="m 80.662338,32.771569 c -2.66144,-0.07903 -4.05378,4.267659 -4.05378,6.866227 0,2.59799 2.15866,4.704193 4.82135,4.704193 2.4545,0 4.78895,-2.090774 4.78895,-2.090774 h 0.0681 c 0,0 2.33262,2.087881 4.78587,2.090774 2.66279,0 4.82135,-2.106203 4.82135,-4.704193 0,-2.59799 -1.30748,-6.455053 -3.96911,-6.53374 z" />
    <path
       id="path18"
       fill="#3e2723"
       d="m 91.977318,32.559425 c 0.58045,2.366272 -3.21678,5.032726 -5.6654,5.032726 -2.44862,0 -6.36991,-2.638297 -5.78854,-5.032726 0.44547,-1.835043 3.33992,-1.715664 5.78854,-1.715664 2.44862,0 5.22423,-0.0829 5.6654,1.715664 z"
       style="stroke-width:0.96429" />
    <g
       id="g24"
       transform="matrix(0.21094808,0,0,0.21094808,-30.431588,1471.6841)">
      <circle
         id="circle20"
         stroke-width="4.7406"
         stroke-opacity="0.098039"
         stroke="#000000"
         fill="#fefefe"
         r="22.857"
         cy="-6853.1001"
         cx="502.85999" />
      <circle
         id="circle22"
         fill="#333333"
         r="9.1429996"
         cy="-6857.7002"
         cx="-498.29001"
         transform="scale(-1,1)" />
    </g>
    <g
       id="g30"
       transform="matrix(0.21094808,0,0,0.21094808,-9.2123868,1471.6841)">
      <circle
         id="circle26"
         stroke-width="4.7406"
         stroke-opacity="0.098039"
         stroke="#000000"
         fill="#fefefe"
         r="22.857"
         cy="-6853.1001"
         cx="502.85999" />
      <circle
         id="circle28"
         fill="#333333"
         r="9.1429996"
         cy="-6857.7002"
         cx="-498.29001"
         transform="scale(-1,1)" />
    </g>
  </g>
</svg>
