<?xml version="1.0" encoding="UTF-8"?>
<svg width="64" height="64" version="1.1" viewBox="0 0 16.933 16.933" xmlns="http://www.w3.org/2000/svg" xmlns:cc="http://creativecommons.org/ns#" xmlns:dc="http://purl.org/dc/elements/1.1/" xmlns:rdf="http://www.w3.org/1999/02/22-rdf-syntax-ns#">
 <metadata>
  <rdf:RDF>
   <cc:Work rdf:about="">
    <dc:format>image/svg+xml</dc:format>
    <dc:type rdf:resource="http://purl.org/dc/dcmitype/StillImage"/>
    <dc:title/>
   </cc:Work>
  </rdf:RDF>
 </metadata>
 <defs>
  <linearGradient id="b-3" x1="399.57" x2="399.57" y1="545.8" y2="517.8" gradientTransform="matrix(.56696 0 0 .56696 -218.64 -293.15)" gradientUnits="userSpaceOnUse">
   <stop stop-color="#3889e9" offset="0"/>
   <stop stop-color="#5ea5fb" offset="1"/>
  </linearGradient>
  <linearGradient id="linearGradient1001" x1="32.431" x2="32.431" y1="61.873" y2="1.6692" gradientTransform="matrix(.26458 0 0 .26458 -30.421 2.4233e-5)" gradientUnits="userSpaceOnUse">
   <stop stop-color="#1d2123" offset="0"/>
   <stop stop-color="#33393e" offset="1"/>
  </linearGradient>
 </defs>
 <g transform="translate(.00013258 1.1082e-5)" fill="#5e4aa6" stroke-width=".26458">
  <circle cx="-330.35" cy="-328.37" r="0" image-rendering="optimizeSpeed"/>
  <circle cx="-330.35" cy="-328.38" r="0" image-rendering="optimizeSpeed"/>
  <circle cx="-330.35" cy="-328.38" r="0" image-rendering="optimizeSpeed"/>
  <circle cx="-352.63" cy="-336.84" r="0" image-rendering="optimizeSpeed"/>
  <circle cx="-330.35" cy="-328.37" r="0" image-rendering="optimizeSpeed"/>
  <circle cx="-305.84" cy="-328.27" r="0" image-rendering="optimizeSpeed"/>
  <circle cx="-305.84" cy="-328.28" r="0" image-rendering="optimizeSpeed"/>
  <circle cx="-305.84" cy="-328.28" r="0" image-rendering="optimizeSpeed"/>
  <circle cx="-328.12" cy="-336.74" r="0" image-rendering="optimizeSpeed"/>
  <circle cx="-305.84" cy="-328.27" r="0" image-rendering="optimizeSpeed"/>
  <circle cx="-305.03" cy="-328.69" r="0"/>
 </g>
 <path d="m13.292 2.3001q-1.0212-0.78646-2.2341-1.2053-1.2534-0.43319-2.5934-0.43319c-4.3841 0-7.9381 3.5538-7.9381 7.9376 0 4.0105 2.9752 7.3246 6.838 7.8604 0.18842 0.02607 0.37938 0.04626 0.57114 0.05804 0.17496 0.01093 0.35078 0.0185 0.5291 0.0185 4.3833 0 7.9365-3.5538 7.9365-7.9371 0-0.34654-0.02187-0.68888-0.06477-1.0228-0.049628-0.39028-0.13038-0.76966-0.23385-1.1389q-0.3516-1.2407-1.0801-2.3088-0.72005-1.0523-1.7304-1.8286z" opacity=".2" stroke-width=".26385"/>
 <path d="m13.292 2.0354q-1.0212-0.78646-2.2341-1.2053-1.2534-0.43319-2.5934-0.43319c-4.3841 0-7.9381 3.5538-7.9381 7.9376 0 4.0105 2.9752 7.3246 6.838 7.8604 0.18842 0.02608 0.37938 0.04626 0.57114 0.05804 0.17496 0.01093 0.35078 0.0185 0.5291 0.0185 4.3833 0 7.9365-3.5538 7.9365-7.9371 0-0.34654-0.02187-0.68888-0.06477-1.0228-0.049628-0.39028-0.13038-0.76966-0.23385-1.1389q-0.3516-1.2407-1.0801-2.3088-0.72005-1.0523-1.7304-1.8286z" fill="url(#linearGradient1001)" stroke-width=".26385"/>
 <circle cx="8.469" cy="8.3459" r="7.9376" fill-opacity="0" stroke-width=".41578"/>
 <circle cx="8.469" cy="8.3459" r="0" fill="url(#b-3)" stroke-width=".41578"/>
 <path d="m10.776 7.4106c-0.56872-0.65949-1.0795-1.086-1.8363 0.025155-0.45169 0.65949-3.1542 4.4469-3.6496 5.0495-0.14546 0.17499-0.22967 0.2953-0.33904 0.36857 0-0.24061 1.8669-3.2843 2.3875-4.1669 0.62887-1.0587 0.60918-0.99744 0.53372-0.99744-0.10609 0-0.32264 0.16187-0.65184 0.52278-0.60043 0.65949-2.3788 3.1137-2.5024 3.0765 0.042654-0.17827 1.4349-2.3755 2.0671-3.2843 0.54356-0.78308 0.33576-0.84433 0.024061-0.76667-1.3299 0.32811-2.9201 1.1156-2.9726 1.086 0.019686-0.040466 5.3591-3.9034 6.0721-3.9766 0.08312-0.00984 0.25811-0.16187 0.56981-0.28983 0.33904-0.13671 0.56762-0.25045 0.6234-0.21436-0.24827 0.35764-0.37732 0.42982-0.3806 0.54466-0.0033 0.18811-0.06781 0.49216-0.13999 0.59059 1.3802 0.94604 1.9194 4.1702 2.3121 6.7655 0.09296 0.61465 0.18155 1.0784 0.20342 1.3529-0.11593-0.30842-1.2195-4.4076-2.323-5.6861" fill="#fff" stroke-width="1.0937"/>
</svg>
