<?xml version="1.0" encoding="UTF-8"?>
<svg width="64" height="64" version="1.1" viewBox="0 0 16.933 16.933" xmlns="http://www.w3.org/2000/svg" xmlns:cc="http://creativecommons.org/ns#" xmlns:dc="http://purl.org/dc/elements/1.1/" xmlns:rdf="http://www.w3.org/1999/02/22-rdf-syntax-ns#">
 <metadata>
  <rdf:RDF>
   <cc:Work rdf:about="">
    <dc:format>image/svg+xml</dc:format>
    <dc:type rdf:resource="http://purl.org/dc/dcmitype/StillImage"/>
    <dc:title/>
   </cc:Work>
  </rdf:RDF>
 </metadata>
 <defs>
  <linearGradient id="b" x1="45.628" x2="45.628" y1="57.955" y2="12.461" gradientTransform="matrix(.27477 0 0 .27477 .4464 -.44884)" gradientUnits="userSpaceOnUse">
   <stop offset="0"/>
   <stop stop-opacity="0" offset="1"/>
  </linearGradient>
  <linearGradient id="f-5" x1="-6.1472" x2="-6.1472" y1="-137.82" y2="-100.78" gradientTransform="matrix(.53032 0 0 .53032 11.509 71.862)" gradientUnits="userSpaceOnUse">
   <stop stop-color="#14dc78" offset="0"/>
   <stop stop-color="#14a03c" offset="1"/>
  </linearGradient>
 </defs>
 <circle cx="-330.38" cy="-328.5" r="0" fill="#5e4aa6" stroke-width=".26458"/>
 <circle cx="8.4665" cy="8.6014" r="7.9376" opacity=".2" stroke-width=".14032"/>
 <circle cx="8.4665" cy="8.3316" r="7.9376" fill="url(#f-5)" stroke-width=".14032"/>
 <g transform="scale(.26458)" fill="#5e4aa6">
  <circle cx="-149.15" cy="23.855" r="0" fill-rule="evenodd"/>
  <circle cx="-1150.9" cy="-1256.6" r="0"/>
  <circle cx="-51.327" cy="8.8744" r="0" fill-rule="evenodd"/>
 </g>
 <path d="m14.234 2.8899c0.37091 1.3101 0.2213 2.2633 0.22558 3.3856-0.0043 3.6822-1.8297 7.8335-4.8758 9.9024 3.4349-0.32261 6.7966-3.5623 6.7991-7.842-0.06437-2.5719-0.86433-3.9876-2.1489-5.446z" fill="url(#b)" opacity=".25" stroke-width=".96299" style="paint-order:stroke markers fill"/>
 <path d="m11.164 4.233c-1.672 0-1.985 2.54-1.045 2.54 0.94 0 2.717-2.54 1.045-2.54zm-2.654 0.288c-0.956 0.135-0.62 1.936-0.11 1.97 0.508 0.033 1.067-2.104 0.11-1.97zm-1.73 0.56a0.586 0.586 0 0 0-0.157 0.04c-0.895 0.34-0.136 1.742 0.366 1.648 0.47-0.089 0.524-1.759-0.208-1.687zm-1.176 1.128a0.475 0.475 0 0 0-0.259 0.074c-0.736 0.434 0.248 1.482 0.68 1.32 0.38-0.143 0.138-1.378-0.421-1.395zm3.432 0.847c-1.317-0.024-3.055 0.668-3.351 2.056-0.321 1.503 1.321 3.588 3.035 3.588 0.843 0 1.815-0.797 1.997-1.806 0.139-0.769-1.748-0.46-1.684 0.048 0.052 0.416-0.166 0.632-0.466 0.64-0.41-0.05-0.61-0.287-0.665-0.645-0.073-0.938 2.884-1.608 2.65-3.063-0.086-0.533-0.725-0.804-1.516-0.818z" fill="#fff"/>
</svg>
