<?xml version="1.0" encoding="UTF-8"?>
<svg width="64" height="64" version="1.1" viewBox="0 0 16.933 16.933" xmlns="http://www.w3.org/2000/svg" xmlns:cc="http://creativecommons.org/ns#" xmlns:dc="http://purl.org/dc/elements/1.1/" xmlns:rdf="http://www.w3.org/1999/02/22-rdf-syntax-ns#">
 <metadata>
  <rdf:RDF>
   <cc:Work rdf:about="">
    <dc:format>image/svg+xml</dc:format>
    <dc:type rdf:resource="http://purl.org/dc/dcmitype/StillImage"/>
    <dc:title/>
   </cc:Work>
  </rdf:RDF>
 </metadata>
 <circle cx="-330.38" cy="-328.5" r="0" fill="#5e4aa6" stroke-width=".26458"/>
 <circle cx="8.4665" cy="8.6014" r="7.9376" opacity=".2" stroke-width=".14032"/>
 <circle cx="8.4665" cy="8.3316" r="7.9376" fill="#fafafa" stroke-width=".14032"/>
 <circle cx="-39.462" cy="6.3115" r="0" fill="#5e4aa6" fill-rule="evenodd" stroke-width=".26458"/>
 <path d="m8.4667 3.3258c-2.6365 0-5.0089 5.0082-5.2727 7.1171-0.32881 2.629 3.6907 3.1643 5.2727 3.1643 1.5813 0 5.6011-0.53528 5.2723-3.1643-0.2638-2.1089-2.6366-7.1171-5.2723-7.1171z" fill="#b36bff" stroke-linecap="round" stroke-width=".059315"/>
 <path d="m9.2555 11.65c0.72367-1.8104 0.86524-4.1506 0.34799-5.7688-0.13603-0.4255-0.19772-0.32664-0.43895 0.69994-0.36539 1.5494-1.2093 3.4119-1.9954 4.4053-0.2175 0.27365-0.37884 0.54809-0.35828 0.60899 0.068808 0.20721 0.93009 0.45318 1.6063 0.45872l0.67384 0.0055zm2.5182-2.8923c0-0.90795-0.34958-1.7605-0.95857-2.3411-0.27286-0.261-0.38596-0.32427-0.33376-0.19061 0.35353 0.90795 0.68017 2.186 0.78536 3.075l0.12654 1.0622 0.18982-0.43737c0.12892-0.29421 0.19061-0.67542 0.19061-1.1682zm-5.8455 0.39545c0.75531-0.56233 1.532-1.339 2.0152-2.0144 0.70073-0.98071 1.0448-1.7748 0.76875-1.7748-0.05299 0-0.39703 0.22382-0.76321 0.49826-0.36698 0.27365-1.0756 0.70864-1.5739 0.96647-0.89688 0.46346-0.90953 0.47533-1.0638 0.99178-0.22145 0.74423-0.19614 1.7028 0.04429 1.7028 0.041918 0 0.29975-0.16609 0.57261-0.37014z" fill="#fff" stroke-width=".7909"/>
</svg>
