<?xml version="1.0" encoding="UTF-8"?>
<svg width="64" height="64" version="1.1" viewBox="0 0 16.933 16.933" xmlns="http://www.w3.org/2000/svg" xmlns:cc="http://creativecommons.org/ns#" xmlns:dc="http://purl.org/dc/elements/1.1/" xmlns:rdf="http://www.w3.org/1999/02/22-rdf-syntax-ns#">
 <metadata>
  <rdf:RDF>
   <cc:Work rdf:about="">
    <dc:format>image/svg+xml</dc:format>
    <dc:type rdf:resource="http://purl.org/dc/dcmitype/StillImage"/>
    <dc:title/>
   </cc:Work>
  </rdf:RDF>
 </metadata>
 <defs>
  <linearGradient id="linearGradient11422" x1="-6.1472" x2="-6.1472" y1="-137.82" y2="-100.78" gradientTransform="matrix(.53032 0 0 .53032 11.51 71.862)" gradientUnits="userSpaceOnUse">
   <stop stop-color="#32b4ff" offset="0"/>
   <stop stop-color="#3287ff" offset="1"/>
  </linearGradient>
  <style type="text/css"/>
 </defs>
 <circle cx="-297.6" cy="-338.47" r="0" fill="#5e4aa6" stroke-width=".26458"/>
 <circle cx="8.4662" cy="8.6009" r="7.9376" opacity=".2" stroke-width=".14032"/>
 <circle cx="8.4668" cy="8.3321" r="7.9376" fill="url(#linearGradient11422)" style="paint-order:normal"/>
 <g transform="translate(32.763 -10.103)" fill="#5e4aa6" stroke-width=".26458">
  <circle cx="-299.02" cy="-338.77" r="0"/>
  <circle cx="-8.1062" cy="-3.9487" r="0" fill-rule="evenodd"/>
  <circle cx="-278.25" cy="-357.69" r="0"/>
  <circle cx="12.663" cy="-22.859" r="0" fill-rule="evenodd"/>
 </g>
 <path d="m8.6833 3.9707c-1.0325 0.032813 2.7486 5.0969-0.16297 4.7743 2.4282 0.65298 2.9838-2.391 2.4883-3.8796-0.49219-1.4744-0.74704-0.55454-2.2105-0.88157a0.46047 0.46047 0 0 0-0.11485-0.013125zm-2.8941 0.70548c-1.5958-0.0021876-0.77329 0.51844-1.5466 1.7697-0.73829 1.1944 5.833-0.94501 4.5774 1.7281 1.3891-2.041-1.4186-3.4957-3.0297-3.4979zm1.1233 2.286c-1.2764-0.0010936-2.5616 1.4066-2.9203 2.4763-0.49657 1.4733 0.26797 0.87501 1.2535 1.9753 0.94173 1.05 0.8772-5.6788 3.1063-3.6936-0.44079-0.53813-0.93954-0.75579-1.4394-0.75688zm5.5333 0.23953c-0.79298-0.060157-4.0415 4.0076-4.5774 1.4438 0.10938 2.4435 3.2627 2.0169 4.5676 1.0992 1.2928-0.91001 0.31282-0.86079 0.18047-2.3144-0.013125-0.15203-0.073283-0.22094-0.17063-0.22969zm-4.6813 0.80938c-2.3603 0.8586-0.96798 3.6379 0.33469 4.5588 1.2906 0.91329 0.94064 0.021874 2.3221-0.54688 1.3202-0.54579-5.2905-2.566-2.6578-4.0108z" fill="#fff" fill-rule="evenodd" stroke-width="1.0938"/>
</svg>
