<?xml version="1.0" encoding="UTF-8" standalone="no"?>
<svg
   xmlns:dc="http://purl.org/dc/elements/1.1/"
   xmlns:cc="http://creativecommons.org/ns#"
   xmlns:rdf="http://www.w3.org/1999/02/22-rdf-syntax-ns#"
   xmlns:svg="http://www.w3.org/2000/svg"
   xmlns="http://www.w3.org/2000/svg"
   xmlns:xlink="http://www.w3.org/1999/xlink"
   xmlns:sodipodi="http://sodipodi.sourceforge.net/DTD/sodipodi-0.dtd"
   xmlns:inkscape="http://www.inkscape.org/namespaces/inkscape"
   inkscape:version="1.0 (4035a4fb49, 2020-05-01)"
   sodipodi:docname="distributor-logo-fedora.svg"
   id="svg19"
   viewBox="0 0 16.933 16.933"
   version="1.1"
   height="64"
   width="64">
  <metadata
     id="metadata23">
    <rdf:RDF>
      <cc:Work
         rdf:about="">
        <dc:format>image/svg+xml</dc:format>
        <dc:type
           rdf:resource="http://purl.org/dc/dcmitype/StillImage" />
        <dc:title></dc:title>
      </cc:Work>
    </rdf:RDF>
  </metadata>
  <sodipodi:namedview
     inkscape:current-layer="svg19"
     inkscape:window-maximized="1"
     inkscape:window-y="36"
     inkscape:window-x="0"
     inkscape:cy="32.763022"
     inkscape:cx="31.079087"
     inkscape:zoom="4.391796"
     showgrid="false"
     id="namedview21"
     inkscape:window-height="964"
     inkscape:window-width="1920"
     inkscape:pageshadow="2"
     inkscape:pageopacity="0"
     guidetolerance="10"
     gridtolerance="10"
     objecttolerance="10"
     borderopacity="1"
     bordercolor="#666666"
     pagecolor="#ffffff" />
  <defs
     id="defs7">
    <linearGradient
       gradientUnits="userSpaceOnUse"
       y2="12.461"
       y1="57.955"
       x2="45.628"
       x1="45.628"
       id="b">
      <stop
         id="stop2"
         offset="0" />
      <stop
         id="stop4"
         offset="1"
         stop-opacity="0" />
    </linearGradient>
    <linearGradient
       id="linearGradient978"
       inkscape:collect="always">
      <stop
         id="stop974"
         offset="0"
         style="stop-color:#85b6ff;stop-opacity:1" />
      <stop
         id="stop976"
         offset="1"
         style="stop-color:#6083f1;stop-opacity:1" />
    </linearGradient>
    <linearGradient
       gradientUnits="userSpaceOnUse"
       gradientTransform="matrix(3.7796,0,0,3.7796,-85.593669,0)"
       y2="1.852"
       y1="15.081"
       x2="7.9373"
       x1="7.9373"
       id="linearGradient862-3">
      <stop
         id="stop2-3"
         offset="0"
         stop-color="#6083f1" />
      <stop
         id="stop4-6"
         offset="1"
         stop-color="#85b6ff" />
    </linearGradient>
    <filter
       color-interpolation-filters="sRGB"
       height="1.297"
       width="1.1697"
       y="-.1485"
       x="-.084859"
       id="filter981">
      <feGaussianBlur
         id="feGaussianBlur7"
         stdDeviation="1.237486" />
    </filter>
    <linearGradient
       id="e"
       x1="-2.4472"
       x2="-1.5753"
       y1="291.29"
       y2="291.29"
       gradientTransform="translate(-275.29,-367.68)"
       gradientUnits="userSpaceOnUse"
       xlink:href="#a" />
    <linearGradient
       id="a">
      <stop
         stop-color="#969692"
         offset="0"
         id="stop860" />
      <stop
         stop-color="#969692"
         stop-opacity="0"
         offset="1"
         id="stop862" />
    </linearGradient>
    <linearGradient
       id="d"
       x1="-2.4472"
       x2="-1.5753"
       y1="291.29"
       y2="291.29"
       gradientTransform="translate(-276.74,-368.07)"
       gradientUnits="userSpaceOnUse"
       xlink:href="#a" />
    <linearGradient
       id="c"
       x1="-2.4472"
       x2="-1.5753"
       y1="291.29"
       y2="291.29"
       gradientTransform="translate(-278.2,-368.46)"
       gradientUnits="userSpaceOnUse"
       xlink:href="#a" />
    <linearGradient
       id="b-7"
       x1="-2.4472"
       x2="-1.5753"
       y1="291.29"
       y2="291.29"
       gradientTransform="translate(-279.65,-368.85)"
       gradientUnits="userSpaceOnUse"
       xlink:href="#a" />
    <linearGradient
       id="f"
       x1="-6.1472"
       x2="-6.1472"
       y1="-137.82"
       y2="-100.78"
       gradientTransform="matrix(2.0044363,0,0,2.0044363,44.499631,260.80646)"
       gradientUnits="userSpaceOnUse">
      <stop
         stop-color="#14dc78"
         offset="0"
         id="stop868" />
      <stop
         stop-color="#14a03c"
         offset="1"
         id="stop870" />
    </linearGradient>
    <linearGradient
       gradientTransform="matrix(0.26457812,0,0,0.26457812,-21.474197,-10.695447)"
       gradientUnits="userSpaceOnUse"
       y2="101.83611"
       x2="142.47792"
       y1="42.611561"
       x1="83.328049"
       id="linearGradient980"
       xlink:href="#linearGradient978"
       inkscape:collect="always" />
  </defs>
  <circle
     cx="-330.37701"
     cy="-328.5105"
     r="0"
     fill="#5e4aa6"
     stroke-width="0.264581"
     id="circle875" />
  <circle
     cx="8.4665003"
     cy="8.6014948"
     r="7.9375"
     opacity="0.2"
     stroke-width="0.14032"
     id="circle877" />
  <circle
     style="fill:url(#linearGradient980);fill-opacity:1;stroke-width:0.608741;stroke-linecap:round"
     id="path972"
     cx="8.4665003"
     cy="8.3313494"
     r="7.9373436" />
  <circle
     cx="-39.460999"
     cy="6.3115163"
     r="0"
     fill="#5e4aa6"
     fill-rule="evenodd"
     stroke-width="0.264581"
     id="ellipse907" />
  <path
     style="stroke-width:1.09369"
     id="path959"
     fill="#ffffff"
     d="M 8.862331,3.8363721 A 4.6306747,4.6306747 0 0 0 4.23275,8.4637658 v 3.9143092 c 0,0.398102 0.3204506,0.718553 0.718553,0.718553 H 8.8645184 A 4.6301281,4.6301281 0 0 0 8.862331,3.8363721 Z m 1.395546,1.0149424 c 0.185927,0 0.318263,0.021874 0.489972,0.065621 0.251548,0.065621 0.456068,0.2723283 0.456068,0.5118459 0,0.2887337 -0.208894,0.4998154 -0.523877,0.4998154 -0.148741,0 -0.203426,-0.029529 -0.422163,-0.029529 -0.6463697,0 -1.1702462,0.5249702 -1.1713399,1.170246 v 1.0127551 c 0,0.09187 0.073277,0.1662405 0.1640532,0.1662405 H 10.02164 a 0.51676755,0.51676755 0 1 1 0,1.0335351 H 9.0865371 v 1.1822765 a 2.2201865,2.2201865 0 0 1 -2.2201865,2.220186 c -0.185927,0 -0.3182632,-0.02187 -0.4899722,-0.06672 -0.2515483,-0.06562 -0.4571616,-0.271234 -0.4571616,-0.510752 0,-0.289827 0.2099881,-0.499815 0.5249702,-0.499815 0.1487416,0 0.203426,0.02844 0.4221636,0.02844 0.6463695,0 1.170246,-0.523877 1.1713397,-1.170246 V 9.4480849 A 0.16514688,0.16514688 0 0 0 7.8725435,9.2818443 H 7.1025871 a 0.51677479,0.51677479 0 1 1 0.00547,-1.0335351 H 8.0376903 V 7.071501 A 2.2201865,2.2201865 0 0 1 10.257877,4.8513145 Z" />
</svg>
