<?xml version="1.0" encoding="UTF-8" standalone="no"?>
<svg
   xmlns:dc="http://purl.org/dc/elements/1.1/"
   xmlns:cc="http://creativecommons.org/ns#"
   xmlns:rdf="http://www.w3.org/1999/02/22-rdf-syntax-ns#"
   xmlns:svg="http://www.w3.org/2000/svg"
   xmlns="http://www.w3.org/2000/svg"
   xmlns:sodipodi="http://sodipodi.sourceforge.net/DTD/sodipodi-0.dtd"
   xmlns:inkscape="http://www.inkscape.org/namespaces/inkscape"
   width="64"
   height="64"
   version="1.1"
   viewBox="0 0 16.933 16.933"
   id="svg17"
   sodipodi:docname="distributor-logo-ubuntu-budgie.svg"
   inkscape:version="1.0.1 (3bc2e813f5, 2020-09-07)">
  <metadata
     id="metadata21">
    <rdf:RDF>
      <cc:Work
         rdf:about="">
        <dc:format>image/svg+xml</dc:format>
        <dc:type
           rdf:resource="http://purl.org/dc/dcmitype/StillImage" />
        <dc:title></dc:title>
      </cc:Work>
    </rdf:RDF>
  </metadata>
  <sodipodi:namedview
     pagecolor="#ffffff"
     bordercolor="#666666"
     borderopacity="1"
     objecttolerance="10"
     gridtolerance="10"
     guidetolerance="10"
     inkscape:pageopacity="0"
     inkscape:pageshadow="2"
     inkscape:window-width="1920"
     inkscape:window-height="932"
     id="namedview19"
     showgrid="false"
     inkscape:zoom="5.9765625"
     inkscape:cx="48.821871"
     inkscape:cy="37.436721"
     inkscape:window-x="0"
     inkscape:window-y="36"
     inkscape:window-maximized="1"
     inkscape:current-layer="svg17" />
  <defs
     id="defs7">
    <linearGradient
       id="b"
       x1="45.628"
       x2="45.628"
       y1="57.955"
       y2="12.461"
       gradientTransform="matrix(0.26458,0,0,0.26458,0,280.07)"
       gradientUnits="userSpaceOnUse">
      <stop
         offset="0"
         id="stop2" />
      <stop
         stop-opacity="0"
         offset="1"
         id="stop4" />
    </linearGradient>
    <radialGradient
       id="a"
       cx="512.01"
       cy="512.01"
       r="470.16"
       gradientTransform="matrix(0.01519419,0,0,0.01519419,0.68695063,0.68695063)"
       gradientUnits="userSpaceOnUse">
      <stop
         stop-opacity="0"
         offset="0"
         id="stop848" />
      <stop
         stop-opacity=".52593"
         offset="1"
         id="stop850" />
    </radialGradient>
  </defs>
  <g
     fill="#5e4aa6"
     id="g863"
     style="image-rendering:optimizeSpeed"
     transform="scale(0.26457812)">
    <circle
       cx="-1248.7"
       cy="-1241.6"
       r="0"
       id="circle855" />
    <circle
       cx="-149.14999"
       cy="23.855"
       r="0"
       fill-rule="evenodd"
       id="circle857" />
    <circle
       cx="-1248.7"
       cy="-1241.6"
       r="0"
       id="circle859" />
    <circle
       cx="-149.14999"
       cy="23.855"
       r="0"
       fill-rule="evenodd"
       id="circle861" />
  </g>
  <circle
     cx="8.4665003"
     cy="8.6014347"
     r="7.9376082"
     opacity="0.2"
     stroke-width="0.140319"
     id="circle865"
     style="image-rendering:optimizeSpeed" />
  <circle
     cx="8.4665003"
     cy="8.3315649"
     r="7.9376082"
     fill="#fafafa"
     stroke-width="0.140319"
     id="circle867"
     style="image-rendering:optimizeSpeed" />
  <circle
     cx="8.4665003"
     cy="8.4665003"
     r="7.143609"
     color="#000000"
     enable-background="accumulate"
     fill="#666666"
     stroke-width="0.598052"
     id="circle869"
     style="image-rendering:optimizeSpeed" />
  <circle
     cx="8.4665003"
     cy="8.4665003"
     r="7.143609"
     color="#000000"
     enable-background="accumulate"
     fill="url(#a)"
     stroke-width="0.598052"
     id="circle871"
     style="fill:url(#a);image-rendering:optimizeSpeed" />
  <path
     d="M 8.467,4.233 A 4.233,4.233 0 0 0 4.233,8.467 4.233,4.233 0 0 0 8.467,12.7 4.233,4.233 0 0 0 12.7,8.467 4.233,4.233 0 0 0 8.467,4.233 Z m 1.132,0.99 c 0.12,-0.002 0.219,0.012 0.337,0.031 0.432,0.07 0.848,0.347 1.112,0.805 0.357,0.618 0.273,1.4 -0.126,1.83 -0.217,0.2 -0.263,0.215 -0.397,0.306 C 10.617,8.051 10.633,8.023 10.655,7.89 10.65,7.816 10.652,7.785 10.613,7.685 A 0.536,0.536 0 0 0 10.373,7.426 0.866,0.866 0 0 0 10,7.352 C 9.925,7.352 9.879,7.35 9.778,7.365 9.314,7.493 8.794,7.315 8.55,6.891 8.258,6.385 8.47,5.714 8.994,5.412 A 1.25,1.25 0 0 1 9.471,5.233 C 9.517,5.227 9.559,5.225 9.599,5.223 Z M 6.52,6.602 C 6.595,6.604 6.668,6.614 6.74,6.631 7.021,6.718 7.057,6.75 7.203,6.821 7.033,6.814 7,6.813 6.874,6.861 6.812,6.902 6.784,6.916 6.718,7 A 0.536,0.536 0 0 0 6.613,7.337 0.866,0.866 0 0 0 6.735,7.697 C 6.773,7.762 6.794,7.803 6.858,7.882 7.201,8.221 7.306,8.76 7.061,9.183 6.769,9.69 6.081,9.84 5.558,9.538 A 1.25,1.25 0 0 1 5.165,9.214 1.508,1.508 0 0 1 4.95,8.8 C 4.794,8.392 4.826,7.893 5.09,7.435 5.403,6.894 5.993,6.582 6.519,6.601 Z m 3.27,2.725 c 0.585,0 1.059,0.52 1.059,1.125 0,0.178 -0.017,0.346 -0.084,0.502 -0.073,0.17 -0.15,0.268 -0.25,0.392 -0.276,0.34 -0.725,0.561 -1.254,0.561 -0.713,0 -1.35,-0.464 -1.521,-1.025 -0.065,-0.287 -0.055,-0.334 -0.066,-0.496 0.079,0.152 0.094,0.18 0.198,0.264 0.067,0.034 0.093,0.05 0.199,0.067 a 0.54,0.54 0 0 0 0.344,-0.079 0.863,0.863 0 0 0 0.251,-0.285 c 0.037,-0.065 0.063,-0.104 0.1,-0.199 0.12,-0.466 0.536,-0.826 1.025,-0.826 z"
     fill="#ffffff"
     id="path911" />
</svg>
