<?xml version="1.0" encoding="UTF-8" standalone="no"?>
<svg
   xmlns:dc="http://purl.org/dc/elements/1.1/"
   xmlns:cc="http://creativecommons.org/ns#"
   xmlns:rdf="http://www.w3.org/1999/02/22-rdf-syntax-ns#"
   xmlns:svg="http://www.w3.org/2000/svg"
   xmlns="http://www.w3.org/2000/svg"
   xmlns:sodipodi="http://sodipodi.sourceforge.net/DTD/sodipodi-0.dtd"
   xmlns:inkscape="http://www.inkscape.org/namespaces/inkscape"
   inkscape:version="1.0 (4035a4fb49, 2020-05-01)"
   sodipodi:docname="distributor-logo-gentoo.svg"
   id="svg19"
   viewBox="0 0 16.933 16.933"
   version="1.1"
   height="64"
   width="64">
  <metadata
     id="metadata23">
    <rdf:RDF>
      <cc:Work
         rdf:about="">
        <dc:format>image/svg+xml</dc:format>
        <dc:type
           rdf:resource="http://purl.org/dc/dcmitype/StillImage" />
        <dc:title></dc:title>
      </cc:Work>
    </rdf:RDF>
  </metadata>
  <sodipodi:namedview
     inkscape:current-layer="svg19"
     inkscape:window-maximized="1"
     inkscape:window-y="36"
     inkscape:window-x="0"
     inkscape:cy="22.575278"
     inkscape:cx="47.842964"
     inkscape:zoom="4.391796"
     showgrid="false"
     id="namedview21"
     inkscape:window-height="964"
     inkscape:window-width="1920"
     inkscape:pageshadow="2"
     inkscape:pageopacity="0"
     guidetolerance="10"
     gridtolerance="10"
     objecttolerance="10"
     borderopacity="1"
     bordercolor="#666666"
     pagecolor="#ffffff" />
  <defs
     id="defs7">
    <linearGradient
       gradientUnits="userSpaceOnUse"
       y2="12.461"
       y1="57.955"
       x2="45.628"
       x1="45.628"
       id="b">
      <stop
         id="stop2"
         offset="0" />
      <stop
         id="stop4"
         offset="1"
         stop-opacity="0" />
    </linearGradient>
    <linearGradient
       id="a"
       x1="-6.1472"
       x2="-6.1472"
       y1="-140.25"
       y2="-98.292"
       gradientTransform="matrix(0.53033,0,0,0.53033,11.509,71.86151)"
       gradientUnits="userSpaceOnUse">
      <stop
         stop-color="#ff3c69"
         offset="0"
         id="stop848" />
      <stop
         stop-color="#ff462b"
         offset="1"
         id="stop850" />
    </linearGradient>
  </defs>
  <circle
     id="circle855"
     stroke-width="0.26458"
     fill="#5e4aa6"
     r="0"
     cy="-328.5105"
     cx="-330.37701" />
  <circle
     id="ellipse857"
     stroke-width="0.26458"
     fill-rule="evenodd"
     fill="#5e4aa6"
     r="0"
     cy="6.3115196"
     cx="-39.460999" />
  <circle
     id="circle859"
     stroke-width="0.14032"
     opacity="0.2"
     r="7.9375"
     cy="8.6014977"
     cx="8.4665003" />
  <circle
     id="circle861"
     stroke-width="0.14032"
     fill="url(#a)"
     r="7.9375"
     cy="8.3315086"
     cx="8.4665003"
     style="fill:url(#a)" />
  <path
     style="stroke-width:1.09371"
     id="path895"
     fill-rule="evenodd"
     fill="#ffffff"
     d="M 7.509666,3.8393041 C 5.5212933,3.9333636 3.9649377,5.7368986 4.0447788,6.7168667 4.1213388,7.6716793 6.5395413,8.5094646 6.5111048,8.5379011 6.0167459,8.9557 5.690819,9.2378783 5.2773949,9.6152096 4.2843023,10.522993 3.5985434,11.195627 3.9463445,12.140596 4.3477377,13.229936 5.2259904,13.185094 6.2562693,12.982757 8.9161827,12.457774 13.292134,9.093508 13.07011,7.8532359 12.889647,6.8481124 10.443008,4.8630208 8.9971176,4.1521064 A 3.0602129,3.0602129 0 0 0 7.509666,3.8393041 Z m 0.4112366,1.7226002 c 0.2482732,-0.022968 0.5381075,0.039374 0.8607532,0.1968686 0.7054458,0.3401451 1.4360472,1.2457407 0,1.7608801 C 8.3911998,7.6596485 7.1388968,7.182789 7.1771768,6.5210918 7.211082,5.9107992 7.5052912,5.601278 7.9209026,5.5619043 Z" />
</svg>
