<?xml version="1.0" encoding="UTF-8" standalone="no"?>
<svg
   xmlns:dc="http://purl.org/dc/elements/1.1/"
   xmlns:cc="http://creativecommons.org/ns#"
   xmlns:rdf="http://www.w3.org/1999/02/22-rdf-syntax-ns#"
   xmlns:svg="http://www.w3.org/2000/svg"
   xmlns="http://www.w3.org/2000/svg"
   xmlns:sodipodi="http://sodipodi.sourceforge.net/DTD/sodipodi-0.dtd"
   xmlns:inkscape="http://www.inkscape.org/namespaces/inkscape"
   inkscape:version="1.0 (4035a4fb49, 2020-05-01)"
   sodipodi:docname="distributor-logo-kali.svg"
   id="svg17"
   viewBox="0 0 16.933 16.933"
   version="1.1"
   height="64"
   width="64">
  <metadata
     id="metadata21">
    <rdf:RDF>
      <cc:Work
         rdf:about="">
        <dc:format>image/svg+xml</dc:format>
        <dc:type
           rdf:resource="http://purl.org/dc/dcmitype/StillImage" />
        <dc:title></dc:title>
      </cc:Work>
    </rdf:RDF>
  </metadata>
  <sodipodi:namedview
     inkscape:current-layer="svg17"
     inkscape:window-maximized="1"
     inkscape:window-y="36"
     inkscape:window-x="0"
     inkscape:cy="38.478128"
     inkscape:cx="53.860488"
     inkscape:zoom="6.2109375"
     showgrid="false"
     id="namedview19"
     inkscape:window-height="964"
     inkscape:window-width="1920"
     inkscape:pageshadow="2"
     inkscape:pageopacity="0"
     guidetolerance="10"
     gridtolerance="10"
     objecttolerance="10"
     borderopacity="1"
     bordercolor="#666666"
     pagecolor="#ffffff" />
  <defs
     id="defs7">
    <linearGradient
       gradientUnits="userSpaceOnUse"
       gradientTransform="matrix(0.26458,0,0,0.26458,0,280.07)"
       y2="12.461"
       y1="57.955"
       x2="45.628"
       x1="45.628"
       id="a">
      <stop
         id="stop2"
         offset="0" />
      <stop
         id="stop4"
         offset="1"
         stop-opacity="0" />
    </linearGradient>
    <linearGradient
       id="a-3"
       x1="-6.1472"
       x2="-6.1472"
       y1="-137.82"
       y2="-100.78"
       gradientTransform="matrix(0.53033,0,0,0.53033,11.508935,71.863837)"
       gradientUnits="userSpaceOnUse">
      <stop
         stop-color="#32b4ff"
         offset="0"
         id="stop848" />
      <stop
         stop-color="#3287ff"
         offset="1"
         id="stop850" />
    </linearGradient>
  </defs>
  <g
     id="g861"
     stroke-width="1.5715"
     opacity="0.25"
     transform="matrix(0.26458,0,0,0.26458,-0.0053516,0.12039712)">
    <circle
       id="circle855"
       r="30.000999"
       cy="32.043999"
       cx="32.02" />
    <circle
       id="circle857"
       fill-opacity="0"
       r="30.000999"
       cy="32.043999"
       cx="32.02" />
    <circle
       id="circle859"
       r="0"
       cy="32.043999"
       cx="32.02" />
  </g>
  <circle
     id="circle863"
     style="fill:url(#a-3);paint-order:normal"
     fill="url(#a-3)"
     r="7.9375"
     cy="8.3342371"
     cx="8.4663353" />
  <circle
     id="circle869"
     stroke-width="0.26458"
     fill="#5e4aa6"
     r="0"
     cy="-318.95218"
     cx="-308.78006" />
  <circle
     id="circle871"
     stroke-width="0.26458"
     fill-rule="evenodd"
     fill="#5e4aa6"
     r="0"
     cy="15.865837"
     cx="-17.864065" />
  <path
     d="m 7.818,3.7669999 c 0.224,0.599 0.49,1.281 0.887,1.8 -0.437,-0.216 -0.923,-0.36 -1.303,-0.668 0.047,0.12 0.03,0.249 0.026,0.35 a 5.317,5.317 0 0 1 -0.952,-0.377 c 0.08,0.15 0.093,0.31 0.073,0.45 -0.326,0.03 -0.679,-0.072 -0.98,-0.126 0.138,0.125 0.203,0.29 0.259,0.456 -0.322,0.056 -0.654,0.115 -0.98,0.146 0.138,0.093 0.24,0.228 0.319,0.357 -0.253,0.212 -0.573,0.403 -0.834,0.563 a 0.638,0.638 0 0 1 0.463,0.125 9.444,9.444 0 0 1 -0.563,0.88 c 0.164,-0.039 0.312,-0.073 0.49,-0.073 -0.062,0.352 -0.106,0.7200001 -0.238,1.052 0.147,-0.107 0.306,-0.1609999 0.47,-0.218 0.157,0.267 0.173,0.703 0.231,0.9380001 A 0.498,0.498 0 0 1 5.444,9.1319999 C 7.224,10.88 10.154,10.574 10.411,13.166 10.491,12.156 10.013,11.442 9.459,10.951 8.999,10.543 6.904,9.573 6.806,9.509 5.005,8.315 5.248,6.7019999 6.516,6.2939999 a 2.727,2.727 0 0 1 3.015,0.946 c 0.176,0.223 0.427,0.631 0.662,0.8070001 0.445,0.334 2.036,1.1089999 1.409,2.03 C 12.147,9.937 12.563,9.5470001 12.7,9 12.273,8.817 11.63,8.4299999 11.681,7.8879999 11.743,7.862 11.811,7.868 11.88,7.868 10.444,5.368 10.061,6.238 8.619,3.913 8.799,4.557 9.191,5.3509999 9.663,5.7919999 8.88,5.322 8.372,4.479 7.818,3.7669999 Z m 2.95,3.155 c 0.163,0.227 0.3,0.48 0.496,0.675 -0.19,-0.066 -0.945,-0.563 -0.496,-0.675 z"
     fill="#ffffff"
     id="path900" />
</svg>
