<?xml version="1.0" encoding="UTF-8" standalone="no"?>
<svg
   xmlns:dc="http://purl.org/dc/elements/1.1/"
   xmlns:cc="http://creativecommons.org/ns#"
   xmlns:rdf="http://www.w3.org/1999/02/22-rdf-syntax-ns#"
   xmlns:svg="http://www.w3.org/2000/svg"
   xmlns="http://www.w3.org/2000/svg"
   xmlns:sodipodi="http://sodipodi.sourceforge.net/DTD/sodipodi-0.dtd"
   xmlns:inkscape="http://www.inkscape.org/namespaces/inkscape"
   width="64"
   height="64"
   version="1.1"
   viewBox="0 0 16.933 16.933"
   id="svg21"
   sodipodi:docname="distributor-logo-rhel.svg"
   inkscape:version="1.0.1 (3bc2e813f5, 2020-09-07)">
  <metadata
     id="metadata25">
    <rdf:RDF>
      <cc:Work
         rdf:about="">
        <dc:format>image/svg+xml</dc:format>
        <dc:type
           rdf:resource="http://purl.org/dc/dcmitype/StillImage" />
        <dc:title></dc:title>
      </cc:Work>
    </rdf:RDF>
  </metadata>
  <sodipodi:namedview
     pagecolor="#ffffff"
     bordercolor="#666666"
     borderopacity="1"
     objecttolerance="10"
     gridtolerance="10"
     guidetolerance="10"
     inkscape:pageopacity="0"
     inkscape:pageshadow="2"
     inkscape:window-width="1920"
     inkscape:window-height="932"
     id="namedview23"
     showgrid="false"
     inkscape:zoom="5.9765625"
     inkscape:cx="-12.61419"
     inkscape:cy="24.065853"
     inkscape:window-x="0"
     inkscape:window-y="36"
     inkscape:window-maximized="1"
     inkscape:current-layer="svg21" />
  <defs
     id="defs7">
    <linearGradient
       id="a"
       x1="45.628"
       x2="45.628"
       y1="57.955"
       y2="12.461"
       gradientTransform="matrix(0.26458,0,0,0.26458,0,280.07)"
       gradientUnits="userSpaceOnUse">
      <stop
         offset="0"
         id="stop2" />
      <stop
         stop-opacity="0"
         offset="1"
         id="stop4" />
    </linearGradient>
  </defs>
  <g
     id="g886"
     transform="translate(19.578089,3.0213785)">
    <circle
       cx="-11.111589"
       cy="5.5767488"
       r="7.9373436"
       color="#000000"
       opacity="0.15"
       id="circle852"
       style="stroke-width:0.264578" />
    <circle
       cx="-11.111589"
       cy="5.3134942"
       r="7.9373436"
       color="#000000"
       fill="#fafafa"
       id="circle854"
       style="stroke-width:0.264578" />
  </g>
  <g
     stroke-width=".833"
     id="g19">
    <path
       d="M8.467 3.699a4.76 4.76 0 0 0-4.763 4.763c0 .518.089 1.033.257 1.524.51-.007.888-.077 1.153-.206.458-.224.548.5.97.466.476-.04.017-.352-.16-.561-.23-.27-.314-.753.192-.798.384-.033.613.654.743.562.338-.238.51.269.76.46.33.253.77.314 1.124.16.359-.156.522.15.948-.03.315-.132.326.196.925-.046-.017.283-.118.557-.172.822-.065.317-.58 1.006-.84 1.314.294-.071.531-.174.57-.247.302-.563.812-.328.814-.659 0-.221.56-.221.654-.221.171 0 .524.002.815.051A4.756 4.756 0 0 0 8.467 3.7zm1.03 6.91c-.061.129-.23.243-.338.133-.12-.123-.468-.136-.45.061.014.15.075.001.247.125.258.186.743.067.54-.317zm3.574.075a.159.159 0 1 0 0 .318.159.159 0 0 0 0-.318zm0 .032a.127.127 0 1 1 0 .254.127.127 0 0 1 0-.254zm-.063.047v.16h.029v-.063h.026l.038.062h.033l-.04-.066c.024-.009.036-.023.036-.046 0-.031-.023-.047-.068-.047zm.029.026h.021c.022 0 .042.003.042.023 0 .021-.023.022-.049.022h-.014v-.045z"
       fill="#2c2c2c"
       id="path15" />
    <path
       d="M11.083 7.191c-.017.204-.294.565-.427.44.276-.36.16-.838.012-1.229-.204-.538-.36-1.146-.796-1.534-.402-.359-.989-.173-1.469-.054-.512.128-1.096-.302-1.567.025-.39.271-.331.818-.463 1.237-.137.43.341.715.695.837.45.155.986.105 1.364.41.208.17.352.51.352.828-.952 0-1.924-.386-2.526-.973-.202-.203.054-.615-.396-.615-.38 0-.757-.02-1.037.213-.286.238-.173.695.083.943.834.812 1.888 1.338 2.97 1.694 1.124.37 2.4.493 3.509.003.507-.225.994-.762.871-1.355-.11-.535-.7-.76-1.175-.87zM8.616 5.057c.303-.203.841-.304 1.075-.025.276.33-.469.5-.7.333.13-.032.407-.287.09-.317-.163-.02-.328 0-.465.01zm-.575.895c-.383-.043-.718.401-1.076.046-.205-.203-.177-.68.158-.413.333.265.912-.198 1.16.196.092.144-.122.185-.242.171z"
       fill="#f03030"
       id="path17" />
  </g>
</svg>
