<?xml version="1.0" encoding="UTF-8" standalone="no"?>
<svg
   xmlns:dc="http://purl.org/dc/elements/1.1/"
   xmlns:cc="http://creativecommons.org/ns#"
   xmlns:rdf="http://www.w3.org/1999/02/22-rdf-syntax-ns#"
   xmlns:svg="http://www.w3.org/2000/svg"
   xmlns="http://www.w3.org/2000/svg"
   xmlns:sodipodi="http://sodipodi.sourceforge.net/DTD/sodipodi-0.dtd"
   xmlns:inkscape="http://www.inkscape.org/namespaces/inkscape"
   width="64"
   height="64"
   version="1.1"
   viewBox="0 0 16.933 16.933"
   id="svg19"
   sodipodi:docname="distributor-logo-deepin.svg"
   inkscape:version="1.0.1 (3bc2e813f5, 2020-09-07)">
  <metadata
     id="metadata23">
    <rdf:RDF>
      <cc:Work
         rdf:about="">
        <dc:format>image/svg+xml</dc:format>
        <dc:type
           rdf:resource="http://purl.org/dc/dcmitype/StillImage" />
        <dc:title></dc:title>
      </cc:Work>
    </rdf:RDF>
  </metadata>
  <sodipodi:namedview
     pagecolor="#ffffff"
     bordercolor="#666666"
     borderopacity="1"
     objecttolerance="10"
     gridtolerance="10"
     guidetolerance="10"
     inkscape:pageopacity="0"
     inkscape:pageshadow="2"
     inkscape:window-width="1920"
     inkscape:window-height="932"
     id="namedview21"
     showgrid="false"
     inkscape:zoom="5.9765625"
     inkscape:cx="-19.690994"
     inkscape:cy="28.116987"
     inkscape:window-x="0"
     inkscape:window-y="36"
     inkscape:window-maximized="1"
     inkscape:current-layer="svg19" />
  <defs
     id="defs7">
    <linearGradient
       id="b"
       x1="45.628"
       x2="45.628"
       y1="57.955"
       y2="12.461"
       gradientUnits="userSpaceOnUse">
      <stop
         offset="0"
         id="stop2" />
      <stop
         stop-opacity="0"
         offset="1"
         id="stop4" />
    </linearGradient>
    <linearGradient
       id="linearGradient11422"
       x1="-6.1472"
       x2="-6.1472"
       y1="-137.82"
       y2="-100.78"
       gradientTransform="matrix(0.53032038,0,0,0.53032038,-9.423078,65.618678)"
       gradientUnits="userSpaceOnUse">
      <stop
         stop-color="#32b4ff"
         offset="0"
         id="stop850" />
      <stop
         stop-color="#3287ff"
         offset="1"
         id="stop852" />
    </linearGradient>
    <style
       type="text/css"
       id="style855" />
  </defs>
  <g
     id="g943"
     transform="translate(20.93302,6.243385)">
    <circle
       cx="-12.466784"
       cy="2.3575206"
       r="7.9376082"
       opacity="0.2"
       stroke-width="0.140319"
       id="circle861" />
    <circle
       cx="-12.466256"
       cy="2.0887094"
       r="7.9376082"
       fill="url(#linearGradient11422)"
       stroke-width="0.999999"
       style="fill:url(#linearGradient11422);paint-order:normal"
       id="circle863" />
  </g>
  <path
     d="M 8.2,4.764 C 7.749,4.774 7.78,4.855 7.589,5.244 7.281,5.868 7.066,6.774 7.11,7.309 7.157,7.88 7.31,8.253 7.607,8.531 7.962,8.869 8.397,8.825 8.763,8.432 9.092,8.079 9.213,7.712 9.243,6.912 9.26,6.406 9.27,6.345 9.308,6.432 9.454,6.769 9.492,7.56 9.391,7.952 9.307,8.277 9.097,8.673 8.928,8.829 8.705,9.034 8.465,9.127 8.135,9.142 7.913,9.152 7.826,9.149 7.655,9.093 7.217,8.947 6.676,8.529 6.366,8.118 5.925,7.535 5.486,6.35 5.374,5.408 A 1.904,1.904 0 0 0 5.309,5.045 C 5.23,4.955 4.926,5.333 4.83,5.64 4.768,5.837 4.764,5.93 4.764,7.673 v 1.835 l 0.083,0.05 C 4.964,9.633 5.474,9.786 5.89,9.871 6.206,9.936 6.333,9.954 7.08,9.954 7.827,9.954 7.967,9.934 8.254,9.871 8.722,9.768 9.071,9.601 9.362,9.309 9.771,8.899 9.922,8.483 9.924,7.839 9.924,7.41 9.864,7.068 9.691,6.73 9.63,6.607 9.569,6.506 9.575,6.499 9.614,6.46 10.041,6.97 10.138,7.176 c 0.612,1.295 0.32,2.351 -0.943,3.404 -0.56,0.467 -1.528,1.108 -2.083,1.388 -0.194,0.097 -0.23,0.134 -0.182,0.182 0.012,0.012 0.978,0.022 2.148,0.016 l 2.133,-0.016 0.182,-0.083 c 0.368,-0.176 0.6,-0.436 0.71,-0.794 0.064,-0.204 0.066,-0.297 0.066,-2.809 0,-2.639 -0.004,-2.866 -0.115,-2.909 -0.026,-0.009 -0.275,0.019 -0.547,0.065 -0.3,0.054 -0.724,0.097 -1.09,0.117 C 9.777,5.77 9.455,5.832 9.077,5.985 8.727,6.128 8.524,6.243 8.333,6.398 8.163,6.538 8.139,6.556 8.085,6.779 8.009,7.086 7.962,7.223 7.836,7.39 7.742,7.512 7.651,7.572 7.652,7.506 7.657,7.388 7.764,7.018 7.868,6.811 8.175,6.201 8.575,5.764 9.356,5.175 9.596,4.992 9.802,4.835 9.802,4.81 c 0,-0.036 -0.174,-0.05 -0.96,-0.05 -0.28,0 -0.494,-0.002 -0.644,0 m 0.644,1.556 c 0.05,0 0.051,0.05 -0.016,0.546 C 8.754,7.384 8.566,7.802 8.329,8.052 8.162,8.229 7.981,8.276 7.851,8.183 A 0.53,0.53 0 0 1 7.686,7.87 c 0,-0.042 0.015,-0.044 0.065,-0.016 0.1,0.053 0.142,0.041 0.265,-0.066 0.205,-0.181 0.42,-0.7 0.53,-1.29 0.011,-0.068 0.2,-0.184 0.296,-0.184 m 0,0"
     fill="#ffffff"
     id="path15" />
  <circle
     cx="-318.53049"
     cy="-344.7182"
     r="0"
     fill="#5e4aa6"
     id="circle859"
     style="stroke-width:0.264578" />
  <g
     transform="translate(11.829689,-16.346036)"
     fill="#5e4aa6"
     stroke-width="0.26458"
     id="g873">
    <circle
       cx="-299.01999"
       cy="-338.76999"
       r="0"
       id="circle865" />
    <circle
       cx="-8.1062002"
       cy="-3.9487"
       r="0"
       fill-rule="evenodd"
       id="circle867" />
    <circle
       cx="-278.25"
       cy="-357.69"
       r="0"
       id="circle869" />
    <circle
       cx="12.663"
       cy="-22.858999"
       r="0"
       fill-rule="evenodd"
       id="circle871" />
  </g>
</svg>
