<?xml version="1.0" encoding="UTF-8" standalone="no"?>
<svg
   xmlns:dc="http://purl.org/dc/elements/1.1/"
   xmlns:cc="http://creativecommons.org/ns#"
   xmlns:rdf="http://www.w3.org/1999/02/22-rdf-syntax-ns#"
   xmlns:svg="http://www.w3.org/2000/svg"
   xmlns="http://www.w3.org/2000/svg"
   xmlns:sodipodi="http://sodipodi.sourceforge.net/DTD/sodipodi-0.dtd"
   xmlns:inkscape="http://www.inkscape.org/namespaces/inkscape"
   inkscape:version="1.0 (4035a4fb49, 2020-05-01)"
   sodipodi:docname="distributor-logo-elementary.svg"
   id="svg19"
   viewBox="0 0 16.933 16.933"
   version="1.1"
   height="64"
   width="64">
  <metadata
     id="metadata23">
    <rdf:RDF>
      <cc:Work
         rdf:about="">
        <dc:format>image/svg+xml</dc:format>
        <dc:type
           rdf:resource="http://purl.org/dc/dcmitype/StillImage" />
        <dc:title></dc:title>
      </cc:Work>
    </rdf:RDF>
  </metadata>
  <sodipodi:namedview
     inkscape:current-layer="svg19"
     inkscape:window-maximized="1"
     inkscape:window-y="36"
     inkscape:window-x="0"
     inkscape:cy="31.536854"
     inkscape:cx="70.458162"
     inkscape:zoom="6.2109375"
     showgrid="false"
     id="namedview21"
     inkscape:window-height="964"
     inkscape:window-width="1920"
     inkscape:pageshadow="2"
     inkscape:pageopacity="0"
     guidetolerance="10"
     gridtolerance="10"
     objecttolerance="10"
     borderopacity="1"
     bordercolor="#666666"
     pagecolor="#ffffff" />
  <defs
     id="defs7">
    <linearGradient
       gradientUnits="userSpaceOnUse"
       y2="12.461"
       y1="57.955"
       x2="45.628"
       x1="45.628"
       id="b">
      <stop
         id="stop2"
         offset="0" />
      <stop
         id="stop4"
         offset="1"
         stop-opacity="0" />
    </linearGradient>
    <linearGradient
       id="b-3"
       x1="399.57"
       x2="399.57"
       y1="545.8"
       y2="517.8"
       gradientTransform="matrix(0.56696445,0,0,0.56696445,-218.63929,-293.15252)"
       gradientUnits="userSpaceOnUse">
      <stop
         stop-color="#3889e9"
         offset="0"
         id="stop850" />
      <stop
         stop-color="#5ea5fb"
         offset="1"
         id="stop852" />
    </linearGradient>
    <linearGradient
       id="linearGradient1001"
       x1="32.431"
       x2="32.431"
       y1="61.873"
       y2="1.6692"
       gradientTransform="matrix(0.26457812,0,0,0.26457812,-30.42106,2.4233434e-5)"
       gradientUnits="userSpaceOnUse">
      <stop
         stop-color="#1d2123"
         offset="0"
         id="stop855" />
      <stop
         stop-color="#33393e"
         offset="1"
         id="stop857" />
    </linearGradient>
  </defs>
  <g
     id="g884"
     stroke-width="0.26458"
     fill="#5e4aa6"
     transform="translate(1.3258376e-4,1.1081785e-5)">
    <circle
       id="circle862"
       image-rendering="optimizeSpeed"
       r="0"
       cy="-328.37"
       cx="-330.35001" />
    <circle
       id="circle864"
       image-rendering="optimizeSpeed"
       r="0"
       cy="-328.38"
       cx="-330.35001" />
    <circle
       id="circle866"
       image-rendering="optimizeSpeed"
       r="0"
       cy="-328.38"
       cx="-330.35001" />
    <circle
       id="circle868"
       image-rendering="optimizeSpeed"
       r="0"
       cy="-336.84"
       cx="-352.63" />
    <circle
       id="circle870"
       image-rendering="optimizeSpeed"
       r="0"
       cy="-328.37"
       cx="-330.35001" />
    <circle
       id="circle872"
       image-rendering="optimizeSpeed"
       r="0"
       cy="-328.26999"
       cx="-305.84" />
    <circle
       id="circle874"
       image-rendering="optimizeSpeed"
       r="0"
       cy="-328.28"
       cx="-305.84" />
    <circle
       id="circle876"
       image-rendering="optimizeSpeed"
       r="0"
       cy="-328.28"
       cx="-305.84" />
    <circle
       id="circle878"
       image-rendering="optimizeSpeed"
       r="0"
       cy="-336.73999"
       cx="-328.12" />
    <circle
       id="circle880"
       image-rendering="optimizeSpeed"
       r="0"
       cy="-328.26999"
       cx="-305.84" />
    <circle
       id="circle882"
       r="0"
       cy="-328.69"
       cx="-305.03" />
  </g>
  <path
     id="path886"
     stroke-width="0.263851"
     opacity="0.2"
     d="M 13.292008,2.3000981 Q 12.270816,1.5136397 11.057911,1.0947861 9.8044982,0.6615923 8.4645159,0.6615923 c -4.3840595,0 -7.93813735,3.5538133 -7.93813735,7.9376082 0,4.0104755 2.97518095,7.3245805 6.83802155,7.8603515 0.1884193,0.02607 0.3793785,0.04626 0.5711448,0.05804 0.1749602,0.01093 0.3507776,0.0185 0.5291033,0.0185 4.3832658,0 7.9365498,-3.553814 7.9365498,-7.9370794 0,-0.3465444 -0.02187,-0.688882 -0.06477,-1.0228061 C 16.2868,7.1859273 16.206051,6.8065488 16.102579,6.4373036 Q 15.750981,5.1966174 15.022492,4.1285155 14.302443,3.076209 13.292098,2.2999103 Z" />
  <path
     id="path888"
     stroke-width="0.263851"
     fill="url(#linearGradient1001)"
     d="M 13.292008,2.0354142 Q 12.270816,1.2489557 11.057911,0.83010211 9.8044982,0.39690835 8.4645159,0.39690835 c -4.3840595,0 -7.93813735,3.55381335 -7.93813735,7.93760815 0,4.0104755 2.97518095,7.3245805 6.83802155,7.8603515 0.1884193,0.02608 0.3793785,0.04626 0.5711448,0.05804 0.1749602,0.01093 0.3507776,0.0185 0.5291033,0.0185 4.3832658,0 7.9365498,-3.553814 7.9365498,-7.9370793 0,-0.3465444 -0.02187,-0.6888821 -0.06477,-1.0228061 C 16.2868,6.9212434 16.206051,6.5418648 16.102579,6.1726196 Q 15.750981,4.931907 15.022492,3.8638316 14.302443,2.811525 13.292098,2.0352263 Z"
     style="fill:url(#linearGradient1001)" />
  <circle
     id="circle890"
     stroke-width="0.415785"
     fill-opacity="0"
     r="7.9376082"
     cy="8.3458939"
     cx="8.4690132" />
  <circle
     style="fill:url(#b-3)"
     id="circle892"
     stroke-width="0.415785"
     fill="url(#b)"
     r="0"
     cy="8.3458939"
     cx="8.4690132" />
  <path
     d="m 8.4678609,3.836383 a 4.6301172,4.6301172 0 1 0 0,9.260234 4.6301172,4.6301172 0 0 0 0,-9.260234 z m 0,0.386071 a 4.2456868,4.2456868 0 0 1 4.0849151,3.090755 7.3637839,7.3637839 0 0 1 -1.799112,2.345955 c -0.360916,0.311701 -0.753549,0.59059 -1.1877429,0.78636 -0.4352868,0.19577 -0.9132273,0.306232 -1.3889805,0.27889 A 2.4028269,2.4028269 0 0 1 7.1532511,10.431306 7.7225128,7.7225128 0 0 0 9.3449966,8.6639104 C 9.7474727,8.1936257 10.09964,7.6577199 10.234163,7.0529118 A 2.1873708,2.1873708 0 0 0 10.250568,6.130935 1.7039619,1.7039619 0 0 0 9.8349677,5.3128583 1.668964,1.668964 0 0 0 9.0639195,4.8556978 2.0276928,2.0276928 0 0 0 8.1638164,4.8228873 C 7.5677578,4.9322558 7.0373204,5.2778604 6.6107831,5.7076788 5.8583275,6.4645091 5.3935112,7.5341334 5.4788187,8.5971956 5.5225661,9.1287268 5.6997431,9.651508 6.005975,10.088983 c 0.067808,0.09734 0.1421792,0.190301 0.2231119,0.278889 A 6.9427151,6.9427151 0 0 1 4.8565117,10.695978 4.2434994,4.2434994 0 0 1 8.4678609,4.2213603 Z m 0.026249,0.8574493 c 0.2985761,0 0.5993396,0.090776 0.8366693,0.2701403 0.2154561,0.1618655 0.3740405,0.3937268 0.4637235,0.6452744 0.09078,0.253735 0.113742,0.5293438 0.08312,0.796203 -0.06234,0.5337185 -0.3313864,1.0236896 -0.656211,1.4513206 A 6.2591617,6.2591617 0 0 1 6.760618,10.156791 2.1917456,2.1917456 0 0 1 6.2958017,9.5869809 C 6.0431604,9.1385699 5.9600403,8.6059451 6.0092561,8.0941003 6.0573783,7.5822556 6.2334616,7.0879098 6.4696977,6.6307493 6.743119,6.1003118 7.1171594,5.5983102 7.6399411,5.3106709 7.9002382,5.1663045 8.1966269,5.0788096 8.4941099,5.0799033 Z M 12.673082,7.8983307 A 4.2434994,4.2434994 0 0 1 5.1955542,11.170637 c 0.4812215,-0.109368 0.9515063,-0.265765 1.401011,-0.46591 0.1968634,0.150929 0.4156004,0.273422 0.6452744,0.36201 0.6671481,0.255923 1.421791,0.218737 2.0965949,-0.01531 C 10.012145,10.818472 10.610391,10.39959 11.132079,9.9129 a 7.7170443,7.7170443 0 0 0 1.542096,-2.0145683 z"
     fill="#ffffff"
     stroke-width="1.42617"
     id="path15" />
</svg>
