<?xml version="1.0" encoding="UTF-8"?>
<svg width="64" height="64" version="1.1" viewBox="0 0 64 64" xmlns="http://www.w3.org/2000/svg" xmlns:cc="http://creativecommons.org/ns#" xmlns:dc="http://purl.org/dc/elements/1.1/" xmlns:rdf="http://www.w3.org/1999/02/22-rdf-syntax-ns#">
 <metadata>
  <rdf:RDF>
   <cc:Work rdf:about="">
    <dc:format>image/svg+xml</dc:format>
    <dc:type rdf:resource="http://purl.org/dc/dcmitype/StillImage"/>
    <dc:title/>
   </cc:Work>
  </rdf:RDF>
 </metadata>
 <defs>
  <linearGradient id="a-3" x1="-6.1472" x2="-6.1472" y1="-137.82" y2="-100.78" gradientTransform="matrix(2.0044,0,0,2.0044,123.77,261.85)" gradientUnits="userSpaceOnUse">
   <stop stop-color="#ffbe14" offset="0"/>
   <stop stop-color="#ff8214" offset="1"/>
  </linearGradient>
 </defs>
 <circle cx="-1168.4" cy="-1251.4" r="0" fill="#5e4aa6"/>
 <circle cx="-68.875" cy="14.092" r="0" fill="#5e4aa6" fill-rule="evenodd"/>
 <g transform="translate(-80.27,9.7625)" stroke-width=".53035">
  <circle cx="112.27" cy="22.748" r="30.001" opacity=".2"/>
  <circle cx="112.27" cy="21.727" r="30.001" fill="url(#a-3)"/>
 </g>
 <g transform="matrix(1.4 0 0 1.4 95.643 .5)">
  <path d="m-47.959 11c-1.108 0-2 0.892-2 2v5c0 0.85042 0.52814 1.5691 1.2734 1.8594l-3.5918 6.1406h-3.6816c-1.108 0-2 0.892-2 2v5c0 1.108 0.892 2 2 2h6c1.108 0 2-0.892 2-2v-5c0-1.108-0.892-2-2-2h-0.14844l3.5078-6h3.2812l3.5215 6h-0.16211c-1.108 0-2 0.892-2 2v5c0 1.108 0.892 2 2 2h6c1.108 0 2-0.892 2-2v-5c0-1.108-0.892-2-2-2h-3.7129l-3.5879-6.1309c0.75958-0.28318 1.3008-1.0085 1.3008-1.8691v-5c0-1.108-0.892-2-2-2z" opacity=".1" stroke-width="0"/>
  <path d="m-48.959 10c-1.108 0-2 0.892-2 2v5c0 0.85042 0.52814 1.5691 1.2734 1.8594l-3.5918 6.1406h-3.6816c-1.108 0-2 0.892-2 2v5c0 1.108 0.892 2 2 2h6c1.108 0 2-0.892 2-2v-5c0-1.108-0.892-2-2-2h-0.14844l3.5078-6h3.2832l3.5195 6h-0.16211c-1.108 0-2 0.892-2 2v5c0 1.108 0.892 2 2 2h6c1.108 0 2-0.892 2-2v-5c0-1.108-0.892-2-2-2h-3.7129l-3.5879-6.1309c0.75958-0.28318 1.3008-1.0085 1.3008-1.8691v-5c0-1.108-0.892-2-2-2z" fill="#f9f9f9" stroke-width=".15399"/>
 </g>
</svg>
