<svg width="64" height="64" version="1.1" viewBox="0 0 16.933 16.933" xmlns="http://www.w3.org/2000/svg" xmlns:xlink="http://www.w3.org/1999/xlink">
 <defs>
  <linearGradient id="a" x1="-6.1472" x2="-6.1472" y1="-137.82" y2="-100.78" gradientTransform="matrix(.53033 0 0 .53033 11.536 352.06)" gradientUnits="userSpaceOnUse">
   <stop stop-color="#ff8214" offset="0"/>
   <stop stop-color="#ff6464" offset="1"/>
  </linearGradient>
 </defs>
 <g transform="translate(0 -280.07)">
  <circle cx="-330.35" cy="-48.312" r="0" fill="#5e4aa6" stroke-width=".26458"/>
  <ellipse cx="-39.434" cy="286.51" r=".90502" fill="#5e4aa6" fill-rule="evenodd" stroke-width=".26458"/>
  <circle cx="8.4935" cy="288.8" r="7.9375" opacity=".2" stroke-width=".14032"/>
  <circle cx="8.4935" cy="288.53" r="7.9375" fill="url(#a)" stroke-width=".14032"/>
  <path transform="matrix(.89045 0 0 .88718 .93047 32.981)" d="m12.133 285.68-0.54195-1.435s-4.6033-0.26717-7.1388 1.7092c0 0-1.2147 1.0123-0.94478 2.1498 0.26994 1.1376 0.84837 1.3111 1.6871 1.4557s2.6704 0.0289 3.3646-0.0771c0.92626-0.13395 1.9088 0.0578 1.8028 0.48203-0.10605 0.42418-1.2918 1.0412-2.092 1.1954-0.80017 0.15425-1.8414 0.38563-3.5477 0.12534l0.57681 1.4909s4.9559 0.559 7.6009-1.9633c0 0 1.3907-1.2727 0-2.6995s-6.6448 0.38562-6.1628-1.3208c0 0 0.45707-1.2714 5.3959-1.1129z" fill="#fe280f" opacity=".5"/>
  <path d="m11.791 285.99-0.49095-1.3s-4.1702-0.24203-6.4671 1.5483c0 0-1.1004 0.91701-0.85588 1.9476 0.24454 1.0306 0.76855 1.1878 1.5284 1.3188 0.75981 0.131 2.4192 0.0262 3.048-0.0699 0.9796-0.0785 1.7292 0.0524 1.6332 0.43667-0.09607 0.38427-1.1703 0.94322-1.8952 1.083-0.72488 0.13974-1.6681 0.34935-3.2139 0.11355l0.52253 1.3506s4.4896 0.5064 6.8857-1.7785c0 0 1.2598-1.1529 0-2.4455-1.2598-1.2926-6.0196 0.34933-5.5829-1.1965 0 0 0.41406-1.1518 4.8882-1.0082z" fill="#fff"/>
 </g>
</svg>
