<svg width="64" height="64" version="1.1" viewBox="0 0 16.933 16.933" xmlns="http://www.w3.org/2000/svg">
 <circle cx="-330.35" cy="-328.38" r="0" fill="#5e4aa6" stroke-width=".26458"/>
 <circle cx="8.4935" cy="8.73" r="7.9375" opacity=".2" stroke-width=".14032"/>
 <circle cx="8.4935" cy="8.46" r="7.9375" fill="#fafafa" stroke-width=".14032"/>
 <g transform="matrix(.26458 0 0 .26458 0 .34081)" fill="#fff" aria-label="Aa">
  <path d="m18.758 34.229 1.294-4.0258c0.93457-2.9834 1.7972-5.8231 2.624-8.9144h0.14378c0.86268 3.0553 1.6894 5.9309 2.6599 8.9144l1.2581 4.0258zm11.323 10.712h3.5226l-8.9503-26.348h-3.7023l-8.9503 26.348h3.3788l2.5521-8.0517h9.6332z"/>
  <path d="m42.439 45.407c2.4083 0 4.601-1.2581 6.4701-2.8037h0.10784l0.28756 2.3364h2.6959v-12.006c0-4.8166-2.0129-8.0157-6.7577-8.0157-3.1272 0-5.895 1.4019-7.6922 2.5521l1.294 2.2645c1.5456-1.0424 3.5945-2.0848 5.859-2.0848 3.1991 0 4.0258 2.4083 4.0258 4.9245-8.3033 0.93457-12.006 3.0553-12.006 7.2968 0 3.5226 2.4443 5.5355 5.7152 5.5355zm0.93457-2.624c-1.941 0-3.4507-0.89862-3.4507-3.1272 0-2.5161 2.2286-4.1337 8.8065-4.9245v5.4636c-1.9051 1.6894-3.4507 2.588-5.3558 2.588z"/>
 </g>
 <g transform="scale(.26458)" fill="#4d4d4d" aria-label="Aa">
  <path d="m18.758 34.229 1.294-4.0258c0.93457-2.9834 1.7972-5.8231 2.624-8.9144h0.14378c0.86268 3.0553 1.6894 5.9309 2.6599 8.9144l1.2581 4.0258zm11.323 10.712h3.5226l-8.9503-26.348h-3.7023l-8.9503 26.348h3.3788l2.5521-8.0517h9.6332z"/>
  <path d="m42.439 45.407c2.4083 0 4.601-1.2581 6.4701-2.8037h0.10784l0.28756 2.3364h2.6959v-12.006c0-4.8166-2.0129-8.0157-6.7577-8.0157-3.1272 0-5.895 1.4019-7.6922 2.5521l1.294 2.2645c1.5456-1.0424 3.5945-2.0848 5.859-2.0848 3.1991 0 4.0258 2.4083 4.0258 4.9245-8.3033 0.93457-12.006 3.0553-12.006 7.2968 0 3.5226 2.4443 5.5355 5.7152 5.5355zm0.93457-2.624c-1.941 0-3.4507-0.89862-3.4507-3.1272 0-2.5161 2.2286-4.1337 8.8065-4.9245v5.4636c-1.9051 1.6894-3.4507 2.588-5.3558 2.588z"/>
 </g>
</svg>
