<svg width="64" height="64" version="1.1" viewBox="0 0 16.933 16.933" xmlns="http://www.w3.org/2000/svg" xmlns:xlink="http://www.w3.org/1999/xlink">
 <defs>
  <linearGradient id="a" x1="-6.1472" x2="-6.1472" y1="-137.82" y2="-100.78" gradientTransform="matrix(.53033 0 0 .53033 11.536 352.06)" gradientUnits="userSpaceOnUse">
   <stop stop-color="#14dc78" offset="0"/>
   <stop stop-color="#14a03c" offset="1"/>
  </linearGradient>
 </defs>
 <g transform="translate(0 -280.07)">
  <circle cx="-330.35" cy="-48.312" r="0" fill="#5e4aa6" stroke-width=".26458"/>
  <circle cx="8.4935" cy="288.8" r="7.9375" opacity=".2" stroke-width=".14032"/>
  <circle cx="8.4935" cy="288.53" r="7.9375" fill="url(#a)" stroke-width=".14032"/>
  <path d="m13.055 281.17s-4.1974-0.10054-3.3744 4.2962c0.82301 4.3967 3.3126 4.1545 3.3126 4.1545s2.1402 0.1815 3.1689-3.953c1.0288-4.1345-2.5104-4.4774-3.1071-4.4976zm-0.09367 1.8522a1.3967 1.3691 0 0 1 1.3967 1.3691 1.3967 1.3691 0 0 1-1.3967 1.3691 1.3967 1.3691 0 0 1-1.3967-1.3691 1.3967 1.3691 0 0 1 1.3967-1.3691z" fill="#149646" opacity=".5"/>
  <path d="m13.058 280.6s-4.3018-0.10512-3.4583 4.4918c0.84346 4.5969 3.3949 4.3436 3.3949 4.3436s2.1934 0.18976 3.2477-4.133c1.0543-4.3227-2.5728-4.6813-3.1843-4.7024zm-0.096 1.9365a1.4314 1.4314 0 0 1 1.4314 1.4314 1.4314 1.4314 0 0 1-1.4314 1.4314 1.4314 1.4314 0 0 1-1.4314-1.4314 1.4314 1.4314 0 0 1 1.4314-1.4314z" fill="#fafafa"/>
  <path d="m4.3954 287.78-0.03927 4e-3 -0.4625 0.0429-0.03152 4e-3 -0.02946 0.0103-0.47232 0.15813-0.0217 8e-3 -0.01964 0.0119-0.08165 0.0429 0.25735 0.47646 0.06666-0.0351 0.41393-0.13849 0.39067-0.0372 0.37879 0.0765 0.07235 0.0331 0.22686-0.49041-0.10387-0.0486-0.02894-0.014-0.03152-6e-3 -0.44545-0.0899zm1.1581 0.42944-0.2868 0.45888 0.21446 0.13488 0.69763 0.59944 0.0057 8e-3 0.24598 0.26975 0.40049-0.36328-0.25011-0.2775-0.01137-0.0119-0.01188-0.0114-0.73432-0.63303-0.01551-0.014-0.01809-0.01zm-2.8143 0.13745-0.39842 0.28268-0.0196 0.016-0.46509 0.39998-0.0098 8e-3 -0.0098 0.01-0.35915 0.37724 0.39067 0.3731 0.35553-0.37104 0.0036-4e-3 0.42788-0.36742 0.0078-6e-3 0.39067-0.2775zm4.455 1.372-0.4005 0.36381 0.04496 0.0506 0.62477 0.76584 0.0021 2e-3v2e-3l0.35553 0.4222 0.41393-0.34778-0.35347-0.41807 0.0021-2e-3 -0.62477-0.76533-0.0041-6e-3 -0.0057-6e-3zm-6.0916 0.11214-0.14676 0.15193-0.0077 8e-3 -0.0057 0.0103-0.1974 0.24443a7.9375 7.9375 0 0 0 0.17105 0.6475l0.43046-0.5364 0.0098-0.01 0.0057-8e-3 0.13126-0.13435zm11.033 0.0718-0.08992 0.3204-0.0036 0.0114-0.0041 0.0119-0.11886 0.31058-0.20154 0.40049-0.01912 0.0294 0.447 0.30438 0.02532-0.0393 0.01188-0.0134 0.0078-0.0155 0.21084-0.42168 0.0078-0.0119 0.0041-0.0119 0.13849-0.35915 0.0041-0.0119 0.0036-0.0114 0.09767-0.34417zm-3.5584 1.4557-0.37517 0.38809 0.48059 0.46664 0.0155 0.0139 0.01757 0.0134 0.30489 0.21291 0.01757 0.0119 0.02119 0.01 0.31058 0.14831 0.02739 0.014 0.02739 6e-3 0.23254 0.0548 0.12092-0.5271-0.20309-0.0491-0.26562-0.12661-0.26562-0.18552zm2.8376 0.0305-0.32608 0.33021-0.44494 0.28525-0.47284 0.14831 0.16019 0.51574 0.50591-0.15658 0.03514-0.0114 0.031-0.0196 0.50023-0.31833 0.02532-0.0176 0.0217-0.0217 0.34934-0.35502z" fill="#fafafa" stroke-width=".14032"/>
  <ellipse cx="-39.434" cy="286.51" r=".90502" fill="#5e4aa6" fill-rule="evenodd" stroke-width=".26458"/>
 </g>
</svg>
