<svg width="64" height="64" version="1.1" viewBox="0 0 16.933 16.933" xmlns="http://www.w3.org/2000/svg" xmlns:xlink="http://www.w3.org/1999/xlink">
 <defs>
  <linearGradient id="a" x1="-6.1472" x2="-6.1472" y1="-137.82" y2="-100.78" gradientTransform="matrix(.53033 0 0 .53033 11.536 352.06)" gradientUnits="userSpaceOnUse">
   <stop stop-color="#ffbe14" offset="0"/>
   <stop stop-color="#ff8214" offset="1"/>
  </linearGradient>
 </defs>
 <g transform="translate(0 -280.07)">
  <circle cx="-330.35" cy="-48.312" r="0" fill="#5e4aa6" stroke-width=".26458"/>
  <ellipse cx="-39.434" cy="286.51" r=".90502" fill="#5e4aa6" fill-rule="evenodd" stroke-width=".26458"/>
  <circle cx="8.4935" cy="288.8" r="7.9375" opacity=".2" stroke-width=".14032"/>
  <circle cx="8.4935" cy="288.53" r="7.9375" fill="url(#a)" stroke-width=".14032"/>
  <path d="m12.187 289.78a2.296 2.3606 0 0 0-2.0957 1.4016 2.296 2.3606 0 0 0-0.96639-0.22286 2.296 2.3606 0 0 0-2.296 2.3606 2.296 2.3606 0 0 0 2.296 2.3606 2.296 2.3606 0 0 0 7.47e-4 0h5.3574a1.721 1.7695 0 0 0 1.7205-1.7697 1.721 1.7695 0 0 0-1.7205-1.7689 2.296 2.3606 0 0 1 0-7.6e-4 2.296 2.3606 0 0 0 0-1e-3 2.296 2.3606 0 0 0-2.296-2.3591z" fill="#fa6414" fill-rule="evenodd" opacity=".5"/>
  <path d="m12.414 289.78a2.296 2.3606 0 0 0-2.0957 1.4016 2.296 2.3606 0 0 0-0.9664-0.22286 2.296 2.3606 0 0 0-2.296 2.3606 2.296 2.3606 0 0 0 2.296 2.3606 2.296 2.3606 0 0 0 7.47e-4 0h5.3574a1.721 1.7695 0 0 0 1.7205-1.7697 1.721 1.7695 0 0 0-1.7205-1.7689 2.296 2.3606 0 0 1 0-7.6e-4 2.296 2.3606 0 0 0 0-1e-3 2.296 2.3606 0 0 0-2.296-2.3591z" fill="#fafafa" fill-rule="evenodd"/>
 </g>
</svg>
