<svg id="Sketch" width="64" height="64" enable-background="new 0 0 1024 1024" image-rendering="optimizeSpeed" version="1.1" viewBox="0 0 64 64" xmlns="http://www.w3.org/2000/svg">
 <path d="m61.089 25.373c-0.069913-0.27648-0.14936-0.57201-0.23198-0.86439-0.063558-0.21609-0.12712-0.43536-0.20021-0.66735-0.1017-0.32732-0.21609-0.66735-0.33685-1.0074-0.40994-1.1599-0.89935-2.2912-1.4714-3.4098-0.24151-0.47032-0.50528-0.95021-0.78176-1.4237-1.2902-2.1927-2.9109-4.271-4.8526-6.2127-4.6142-4.6142-9.9883-7.4137-16.121-8.3925-1.0328-0.16525-2.0847-0.27965-3.181-0.34003-0.61651-0.034956-1.2616-0.054024-1.9131-0.054024-0.59426 0-1.1821 0.015889-1.7732 0.047668-7.5222 0.3877-14.002 3.3018-19.439 8.739q-8.7868 8.7868-8.7868 21.213c0 8.2847 2.93 15.359 8.7868 21.216 3.6037 3.6005 7.6619 6.0951 12.146 7.4711 2.3357 0.71502 4.7541 1.1345 7.2931 1.268h0.02542c0.54024 0.0286 1.055 0.04449 1.5571 0.04449h0.19067c0.65466 0 1.3029-0.01907 1.913-0.05085 0.15889-0.0095 0.3019-0.01907 0.44172-0.0286 1.2839-0.09216 2.5359-0.25741 3.7308-0.48939 0.50528-0.09852 1.0042-0.20975 1.4873-0.32732 5.1354-1.2902 9.6705-3.9151 13.642-7.8878 3.0889-3.0889 5.3642-6.5147 6.8228-10.284 1.1726-3.0285 1.8209-6.2795 1.9417-9.756 0.01271-0.38452 0.01907-0.77857 0.01907-1.1758v-0.19068c-0.01272-2.5836-0.31461-5.0528-0.90886-7.436z" opacity=".15" stroke-width="1.0007"/>
 <path d="m61.089 24.372c-0.069913-0.27648-0.14936-0.57201-0.23198-0.86439-0.063558-0.21609-0.12712-0.43536-0.20021-0.66735-0.1017-0.32732-0.21609-0.66735-0.33685-1.0074-0.40994-1.1599-0.89935-2.2912-1.4714-3.4098-0.24151-0.47032-0.50528-0.95021-0.78176-1.4237-1.2902-2.1927-2.9109-4.271-4.8526-6.2127-4.6142-4.6142-9.9883-7.4137-16.121-8.3925-1.0328-0.16525-2.0847-0.27965-3.181-0.34003-0.61651-0.034956-1.2616-0.054024-1.9131-0.054024-0.59426 0-1.1821 0.015889-1.7732 0.047668-7.5222 0.3877-14.002 3.3018-19.439 8.739q-8.7868 8.7868-8.7868 21.213c0 8.2847 2.93 15.359 8.7868 21.216 3.6037 3.6005 7.6619 6.0951 12.146 7.4711 2.3357 0.71502 4.7541 1.1345 7.2931 1.268h0.02542c0.54024 0.0286 1.055 0.04449 1.5571 0.04449h0.19067c0.65466 0 1.3029-0.01907 1.913-0.05085 0.15889-0.0095 0.3019-0.01907 0.44172-0.0286 1.2839-0.09216 2.5359-0.25741 3.7308-0.48939 0.50528-0.09852 1.0042-0.20975 1.4873-0.32732 5.1354-1.2902 9.6705-3.9151 13.642-7.8878 3.0889-3.0889 5.3642-6.5147 6.8228-10.284 1.1726-3.0285 1.8209-6.2795 1.9417-9.756 0.01271-0.38452 0.01907-0.77857 0.01907-1.1758v-0.19068c-0.01272-2.5836-0.31461-5.0528-0.90886-7.436z" fill="#f2f2f2" stroke-width="1.0007"/>
 <path d="m31.77 15.65c-1.1077-0.0022-2.209 0.40054-3.0039 1.2142l-13.223 13.532c-4.4685 5.5336 3.0413 4.8912 6.2605 6.4852 1.1548 1.1804-4.4254 2.0471-3.2706 3.2285 1.1548 1.1804 6.9775 2.2727 8.1341 3.4531 1.1548 1.1804-2.3619 2.4342-1.2072 3.6145 1.1548 1.1804 3.8233 0.06135 4.3234 2.7863 0.35638 1.9473 4.8178 0.83681 6.9972-0.758 1.1548-1.1813-2.2076-1.0655-1.0528-2.2459 2.8716-2.9367 5.5447-1.072 6.5273-4.0146 0.48534-1.454-4.2309-2.2376-3.0741-3.418 3.3226-1.9404 14.805-3.2047 9.3558-8.6538l-13.707-14.009c-0.83828-0.8048-1.9523-1.212-3.0601-1.2142zm0.1123 1.2844c0.7909 0.0042 1.5801 0.30238 2.1476 0.8773l5.2358 5.313c0.49617 0.507 0.48818 1.4861 0.21056 1.7686l-2.5968-2.0775-0.51235 3.0811-2.1687-1.144-3.4812 2.1898-1.151-4.6252-1.8669 3.2285h-2.8495c-1.1637 0-1.303-1.4763-0.24564-2.5336 1.8469-1.9935 3.9647-4.0233 5.1165-5.2007 0.57886-0.59166 1.3708-0.88151 2.1617-0.8773zm-6.2815 20.676c0.35342 0.21953 5.698 1.3064 7.0043 1.523 0.45285 0.0955 0.13285 0.56228-0.49129 0.8773-1.4078 0.3741-8.2361-2.4003-6.5133-2.4003zm20.789 3.7198c-1.0755 0.03704-2.136 0.58401-2.4284 1.6143 0 0.67141 4.941 1.1156 4.941-0.15441-0.35244-1.0199-1.4371-1.4969-2.5126-1.4598zm-22.684 2.9056c-1.5504-0.01437-3.3657 1.1227-2.0283 2.281 1.1715 1.013 2.9808-0.2567 3.5233-1.6704-0.31924-0.42418-0.88827-0.60498-1.495-0.61061zm19.63 0.09124c-1.5101 1.3546 0.16785 2.7281 1.6563 1.8529 0.33177-0.33668-0.0074-1.5162-1.6563-1.8529z" opacity=".15" stroke-width="3.5223"/>
 <path d="m31.77 14.749c-1.1077-0.0022-2.209 0.40054-3.0039 1.2142l-13.223 13.532c-4.4685 5.5336 3.0413 4.8912 6.2605 6.4852 1.1548 1.1804-4.4254 2.0471-3.2706 3.2285 1.1548 1.1804 6.9775 2.2727 8.1341 3.4531 1.1548 1.1804-2.3619 2.4342-1.2072 3.6145 1.1548 1.1804 3.8233 0.06135 4.3234 2.7863 0.35638 1.9473 4.8178 0.83681 6.9972-0.758 1.1548-1.1813-2.2076-1.0655-1.0528-2.2459 2.8716-2.9367 5.5447-1.072 6.5273-4.0146 0.48534-1.454-4.2309-2.2376-3.0741-3.418 3.3226-1.9404 14.805-3.2047 9.3558-8.6538l-13.707-14.009c-0.83828-0.8048-1.9523-1.212-3.0601-1.2142zm0.1123 1.2844c0.7909 0.0042 1.5801 0.30238 2.1476 0.8773l5.2358 5.313c0.49617 0.507 0.48818 1.4861 0.21056 1.7686l-2.5968-2.0775-0.51235 3.0811-2.1687-1.144-3.4812 2.1898-1.151-4.6252-1.8669 3.2285h-2.8495c-1.1637 0-1.303-1.4763-0.24564-2.5336 1.8469-1.9935 3.9647-4.0233 5.1165-5.2007 0.57886-0.59166 1.3708-0.88151 2.1617-0.8773zm-6.2815 20.676c0.35342 0.21953 5.698 1.3064 7.0043 1.523 0.45285 0.0955 0.13285 0.56228-0.49129 0.8773-1.4078 0.3741-8.2361-2.4003-6.5133-2.4003zm20.789 3.7198c-1.0755 0.03704-2.136 0.58401-2.4284 1.6143 0 0.67141 4.941 1.1156 4.941-0.15441-0.35244-1.0199-1.4371-1.4969-2.5126-1.4598zm-22.684 2.9056c-1.5504-0.01437-3.3657 1.1227-2.0283 2.281 1.1715 1.013 2.9808-0.2567 3.5233-1.6704-0.31924-0.42418-0.88827-0.60498-1.495-0.61061zm19.63 0.09124c-1.5101 1.3546 0.16785 2.7281 1.6563 1.8529 0.33177-0.33668-0.0074-1.5162-1.6563-1.8529z" fill="#333" stroke-width="3.5223"/>
</svg>
