<svg width="64" height="64" version="1.1" viewBox="0 0 16.933 16.933" xmlns="http://www.w3.org/2000/svg">
 <g transform="translate(0 -280.07)">
  <g>
   <circle cx="-330.35" cy="-48.312" r="0" fill="#5e4aa6" stroke-width=".26458"/>
   <circle cx="8.4935" cy="288.8" r="7.9375" opacity=".2" stroke-width=".14032"/>
   <circle cx="8.4935" cy="288.53" r="7.9375" fill="#fafafa"/>
  </g>
  <g transform="translate(-19.738 -.000249)" shape-rendering="auto">
   <path d="m27.748 280.62 0.01953 0.40039 0.46484-0.0254h0.0098l0.70312 0.0371 0.01953-0.39843-0.72266-0.0371h-0.01954zm-1.8672 0.33008-0.01758 6e-3 -0.50586 0.18555 0.13672 0.375 0.48633-0.17969 0.01172-4e-3 0.0078-2e-3 0.62109-0.1582-0.09961-0.38672zm4.2031 0.28516 0.38086 0.0957 0.0078 2e-3 0.01172 4e-3 0.69141 0.25586 0.0098 4e-3 0.17188-0.35938-0.02734-0.0137-0.01758-8e-3 -0.71094-0.25977-0.01758-6e-3 -0.40039-0.10156zm-6.2812 0.71094-0.01563 0.0117-0.54688 0.40821 0.23828 0.32031 0.54492-0.40625 2e-3 -2e-3 0.42578-0.25782-0.20703-0.34179zm8.4238 0.20312 0.21289 0.12891 2e-3 2e-3 0.57812 0.43164 0.13867 0.125 0.26953-0.29492-0.13867-0.12695-0.01563-0.0117-0.5957-0.44532-0.01563-0.0117-0.22852-0.13868zm-10.113 1.3281-0.01172 0.0156-0.44531 0.5957-0.01172 0.0156-0.05664 0.0918 0.3418 0.20898 0.04687-0.0781 2e-3 -2e-3 0.43164-0.57812 0.23242-0.25782-0.29688-0.26757zm11.877 0.19726 0.06445 0.0723 0.43164 0.57812 2e-3 2e-3 0.17578 0.28907 0.3418-0.20703-0.1875-0.30469-0.0098-0.0156-0.44531-0.5957-0.01172-0.0156-0.06641-0.0723zm-13.068 1.7598-0.0059 0.0195-0.26172 0.71094-0.0059 0.0176-0.0625 0.2461 0.38672 0.0996 0.05859-0.22657 0.0019-8e-3 0.0039-0.0117 0.25195-0.68554 2e-3 -6e-3 0.07422-0.15235-0.36133-0.17383zm14.273 0.21289 0.23242 0.63476 0.0039 0.0117 2e-3 8e-3 0.11914 0.4668 0.38867-0.0996-0.125-0.48633-0.0059-0.0176-0.24024-0.65625zm-14.857 2.0644-2e-3 0.0215-0.04102 0.79101v0.0195l0.01563 0.31641 0.40039-0.0195-0.01563-0.29688v-0.02l0.03711-0.75195 2e-3 -0.01v-0.01l0.01172-0.0684-0.39453-0.0605zm15.422 0.63487 0.0098 0.17763v0.02l-0.03711 0.75-2e-3 0.01-0.05859 0.39258 0.39453 0.0605 0.06055-0.40234 2e-3 -0.0195 0.04102-0.79102-0.20117-0.01 0.20117-0.01-0.01174-0.19912zm-15.312 1.7245 0.0078 0.0527 0.0039 0.0195 0.18945 0.74024 0.0059 0.0195 0.13086 0.35742 0.375-0.13672-0.12305-0.33984-2e-3 -4e-3 -0.18555-0.7168-2e-3 -0.01-0.0019-0.01-0.0039-0.0332zm14.734 1.3867-2e-3 6e-3 -0.2168 0.45118 0.35938 0.17382 0.21875-0.45703 0.0078-0.0176 0.23828-0.65039-0.375-0.13867zm-13.887 0.92969 0.34961 0.57617 0.01172 0.0156 0.31445 0.41992 0.32031-0.23828-0.3125-0.41797-2e-3 -2e-3 -0.33984-0.56055zm12.76 0.9336-0.0078 0.01-0.0039 4e-3 -0.43359 0.47656 0.29492 0.26953 0.44726-0.49023 0.01172-0.0156 0.32031-0.42969-0.32033-0.23864zm-11.252 0.99218 0.37305 0.33985 0.01563 0.0117 0.55469 0.41601 0.24023-0.32031-0.54102-0.4043-0.37305-0.33984zm9.6523 0.46485-0.62109 0.3789-0.0078 4e-3 -0.0098 6e-3 -0.06055 0.0273 0.17383 0.36133 0.07813-0.0371 0.01563-0.01 0.63867-0.38868 0.01563-0.01 0.29297-0.21875-0.23828-0.32031zm-7.6348 0.91406 0.3125 0.15039 0.01953 8e-3 0.71094 0.25977 0.01758 6e-3 0.0918 0.0254 0.09961-0.38867-0.07227-0.0176-0.0078-2e-3 -0.01172-4e-3 -0.68555-0.25195-0.0059-2e-3 -0.29492-0.14258zm5.6641 0.0371-0.01172 4e-3 -0.0078 2e-3 -0.70312 0.18164-0.0196 4e-3 -0.18945 0.0273 0.06055 0.39453 0.20898-0.0312 0.01953-4e-3 0.74219-0.1914 0.01758-6e-3 0.20898-0.0762-0.13672-0.375zm-3.3184 0.66211 0.24414 0.0371 0.02148 2e-3 0.79102 0.041h0.01953l0.1582-8e-3 -0.01953-0.40039-0.13867 8e-3h-0.0196l-0.75195-0.0371-0.0098-2e-3h-0.0098l-0.22656-0.0352z" color="#000000" color-rendering="auto" dominant-baseline="auto" fill="#1e90ff" image-rendering="auto" solid-color="#000000" style="font-feature-settings:normal;font-variant-alternates:normal;font-variant-caps:normal;font-variant-ligatures:normal;font-variant-numeric:normal;font-variant-position:normal;isolation:auto;mix-blend-mode:normal;shape-padding:0;text-decoration-color:#000000;text-decoration-line:none;text-decoration-style:solid;text-indent:0;text-orientation:mixed;text-transform:none;white-space:normal"/>
   <path d="m25.88 280.95-0.01758 6e-3 -0.50586 0.18555 0.13672 0.375 0.48633-0.17969 0.01172-4e-3 0.0078-2e-3 0.62109-0.1582-0.09961-0.38672zm4.2031 0.28516 0.38086 0.0957 0.0078 2e-3 0.01172 4e-3 0.69141 0.25586 0.0098 4e-3 0.17383-0.35938-0.02734-0.0137-0.01953-8e-3 -0.71094-0.25977-0.01758-6e-3 -0.40039-0.10156zm-7.9707 2.2422-0.01172 0.0156-0.44531 0.5957-0.01172 0.0156-0.05664 0.0918 0.3418 0.20898 0.04687-0.0781 2e-3 -2e-3 0.43164-0.57812 0.23242-0.25782-0.29492-0.26757zm11.877 0.19726 0.06445 0.0723 0.43164 0.57812 2e-3 2e-3 0.17578 0.28907 0.3418-0.20703-0.18555-0.30469-0.01172-0.0156-0.44531-0.5957-0.01172-0.0156-0.06641-0.0723zm-13.652 4.0371-2e-3 0.0215-0.04102 0.79101v0.0195l0.01563 0.31641 0.40039-0.0195-0.01563-0.29688v-0.02l0.03711-0.75195 2e-3 -0.01v-0.01l0.01172-0.0684-0.39453-0.0605zm15.422 0.63487 0.0099 0.17763v0.02l-0.03711 0.75-2e-3 0.01-0.05859 0.39258 0.39453 0.0605 0.06055-0.40234 2e-3 -0.0195 0.04102-0.79102-0.19922-0.01 0.19922 0.01-0.0099-0.21912zm-14.465 4.0409 0.34961 0.57617 0.01172 0.0156 0.31445 0.41992 0.32031-0.23828-0.3125-0.41797-2e-3 -2e-3 -0.33984-0.56055zm12.76 0.9336-0.0078 0.01-0.0039 4e-3 -0.43359 0.47656 0.29492 0.26953 0.44727-0.49023 0.01172-0.0156 0.32031-0.42969-0.32031-0.23828zm-9.2344 2.3711 0.31445 0.15039 0.01758 8e-3 0.71094 0.25977 0.01758 6e-3 0.09375 0.0254 0.09961-0.38867-0.07422-0.0176-0.0078-4e-3 -0.01172-2e-3 -0.68555-0.25195-0.0059-2e-3 -0.29492-0.14258zm5.6641 0.0371-0.01172 4e-3 -0.0078 2e-3 -0.70312 0.18164-0.0196 4e-3 -0.18945 0.0273 0.06055 0.39453 0.20898-0.0312 0.01953-4e-3 0.74219-0.1914 0.01758-6e-3 0.20898-0.0762-0.13672-0.375z" color="#000000" color-rendering="auto" dominant-baseline="auto" fill="#ff4437" image-rendering="auto" solid-color="#000000" style="font-feature-settings:normal;font-variant-alternates:normal;font-variant-caps:normal;font-variant-ligatures:normal;font-variant-numeric:normal;font-variant-position:normal;isolation:auto;mix-blend-mode:normal;shape-padding:0;text-decoration-color:#000000;text-decoration-line:none;text-decoration-style:solid;text-indent:0;text-orientation:mixed;text-transform:none;white-space:normal"/>
  </g>
  <circle cx="8.4935" cy="288.53" r="1.5693" fill="none" stroke="#ff4437" stroke-width=".3132"/>
  <g transform="matrix(1.1838 0 0 1.1838 -.83181 -52.91)">
   <path d="m7.6232 288.13s0.91926 0.0593 1.2257-0.14799c0.30642-0.20718 1.2016-0.8131 2.1845-0.8131" fill="none" stroke="#ff4437" stroke-width=".29432"/>
  </g>
  <path d="m8.5106 289.03s1.0882 0.0702 1.4509-0.17518c0.36273-0.24525 1.4224-0.96252 2.586-0.96252" fill="none" stroke="#ff4437" stroke-width=".3484"/>
  <ellipse cx="-39.434" cy="286.51" r=".90502" fill="#5e4aa6" fill-rule="evenodd" stroke-width=".26458"/>
 </g>
</svg>
