<svg width="64" height="64" version="1.1" viewBox="0 0 16.933 16.933" xmlns="http://www.w3.org/2000/svg">
 <defs>
  <linearGradient id="a" x1="-6.1738" x2="-6.1738" y1="-126.08" y2="-126.7" gradientTransform="matrix(.58348 0 0 .39244 11.842 58.06)" gradientUnits="userSpaceOnUse">
   <stop stop-color="#fafafa" offset="0"/>
   <stop stop-color="#c8c8c8" offset="1"/>
  </linearGradient>
 </defs>
 <circle cx="-330.35" cy="-328.38" r="0" fill="#5e4aa6" stroke-width=".26458"/>
 <circle cx="-39.434" cy="6.44" r="0" fill="#5e4aa6" fill-rule="evenodd" stroke-width=".26458"/>
 <circle cx="8.4935" cy="8.73" r="7.9375" opacity=".2" stroke-width=".14032"/>
 <circle cx="8.4935" cy="8.46" r="7.9375" fill="#fafafa" stroke-width=".14032"/>
 <path d="m0.55653 8.36c-2.0882e-4 0.0775 3.0845e-4 0.12355 0.003846 0.2h15.866c0.0046-0.0718 0.0056-0.12627 0.0034-0.2z" fill="url(#a)" stroke-width=".12661"/>
 <g transform="matrix(.95271 0 0 .95271 .46385 -7.0096)" fill="#333" stroke-width=".2456" aria-label="26">
  <path d="m7.7515 19.756h-4.4404v-0.47154l2.0139-2.0925q0.50102-0.52066 0.84485-0.93326 0.34383-0.4126 0.52066-0.8252 0.17683-0.4126 0.17683-0.92344 0-0.6582-0.38313-1.0119-0.38313-0.36348-1.0315-0.36348-0.47154 0-0.88414 0.167-0.4126 0.167-0.81538 0.48137l-0.30454-0.39295q0.43225-0.35366 0.94309-0.55013t1.061-0.19648q0.90379 0 1.4441 0.50102 0.55013 0.50102 0.55013 1.336 0 0.56978-0.2063 1.0413-0.2063 0.47154-0.57961 0.92344t-0.87432 0.96274l-1.7585 1.8076v0.01965h3.7232z"/>
  <path d="m8.9992 16.77q0-1.2574 0.31436-2.1809 0.31436-0.93326 0.99221-1.4441 0.68767-0.51084 1.7683-0.51084 0.53049 0 0.91362 0.10806v0.50102q-0.38313-0.13753-0.90379-0.13753-1.2673 0-1.8764 0.85467-0.60908 0.85467-0.6582 2.4265h0.039295q0.2063-0.3733 0.6582-0.67784 0.46172-0.30454 1.1985-0.30454 0.94309 0 1.4932 0.56978 0.55013 0.55996 0.55013 1.5423 0 1.061-0.57961 1.6995-0.56978 0.63855-1.5816 0.63855-0.75643 0-1.2771-0.39295-0.52066-0.40278-0.78591-1.0904-0.26524-0.69749-0.26524-1.6013zm2.3184 2.5935q0.75644 0 1.1789-0.47154 0.43225-0.47154 0.43225-1.3753 0-0.76626-0.39295-1.2083t-1.1789-0.44207q-0.54031 0-0.94309 0.22595-0.39295 0.21612-0.60908 0.54031-0.21612 0.32419-0.21612 0.63855 0 0.31436 0.088414 0.67784 0.088415 0.35366 0.28489 0.67784 0.2063 0.32419 0.54031 0.53049 0.33401 0.2063 0.81538 0.2063z"/>
 </g>
 <path d="m0.55604 8.46v-2e-3c0-4.3838 3.5537-7.9365 7.9375-7.9365s7.9375 3.5537 7.9375 7.9375z" fill="#b4b4b4" fill-opacity=".19608" stroke-width=".14032"/>
</svg>
