<svg width="64" height="64" version="1.1" viewBox="0 0 16.933 16.933" xmlns="http://www.w3.org/2000/svg" xmlns:xlink="http://www.w3.org/1999/xlink">
 <g transform="translate(0 -280.07)">
  <circle cx="-330.35" cy="-48.312" r="0" fill="#5e4aa6" stroke-width=".26458"/>
  <circle cx="8.4935" cy="288.8" r="7.9375" opacity=".2" stroke-width=".14032"/>
  <circle cx="8.4935" cy="288.53" r="7.9375" fill="#fafafa" stroke-width=".14032"/>
  <path d="m13.098 289.27a0.29477 0.23607 0 0 0-0.2943-0.23606 0.29477 0.23607 0 0 0-4.63e-4 0h-4.6569a0.29477 0.23607 0 0 0-4.62e-4 0 0.29477 0.23607 0 0 0-0.2943 0.23606 0.29477 0.23607 0 0 0 0.2943 0.23607 0.29477 0.23607 0 0 0 4.62e-4 0h4.6569a0.29477 0.23607 0 0 0 4.63e-4 0 0.29477 0.23607 0 0 0 0.2943-0.23607z" fill-rule="evenodd" opacity=".2"/>
  <path transform="matrix(.25966 0 0 .25695 .10473 281.3)" d="m31.477 28.027c-1.3807 0-2.5 1.1193-2.5 2.5 7.07e-4 0.06521 4e-3 0.13036 0.0098 0.19531-1.5306 2.8578-13.854 13.291-13.854 13.291l0.86715 0.87305s12.121-10.571 15.25-11.869c0.07533 0.0067 0.15093 0.0099 0.22656 0.0098 1.3807 0 2.5-1.1193 2.5-2.5s-1.1193-2.5-2.5-2.5z" fill="#ff3232" fill-rule="evenodd" opacity=".3"/>
  <g transform="translate(-.053508)" fill-rule="evenodd">
   <path d="m8.1326 284.13a0.29398 0.29733 0 0 0-0.29398 0.29686 0.29398 0.29733 0 0 0 0 4.7e-4v4.6974a0.29398 0.29733 0 0 0 0 4.7e-4 0.29398 0.29733 0 0 0 0.29398 0.29686 0.29398 0.29733 0 0 0 0.29398-0.29686 0.29398 0.29733 0 0 0 0-4.7e-4v-4.6974a0.29398 0.29733 0 0 0 0-4.7e-4 0.29398 0.29733 0 0 0-0.29398-0.29686z"/>
   <path d="m13.16 289.16a0.29731 0.29396 0 0 0-0.29684-0.29395 0.29731 0.29396 0 0 0-4.67e-4 0h-4.697a0.29731 0.29396 0 0 0-4.66e-4 0 0.29731 0.29396 0 0 0-0.29684 0.29395 0.29731 0.29396 0 0 0 0.29684 0.29395 0.29731 0.29396 0 0 0 4.66e-4 0h4.697a0.29731 0.29396 0 0 0 4.67e-4 0 0.29731 0.29396 0 0 0 0.29684-0.29395z"/>
   <path d="m8.2587 288.37c-0.36531 0-0.66146 0.29614-0.66146 0.66146 1.87e-4 0.0173 0.0011 0.0345 0.0026 0.0517-0.40497 0.75612-3.6654 3.5166-3.6654 3.5166l0.22943 0.231s3.2071-2.797 4.0349-3.1404c0.01993 2e-3 0.03993 3e-3 0.05995 3e-3 0.36531 0 0.66146-0.29614 0.66146-0.66145 0-0.36532-0.29614-0.66146-0.66146-0.66146z" fill="#ea4348"/>
   <circle cx="8.2649" cy="289.03" r=".39687" fill="#fff"/>
  </g>
  <ellipse cx="-39.434" cy="286.51" r=".90502" fill="#5e4aa6" fill-rule="evenodd" stroke-width=".26458"/>
 </g>
</svg>
