<?xml version="1.0" encoding="UTF-8"?>
<svg width="64" height="64" version="1.1" viewBox="0 0 16.933 16.933" xmlns="http://www.w3.org/2000/svg" xmlns:cc="http://creativecommons.org/ns#" xmlns:dc="http://purl.org/dc/elements/1.1/" xmlns:rdf="http://www.w3.org/1999/02/22-rdf-syntax-ns#" xmlns:xlink="http://www.w3.org/1999/xlink">
 <metadata>
  <rdf:RDF>
   <cc:Work rdf:about="">
    <dc:format>image/svg+xml</dc:format>
    <dc:type rdf:resource="http://purl.org/dc/dcmitype/StillImage"/>
    <dc:title/>
   </cc:Work>
  </rdf:RDF>
 </metadata>
 <defs>
  <linearGradient id="linearGradient870" x1="2.5135" x2="14.348" y1="8.4665" y2="2.6548" gradientUnits="userSpaceOnUse">
   <stop stop-color="#3287ff" offset="0"/>
   <stop stop-color="#32b4ff" offset="1"/>
  </linearGradient>
 </defs>
 <circle cx="8.4665" cy="8.7311" r="7.9373" opacity=".25" stroke-width=".26458" style="paint-order:stroke markers fill"/>
 <rect x=".5292" y=".5298" width="15.874" height="15.874" ry="7.9368" fill="#f9f9f9" stroke-width=".26762"/>
 <path d="m8.4665 2.5136c-3.2845 0-5.953 2.6686-5.953 5.9529s2.6685 5.9529 5.953 5.9529 5.953-2.6686 5.953-5.9529-2.6685-5.9529-5.953-5.9529zm0 0.56668c2.9779 0 5.3861 2.4081 5.3861 5.3862s-2.4082 5.3862-5.3861 5.3862-5.3861-2.4081-5.3861-5.3862 2.4082-5.3862 5.3861-5.3862zm-1.41e-4 1.4177a1.1339 1.1339 0 0 0-1.1339 1.1339 1.1339 1.1339 0 0 0 1.1339 1.1339 1.1339 1.1339 0 0 0 1.1339-1.1339 1.1339 1.1339 0 0 0-1.1339-1.1339zm-3.4017 2.8348v0.56695l0.70288 0.0011c0.29548-3e-6 0.54656 0.04263 0.75326 0.13316 0.20305 0.08436 0.36958 0.20876 0.49193 0.37151 0.12537 0.15615 0.21243 0.34404 0.26133 0.5592 0.04924 0.21665 0.05635 0.44543 0.07142 0.68738l2.95e-4 0.0033-0.0053 2.78h0.55892v-1.9843c0-0.31312 0.25383-0.56695 0.56695-0.56695s0.56695 0.25383 0.56695 0.56695v1.9843h0.56695l0.0053-2.7766c5.36e-4 -0.25086 0.02387-0.48233 0.07198-0.69402 0.04898-0.21552 0.13618-0.40373 0.26188-0.56003 0.12236-0.16239 0.28884-0.28675 0.49165-0.37096 0.2066-0.09037 0.49911-0.13288 0.75271-0.13288h0.68433v-0.56806z" enable-background="new" fill="url(#linearGradient870)"/>
 <circle cx="-304.04" cy="-339.49" r="0" fill="#5e4aa6" stroke-width=".26458"/>
 <circle cx="-13.129" cy="-4.6662" r="0" fill="#5e4aa6" fill-rule="evenodd" stroke-width=".26458"/>
</svg>
