<?xml version="1.0" encoding="UTF-8"?>
<svg width="64" height="64" version="1.1" viewBox="0 0 16.933 16.933" xmlns="http://www.w3.org/2000/svg" xmlns:cc="http://creativecommons.org/ns#" xmlns:dc="http://purl.org/dc/elements/1.1/" xmlns:rdf="http://www.w3.org/1999/02/22-rdf-syntax-ns#" xmlns:xlink="http://www.w3.org/1999/xlink">
 <defs>
  <style type="text/css"/>
 </defs>
 <metadata>
  <rdf:RDF>
   <cc:Work rdf:about="">
    <dc:format>image/svg+xml</dc:format>
    <dc:type rdf:resource="http://purl.org/dc/dcmitype/StillImage"/>
    <dc:title/>
   </cc:Work>
  </rdf:RDF>
 </metadata>
 <g fill="#5e4aa6" stroke-width=".26458">
  <circle cx="-330.35" cy="-328.38" r="0"/>
  <circle cx="-330.35" cy="-328.37" r="0"/>
  <circle cx="-330.35" cy="-328.37" r="0"/>
  <circle cx="-352.63" cy="-336.83" r="0"/>
 </g>
 <g transform="translate(-22.7 -8.1012)" fill="#5e4aa6" stroke-width=".26458">
  <circle cx="-330.35" cy="-328.38" r="0"/>
  <circle cx="-312.11" cy="-326.25" r="0"/>
  <circle cx="-306.02" cy="-333.07" r="0"/>
  <circle cx="-308.84" cy="-326.01" r="0"/>
 </g>
 <circle cx="8.4665" cy="8.6015" r="7.9375" opacity=".2" stroke-width=".14032"/>
 <circle cx="8.4665" cy="8.3315" r="7.9375" fill="#fafafa" style="paint-order:normal"/>
 <circle cx="-330.38" cy="-328.51" r="0" fill="#5e4aa6" stroke-width=".26458"/>
 <g transform="matrix(.87391 0 0 .87391 2.0097 -243.39)">
  <g transform="rotate(-11.451,10.144,297.59)" fill="#828282" opacity=".5">
   <path class="st0" d="m9.1426 284.31c1.7329 0 3.1374 1.4046 3.1374 3.1374 0 1.7329-1.4045 3.1374-3.1374 3.1374s-3.1374-1.4045-3.1374-3.1374 1.4045-3.1374 3.1374-3.1374z" clip-rule="evenodd" fill-rule="evenodd" opacity=".5" stroke-width=".15711"/>
   <rect class="st1" transform="rotate(-29.829)" x="-135.36" y="256.88" width=".64098" height="1.6292" stroke-width=".1571"/>
   <g clip-rule="evenodd" fill-rule="evenodd" stroke-width=".15711">
    <path class="st2" d="m10.995 291.69 0.88922-0.50902c0.12254-0.0707 0.27965-0.0268 0.35034 0.0943l1.6559 2.8892c0.07069 0.1226 0.02828 0.27965-0.09426 0.35033l-0.88922 0.50904c-0.12254 0.0707-0.27965 0.0283-0.35035-0.0943l-1.6559-2.8892c-0.07069-0.12259-0.02828-0.27966 0.09426-0.35036z"/>
    <path class="st3" d="m12.516 291.76 0.14454 0.25295-1.3307 0.76825-0.14454-0.25137zm0.25451 0.44461-1.3307 0.76825 0.14454 0.25294 1.3307-0.76825z"/>
    <path class="st4" d="m7.361 284.32c1.7187-0.98506 3.9104-0.3912 4.8954 1.3275 0.98505 1.7187 0.39119 3.9104-1.3275 4.8954-1.7187 0.98504-3.9104 0.39118-4.8954-1.3276-0.98505-1.7172-0.38962-3.9088 1.3275-4.8954zm0.30164 0.52473c-1.4281 0.81851-1.923 2.641-1.1029 4.069 0.81852 1.4281 2.6409 1.923 4.0706 1.1044 1.4281-0.81852 1.923-2.6409 1.1029-4.0706-0.82009-1.4281-2.6425-1.9214-4.0706-1.1029z"/>
   </g>
  </g>
  <path class="st0" d="m6.4761 284.53c1.6984-0.34401 3.3538 0.75375 3.6978 2.4521 0.34402 1.6984-0.75372 3.3538-2.4521 3.6978-1.6984 0.34402-3.3538-0.75372-3.6978-2.4521-0.34401-1.6984 0.75372-3.3538 2.4521-3.6978z" clip-rule="evenodd" fill="#fff" fill-rule="evenodd" opacity=".5" stroke-width=".15711"/>
  <rect class="st1" transform="rotate(-41.279)" x="-184.71" y="223.78" width=".64098" height="1.6292" fill="#757575" stroke-width=".1571"/>
  <g clip-rule="evenodd" fill-rule="evenodd" stroke-width=".15711">
   <path class="st2" d="m9.7555 291.39 0.77047-0.67541c0.10606-0.0936 0.26876-0.0818 0.36209 0.0229l2.1965 2.5029c0.09362 0.10613 0.08323 0.26847-0.02284 0.36207l-0.77046 0.67544c-0.10607 0.0936-0.26847 0.0833-0.36209-0.0229l-2.1965-2.5029c-0.09362-0.10611-0.08324-0.26848 0.02283-0.36209z" fill="#424242"/>
   <path class="st3" d="m11.261 291.16 0.19188 0.21922-1.1517 1.0171-0.19157-0.21767zm0.33771 0.38524-1.1517 1.0171 0.19188 0.21921 1.1517-1.0171z" fill="#757575"/>
   <path class="st4" d="m4.7315 284.89c1.489-1.3067 3.7549-1.1597 5.0615 0.32927 1.3067 1.489 1.1597 3.7549-0.32927 5.0615-1.489 1.3066-3.7549 1.1597-5.0615-0.32928-1.3063-1.4874-1.1578-3.7536 0.32927-5.0615zm0.39981 0.4544c-1.2372 1.0857-1.3604 2.9701-0.27314 4.207 1.0857 1.2372 2.9701 1.3604 4.2088 0.27436 1.2372-1.0857 1.3604-2.9701 0.27282-4.2085-1.0873-1.2368-2.9714-1.3586-4.2085-0.27282z" fill="#616161"/>
  </g>
 </g>
</svg>
