<svg width="64" height="64" version="1.1" viewBox="0 0 16.933 16.933" xmlns="http://www.w3.org/2000/svg" xmlns:xlink="http://www.w3.org/1999/xlink">
 <defs>
  <linearGradient id="b" x1="-6.1472" x2="-6.1472" y1="-137.82" y2="-100.78" gradientTransform="matrix(.53033 0 0 .53033 11.536 352.06)" gradientUnits="userSpaceOnUse">
   <stop stop-color="#14dc78" offset="0"/>
   <stop stop-color="#14a03c" offset="1"/>
  </linearGradient>
  <linearGradient id="a" x1="-6.1738" x2="-6.1738" y1="-126.08" y2="-126.7" gradientTransform="matrix(.53033 0 0 .53033 11.537 352.06)" gradientUnits="userSpaceOnUse">
   <stop stop-color="#14e650" offset="0"/>
   <stop stop-color="#148232" offset="1"/>
  </linearGradient>
 </defs>
 <g transform="translate(0 -280.07)">
  <g>
   <circle cx="-330.35" cy="-48.312" r="0" fill="#5e4aa6" stroke-width=".26458"/>
   <circle cx="8.4935" cy="288.8" r="7.9375" opacity=".2" stroke-width=".14032"/>
   <circle cx="8.4935" cy="288.53" r="7.9375" fill="url(#b)" stroke-width=".14032"/>
   <path d="m1.4351 284.9c-0.04528 0.0893-0.0899 0.17936-0.13178 0.27027h14.38c-0.03999-0.0909-0.08789-0.18097-0.13126-0.27027z" fill="url(#a)" stroke-width=".14032"/>
   <circle cx="5.3171" cy="283.16" r=".66138" fill="#146432" fill-rule="evenodd" opacity=".5" stroke-width=".31275"/>
   <circle cx="11.932" cy="283.16" r=".66138" fill="#146432" fill-rule="evenodd" opacity=".5" stroke-width=".31275"/>
  </g>
  <path d="m5.3793 283.69s0.00178 4.2022 3.3892 4.2022c3.1469 0.0161 3.1469-4.2022 3.1469-4.2022" fill="none" opacity=".5" stroke="#146432" stroke-width=".25999px"/>
  <path d="m5.3276 283.18s0.0018 4.2995 3.4305 4.2995c3.1853 0.0165 3.1853-4.2995 3.1853-4.2995" fill="none" stroke="#fff" stroke-width=".26458px"/>
  <g>
   <ellipse cx="-39.434" cy="286.51" r=".90502" fill="#5e4aa6" fill-rule="evenodd" stroke-width=".26458"/>
   <g stroke-width=".14788">
    <path d="m6.4877 291.55c-0.090957-5e-3 -0.17771 0.0914-0.16545 0.1547 0.15676 0.94127 0.16499 1.8202 0 2.7901-0.011497 0.0638 0.074499 0.15796 0.16545 0.15472h4.0099c0.09281 4e-3 0.17818-0.0909 0.16731-0.15472-0.16498-0.96929-0.16731-1.8598 0-2.7901 0.01215-0.0638-0.07449-0.15964-0.16731-0.1547-1.3562 0.0666-2.6882 0.0556-4.0099 0" fill="#149646"/>
    <path d="m7.4065 292.18c0 0.1167-0.1043 0.21136-0.23281 0.21136-0.12851 0-0.23281-0.0946-0.23281-0.21136 0-0.11669 0.1043-0.21136 0.23281-0.21136 0.12851 0 0.23281 0.0947 0.23281 0.21136" fill="#14aa50"/>
    <path d="m10.045 292.18c0 0.1167-0.1043 0.21136-0.23281 0.21136-0.12851 0-0.23281-0.0946-0.23281-0.21136 0-0.11669 0.1043-0.21136 0.23281-0.21136 0.12851 0 0.23281 0.0947 0.23281 0.21136" fill="#14aa50"/>
    <path d="m7.1737 292.25c-0.0776 0-0.0776-0.0814-0.0776-0.1409 0-0.56504 0.46562-1.2682 1.3969-1.2682 0.93062 0 1.3969 0.70284 1.3969 1.2682 0 0.0595 0 0.1409-0.0776 0.1409s-0.0776-0.0814-0.0776-0.1409c0-0.4464-0.46562-1.1272-1.2417-1.1272-0.77603 0-1.2417 0.68085-1.2417 1.1272 0 0.0595 0 0.1409-0.07698 0.1409" fill="#14d264"/>
   </g>
   <circle cx="5.3171" cy="283.11" r=".66138" fill="#fff" fill-rule="evenodd" stroke-width=".31275"/>
   <circle cx="11.932" cy="283.11" r=".66138" fill="#fff" fill-rule="evenodd" stroke-width=".31275"/>
  </g>
 </g>
</svg>
