<?xml version="1.0" encoding="UTF-8" standalone="no"?>
<svg
   xmlns:dc="http://purl.org/dc/elements/1.1/"
   xmlns:cc="http://creativecommons.org/ns#"
   xmlns:rdf="http://www.w3.org/1999/02/22-rdf-syntax-ns#"
   xmlns:svg="http://www.w3.org/2000/svg"
   xmlns="http://www.w3.org/2000/svg"
   xmlns:sodipodi="http://sodipodi.sourceforge.net/DTD/sodipodi-0.dtd"
   xmlns:inkscape="http://www.inkscape.org/namespaces/inkscape"
   inkscape:version="1.0 (4035a4fb49, 2020-05-01)"
   sodipodi:docname="software-properties.svg"
   id="svg59"
   viewBox="0 0 16.933 16.933"
   version="1.1"
   height="64"
   width="64">
  <metadata
     id="metadata63">
    <rdf:RDF>
      <cc:Work
         rdf:about="">
        <dc:format>image/svg+xml</dc:format>
        <dc:type
           rdf:resource="http://purl.org/dc/dcmitype/StillImage" />
        <dc:title></dc:title>
      </cc:Work>
    </rdf:RDF>
  </metadata>
  <sodipodi:namedview
     inkscape:current-layer="svg59"
     inkscape:window-maximized="1"
     inkscape:window-y="36"
     inkscape:window-x="0"
     inkscape:cy="22.013637"
     inkscape:cx="15.681162"
     inkscape:zoom="4.2150193"
     showgrid="false"
     id="namedview61"
     inkscape:window-height="932"
     inkscape:window-width="1920"
     inkscape:pageshadow="2"
     inkscape:pageopacity="0"
     guidetolerance="10"
     gridtolerance="10"
     objecttolerance="10"
     borderopacity="1"
     bordercolor="#666666"
     pagecolor="#ffffff" />
  <defs
     id="defs35">
    <linearGradient
       gradientTransform="translate(22.934197)"
       gradientUnits="userSpaceOnUse"
       y2="15.436"
       y1="1.483"
       x2="8.6487"
       x1="8.6487"
       id="linearGradient1029">
      <stop
         id="stop2"
         offset="0"
         stop-color="#17b7f1" />
      <stop
         id="stop4"
         offset="1"
         stop-color="#1763e1" />
    </linearGradient>
    <linearGradient
       gradientUnits="userSpaceOnUse"
       gradientTransform="matrix(0.99609,0,0,0.99609,2,2)"
       y2="1026"
       y1="2.0078"
       x2="499.95"
       x1="499.95"
       id="h">
      <stop
         id="stop7"
         offset="0"
         stop-color="#fff" />
      <stop
         id="stop9"
         offset="1"
         stop-color="#d7d7d7" />
    </linearGradient>
    <radialGradient
       gradientUnits="userSpaceOnUse"
       gradientTransform="matrix(0.97625,0,0,0.97625,12.152,12.141)"
       r="470.16"
       cy="512.01"
       cx="512.01"
       id="i">
      <stop
         id="stop12"
         offset="0"
         stop-opacity="0" />
      <stop
         id="stop14"
         offset="1"
         stop-opacity=".52593" />
    </radialGradient>
    <filter
       color-interpolation-filters="sRGB"
       height="1.096"
       width="1.096"
       y="-.048"
       x="-.048"
       id="g">
      <feGaussianBlur
         id="feGaussianBlur17"
         stdDeviation="6.174" />
    </filter>
    <linearGradient
       gradientUnits="userSpaceOnUse"
       gradientTransform="matrix(2.6682,0,0,2.6682,-5700.6,-128.41)"
       y2="45.726"
       y1="435.51"
       x2="2331.3"
       x1="2331.3"
       id="f">
      <stop
         id="stop20"
         offset=".057692"
         stop-color="#807c76" />
      <stop
         id="stop22"
         offset=".38462"
         stop-color="#d4d7d0" />
      <stop
         id="stop24"
         offset=".55769"
         stop-color="#bdbfba" />
      <stop
         id="stop26"
         offset=".63462"
         stop-color="#acb3ac" />
      <stop
         id="stop28"
         offset=".75"
         stop-color="#dadfda" />
      <stop
         id="stop30"
         offset=".86274"
         stop-color="#c2c7c1" />
      <stop
         id="stop32"
         offset=".94118"
         stop-color="#7f7a75" />
    </linearGradient>
    <linearGradient
       id="b"
       x1="-6.1472"
       x2="-6.1472"
       y1="-137.82"
       y2="-100.78"
       gradientTransform="matrix(0.53033,0,0,0.53033,11.536,352.06)"
       gradientUnits="userSpaceOnUse">
      <stop
         stop-color="#14dc78"
         offset="0"
         id="stop888" />
      <stop
         stop-color="#14a03c"
         offset="1"
         id="stop890" />
    </linearGradient>
    <linearGradient
       id="a"
       x1="-6.1738"
       x2="-6.1738"
       y1="-126.08"
       y2="-126.7"
       gradientTransform="matrix(0.53033,0,0,0.53033,11.537,352.06)"
       gradientUnits="userSpaceOnUse">
      <stop
         stop-color="#14e650"
         offset="0"
         id="stop893" />
      <stop
         stop-color="#148232"
         offset="1"
         id="stop895" />
    </linearGradient>
    <linearGradient
       id="c"
       x1="200"
       x2="200"
       y1="268"
       y2="44"
       gradientTransform="matrix(0.086563,0,0,0.086563,-19.285,288.52)"
       gradientUnits="userSpaceOnUse">
      <stop
         stop-color="#e6e6e6"
         offset="0"
         id="stop969" />
      <stop
         stop-color="#d3d3d3"
         offset="1"
         id="stop971" />
    </linearGradient>
    <linearGradient
       id="d"
       x1="152"
       x2="152"
       y1="100"
       y2="212"
       gradientTransform="translate(-64,-68)"
       gradientUnits="userSpaceOnUse">
      <stop
         stop-opacity="0"
         offset="0"
         id="stop974" />
      <stop
         offset=".5"
         id="stop976" />
      <stop
         stop-opacity="0"
         offset="1"
         id="stop978" />
    </linearGradient>
    <filter
       id="a-3"
       x="-.024"
       y="-.024"
       width="1.048"
       height="1.048"
       color-interpolation-filters="sRGB">
      <feGaussianBlur
         stdDeviation="1.5000091"
         id="feGaussianBlur981" />
    </filter>
    <linearGradient
       id="b-6"
       x1="152"
       x2="152"
       y1="124"
       y2="236"
       gradientUnits="userSpaceOnUse">
      <stop
         offset="0"
         id="stop984" />
      <stop
         stop-opacity="0"
         offset="1"
         id="stop986" />
    </linearGradient>
    <clipPath
       id="f-7">
      <path
         d="m152 68c-48.601 0-88 39.399-88 88s39.399 88 88 88 88-39.399 88-88-39.399-88-88-88z"
         color="#000000"
         fill="#5d5d5d"
         id="path989" />
    </clipPath>
    <filter
       id="e"
       x="-.06"
       y="-.06"
       width="1.12"
       height="1.12"
       color-interpolation-filters="sRGB">
      <feGaussianBlur
         stdDeviation="4.4"
         id="feGaussianBlur992" />
    </filter>
    <linearGradient
       id="linearGradient1029-5"
       x1="8.6487"
       x2="8.6487"
       y1="1.483"
       y2="15.436"
       gradientUnits="userSpaceOnUse">
      <stop
         stop-color="#17b7f1"
         offset="0"
         id="stop1077" />
      <stop
         stop-color="#1763e1"
         offset="1"
         id="stop1079" />
    </linearGradient>
    <radialGradient
       id="i-3"
       cx="512.01"
       cy="512.01"
       r="470.16"
       gradientTransform="matrix(0.97625,0,0,0.97625,12.152,12.141)"
       gradientUnits="userSpaceOnUse">
      <stop
         stop-opacity="0"
         offset="0"
         id="stop1087" />
      <stop
         stop-opacity=".52593"
         offset="1"
         id="stop1089" />
    </radialGradient>
    <filter
       id="g-5"
       x="-.048"
       y="-.048"
       width="1.096"
       height="1.096"
       color-interpolation-filters="sRGB">
      <feGaussianBlur
         stdDeviation="6.174"
         id="feGaussianBlur1092" />
    </filter>
  </defs>
  <g
     transform="translate(-0.02699976,-280.19849)"
     id="g936">
    <g
       id="g912">
      <circle
         cx="-330.35001"
         cy="-48.312"
         r="0"
         fill="#5e4aa6"
         stroke-width="0.26458"
         id="circle900" />
      <circle
         cx="8.4934998"
         cy="288.79999"
         r="7.9375"
         opacity="0.2"
         stroke-width="0.14032"
         id="circle902" />
      <circle
         style="fill:url(#b)"
         cx="8.4934998"
         cy="288.53"
         r="7.9375"
         fill="url(#b)"
         stroke-width="0.14032"
         id="circle904" />
      <path
         style="fill:url(#a)"
         d="m 1.4351,284.9 c -0.04528,0.0893 -0.0899,0.17936 -0.13178,0.27027 h 14.38 C 15.64333,285.07937 15.59543,284.9893 15.55206,284.9 Z"
         fill="url(#a)"
         stroke-width="0.14032"
         id="path906" />
      <circle
         cx="5.3171"
         cy="283.16"
         r="0.66137999"
         fill="#146432"
         fill-rule="evenodd"
         opacity="0.5"
         stroke-width="0.31275"
         id="circle908" />
      <circle
         cx="11.932"
         cy="283.16"
         r="0.66137999"
         fill="#146432"
         fill-rule="evenodd"
         opacity="0.5"
         stroke-width="0.31275"
         id="circle910" />
    </g>
    <path
       d="m 5.3793,283.69 c 0,0 0.00178,4.2022 3.3892,4.2022 3.1469,0.0161 3.1469,-4.2022 3.1469,-4.2022"
       fill="none"
       opacity="0.5"
       stroke="#146432"
       stroke-width="0.25999px"
       id="path914" />
    <path
       d="m 5.3276,283.18 c 0,0 0.0018,4.2995 3.4305,4.2995 3.1853,0.0165 3.1853,-4.2995 3.1853,-4.2995"
       fill="none"
       stroke="#ffffff"
       stroke-width="0.26458px"
       id="path916" />
    <g
       id="g934">
      <circle
         cx="-39.433998"
         cy="286.51001"
         r="0"
         fill="#5e4aa6"
         fill-rule="evenodd"
         stroke-width="0.26458"
         id="ellipse918" />
      <g
         stroke-width="0.14788"
         id="g928">
        <path
           d="m 6.4877,291.55 c -0.090957,-0.005 -0.17771,0.0914 -0.16545,0.1547 0.15676,0.94127 0.16499,1.8202 0,2.7901 -0.011497,0.0638 0.074499,0.15796 0.16545,0.15472 h 4.0099 c 0.09281,0.004 0.17818,-0.0909 0.16731,-0.15472 -0.16498,-0.96929 -0.16731,-1.8598 0,-2.7901 0.01215,-0.0638 -0.07449,-0.15964 -0.16731,-0.1547 -1.3562,0.0666 -2.6882,0.0556 -4.0099,0"
           fill="#149646"
           id="path920" />
        <path
           d="m 7.4065,292.18 c 0,0.1167 -0.1043,0.21136 -0.23281,0.21136 -0.12851,0 -0.23281,-0.0946 -0.23281,-0.21136 0,-0.11669 0.1043,-0.21136 0.23281,-0.21136 0.12851,0 0.23281,0.0947 0.23281,0.21136"
           fill="#14aa50"
           id="path922" />
        <path
           d="m 10.045,292.18 c 0,0.1167 -0.1043,0.21136 -0.23281,0.21136 -0.12851,0 -0.23281,-0.0946 -0.23281,-0.21136 0,-0.11669 0.1043,-0.21136 0.23281,-0.21136 0.12851,0 0.23281,0.0947 0.23281,0.21136"
           fill="#14aa50"
           id="path924" />
        <path
           d="m 7.1737,292.25 c -0.0776,0 -0.0776,-0.0814 -0.0776,-0.1409 0,-0.56504 0.46562,-1.2682 1.3969,-1.2682 0.93062,0 1.3969,0.70284 1.3969,1.2682 0,0.0595 0,0.1409 -0.0776,0.1409 -0.0776,0 -0.0776,-0.0814 -0.0776,-0.1409 0,-0.4464 -0.46562,-1.1272 -1.2417,-1.1272 -0.77603,0 -1.2417,0.68085 -1.2417,1.1272 0,0.0595 0,0.1409 -0.07698,0.1409"
           fill="#14d264"
           id="path926" />
      </g>
      <circle
         cx="5.3171"
         cy="283.10999"
         r="0.66137999"
         fill="#ffffff"
         fill-rule="evenodd"
         stroke-width="0.31275"
         id="circle930" />
      <circle
         cx="11.932"
         cy="283.10999"
         r="0.66137999"
         fill="#ffffff"
         fill-rule="evenodd"
         stroke-width="0.31275"
         id="circle932" />
    </g>
  </g>
  <circle
     cx="-307.87344"
     cy="-327.46948"
     r="0"
     fill="#5e4aa6"
     stroke-width="0.26458"
     id="circle997" />
  <circle
     cx="-16.957432"
     cy="7.35253"
     r="0"
     fill="#5e4aa6"
     fill-rule="evenodd"
     stroke-width="0.26458"
     id="circle1003" />
  <g
     transform="translate(-0.28676682,0.08249059)"
     id="g1207">
    <circle
       id="circle999"
       stroke-width="0.0748359"
       opacity="0.2"
       r="4.2332501"
       cy="12.223257"
       cx="12.457517" />
    <circle
       id="circle1001"
       stroke-width="0.0748359"
       fill="#fafafa"
       r="4.2332501"
       cy="11.953268"
       cx="12.457517" />
    <g
       transform="matrix(0.38898968,0,0,0.38890434,14.826804,-105.50042)"
       id="g1023">
      <circle
         transform="scale(1,-1)"
         cx="-6.1279001"
         cy="-302.01999"
         r="7.6174998"
         color="#000000"
         fill="#5d5d5d"
         id="circle1007" />
      <path
         d="M -13.745,302.02 A 7.6175,7.6175 0 0 1 -6.1275,294.4025 7.6175,7.6175 0 0 1 1.49,302.02 Z"
         color="#000000"
         opacity="0.05"
         id="path1009" />
      <path
         transform="matrix(0.086563,0,0,0.086563,-19.285,288.52)"
         d="m 152,70 c -48.601,0 -88,39.399 -88,88 0,48.601 39.399,88 88,88 48.601,0 88,-39.399 88,-88 0,-48.601 -39.399,-88 -88,-88 z"
         clip-path="url(#f-7)"
         color="#000000"
         fill="none"
         filter="url(#e)"
         opacity="0.2"
         stroke="url(#b)"
         stroke-linejoin="round"
         stroke-width="10"
         id="path1011"
         style="stroke:url(#b-6)" />
      <path
         transform="matrix(0.086563,0,0,0.086563,-13.745,294.41)"
         d="m 88,15.006 c -5.3937,-0.05998 -7.2804,0.14029 -8.0391,6.6621 l -0.28906,2.3047 c -0.66573,4.2298 -0.793,6.1452 -4.7949,7.1816 -0.26817,0.0599 -0.53589,0.12007 -0.80273,0.18359 -0.0631,0.013 -0.11886,0.0282 -0.1836,0.041 l 0.008,0.002 c -1.0104,0.24375 -2.0099,0.51443 -3,0.80859 l 0.01,-0.0117 c -0.16537,0.0565 -0.31605,0.10151 -0.47265,0.15039 -0.14986,0.0458 -0.29985,0.0898 -0.44922,0.13672 -4.0215,1.1281 -5.0854,-0.46762 -7.7871,-3.8106 l -1.4043,-1.8516 c -1.959,-2.6344 -3.3698,-3.7587 -4.873,-3.8809 -0.18789,-0.01527 -0.37832,-0.01507 -0.57032,0 -1.3439,0.10545 -2.8172,0.93022 -4.8476,2.1328 -4.7011,2.6449 -6.2347,3.7597 -3.6309,9.7871 l 0.90039,2.1406 c 1.6564,4.3025 2.5183,5.9673 -1.3027,9.3047 l 0.10157,-0.0234 c -0.78976,0.74858 -1.558,1.5188 -2.3066,2.3086 l 0.0215,-0.10157 c -3.3374,3.8211 -5.0022,2.9591 -9.3047,1.3027 l -2.1406,-0.90235 c -1.8836,-0.81371 -3.2874,-1.2228 -4.4082,-1.2578 -2.4657,-0.0772 -3.5605,1.6567 -5.3789,4.8887 -2.7488,4.6411 -3.5207,6.375 1.748,10.293 l 1.8516,1.4043 c 3.3429,2.7017 4.9387,3.7656 3.8105,7.7871 -0.04698,0.14937 -0.09087,0.29936 -0.13672,0.44922 -0.04894,0.1566 -0.09193,0.30729 -0.14844,0.47265 l 0.0098,-0.01 c -0.29416,0.99009 -0.56485,1.9896 -0.80859,3 l -0.002,-0.008 c -0.01271,0.0647 -0.02795,0.12053 -0.04102,0.1836 -0.06352,0.26684 -0.12365,0.53456 -0.18359,0.80273 -1.0365,4.0019 -2.9518,4.1292 -7.1816,4.7949 l -2.3047,0.28906 c -6.5218,0.75868 -6.7221,2.6454 -6.6621,8.0391 -0.05998,5.3937 0.14028,7.2804 6.6621,8.0391 l 2.3047,0.28906 c 4.2298,0.66573 6.1452,0.793 7.1816,4.7949 0.05994,0.26818 0.12007,0.5359 0.18359,0.80273 0.01301,0.0631 0.02824,0.11886 0.04102,0.1836 l 0.002,-0.008 c 0.24375,1.0104 0.51443,2.0099 0.80859,3 l -0.01172,-0.01 c 0.0565,0.16537 0.10147,0.31605 0.15039,0.47265 0.04582,0.14985 0.08974,0.29986 0.13672,0.44922 1.1281,4.0215 -0.46762,5.0854 -3.8105,7.7871 l -1.8516,1.4043 c -5.2687,3.9179 -4.4968,5.6499 -1.748,10.291 2.6449,4.7011 3.7597,6.2347 9.7871,3.6309 l 2.1406,-0.90039 c 4.3025,-1.6564 5.9673,-2.5183 9.3047,1.3027 l -0.0234,-0.10157 c 0.74858,0.78976 1.5188,1.5581 2.3086,2.3066 l -0.10157,-0.0215 c 3.8211,3.3374 2.9591,5.0022 1.3027,9.3047 l -0.90235,2.1406 c -2.6039,6.0274 -1.0702,7.1441 3.6309,9.7891 4.6411,2.7488 6.375,3.5187 10.293,-1.75 l 1.4043,-1.8516 c 2.7017,-3.3429 3.7656,-4.9386 7.7871,-3.8105 0.14937,0.047 0.29936,0.0909 0.44922,0.13672 0.1566,0.0489 0.30728,0.0938 0.47265,0.15039 l -0.01,-0.0117 c 0.99009,0.29416 1.9896,0.56484 3,0.80859 l -0.008,0.002 c 0.0647,0.0128 0.12053,0.028 0.1836,0.041 0.26684,0.0635 0.53456,0.12365 0.80273,0.18359 4.0019,1.0365 4.1292,2.9518 4.7949,7.1816 l 0.28906,2.3047 c 0.75867,6.5218 2.6453,6.7221 8.0391,6.6621 5.3937,0.06 7.2804,-0.14029 8.0391,-6.6621 l 0.28906,-2.3047 c 0.66576,-4.2298 0.79299,-6.1452 4.7949,-7.1816 0.26817,-0.06 0.5359,-0.12007 0.80273,-0.18359 0.0631,-0.0131 0.11886,-0.0281 0.1836,-0.041 l -0.008,-0.002 c 1.0104,-0.24375 2.0099,-0.51443 3,-0.80859 l -0.01,0.0117 c 0.16536,-0.0565 0.31604,-0.10151 0.47265,-0.15039 0.14985,-0.0458 0.29986,-0.0897 0.44922,-0.13672 4.0215,-1.1281 5.0854,0.46761 7.7871,3.8105 l 1.4043,1.8516 c 3.9179,5.2687 5.6499,4.4968 10.291,1.748 4.7011,-2.6449 6.2348,-3.7597 3.6309,-9.7871 l -0.90039,-2.1406 c -1.6564,-4.3025 -2.5183,-5.9673 1.3027,-9.3047 l -0.10157,0.0234 c 0.78977,-0.74858 1.5581,-1.5188 2.3066,-2.3086 l -0.0215,0.10157 c 3.3374,-3.8211 5.0022,-2.9591 9.3047,-1.3027 l 2.1406,0.90235 c 6.0274,2.6039 7.1422,1.0702 9.7871,-3.6309 2.7488,-4.6411 3.5207,-6.375 -1.748,-10.293 l -1.8516,-1.4043 c -3.3429,-2.7017 -4.9387,-3.7656 -3.8105,-7.7871 0.047,-0.14936 0.0908,-0.29937 0.13672,-0.44922 0.0489,-0.1566 0.092,-0.30728 0.14843,-0.47265 l -0.01,0.01 c 0.29416,-0.99009 0.56484,-1.9896 0.80859,-3 l 0.002,0.008 c 0.0128,-0.0647 0.028,-0.12052 0.041,-0.1836 0.0635,-0.26683 0.12365,-0.53455 0.18359,-0.80273 1.0365,-4.0019 2.9518,-4.1292 7.1816,-4.7949 l 2.3047,-0.28906 c 6.5218,-0.75867 6.7221,-2.6453 6.6621,-8.0391 0.06,-5.3937 -0.14028,-7.2804 -6.6621,-8.0391 l -2.3047,-0.28906 c -4.2298,-0.66574 -6.1452,-0.79299 -7.1816,-4.7949 -0.06,-0.26816 -0.12007,-0.53589 -0.18359,-0.80273 -0.0131,-0.0631 -0.0281,-0.11887 -0.041,-0.1836 l -0.002,0.008 c -0.24375,-1.0104 -0.51442,-2.0099 -0.80859,-3 l 0.0117,0.01 c -0.0565,-0.16536 -0.10151,-0.31604 -0.15039,-0.47265 -0.0458,-0.14986 -0.0897,-0.29985 -0.13672,-0.44922 -1.1281,-4.0215 0.46762,-5.0854 3.8105,-7.7871 l 1.8516,-1.4043 c 5.2687,-3.9179 4.4968,-5.6499 1.748,-10.291 -1.8184,-3.232 -2.9132,-4.9678 -5.3789,-4.8906 -1.1207,0.0351 -2.5246,0.44605 -4.4082,1.2598 l -2.1406,0.90039 c -4.3025,1.6564 -5.9673,2.5183 -9.3047,-1.3027 l 0.0234,0.10157 c -0.74858,-0.78977 -1.5188,-1.5581 -2.3086,-2.3066 l 0.10157,0.0215 c -3.8211,-3.3374 -2.9591,-5.0022 -1.3027,-9.3047 l 0.90235,-2.1406 c 2.6039,-6.0274 1.0702,-7.1422 -3.6309,-9.7871 -2.3206,-1.3744 -3.9148,-2.2549 -5.418,-2.1328 -1.5032,0.12213 -2.916,1.2465 -4.875,3.8809 l -1.4043,1.8516 c -2.7017,3.3429 -3.7656,4.9387 -7.7871,3.8106 -0.14936,-0.047 -0.29937,-0.0909 -0.44922,-0.13672 -0.15661,-0.0489 -0.30729,-0.0919 -0.47265,-0.14844 l 0.01,0.01 c -0.9901,-0.29416 -1.9896,-0.56485 -3,-0.80859 l 0.008,-0.002 c -0.0647,-0.0127 -0.12052,-0.028 -0.1836,-0.041 -0.26683,-0.0635 -0.53456,-0.12366 -0.80273,-0.1836 -4.0019,-1.0365 -4.1292,-2.9518 -4.7949,-7.1816 l -0.28906,-2.3047 c -0.75844,-6.5221 -2.6451,-6.7223 -8.0388,-6.6624 z M 87.98828,46 c 0.004,-1e-5 0.008,-1e-5 0.0117,0 5.0653,3e-4 9.9608,0.87493 14.535,2.4805 a 12,12 0 0 0 5.4648,6.8789 12,12 0 0 0 8.6699,1.291 c 7.2034,6.1907 12.43,14.704 14.439,24.549 0.50642,2.48 -1.3887,4.801 -3.9199,4.8008 h -12.379 c -1.7693,1.5e-4 -3.3285,-1.1619 -3.834,-2.8574 -3.0341,-10.177 -12.349,-17.126 -22.967,-17.141 -1.8655,0.0101 -3.7243,0.23539 -5.5371,0.67578 -1.7253,0.41898 -3.5203,-0.34928 -4.4082,-1.8867 l -6.1797,-10.701 c -1.2629,-2.1886 -0.20551,-4.9854 2.1894,-5.791 4.4847,-1.5096 9.1822,-2.2858 13.914,-2.2988 z m -26.307,10.096 c 1.3611,0.0638 2.5961,0.816 3.2773,1.9961 l 6.1797,10.701 c 0.88545,1.5335 0.65743,3.4666 -0.56055,4.752 -4.2128,4.4466 -6.5656,10.332 -6.5781,16.457 0.007,6.1287 2.3554,12.019 6.5684,16.471 1.217,1.285 1.445,3.217 0.56055,4.75 l -6.1621,10.676 c -1.2649,2.191 -4.2204,2.6724 -6.1152,0.99609 -7.3582,-6.507 -12.254,-15.238 -14.062,-24.74 a 12,12 0 0 0 3.2109,-8.1543 12,12 0 0 0 -3.2129,-8.1504 c 1.8045,-9.5062 6.6973,-18.242 14.057,-24.754 0.77978,-0.68994 1.7978,-1.0487 2.8379,-1 z M 114.82028,94 h 12.328 c 2.5312,-2.4e-4 4.4264,2.3208 3.9199,4.8008 -2.0084,9.8393 -7.2302,18.349 -14.428,24.539 a 12,12 0 0 0 -2.9238,-0.30273 12,12 0 0 0 -5.7168,1.6035 12,12 0 0 0 -5.4531,6.8613 c -4.5756,1.6125 -9.4742,2.4926 -14.543,2.498 -0.006,2e-5 -0.0125,2e-5 -0.0195,0 -4.7298,-0.0188 -9.4252,-0.80071 -13.906,-2.3144 -2.3921,-0.80764 -3.4471,-3.6021 -2.1855,-5.7891 l 6.1699,-10.688 c 0.88793,-1.5374 2.6829,-2.3057 4.4082,-1.8867 1.814,0.44068 3.6743,0.66578 5.541,0.67578 10.621,-0.0108 19.94,-6.961 22.975,-17.141 0.50551,-1.6955 2.0647,-2.8576 3.834,-2.8574 z"
         color="#000000"
         fill-opacity="0.71429"
         filter="url(#a)"
         opacity="0.2"
         id="path1013"
         style="filter:url(#a-3)" />
      <path
         transform="matrix(0.086563,0,0,0.086563,-13.745,294.41)"
         d="m 88,17.006 c -5.3937,-0.05998 -7.2804,0.14029 -8.0391,6.6621 l -0.28906,2.3047 c -0.66573,4.2298 -0.793,6.1452 -4.7949,7.1816 -0.26817,0.0599 -0.53589,0.12007 -0.80273,0.18359 -0.0631,0.013 -0.11886,0.0282 -0.1836,0.041 l 0.008,0.002 c -1.0104,0.24375 -2.0099,0.51443 -3,0.80859 l 0.01,-0.0117 c -0.16537,0.0565 -0.31605,0.10151 -0.47265,0.15039 -0.14986,0.0458 -0.29985,0.0898 -0.44922,0.13672 -4.0215,1.1281 -5.0854,-0.46762 -7.7871,-3.8106 l -1.4043,-1.8516 c -1.959,-2.6344 -3.3698,-3.7587 -4.873,-3.8809 -0.18789,-0.01527 -0.37832,-0.01507 -0.57032,0 -1.3439,0.10545 -2.8172,0.93022 -4.8476,2.1328 -4.7011,2.6449 -6.2347,3.7597 -3.6309,9.7871 l 0.90039,2.1406 c 1.6564,4.3025 2.5183,5.9673 -1.3027,9.3047 l 0.10157,-0.0234 c -0.78976,0.74858 -1.558,1.5188 -2.3066,2.3086 l 0.0215,-0.10157 c -3.3374,3.8211 -5.0022,2.9591 -9.3047,1.3027 l -2.1406,-0.90235 c -1.8836,-0.81371 -3.2874,-1.2228 -4.4082,-1.2578 -2.4657,-0.0772 -3.5605,1.6567 -5.3789,4.8887 -2.7488,4.6411 -3.5207,6.375 1.748,10.293 l 1.8516,1.4043 c 3.3429,2.7017 4.9387,3.7656 3.8105,7.7871 -0.04698,0.14937 -0.09087,0.29936 -0.13672,0.44922 -0.04894,0.1566 -0.09193,0.30729 -0.14844,0.47265 l 0.0098,-0.01 c -0.29416,0.99009 -0.56485,1.9896 -0.80859,3 l -0.002,-0.008 c -0.01271,0.0647 -0.02795,0.12053 -0.04102,0.1836 -0.06352,0.26684 -0.12365,0.53456 -0.18359,0.80273 -1.0365,4.0019 -2.9518,4.1292 -7.1816,4.7949 l -2.3047,0.28906 c -6.5218,0.75868 -6.7221,2.6454 -6.6621,8.0391 -0.05998,5.3937 0.14028,7.2804 6.6621,8.0391 l 2.3047,0.28906 c 4.2298,0.66573 6.1452,0.793 7.1816,4.7949 0.05994,0.26818 0.12007,0.5359 0.18359,0.80273 0.01301,0.0631 0.02824,0.11886 0.04102,0.1836 l 0.002,-0.008 c 0.24375,1.0104 0.51443,2.0099 0.80859,3 l -0.01172,-0.01 c 0.0565,0.16537 0.10147,0.31605 0.15039,0.47265 0.04582,0.14985 0.08974,0.29986 0.13672,0.44922 1.1281,4.0215 -0.46762,5.0854 -3.8105,7.7871 l -1.8516,1.4043 c -5.2687,3.9179 -4.4968,5.6499 -1.748,10.291 2.6449,4.7011 3.7597,6.2347 9.7871,3.6309 l 2.1406,-0.90039 c 4.3025,-1.6564 5.9673,-2.5183 9.3047,1.3027 l -0.0234,-0.10157 c 0.74858,0.78976 1.5188,1.5581 2.3086,2.3066 l -0.10157,-0.0215 c 3.8211,3.3374 2.9591,5.0022 1.3027,9.3047 l -0.90235,2.1406 c -2.6039,6.0274 -1.0702,7.1441 3.6309,9.7891 4.6411,2.7488 6.375,3.5187 10.293,-1.75 l 1.4043,-1.8516 c 2.7017,-3.3429 3.7656,-4.9386 7.7871,-3.8105 0.14937,0.047 0.29936,0.0909 0.44922,0.13672 0.1566,0.0489 0.30728,0.0938 0.47265,0.15039 l -0.01,-0.0117 c 0.99009,0.29416 1.9896,0.56484 3,0.80859 l -0.008,0.002 c 0.0647,0.0128 0.12053,0.028 0.1836,0.041 0.26684,0.0635 0.53456,0.12365 0.80273,0.18359 4.0019,1.0365 4.1292,2.9518 4.7949,7.1816 l 0.28906,2.3047 c 0.75867,6.5218 2.6453,6.7221 8.0391,6.6621 5.3937,0.06 7.2804,-0.14029 8.0391,-6.6621 l 0.28906,-2.3047 c 0.66576,-4.2298 0.79299,-6.1452 4.7949,-7.1816 0.26817,-0.06 0.5359,-0.12007 0.80273,-0.18359 0.0631,-0.0131 0.11886,-0.0281 0.1836,-0.041 l -0.008,-0.002 c 1.0104,-0.24375 2.0099,-0.51443 3,-0.80859 l -0.01,0.0117 c 0.16536,-0.0565 0.31604,-0.10151 0.47265,-0.15039 0.14985,-0.0458 0.29986,-0.0897 0.44922,-0.13672 4.0215,-1.1281 5.0854,0.46761 7.7871,3.8105 l 1.4043,1.8516 c 3.9179,5.2687 5.6499,4.4968 10.291,1.748 4.7011,-2.6449 6.2348,-3.7597 3.6309,-9.7871 l -0.90039,-2.1406 c -1.6564,-4.3025 -2.5183,-5.9673 1.3027,-9.3047 l -0.10157,0.0234 c 0.78977,-0.74858 1.5581,-1.5188 2.3066,-2.3086 l -0.0215,0.10157 c 3.3374,-3.8211 5.0022,-2.9591 9.3047,-1.3027 l 2.1406,0.90235 c 6.0274,2.6039 7.1422,1.0702 9.7871,-3.6309 2.7488,-4.6411 3.5207,-6.375 -1.748,-10.293 l -1.8516,-1.4043 c -3.3429,-2.7017 -4.9387,-3.7656 -3.8105,-7.7871 0.047,-0.14936 0.0908,-0.29937 0.13672,-0.44922 0.0489,-0.1566 0.092,-0.30728 0.14843,-0.47265 l -0.01,0.01 c 0.29416,-0.99009 0.56484,-1.9896 0.80859,-3 l 0.002,0.008 c 0.0128,-0.0647 0.028,-0.12052 0.041,-0.1836 0.0635,-0.26683 0.12365,-0.53455 0.18359,-0.80273 1.0365,-4.0019 2.9518,-4.1292 7.1816,-4.7949 l 2.3047,-0.28906 c 6.5218,-0.75867 6.7221,-2.6453 6.6621,-8.0391 0.06,-5.3937 -0.14028,-7.2804 -6.6621,-8.0391 l -2.3047,-0.28906 c -4.2298,-0.66574 -6.1452,-0.79299 -7.1816,-4.7949 -0.06,-0.26816 -0.12007,-0.53589 -0.18359,-0.80273 -0.0131,-0.0631 -0.0281,-0.11887 -0.041,-0.1836 l -0.002,0.008 c -0.24375,-1.0104 -0.51442,-2.0099 -0.80859,-3 l 0.0117,0.01 c -0.0565,-0.16536 -0.10151,-0.31604 -0.15039,-0.47265 -0.0458,-0.14986 -0.0897,-0.29985 -0.13672,-0.44922 -1.1281,-4.0215 0.46762,-5.0854 3.8105,-7.7871 l 1.8516,-1.4043 c 5.2687,-3.9179 4.4968,-5.6499 1.748,-10.291 -1.8184,-3.232 -2.9132,-4.9678 -5.3789,-4.8906 -1.1207,0.0351 -2.5246,0.44605 -4.4082,1.2598 l -2.1406,0.90039 c -4.3025,1.6564 -5.9673,2.5183 -9.3047,-1.3027 l 0.0234,0.10157 c -0.74858,-0.78977 -1.5188,-1.5581 -2.3086,-2.3066 l 0.10157,0.0215 c -3.8211,-3.3374 -2.9591,-5.0022 -1.3027,-9.3047 l 0.90235,-2.1406 c 2.6039,-6.0274 1.0702,-7.1422 -3.6309,-9.7871 -2.3206,-1.3744 -3.9148,-2.2549 -5.418,-2.1328 -1.5032,0.12213 -2.916,1.2465 -4.875,3.8809 l -1.4043,1.8516 c -2.7017,3.3429 -3.7656,4.9387 -7.7871,3.8106 -0.14936,-0.047 -0.29937,-0.0909 -0.44922,-0.13672 -0.15661,-0.0489 -0.30729,-0.0919 -0.47265,-0.14844 l 0.01,0.01 c -0.9901,-0.29416 -1.9896,-0.56485 -3,-0.80859 l 0.008,-0.002 c -0.0647,-0.0127 -0.12052,-0.028 -0.1836,-0.041 -0.26683,-0.0635 -0.53456,-0.12366 -0.80273,-0.1836 -4.0019,-1.0365 -4.1292,-2.9518 -4.7949,-7.1816 l -0.28906,-2.3047 c -0.75844,-6.5221 -2.6451,-6.7223 -8.0388,-6.6624 z M 87.98828,48 c 0.004,-1e-5 0.008,-1e-5 0.0117,0 5.0653,3e-4 9.9608,0.87493 14.535,2.4805 a 12,12 0 0 0 5.4648,6.8789 12,12 0 0 0 8.6699,1.291 c 7.2034,6.1907 12.43,14.704 14.439,24.549 0.50642,2.48 -1.3887,4.801 -3.9199,4.8008 h -12.379 c -1.7693,1.5e-4 -3.3285,-1.1619 -3.834,-2.8574 -3.0341,-10.177 -12.349,-17.126 -22.967,-17.141 -1.8655,0.0101 -3.7243,0.23539 -5.5371,0.67578 -1.7253,0.41898 -3.5203,-0.34928 -4.4082,-1.8867 l -6.1797,-10.701 c -1.2629,-2.1886 -0.20551,-4.9854 2.1894,-5.791 4.4847,-1.5096 9.1822,-2.2858 13.914,-2.2988 z m -26.307,10.096 c 1.3611,0.0638 2.5961,0.816 3.2773,1.9961 l 6.1797,10.701 c 0.88545,1.5335 0.65743,3.4666 -0.56055,4.752 -4.2128,4.4466 -6.5656,10.332 -6.5781,16.457 0.007,6.1287 2.3554,12.019 6.5684,16.471 1.217,1.285 1.445,3.217 0.56055,4.75 l -6.1621,10.676 c -1.2649,2.191 -4.2204,2.6724 -6.1152,0.99609 -7.3582,-6.507 -12.254,-15.238 -14.062,-24.74 a 12,12 0 0 0 3.2109,-8.1543 12,12 0 0 0 -3.2129,-8.1504 c 1.8045,-9.5062 6.6973,-18.242 14.057,-24.754 0.77978,-0.68994 1.7978,-1.0487 2.8379,-1 z M 114.82028,96 h 12.328 c 2.5312,-2.4e-4 4.4264,2.3208 3.9199,4.8008 -2.0084,9.8393 -7.2302,18.349 -14.428,24.539 a 12,12 0 0 0 -2.9238,-0.30273 12,12 0 0 0 -5.7168,1.6035 12,12 0 0 0 -5.4531,6.8613 c -4.5756,1.6125 -9.4742,2.4926 -14.543,2.498 -0.006,2e-5 -0.0125,2e-5 -0.0195,0 -4.7298,-0.0188 -9.4252,-0.80071 -13.906,-2.3144 -2.3921,-0.80764 -3.4471,-3.6021 -2.1855,-5.7891 l 6.1699,-10.688 c 0.88793,-1.5374 2.6829,-2.3057 4.4082,-1.8867 1.814,0.44068 3.6743,0.66578 5.541,0.67578 10.621,-0.0108 19.94,-6.961 22.975,-17.141 0.50551,-1.6955 2.0647,-2.8576 3.834,-2.8574 z"
         color="#000000"
         fill="url(#d)"
         filter="url(#a)"
         opacity="0.2"
         id="path1015"
         style="fill:url(#d);filter:url(#a-3)" />
      <path
         style="fill:url(#c)"
         d="m -6.1279,295.53 c -0.4669,-0.005 -0.63021,0.0121 -0.69588,0.5767 l -0.025022,0.1995 c -0.057627,0.36614 -0.068644,0.53194 -0.41506,0.62166 -0.023212,0.005 -0.046388,0.0104 -0.069487,0.0159 -0.00546,9.8e-4 -0.010289,0.002 -0.015894,0.004 l 6.87e-4,1.8e-4 c -0.087459,0.0211 -0.17398,0.0445 -0.25969,0.07 l 8.507e-4,-9.8e-4 c -0.014314,0.005 -0.027358,0.009 -0.040914,0.013 -0.012972,0.004 -0.025957,0.008 -0.038886,0.0118 -0.34811,0.0976 -0.44021,-0.0405 -0.67407,-0.32985 l -0.12156,-0.16028 c -0.16957,-0.22804 -0.2917,-0.32537 -0.42182,-0.33594 -0.016263,-10e-4 -0.032749,-10e-4 -0.049369,0 -0.11633,0.009 -0.24386,0.0805 -0.41963,0.18462 -0.40694,0.22895 -0.5397,0.32545 -0.3143,0.8472 l 0.07794,0.1853 c 0.14338,0.37244 0.21799,0.51655 -0.11277,0.80544 l 0.00879,-0.002 c -0.068364,0.0648 -0.13487,0.13147 -0.19967,0.19983 l 0.00186,-0.009 c -0.2888897,0.33077 -0.4329997,0.25615 -0.8054397,0.11277 l -0.1853,-0.0781 c -0.16305,-0.0704 -0.28457,-0.10584 -0.38159,-0.10888 -0.21344,-0.007 -0.30821,0.14341 -0.46561,0.42318 -0.23794,0.40175 -0.30476,0.55184 0.15132,0.89099 l 0.16028,0.12156 c 0.28937,0.23387 0.4275,0.32596 0.32985,0.67407 -0.0041,0.0129 -0.0079,0.0259 -0.01184,0.0389 -0.0042,0.0135 -0.008,0.0266 -0.01285,0.0409 l 8.47e-4,-9.8e-4 c -0.02546,0.0857 -0.04889,0.17223 -0.06999,0.25969 l -1.73e-4,-6.6e-4 c -0.0011,0.006 -0.0024,0.0104 -0.0036,0.0159 -0.0055,0.0231 -0.0107,0.0463 -0.01589,0.0695 -0.08972,0.34642 -0.25552,0.35743 -0.62166,0.41506 l -0.1995,0.025 c -0.56455,0.0657 -0.58188,0.22899 -0.57669,0.69588 -0.0052,0.4669 0.01214,0.63021 0.57669,0.69589 l 0.1995,0.025 c 0.36615,0.0576 0.53194,0.0687 0.62166,0.41507 0.0052,0.0232 0.01039,0.0464 0.01589,0.0695 0.0011,0.005 0.0024,0.0103 0.0036,0.0159 l 1.73e-4,-6.5e-4 c 0.0211,0.0875 0.04453,0.17398 0.06999,0.25969 l -10e-4,-9.8e-4 c 0.0049,0.0143 0.0088,0.0274 0.01302,0.0409 0.004,0.013 0.0078,0.026 0.01183,0.0389 0.09765,0.34811 -0.04048,0.4402 -0.32985,0.67407 l -0.16028,0.12156 c -0.45608,0.33915 -0.38926,0.48907 -0.15132,0.89082 0.22895,0.40694 0.32545,0.53969 0.8472,0.3143 l 0.1853,-0.0779 c 0.37244,-0.14338 0.51655,-0.21799 0.8054397,0.11278 l -0.00203,-0.009 c 0.064799,0.0684 0.13147,0.13487 0.19984,0.19966 l -0.00879,-0.002 c 0.33076,0.2889 0.25615,0.433 0.11277,0.80544 l -0.07811,0.1853 c -0.2254,0.52175 -0.092641,0.61842 0.3143,0.84737 0.40175,0.23794 0.55184,0.30459 0.89099,-0.15148 l 0.12156,-0.16028 c 0.23387,-0.28938 0.32596,-0.4275 0.67407,-0.32985 0.01293,0.004 0.025915,0.008 0.038886,0.0118 0.013554,0.004 0.026599,0.008 0.040914,0.013 l -8.506e-4,-9.8e-4 c 0.085705,0.0254 0.17223,0.0489 0.25969,0.07 l -6.871e-4,1.8e-4 c 0.0056,9.8e-4 0.010433,0.002 0.015894,0.004 0.023098,0.005 0.046273,0.0107 0.069487,0.0159 0.34642,0.0897 0.35743,0.25552 0.41506,0.62166 l 0.025022,0.1995 c 0.065673,0.56455 0.22899,0.58188 0.69588,0.57669 0.46689,0.005 0.63021,-0.0121 0.69588,-0.57669 l 0.025022,-0.1995 c 0.05763,-0.36614 0.068643,-0.53194 0.41506,-0.62166 0.023212,-0.005 0.046389,-0.0104 0.069487,-0.0159 0.00546,-9.8e-4 0.010289,-0.002 0.015894,-0.004 l -6.871e-4,-1.8e-4 c 0.08746,-0.0211 0.17398,-0.0445 0.25969,-0.07 l -8.507e-4,9.8e-4 c 0.014314,-0.005 0.027358,-0.009 0.040914,-0.013 0.012972,-0.004 0.025957,-0.008 0.038886,-0.0118 0.34811,-0.0976 0.44021,0.0405 0.67407,0.32985 l 0.12156,0.16028 c 0.33915,0.45607 0.48907,0.38926 0.89082,0.15131 0.40694,-0.22895 0.5397,-0.32545 0.3143,-0.8472 l -0.07794,-0.1853 c -0.14338,-0.37243 -0.21799,-0.51654 0.11277,-0.80544 l -0.00879,0.002 c 0.068365,-0.0648 0.13487,-0.13147 0.19967,-0.19984 l -0.00186,0.009 c 0.28889,-0.33077 0.433,-0.25615 0.80544,-0.11277 l 0.1853,0.0781 c 0.52175,0.2254 0.61825,0.0926 0.8472,-0.3143 0.23794,-0.40175 0.30476,-0.55184 -0.15132,-0.89099 l -0.16028,-0.12156 c -0.28937,-0.23386 -0.4275,-0.32596 -0.32985,-0.67407 0.00407,-0.0129 0.00786,-0.0259 0.011834,-0.0389 0.00423,-0.0135 0.00796,-0.0266 0.012848,-0.0409 l -8.506e-4,9.8e-4 c 0.025463,-0.0857 0.048894,-0.17223 0.069994,-0.25969 l 1.731e-4,6.6e-4 c 0.00111,-0.006 0.00242,-0.0104 0.00355,-0.0159 0.0055,-0.0231 0.010705,-0.0463 0.015894,-0.0695 0.08972,-0.34642 0.25552,-0.35743 0.62166,-0.41506 l 0.1995,-0.025 c 0.56455,-0.0657 0.58188,-0.22899 0.57669,-0.69588 0.005195,-0.4669 -0.012144,-0.63021 -0.57669,-0.69589 l -0.1995,-0.025 c -0.36615,-0.0576 -0.53194,-0.0686 -0.62166,-0.41507 -0.0052,-0.0232 -0.010394,-0.0464 -0.015894,-0.0695 -0.00115,-0.005 -0.00242,-0.0103 -0.00355,-0.0159 l -1.731e-4,6.5e-4 c -0.021099,-0.0875 -0.04453,-0.17398 -0.069994,-0.25969 l 0.00101,9.8e-4 c -0.00489,-0.0143 -0.00879,-0.0273 -0.013018,-0.0409 -0.00397,-0.013 -0.00776,-0.0259 -0.011834,-0.0389 -0.097652,-0.34811 0.040479,-0.4402 0.32985,-0.67407 l 0.16028,-0.12156 c 0.45608,-0.33915 0.38926,-0.48907 0.15132,-0.89082 -0.1574,-0.27977 -0.25218,-0.43002 -0.46561,-0.42335 -0.097014,0.003 -0.21854,0.0386 -0.38159,0.10905 l -0.1853,0.0779 c -0.37243,0.14338 -0.51655,0.21799 -0.80544,-0.11278 l 0.00203,0.009 c -0.064799,-0.0684 -0.13147,-0.13487 -0.19984,-0.19966 l 0.00879,0.002 c -0.33076,-0.28889 -0.25615,-0.433 -0.11277,-0.80544 l 0.07811,-0.1853 c 0.2254,-0.52175 0.092641,-0.61825 -0.3143,-0.8472 -0.20087,-0.11897 -0.33887,-0.19519 -0.46899,-0.18462 -0.13012,0.0106 -0.25242,0.1079 -0.42199,0.33594 l -0.12156,0.16028 c -0.23387,0.28937 -0.32596,0.4275 -0.67407,0.32985 -0.01293,-0.004 -0.025915,-0.008 -0.038886,-0.0118 -0.013558,-0.004 -0.026599,-0.008 -0.040914,-0.0129 l 8.506e-4,9.9e-4 c -0.085706,-0.0255 -0.17223,-0.0489 -0.25969,-0.07 l 6.871e-4,-1.7e-4 c -0.0056,-9.8e-4 -0.010433,-0.002 -0.015894,-0.004 -0.023098,-0.005 -0.046273,-0.0107 -0.069487,-0.0159 -0.34642,-0.0897 -0.35743,-0.25551 -0.41506,-0.62166 l -0.025022,-0.1995 c -0.065653,-0.56455 -0.22897,-0.58188 -0.69586,-0.57669 z m -0.00101,2.6829 h 0.00101 c 0.43847,3e-5 0.86224,0.0757 1.2582,0.21472 a 1.0388,1.0388 0 0 0 0.47305,0.59546 1.0388,1.0388 0 0 0 0.75049,0.11175 c 0.62354,0.53589 1.076,1.2728 1.2499,2.125 0.043837,0.21468 -0.12021,0.4156 -0.33932,0.41557 h -1.0716 c -0.15315,2e-5 -0.28812,-0.10057 -0.33188,-0.24734 -0.26264,-0.88092 -1.0689,-1.4825 -1.9881,-1.4837 -0.16148,9.8e-4 -0.32238,0.0204 -0.47931,0.0585 -0.14934,0.0363 -0.30473,-0.0302 -0.38159,-0.16332 l -0.53493,-0.92633 c -0.10932,-0.18945 -0.017791,-0.43154 0.18952,-0.50128 0.38821,-0.13067 0.79483,-0.19787 1.2044,-0.199 z m -2.2772,0.87392 c 0.11782,0.006 0.22473,0.0706 0.2837,0.17278 l 0.53493,0.92633 c 0.076647,0.13274 0.056909,0.30007 -0.048523,0.41134 -0.36467,0.38491 -0.56834,0.89435 -0.56942,1.4246 6.216e-4,0.53052 0.20389,1.0404 0.56858,1.4258 0.10535,0.11124 0.12508,0.27848 0.048523,0.41118 l -0.53341,0.92412 c -0.10949,0.18966 -0.36533,0.23134 -0.52935,0.0862 -0.63695,-0.56327 -1.0607,-1.3191 -1.2173,-2.1416 a 1.0388,1.0388 0 0 0 0.27795,-0.70587 1.0388,1.0388 0 0 0 -0.27812,-0.70551 c 0.1562,-0.82288 0.57974,-1.5791 1.2168,-2.1428 0.0675,-0.0597 0.15563,-0.0908 0.24566,-0.0866 z m 4.5998,3.2811 h 1.0672 c 0.21911,-3e-5 0.38316,0.20089 0.33932,0.41556 -0.17386,0.85172 -0.62587,1.5883 -1.2489,2.1242 a 1.0388,1.0388 0 0 0 -0.25309,-0.0262 1.0388,1.0388 0 0 0 -0.49486,0.1388 1.0388,1.0388 0 0 0 -0.47204,0.59394 c -0.39608,0.13958 -0.82011,0.21576 -1.2589,0.21624 h -0.0017 c -0.40943,-0.002 -0.81587,-0.0693 -1.2038,-0.20035 -0.20707,-0.0699 -0.29839,-0.3118 -0.18919,-0.50112 l 0.53409,-0.92514 c 0.076862,-0.13308 0.23224,-0.19958 0.38159,-0.16331 0.15703,0.0381 0.31806,0.0576 0.47965,0.0585 0.91941,-9.8e-4 1.726,-0.60256 1.9887,-1.4837 0.043759,-0.14677 0.17873,-0.24736 0.33188,-0.24734 z"
         color="#000000"
         fill="url(#c)"
         id="path1017" />
      <path
         d="m -6.1279,297.52 c -2.1302,0 -3.9148,1.4822 -4.3812,3.4706 a 1.0388,1.0388 0 0 1 0.6406,0.32512 c 0.1562,-0.82288 0.57974,-1.5791 1.2168,-2.1428 0.0675,-0.0597 0.15563,-0.0908 0.24566,-0.0866 0.11782,0.006 0.22473,0.0706 0.2837,0.17278 l 0.53493,0.92633 c 0.076647,0.13274 0.056909,0.30007 -0.048523,0.41134 -0.36467,0.38491 -0.56834,0.89435 -0.56942,1.4246 6.216e-4,0.53052 0.20389,1.0404 0.56858,1.4258 0.10535,0.11124 0.12508,0.27848 0.048523,0.41118 l -0.53341,0.92412 c -0.10949,0.18966 -0.36533,0.23134 -0.52935,0.0862 -0.63695,-0.56327 -1.0607,-1.3191 -1.2173,-2.1416 a 1.0388,1.0388 0 0 1 -0.6406,0.32511 c 0.46659,1.9883 2.251,3.4703 4.3811,3.4703 0.45148,0 0.88719,-0.0672 1.2984,-0.19105 a 1.0388,1.0388 0 0 1 -0.039223,-0.71769 c -0.39608,0.13958 -0.82011,0.21576 -1.2589,0.21624 h -0.0017 c -0.40943,-0.002 -0.81587,-0.0693 -1.2038,-0.20035 -0.20707,-0.0699 -0.29839,-0.3118 -0.18919,-0.50112 l 0.53409,-0.92514 c 0.076862,-0.13308 0.23224,-0.19958 0.38159,-0.16331 0.15703,0.0381 0.31806,0.0576 0.47965,0.0585 0.91941,-9.8e-4 1.726,-0.60256 1.9887,-1.4837 0.043759,-0.14677 0.17873,-0.24736 0.33188,-0.24734 h 1.0672 c 0.21911,-3e-5 0.38316,0.20089 0.33932,0.41556 -0.17386,0.85172 -0.62587,1.5883 -1.2489,2.1242 a 1.0388,1.0388 0 0 1 0.60357,0.39157 c 0.87261,-0.8211 1.4185,-1.9855 1.4185,-3.2776 0,-1.2923 -0.54607,-2.4569 -1.419,-3.278 a 1.0388,1.0388 0 0 1 -0.60053,0.39122 c 0.62354,0.53589 1.076,1.2728 1.2499,2.125 0.043837,0.21468 -0.12021,0.4156 -0.33932,0.41557 h -1.0716 c -0.15315,2e-5 -0.28812,-0.10057 -0.33188,-0.24734 -0.26264,-0.88092 -1.0689,-1.4825 -1.9881,-1.4837 -0.16148,9.8e-4 -0.32238,0.0204 -0.47931,0.0585 -0.14934,0.0363 -0.30472,-0.0302 -0.38159,-0.16332 l -0.53493,-0.92633 c -0.10932,-0.18945 -0.017788,-0.43154 0.18952,-0.50128 0.38821,-0.13067 0.79483,-0.19787 1.2044,-0.199 h 0.00101 c 0.43847,3e-5 0.86224,0.0757 1.2582,0.21472 a 1.0388,1.0388 0 0 1 0.039731,-0.71634 c -0.4111,-0.12373 -0.84664,-0.19088 -1.2979,-0.19088 z m 0,3.1163 a 1.385,1.385 0 0 1 1.385,1.385 1.385,1.385 0 0 1 -1.385,1.385 1.385,1.385 0 0 1 -1.385,-1.385 1.385,1.385 0 0 1 1.385,-1.385 z"
         color="#000000"
         opacity="0.1"
         id="path1019" />
      <path
         d="m -3.9018,297.61 a 0.51938,0.51938 0 0 0 -0.42521,0.25918 0.51938,0.51938 0 0 0 0.19003,0.70941 0.51938,0.51938 0 0 0 0.70941,-0.19003 0.51938,0.51938 0 0 0 -0.19003,-0.70958 0.51938,0.51938 0 0 0 -0.2842,-0.069 z m -6.7274,3.8977 a 0.51938,0.51938 0 0 0 -0.51938,0.51937 0.51938,0.51938 0 0 0 0.51938,0.51938 0.51938,0.51938 0 0 0 0.51938,-0.51938 0.51938,0.51938 0 0 0 -0.51938,-0.51937 z m 6.7397,3.8984 a 0.51938,0.51938 0 0 0 -0.24752,0.0695 0.51938,0.51938 0 0 0 -0.19003,0.70941 0.51938,0.51938 0 0 0 0.70941,0.19003 0.51938,0.51938 0 0 0 0.19003,-0.7094 0.51938,0.51938 0 0 0 -0.46189,-0.25952 z"
         enable-background="new"
         fill="#b3b3b3"
         id="path1021" />
    </g>
  </g>
</svg>
