<?xml version="1.0" encoding="UTF-8" standalone="no"?>
<svg
   xmlns:dc="http://purl.org/dc/elements/1.1/"
   xmlns:cc="http://creativecommons.org/ns#"
   xmlns:rdf="http://www.w3.org/1999/02/22-rdf-syntax-ns#"
   xmlns:svg="http://www.w3.org/2000/svg"
   xmlns="http://www.w3.org/2000/svg"
   xmlns:xlink="http://www.w3.org/1999/xlink"
   xmlns:sodipodi="http://sodipodi.sourceforge.net/DTD/sodipodi-0.dtd"
   xmlns:inkscape="http://www.inkscape.org/namespaces/inkscape"
   inkscape:version="1.0 (4035a4fb49, 2020-05-01)"
   sodipodi:docname="swell-foop.svg"
   id="svg63"
   version="1.1"
   height="64"
   width="64">
  <metadata
     id="metadata67">
    <rdf:RDF>
      <cc:Work
         rdf:about="">
        <dc:format>image/svg+xml</dc:format>
        <dc:type
           rdf:resource="http://purl.org/dc/dcmitype/StillImage" />
        <dc:title></dc:title>
      </cc:Work>
    </rdf:RDF>
  </metadata>
  <sodipodi:namedview
     inkscape:current-layer="svg63"
     inkscape:window-maximized="1"
     inkscape:window-y="36"
     inkscape:window-x="0"
     inkscape:cy="31.575874"
     inkscape:cx="7.0533265"
     inkscape:zoom="4.2150193"
     showgrid="false"
     id="namedview65"
     inkscape:window-height="932"
     inkscape:window-width="1920"
     inkscape:pageshadow="2"
     inkscape:pageopacity="0"
     guidetolerance="10"
     gridtolerance="10"
     objecttolerance="10"
     borderopacity="1"
     bordercolor="#666666"
     pagecolor="#ffffff" />
  <defs
     id="defs23">
    <linearGradient
       id="a">
      <stop
         id="stop2"
         offset="0"
         stop-color="#68b0e3" />
      <stop
         id="stop4"
         offset="1"
         stop-color="#6884e3" />
    </linearGradient>
    <linearGradient
       xlink:href="#a"
       gradientUnits="userSpaceOnUse"
       y2="24.003"
       y1="12"
       x2="18.002"
       x1="18.002"
       id="f" />
    <linearGradient
       xlink:href="#a"
       gradientUnits="userSpaceOnUse"
       y2="24.003"
       y1="12"
       x2="30.004"
       x1="30.004"
       id="e" />
    <linearGradient
       xlink:href="#a"
       gradientUnits="userSpaceOnUse"
       y2="35.999"
       y1="24"
       x2="30.004"
       x1="30.004"
       id="d" />
    <linearGradient
       gradientUnits="userSpaceOnUse"
       y2="35.999"
       y1="24"
       x2="18.002"
       x1="18.002"
       id="c">
      <stop
         id="stop10"
         offset="0"
         stop-color="#eeee4c" />
      <stop
         id="stop12"
         offset="1"
         stop-color="#ebf06f" />
    </linearGradient>
    <filter
       color-interpolation-filters="sRGB"
       height="1.12"
       width="1.12"
       y="-.060005"
       x="-.059995"
       id="h">
      <feGaussianBlur
         id="feGaussianBlur15"
         stdDeviation="0.78264129" />
    </filter>
    <linearGradient
       gradientUnits="userSpaceOnUse"
       gradientTransform="matrix(3.7795,0,0,3.7795,-33.117699,-20.550252)"
       y2="1.852"
       y1="15.081"
       x2="7.9373"
       x1="7.9373"
       id="linearGradient862-3">
      <stop
         id="stop18"
         offset="0"
         stop-color="#1a1a1a" />
      <stop
         id="stop20"
         offset="1"
         stop-color="#4d4d4d" />
    </linearGradient>
    <linearGradient
       id="linearGradient1022">
      <stop
         id="stop2-36"
         offset="0" />
      <stop
         id="stop4-75"
         offset="1"
         stop-opacity="0" />
    </linearGradient>
    <linearGradient
       gradientUnits="userSpaceOnUse"
       gradientTransform="matrix(.11943 0 0 .079621 10.946 9.5369)"
       y2="324.75"
       y1="400.49"
       x2="211.49"
       x1="116.53"
       id="sublime-icon-b">
      <stop
         id="stop7"
         offset="0"
         stop-color="#FF9700" />
      <stop
         id="stop9"
         offset=".57396"
         stop-color="#F48E00" />
      <stop
         id="stop11"
         offset="1"
         stop-color="#CE6E00" />
    </linearGradient>
    <filter
       color-interpolation-filters="sRGB"
       height="1.0637"
       width="1.0828"
       y="-.03186"
       x="-.041377"
       id="c-3">
      <feGaussianBlur
         id="feGaussianBlur14"
         stdDeviation="6.7714073" />
    </filter>
    <linearGradient
       xlink:href="#linearGradient1022"
       gradientUnits="userSpaceOnUse"
       y2="31.404"
       y1="31.404"
       x2="45.273"
       x1="20.308"
       id="linearGradient1024" />
    <linearGradient
       xlink:href="#linearGradient1022"
       gradientUnits="userSpaceOnUse"
       gradientTransform="matrix(.11943 0 0 .079621 10.946 9.4682)"
       y2="340.31"
       y1="340.31"
       x2="79.111"
       x1="287.63"
       id="linearGradient1038" />
    <linearGradient
       gradientUnits="userSpaceOnUse"
       y2="23.514"
       y1="23.514"
       x2="45.272"
       x1="20.308"
       id="linearGradient1046">
      <stop
         id="stop24"
         offset="0"
         stop-color="#ff9800" />
      <stop
         id="stop26"
         offset="1"
         stop-color="#ffc522" />
    </linearGradient>
    <linearGradient
       id="lgrad"
       x1="32"
       y1="32"
       x2="32"
       y2="992"
       gradientUnits="userSpaceOnUse"
       gradientTransform="translate(0,-896)">
      <stop
         offset="0%"
         stop-color="#f8f8f8"
         id="stop2-3" />
      <stop
         offset="100%"
         stop-color="#ccc"
         id="stop4-6" />
    </linearGradient>
    <radialGradient
       id="rgrad"
       x1="0%"
       y1="0%"
       x2="0%"
       y2="100%"
       fx="512"
       fy="494.39999"
       cx="512"
       cy="512"
       r="440"
       gradientUnits="userSpaceOnUse"
       gradientTransform="translate(0,-896)">
      <stop
         offset="0%"
         stop-color="#00f0ff"
         id="stop7-7" />
      <stop
         offset="100%"
         stop-color="#0070e0"
         id="stop9-53" />
    </radialGradient>
    <radialGradient
       gradientTransform="matrix(0.03099337,0,0,0.03032562,85.198869,42.985295)"
       gradientUnits="userSpaceOnUse"
       r="440"
       cy="306.1813"
       cx="523.57568"
       fy="306.1813"
       fx="523.57568"
       y2="100%"
       x2="0%"
       y1="0%"
       x1="0%"
       id="rgrad-3">
      <stop
         style="stop-color:#03d7e4;stop-opacity:1"
         id="stop7-6"
         stop-color="#00f0ff"
         offset="0%" />
      <stop
         id="stop9-7"
         stop-color="#0070e0"
         offset="100%" />
    </radialGradient>
    <filter
       style="color-interpolation-filters:sRGB"
       id="b"
       height="1.024007"
       width="1.023993"
       x="-0.011996"
       y="-0.012004">
      <feGaussianBlur
         stdDeviation=".47521291"
         id="feGaussianBlur7" />
    </filter>
    <linearGradient
       id="k"
       gradientUnits="userSpaceOnUse"
       x1="-350.6571"
       x2="-376.36255"
       y1="-73.89106"
       y2="-319.05783">
      <stop
         offset="0"
         stop-color="#83a3d4"
         id="stop50" />
      <stop
         offset="1"
         stop-color="#6bb5e3"
         id="stop52" />
    </linearGradient>
    <linearGradient
       id="i"
       gradientUnits="userSpaceOnUse"
       x1="-206.76952"
       x2="10.51211"
       y1="-12.925184"
       y2="-156.88734">
      <stop
         offset="0"
         stop-color="#70c2bd"
         id="stop40" />
      <stop
         offset="1"
         stop-color="#67c381"
         id="stop42" />
    </linearGradient>
    <linearGradient
       id="e-5"
       gradientUnits="userSpaceOnUse"
       x1="134.56509"
       x2="148.51404"
       y1="117.30138"
       y2="-149.18999">
      <stop
         offset="0"
         stop-color="#faaa32"
         id="stop20-6" />
      <stop
         offset="1"
         stop-color="#fdc22b"
         id="stop22" />
    </linearGradient>
    <linearGradient
       id="c-5"
       gradientUnits="userSpaceOnUse"
       x1="-146.054"
       x2="123.35784"
       y1="144.89951"
       y2="144.89951">
      <stop
         offset="0"
         stop-color="#a0cf63"
         id="stop10-2" />
      <stop
         offset="1"
         stop-color="#c4da45"
         id="stop12-9" />
    </linearGradient>
    <linearGradient
       id="m"
       gradientUnits="userSpaceOnUse"
       x1="206.7137"
       x2="28.495264"
       y1="-12.740612"
       y2="-150.01163">
      <stop
         offset="0"
         stop-color="#b28cc0"
         id="stop60" />
      <stop
         offset="1"
         stop-color="#9a8ec4"
         id="stop62" />
    </linearGradient>
    <linearGradient
       id="q"
       gradientUnits="userSpaceOnUse"
       x1="189.94229"
       x2="-19.617525"
       y1="147.05296"
       y2="76.406288">
      <stop
         offset="0"
         stop-color="#f48155"
         id="stop80" />
      <stop
         offset="1"
         stop-color="#f16168"
         id="stop82" />
    </linearGradient>
    <linearGradient
       id="l"
       gradientUnits="userSpaceOnUse"
       x1="116.504"
       x2="21.156284"
       y1="308.30261"
       y2="34.179653">
      <stop
         offset="0"
         stop-color="#735194"
         id="stop55" />
      <stop
         offset="1"
         stop-color="#525da3"
         id="stop57" />
    </linearGradient>
    <linearGradient
       id="j"
       gradientUnits="userSpaceOnUse"
       x1="30.131145"
       x2="123.3283"
       y1="111.50156"
       y2="-107.16671">
      <stop
         offset="0"
         stop-color="#416db9"
         id="stop45" />
      <stop
         offset="1"
         stop-color="#337e8d"
         id="stop47" />
    </linearGradient>
    <linearGradient
       id="h-1"
       gradientUnits="userSpaceOnUse"
       x1="-103.67039"
       x2="205.55051"
       y1="133.12218"
       y2="0.071801998">
      <stop
         offset="0"
         stop-color="#2e9274"
         id="stop35" />
      <stop
         offset="1"
         stop-color="#469d3c"
         id="stop37" />
    </linearGradient>
    <linearGradient
       id="f-2"
       gradientUnits="userSpaceOnUse"
       x1="26.97802"
       x2="146.80986"
       y1="120.22743"
       y2="-100.48971">
      <stop
         offset="0"
         stop-color="#ec4001"
         id="stop25" />
      <stop
         offset="1"
         stop-color="#fb6f01"
         id="stop27" />
    </linearGradient>
    <linearGradient
       id="d-7"
       gradientUnits="userSpaceOnUse"
       x1="-14.298616"
       x2="309.397"
       y1="73.499695"
       y2="73.499695">
      <stop
         offset="0"
         stop-color="#58a920"
         id="stop15" />
      <stop
         offset="1"
         stop-color="#98b811"
         id="stop17-6" />
    </linearGradient>
    <linearGradient
       id="o"
       gradientUnits="userSpaceOnUse"
       x1="-123.11901"
       x2="145.987"
       y1="144.897"
       y2="144.897">
      <stop
         offset="0"
         stop-color="#d287af"
         id="stop70" />
      <stop
         offset="1"
         stop-color="#e07993"
         id="stop72" />
    </linearGradient>
    <linearGradient
       id="p"
       gradientUnits="userSpaceOnUse"
       x1="-205.78"
       x2="117.81888"
       y1="-71.695564"
       y2="-71.695564">
      <stop
         offset="0"
         stop-color="#bd090f"
         id="stop75" />
      <stop
         offset="1"
         stop-color="#e11f07"
         id="stop77" />
    </linearGradient>
    <linearGradient
       id="n"
       gradientUnits="userSpaceOnUse"
       x1="0.176406"
       x2="-308.72031"
       y1="-14.582834"
       y2="-143.7106">
      <stop
         offset="0"
         stop-color="#c23857"
         id="stop65" />
      <stop
         offset="1"
         stop-color="#914475"
         id="stop67" />
    </linearGradient>
    <linearGradient
       id="g"
       gradientUnits="userSpaceOnUse"
       x1="41.409683"
       x2="117.31723"
       y1="108.52529"
       y2="319.1076">
      <stop
         offset="0"
         stop-color="#e69e08"
         id="stop30" />
      <stop
         offset="1"
         stop-color="#cbc507"
         id="stop32" />
    </linearGradient>
    <linearGradient
       inkscape:collect="always"
       id="linearGradient4243">
      <stop
         style="stop-color:#bc8b3c;stop-opacity:1"
         offset="0"
         id="stop4245" />
      <stop
         style="stop-color:#ac7c3e;stop-opacity:1"
         offset="1"
         id="stop4247" />
    </linearGradient>
    <linearGradient
       id="linearGradient5423-1">
      <stop
         id="stop4237"
         offset="0"
         style="stop-color:#51b9db;stop-opacity:1;" />
      <stop
         id="stop4239"
         offset="1"
         style="stop-color:#2fabd4;stop-opacity:1;" />
    </linearGradient>
    <inkscape:perspective
       sodipodi:type="inkscape:persp3d"
       inkscape:vp_x="17.594803 : 144.36309 : 1"
       inkscape:vp_y="0 : 1300 : 0"
       inkscape:vp_z="277.59482 : 144.36309 : 1"
       inkscape:persp3d-origin="147.59482 : 101.02977 : 1"
       id="perspective3135" />
    <linearGradient
       id="linearGradient4829">
      <stop
         style="stop-color:#f4fbfc;stop-opacity:1;"
         offset="0"
         id="stop4831" />
      <stop
         style="stop-color:#d6d6d6;stop-opacity:1;"
         offset="1"
         id="stop4833" />
    </linearGradient>
    <clipPath
       clipPathUnits="userSpaceOnUse"
       id="clipPath4282">
      <rect
         style="color:#000000;display:inline;overflow:visible;visibility:visible;fill:#4d4d4d;fill-opacity:1;fill-rule:nonzero;stroke:none;stroke-width:9.13434315;marker:none;enable-background:accumulate"
         id="rect4284"
         width="246.875"
         height="234.375"
         x="462.5"
         y="1646.1122"
         ry="17"
         rx="17" />
    </clipPath>
    <linearGradient
       inkscape:collect="always"
       xlink:href="#linearGradient5423"
       id="linearGradient5429"
       x1="408.66196"
       y1="44.604382"
       x2="408.66196"
       y2="562.04968"
       gradientUnits="userSpaceOnUse" />
    <linearGradient
       id="linearGradient5423">
      <stop
         style="stop-color:#db8451;stop-opacity:1;"
         offset="0"
         id="stop5425" />
      <stop
         style="stop-color:#c85c29;stop-opacity:1;"
         offset="1"
         id="stop5427" />
    </linearGradient>
    <linearGradient
       inkscape:collect="always"
       xlink:href="#linearGradient1022"
       id="linearGradient3992"
       x1="78.5625"
       y1="993.6615"
       x2="120.28125"
       y2="993.6615"
       gradientUnits="userSpaceOnUse" />
    <linearGradient
       inkscape:collect="always"
       xlink:href="#linearGradient5423-1"
       id="linearGradient5473-2"
       x1="99.036476"
       y1="-0.50471628"
       x2="99.036476"
       y2="199.83986"
       gradientUnits="userSpaceOnUse" />
    <clipPath
       clipPathUnits="userSpaceOnUse"
       id="clipPath3378">
      <rect
         style="color:#000000;display:inline;overflow:visible;visibility:visible;opacity:0.41206031;fill:#ffffff;fill-opacity:1;fill-rule:nonzero;stroke:none;stroke-width:4.81500006;stroke-linecap:round;stroke-linejoin:miter;stroke-miterlimit:4;stroke-dasharray:none;stroke-dashoffset:0;stroke-opacity:1;marker:none;enable-background:accumulate"
         id="rect3380"
         width="144.18349"
         height="148.32669"
         x="-247.76358"
         y="1432.9845" />
    </clipPath>
    <linearGradient
       inkscape:collect="always"
       xlink:href="#linearGradient4243"
       id="linearGradient4315"
       gradientUnits="userSpaceOnUse"
       gradientTransform="translate(0,852.36218)"
       x1="-187.35687"
       y1="603.80872"
       x2="-187.35687"
       y2="709.1676" />
    <clipPath
       clipPathUnits="userSpaceOnUse"
       id="clipPath4328">
      <path
         inkscape:connector-curvature="0"
         style="color:#000000;display:inline;overflow:visible;visibility:visible;opacity:1;fill:url(#linearGradient4315);fill-opacity:1;fill-rule:nonzero;stroke:none;stroke-width:4.81500006;stroke-linecap:round;stroke-linejoin:miter;stroke-miterlimit:4;stroke-dasharray:none;stroke-dashoffset:0;stroke-opacity:1;marker:none;enable-background:accumulate"
         d="m -229.07617,1455.911 v 105.7891 c 0,0.8891 0.71244,2.5644 1.45703,2.5644 0.0895,-0.8374 -0.48376,-1.5811 0.62695,-2.5644 h 46.27539 2.5586 23.04687 c 4.86914,0 8.78906,-3.92 8.78906,-8.7891 v -88.2109 c 0,-4.8691 -3.91992,-8.7891 -8.78906,-8.7891 h -23.04687 -2.5586 z"
         id="path4330" />
    </clipPath>
    <clipPath
       clipPathUnits="userSpaceOnUse"
       id="clipPath4311-0">
      <path
         inkscape:connector-curvature="0"
         style="color:#000000;display:inline;overflow:visible;visibility:visible;opacity:1;fill:url(#linearGradient4315);fill-opacity:1;fill-rule:nonzero;stroke:none;stroke-width:4.81500006;stroke-linecap:round;stroke-linejoin:miter;stroke-miterlimit:4;stroke-dasharray:none;stroke-dashoffset:0;stroke-opacity:1;marker:none;enable-background:accumulate"
         d="m -229.07617,1455.911 v 105.7891 c 0,0.8891 0.71244,2.5644 1.45703,2.5644 0.0895,-0.8374 -0.48376,-1.5811 0.62695,-2.5644 h 46.27539 2.5586 23.04687 c 4.86914,0 8.78906,-3.92 8.78906,-8.7891 v -88.2109 c 0,-4.8691 -3.91992,-8.7891 -8.78906,-8.7891 h -23.04687 -2.5586 z"
         id="path4313-7" />
    </clipPath>
    <clipPath
       clipPathUnits="userSpaceOnUse"
       id="clipPath4328-9">
      <path
         inkscape:connector-curvature="0"
         style="color:#000000;display:inline;overflow:visible;visibility:visible;opacity:1;fill:url(#linearGradient4315);fill-opacity:1;fill-rule:nonzero;stroke:none;stroke-width:4.81500006;stroke-linecap:round;stroke-linejoin:miter;stroke-miterlimit:4;stroke-dasharray:none;stroke-dashoffset:0;stroke-opacity:1;marker:none;enable-background:accumulate"
         d="m -229.07617,1455.911 v 105.7891 c 0,0.8891 0.71244,2.5644 1.45703,2.5644 0.0895,-0.8374 -0.48376,-1.5811 0.62695,-2.5644 h 46.27539 2.5586 23.04687 c 4.86914,0 8.78906,-3.92 8.78906,-8.7891 v -88.2109 c 0,-4.8691 -3.91992,-8.7891 -8.78906,-8.7891 h -23.04687 -2.5586 z"
         id="path4330-6" />
    </clipPath>
    <clipPath
       clipPathUnits="userSpaceOnUse"
       id="clipPath4328-4">
      <path
         inkscape:connector-curvature="0"
         style="color:#000000;display:inline;overflow:visible;visibility:visible;opacity:1;fill:url(#linearGradient4315);fill-opacity:1;fill-rule:nonzero;stroke:none;stroke-width:4.81500006;stroke-linecap:round;stroke-linejoin:miter;stroke-miterlimit:4;stroke-dasharray:none;stroke-dashoffset:0;stroke-opacity:1;marker:none;enable-background:accumulate"
         d="m -229.07617,1455.911 v 105.7891 c 0,0.8891 0.71244,2.5644 1.45703,2.5644 0.0895,-0.8374 -0.48376,-1.5811 0.62695,-2.5644 h 46.27539 2.5586 23.04687 c 4.86914,0 8.78906,-3.92 8.78906,-8.7891 v -88.2109 c 0,-4.8691 -3.91992,-8.7891 -8.78906,-8.7891 h -23.04687 -2.5586 z"
         id="path4330-0" />
    </clipPath>
    <clipPath
       clipPathUnits="userSpaceOnUse"
       id="clipPath4898">
      <path
         id="path4900"
         d="m -229.07617,1455.911 v 105.7891 c 0,0.8891 0.71244,2.5644 1.45703,2.5644 0.0895,-0.8374 -0.48376,-1.5811 0.62695,-2.5644 h 46.27539 2.5586 23.04687 c 4.86914,0 8.78906,-3.92 8.78906,-8.7891 v -88.2109 c 0,-4.8691 -3.91992,-8.7891 -8.78906,-8.7891 h -23.04687 -2.5586 z"
         style="color:#000000;display:inline;overflow:visible;visibility:visible;opacity:1;fill:url(#linearGradient4315);fill-opacity:1;fill-rule:nonzero;stroke:none;stroke-width:4.81500006;stroke-linecap:round;stroke-linejoin:miter;stroke-miterlimit:4;stroke-dasharray:none;stroke-dashoffset:0;stroke-opacity:1;marker:none;enable-background:accumulate"
         inkscape:connector-curvature="0" />
    </clipPath>
    <clipPath
       clipPathUnits="userSpaceOnUse"
       id="clipPath4928">
      <path
         inkscape:connector-curvature="0"
         style="color:#000000;display:inline;overflow:visible;visibility:visible;opacity:1;fill:url(#linearGradient4315);fill-opacity:1;fill-rule:nonzero;stroke:none;stroke-width:4.81500006;stroke-linecap:round;stroke-linejoin:miter;stroke-miterlimit:4;stroke-dasharray:none;stroke-dashoffset:0;stroke-opacity:1;marker:none;enable-background:accumulate"
         d="m -229.07617,1455.911 v 105.7891 c 0,0.8891 0.71244,2.5644 1.45703,2.5644 0.0895,-0.8374 -0.48376,-1.5811 0.62695,-2.5644 h 46.27539 2.5586 23.04687 c 4.86914,0 8.78906,-3.92 8.78906,-8.7891 v -88.2109 c 0,-4.8691 -3.91992,-8.7891 -8.78906,-8.7891 h -23.04687 -2.5586 z"
         id="path4930" />
    </clipPath>
    <clipPath
       clipPathUnits="userSpaceOnUse"
       id="clipPath5092">
      <path
         inkscape:connector-curvature="0"
         style="color:#000000;display:inline;overflow:visible;visibility:visible;opacity:1;fill:url(#linearGradient4315);fill-opacity:1;fill-rule:nonzero;stroke:none;stroke-width:4.81500006;stroke-linecap:round;stroke-linejoin:miter;stroke-miterlimit:4;stroke-dasharray:none;stroke-dashoffset:0;stroke-opacity:1;marker:none;enable-background:accumulate"
         d="m -229.07617,1455.911 v 105.7891 c 0,0.8891 0.71244,2.5644 1.45703,2.5644 0.0895,-0.8374 -0.48376,-1.5811 0.62695,-2.5644 h 46.27539 2.5586 23.04687 c 4.86914,0 8.78906,-3.92 8.78906,-8.7891 v -88.2109 c 0,-4.8691 -3.91992,-8.7891 -8.78906,-8.7891 h -23.04687 -2.5586 z"
         id="path5094" />
    </clipPath>
    <clipPath
       clipPathUnits="userSpaceOnUse"
       id="clipPath5122">
      <path
         inkscape:connector-curvature="0"
         style="color:#000000;display:inline;overflow:visible;visibility:visible;opacity:1;fill:url(#linearGradient4315);fill-opacity:1;fill-rule:nonzero;stroke:none;stroke-width:4.81500006;stroke-linecap:round;stroke-linejoin:miter;stroke-miterlimit:4;stroke-dasharray:none;stroke-dashoffset:0;stroke-opacity:1;marker:none;enable-background:accumulate"
         d="m -229.07617,1455.911 v 105.7891 c 0,0.8891 0.71244,2.5644 1.45703,2.5644 0.0895,-0.8374 -0.48376,-1.5811 0.62695,-2.5644 h 46.27539 2.5586 23.04687 c 4.86914,0 8.78906,-3.92 8.78906,-8.7891 v -88.2109 c 0,-4.8691 -3.91992,-8.7891 -8.78906,-8.7891 h -23.04687 -2.5586 z"
         id="path5124" />
    </clipPath>
    <clipPath
       clipPathUnits="userSpaceOnUse"
       id="clipPath5315">
      <rect
         rx="2.8672121"
         ry="2.783535"
         y="1487.7891"
         x="-149.37343"
         height="24.124268"
         width="8.7005014"
         id="rect5317"
         style="color:#000000;display:inline;overflow:visible;visibility:visible;opacity:1;fill:#15bfe3;fill-opacity:1;fill-rule:nonzero;stroke:none;stroke-width:0.10575029;stroke-linecap:round;stroke-linejoin:miter;stroke-miterlimit:4;stroke-dasharray:none;stroke-dashoffset:0;stroke-opacity:1;marker:none;enable-background:accumulate" />
    </clipPath>
    <clipPath
       clipPathUnits="userSpaceOnUse"
       id="clipPath5334">
      <rect
         rx="2.8672121"
         ry="2.783535"
         y="1509.0391"
         x="-149.37343"
         height="24.124268"
         width="8.7005014"
         id="rect5336"
         style="color:#000000;display:inline;overflow:visible;visibility:visible;opacity:1;fill:#05d562;fill-opacity:1;fill-rule:nonzero;stroke:none;stroke-width:0.10575029;stroke-linecap:round;stroke-linejoin:miter;stroke-miterlimit:4;stroke-dasharray:none;stroke-dashoffset:0;stroke-opacity:1;marker:none;enable-background:accumulate" />
    </clipPath>
    <clipPath
       clipPathUnits="userSpaceOnUse"
       id="clipPath5359">
      <rect
         rx="2.8672121"
         ry="2.783535"
         y="1530.1641"
         x="-149.37343"
         height="24.124268"
         width="8.7005014"
         id="rect5361"
         style="color:#000000;display:inline;overflow:visible;visibility:visible;opacity:1;fill:#dd9201;fill-opacity:1;fill-rule:nonzero;stroke:none;stroke-width:0.10575029;stroke-linecap:round;stroke-linejoin:miter;stroke-miterlimit:4;stroke-dasharray:none;stroke-dashoffset:0;stroke-opacity:1;marker:none;enable-background:accumulate" />
    </clipPath>
    <inkscape:perspective
       id="perspective3135-9"
       inkscape:persp3d-origin="147.59482 : 101.02977 : 1"
       inkscape:vp_z="277.59482 : 144.36309 : 1"
       inkscape:vp_y="0 : 1300 : 0"
       inkscape:vp_x="17.594803 : 144.36309 : 1"
       sodipodi:type="inkscape:persp3d" />
    <clipPath
       id="clipPath4282-0"
       clipPathUnits="userSpaceOnUse">
      <rect
         rx="17"
         ry="17"
         y="1646.1122"
         x="462.5"
         height="234.375"
         width="246.875"
         id="rect4284-6"
         style="color:#000000;display:inline;overflow:visible;visibility:visible;fill:#4d4d4d;fill-opacity:1;fill-rule:nonzero;stroke:none;stroke-width:9.13434315;marker:none;enable-background:accumulate" />
    </clipPath>
    <clipPath
       id="clipPath3378-0"
       clipPathUnits="userSpaceOnUse">
      <rect
         y="1432.9845"
         x="-247.76358"
         height="148.32669"
         width="144.18349"
         id="rect3380-2"
         style="color:#000000;display:inline;overflow:visible;visibility:visible;opacity:0.41206031;fill:#ffffff;fill-opacity:1;fill-rule:nonzero;stroke:none;stroke-width:4.81500006;stroke-linecap:round;stroke-linejoin:miter;stroke-miterlimit:4;stroke-dasharray:none;stroke-dashoffset:0;stroke-opacity:1;marker:none;enable-background:accumulate" />
    </clipPath>
    <clipPath
       id="clipPath4277"
       clipPathUnits="userSpaceOnUse">
      <path
         id="path4279-7"
         d="m -229.07617,1455.911 v 105.7891 c 0,0.8891 0.71244,2.5644 1.45703,2.5644 0.0895,-0.8374 -0.48376,-1.5811 0.62695,-2.5644 h 46.27539 2.5586 23.04687 c 4.86914,0 8.78906,-3.92 8.78906,-8.7891 v -88.2109 c 0,-4.8691 -3.91992,-8.7891 -8.78906,-8.7891 h -23.04687 -2.5586 z"
         style="color:#000000;display:inline;overflow:visible;visibility:visible;opacity:1;fill:url(#linearGradient4315);fill-opacity:1;fill-rule:nonzero;stroke:none;stroke-width:4.81500006;stroke-linecap:round;stroke-linejoin:miter;stroke-miterlimit:4;stroke-dasharray:none;stroke-dashoffset:0;stroke-opacity:1;marker:none;enable-background:accumulate"
         inkscape:connector-curvature="0" />
    </clipPath>
    <clipPath
       id="clipPath4328-92"
       clipPathUnits="userSpaceOnUse">
      <path
         id="path4330-2"
         d="m -229.07617,1455.911 v 105.7891 c 0,0.8891 0.71244,2.5644 1.45703,2.5644 0.0895,-0.8374 -0.48376,-1.5811 0.62695,-2.5644 h 46.27539 2.5586 23.04687 c 4.86914,0 8.78906,-3.92 8.78906,-8.7891 v -88.2109 c 0,-4.8691 -3.91992,-8.7891 -8.78906,-8.7891 h -23.04687 -2.5586 z"
         style="color:#000000;display:inline;overflow:visible;visibility:visible;opacity:1;fill:url(#linearGradient4315);fill-opacity:1;fill-rule:nonzero;stroke:none;stroke-width:4.81500006;stroke-linecap:round;stroke-linejoin:miter;stroke-miterlimit:4;stroke-dasharray:none;stroke-dashoffset:0;stroke-opacity:1;marker:none;enable-background:accumulate"
         inkscape:connector-curvature="0" />
    </clipPath>
    <clipPath
       id="clipPath4311-0-8"
       clipPathUnits="userSpaceOnUse">
      <path
         id="path4313-7-9"
         d="m -229.07617,1455.911 v 105.7891 c 0,0.8891 0.71244,2.5644 1.45703,2.5644 0.0895,-0.8374 -0.48376,-1.5811 0.62695,-2.5644 h 46.27539 2.5586 23.04687 c 4.86914,0 8.78906,-3.92 8.78906,-8.7891 v -88.2109 c 0,-4.8691 -3.91992,-8.7891 -8.78906,-8.7891 h -23.04687 -2.5586 z"
         style="color:#000000;display:inline;overflow:visible;visibility:visible;opacity:1;fill:url(#linearGradient4315);fill-opacity:1;fill-rule:nonzero;stroke:none;stroke-width:4.81500006;stroke-linecap:round;stroke-linejoin:miter;stroke-miterlimit:4;stroke-dasharray:none;stroke-dashoffset:0;stroke-opacity:1;marker:none;enable-background:accumulate"
         inkscape:connector-curvature="0" />
    </clipPath>
    <clipPath
       id="clipPath4328-9-7"
       clipPathUnits="userSpaceOnUse">
      <path
         id="path4330-6-3"
         d="m -229.07617,1455.911 v 105.7891 c 0,0.8891 0.71244,2.5644 1.45703,2.5644 0.0895,-0.8374 -0.48376,-1.5811 0.62695,-2.5644 h 46.27539 2.5586 23.04687 c 4.86914,0 8.78906,-3.92 8.78906,-8.7891 v -88.2109 c 0,-4.8691 -3.91992,-8.7891 -8.78906,-8.7891 h -23.04687 -2.5586 z"
         style="color:#000000;display:inline;overflow:visible;visibility:visible;opacity:1;fill:url(#linearGradient4315);fill-opacity:1;fill-rule:nonzero;stroke:none;stroke-width:4.81500006;stroke-linecap:round;stroke-linejoin:miter;stroke-miterlimit:4;stroke-dasharray:none;stroke-dashoffset:0;stroke-opacity:1;marker:none;enable-background:accumulate"
         inkscape:connector-curvature="0" />
    </clipPath>
    <clipPath
       id="clipPath4328-4-6"
       clipPathUnits="userSpaceOnUse">
      <path
         id="path4330-0-1"
         d="m -229.07617,1455.911 v 105.7891 c 0,0.8891 0.71244,2.5644 1.45703,2.5644 0.0895,-0.8374 -0.48376,-1.5811 0.62695,-2.5644 h 46.27539 2.5586 23.04687 c 4.86914,0 8.78906,-3.92 8.78906,-8.7891 v -88.2109 c 0,-4.8691 -3.91992,-8.7891 -8.78906,-8.7891 h -23.04687 -2.5586 z"
         style="color:#000000;display:inline;overflow:visible;visibility:visible;opacity:1;fill:url(#linearGradient4315);fill-opacity:1;fill-rule:nonzero;stroke:none;stroke-width:4.81500006;stroke-linecap:round;stroke-linejoin:miter;stroke-miterlimit:4;stroke-dasharray:none;stroke-dashoffset:0;stroke-opacity:1;marker:none;enable-background:accumulate"
         inkscape:connector-curvature="0" />
    </clipPath>
    <clipPath
       id="clipPath4898-2"
       clipPathUnits="userSpaceOnUse">
      <path
         inkscape:connector-curvature="0"
         style="color:#000000;display:inline;overflow:visible;visibility:visible;opacity:1;fill:url(#linearGradient4315);fill-opacity:1;fill-rule:nonzero;stroke:none;stroke-width:4.81500006;stroke-linecap:round;stroke-linejoin:miter;stroke-miterlimit:4;stroke-dasharray:none;stroke-dashoffset:0;stroke-opacity:1;marker:none;enable-background:accumulate"
         d="m -229.07617,1455.911 v 105.7891 c 0,0.8891 0.71244,2.5644 1.45703,2.5644 0.0895,-0.8374 -0.48376,-1.5811 0.62695,-2.5644 h 46.27539 2.5586 23.04687 c 4.86914,0 8.78906,-3.92 8.78906,-8.7891 v -88.2109 c 0,-4.8691 -3.91992,-8.7891 -8.78906,-8.7891 h -23.04687 -2.5586 z"
         id="path4900-9" />
    </clipPath>
    <clipPath
       id="clipPath4928-3"
       clipPathUnits="userSpaceOnUse">
      <path
         id="path4930-1"
         d="m -229.07617,1455.911 v 105.7891 c 0,0.8891 0.71244,2.5644 1.45703,2.5644 0.0895,-0.8374 -0.48376,-1.5811 0.62695,-2.5644 h 46.27539 2.5586 23.04687 c 4.86914,0 8.78906,-3.92 8.78906,-8.7891 v -88.2109 c 0,-4.8691 -3.91992,-8.7891 -8.78906,-8.7891 h -23.04687 -2.5586 z"
         style="color:#000000;display:inline;overflow:visible;visibility:visible;opacity:1;fill:url(#linearGradient4315);fill-opacity:1;fill-rule:nonzero;stroke:none;stroke-width:4.81500006;stroke-linecap:round;stroke-linejoin:miter;stroke-miterlimit:4;stroke-dasharray:none;stroke-dashoffset:0;stroke-opacity:1;marker:none;enable-background:accumulate"
         inkscape:connector-curvature="0" />
    </clipPath>
    <clipPath
       id="clipPath5092-4"
       clipPathUnits="userSpaceOnUse">
      <path
         id="path5094-5"
         d="m -229.07617,1455.911 v 105.7891 c 0,0.8891 0.71244,2.5644 1.45703,2.5644 0.0895,-0.8374 -0.48376,-1.5811 0.62695,-2.5644 h 46.27539 2.5586 23.04687 c 4.86914,0 8.78906,-3.92 8.78906,-8.7891 v -88.2109 c 0,-4.8691 -3.91992,-8.7891 -8.78906,-8.7891 h -23.04687 -2.5586 z"
         style="color:#000000;display:inline;overflow:visible;visibility:visible;opacity:1;fill:url(#linearGradient4315);fill-opacity:1;fill-rule:nonzero;stroke:none;stroke-width:4.81500006;stroke-linecap:round;stroke-linejoin:miter;stroke-miterlimit:4;stroke-dasharray:none;stroke-dashoffset:0;stroke-opacity:1;marker:none;enable-background:accumulate"
         inkscape:connector-curvature="0" />
    </clipPath>
    <clipPath
       id="clipPath5122-0"
       clipPathUnits="userSpaceOnUse">
      <path
         id="path5124-3"
         d="m -229.07617,1455.911 v 105.7891 c 0,0.8891 0.71244,2.5644 1.45703,2.5644 0.0895,-0.8374 -0.48376,-1.5811 0.62695,-2.5644 h 46.27539 2.5586 23.04687 c 4.86914,0 8.78906,-3.92 8.78906,-8.7891 v -88.2109 c 0,-4.8691 -3.91992,-8.7891 -8.78906,-8.7891 h -23.04687 -2.5586 z"
         style="color:#000000;display:inline;overflow:visible;visibility:visible;opacity:1;fill:url(#linearGradient4315);fill-opacity:1;fill-rule:nonzero;stroke:none;stroke-width:4.81500006;stroke-linecap:round;stroke-linejoin:miter;stroke-miterlimit:4;stroke-dasharray:none;stroke-dashoffset:0;stroke-opacity:1;marker:none;enable-background:accumulate"
         inkscape:connector-curvature="0" />
    </clipPath>
    <clipPath
       id="clipPath5315-6"
       clipPathUnits="userSpaceOnUse">
      <rect
         style="color:#000000;display:inline;overflow:visible;visibility:visible;opacity:1;fill:#15bfe3;fill-opacity:1;fill-rule:nonzero;stroke:none;stroke-width:0.10575029;stroke-linecap:round;stroke-linejoin:miter;stroke-miterlimit:4;stroke-dasharray:none;stroke-dashoffset:0;stroke-opacity:1;marker:none;enable-background:accumulate"
         id="rect5317-1"
         width="8.7005014"
         height="24.124268"
         x="-149.37343"
         y="1487.7891"
         ry="2.783535"
         rx="2.8672121" />
    </clipPath>
    <clipPath
       id="clipPath5334-0"
       clipPathUnits="userSpaceOnUse">
      <rect
         style="color:#000000;display:inline;overflow:visible;visibility:visible;opacity:1;fill:#05d562;fill-opacity:1;fill-rule:nonzero;stroke:none;stroke-width:0.10575029;stroke-linecap:round;stroke-linejoin:miter;stroke-miterlimit:4;stroke-dasharray:none;stroke-dashoffset:0;stroke-opacity:1;marker:none;enable-background:accumulate"
         id="rect5336-6"
         width="8.7005014"
         height="24.124268"
         x="-149.37343"
         y="1509.0391"
         ry="2.783535"
         rx="2.8672121" />
    </clipPath>
    <clipPath
       id="clipPath5359-3"
       clipPathUnits="userSpaceOnUse">
      <rect
         style="color:#000000;display:inline;overflow:visible;visibility:visible;opacity:1;fill:#dd9201;fill-opacity:1;fill-rule:nonzero;stroke:none;stroke-width:0.10575029;stroke-linecap:round;stroke-linejoin:miter;stroke-miterlimit:4;stroke-dasharray:none;stroke-dashoffset:0;stroke-opacity:1;marker:none;enable-background:accumulate"
         id="rect5361-2"
         width="8.7005014"
         height="24.124268"
         x="-149.37343"
         y="1530.1641"
         ry="2.783535"
         rx="2.8672121" />
    </clipPath>
    <linearGradient
       id="i-3"
       x1="400.39999"
       x2="400.39999"
       y1="545.62"
       y2="517.62"
       gradientTransform="matrix(0.41967,0,0,0.41967,-173.34,-178.23)"
       gradientUnits="userSpaceOnUse">
      <stop
         stop-color="#d3d3d3"
         offset="0"
         id="stop2-6" />
      <stop
         stop-color="#fcf9f9"
         offset="1"
         id="stop4-7" />
    </linearGradient>
    <linearGradient
       id="f-5"
       x1="400.39999"
       x2="400.39999"
       y1="545.62"
       y2="517.62"
       gradientTransform="matrix(0.43343,0,0,0.43343,-193.09,-179.69)"
       gradientUnits="userSpaceOnUse">
      <stop
         stop-color="#8d3aff"
         offset="0"
         id="stop7-3" />
      <stop
         stop-color="#ff3680"
         offset="1"
         id="stop9-5" />
    </linearGradient>
    <linearGradient
       id="linearGradient1448"
       x1="3.9686999"
       x2="3.9686999"
       y1="16.403999"
       y2="2.6458001"
       gradientTransform="matrix(0.91668806,0,0,0.91668806,0.70545359,17.638787)"
       gradientUnits="userSpaceOnUse">
      <stop
         style="stop-color:#060215;stop-opacity:1"
         stop-color="#ebf0f5"
         offset="0"
         id="stop12-6" />
      <stop
         style="stop-color:#323134;stop-opacity:1"
         stop-color="#fafafa"
         offset="1"
         id="stop14" />
    </linearGradient>
    <linearGradient
       id="k-7"
       x1="423.39001"
       x2="433.31"
       y1="540.19"
       y2="524.16998"
       gradientTransform="matrix(0.48338,0,0,0.48338,-200.71,-248.05)"
       gradientUnits="userSpaceOnUse">
      <stop
         stop-color="#ff4bfa"
         stop-opacity=".8"
         offset="0"
         id="stop17-2" />
      <stop
         stop-color="#ffaa4b"
         offset="1"
         id="stop19-2" />
    </linearGradient>
    <filter
       style="color-interpolation-filters:sRGB"
       id="filter1877-5"
       x="-0.027479"
       y="-0.021303"
       width="1.0549999"
       height="1.0426">
      <feGaussianBlur
         stdDeviation="0.072702461"
         id="feGaussianBlur22" />
    </filter>
    <filter
       style="color-interpolation-filters:sRGB"
       id="filter861-3"
       x="-0.027000001"
       y="-0.027000001"
       width="1.054"
       height="1.054">
      <feGaussianBlur
         stdDeviation="0.16371"
         id="feGaussianBlur25" />
    </filter>
    <linearGradient
       id="linearGradient1407"
       x1="400.39999"
       x2="400.39999"
       y1="545.62"
       y2="517.62"
       gradientTransform="matrix(1.5861856,0,0,1.5861856,-574.23662,-682.0067)"
       gradientUnits="userSpaceOnUse"
       xlink:href="#i-3" />
    <linearGradient
       id="linearGradient1409"
       x1="400.39999"
       x2="400.39999"
       y1="545.62"
       y2="517.62"
       gradientTransform="matrix(1.6381929,0,0,1.6381929,-648.88373,-687.52492)"
       gradientUnits="userSpaceOnUse"
       xlink:href="#f-5" />
    <linearGradient
       id="b-3"
       x1="399.57"
       x2="399.57"
       y1="545.8"
       y2="517.8"
       gradientTransform="matrix(2.1429,0,0,2.1429,-632.81654,-1123.0196)"
       gradientUnits="userSpaceOnUse">
      <stop
         stop-color="#3889e9"
         offset="0"
         id="stop1015" />
      <stop
         stop-color="#5ea5fb"
         offset="1"
         id="stop1017" />
    </linearGradient>
    <linearGradient
       id="linearGradient1001"
       x1="32.431"
       x2="32.431"
       y1="61.873"
       y2="1.6692"
       gradientTransform="matrix(0.26458333,0,0,0.26458333,-0.62075028,15.173462)"
       gradientUnits="userSpaceOnUse">
      <stop
         stop-color="#1d2123"
         offset="0"
         id="stop1020" />
      <stop
         stop-color="#33393e"
         offset="1"
         id="stop1022" />
    </linearGradient>
    <linearGradient
       y2="517.62"
       x2="400.39999"
       y1="545.62"
       x1="400.39999"
       gradientTransform="matrix(1.5861856,0,0,1.5861856,-574.23662,-682.0067)"
       gradientUnits="userSpaceOnUse"
       id="linearGradient1323"
       xlink:href="#i-3"
       inkscape:collect="always" />
    <linearGradient
       y2="517.62"
       x2="400.39999"
       y1="545.62"
       x1="400.39999"
       gradientTransform="matrix(1.6381929,0,0,1.6381929,-648.88373,-687.52492)"
       gradientUnits="userSpaceOnUse"
       id="linearGradient1325"
       xlink:href="#f-5"
       inkscape:collect="always" />
  </defs>
  <g
     transform="matrix(3.7795276,0,0,3.7795276,-112.63335,-57.348426)"
     id="g1127"
     style="image-rendering:optimizeSpeed">
    <path
       d="M 43.093178,17.473581 Q 42.071966,16.687107 40.859037,16.268245 39.6056,15.835043 38.265591,15.835043 c -4.384146,0 -7.938294,3.553883 -7.938294,7.937765 0,4.010554 2.97524,7.324725 6.838156,7.860506 0.188423,0.02607 0.379386,0.04626 0.571156,0.05804 0.174964,0.01093 0.350785,0.0185 0.529114,0.0185 4.383352,0 7.936706,-3.553883 7.936706,-7.937235 0,-0.346551 -0.02187,-0.688896 -0.06477,-1.022826 -0.04963,-0.390287 -0.130381,-0.769673 -0.233854,-1.138926 Q 45.5522,20.370158 44.823696,19.302035 44.103633,18.249707 43.093268,17.473393 Z"
       opacity="0.2"
       stroke-width="0.263856"
       id="path1051" />
    <path
       style="fill:url(#linearGradient1001)"
       d="M 43.093178,17.208892 Q 42.071966,16.422418 40.859037,16.003556 39.6056,15.570354 38.265591,15.570354 c -4.384146,0 -7.938294,3.553883 -7.938294,7.937764 0,4.010555 2.97524,7.324725 6.838156,7.860507 0.188423,0.02608 0.379386,0.04626 0.571156,0.05804 0.174964,0.01093 0.350785,0.0185 0.529114,0.0185 4.383352,0 7.936706,-3.553883 7.936706,-7.937235 0,-0.346552 -0.02187,-0.688896 -0.06477,-1.022827 -0.04963,-0.390286 -0.130381,-0.769673 -0.233854,-1.138925 Q 45.5522,20.105442 44.823696,19.037345 44.103633,17.985018 43.093268,17.208704 Z"
       fill="url(#linearGradient1001)"
       stroke-width="0.263856"
       id="path1053" />
    <circle
       cx="38.270088"
       cy="23.519495"
       r="7.9377642"
       fill-opacity="0"
       stroke-width="0.415793"
       id="circle1055" />
  </g>
  <g
     id="g49"
     opacity=".5"
     filter="url(#h)"
     transform="translate(-7.8136 11.068)">
    <g
       id="g47"
       transform="matrix(1.3043 0 0 1.3043 8.5092 -10.372)">
      <path
         id="path39"
         d="m26.402 12h7.203c1.324 0 2.398 1.074 2.398 2.398v7.207c0 1.324-1.074 2.398-2.398 2.398h-7.203c-1.324 0-2.398-1.074-2.398-2.398v-7.207c0-1.324 1.074-2.398 2.398-2.398" />
      <path
         id="path41"
         d="m14.398 12h7.207c1.324 0 2.398 1.074 2.398 2.398v7.207c0 1.324-1.074 2.398-2.398 2.398h-7.207c-1.324 0-2.398-1.074-2.398-2.398v-7.207c0-1.324 1.074-2.398 2.398-2.398" />
      <path
         id="path43"
         d="m26.402 24h7.203c1.324 0 2.398 1.074 2.398 2.398v7.203c0 1.324-1.074 2.398-2.398 2.398h-7.203c-1.324 0-2.398-1.074-2.398-2.398v-7.203c0-1.324 1.074-2.398 2.398-2.398" />
      <path
         id="path45"
         d="m14.398 24h7.207c1.324 0 2.398 1.074 2.398 2.398v7.203c0 1.324-1.074 2.398-2.398 2.398h-7.207c-1.324 0-2.398-1.074-2.398-2.398v-7.203c0-1.324 1.074-2.398 2.398-2.398" />
    </g>
  </g>
  <g
     id="g61"
     transform="translate(-7.8136 11.068)">
    <g
       id="g59"
       transform="matrix(1.3043 0 0 1.3043 8.5092 -10.372)">
      <path
         id="path51"
         fill="url(#e)"
         d="m26.402 12h7.203c1.324 0 2.398 1.074 2.398 2.398v7.207c0 1.324-1.074 2.398-2.398 2.398h-7.203c-1.324 0-2.398-1.074-2.398-2.398v-7.207c0-1.324 1.074-2.398 2.398-2.398" />
      <path
         id="path53"
         fill="url(#f)"
         d="m14.398 12h7.207c1.324 0 2.398 1.074 2.398 2.398v7.207c0 1.324-1.074 2.398-2.398 2.398h-7.207c-1.324 0-2.398-1.074-2.398-2.398v-7.207c0-1.324 1.074-2.398 2.398-2.398" />
      <path
         id="path55"
         fill="url(#d)"
         d="m26.402 24h7.203c1.324 0 2.398 1.074 2.398 2.398v7.203c0 1.324-1.074 2.398-2.398 2.398h-7.203c-1.324 0-2.398-1.074-2.398-2.398v-7.203c0-1.324 1.074-2.398 2.398-2.398" />
      <path
         id="path57"
         fill="url(#c)"
         d="m14.398 24h7.207c1.324 0 2.398 1.074 2.398 2.398v7.203c0 1.324-1.074 2.398-2.398 2.398h-7.207c-1.324 0-2.398-1.074-2.398-2.398v-7.203c0-1.324 1.074-2.398 2.398-2.398" />
    </g>
  </g>
  <g
     id="g42"
     transform="matrix(3.7796021,0,0,3.7796021,-1.6042128,-4.9781003)"
     style="fill:#5e4aa6;stroke-width:0.26458;image-rendering:optimizeSpeed">
    <circle
       id="circle34"
       r="0"
       cy="-328.38"
       cx="-330.35001" />
    <circle
       id="circle36"
       r="0"
       cy="-326.25"
       cx="-312.10999" />
    <circle
       id="circle38"
       r="0"
       cy="-333.07001"
       cx="-306.01999" />
    <circle
       id="circle40"
       r="0"
       cy="-326.01001"
       cx="-308.84" />
  </g>
  <circle
     style="fill:url(#linearGradient1323);stroke-width:1.00001;image-rendering:optimizeSpeed"
     id="circle44"
     r="0"
     cy="161.54758"
     cx="61.134911" />
  <circle
     style="fill:none;stroke:url(#linearGradient1325);stroke-width:2.12969;image-rendering:optimizeSpeed"
     id="circle46"
     r="0"
     cy="183.7036"
     cx="7.3458862" />
  <g
     id="g56"
     transform="matrix(3.7796021,0,0,3.7796021,-1.6042128,-4.9781003)"
     style="fill:#5e4aa6;stroke-width:0.26458;image-rendering:optimizeSpeed">
    <circle
       id="circle48"
       r="0"
       cy="-328.38"
       cx="-330.35001" />
    <circle
       id="circle50"
       r="0"
       cy="-326.25"
       cx="-312.10999" />
    <circle
       id="circle52"
       r="0"
       cy="-333.07001"
       cx="-306.01999" />
    <circle
       id="circle54"
       r="0"
       cy="-326.01001"
       cx="-308.84" />
  </g>
  <circle
     id="circle58"
     r="0"
     cy="161.54758"
     cx="61.134911"
     style="fill:url(#linearGradient1407);stroke-width:1.00001;image-rendering:optimizeSpeed" />
  <circle
     id="circle60"
     r="0"
     cy="183.7036"
     cx="7.3458862"
     style="fill:none;stroke:url(#linearGradient1409);stroke-width:2.12969;image-rendering:optimizeSpeed" />
  <g
     id="g1049"
     stroke-width="0.26458"
     fill="#5e4aa6"
     transform="matrix(3.7796002,0,0,3.7796002,193.55347,-15.019746)"
     style="image-rendering:optimizeSpeed">
    <circle
       id="circle1027"
       image-rendering="optimizeSpeed"
       r="0"
       cy="-328.37"
       cx="-330.35001" />
    <circle
       id="circle1029"
       image-rendering="optimizeSpeed"
       r="0"
       cy="-328.38"
       cx="-330.35001" />
    <circle
       id="circle1031"
       image-rendering="optimizeSpeed"
       r="0"
       cy="-328.38"
       cx="-330.35001" />
    <circle
       id="circle1033"
       image-rendering="optimizeSpeed"
       r="0"
       cy="-336.84"
       cx="-352.63" />
    <circle
       id="circle1035"
       image-rendering="optimizeSpeed"
       r="0"
       cy="-328.37"
       cx="-330.35001" />
    <circle
       id="circle1037"
       image-rendering="optimizeSpeed"
       r="0"
       cy="-328.26999"
       cx="-305.84" />
    <circle
       id="circle1039"
       image-rendering="optimizeSpeed"
       r="0"
       cy="-328.28"
       cx="-305.84" />
    <circle
       id="circle1041"
       image-rendering="optimizeSpeed"
       r="0"
       cy="-328.28"
       cx="-305.84" />
    <circle
       id="circle1043"
       image-rendering="optimizeSpeed"
       r="0"
       cy="-336.73999"
       cx="-328.12" />
    <circle
       id="circle1045"
       image-rendering="optimizeSpeed"
       r="0"
       cy="-328.26999"
       cx="-305.84" />
    <circle
       id="circle1047"
       r="0"
       cy="-328.69"
       cx="-305.03" />
  </g>
  <circle
     style="fill:url(#b-3);image-rendering:optimizeSpeed"
     id="circle1057"
     stroke-width="1.5715"
     fill="url(#b)"
     r="0"
     cy="16.524366"
     cx="225.56247" />
</svg>
