<svg width="64" height="64" version="1.1" viewBox="0 0 16.933 16.933" xmlns="http://www.w3.org/2000/svg" xmlns:xlink="http://www.w3.org/1999/xlink">
 <defs>
  <linearGradient id="a" x1="-6.1472" x2="-6.1472" y1="-137.82" y2="-100.78" gradientTransform="matrix(.49892 0 0 .49892 11.356 348.3)" gradientUnits="userSpaceOnUse">
   <stop stop-color="#32b4ff" offset="0"/>
   <stop stop-color="#3287ff" offset="1"/>
  </linearGradient>
 </defs>
 <g transform="translate(0 -280.07)">
  <circle cx="-330.35" cy="-48.312" r="0" fill="#5e4aa6" stroke-width=".26458"/>
  <ellipse cx="-39.434" cy="286.51" r=".90502" fill="#5e4aa6" fill-rule="evenodd" stroke-width=".26458"/>
  <circle cx="8.4935" cy="288.8" r="7.9375" opacity=".2" stroke-width=".14032"/>
  <circle cx="8.4938" cy="288.53" r="7.4674" fill="url(#a)" stroke="#fafafa" stroke-width=".94077" style="paint-order:normal"/>
  <g transform="matrix(1.3529 0 0 1.2109 -3.3851 -60.298)" fill="#0078ff" opacity=".5">
   <path d="m11.376 285.09-1.9078 1.9078 0.85177 1.3962z"/>
   <path d="m11.377 285.09-1.9078 1.9078-1.3962-0.85176z"/>
  </g>
  <g transform="matrix(1.3194 0 0 1.3194 -3.1065 -91.593)">
   <path d="m11.376 285.09-1.9078 1.9078 0.85177 1.3962z" fill="#bec8c8"/>
   <path d="m11.377 285.09-1.9078 1.9078-1.3962-0.85176z" fill="#fff"/>
  </g>
  <path transform="matrix(.93759 0 0 .99075 .52662 3.0219)" d="m8.692 287.74s-3.2764 1.0509-4.2871 5.722c1.1026 0.40885 1.7581 1.0785 2.8034 1.5696-0.19153-2.1627 0.23613-4.3655 1.4837-7.2916z" fill="#0078ff" opacity=".5" style="paint-order:normal"/>
  <path d="m8.692 287.74s-4.0158 2.0127-4.4297 6.6353c0.92934 0.58549 2.0236 0.92469 3.0241 1.1131-0.37343-2.1131-0.28849-4.6073 1.4056-7.7484z" fill="#fafafa" style="paint-order:normal"/>
 </g>
</svg>
