<?xml version="1.0" encoding="UTF-8" standalone="no"?>
<svg
   xmlns:dc="http://purl.org/dc/elements/1.1/"
   xmlns:cc="http://creativecommons.org/ns#"
   xmlns:rdf="http://www.w3.org/1999/02/22-rdf-syntax-ns#"
   xmlns:svg="http://www.w3.org/2000/svg"
   xmlns="http://www.w3.org/2000/svg"
   xmlns:sodipodi="http://sodipodi.sourceforge.net/DTD/sodipodi-0.dtd"
   xmlns:inkscape="http://www.inkscape.org/namespaces/inkscape"
   inkscape:version="1.0 (4035a4fb49, 2020-05-01)"
   sodipodi:docname="telegram.svg"
   viewBox="0 0 64 64"
   version="1.1"
   image-rendering="optimizeSpeed"
   enable-background="new 0 0 1024 1024"
   height="64"
   width="64"
   id="Gimp">
  <metadata
     id="metadata50">
    <rdf:RDF>
      <cc:Work
         rdf:about="">
        <dc:format>image/svg+xml</dc:format>
        <dc:type
           rdf:resource="http://purl.org/dc/dcmitype/StillImage" />
        <dc:title></dc:title>
      </cc:Work>
    </rdf:RDF>
  </metadata>
  <sodipodi:namedview
     inkscape:current-layer="Gimp"
     inkscape:window-maximized="1"
     inkscape:window-y="36"
     inkscape:window-x="0"
     inkscape:cy="36.140017"
     inkscape:cx="55.97861"
     inkscape:zoom="4.2150193"
     showgrid="false"
     id="namedview48"
     inkscape:window-height="932"
     inkscape:window-width="1920"
     inkscape:pageshadow="2"
     inkscape:pageopacity="0"
     guidetolerance="10"
     gridtolerance="10"
     objecttolerance="10"
     borderopacity="1"
     bordercolor="#666666"
     pagecolor="#ffffff" />
  <defs
     id="defs15">
    <linearGradient
       gradientUnits="userSpaceOnUse"
       gradientTransform="matrix(4.2812,0,0,3.5908,41,42)"
       y2="174.71"
       y1="131.03"
       x2="146.53"
       x1="123.64"
       id="w">
      <stop
         id="stop2"
         offset="0"
         stop-color="#eff7fc" />
      <stop
         id="stop4"
         offset="1"
         stop-color="#fff" />
    </linearGradient>
    <filter
       color-interpolation-filters="sRGB"
       height="1.0789"
       width="1.0662"
       y="-.039461"
       x="-.033097"
       id="b">
      <feGaussianBlur
         id="feGaussianBlur7"
         stdDeviation="1.7995675" />
    </filter>
    <linearGradient
       gradientUnits="userSpaceOnUse"
       gradientTransform="matrix(3.7796,0,0,3.7796,5.9594511,-14.741472)"
       y2="1.852"
       y1="15.081"
       x2="7.9373"
       x1="7.9373"
       id="linearGradient862">
      <stop
         id="stop10"
         offset="0"
         stop-color="#0075b0" />
      <stop
         id="stop12"
         offset="1"
         stop-color="#33d4ff" />
    </linearGradient>
    <linearGradient
       id="a-3"
       x1="-6.1472"
       x2="-6.1472"
       y1="-137.82"
       y2="-100.78"
       gradientTransform="matrix(2.0044363,0,0,2.0044363,161.62573,276.45301)"
       gradientUnits="userSpaceOnUse">
      <stop
         stop-color="#32b4ff"
         offset="0"
         id="stop877" />
      <stop
         stop-color="#3287ff"
         offset="1"
         id="stop879" />
    </linearGradient>
  </defs>
  <g
     transform="translate(-118.12654,-4.8363071)"
     id="g934">
    <g
       transform="matrix(1.0000071,0,0,1.0000071,118.10631,5.2913601)"
       opacity="0.25"
       stroke-width="1.5715"
       id="g890">
      <circle
         cx="32.02"
         cy="32.043999"
         r="30.000999"
         id="circle884" />
      <circle
         cx="32.02"
         cy="32.043999"
         r="30.000999"
         fill-opacity="0"
         id="circle886" />
      <circle
         cx="32.02"
         cy="32.043999"
         r="0"
         id="circle888" />
    </g>
    <circle
       cx="150.12592"
       cy="36.336407"
       r="30.000591"
       fill="url(#a-3)"
       style="fill:url(#a-3);stroke-width:3.7796;paint-order:normal"
       id="circle892" />
  </g>
  <g
     id="g37"
     stroke-width="15.683"
     opacity=".2"
     filter="url(#b)"
     transform="matrix(.25 0 0 .25 2 .59229)">
    <path
       id="path31"
       d="m98 175c-3.8876 0-3.227-1.4679-4.5678-5.1695l-11.432-37.625 88-52.206" />
    <path
       id="path33"
       d="m98 175c3 0 4.3255-1.372 6-3l16-15.558-19.958-12.035" />
    <path
       id="path35"
       d="m100.04 144.41 48.36 35.729c5.5185 3.0449 9.5014 1.4684 10.876-5.1235l19.685-92.763c2.0154-8.0802-3.0801-11.745-8.3594-9.3482l-115.59 44.571c-7.8901 3.1647-7.8441 7.5666-1.4382 9.528l29.663 9.2583 68.673-43.325c3.2419-1.9659 6.2173-0.90899 3.7752 1.2584" />
  </g>
  <g
     id="g45"
     stroke-width="61.492"
     transform="matrix(.063762 0 0 .063762 -.61424 -2.7233)">
    <path
       id="path39"
       fill="#c8daea"
       d="m425.24 728.15c-15.243 0-12.653-5.7554-17.91-20.269l-44.824-147.52 345.03-204.69" />
    <path
       id="path41"
       fill="#a9c9dd"
       d="m425.24 728.15c11.762 0 16.96-5.3794 23.525-11.762l62.733-61-78.252-47.187" />
    <path
       id="path43"
       fill="url(#w)"
       d="m433.24 608.21 189.61 140.09c21.637 11.939 37.253 5.7574 42.643-20.088l77.182-363.71c7.902-31.681-12.077-46.05-32.776-36.653l-453.21 174.76c-30.936 12.408-30.755 29.667-5.6389 37.358l116.3 36.3 269.26-169.87c12.711-7.708 24.377-3.564 14.802 4.934" />
  </g>
  <circle
     id="circle898"
     stroke-width="1.00001"
     fill="#5e4aa6"
     r="0"
     cy="-1200.6759"
     cx="-1048.9392" />
  <circle
     id="circle900"
     stroke-width="1.00001"
     fill-rule="evenodd"
     fill="#5e4aa6"
     r="0"
     cy="64.802856"
     cx="50.607479" />
</svg>
