<?xml version="1.0" encoding="UTF-8"?>
<svg width="64" height="64" version="1.1" viewBox="0 0 64 64" xmlns="http://www.w3.org/2000/svg" xmlns:cc="http://creativecommons.org/ns#" xmlns:dc="http://purl.org/dc/elements/1.1/" xmlns:rdf="http://www.w3.org/1999/02/22-rdf-syntax-ns#">
 <metadata>
  <rdf:RDF>
   <cc:Work rdf:about="">
    <dc:format>image/svg+xml</dc:format>
    <dc:type rdf:resource="http://purl.org/dc/dcmitype/StillImage"/>
    <dc:title/>
   </cc:Work>
  </rdf:RDF>
 </metadata>
 <defs>
  <linearGradient id="f-5" x1="-6.1472" x2="-6.1472" y1="-137.82" y2="-100.78" gradientTransform="matrix(2.0044,0,0,2.0044,43.499,271.61)" gradientUnits="userSpaceOnUse">
   <stop stop-color="#14dc78" offset="0"/>
   <stop stop-color="#14a03c" offset="1"/>
  </linearGradient>
 </defs>
 <circle cx="-1248.7" cy="-1241.6" r="0" fill="#5e4aa6"/>
 <circle cx="32" cy="32.51" r="30.001" opacity=".2" stroke-width=".53035"/>
 <circle cx="32" cy="31.49" r="30.001" fill="url(#f-5)" stroke-width=".53035"/>
 <g fill="#5e4aa6">
  <circle cx="-149.15" cy="23.855" r="0" fill-rule="evenodd"/>
  <circle cx="-1150.9" cy="-1256.6" r="0"/>
  <circle cx="-51.327" cy="8.8744" r="0" fill-rule="evenodd"/>
 </g>
 <g transform="matrix(1.3705 0 0 1.3705 -1.5758 -1.5778)">
  <!-- color: #f7d9cc -->
  <g>
   <path d="m27.898 17.996v0.375c0.852 0 1.129 0.033 1.469 0.518l2.988 4.41-2.695 3.957c-0.664 0.965-1.668 0.982-1.965 0.982v0.375h0.9c-0.307 1.931-0.689 3.02-3.17 3.02h-2.148c-0.617 0-0.645-0.078-0.645-0.613v-4.352h1.457c1.461 0 1.602 0.539 1.602 1.852h0.25v-4.047h-0.25c0 1.289-0.141 1.82-1.602 1.82h-1.457v-3.859c0-0.523 0.027-0.602 0.645-0.602h2.117c2.395 0 2.676 0.957 2.891 3.01h0.281l-0.371-3.441h-6.754l-0.242-3.381h-8.938l-0.262 3.441h0.277c0.199-2.578 0.422-3.03 2.82-3.03h0.854c0.297 0.047 0.297 0.238 0.297 0.594v8.473c0 0.566-0.047 0.734-1.352 0.734h-0.441v0.375h4.555v-0.375h-0.441c-1.285 0-1.332-0.172-1.332-0.734v-8.473c0-0.344 0-0.527 0.281-0.594h0.848c2.346 0 2.602 0.447 2.805 2.969h-0.814v0.43c1.098 0 1.273 0 1.273 0.699v8.398c0 0.699-0.176 0.699-1.273 0.699v0.375h8.05l0.484-3.387h1.646v-0.375c-0.477-0.047-0.615-0.357-0.615-0.607 0-0.203 0.076-0.313 0.154-0.422l2.479-3.635 2.689 3.979c0.121 0.172 0.121 0.219 0.121 0.266 0 0.125-0.137 0.391-0.68 0.422v0.379h3.313v-0.379c-0.992 0-1.146-0.074-1.451-0.516l-3.406-5.01 2.289-3.328c0.23-0.324 0.699-0.996 1.969-1.016v-0.375h-2.848v0.375c0.496 0.047 0.621 0.359 0.621 0.609 0 0.188-0.078 0.313-0.188 0.465l-2.043 2.98-2.289-3.367c-0.109-0.172-0.125-0.219-0.125-0.266 0-0.141 0.168-0.408 0.684-0.424v-0.375h-3.313z" opacity=".15"/>
   <g fill="#191919">
    <path d="m20.2 17.02h-8.938l-0.262 3.441h0.277c0.199-2.578 0.422-3.03 2.82-3.03h0.855c0.297 0.047 0.297 0.238 0.297 0.594v8.473c0 0.566-0.047 0.734-1.352 0.734h-0.441v0.375h4.554v-0.375h-0.441c-1.285 0-1.332-0.172-1.332-0.734v-8.473c0-0.344 0-0.527 0.281-0.594h0.848c2.367 0 2.605 0.449 2.809 3.03h0.27"/>
    <path d="m27.969 27.07h-0.277c-0.34 2.309-0.543 3.563-3.266 3.563h-2.148c-0.617 0-0.645-0.078-0.645-0.613v-4.352h1.457c1.461 0 1.602 0.539 1.602 1.852h0.25v-4.047h-0.25c0 1.289-0.141 1.82-1.602 1.82h-1.457v-3.859c0-0.523 0.027-0.602 0.645-0.602h2.117c2.395 0 2.676 0.957 2.891 3.01h0.281l-0.371-3.441h-7.84v0.43c1.098 0 1.273 0 1.273 0.699v8.398c0 0.699-0.176 0.699-1.273 0.699v0.375h8.05"/>
    <path d="m32.14 21.719 2.289-3.328c0.23-0.324 0.699-0.996 1.969-1.016v-0.375h-2.847v0.375c0.496 0.047 0.621 0.359 0.621 0.609 0 0.188-0.078 0.313-0.188 0.465l-2.043 2.98-2.289-3.367c-0.109-0.172-0.125-0.219-0.125-0.266 0-0.141 0.168-0.406 0.684-0.422v-0.375h-3.313v0.375c0.852 0 1.129 0.031 1.469 0.516l2.988 4.41-2.695 3.957c-0.664 0.965-1.668 0.984-1.965 0.984v0.375h2.843v-0.375c-0.477-0.047-0.617-0.359-0.617-0.609 0-0.203 0.078-0.313 0.156-0.422l2.477-3.633 2.691 3.977c0.121 0.172 0.121 0.219 0.121 0.266 0 0.125-0.137 0.391-0.68 0.422v0.379h3.313v-0.379c-0.992 0-1.148-0.074-1.453-0.516"/>
   </g>
  </g>
 </g>
</svg>
