<?xml version="1.0" encoding="UTF-8" standalone="no"?>
<svg
   xmlns:dc="http://purl.org/dc/elements/1.1/"
   xmlns:cc="http://creativecommons.org/ns#"
   xmlns:rdf="http://www.w3.org/1999/02/22-rdf-syntax-ns#"
   xmlns:svg="http://www.w3.org/2000/svg"
   xmlns="http://www.w3.org/2000/svg"
   xmlns:xlink="http://www.w3.org/1999/xlink"
   xmlns:sodipodi="http://sodipodi.sourceforge.net/DTD/sodipodi-0.dtd"
   xmlns:inkscape="http://www.inkscape.org/namespaces/inkscape"
   viewBox="0 0 64 64"
   version="1.1"
   image-rendering="optimizeSpeed"
   enable-background="new 0 0 1024 1024"
   height="64"
   width="64"
   id="Apps-Opera"
   sodipodi:docname="viber.svg"
   inkscape:version="1.0 (4035a4fb49, 2020-05-01)">
  <sodipodi:namedview
     inkscape:document-rotation="0"
     pagecolor="#ffffff"
     bordercolor="#666666"
     borderopacity="1"
     objecttolerance="10"
     gridtolerance="10"
     guidetolerance="10"
     inkscape:pageopacity="0"
     inkscape:pageshadow="2"
     inkscape:window-width="1920"
     inkscape:window-height="932"
     id="namedview49"
     showgrid="false"
     inkscape:zoom="5.9609375"
     inkscape:cx="2.8613949"
     inkscape:cy="31.462328"
     inkscape:window-x="0"
     inkscape:window-y="36"
     inkscape:window-maximized="1"
     inkscape:current-layer="Apps-Opera" />
  <metadata
     id="metadata55">
    <rdf:RDF>
      <cc:Work
         rdf:about="">
        <dc:format>image/svg+xml</dc:format>
        <dc:type
           rdf:resource="http://purl.org/dc/dcmitype/StillImage" />
        <dc:title></dc:title>
      </cc:Work>
    </rdf:RDF>
  </metadata>
  <defs
     id="defs26">
    <linearGradient
       id="linearGradient879"
       inkscape:collect="always">
      <stop
         id="stop875"
         offset="0"
         style="stop-color:#af64ff;stop-opacity:1" />
      <stop
         id="stop877"
         offset="1"
         style="stop-color:#c896ff;stop-opacity:1" />
    </linearGradient>
    <linearGradient
       gradientUnits="userSpaceOnUse"
       gradientTransform="matrix(0 32.792 -32.792 0 38.638 16.028)"
       x2="1"
       id="b">
      <stop
         id="stop2"
         offset="0"
         stop-color="#9c0000" />
      <stop
         id="stop4"
         offset=".7"
         stop-color="#ff4b4b" />
      <stop
         id="stop6"
         offset="1"
         stop-color="#ff4b4b" />
    </linearGradient>
    <linearGradient
       gradientUnits="userSpaceOnUse"
       gradientTransform="matrix(0 37.076 -37.076 0 29.033 13.843)"
       x2="1"
       id="a">
      <stop
         id="stop9"
         offset="0"
         stop-color="#ff1b2d" />
      <stop
         id="stop11"
         offset=".3"
         stop-color="#ff1b2d" />
      <stop
         id="stop13"
         offset=".61"
         stop-color="#ff1b2d" />
      <stop
         id="stop15"
         offset="1"
         stop-color="#a70014" />
    </linearGradient>
    <filter
       color-interpolation-filters="sRGB"
       height="1.072"
       width="1.072"
       y="-.036"
       x="-.036"
       id="d">
      <feGaussianBlur
         id="feGaussianBlur18"
         stdDeviation="9" />
    </filter>
    <linearGradient
       xlink:href="#linearGradient887"
       gradientUnits="userSpaceOnUse"
       gradientTransform="matrix(3.7795 0 0 3.7795 .00014309 .031541)"
       y2="1.852"
       y1="15.081"
       x2="7.9373"
       x1="7.9373"
       id="linearGradient862-3">
      <stop
         id="stop21"
         offset="0"
         stop-color="#f1efeb" />
      <stop
         id="stop23"
         offset="1"
         stop-color="#fdfcfc" />
    </linearGradient>
    <filter
       id="filter957"
       x="-0.2325"
       y="-0.051667001"
       width="1.465"
       height="1.1033"
       color-interpolation-filters="sRGB">
      <feGaussianBlur
         stdDeviation="0.775"
         id="feGaussianBlur17" />
    </filter>
    <linearGradient
       gradientTransform="translate(-2.7850799,0.85318792)"
       id="linearGradient911"
       x1="23"
       x2="23"
       y1="14"
       y2="50"
       gradientUnits="userSpaceOnUse"
       xlink:href="#linearGradient880" />
    <linearGradient
       id="linearGradient880"
       x1="15.938"
       x2="44.062"
       y1="44.845001"
       y2="44.845001"
       gradientTransform="rotate(2.3768,118.86,41.374)"
       gradientUnits="userSpaceOnUse">
      <stop
         stop-color="#f41e00"
         offset="0"
         id="stop10" />
      <stop
         stop-color="#00d500"
         offset="1"
         id="stop12" />
    </linearGradient>
    <filter
       id="filter961"
       x="-0.2325"
       y="-0.051667001"
       width="1.465"
       height="1.1033"
       color-interpolation-filters="sRGB">
      <feGaussianBlur
         stdDeviation="0.775"
         id="feGaussianBlur20" />
    </filter>
    <linearGradient
       gradientTransform="translate(-2.7850799,0.85318792)"
       id="linearGradient919"
       x1="41"
       x2="41"
       y1="14"
       y2="50"
       gradientUnits="userSpaceOnUse"
       xlink:href="#linearGradient880" />
    <linearGradient
       id="linearGradient4152"
       x1="26.173"
       x2="14.482"
       y1="32.403"
       y2="5.7698998"
       gradientTransform="matrix(1.246314,0,0,1.246314,135.12151,6.8274752)"
       gradientUnits="userSpaceOnUse">
      <stop
         stop-color="#ffffff"
         offset="0"
         id="stop5" />
      <stop
         stop-color="#cbb0ea"
         offset="1"
         id="stop7" />
    </linearGradient>
    <filter
       id="filter907"
       x="-0.059999999"
       y="-0.059999999"
       width="1.12"
       height="1.12"
       color-interpolation-filters="sRGB">
      <feGaussianBlur
         stdDeviation="0.21166213"
         id="feGaussianBlur15" />
    </filter>
    <linearGradient
       gradientTransform="matrix(4.749479,0,0,4.7065135,-9.3627347,-9.0024345)"
       id="linearGradient887"
       x1="8.4665003"
       x2="8.4665003"
       y1="0.52920002"
       y2="16.403999"
       gradientUnits="userSpaceOnUse">
      <stop
         stop-color="#7d519e"
         offset="0"
         id="stop10-0" />
      <stop
         stop-color="#a987c2"
         offset="1"
         id="stop12-4" />
    </linearGradient>
    <filter
       id="c"
       x="-0.035999998"
       y="-0.035999998"
       width="1.072"
       height="1.072"
       color-interpolation-filters="sRGB">
      <feGaussianBlur
         stdDeviation="0.23812032"
         id="feGaussianBlur2" />
    </filter>
    <linearGradient
       gradientUnits="userSpaceOnUse"
       y2="3.7588553"
       x2="32.241146"
       y1="59.651268"
       x1="32.241146"
       id="linearGradient7696"
       xlink:href="#linearGradient887"
       gradientTransform="translate(133.03319)" />
    <linearGradient
       gradientUnits="userSpaceOnUse"
       gradientTransform="matrix(3.779602,0,0,3.779602,-0.10411232,-1059.0388)"
       y2="297.9"
       y1="279.52"
       x2="8.4207"
       x1="8.4207"
       id="b-3">
      <stop
         id="stop891"
         offset="0"
         stop-color="#c896ff" />
      <stop
         id="stop893"
         offset="1"
         stop-color="#af64ff" />
    </linearGradient>
    <linearGradient
       gradientUnits="userSpaceOnUse"
       gradientTransform="translate(2.1775,-11.693)"
       y2="300.74"
       y1="299.31"
       x2="6.3789"
       x1="6.3789"
       id="a-6">
      <stop
         id="stop896"
         offset="0"
         stop-color="#ff9600" />
      <stop
         id="stop898"
         offset="1"
         stop-color="#ff7846" />
    </linearGradient>
    <linearGradient
       gradientTransform="translate(65.639393,6.4715773)"
       gradientUnits="userSpaceOnUse"
       y2="-9.4843578"
       x2="-34.524994"
       y1="59.303883"
       x1="-34.524994"
       id="linearGradient881"
       xlink:href="#linearGradient879"
       inkscape:collect="always" />
  </defs>
  <circle
     cx="32"
     cy="32.510212"
     r="30.000591"
     opacity="0.2"
     stroke-width="0.530354"
     id="circle903" />
  <circle
     r="30"
     cy="31.48917"
     cx="32.000591"
     id="path873"
     style="fill:url(#linearGradient881);fill-opacity:1;stroke-width:3.10914;stroke-linecap:round" />
  <circle
     cx="-1248.6936"
     cy="-1241.6389"
     r="0"
     fill="#5e4aa6"
     stroke-width="1.00001"
     id="circle1027" />
  <path
     d="m 34.683924,16.368006 c -0.68659,0 -1.256366,0.548389 -1.262889,1.212938 -0.004,0.667561 0.565868,1.228939 1.257347,1.232363 2.984167,0.02241 5.437839,0.965553 7.416436,2.825574 1.955292,1.84274 2.974505,4.395746 3.000369,7.727231 v 0.0028 c 0.0071,0.662744 0.577279,1.210095 1.26566,1.210095 7.2e-5,0 0.01307,-0.0026 0.01393,-0.0028 0.689944,-0.0064 1.262917,-0.562614 1.257346,-1.229593 v -0.0028 c -0.01606,-1.941791 -0.331741,-3.727119 -0.949295,-5.298429 -0.624999,-1.587511 -1.575005,-2.992268 -2.814488,-4.160554 -2.447845,-2.30204 -5.574691,-3.491217 -9.173343,-3.516654 h -0.01108 z M 21.866312,19.24076 c -0.481468,-0.08184 -1.003012,0.0077 -1.523845,0.258129 h -0.04164 l -0.05829,0.03331 c -0.965126,0.548601 -1.869883,1.284092 -2.717285,2.206542 l -0.06661,0.07216 v 0.06661 c -0.586332,0.730999 -0.97388,1.466717 -1.063054,2.203842 -0.02845,0.124914 -0.02775,0.237522 -0.02775,0.35806 0,0.335323 0.04928,0.676103 0.152655,1.010317 l 0.02775,0.09437 0.05829,0.03331 c 0.334712,1.148376 1.094247,2.935566 2.756224,5.961941 1.106923,2.005882 2.237948,3.681501 3.361185,5.093221 0.591732,0.741957 1.262051,1.514467 2.039989,2.292661 0.0092,0.0092 0.04205,0.04275 0.07772,0.07493 0.01236,0.01236 0.02966,0.03799 0.07216,0.08049 l 0.07772,0.07772 h 0.0055 c 0.02738,0.02738 0.04586,0.04726 0.04997,0.05274 l 0.01393,0.01666 0.01393,0.01393 c 0.777967,0.769497 1.545305,1.443837 2.295361,2.031746 1.409575,1.123394 3.084782,2.263386 5.09038,3.372271 3.029786,1.671498 4.833588,2.426954 5.975868,2.756223 l 0.04164,0.04997 0.06939,0.02498 c 0.323584,0.107876 0.660299,0.157685 0.993661,0.152655 0.135204,0.0074 0.254931,-0.0021 0.369145,-0.02775 0.782287,-0.09146 1.556815,-0.461857 2.323214,-1.104677 l 0.0084,-0.01109 0.0084,-0.0055 c 0.01179,-0.01179 0.0048,-0.0061 0.01109,-0.01393 0.0068,-0.0061 0.0098,-0.01322 0.01666,-0.01943 0.907017,-0.827804 1.639097,-1.728199 2.189915,-2.692273 l 0.03608,-0.06106 v -0.05829 c 0.505897,-1.053447 0.305522,-2.12895 -0.516257,-2.814488 -0.02014,-0.01727 -0.414976,-0.347317 -0.904843,-0.746632 -0.50098,-0.408239 -1.095114,-0.888088 -1.496276,-1.18244 -0.758981,-0.561463 -1.932128,-1.28773 -2.600755,-1.659845 h -0.0028 C 37.698815,36.512888 36.3568,36.930891 35.76619,37.69567 l -1.035299,1.2962 c -0.417534,0.526091 -1.251847,0.475912 -1.273988,0.474619 -7.022224,-1.806645 -8.910155,-8.867664 -8.923513,-8.917971 -0.0013,-0.0221 -0.05173,-0.857889 0.474619,-1.282315 l 1.290643,-1.032515 c 0.766612,-0.587184 1.197617,-1.929001 0.474619,-3.216944 -0.37716,-0.665813 -1.106568,-1.847714 -1.659845,-2.600755 h -0.0028 c -0.296584,-0.399713 -0.774969,-0.99737 -1.182398,-1.498834 -0.203715,-0.250725 -0.389183,-0.480218 -0.524585,-0.643929 -0.0677,-0.08187 -0.122144,-0.147993 -0.160982,-0.194293 -0.01943,-0.02315 -0.03578,-0.03944 -0.04718,-0.05274 -0.0057,-0.0067 -0.009,-0.01108 -0.01393,-0.01666 C 22.823875,19.584817 22.368,19.326049 21.865925,19.240698 Z m 12.892646,2.814489 c -0.677197,-0.04775 -1.285683,0.459669 -1.335052,1.113005 -0.04943,0.654061 0.4782,1.237409 1.154643,1.285101 1.672777,0.118221 2.801557,0.610007 3.649954,1.507076 v 0.0028 c 0.865847,0.913767 1.259819,1.957281 1.226807,3.383497 v 0.0055 c -0.01478,0.656235 0.535769,1.212368 1.215708,1.22675 h 0.03051 c 0.670006,0 1.228555,-0.528919 1.243463,-1.176841 0.04583,-1.960124 -0.592627,-3.709213 -1.879121,-5.065511 -1.292377,-1.363034 -3.123293,-2.126392 -5.306956,-2.281576 z"
     fill="#ece2f7"
     id="path878"
     style="stroke-width:1.4211" />
</svg>
