<?xml version="1.0" encoding="UTF-8"?>
<!-- Created with Inkscape (http://www.inkscape.org/) -->
<svg width="64" height="64" version="1.1" viewBox="0 0 16.933 16.933" xmlns="http://www.w3.org/2000/svg" xmlns:cc="http://creativecommons.org/ns#" xmlns:dc="http://purl.org/dc/elements/1.1/" xmlns:rdf="http://www.w3.org/1999/02/22-rdf-syntax-ns#" xmlns:xlink="http://www.w3.org/1999/xlink">
 <defs>
  <linearGradient id="f" x1="86" x2="63" y1="19.458" y2="39" gradientTransform="matrix(.26458 0 0 .26458 -12.144 280.07)" gradientUnits="userSpaceOnUse">
   <stop stop-color="#007abb" offset="0"/>
   <stop stop-color="#006caf" offset="1"/>
  </linearGradient>
  <linearGradient id="d" x1="87" x2="63" y1="46" y2="24" gradientTransform="matrix(.26458 0 0 .26458 -12.144 280.07)" gradientUnits="userSpaceOnUse">
   <stop stop-color="#0080ce" offset="0"/>
   <stop stop-color="#008fd5" offset="1"/>
  </linearGradient>
 </defs>
 <metadata>
  <rdf:RDF>
   <cc:Work rdf:about="">
    <dc:format>image/svg+xml</dc:format>
    <dc:type rdf:resource="http://purl.org/dc/dcmitype/StillImage"/>
    <dc:title/>
   </cc:Work>
  </rdf:RDF>
 </metadata>
 <g transform="translate(0 -280.07)">
  <g>
   <circle cx="-330.35" cy="-48.312" r="0" fill="#5e4aa6" stroke-width=".26458"/>
   <circle cx="8.4935" cy="288.8" r="7.9375" opacity=".2" stroke-width=".14032"/>
   <circle cx="8.4935" cy="288.53" r="7.9375" fill="#fafafa" stroke-width=".14032"/>
   <ellipse cx="-39.434" cy="286.51" r=".90502" fill="#5e4aa6" fill-rule="evenodd" stroke-width=".26458"/>
   <g transform="translate(0 .26023)" fill="#0075b7" fill-rule="evenodd" opacity=".2">
    <path d="m10.404 284.31c-0.09052 0.0101-0.17861 0.0411-0.26665 0.0992 0.13773 0.17144-0.1403 1.7855 0.20786 2.004l0.2717 0.17053v3.8923l-0.4268 0.31978c-0.32896 0.24647 0.02978 1.6662-0.05651 1.8488 0.09533 0.0582 0.23775 0.1203 0.36237 0.10514 0.03992-5e-3 0.08033-0.016 0.12041-0.0356l1.7369-0.85164c0.18929-0.0928 0.38034-0.16954 0.38034-0.38034v-5.9044c0-0.21081-0.19104-0.28758-0.38034-0.38034l-1.7369-0.85164c-0.04007-0.0196-0.08048-0.0308-0.12041-0.0357-0.03116-4e-3 -0.06181-3e-3 -0.09199 0z" style="paint-order:stroke fill markers"/>
    <path d="m4.377 289.72 5.6512-5.2229c0.25657-0.23713 0.58888-0.15304 0.58888 0.33742v1.7579l-5.2245 3.9957c-0.091358 0.0718-0.32943 0.24314-0.53716 0.0456l-0.52856-0.50252c-0.1387-0.13187-0.059883-0.30962 0.050099-0.41127z" style="paint-order:stroke fill markers"/>
    <path d="m4.377 287.35 5.6512 5.2229c0.25657 0.23712 0.58888 0.15304 0.58888-0.33742v-1.7579l-5.2245-3.9957c-0.091358-0.0718-0.32943-0.24313-0.53716-0.0456l-0.52856 0.50252c-0.1387 0.13187-0.059883 0.30961 0.050099 0.41127z" style="paint-order:stroke fill markers"/>
   </g>
  </g>
  <g fill-rule="evenodd" stroke-width=".26458">
   <path d="m10.404 284.31c-0.09052 0.0101-0.17861 0.0411-0.26665 0.0992 0.13773 0.17144-0.1403 1.7855 0.20786 2.004l0.2717 0.17053v3.8923l-0.4268 0.31978c-0.32896 0.24647 0.02978 1.6662-0.05651 1.8488 0.09533 0.0582 0.23775 0.1203 0.36237 0.10514 0.03992-5e-3 0.08033-0.016 0.12041-0.0356l1.7369-0.85164c0.18929-0.0928 0.38034-0.16954 0.38034-0.38034v-5.9044c0-0.21081-0.19104-0.28758-0.38034-0.38034l-1.7369-0.85164c-0.04007-0.0196-0.08048-0.0308-0.12041-0.0357-0.03116-4e-3 -0.06181-3e-3 -0.09199 0z" fill="#0d96dd" style="paint-order:stroke fill markers"/>
   <path d="m4.377 289.72 5.6512-5.2229c0.25657-0.23713 0.58888-0.15304 0.58888 0.33742v1.7579l-5.2245 3.9957c-0.091358 0.0718-0.32943 0.24314-0.53716 0.0456l-0.52856-0.50252c-0.1387-0.13187-0.059883-0.30962 0.050099-0.41127z" fill="url(#f)" style="paint-order:stroke fill markers"/>
   <path d="m4.377 287.35 5.6512 5.2229c0.25657 0.23712 0.58888 0.15304 0.58888-0.33742v-1.7579l-5.2245-3.9957c-0.091358-0.0718-0.32943-0.24313-0.53716-0.0456l-0.52856 0.50252c-0.1387 0.13187-0.059883 0.30961 0.050099 0.41127z" fill="url(#d)" style="paint-order:stroke fill markers"/>
  </g>
 </g>
</svg>
