<?xml version="1.0" encoding="UTF-8"?>
<!-- Created with Inkscape (http://www.inkscape.org/) -->
<svg width="64" height="64" version="1.1" viewBox="0 0 16.933 16.933" xmlns="http://www.w3.org/2000/svg" xmlns:cc="http://creativecommons.org/ns#" xmlns:dc="http://purl.org/dc/elements/1.1/" xmlns:rdf="http://www.w3.org/1999/02/22-rdf-syntax-ns#" xmlns:xlink="http://www.w3.org/1999/xlink">
 <defs>
  <linearGradient id="linearGradient991">
   <stop stop-color="#969696" offset="0"/>
   <stop stop-color="#e6e6e6" stop-opacity=".90196" offset="1"/>
  </linearGradient>
  <linearGradient id="linearGradient677346-7" x1="19.27" x2="19.27" y1="283.7" y2="297.5" gradientTransform="matrix(.99999 0 0 .99999 -10.846 -280.06)" gradientUnits="userSpaceOnUse">
   <stop stop-color="#323232" offset="0"/>
   <stop stop-color="#464646" offset=".5"/>
   <stop stop-color="#191919" offset="1"/>
  </linearGradient>
  <linearGradient id="linearGradient677348-5" x1="-6.1738" x2="-6.1738" y1="-126.08" y2="-126.7" gradientTransform="matrix(.54036 0 0 .54036 11.594 74.016)" gradientUnits="userSpaceOnUse">
   <stop stop-color="#464646" offset="0"/>
   <stop stop-color="#191919" offset="1"/>
  </linearGradient>
  <linearGradient id="linearGradient943" x1="10.798" x2="10.798" y1="282.88" y2="283.29" gradientTransform="matrix(1.0543 0 0 .55499 4.1087 128.14)" gradientUnits="userSpaceOnUse" xlink:href="#linearGradient991"/>
  <linearGradient id="linearGradient945" x1="8.8166" x2="8.8166" y1="293.7" y2="294.12" gradientTransform="matrix(.94579 0 0 .555 7.7176 133.01)" gradientUnits="userSpaceOnUse" xlink:href="#linearGradient991"/>
  <linearGradient id="linearGradient947" x1="7.998" x2="7.998" y1="284.98" y2="285.41" gradientTransform="matrix(.94579 0 0 .555 7.9256 129.13)" gradientUnits="userSpaceOnUse" xlink:href="#linearGradient991"/>
  <linearGradient id="linearGradient949" x1="8.7643" x2="8.7643" y1="287.18" y2="287.64" gradientTransform="matrix(.94579 0 0 .555 7.919 130.1)" gradientUnits="userSpaceOnUse" xlink:href="#linearGradient991"/>
  <linearGradient id="linearGradient951" x1="8.3178" x2="8.3178" y1="289.36" y2="289.81" gradientTransform="matrix(.94579 0 0 .555 7.901 131.07)" gradientUnits="userSpaceOnUse" xlink:href="#linearGradient991"/>
  <linearGradient id="linearGradient953" x1="8.2553" x2="8.2553" y1="291.55" y2="291.96" gradientTransform="matrix(.94579 0 0 .55502 8.0111 132.03)" gradientUnits="userSpaceOnUse" xlink:href="#linearGradient991"/>
  <style type="text/css"/>
 </defs>
 <metadata>
  <rdf:RDF>
   <cc:Work rdf:about="">
    <dc:format>image/svg+xml</dc:format>
    <dc:type rdf:resource="http://purl.org/dc/dcmitype/StillImage"/>
    <dc:title/>
   </cc:Work>
  </rdf:RDF>
 </metadata>
 <g fill="#5e4aa6">
  <circle cx="-330.35" cy="-328.38" r="0" stroke-width=".26458"/>
  <circle cx="-39.434" cy="6.44" r="0" fill-rule="evenodd" stroke-width=".26458"/>
  <circle cx="-305.13" cy="-324.5" r="0" stroke-width=".26459"/>
 </g>
 <g transform="translate(-.02755 -.14845)">
  <circle cx="8.4937" cy="8.75" r="7.9376" opacity=".2" stroke-width=".14032"/>
  <ellipse cx="8.4937" cy="8.49" rx="7.7989" ry="7.9477" fill="#464646" stroke-width="1.1902" style="paint-order:stroke markers fill"/>
  <g transform="matrix(.85833 0 0 .85833 -5.1762 -241.38)">
   <circle cx="15.926" cy="290.69" r="7.9375" fill="#fafafa" style="paint-order:normal"/>
   <path d="m10.551 285.17c-0.04221 0.0443-0.07897 0.0835-0.13658 0.14895l11.024 9.8e-4c-0.05944-0.0607-0.08604-0.0922-0.14076-0.15z" fill="url(#linearGradient943)" opacity=".6" style="paint-order:normal"/>
   <path d="m10.431 296.06c0.04857 0.052 0.08052 0.0907 0.1349 0.15h10.72c0.05003-0.0561 0.07465-0.0855 0.13441-0.15z" fill="url(#linearGradient945)" opacity=".6" style="paint-order:normal"/>
   <path d="m9.1386 287.33c-0.022302 0.0517-0.037132 0.0892-0.065978 0.15h13.708c-0.02381-0.0504-0.04631-0.10145-0.06843-0.15z" fill="url(#linearGradient947)" opacity=".6" style="paint-order:normal"/>
   <path d="m8.5204 289.52c-0.00964 0.0489-0.015643 0.0999-0.024922 0.15h14.862c-0.0088-0.0501-0.01516-0.10114-0.0259-0.15z" fill="url(#linearGradient949)" opacity=".6" style="paint-order:normal"/>
   <path d="m8.4942 291.7c0.00899 0.0501 0.01744 0.10011 0.027371 0.15h14.811c0.0093-0.0539 0.01711-0.0968 0.02541-0.15z" fill="url(#linearGradient951)" opacity=".6" style="paint-order:normal"/>
   <path d="m9.0766 293.88c0.021867 0.0535 0.040442 0.0932 0.064512 0.15h13.57c0.02313-0.0512 0.03674-0.0804 0.06941-0.15z" fill="url(#linearGradient953)" opacity=".6" style="paint-order:normal"/>
  </g>
  <path d="m8.4937 3.32c-0.32459 8e-4 -0.42374 0.31784-0.58798 0.60999l-0.34223 0.60819-6.1697 5.3e-4a7.9377 8.2267 0 0 0-0.83719 3.6564 7.9377 8.2267 0 0 0 7.9377 8.2267 7.9377 8.2267 0 0 0 7.9377-8.2267 7.9377 8.2267 0 0 0-1.5556-4.875h-6.3816z" fill="url(#linearGradient677346-7)" stroke-width="1.1312" style="paint-order:stroke markers fill"/>
  <path d="m0.97535 5.5857c-0.030596 0.089967-0.058527 0.17864-0.085685 0.27641l15.21-0.00103c-0.02702-0.09299-0.05102-0.17199-0.08338-0.27538z" fill="url(#linearGradient677348-5)" stroke-width=".14297"/>
 </g>
 <circle cx="8.4665" cy="10.054" r="2.6458" fill="#fff"/>
 <path d="m9.4302 11.775c-0.038758 0-0.083976-0.01292-0.12273-0.0323l-0.83976-0.41988-0.84622 0.41988c-0.083976 0.04522-0.19379 0.03876-0.27131-0.01938-0.077516-0.05814-0.12273-0.16149-0.10336-0.25839l0.17441-0.90435-0.66535-0.62013c-0.071057-0.071057-0.096895-0.18087-0.071057-0.27131 0.032298-0.096895 0.10981-0.16795 0.21317-0.18087l0.92374-0.16795 0.41342-0.83976c0.045218-0.090436 0.13565-0.14857 0.23255-0.14857 0.096895 0 0.19379 0.058137 0.23255 0.14857l0.41342 0.83976 0.92374 0.16149c0.09689 0.012919 0.18087 0.083976 0.20671 0.18087 0.0323 0.096895 0.0065 0.20025-0.0646 0.27131l-0.66535 0.62659 0.16795 0.90436c0.019379 0.10336-0.025839 0.20025-0.10336 0.25839-0.038758 0.0323-0.090436 0.05168-0.14857 0.05168z" fill="#464646" stroke-width=".0040373" p-id="3768"/>
</svg>
