<?xml version="1.0" encoding="UTF-8"?>
<svg width="64" height="64" version="1.1" viewBox="0 0 16.933 16.933" xmlns="http://www.w3.org/2000/svg" xmlns:cc="http://creativecommons.org/ns#" xmlns:dc="http://purl.org/dc/elements/1.1/" xmlns:rdf="http://www.w3.org/1999/02/22-rdf-syntax-ns#" xmlns:xlink="http://www.w3.org/1999/xlink">
 <metadata>
  <rdf:RDF>
   <cc:Work rdf:about="">
    <dc:format>image/svg+xml</dc:format>
    <dc:type rdf:resource="http://purl.org/dc/dcmitype/StillImage"/>
    <dc:title/>
   </cc:Work>
  </rdf:RDF>
 </metadata>
 <defs>
  <linearGradient id="linearGradient1716" x1="8.6104" x2="8.6104" y1="18.013" y2="-.24765" gradientTransform="translate(-.0271 .0031005)" gradientUnits="userSpaceOnUse">
   <stop stop-color="#7846d7" offset="0"/>
   <stop stop-color="#a078ff" offset=".44623"/>
   <stop stop-color="#8c5aeb" offset="1"/>
  </linearGradient>
 </defs>
 <circle cx="8.4666" cy="8.749" r="7.9373" opacity=".35" stroke-width="1.2" style="paint-order:stroke markers fill"/>
 <circle cx="8.4666" cy="8.4665" r="7.9373" fill="#a078ff" stroke-width="1.2" style="paint-order:stroke markers fill"/>
 <path d="m8.4802 1.3095c-2.0357 3e-3 -3.9735 0.87392-5.3268 2.3947 0 0 0.0217 0.79374 0.81544 0.79374h8.7311c1.0583 0 1.1048-0.79374 1.1048-0.79374-1.3528-1.5202-3.2898-2.3913-5.3247-2.3947z" opacity=".5" stroke-width="1.08" style="paint-order:stroke markers fill"/>
 <rect x="3.1557" y="1.2054" width="10.107" height="3.2924" fill="none"/>
 <path d="m13.764 3.9285c-0.07858 0.21247-0.31795 0.56946-1.064 0.56946h-8.7311c-0.55033 0-0.7268-0.34501-0.78496-0.55861-0.01001 0.011099-0.02055 0.021399-0.03049 0.032599 0 0 0.0217 0.79064 0.81544 0.79064h8.7311c1.0583 0 1.1048-0.79064 1.1048-0.79064-0.01328-0.014898-0.02743-0.0287-0.04082-0.043399z" fill="#fff" opacity=".25" stroke-width="1.0777" style="paint-order:stroke markers fill"/>
 <circle cx="-330.35" cy="-328.38" r="0" fill="#5e4aa6" stroke-width=".26458"/>
 <circle cx="-303.87" cy="-314.1" r="0" fill="#5e4aa6" stroke-width=".26458"/>
 <path d="m3.1061 2.6231a7.9376 7.9376 0 0 0-2.5772 5.8431 7.9376 7.9376 0 0 0 7.9376 7.9376 7.9376 7.9376 0 0 0 7.9376-7.9376 7.9376 7.9376 0 0 0-2.5436-5.81c-0.26993 0.43202-0.34253 0.82265-0.05581 1.1167 0 0-0.04652 0.72452-1.1048 0.72452h-8.7313c-0.79376 0-0.81546-0.72452-0.81546-0.72452 0.27758-0.28469 0.21104-0.68879-0.04703-1.1498z" fill="url(#linearGradient1716)" stroke-width="1.2" style="paint-order:stroke markers fill"/>
 <path d="m8.0698 7.5767c0.07904 0.01433 0.1653 0.08618 0.20842 0.14366l0.69701 1.2072-0.35923 0.21556h1.1928l0.59637-1.0347-0.36652 0.20829-0.36637-0.64669c-0.03592-0.06467-0.10779-0.09334-0.18684-0.09334zm-0.41125 0.07275c-0.18323 0.0058-0.36111 0.0745-0.43656 0.20743l-0.54605 0.95576 1.0489 0.61067 0.66827-1.164-0.26588-0.44543c-0.097-0.11497-0.28549-0.17068-0.46872-0.16438zm2.8399 1.4793-1.0563 0.60352 0.66827 1.1424h0.56764c0.22994-0.04308 0.57486-0.41678 0.37366-0.80479zm-4.6776 0.25144 0.38081 0.22271-0.24429 0.40954c-0.21556 0.40239 0.14366 0.84617 0.35923 0.86951h0.5605l0.38081-0.66112 0.38081 0.20842-0.61067-1.0491zm3.4274 1.2286-0.61081 1.0491 0.61081 1.0419v-0.43827h0.74732c0.08623 0 0.14365-0.05033 0.17239-0.10778l0.67542-1.1928c-0.03593 0.02158-0.05746 0.05742-0.19398 0.07175h-1.4012zm-3.1041 0.36651c0.02874 0.03592 0.02153 0.02883 0.65384 1.1497 0.04312 0.06467 0.10064 0.1437 0.17968 0.13652h1.3437v-1.2288h-1.9975c-0.10778 0-0.14555-0.02875-0.17968-0.0575z" enable-background="new" fill="#fff" stroke-width=".83334"/>
</svg>
